<svg width="16" height="16" viewBox="0 0 16 16" fill="none" xmlns="http://www.w3.org/2000/svg">
<g opacity="0.7">
<circle cx="8" cy="8" r="7.4" stroke="#24272C" stroke-width="1.2"/>
<path d="M6.85714 4.95238C6.85714 5.58356 6.34547 6.09524 5.71428 6.09524C5.0831 6.09524 4.57143 5.58356 4.57143 4.95238C4.57143 4.3212 5.0831 3.80952 5.71428 3.80952C6.34547 3.80952 6.85714 4.3212 6.85714 4.95238Z" fill="#24272C"/>
<path d="M11.4286 4.95238C11.4286 5.58356 10.9169 6.09524 10.2857 6.09524C9.65453 6.09524 9.14285 5.58356 9.14285 4.95238C9.14285 4.3212 9.65453 3.80952 10.2857 3.80952C10.9169 3.80952 11.4286 4.3212 11.4286 4.95238Z" fill="#24272C"/>
<path fill-rule="evenodd" clip-rule="evenodd" d="M3.04762 8.12699C3.04762 10.792 5.26488 12.9524 8 12.9524C10.7351 12.9524 12.9524 10.792 12.9524 8.12699C12.9524 7.84646 12.719 7.61905 12.4311 7.61905H3.56893C3.28102 7.61905 3.04762 7.84646 3.04762 8.12699ZM8.00913 11.9736C6.03667 11.9736 4.3731 10.5421 4.12933 8.63492H11.8889C11.6451 10.5421 9.98158 11.9736 8.00913 11.9736Z" fill="#24272C"/>
</g>
</svg>
