<svg width="56" height="65" viewBox="0 0 56 65" fill="none" xmlns="http://www.w3.org/2000/svg">
  <path d="M27.5218 33.5235L0.778076 17.5096L27.5218 2.04688L54.2331 17.1855L27.5218 33.5235ZM5.70541 17.542L27.4894 30.5087L49.2734 17.1855L27.5218 4.93196L5.70541 17.542Z" fill="#D0408E" />
  <path d="M27.5217 63.1847L0.680664 45.1935L27.5217 30.3142L53.9412 45.3555L27.5217 63.1847ZM5.47833 45.3555L27.5217 60.1375L49.2408 45.55L27.5217 33.1669L5.47833 45.3555Z" fill="#D0408E" />
  <path d="M4.17464 16.8002L1.9873 18.0027L26.2247 62.0903L28.412 60.8878L4.17464 16.8002Z" fill="#D0408E" />
  <path d="M50.2288 17.2407L26.5615 61.1956L28.7593 62.3789L52.4265 18.424L50.2288 17.2407Z" fill="#D0408E" />
  <path d="M26.2441 3.09747L2.32056 44.5342L4.48223 45.7822L28.4057 4.34551L26.2441 3.09747Z" fill="#D0408E" />
  <path d="M28.7302 2.8667L26.5618 4.10303L50.5658 46.2036L52.7342 44.9673L28.7302 2.8667Z" fill="#D0408E" />
  <path d="M28.8508 3.27881H26.3547V61.4343H28.8508V3.27881Z" fill="#D0408E" />
  <path d="M4.27904 17.769H1.78296V45.8419H4.27904V17.769Z" fill="#D0408E" />
  <path d="M52.8066 17.4771H50.3105V45.5499H52.8066V17.4771Z" fill="#D0408E" />
  <path
    d="M27.6192 7.10391C29.5349 7.10391 31.0878 5.55098 31.0878 3.63533C31.0878 1.71969 29.5349 0.166748 27.6192 0.166748C25.7036 0.166748 24.1506 1.71969 24.1506 3.63533C24.1506 5.55098 25.7036 7.10391 27.6192 7.10391Z"
    fill="#D0408E" />
  <path
    d="M51.575 20.946C53.4907 20.946 55.0436 19.393 55.0436 17.4774C55.0436 15.5617 53.4907 14.0088 51.575 14.0088C49.6594 14.0088 48.1064 15.5617 48.1064 17.4774C48.1064 19.393 49.6594 20.946 51.575 20.946Z"
    fill="#D0408E" />
  <path d="M3.46858 20.946C5.38423 20.946 6.93717 19.393 6.93717 17.4774C6.93717 15.5617 5.38423 14.0088 3.46858 14.0088C1.55294 14.0088 0 15.5617 0 17.4774C0 19.393 1.55294 20.946 3.46858 20.946Z"
    fill="#D0408E" />
  <path
    d="M27.6191 37.8026C30.6268 37.8026 33.0651 35.3644 33.0651 32.3566C33.0651 29.3489 30.6268 26.9106 27.6191 26.9106C24.6113 26.9106 22.1731 29.3489 22.1731 32.3566C22.1731 35.3644 24.6113 37.8026 27.6191 37.8026Z"
    fill="#D0408E" />
  <path
    d="M51.575 48.8244C53.4907 48.8244 55.0436 47.2714 55.0436 45.3558C55.0436 43.4401 53.4907 41.8872 51.575 41.8872C49.6594 41.8872 48.1064 43.4401 48.1064 45.3558C48.1064 47.2714 49.6594 48.8244 51.575 48.8244Z"
    fill="#D0408E" />
  <path
    d="M3.46858 48.8244C5.38423 48.8244 6.93717 47.2714 6.93717 45.3558C6.93717 43.4401 5.38423 41.8872 3.46858 41.8872C1.55294 41.8872 0 43.4401 0 45.3558C0 47.2714 1.55294 48.8244 3.46858 48.8244Z"
    fill="#D0408E" />
  <path
    d="M27.6192 65.0002C29.5349 65.0002 31.0878 63.4472 31.0878 61.5316C31.0878 59.6159 29.5349 58.063 27.6192 58.063C25.7036 58.063 24.1506 59.6159 24.1506 61.5316C24.1506 63.4472 25.7036 65.0002 27.6192 65.0002Z"
    fill="#D0408E" />
  <path d="M27.5218 33.5235L0.778076 17.5096L27.5218 2.04688L54.2331 17.1855L27.5218 33.5235ZM5.70541 17.542L27.4894 30.5087L49.2734 17.1855L27.5218 4.93196L5.70541 17.542Z" fill="#D0408E" />
  <path d="M27.5217 63.1847L0.680664 45.1935L27.5217 30.3142L53.9412 45.3555L27.5217 63.1847ZM5.47833 45.3555L27.5217 60.1375L49.2408 45.55L27.5217 33.1669L5.47833 45.3555Z" fill="#D0408E" />
  <path d="M4.17464 16.8002L1.9873 18.0027L26.2247 62.0903L28.412 60.8878L4.17464 16.8002Z" fill="#D0408E" />
  <path d="M50.2288 17.2407L26.5615 61.1956L28.7593 62.3789L52.4265 18.424L50.2288 17.2407Z" fill="#D0408E" />
  <path d="M26.2441 3.09747L2.32056 44.5342L4.48223 45.7822L28.4057 4.34551L26.2441 3.09747Z" fill="#D0408E" />
  <path d="M28.7302 2.8667L26.5618 4.10303L50.5658 46.2036L52.7342 44.9673L28.7302 2.8667Z" fill="#D0408E" />
  <path d="M28.8508 3.27881H26.3547V61.4343H28.8508V3.27881Z" fill="#D0408E" />
  <path d="M4.27904 17.769H1.78296V45.8419H4.27904V17.769Z" fill="#D0408E" />
  <path d="M52.8066 17.4771H50.3105V45.5499H52.8066V17.4771Z" fill="#D0408E" />
  <path
    d="M27.6192 7.10391C29.5349 7.10391 31.0878 5.55098 31.0878 3.63533C31.0878 1.71969 29.5349 0.166748 27.6192 0.166748C25.7036 0.166748 24.1506 1.71969 24.1506 3.63533C24.1506 5.55098 25.7036 7.10391 27.6192 7.10391Z"
    fill="#FFAFDA" />
  <path
    d="M51.575 20.946C53.4907 20.946 55.0436 19.393 55.0436 17.4774C55.0436 15.5617 53.4907 14.0088 51.575 14.0088C49.6594 14.0088 48.1064 15.5617 48.1064 17.4774C48.1064 19.393 49.6594 20.946 51.575 20.946Z"
    fill="#FFAFDA" />
  <path d="M3.46858 20.946C5.38423 20.946 6.93717 19.393 6.93717 17.4774C6.93717 15.5617 5.38423 14.0088 3.46858 14.0088C1.55294 14.0088 0 15.5617 0 17.4774C0 19.393 1.55294 20.946 3.46858 20.946Z"
    fill="#FFAFDA" />
  <path
    d="M27.6191 37.8026C30.6268 37.8026 33.0651 35.3644 33.0651 32.3566C33.0651 29.3489 30.6268 26.9106 27.6191 26.9106C24.6113 26.9106 22.1731 29.3489 22.1731 32.3566C22.1731 35.3644 24.6113 37.8026 27.6191 37.8026Z"
    fill="#FFAFDA" />
  <path
    d="M51.575 48.8244C53.4907 48.8244 55.0436 47.2714 55.0436 45.3558C55.0436 43.4401 53.4907 41.8872 51.575 41.8872C49.6594 41.8872 48.1064 43.4401 48.1064 45.3558C48.1064 47.2714 49.6594 48.8244 51.575 48.8244Z"
    fill="#FFAFDA" />
  <path
    d="M3.46858 48.8244C5.38423 48.8244 6.93717 47.2714 6.93717 45.3558C6.93717 43.4401 5.38423 41.8872 3.46858 41.8872C1.55294 41.8872 0 43.4401 0 45.3558C0 47.2714 1.55294 48.8244 3.46858 48.8244Z"
    fill="#FFAFDA" />
  <path
    d="M27.6192 65.0002C29.5349 65.0002 31.0878 63.4472 31.0878 61.5316C31.0878 59.6159 29.5349 58.063 27.6192 58.063C25.7036 58.063 24.1506 59.6159 24.1506 61.5316C24.1506 63.4472 25.7036 65.0002 27.6192 65.0002Z"
    fill="#FFAFDA" />
</svg>