<svg width="56" height="56" viewBox="0 0 56 56" fill="none" xmlns="http://www.w3.org/2000/svg">
  <path d="M32.8214 2.37817H24.2789L30.1238 26.2074L53.953 32.0523V23.0602L50.3562 13.1688L43.1624 5.52543L32.8214 2.37817Z" fill="#FFAFDA" />
  <path
    d="M55.0436 19.5522C53.8908 15.0903 51.5501 11.0005 48.2744 7.72467C44.9984 4.4485 40.9081 2.10765 36.4457 0.955207C32.1159 -0.163237 27.5442 -0.144212 23.2253 1.00995C22.7533 1.13613 22.3509 1.44459 22.1065 1.86756C21.8622 2.29054 21.7959 2.7933 21.9222 3.26525L28.1584 26.5389C28.3316 27.1853 28.8422 27.6863 29.4914 27.8482C29.4954 27.8492 29.4996 27.8503 29.5038 27.8513L52.7349 34.0759C52.8916 34.1178 53.0519 34.1386 53.2114 34.1386C53.532 34.1386 53.8502 34.0547 54.1326 33.8915C54.5556 33.647 54.8642 33.2445 54.9902 32.7724C56.1437 28.4533 56.1622 23.8818 55.0436 19.5522ZM51.834 30.0224L31.4398 24.5578L25.9757 4.16583C29.1379 3.59666 32.4045 3.71462 35.5249 4.52056C39.3509 5.50877 42.8593 7.51711 45.6706 10.3284C48.4817 13.1395 50.4901 16.6476 51.4783 20.4732C52.2846 23.5938 52.4028 26.8604 51.834 30.0224Z"
    fill="#D0408E" />
  <path
    d="M49.6824 34.5243L27.4345 28.563L21.4738 6.31736C21.2107 5.33578 20.202 4.75274 19.2209 5.01492C14.8395 6.18381 10.8196 8.50576 7.59553 11.7299C2.69755 16.628 0 23.1401 0 30.0668C0 36.9933 2.69755 43.5054 7.59553 48.4035C12.6511 53.459 19.2917 55.9868 25.9324 55.9868C32.5731 55.9868 39.2138 53.459 44.2693 48.4035C47.4939 45.1789 49.8162 41.1585 50.985 36.7773C51.2468 35.7956 50.6639 34.7872 49.6824 34.5243ZM10.1993 14.3337C12.5286 12.0043 15.3406 10.2243 18.413 9.12157L23.8779 29.5173L8.9516 44.4435C1.54756 35.711 1.96268 22.5704 10.1993 14.3337ZM41.6654 45.7997C33.4285 54.0365 20.288 54.4516 11.5554 47.0473L26.4825 32.1201L46.8783 37.5851C45.7757 40.6577 43.9952 43.4699 41.6654 45.7997Z"
    fill="#D0408E" />
</svg>