<svg width="26" height="28" viewBox="0 0 26 28" fill="none" xmlns="http://www.w3.org/2000/svg">
  <path fill-rule="evenodd" clip-rule="evenodd"
    d="M14.5849 21.979C12.2709 24.7367 8.04437 25.1065 5.28661 22.7924C2.52885 20.4784 2.15908 16.2519 4.47311 13.4942L12.5722 3.842C14.2692 1.81964 17.3123 1.5534 19.3346 3.25036C21.357 4.94732 21.6232 7.9904 19.9263 10.0128L13.3698 17.8264C12.2899 19.1134 10.4303 19.2761 9.14333 18.1962C7.85638 17.1163 7.69368 15.2566 8.77356 13.9697L14.5587 7.07528L15.9375 8.2323L10.1524 15.1267C9.68963 15.6783 9.7488 16.3545 10.3003 16.8173C10.8519 17.2801 11.5281 17.2209 11.9909 16.6694L18.5474 8.85574C19.6273 7.56878 19.4646 5.70913 18.1776 4.62924C16.8907 3.54936 15.031 3.71206 13.9511 4.99901L5.85199 14.6512C4.15503 16.6735 4.42127 19.7166 6.44362 21.4136C8.46598 23.1105 11.5091 22.8443 13.206 20.8219L20.5338 12.089L21.9127 13.246L14.5849 21.979Z"
    fill="#919FB5" />
</svg>