<svg width="48" height="61" viewBox="0 0 48 61" fill="none" xmlns="http://www.w3.org/2000/svg">
  <path
    d="M29.3218 1.86182L24.4633 4.18029L19.2723 1.76805C18.7949 1.54655 18.2638 1.4674 17.7427 1.54008C17.2215 1.61277 16.7323 1.8342 16.3338 2.17786C15.9352 2.52151 15.6443 2.97279 15.4957 3.47762C15.3472 3.98245 15.3474 4.51941 15.4962 5.02414L17.005 10.1384H31.6318L33.1234 5.07529C33.2651 4.57022 33.2585 4.0351 33.1046 3.53365C32.9507 3.0322 32.6559 2.58556 32.2553 2.24694C31.8547 1.90832 31.3652 1.69198 30.8451 1.6237C30.325 1.55542 29.7963 1.63808 29.3218 1.86182Z"
    fill="#7ED2FF" />
  <path
    d="M29.322 1.86191L27.7536 2.612C28.0355 2.95358 28.2282 3.35977 28.3145 3.79416C28.4008 4.22855 28.3779 4.67756 28.248 5.10095L26.7563 10.1641H31.6319L33.1236 5.10095C33.2718 4.59423 33.2703 4.05545 33.1192 3.54957C32.9681 3.0437 32.6739 2.59234 32.272 2.24994C31.8701 1.90754 31.3778 1.68872 30.8543 1.61987C30.3309 1.55101 29.7987 1.63507 29.322 1.86191Z"
    fill="#3CB1FE" />
  <path
    d="M46.6935 44.5746C46.6935 57.1216 36.5246 59.7469 23.9776 59.7469C11.4306 59.7469 1.25318 57.1131 1.25318 44.5746C1.25318 32.0361 11.4306 17.3666 23.9776 17.3666C36.5246 17.3666 46.6935 32.019 46.6935 44.5746Z"
    fill="#7ED2FF" />
  <path
    d="M23.9776 17.3666C22.3242 17.3738 20.681 17.6266 19.102 18.1167C29.3305 21.245 36.9422 33.6897 36.9422 44.5405C36.9422 55.3913 29.2708 58.8349 19.102 59.5594C20.6703 59.6702 22.2984 59.7128 23.9776 59.7128C36.5246 59.7128 46.6935 57.0875 46.6935 44.5405C46.6935 31.9935 36.5246 17.3666 23.9776 17.3666Z"
    fill="#3CB1FE" />
  <path
    d="M23.9774 61C12.7857 61 0 59.1333 0 44.5746C0.183018 37.6294 2.61138 30.9305 6.92132 25.4813C11.6776 19.438 17.7295 16.1052 23.9689 16.1052C30.2083 16.1052 36.2687 19.4294 41.0165 25.4813C45.3325 30.9283 47.767 37.6275 47.9549 44.5746C47.9549 59.1333 35.1436 61 23.9774 61ZM23.9774 18.6282C12.0867 18.6282 2.55714 32.8118 2.55714 44.5746C2.55714 54.3344 8.97555 58.494 24.02 58.494C39.0645 58.494 45.4403 54.3259 45.4403 44.5746C45.4403 32.8118 35.8681 18.6282 23.9774 18.6282Z"
    fill="#0757A0" />
  <path
    d="M30.7796 18.04H17.1415C16.0881 18.04 15.0777 17.6215 14.3328 16.8766C13.5879 16.1317 13.1694 15.1214 13.1694 14.0679V13.2156C13.1694 12.1621 13.5879 11.1518 14.3328 10.4069C15.0777 9.66196 16.0881 9.24347 17.1415 9.24347H30.7796C31.833 9.24347 32.8434 9.66196 33.5883 10.4069C34.3332 11.1518 34.7517 12.1621 34.7517 13.2156V14.0679C34.7517 15.1214 34.3332 16.1317 33.5883 16.8766C32.8434 17.6215 31.833 18.04 30.7796 18.04ZM17.1415 11.758C16.7542 11.758 16.3825 11.9113 16.1078 12.1844C15.8331 12.4575 15.6777 12.8282 15.6754 13.2156V14.0679C15.6777 14.4553 15.8331 14.826 16.1078 15.0991C16.3825 15.3722 16.7542 15.5255 17.1415 15.5255H30.7796C31.1655 15.5233 31.5349 15.369 31.8078 15.0961C32.0806 14.8233 32.2349 14.4538 32.2371 14.0679V13.2156C32.2349 12.8297 32.0806 12.4602 31.8078 12.1874C31.5349 11.9145 31.1655 11.7602 30.7796 11.758H17.1415Z"
    fill="#0757A0" />
  <path
    d="M30.7796 9.24347H17.1842C14.9857 9.24347 13.2036 11.0256 13.2036 13.2241V14.0594C13.2036 16.2578 14.9857 18.04 17.1842 18.04H30.7796C32.978 18.04 34.7602 16.2578 34.7602 14.0594V13.2241C34.7602 11.0256 32.978 9.24347 30.7796 9.24347Z"
    fill="#0757A0" />
  <path
    d="M30.771 11.758H17.1756C16.3659 11.758 15.7095 12.4144 15.7095 13.2241V14.0679C15.7095 14.8776 16.3659 15.534 17.1756 15.534H30.771C31.5807 15.534 32.2371 14.8776 32.2371 14.0679V13.2241C32.2371 12.4144 31.5807 11.758 30.771 11.758Z"
    fill="white" />
  <path
    d="M31.6318 11.417H17.0476C16.7832 11.4188 16.5249 11.3375 16.3093 11.1845C16.0936 11.0316 15.9314 10.8148 15.8457 10.5647L14.2858 5.36515C14.0699 4.62977 14.0709 3.84769 14.2886 3.11285C14.5063 2.378 14.9316 1.72164 15.5133 1.22258C16.0906 0.722721 16.8005 0.401091 17.557 0.296696C18.3135 0.192302 19.084 0.309626 19.7752 0.634443L24.4547 2.80801L28.7848 0.728204C29.4733 0.398905 30.2427 0.276766 30.9993 0.376641C31.7559 0.476517 32.4672 0.794104 33.0467 1.29077C33.6397 1.78718 34.0738 2.44688 34.2951 3.18791C34.5163 3.92893 34.515 4.71864 34.2912 5.45891L32.7995 10.522C32.723 10.7746 32.5691 10.9969 32.3596 11.1574C32.1501 11.318 31.8956 11.4088 31.6318 11.417ZM17.9937 8.90252H30.6856L31.913 4.75143C31.9964 4.47443 31.997 4.17909 31.9147 3.90177C31.8323 3.62445 31.6707 3.37727 31.4496 3.19065C31.2286 3.00404 30.9578 2.88614 30.6706 2.85147C30.3834 2.8168 30.0923 2.86688 29.8332 2.99553L25.0003 5.314C24.8326 5.3942 24.6491 5.43583 24.4633 5.43583C24.2774 5.43583 24.0939 5.3942 23.9263 5.314L18.7523 2.9103C18.4942 2.78668 18.2054 2.74178 17.922 2.78119C17.6385 2.8206 17.373 2.94258 17.1584 3.13191C16.9399 3.3144 16.7804 3.55753 16.7 3.8306C16.6196 4.10367 16.6219 4.39443 16.7066 4.6662L17.9937 8.90252Z"
    fill="#0757A0" />
  <path
    d="M27.7279 36.2725C27.2897 35.7432 26.7362 35.3213 26.1097 35.0391C25.4833 34.7569 24.8005 34.6219 24.1138 34.6444C22.3409 34.6444 20.7043 35.1644 20.7043 36.656C20.7043 38.1477 22.4091 38.3608 24.182 38.5398C27.3188 38.9234 30.6857 39.4604 30.6857 43.2364C30.6857 46.1175 28.2393 47.7455 25.5714 47.9842V50.1151H22.8779V48.0438C20.4827 47.8307 18.258 46.7397 17.2607 44.3871L19.7752 43.3216C20.3548 44.694 22.2556 45.5634 24.0371 45.5634C25.9635 45.5634 27.7364 44.9071 27.7364 43.2364C27.7364 41.83 25.9635 41.31 23.9774 41.0799C20.9174 40.7389 17.9255 40.2275 17.9255 36.656C17.9255 33.8602 20.406 32.5731 22.8864 32.2748V30.4166H25.5714V32.2748C27.3869 32.5561 29.0576 33.238 30.0123 35.207L27.7279 36.2725Z"
    fill="white" />
</svg>