<svg width="88" height="81" viewBox="0 0 88 81" fill="none" xmlns="http://www.w3.org/2000/svg">
  <ellipse cx="42.5" cy="47" rx="30.5" ry="30" fill="#7ED2FF" />
  <path
    d="M32.8057 55.0645V59H17.4268V55.6699L24.5107 48.2227C25.1364 47.5062 25.641 46.8654 26.0244 46.3003C26.4079 45.7251 26.6854 45.2054 26.8569 44.7412C27.0386 44.277 27.1294 43.8582 27.1294 43.4849C27.1294 42.8491 27.0335 42.3193 26.8418 41.8955C26.6602 41.4616 26.3877 41.1336 26.0244 40.9116C25.6712 40.6896 25.2323 40.5786 24.7075 40.5786C24.1828 40.5786 23.7236 40.73 23.3301 41.0327C22.9365 41.3354 22.6287 41.7492 22.4067 42.2739C22.1948 42.7987 22.0889 43.389 22.0889 44.0449H16.9727C16.9727 42.6927 17.3006 41.4565 17.9565 40.3364C18.6226 39.2163 19.5459 38.3232 20.7266 37.6572C21.9072 36.9811 23.2746 36.6431 24.8286 36.6431C26.4533 36.6431 27.8156 36.8953 28.9155 37.3999C30.0155 37.9045 30.8429 38.6361 31.3979 39.5947C31.9631 40.5433 32.2456 41.6886 32.2456 43.0308C32.2456 43.7977 32.1245 44.5343 31.8823 45.2407C31.6401 45.9471 31.292 46.6484 30.8379 47.3447C30.3838 48.0309 29.8288 48.7373 29.1729 49.4639C28.527 50.1904 27.7904 50.9624 26.9629 51.7798L24.1172 55.0645H32.8057Z"
    fill="#0757A0" />
  <path d="M48.606 50.3872V54.3228H32.7427L32.4399 51.2046L41.2949 36.9609H45.3213L40.9468 44.1206L37.314 50.3872H48.606ZM46.3809 36.9609V59H41.2798V36.9609H46.3809Z" fill="#0757A0" />
  <path d="M58.0161 42.6221L60.3169 47.1328L62.6934 42.6221H67.9912L63.6924 50.5991L68.2183 59H62.875L60.3169 54.1562L57.7739 59H52.4307L56.9565 50.5991L52.6729 42.6221H58.0161Z" fill="#0757A0" />
  <path d="M87.6338 36.9609V39.6855L79.3994 59H74.0107L82.2603 40.8965H71.7402V36.9609H87.6338Z" fill="#0757A0" />
  <path
    d="M76.9793 8.52471C75.1667 8.37774 73.55 9.70046 73.3867 11.5131L72.9622 16.3467C65.5647 6.38549 53.6275 -0.0648281 40.1717 0.000491504C17.8487 0.114801 -0.0488894 17.9797 0.000100332 40.0904C0.0327602 62.1521 18.11 80.0171 40.384 80.0171C47.7814 80.0171 54.7053 78.0411 60.6657 74.6119C62.3967 73.6157 62.8703 71.3459 61.6782 69.7456C60.6494 68.3738 58.7551 67.9983 57.2691 68.8637C52.3048 71.7215 46.5404 73.3545 40.384 73.3545C21.8005 73.3545 6.74435 58.4453 6.72802 40.0414C6.71169 21.5723 21.7352 6.6631 40.384 6.6631C51.7823 6.6631 61.8415 12.2643 67.9325 20.8538L62.6743 20.3966C60.8454 20.2496 59.245 21.5723 59.0817 23.3849C58.9184 25.1975 60.2738 26.7815 62.0864 26.9448L75.232 28.0879C75.33 28.0879 75.428 28.1043 75.526 28.1043C77.2243 28.1043 78.6776 26.8142 78.8246 25.1159L79.984 12.101C80.1636 10.2883 78.8083 8.68801 76.9793 8.52471Z"
    fill="#0757A0" />
</svg>