<svg width="62" height="50" viewBox="0 0 62 50" fill="none" xmlns="http://www.w3.org/2000/svg">
  <path d="M22.5 23L26 22L30.5 24.5L36 22L39.5 23L33.5 29L30.5 25.5L27.5 29L22.5 23Z" fill="#7ED2FF" />
  <path d="M22.5 11.5V2L26 1H37L39.5 4V11.5L37.5 12.5L36 10.5L35.5 9L26 6.5V10L24 13.5L22.5 11.5Z" fill="#7ED2FF" />
  <rect x="1" y="45" width="60" height="4" fill="#7ED2FF" />
  <path d="M26.8675 7.78881L34.6989 9.35508V10.5421H36.5061V7.87363L25.0603 5.58447V10.5421H26.8675V7.78881Z" fill="#0757A0" />
  <path
    d="M49.8852 44.3373L47.0116 23.2645L36.506 21.3543V18.5089C37.6677 17.2037 38.3389 15.5682 38.4243 13.8174L40.3615 11.8802V4.75904C40.3615 2.13494 38.2265 0 35.6024 0H25.9639C23.3398 0 21.2048 2.13494 21.2048 4.75904V11.8811L23.1611 13.8317C23.3069 15.5766 24.0007 17.1628 25.0602 18.4037V21.3542L14.5547 23.2643L11.6811 44.3373H0V50H61.5663V44.3373H49.8852ZM18.3133 44.3373H14.1858L18.3133 41.9788V44.3373ZM26.8675 19.9617C27.9522 20.6369 29.2087 21.0406 30.5484 21.0808C30.6278 21.0833 30.7069 21.0845 30.7859 21.0845C32.1852 21.0845 33.526 20.7108 34.6989 20.0089V21.5969L30.7833 23.9463L26.8676 21.5969V19.9617H26.8675ZM30.7831 26.506L32.5904 28.9157H28.9759L30.7831 26.506ZM34.8007 28.9157L39.1678 23.6752L42.2072 24.2278L39.8633 28.9157H34.8007ZM21.703 28.9157L19.359 24.2277L22.3984 23.6751L26.7655 28.9157H21.703ZM20.1205 30.7229H41.4458V44.3373H20.1205V30.7229ZM43.253 41.9788L47.3805 44.3373H43.253V41.9788ZM47.8108 42.5018L43.253 39.8972V28.9157H41.8837L44.0593 24.5645L45.3981 24.808L47.8108 42.5018ZM37.1249 23.3037L33.7121 27.3992L32.1072 25.2594L35.7755 23.0583L37.1249 23.3037ZM24.9307 13.0441L23.0121 11.131V4.75904C23.0121 3.13145 24.3363 1.80723 25.9639 1.80723H35.6024C37.23 1.80723 38.5542 3.13145 38.5542 4.75904V11.1318L36.6265 13.0595V13.4337C36.6265 15.0277 35.9964 16.5171 34.8521 17.6276C33.7083 18.7375 32.1981 19.3216 30.6025 19.2745C27.556 19.183 25.0707 16.6018 24.9446 13.3983L24.9307 13.0441ZM25.7907 23.0583L29.459 25.2594L27.8542 27.3992L24.4413 23.3037L25.7907 23.0583ZM16.1682 24.808L17.507 24.5645L19.6825 28.9157H18.3133V39.8972L13.7554 42.5017L16.1682 24.808ZM59.759 48.1928H1.80723V46.1446H11.4347H18.3133H19.2169H42.3494H43.253H50.1316H59.759V48.1928Z"
    fill="#0757A0" />
  <path d="M34.6386 36.6265H26.9277V38.4337H34.6386V36.6265Z" fill="#0757A0" />
</svg>