<svg width="196" height="194" viewBox="0 0 196 194" fill="none" xmlns="http://www.w3.org/2000/svg">
  <ellipse cx="114.5" cy="137.5" rx="81.5" ry="56.5" fill="url(#paint0_radial_780_6)" />
  <path
    d="M46.293 90.6391C34.9395 84.149 23.0548 78.2067 10.307 75.3849C8.53593 74.898 6.68948 74.746 4.86261 74.9367C3.9443 75.0342 3.06317 75.3522 2.29436 75.8638C1.52555 76.3754 0.891871 77.0653 0.447341 77.8747C-0.648175 80.1321 0.447353 82.8543 1.80845 84.9624C4.87921 89.5934 9.47704 92.9629 14.1081 96.0337C26.7895 104.449 40.4337 111.305 54.0281 118.143C52.3682 108.466 48.9156 100.134 46.293 90.6557"
    fill="white" />
  <path
    d="M133.354 115.652C137.056 128.201 141.538 140.683 148.808 151.555C149.749 153.135 150.976 154.526 152.426 155.655C153.158 156.215 154.012 156.593 154.918 156.757C155.825 156.922 156.757 156.868 157.638 156.601C159.995 155.705 161.108 153.016 161.556 150.543C162.535 145.065 161.556 139.438 160.327 134.027C157.008 119.088 151.862 104.797 146.766 90.4556C141.322 98.6387 138.019 107.054 133.354 115.652Z"
    fill="white" />
  <path
    d="M46.1777 90.3888C46.1777 90.3888 47.0741 177.283 95.8411 178.976C144.608 180.669 146.65 91.003 146.65 90.3888C146.65 90.3888 140.89 77.4252 96.4055 77.9232C51.9209 78.4211 46.1777 90.3888 46.1777 90.3888Z"
    fill="white" />
  <path
    d="M110.912 124.897C110.67 128.214 109.45 131.384 107.407 134.008C105.363 136.631 102.588 138.59 99.431 139.636C96.2745 140.682 92.8787 140.768 89.6729 139.885C86.4671 139.001 83.5954 137.186 81.4208 134.671C79.2462 132.155 77.8664 129.051 77.4558 125.751C77.0452 122.451 77.6223 119.103 79.1142 116.132C80.606 113.16 82.9456 110.697 85.837 109.054C88.7285 107.412 92.042 106.664 95.3587 106.904C97.5622 107.062 99.713 107.653 101.688 108.643C103.663 109.633 105.423 111.003 106.868 112.675C108.312 114.346 109.413 116.286 110.107 118.383C110.801 120.481 111.074 122.694 110.912 124.897Z"
    fill="#263238" />
  <path
    d="M106.364 124.565C106.187 126.981 105.297 129.29 103.809 131.2C102.32 133.111 100.298 134.537 97.9985 135.299C95.6992 136.06 93.2257 136.123 90.8906 135.48C88.5556 134.836 86.4637 133.514 84.8796 131.682C83.2955 129.85 82.2901 127.589 81.9905 125.185C81.691 122.782 82.1108 120.343 83.1967 118.178C84.2827 116.013 85.9861 114.218 88.0918 113.021C90.1974 111.824 92.6107 111.278 95.0266 111.452C98.2679 111.69 101.282 113.205 103.408 115.663C105.534 118.122 106.597 121.323 106.364 124.565Z"
    fill="white" />
  <path
    d="M100.455 126.79C100.362 126.119 100.323 125.442 100.339 124.765C100.339 123.503 100.339 121.694 100.339 119.486L100.471 119.735L94.1141 116.05H94.4627L88.1054 119.636C87.9228 119.918 88.3377 119.237 88.2879 119.304V121.179C88.2879 121.81 88.2879 122.424 88.2879 123.038C88.2879 124.25 88.2879 125.428 88.2879 126.574L88.1219 126.258L94.3465 130.076H94.0809C96.0229 129.03 97.6165 128.2 98.7452 127.636C99.3317 127.293 99.9484 127.004 100.588 126.773C100.067 127.17 99.5112 127.52 98.9277 127.819C97.8488 128.483 96.272 129.479 94.2801 130.574H94.1473L93.9979 130.491L87.6904 126.823L87.5244 126.723V126.507C87.5244 125.379 87.5244 124.184 87.5244 122.972C87.5244 122.358 87.5244 121.744 87.5244 121.113V119.37L87.7236 119.038L94.0975 115.502L94.2801 115.403L94.4461 115.519L100.687 119.32H100.82V119.47C100.82 121.777 100.671 123.619 100.604 124.864C100.608 125.509 100.558 126.153 100.455 126.79Z"
    fill="white" />
  <path
    d="M45.9277 90.3061H46.1767L46.9237 90.5717L49.7454 91.5676L51.7871 92.2814C52.534 92.5304 53.3639 92.7793 54.2437 93.0449C56.0197 93.5761 58.0116 94.2566 60.269 94.7048L63.8045 95.6177C65.0329 95.9165 66.3442 96.1489 67.6721 96.4477C70.3445 97.0618 73.2326 97.4768 76.2702 97.9581C89.4811 99.8599 102.896 99.8599 116.107 97.9581C119.145 97.4768 122.033 97.0618 124.705 96.4477C126.033 96.1655 127.345 95.9331 128.573 95.6177L132.108 94.7048C134.366 94.1736 136.358 93.4931 138.134 93.0449C139.013 92.7627 139.794 92.5304 140.59 92.2814L142.632 91.551L145.454 90.5551L146.201 90.3061L146.45 90.2231C146.45 90.2231 146.367 90.2231 146.217 90.3393L145.487 90.6215L142.682 91.6838L140.64 92.4308C139.893 92.6963 139.08 92.9453 138.2 93.2275C136.424 93.7753 134.432 94.4724 132.175 95.0202L128.639 95.9497C127.394 96.2651 126.1 96.4975 124.755 96.7962C122.099 97.427 119.195 97.842 116.157 98.3399C102.91 100.287 89.4503 100.287 76.2038 98.3399C73.1662 97.842 70.2615 97.4104 67.6057 96.7962C66.2612 96.4975 64.9665 96.2485 63.7216 95.9331L60.186 95.0036C57.9286 94.4558 55.9368 93.7587 54.1607 93.2109L51.7207 92.4308L49.679 91.6672L46.8739 90.6049L46.1601 90.3227L45.9277 90.3061Z"
    fill="#263238" />
  <g opacity="0.3">
    <path opacity="0.3" d="M46.1768 90.3888C46.1768 90.3888 51.9365 78.4377 96.4045 77.9231C140.873 77.4085 146.649 90.3888 146.649 90.3888C146.649 90.3888 101.733 112.515 46.1768 90.3888Z"
      fill="black" />
  </g>
  <path
    d="M61.4147 152.219C61.4147 152.219 61.4147 152.219 61.3317 152.103L61.1159 151.704L60.3191 150.194L59.7382 149.082L59.124 147.737C58.6759 146.774 58.1613 145.679 57.6634 144.417L56.8832 142.492C56.6177 141.795 56.3521 141.098 56.0865 140.351C55.5221 138.89 55.0408 137.28 54.4266 135.603C53.3975 132.284 52.3684 128.483 51.4887 124.499C50.6089 120.515 49.9284 116.698 49.4138 113.212C48.8993 109.726 48.5341 106.572 48.3183 103.883C48.1855 102.555 48.1191 101.36 48.0527 100.298C47.9863 99.2357 47.9199 98.3227 47.9033 97.5758V95.9159V95.4677C47.9033 95.3681 47.9033 95.3184 47.9033 95.3184C47.9106 95.3679 47.9106 95.4182 47.9033 95.4677V95.9159C47.9033 96.3309 47.9033 96.8952 48.0195 97.5758C48.1357 98.2563 48.1357 99.2357 48.2187 100.281C48.3017 101.327 48.4013 102.539 48.5506 103.867C48.783 106.523 49.198 109.676 49.7126 113.162C50.2271 116.648 50.9243 120.465 51.804 124.433C52.6838 128.4 53.6963 132.134 54.7254 135.52C55.2731 137.18 55.7545 138.84 56.3023 140.251C56.5679 140.998 56.8334 141.712 57.0658 142.392C57.2982 143.073 57.597 143.72 57.8459 144.334C58.3273 145.579 58.8087 146.675 59.2568 147.654L59.8378 149.015L60.3855 150.127L61.1325 151.671L61.3151 152.086C61.3151 152.086 61.4313 152.219 61.4147 152.219Z"
    fill="white" />
  <path
    d="M84.9192 173.118C84.6559 173.118 84.3937 173.085 84.139 173.018C83.4355 172.906 82.7418 172.74 82.0642 172.52C81.0537 172.215 80.0664 171.837 79.1096 171.391C77.9521 170.829 76.842 170.174 75.7899 169.433C74.7411 168.675 73.7482 167.843 72.8187 166.943C72.0801 166.193 71.3925 165.394 70.7605 164.553C70.3336 163.978 69.9401 163.38 69.582 162.76C69.4365 162.544 69.3193 162.309 69.2334 162.063C69.2334 162.063 69.8476 162.993 70.8933 164.403C71.5424 165.22 72.2467 165.991 73.0013 166.711C73.9167 167.598 74.8989 168.414 75.9392 169.151C76.9959 169.885 78.1056 170.539 79.259 171.109C80.1985 171.557 81.1628 171.95 82.1472 172.288C83.8403 172.852 84.9358 173.051 84.9192 173.118Z"
    fill="white" />
  <path
    d="M95.0766 142.459C94.9282 142.483 94.7769 142.483 94.6285 142.459C94.3131 142.459 93.865 142.459 93.284 142.459C91.6342 142.43 89.9968 142.168 88.4206 141.679C87.3305 141.341 86.2701 140.914 85.2502 140.401C84.0775 139.802 82.9658 139.09 81.9305 138.277C79.5378 136.435 77.652 134.016 76.4501 131.246C75.2481 128.476 74.7693 125.447 75.0586 122.441C75.1684 121.139 75.4019 119.849 75.7557 118.59C76.0719 117.494 76.4829 116.428 76.984 115.403C77.6961 113.918 78.6185 112.543 79.7228 111.32C80.0217 110.983 80.3375 110.662 80.669 110.357C80.8847 110.158 81.0009 110.042 81.0175 110.059C81.0341 110.075 80.5693 110.523 79.8224 111.403C78.779 112.654 77.8979 114.031 77.1998 115.503C76.7255 116.522 76.3314 117.576 76.0213 118.657C75.694 119.902 75.4774 121.174 75.374 122.458C75.1081 125.411 75.5872 128.384 76.7675 131.104C77.9477 133.824 79.7914 136.204 82.1296 138.028C83.1359 138.833 84.2138 139.544 85.3498 140.152C86.3546 140.665 87.3979 141.098 88.4704 141.447C90.0175 141.952 91.6252 142.248 93.2508 142.327C94.4459 142.459 95.0766 142.426 95.0766 142.459Z"
    fill="white" />
  <path
    d="M92.9859 0.0259556C92.9859 0.0259556 50.4599 -0.488602 43.7375 36.3772C37.015 73.2429 72.9678 73.8903 83.3088 74.5542C87.9897 74.8696 98.0153 74.9028 106.879 74.7368C126.466 74.4049 140.325 70.6037 145.056 52.4281C145.613 50.2978 145.963 48.1189 146.102 45.9214C147.43 25.9864 133.852 -0.953369 92.9859 0.0259556Z"
    fill="white" />
  <path
    d="M123.825 56.1124L62.0616 57.0752C60.515 57.0993 58.9788 56.8174 57.5414 56.2457C56.1041 55.6741 54.7939 54.8239 53.6863 53.744C52.5788 52.6642 51.6956 51.3761 51.0876 49.9537C50.4796 48.5314 50.1589 47.0028 50.1438 45.456C50.1218 43.9108 50.4053 42.3764 50.978 40.9409C51.5506 39.5055 52.4012 38.1973 53.4808 37.0915C54.5604 35.9857 55.8478 35.104 57.269 34.4971C58.6903 33.8901 60.2175 33.5699 61.7629 33.5548L123.527 32.592C125.073 32.5657 126.609 32.8461 128.047 33.4172C129.484 33.9883 130.794 34.8386 131.901 35.9191C133.008 36.9996 133.889 38.2887 134.495 39.712C135.1 41.1353 135.417 42.6645 135.428 44.2111C135.452 45.7556 135.171 47.2897 134.6 48.725C134.029 50.1603 133.18 51.4686 132.102 52.5747C131.023 53.6807 129.737 54.5627 128.317 55.1698C126.896 55.7769 125.37 56.0973 123.825 56.1124Z"
    fill="#263238" />
  <path
    d="M74.8759 44.2616C74.7338 44.9935 74.3777 45.6669 73.8527 46.1963C73.3276 46.7258 72.6574 47.0876 71.9266 47.2359C71.1959 47.3842 70.4376 47.3124 69.7477 47.0296C69.0578 46.7467 68.4674 46.2655 68.0511 45.6469C67.6348 45.0283 67.4114 44.3001 67.4092 43.5545C67.407 42.8089 67.6261 42.0793 68.0387 41.4583C68.4513 40.8372 69.0389 40.3525 69.7271 40.0656C70.4153 39.7786 71.1732 39.7023 71.9048 39.8463C72.8836 40.039 73.7461 40.612 74.3031 41.4397C74.8601 42.2674 75.0661 43.2822 74.8759 44.2616Z"
    fill="white" />
  <path
    d="M118.033 43.5633C117.891 44.2953 117.535 44.9686 117.01 45.4981C116.485 46.0275 115.815 46.3893 115.084 46.5377C114.353 46.686 113.595 46.6142 112.905 46.3313C112.215 46.0485 111.625 45.5673 111.208 44.9487C110.792 44.3301 110.569 43.6018 110.566 42.8562C110.564 42.1106 110.783 41.3811 111.196 40.76C111.609 40.139 112.196 39.6543 112.884 39.3673C113.573 39.0804 114.33 39.0041 115.062 39.1481C116.039 39.3447 116.898 39.9187 117.455 40.7453C118.011 41.5718 118.219 42.5845 118.033 43.5633Z"
    fill="white" />
  <path
    d="M85.6822 42.5187C85.9644 42.5187 85.8316 43.8632 86.645 45.6227C87.1213 46.6291 87.8059 47.523 88.6534 48.2453C89.6282 49.1376 90.8687 49.6858 92.1849 49.8057C93.501 49.9256 94.8202 49.6107 95.9403 48.9092C96.91 48.36 97.7439 47.5999 98.3803 46.685C99.509 45.1247 99.6085 43.7968 99.8907 43.8134C100.173 43.83 100.107 44.162 100.107 44.7761C100.087 45.6651 99.8538 46.5362 99.426 47.3157C98.8146 48.5065 97.9054 49.5187 96.7868 50.2537C95.3888 51.2056 93.7097 51.6561 92.0229 51.5318C90.5232 51.3503 89.109 50.7355 87.9533 49.7626C86.7977 48.7898 85.9508 47.501 85.5163 46.0542C85.2387 45.2092 85.1647 44.3106 85.3005 43.4316C85.4167 42.8175 85.5826 42.5021 85.6822 42.5187Z"
    fill="white" />
  <path
    d="M87.6742 2.78076H87.5082H87.06C86.6617 2.78076 86.0807 2.78076 85.4002 2.93014C83.2882 3.13391 81.1922 3.47771 79.1258 3.95927C76.064 4.6869 73.0833 5.72125 70.2289 7.04663C66.7365 8.66369 63.4627 10.7161 60.4855 13.155C53.4487 19.053 48.3049 26.8929 45.696 35.696C45.4636 36.4098 45.3474 36.9741 45.2312 37.3559L45.115 37.7875C45.115 37.8871 45.115 37.9369 45.115 37.9369C45.1114 37.8871 45.1114 37.8372 45.115 37.7875L45.2147 37.3393C45.3143 36.9575 45.4138 36.3766 45.613 35.6794C46.1159 33.6543 46.7649 31.6683 47.555 29.7371C48.816 26.8122 50.3851 24.03 52.2359 21.4377C58.6599 12.4629 68.1698 6.17425 78.9432 3.77668C81.0237 3.30159 83.1382 2.99079 85.2673 2.84715C86.0143 2.76416 86.5952 2.84715 86.9272 2.76416H87.6742V2.78076Z"
    fill="white" />
  <path
    d="M45.9946 53.7889C45.7329 53.3831 45.5315 52.9413 45.397 52.4776C45.0078 51.3999 44.7189 50.2886 44.5339 49.1578C44.3424 47.9953 44.2701 46.8162 44.3181 45.6389C44.2984 45.1519 44.3544 44.6647 44.4841 44.1948C44.5837 44.1948 44.484 46.4191 44.8658 49.1744C45.2476 51.9298 46.1772 53.7557 45.9946 53.7889Z"
    fill="white" />
  <path
    d="M113.618 30.518C113.618 30.518 105.484 30.684 95.4422 30.684C85.3999 30.684 77.2666 30.684 77.2666 30.518C77.2666 30.352 85.4165 30.3354 95.4422 30.3354C105.468 30.3354 113.618 30.4184 113.618 30.518Z"
    fill="white" />
  <path
    d="M82.6932 71.9476H82.3778H81.4981H80.0872C79.5395 71.9476 78.9253 71.9476 78.2282 71.9476C76.6084 71.9345 74.9905 71.8347 73.3814 71.6488C69.4094 71.2327 65.5057 70.3181 61.7623 68.9266C60.2424 68.3731 58.752 67.7415 57.2972 67.0344C56.6664 66.7356 56.1187 66.4368 55.6373 66.1712C55.156 65.9057 54.741 65.6899 54.409 65.4907L53.6621 65.0259C53.4795 64.9097 53.3965 64.8599 53.3965 64.8433C53.3965 64.8267 53.5127 64.8433 53.6952 64.9595L54.4754 65.3745C54.824 65.5571 55.2389 65.7729 55.7369 66.0052C56.2349 66.2376 56.766 66.5364 57.3968 66.802C58.6583 67.3995 60.1687 68.0137 61.8784 68.6278C63.7325 69.287 65.6222 69.8412 67.5386 70.2877C69.4601 70.7381 71.4052 71.0817 73.3648 71.3168C75.174 71.5326 76.8007 71.6488 78.1784 71.682C78.8755 71.682 79.4897 71.682 80.0374 71.682C80.5852 71.682 81.05 71.682 81.4483 71.682H82.3281C82.4691 71.7403 82.5943 71.8314 82.6932 71.9476Z"
    fill="white" />
  <path
    d="M134.599 95.6836H134.433L133.968 95.8496L132.126 96.5135C131.313 96.7957 130.333 97.1443 129.171 97.4762C128.009 97.8082 126.715 98.2564 125.237 98.6215L122.93 99.2357L120.407 99.8167C118.747 100.232 116.789 100.564 114.813 100.945C110.515 101.673 106.183 102.183 101.833 102.472C97.4761 102.695 93.1105 102.695 88.7534 102.472C86.7449 102.356 84.8361 102.257 83.06 102.041C82.1803 101.958 81.3172 101.891 80.4872 101.775L78.1302 101.443C76.6197 101.261 75.2586 100.995 74.0801 100.796C72.9016 100.597 71.8725 100.381 71.0426 100.198L69.1337 99.7669L68.6357 99.6507H68.4697H68.6357H69.1503L71.0591 100.016C71.8891 100.182 72.9182 100.381 74.1133 100.564C75.3084 100.746 76.6529 100.995 78.1634 101.161L80.5204 101.46C81.3338 101.56 82.1803 101.626 83.0932 101.709C84.8693 101.908 86.7615 101.991 88.77 102.107C92.7703 102.273 97.1855 102.273 101.817 102.008C106.448 101.742 110.813 101.161 114.764 100.514C116.739 100.149 118.614 99.8333 120.357 99.4183C121.22 99.2191 122.017 99.0531 122.864 98.8539L125.171 98.273C126.648 97.9244 127.96 97.5094 129.121 97.1775C130.283 96.8455 131.263 96.5301 132.076 96.2645L133.935 95.6836L134.433 95.5342L134.599 95.6836Z"
    fill="white" />
  <defs>
    <radialGradient id="paint0_radial_780_6" cx="0" cy="0" r="1" gradientUnits="userSpaceOnUse" gradientTransform="translate(114.5 137.5) rotate(90) scale(56.5 81.5)">
      <stop stop-color="#0936AA" />
      <stop offset="1" stop-color="#12B0EE" />
    </radialGradient>
  </defs>
</svg>