<svg width="404" height="377" viewBox="0 0 404 377" fill="none" xmlns="http://www.w3.org/2000/svg">
  <path
    d="M348.944 343.52H351.939L358.481 334.404V328.442C358.481 328.442 363.117 328.152 362.564 335.985C362.011 343.818 362.617 341.825 362.617 341.825C362.617 341.825 372.452 341.825 373.269 342.703C373.857 343.326 374.147 353.091 374.235 358.395C374.298 359.674 373.932 360.937 373.195 361.984C372.459 363.03 371.393 363.801 370.169 364.173C369.822 364.263 369.465 364.311 369.106 364.314C366.656 364.314 354.116 362.321 354.116 362.321H348.944V343.52Z"
    fill="#E0E0E0" />
  <path d="M340.365 341.877L342.209 362.373H347.337V342.29L340.365 341.877Z" fill="#E0E0E0" />
  <path
    d="M195.7 35.3091L208.608 53.7501C208.94 54.2103 209.377 54.5835 209.884 54.8379C210.391 55.0922 210.951 55.2201 211.518 55.2106C212.085 55.2011 212.641 55.0545 213.139 54.7834C213.637 54.5122 214.062 54.1245 214.378 53.6535L226.874 34.4573L195.7 35.3091Z"
    fill="#E0E0E0" />
  <path
    d="M228.437 4.3985H192.196C186.589 4.3985 182.044 8.9434 182.044 14.5498V35.3706C182.044 40.977 186.589 45.5219 192.196 45.5219H228.437C234.043 45.5219 238.588 40.977 238.588 35.3706V14.5498C238.588 8.9434 234.043 4.3985 228.437 4.3985Z"
    fill="#E0E0E0" />
  <path
    d="M221.385 21.1798C219.576 17.8692 216.573 17.3511 214.553 18.1063C213.132 18.7336 211.958 19.8144 211.217 21.1798C210.475 19.8144 209.301 18.7336 207.88 18.1063C205.86 17.3511 202.857 17.8692 201.039 21.1798C197.263 28.0908 211.217 37.0917 211.217 37.0917C211.217 37.0917 225.17 28.1171 221.385 21.1798Z"
    fill="white" />
  <path
    d="M53.9588 323.05H83.7366C85.3115 323.049 86.8711 323.358 88.3264 323.96C89.7817 324.562 91.1041 325.445 92.2181 326.558C93.3321 327.671 94.2158 328.993 94.8188 330.448C95.4217 331.902 95.732 333.462 95.732 335.037V350.149C95.732 353.329 94.4692 356.377 92.2212 358.625C89.9733 360.873 86.9245 362.136 83.7454 362.136H75.9563L70.4767 369.978C70.1657 370.422 69.7506 370.783 69.2676 371.029C68.7847 371.275 68.2487 371.398 67.7068 371.389C67.1649 371.379 66.6336 371.237 66.1596 370.974C65.6856 370.711 65.2834 370.336 64.9883 369.881L59.9477 362.136H53.9588C50.7798 362.136 47.7309 360.873 45.483 358.625C43.235 356.377 41.9722 353.329 41.9722 350.149V335.037C41.9722 331.858 43.235 328.809 45.483 326.561C47.7309 324.313 50.7798 323.05 53.9588 323.05Z"
    fill="#E0E0E0" />
  <path d="M67.7897 335.054V350.474L56.7515 342.764L67.7897 335.054Z" fill="white" />
  <path d="M82.5596 351.695C82.5596 351.695 81.8308 340.736 73.0581 340.569H67.4644V345.276L72.9791 345.364C72.9791 345.364 78.7573 345.223 82.5596 351.695Z" fill="white" />
  <path
    d="M71.9025 161.617C72.9078 157.374 70.2834 153.12 66.0409 152.115C61.7983 151.11 57.5441 153.734 56.5389 157.977C55.5337 162.219 58.158 166.473 62.4006 167.479C66.6431 168.484 70.8973 165.859 71.9025 161.617Z"
    fill="#E0E0E0" />
  <path
    d="M64.2241 166.741C60.6445 166.741 57.2114 168.163 54.6802 170.694C52.1491 173.225 50.7271 176.658 50.7271 180.238H77.7211C77.7211 176.658 76.2991 173.225 73.768 170.694C71.2368 168.163 67.8037 166.741 64.2241 166.741Z"
    fill="#E0E0E0" />
  <path
    d="M285.305 11.4939C285.304 12.579 284.98 13.6393 284.376 14.5407C283.772 15.4421 282.914 16.1442 281.911 16.5582C280.908 16.9723 279.805 17.0797 278.741 16.867C277.677 16.6542 276.7 16.1308 275.933 15.3629C275.166 14.595 274.644 13.617 274.433 12.5526C274.222 11.4882 274.332 10.3851 274.747 9.38276C275.163 8.38039 275.866 7.52374 276.769 6.92106C277.671 6.31837 278.732 5.99671 279.817 5.9967C280.538 5.9967 281.253 6.13896 281.919 6.41532C282.586 6.69169 283.191 7.09674 283.701 7.60732C284.211 8.11789 284.615 8.72397 284.89 9.39086C285.165 10.0578 285.307 10.7724 285.305 11.4939Z"
    fill="#E0E0E0" />
  <path
    d="M300.532 24.3323C300.532 25.4189 300.21 26.4811 299.606 27.3842C299.001 28.2874 298.143 28.9908 297.138 29.4054C296.134 29.82 295.029 29.9272 293.964 29.7133C292.898 29.4993 291.92 28.974 291.154 28.2038C290.387 27.4336 289.867 26.4532 289.658 25.3868C289.449 24.3204 289.562 23.2161 289.981 22.2137C290.4 21.2113 291.108 20.356 292.014 19.7561C292.92 19.1562 293.984 18.8387 295.07 18.8439C296.521 18.8509 297.911 19.4322 298.934 20.4607C299.958 21.4892 300.532 22.8813 300.532 24.3323Z"
    fill="#E0E0E0" />
  <path
    d="M285.41 37.4342C285.412 38.5222 285.091 39.5862 284.488 40.4916C283.884 41.3969 283.026 42.1029 282.021 42.52C281.016 42.9372 279.91 43.0468 278.843 42.835C277.776 42.6231 276.795 42.0994 276.026 41.3301C275.257 40.5608 274.733 39.5805 274.521 38.5133C274.309 37.4461 274.419 36.3401 274.836 35.3353C275.253 34.3304 275.959 33.472 276.865 32.8686C277.77 32.2652 278.834 31.9441 279.922 31.9458C281.378 31.9458 282.774 32.5241 283.803 33.5533C284.832 34.5826 285.41 35.9786 285.41 37.4342Z"
    fill="#E0E0E0" />
  <path d="M279.817 11.4939L295.044 24.3323L279.905 37.4342" stroke="#E0E0E0" stroke-miterlimit="10" />
  <path
    d="M380.013 140.247C377.642 135.918 373.708 135.242 371.065 136.225C369.194 137.039 367.649 138.455 366.674 140.247C365.702 138.453 364.156 137.037 362.283 136.225C359.649 135.242 355.706 135.918 353.335 140.247C348.391 149.292 366.639 161.059 366.639 161.059C366.639 161.059 384.957 149.301 380.013 140.247Z"
    fill="#E0E0E0" />
  <path
    d="M358.419 182.398C356.733 179.316 353.932 178.833 352.053 179.535C350.726 180.116 349.632 181.124 348.944 182.398C348.256 181.124 347.162 180.116 345.835 179.535C343.956 178.833 341.155 179.316 339.469 182.398C335.956 188.843 348.944 197.221 348.944 197.221C348.944 197.221 361.949 188.817 358.419 182.398Z"
    fill="#E0E0E0" />
  <path
    d="M372.68 32.7625H314.117C310.669 32.7648 307.364 34.136 304.927 36.5747C302.49 39.0135 301.121 42.3201 301.121 45.7678V81.2535C301.121 84.7012 302.49 88.0078 304.927 90.4465C307.364 92.8852 310.669 94.2565 314.117 94.2588H332.216L342.367 108.766C342.686 109.224 343.114 109.597 343.611 109.851C344.109 110.106 344.662 110.234 345.22 110.224C345.779 110.215 346.327 110.068 346.815 109.797C347.304 109.525 347.718 109.138 348.022 108.669L357.418 94.2588H372.689C376.137 94.2565 379.443 92.8852 381.88 90.4465C384.317 88.0078 385.686 84.7012 385.686 81.2535V45.7678C385.686 42.3186 384.316 39.0106 381.877 36.5716C379.438 34.1327 376.13 32.7625 372.68 32.7625Z"
    fill="white" />
  <path
    d="M372.68 32.7625H373.12C373.551 32.7613 373.983 32.7907 374.41 32.8503C376.085 33.0363 377.703 33.5686 379.161 34.4134C381.092 35.505 382.712 37.0718 383.868 38.9651C385.024 40.8585 385.677 43.0157 385.765 45.2321C385.826 47.0411 385.765 48.9554 385.809 50.9752C385.809 59.0716 385.809 68.8453 385.861 79.9538C385.916 81.3762 385.801 82.8001 385.519 84.1953C385.202 85.6355 384.634 87.0088 383.842 88.2523C382.22 90.8657 379.734 92.8292 376.817 93.8022C375.299 94.2723 373.716 94.4947 372.127 94.4608H357.418L357.594 94.3642L352.229 102.627L349.454 106.878C348.979 107.598 348.575 108.309 348.022 109.047C347.451 109.782 346.617 110.267 345.695 110.399C344.766 110.531 343.822 110.298 343.061 109.749C342.684 109.476 342.359 109.137 342.104 108.748L341.348 107.668L338.284 103.277C336.229 100.35 334.151 97.3791 332.049 94.3642L332.233 94.4608H314.96C313.726 94.4956 312.491 94.3895 311.281 94.1446C310.083 93.8719 308.926 93.4438 307.838 92.8713C305.71 91.7145 303.937 89.9979 302.713 87.907C301.489 85.816 300.859 83.4303 300.892 81.0076C300.892 71.6905 300.892 62.7071 300.892 54.1452C300.892 52.0143 300.892 49.9009 300.892 47.8051C300.892 46.7688 300.892 45.7414 300.945 44.6877C300.945 44.1695 301.086 43.6514 301.147 43.1421C301.208 42.6328 301.384 42.1323 301.551 41.6493C302.209 39.7216 303.296 37.9682 304.73 36.5209C306.113 35.1185 307.794 34.0442 309.647 33.3772C310.095 33.2012 310.556 33.0631 311.026 32.9645C311.488 32.8463 311.958 32.7583 312.431 32.701C313.358 32.5995 314.291 32.5584 315.224 32.5781H320.633H330.793L361.449 32.6483L369.791 32.6922H371.96H372.698H371.96H369.791H361.449L330.793 32.7713H315.206C314.288 32.7507 313.37 32.7917 312.457 32.8942C311.999 32.9536 311.545 33.0386 311.096 33.1489C310.643 33.2528 310.197 33.3877 309.762 33.5528C307.962 34.2086 306.331 35.2553 304.985 36.6175C303.616 38.0407 302.581 39.7504 301.955 41.6229C301.806 42.0971 301.691 42.5889 301.577 43.0719C301.463 43.5548 301.393 44.0642 301.375 44.5735C301.305 45.5746 301.331 46.6196 301.323 47.6558C301.323 49.7458 301.323 51.8591 301.323 53.996C301.323 62.5579 301.323 71.5588 301.323 80.8583C301.294 83.2 301.905 85.5052 303.088 87.5259C304.272 89.5466 305.984 91.2064 308.04 92.3269C309.088 92.8781 310.204 93.2886 311.36 93.5475C312.538 93.787 313.741 93.8901 314.943 93.8548H332.321L332.391 93.9514L338.626 102.865C339.645 104.328 340.663 105.792 341.682 107.255L342.437 108.344C342.672 108.69 342.97 108.988 343.315 109.222C343.983 109.712 344.816 109.922 345.636 109.807C346.456 109.692 347.198 109.262 347.706 108.608C348.18 107.931 348.646 107.176 349.111 106.474L351.886 102.215L357.26 93.969L357.322 93.8636H372.083C373.63 93.8996 375.171 93.6861 376.65 93.2314C379.5 92.2991 381.933 90.3975 383.526 87.8571C384.3 86.6534 384.853 85.3211 385.159 83.9231C385.432 82.6095 385.553 81.2688 385.519 79.9275C385.519 68.8278 385.519 59.0541 385.519 50.9488C385.519 48.9291 385.519 47.0059 385.519 45.2145C385.439 43.0303 384.806 40.9022 383.679 39.0298C382.551 37.1574 380.967 35.6021 379.073 34.51C377.637 33.6564 376.041 33.1064 374.384 32.8942C373.957 32.8262 373.526 32.7852 373.093 32.7713L372.68 32.7625Z"
    fill="#263238" />
  <path d="M345.072 51.6513V75.9144L362.432 63.7785L345.072 51.6513Z" fill="#12B0EE" />
  <path d="M321.827 77.8287C321.827 77.8287 322.978 60.5908 336.756 60.3362H345.537V67.7389L336.852 67.8706C336.852 67.8706 327.807 67.6335 321.827 77.8287Z" fill="#12B0EE" />
  <path
    d="M26.2354 118.267L147.041 118.267C153.836 118.267 159.344 112.759 159.344 105.964V12.5126C159.344 5.71793 153.836 0.209793 147.041 0.209793L26.2354 0.209793C19.4408 0.209793 13.9326 5.71793 13.9326 12.5126V105.964C13.9326 112.759 19.4408 118.267 26.2354 118.267Z"
    fill="white" />
  <path d="M80.8032 114.649C79.3104 118.267 50.4634 145.384 50.4634 145.384V114.649H80.8032Z" fill="#455A64" />
  <path
    d="M116.07 52.0114C116.149 45.8644 117.115 39.7174 116.878 33.5704C116.641 27.4234 115.025 21.0129 110.731 16.5959C106.437 12.1788 98.9811 10.484 93.9757 14.0668L92.9482 19.3357L98.8757 90.5706C99.1391 93.688 99.4201 96.902 100.843 99.6945C102.265 102.487 105.102 104.788 108.228 104.595C112.32 104.34 114.998 100.204 116.272 96.3049C120.864 82.1492 115.929 66.8608 116.07 52.0114Z"
    fill="#263238" />
  <path
    d="M101.264 20.0821C100.445 18.5093 99.3872 17.0727 98.1288 15.8232C97.4957 15.2046 96.7306 14.7378 95.8909 14.4579C95.0512 14.178 94.159 14.0924 93.2814 14.2074C92.8671 14.2562 92.4723 14.4112 92.1354 14.6574C91.7985 14.9035 91.5308 15.2325 91.3583 15.6124C91.0861 16.3939 91.6744 17.4389 92.4999 17.3687L92.6755 17.5267C94.5196 19.1513 96.3988 20.7495 98.3044 22.3038C98.7617 22.7256 99.2952 23.0564 99.8763 23.2786C100.174 23.3919 100.497 23.4174 100.809 23.352C101.12 23.2866 101.406 23.1331 101.633 22.9098C102.282 22.1633 101.782 20.9691 101.264 20.0821Z"
    fill="#12B0EE" />
  <path
    d="M104.742 26.1325C98.5945 18.6332 90.3663 14.3127 80.6716 14.1547C75.2008 14.0581 72.944 15.1996 69.0011 16.2622C65.0594 17.2068 61.5768 19.5108 59.1659 22.7692C56.3734 26.7297 54.0288 31.1643 53.5019 35.9414C52.975 40.7185 52.4218 45.8644 52.7906 50.8259C53.1594 55.7874 54.5469 60.784 57.436 64.8147L70.0637 67.01C77.0361 67.2471 84.114 67.4755 90.8932 65.886C97.6725 64.2966 104.285 60.6172 107.92 54.6809C112.978 46.4527 110.88 33.6319 104.742 26.1325Z"
    fill="#263238" />
  <path
    d="M70.0112 89.4554C70.099 85.0646 70.2483 79.4709 70.2483 79.4884C70.2483 79.506 59.9477 78.3556 57.0938 65.1572C55.6712 58.5974 55.4077 47.726 55.4867 38.8129C55.5658 30.813 62.3626 19.9065 72.2856 19.8714L76.6763 19.362L93.5103 26.0447C94.6833 26.1036 95.7912 26.6013 96.6143 27.439C97.4374 28.2767 97.9155 29.3933 97.9537 30.5671L98.5948 88.586L87.8287 106.597L68.5096 91.6683L70.0112 89.4554Z"
    fill="#B56760" />
  <path
    d="M76.8957 62.0749C76.803 61.3898 76.4586 60.7638 75.9297 60.3186C75.4503 59.8987 74.8444 59.6509 74.2081 59.6143C73.5719 59.5777 72.9416 59.7545 72.4172 60.1166C71.8744 60.5336 71.4531 61.0881 71.1967 61.7227C70.9404 62.3573 70.8585 63.0489 70.9594 63.7258C71.2499 64.1311 71.6233 64.4699 72.0548 64.7198C72.4863 64.9696 72.9661 65.1247 73.4622 65.1747C73.6172 65.1836 73.7726 65.1836 73.9276 65.1747C74.7189 65.1613 75.4755 64.8473 76.0439 64.2966C76.3417 64.0126 76.5727 63.6659 76.72 63.2817C76.8673 62.8974 76.9273 62.4852 76.8957 62.0749Z"
    fill="#8A4A43" />
  <path
    d="M60.8081 49.1135C60.8393 49.5577 61.038 49.9734 61.364 50.2766C61.6901 50.5799 62.1191 50.7479 62.5644 50.7468C62.7833 50.7527 63.0011 50.7145 63.205 50.6346C63.4088 50.5546 63.5945 50.4344 63.751 50.2812C63.9075 50.128 64.0315 49.9449 64.1158 49.7428C64.2001 49.5407 64.2429 49.3237 64.2416 49.1047C64.2211 48.6575 64.0253 48.2363 63.6967 47.9323C63.368 47.6282 62.9328 47.4658 62.4854 47.4802C62.2672 47.4743 62.0501 47.5122 61.8468 47.5917C61.6435 47.6711 61.4583 47.7905 61.3019 47.9427C61.1456 48.095 61.0213 48.277 60.9365 48.4781C60.8517 48.6792 60.808 48.8953 60.8081 49.1135Z"
    fill="#263238" />
  <path
    d="M58.5159 43.2739C58.7442 43.4846 59.9824 42.4572 61.8177 42.3957C63.653 42.3343 65.0493 43.1509 65.2425 42.9138C65.4356 42.6767 65.0932 42.4221 64.4872 42.0357C63.6646 41.514 62.7033 41.2538 61.7299 41.2893C60.7665 41.3364 59.8434 41.6902 59.0955 42.2991C58.5773 42.7733 58.4105 43.1861 58.5159 43.2739Z"
    fill="#263238" />
  <path
    d="M70.3184 57.6842C69.3338 57.4343 68.3221 57.3075 67.3063 57.3066C66.8322 57.3066 66.4282 57.2187 66.2877 56.9026C66.2269 56.4211 66.3093 55.9324 66.5248 55.4976C66.9024 54.3384 67.3063 53.1178 67.7191 51.8445C69.3612 46.6547 70.5291 42.3957 70.3535 42.3342C70.1779 42.2728 68.5972 46.4264 66.9902 51.6162C66.5951 52.8983 66.2175 54.1101 65.8662 55.2781C65.5992 55.8452 65.5342 56.4866 65.6818 57.0958C65.7604 57.2585 65.8746 57.4014 66.016 57.5139C66.1574 57.6264 66.3223 57.7056 66.4985 57.7456C66.7613 57.7988 67.0297 57.8194 67.2976 57.8071C68.3056 57.8949 69.3208 57.8536 70.3184 57.6842Z"
    fill="#263238" />
  <path d="M70.266 79.4884C76.5358 79.2484 82.6159 77.2724 87.8289 73.7805C87.8289 73.7805 83.5699 83.2381 70.1782 82.7288L70.266 79.4884Z" fill="#8A4A43" />
  <path
    d="M75.7979 58.6589C75.4993 58.6589 75.6047 60.6523 73.9713 62.1715C72.338 63.6907 70.2129 63.5765 70.2129 63.8487C70.2129 63.9805 70.7046 64.2176 71.6004 64.1912C72.7721 64.1456 73.8894 63.6849 74.7529 62.8916C75.5823 62.1366 76.0835 61.087 76.1491 59.9673C76.1843 59.1156 75.9296 58.6414 75.7979 58.6589Z"
    fill="#263238" />
  <path
    d="M59.1399 36.8459C59.4736 37.2762 60.8962 36.8986 62.5207 36.9425C64.1453 36.9864 65.5503 37.3464 65.8928 36.9425C66.0421 36.7405 65.8401 36.3102 65.243 35.8887C64.4338 35.3687 63.4914 35.0942 62.5295 35.0984C61.5701 35.0679 60.6231 35.3215 59.8073 35.8272C59.2013 36.2136 58.9994 36.6351 59.1399 36.8459Z"
    fill="#263238" />
  <path
    d="M81.6816 48.6656C81.6829 49.1095 81.516 49.5373 81.2146 49.8632C80.9133 50.189 80.4997 50.3886 80.0571 50.4219C79.8425 50.4387 79.6266 50.4129 79.422 50.3459C79.2174 50.279 79.0281 50.1723 78.8649 50.0319C78.7016 49.8916 78.5678 49.7203 78.471 49.528C78.3742 49.3357 78.3163 49.1262 78.3008 48.9115C78.2994 48.4691 78.465 48.0424 78.7646 47.7168C79.0641 47.3912 79.4755 47.1906 79.9166 47.1552C80.1319 47.1373 80.3486 47.1622 80.5543 47.2285C80.7599 47.2949 80.9503 47.4014 81.1145 47.5419C81.2786 47.6824 81.4133 47.8541 81.5106 48.0469C81.608 48.2398 81.6661 48.4501 81.6816 48.6656Z"
    fill="#263238" />
  <path
    d="M83.376 42.5626C83.1653 42.7909 81.8569 41.8601 80.0128 41.8952C78.1687 41.9303 76.8427 42.8787 76.6407 42.6504C76.5441 42.5538 76.7549 42.1498 77.3344 41.7108C78.1204 41.1458 79.0624 40.839 80.0303 40.8326C80.9717 40.8262 81.892 41.1115 82.6648 41.6493C83.2795 42.062 83.4814 42.466 83.376 42.5626Z"
    fill="#263238" />
  <path
    d="M82.2699 36.679C81.9186 37.1093 80.5136 36.679 78.7573 36.679C77.001 36.679 75.6136 37.0127 75.2447 36.5824C75.0955 36.3717 75.315 35.9502 75.9385 35.5462C76.7951 35.0539 77.7677 34.7993 78.7557 34.8085C79.7437 34.8178 80.7113 35.0906 81.5586 35.5989C82.2172 36.0204 82.4279 36.4771 82.2699 36.679Z"
    fill="#263238" />
  <path
    d="M95.6699 52.9334C95.6172 51.9411 96.6359 49.5438 97.6106 49.333C100.245 48.7886 104.926 48.7359 105.329 55.3747C105.892 64.4459 96.6622 63.1287 96.6359 62.874C96.6095 62.6193 95.8543 56.3582 95.6699 52.9334Z"
    fill="#B56760" />
  <path
    d="M98.9282 59.4053C98.9282 59.4053 99.0951 59.5019 99.3673 59.6161C99.7547 59.7504 100.179 59.7315 100.553 59.5634C101.492 59.1507 102.204 57.5788 102.151 55.9454C102.125 55.1644 101.924 54.3991 101.563 53.7062C101.459 53.4296 101.292 53.1817 101.073 52.9832C100.855 52.7846 100.592 52.6411 100.307 52.5646C100.127 52.5367 99.9422 52.57 99.7831 52.6591C99.6239 52.7482 99.4992 52.8881 99.4288 53.0564C99.3234 53.3198 99.4288 53.4954 99.3497 53.513C99.2707 53.5305 99.1477 53.3725 99.1917 52.9949C99.2289 52.7672 99.3437 52.5593 99.5166 52.4065C99.6365 52.303 99.7761 52.2247 99.927 52.1764C100.078 52.1281 100.237 52.1108 100.395 52.1255C100.775 52.1717 101.137 52.3157 101.444 52.5435C101.752 52.7713 101.996 53.0751 102.151 53.4252C102.583 54.1877 102.824 55.0433 102.854 55.9191C102.906 57.7544 102.072 59.5195 100.79 59.9849C100.549 60.0701 100.292 60.1002 100.039 60.0728C99.7848 60.0454 99.5403 59.9614 99.3234 59.8268C98.9633 59.6249 98.9019 59.4229 98.9282 59.4053Z"
    fill="#8A4A43" />
  <path
    d="M97.9799 49.3594L95.6704 51.7479C85.721 42.2289 66.2702 18.3697 67.3503 19.7923C71.8893 18.0993 76.7795 17.5681 81.5762 18.2468C88.9702 19.5113 103.012 23.2171 102.792 31.9458C102.573 40.6745 97.9799 49.3594 97.9799 49.3594Z"
    fill="#263238" />
  <path
    d="M111.161 47.3572C111.134 47.1769 111.087 47.0002 111.021 46.8303C110.853 46.3381 110.647 45.8596 110.406 45.399C109.468 43.7193 108.173 42.2656 106.612 41.14C104.298 39.4881 101.717 38.2465 98.9813 37.4693C95.9429 36.477 92.5269 35.7131 89.1636 34.2641C85.9931 32.9467 82.9871 31.264 80.2066 29.2499C77.9329 27.6047 75.8136 25.7559 73.8752 23.7264C72.5895 22.3482 71.3844 20.8968 70.266 19.3796C69.8884 18.8703 69.5899 18.4576 69.3879 18.1239C69.2906 17.9704 69.1757 17.829 69.0454 17.7024C69.117 17.8689 69.2053 18.0278 69.3089 18.1766C69.502 18.4751 69.7655 18.9318 70.187 19.485C71.2716 21.052 72.4629 22.5426 73.7523 23.946C75.6286 26.0173 77.6955 27.9078 79.9256 29.5924C82.7223 31.6491 85.7561 33.362 88.9617 34.6944C92.3601 36.1609 95.8024 36.9161 98.8232 37.8733C101.524 38.6151 104.082 39.8022 106.393 41.3859C107.937 42.4723 109.24 43.8653 110.222 45.478C110.906 46.6547 111.108 47.3748 111.161 47.3572Z"
    fill="#455A64" />
  <path
    d="M108.517 48.7886C108.546 48.1094 108.426 47.4322 108.166 46.804C107.486 45.0705 106.299 43.5829 104.759 42.5362C102.862 41.1224 100.157 40.2443 97.1892 39.5681C93.9686 38.9202 90.8292 37.919 87.8282 36.5824C84.8292 35.2091 82.0122 33.4688 79.442 31.4014C77.3438 29.7128 75.4172 27.8215 73.6901 25.7549C72.5289 24.3614 71.4583 22.8949 70.4849 21.3642L69.7122 20.0909C69.6256 19.941 69.5288 19.7972 69.4224 19.6606C69.4666 19.829 69.5378 19.9891 69.6331 20.1348L70.2654 21.4432C71.1922 23.0203 72.231 24.5287 73.374 25.9569C75.0776 28.0786 76.9996 30.0153 79.1083 31.7351C81.6936 33.8454 84.5385 35.6161 87.5736 37.0039C90.6168 38.3554 93.8047 39.3542 97.0751 39.9808C100.043 40.6394 102.686 41.4649 104.548 42.7997C106.077 43.7885 107.286 45.2013 108.026 46.8655C108.248 47.4902 108.412 48.1339 108.517 48.7886Z"
    fill="#455A64" />
  <path
    d="M97.6812 64.7181C97.6812 64.6566 98.4451 64.56 99.7887 64.2087C101.671 63.6532 103.405 62.6841 104.864 61.3723C106.992 59.3792 108.61 56.9035 109.58 54.154C110.82 50.8007 111.482 47.2613 111.538 43.6866C111.586 41.8438 111.438 40.0013 111.099 38.1894C110.197 33.6166 108.052 29.381 104.899 25.9481C103.04 24.0018 101 22.2375 98.8052 20.6792C98.9877 20.7398 99.1596 20.8287 99.3145 20.9427C99.6218 21.1359 100.114 21.3993 100.684 21.8208C102.328 22.9509 103.844 24.2552 105.207 25.711C107.254 27.8713 108.912 30.37 110.107 33.0962C110.793 34.7155 111.319 36.3977 111.679 38.1191C112.029 39.9742 112.182 41.8609 112.135 43.748C112.074 47.3902 111.382 50.9942 110.089 54.3999C109.064 57.2127 107.363 59.7306 105.137 61.7324C103.625 63.0541 101.818 63.9936 99.8677 64.4722C99.3392 64.599 98.8021 64.6871 98.2607 64.7356C98.0678 64.7608 97.8722 64.7549 97.6812 64.7181Z"
    fill="#455A64" />
  <path
    d="M41.085 104.015L41.3046 103.725C51.3066 93.1435 69.6949 89.5871 69.6949 89.5871C69.6949 89.5871 70.8189 96.5156 81.1108 97.2884C91.4026 98.0611 98.9985 87.5586 98.9985 87.5586L112.75 89.4817C112.75 89.4817 119.679 90.2984 123.99 92.8362C133.703 98.5441 138.857 118.25 138.857 118.25L32.7603 118.671L41.085 104.015Z"
    fill="#455A64" />
  <path
    d="M31.3815 0.200982L30.6351 0.262452L29.757 0.315141C29.3969 0.315141 28.9754 0.429299 28.5012 0.49955C25.6925 0.98322 23.047 2.15366 20.7999 3.90674C19.1669 5.18878 17.7702 6.74597 16.6726 8.50821C15.3676 10.6244 14.5321 12.9962 14.2226 15.4631C14.0759 16.8513 14.0231 18.2478 14.0646 19.6431V24.1216C14.0646 27.2039 14.0646 30.4793 14.0646 33.9392C14.0646 47.7612 14.0646 64.4898 14.1085 83.563C14.1085 88.3284 14.1085 93.2431 14.1085 98.307C14.1085 99.5716 14.1085 100.845 14.1699 102.109C14.2658 103.381 14.4984 104.638 14.8637 105.859C15.6357 108.352 16.9593 110.639 18.7363 112.551C19.6413 113.519 20.6482 114.388 21.7395 115.141C22.8604 115.876 24.059 116.486 25.3136 116.959L26.262 117.301L27.2455 117.556C27.9048 117.719 28.5734 117.842 29.2476 117.925C29.9238 118.03 30.6088 118.013 31.2937 118.065H50.6128V118.276C50.6128 126.838 50.6128 135.997 50.6128 145.384L50.244 145.226C54.7284 140.994 59.2889 136.623 63.9255 132.116C68.5182 127.602 73.2338 123.018 77.7211 118.127L77.7913 118.048H139.894C141.035 118.048 142.168 118.048 143.283 117.977C145.509 117.784 147.676 117.164 149.667 116.151C153.635 114.119 156.66 110.628 158.106 106.412C158.794 104.338 159.114 102.16 159.055 99.9755V93.407C159.055 75.9847 159.055 59.1595 159.055 43.1773C159.055 35.1686 159.055 27.3707 159.055 19.7836C159.127 17.9151 159.012 16.0441 158.712 14.1986C158.33 12.4017 157.673 10.6747 156.763 9.079C155.874 7.50389 154.731 6.08579 153.382 4.88148C152.086 3.67863 150.603 2.69403 148.991 1.96605C147.42 1.23804 145.747 0.755299 144.03 0.534676C142.309 0.392814 140.583 0.342981 138.857 0.385392H109.782L52.4042 0.288796L36.8172 0.253671H32.7602H31.3815C31.3815 0.253671 31.8469 0.253671 32.7602 0.253671H36.8172H52.4042L109.782 0.0165722H128.785H138.892C140.633 -0.0294455 142.374 0.0203913 144.109 0.165856C145.882 0.382988 147.612 0.871682 149.237 1.61479C150.895 2.35631 152.423 3.36164 153.759 4.59169C155.131 5.8246 156.294 7.27184 157.202 8.87703C158.135 10.5195 158.808 12.297 159.195 14.1459C159.508 16.0166 159.629 17.9146 159.555 19.8099C159.555 27.3912 159.555 35.1891 159.555 43.2036C159.555 59.2121 159.555 76.011 159.555 93.4333V100.002C159.616 102.234 159.289 104.459 158.589 106.579C157.479 109.822 155.449 112.672 152.747 114.78C150.044 116.888 146.786 118.164 143.371 118.452C142.221 118.531 141.088 118.539 139.946 118.531H77.9582L78.125 118.46C73.6202 123.369 68.9045 127.953 64.3031 132.511C59.7016 137.068 55.1089 141.38 50.6128 145.613L50.2528 145.955V145.454C50.2528 136.067 50.2528 126.908 50.2528 118.346L50.4548 118.548H31.3025C30.6088 118.496 29.9062 118.548 29.2125 118.408C28.5229 118.323 27.8394 118.194 27.1664 118.021L26.1654 117.688L25.1906 117.336C23.9077 116.849 22.6826 116.222 21.5375 115.466C20.4225 114.703 19.3948 113.819 18.4728 112.832C16.6549 110.88 15.3038 108.541 14.5212 105.991C14.1494 104.741 13.9139 103.454 13.8187 102.153C13.7221 100.854 13.7572 99.5891 13.7572 98.3246C13.7572 93.2665 13.7572 88.3518 13.7572 83.5806C13.7572 64.5073 13.7572 47.7787 13.8011 33.9568C13.8011 30.4969 13.8011 27.2243 13.8011 24.1391C13.8011 22.5936 13.8011 21.1008 13.8011 19.6606C13.7641 18.2595 13.8169 16.8575 13.9592 15.4631C14.2583 13.1724 15.0064 10.9632 16.1607 8.96212C17.315 6.96101 18.8527 5.20727 20.6857 3.80137C22.95 2.04637 25.6196 0.88972 28.4485 0.438081C28.9315 0.367829 29.3267 0.288796 29.7131 0.262452H30.5912C31.1269 0.200982 31.3815 0.200982 31.3815 0.200982Z"
    fill="#263238" />
  <path
    d="M255.237 376.74H145.672C132.499 376.74 121.813 366.553 121.821 353.996L121.874 92.2215C121.874 79.6553 132.57 69.4689 145.751 69.4776L255.316 69.5391C268.489 69.5391 279.176 79.7343 279.167 92.2918L279.114 354.048C279.114 366.597 268.418 376.74 255.237 376.74Z"
    fill="#263238" />
  <path
    d="M255.202 78.7859H233.96C232.594 78.7836 231.284 79.3232 230.316 80.2864C229.348 81.2495 228.801 82.5575 228.797 83.9231V87.5937C228.795 88.2695 228.661 88.9384 228.401 89.5623C228.142 90.1862 227.762 90.7528 227.283 91.2298C226.804 91.7069 226.237 92.0849 225.612 92.3425C224.987 92.6 224.318 92.732 223.642 92.7308H182.237C181.561 92.7331 180.891 92.602 180.265 92.345C179.639 92.088 179.07 91.7101 178.59 91.233C178.111 90.7558 177.73 90.1888 177.47 89.5643C177.21 88.9399 177.075 88.2702 177.074 87.5937V83.8792C177.072 82.5136 176.528 81.2047 175.561 80.2399C174.595 79.2751 173.285 78.7332 171.919 78.7332H145.856C136.618 78.7332 129.171 85.855 129.127 94.654L129.075 350.193C129.075 358.975 136.556 366.123 145.759 366.123L255.106 366.184C264.335 366.184 271.79 359.063 271.79 350.264L271.843 94.7242C271.905 85.9164 264.432 78.7859 255.202 78.7859Z"
    fill="white" />
  <path
    d="M196.85 142.469C198.388 142.349 199.827 141.664 200.889 140.545C201.951 139.426 202.56 137.954 202.599 136.412C202.639 134.87 202.105 133.368 201.101 132.197C200.098 131.025 198.696 130.267 197.166 130.069C197.909 128.932 198.275 127.59 198.215 126.233C198.154 124.876 197.669 123.572 196.828 122.505C195.988 121.439 194.833 120.663 193.528 120.287C192.222 119.911 190.832 119.954 189.553 120.41C189.247 119.103 188.607 117.898 187.696 116.913C186.785 115.927 185.634 115.195 184.355 114.788C183.076 114.381 181.713 114.313 180.4 114.59C179.087 114.868 177.868 115.481 176.863 116.37C175.149 115.444 173.173 115.119 171.252 115.447C169.331 115.775 167.575 116.737 166.264 118.179C164.936 118.188 163.645 118.623 162.581 119.419C161.518 120.216 160.738 121.333 160.357 122.606C159.976 123.879 160.013 125.24 160.463 126.491C160.913 127.741 161.752 128.814 162.857 129.551"
    fill="#263238" />
  <path
    d="M197.904 143.154C196.14 136.743 192.028 131.232 186.384 127.717C180.741 124.202 173.981 122.941 167.45 124.186L166.106 124.441C151.748 128.05 146.787 142.258 150.809 156.502L160.846 208.224L190.413 231.056L198.07 212L195.058 194.789C195.058 194.789 208.591 189.959 206.114 175.979C204.911 169.226 201.311 155.527 197.904 143.154Z"
    fill="#C17560" />
  <path d="M195.164 194.745C188.678 195.986 181.972 195.337 175.845 192.874C175.845 192.874 181.886 202.402 195.568 198.494L195.164 194.745Z" fill="#7C4236" />
  <path
    d="M196.666 156.545C196.768 157.063 196.665 157.6 196.378 158.042C196.091 158.485 195.643 158.799 195.129 158.916C194.879 158.986 194.618 159.005 194.361 158.972C194.104 158.938 193.856 158.854 193.632 158.723C193.408 158.591 193.213 158.417 193.059 158.209C192.904 158 192.793 157.763 192.732 157.511C192.627 156.994 192.729 156.456 193.016 156.012C193.304 155.569 193.753 155.256 194.268 155.14C194.518 155.072 194.779 155.054 195.036 155.088C195.292 155.122 195.54 155.207 195.763 155.338C195.986 155.469 196.181 155.643 196.336 155.85C196.491 156.058 196.603 156.294 196.666 156.545Z"
    fill="#263238" />
  <path
    d="M196.209 150.557C196.007 150.864 194.286 150.03 192.143 150.442C190.001 150.855 188.631 152.199 188.359 152.014C188.218 151.918 188.359 151.4 188.973 150.776C189.773 149.952 190.811 149.399 191.941 149.195C193.058 148.981 194.214 149.126 195.243 149.608C195.998 149.986 196.306 150.416 196.209 150.557Z"
    fill="#263238" />
  <path
    d="M177.215 160.655C177.319 161.174 177.217 161.713 176.93 162.158C176.643 162.602 176.194 162.917 175.678 163.035C175.428 163.103 175.167 163.121 174.91 163.087C174.654 163.054 174.406 162.969 174.183 162.838C173.96 162.707 173.765 162.532 173.61 162.325C173.455 162.118 173.343 161.881 173.28 161.63C173.178 161.111 173.281 160.573 173.568 160.129C173.854 159.685 174.302 159.37 174.817 159.25C175.067 159.182 175.328 159.164 175.585 159.198C175.841 159.231 176.089 159.316 176.312 159.447C176.535 159.578 176.73 159.753 176.885 159.96C177.04 160.167 177.152 160.404 177.215 160.655Z"
    fill="#263238" />
  <path
    d="M175.213 154.965C175.019 155.272 173.289 154.447 171.156 154.859C169.022 155.272 167.643 156.616 167.362 156.423C167.222 156.326 167.362 155.817 167.977 155.184C168.783 154.364 169.823 153.813 170.954 153.604C172.067 153.39 173.22 153.535 174.247 154.016C175.002 154.403 175.309 154.824 175.213 154.965Z"
    fill="#263238" />
  <path
    d="M186.023 169.384C186.023 169.261 187.278 168.778 189.377 168.093C189.922 167.935 190.413 167.724 190.44 167.329C190.377 166.754 190.141 166.212 189.763 165.775L187.349 161.92C183.968 156.414 181.412 151.847 181.641 151.707C181.869 151.566 184.784 155.931 188.156 161.437C188.982 162.798 189.763 164.071 190.51 165.336C190.979 165.929 191.225 166.669 191.204 167.426C191.16 167.635 191.07 167.831 190.939 168C190.808 168.169 190.64 168.306 190.448 168.4C190.17 168.54 189.875 168.643 189.57 168.708C188.42 169.077 187.228 169.304 186.023 169.384Z"
    fill="#263238" />
  <path
    d="M174.475 147.545C174.299 148.142 172.35 147.905 170.084 148.265C167.818 148.625 165.983 149.353 165.693 148.827C165.553 148.581 165.86 148.01 166.572 147.422C167.524 146.698 168.645 146.229 169.829 146.06C171.014 145.874 172.227 146.007 173.342 146.447C174.115 146.807 174.554 147.263 174.475 147.545Z"
    fill="#263238" />
  <path
    d="M195.023 142.917C194.663 143.487 192.801 143.321 190.632 143.707C188.463 144.093 186.769 144.778 186.242 144.348C186.013 144.137 186.242 143.593 186.909 142.987C187.882 142.198 189.05 141.688 190.29 141.512C191.514 141.292 192.775 141.401 193.943 141.828C194.839 142.188 195.181 142.644 195.023 142.917Z"
    fill="#263238" />
  <path
    d="M155.63 169.656C155.515 169.148 155.299 168.668 154.994 168.246C154.689 167.824 154.302 167.468 153.855 167.199C153.409 166.931 152.913 166.756 152.396 166.684C151.88 166.613 151.355 166.647 150.853 166.785C148.297 167.531 145.681 169.559 146.875 174.899C149 184.383 158.08 180.299 158.027 180.018C157.975 179.737 156.552 173.617 155.63 169.656Z"
    fill="#C17560" />
  <path
    d="M155.173 176.918C155.121 176.918 155.033 177.068 154.778 177.261C154.423 177.518 153.982 177.625 153.549 177.559C152.469 177.419 151.274 176.014 150.844 174.319C150.638 173.512 150.614 172.669 150.774 171.851C150.798 171.536 150.897 171.231 151.064 170.962C151.231 170.693 151.459 170.468 151.731 170.306C151.911 170.216 152.116 170.19 152.313 170.233C152.51 170.276 152.685 170.386 152.811 170.543C152.995 170.78 152.978 170.982 153.031 170.982C153.083 170.982 153.197 170.78 153.031 170.403C152.921 170.182 152.742 170.003 152.521 169.893C152.211 169.769 151.865 169.769 151.555 169.893C151.183 170.057 150.859 170.313 150.615 170.637C150.371 170.962 150.213 171.343 150.159 171.746C149.931 172.657 149.931 173.61 150.159 174.521C150.651 176.418 152.029 177.981 153.487 178.034C153.758 178.054 154.029 178.012 154.281 177.91C154.532 177.807 154.756 177.649 154.936 177.445C155.208 177.147 155.208 176.927 155.173 176.918Z"
    fill="#7C4236" />
  <path
    d="M186.18 124.827C186.048 124.606 185.892 124.399 185.715 124.212C185.035 123.527 184.205 123.007 183.291 122.695C182.377 122.383 181.404 122.286 180.446 122.412C179.263 122.069 178.057 121.814 176.837 121.648C175.908 120.549 174.715 119.705 173.369 119.196C172.024 118.687 170.57 118.529 169.147 118.739C167.724 118.948 166.377 119.517 165.235 120.392C164.093 121.267 163.193 122.418 162.62 123.738L161.487 124.151C160.3 123.585 159 123.298 157.686 123.311C156.371 123.324 155.077 123.637 153.902 124.225C152.727 124.814 151.701 125.663 150.903 126.707C150.105 127.752 149.557 128.965 149.298 130.254C148.07 130.164 146.843 130.438 145.769 131.041C144.695 131.644 143.823 132.55 143.261 133.646C142.699 134.742 142.472 135.979 142.609 137.203C142.746 138.427 143.24 139.583 144.029 140.528C142.501 141.837 141.395 143.821 141.702 145.797C142.01 147.773 144.073 149.16 145.821 148.607C146.348 153.235 147.867 158.521 149.008 163.228C149.816 166.53 154.444 167.707 155.155 169.92C158.844 181.204 161.417 174.091 158.308 149.863C158.51 149.634 158.712 149.389 158.923 149.116C159.217 148.549 159.472 147.962 159.687 147.36C160.091 146.649 161.083 146.658 161.9 146.587C163.318 146.44 164.642 145.804 165.643 144.789C166.644 143.773 167.261 142.44 167.388 141.02C168.266 141.951 169.935 141.591 170.901 140.695C171.74 139.705 172.437 138.602 172.973 137.419C173.623 136.304 174.641 135.224 175.932 135.163C176.648 135.262 177.372 135.282 178.093 135.224C179.322 134.873 179.656 133.292 179.612 132.01C179.447 130.937 179.584 129.84 180.007 128.84C180.697 128.322 181.473 127.929 182.299 127.681C182.782 127.681 183.282 127.681 183.757 127.628C183.987 127.62 184.216 127.591 184.442 127.54C184.755 127.584 185.066 127.646 185.372 127.725C189.974 128.963 195.313 136.998 195.313 136.998C194.584 131.431 190.703 127.391 186.18 124.827Z"
    fill="#263238" />
  <path
    d="M142.941 141.266C142.941 141.266 142.941 141.213 143.002 141.116C143.064 141.02 143.125 140.862 143.239 140.686C143.585 140.159 144.019 139.696 144.522 139.316C145.318 138.723 146.246 138.331 147.226 138.175C148.528 137.938 149.871 138.168 151.02 138.825L150.783 138.947C150.869 137.865 151.183 136.813 151.705 135.861C152.228 134.909 152.946 134.078 153.812 133.424C154.773 132.665 155.865 132.09 157.035 131.729C158.276 131.376 159.566 131.225 160.855 131.281C163.262 131.429 165.621 132.024 167.81 133.038L167.546 133.169C167.981 131.024 169.211 129.123 170.989 127.848C172.389 126.858 174.06 126.324 175.775 126.32C176.884 126.313 177.983 126.531 179.006 126.961C179.282 127.067 179.546 127.199 179.797 127.356C179.972 127.453 180.06 127.514 180.051 127.523C180.042 127.532 179.674 127.338 178.962 127.075C177.942 126.704 176.86 126.528 175.775 126.557C174.121 126.594 172.518 127.137 171.182 128.111C169.491 129.351 168.328 131.182 167.924 133.24L167.88 133.477L167.661 133.38C165.513 132.381 163.2 131.786 160.837 131.624C159.593 131.562 158.347 131.704 157.149 132.045C156.026 132.391 154.976 132.938 154.049 133.661C153.215 134.283 152.522 135.074 152.013 135.981C151.505 136.889 151.193 137.894 151.099 138.93V139.193L150.862 139.062C149.78 138.433 148.514 138.197 147.279 138.394C146.332 138.528 145.429 138.883 144.645 139.43C143.969 139.932 143.391 140.555 142.941 141.266Z"
    fill="#455A64" />
  <path
    d="M180.033 128.225C180.033 128.225 180.033 128.366 179.937 128.621C179.858 129.006 179.808 129.396 179.788 129.788C179.788 130.307 179.788 130.939 179.726 131.685C179.749 132.554 179.581 133.417 179.234 134.214C179.109 134.448 178.938 134.654 178.731 134.82C178.524 134.985 178.286 135.108 178.031 135.18C177.494 135.314 176.943 135.382 176.389 135.382C175.829 135.388 175.279 135.536 174.791 135.812C174.312 136.172 173.911 136.627 173.614 137.147C173.272 137.683 172.973 138.271 172.648 138.904C172.363 139.544 171.981 140.136 171.516 140.66C170.967 141.186 170.293 141.564 169.557 141.758C169.178 141.87 168.784 141.92 168.389 141.907C167.953 141.897 167.537 141.718 167.23 141.406L167.573 141.283C167.55 141.882 167.438 142.474 167.239 143.04C167.03 143.604 166.734 144.131 166.361 144.603C165.551 145.563 164.485 146.272 163.287 146.649C162.796 146.811 162.29 146.925 161.777 146.991C161.301 146.979 160.828 147.069 160.389 147.255C159.99 147.481 159.68 147.838 159.511 148.265C159.283 148.7 159.025 149.12 158.739 149.52C157.705 151.118 156.11 152.271 154.269 152.752C152.58 152.997 150.861 152.619 149.43 151.689C148.201 150.903 147.237 149.764 146.664 148.423L146.849 148.493C146.329 148.707 145.768 148.803 145.206 148.776C144.645 148.749 144.096 148.598 143.599 148.335C143.004 148.009 142.51 147.524 142.173 146.936C141.835 146.347 141.666 145.676 141.685 144.998C141.69 144.862 141.705 144.727 141.729 144.594C141.726 144.55 141.726 144.506 141.729 144.462C141.682 145.145 141.799 145.828 142.071 146.456C142.393 147.186 142.958 147.782 143.67 148.142C144.137 148.378 144.65 148.509 145.174 148.526C145.697 148.543 146.218 148.444 146.699 148.238L146.822 148.186L146.884 148.308C147.454 149.578 148.393 150.646 149.58 151.373C150.94 152.248 152.573 152.598 154.172 152.357C155.918 151.887 157.424 150.781 158.396 149.257C158.673 148.872 158.919 148.467 159.134 148.045C159.334 147.548 159.696 147.134 160.161 146.868C160.406 146.743 160.67 146.66 160.943 146.622L161.689 146.561C162.179 146.501 162.661 146.392 163.129 146.236C164.253 145.877 165.256 145.215 166.027 144.322C166.378 143.881 166.66 143.39 166.861 142.864C167.044 142.349 167.15 141.811 167.177 141.266V140.8L167.485 141.143C167.757 141.349 168.079 141.48 168.418 141.523C168.757 141.566 169.101 141.52 169.417 141.389C170.091 141.21 170.71 140.866 171.217 140.388C171.666 139.883 172.033 139.311 172.306 138.693C172.64 138.104 172.938 137.516 173.298 136.937C173.622 136.376 174.063 135.891 174.589 135.514C175.124 135.211 175.73 135.053 176.345 135.057C176.877 135.061 177.408 135.002 177.926 134.882C178.15 134.822 178.36 134.718 178.544 134.576C178.728 134.435 178.882 134.258 178.997 134.056C179.335 133.296 179.508 132.473 179.507 131.641C179.551 130.904 179.577 130.263 179.63 129.745C179.664 129.347 179.734 128.953 179.84 128.568C179.954 128.348 180.033 128.225 180.033 128.225Z"
    fill="#455A64" />
  <path
    d="M180.034 174.398C179.638 177.032 180.771 179.562 183.248 180.457C183.683 180.61 184.145 180.676 184.606 180.65C185.067 180.625 185.519 180.508 185.935 180.308C186.451 180.105 186.912 179.783 187.28 179.368C187.648 178.953 187.912 178.456 188.051 177.919C188.336 176.842 188.354 175.712 188.104 174.626C185.856 174.495 182.326 174.53 180.034 174.398Z"
    fill="#7C4236" />
  <path
    d="M187.612 178.982C187.612 178.982 187.612 179.052 187.524 179.166C187.409 179.33 187.28 179.483 187.138 179.623C186.599 180.144 185.912 180.485 185.171 180.598C184.065 180.767 182.935 180.537 181.983 179.948C181.412 179.57 180.926 179.077 180.555 178.501C180.185 177.925 179.938 177.279 179.832 176.602C179.77 176.249 179.753 175.889 179.779 175.531C179.783 175.16 179.876 174.795 180.051 174.468C180.162 174.284 180.337 174.146 180.543 174.082C180.717 174.031 180.897 174.007 181.079 174.012H182.018C183.221 174.073 184.301 174.196 185.206 174.284C187.006 174.486 188.121 174.539 188.121 174.6C187.144 174.716 186.157 174.716 185.179 174.6C184.301 174.547 183.195 174.46 182.001 174.424H181.122C180.806 174.424 180.587 174.477 180.464 174.679C180.327 174.951 180.258 175.253 180.262 175.557C180.249 175.883 180.266 176.209 180.315 176.532C180.413 177.147 180.636 177.735 180.968 178.262C181.299 178.788 181.735 179.242 182.246 179.597C183.113 180.148 184.141 180.386 185.162 180.273C185.854 180.192 186.51 179.922 187.059 179.491C187.41 179.158 187.577 178.947 187.612 178.982Z"
    fill="#263238" />
  <path
    d="M240.625 148.677C240.625 148.677 251.751 147.29 268.48 133.986C285.208 120.682 294.253 101.784 296.124 102.057C297.994 102.329 306.547 99.2906 318.955 134.671C331.363 170.051 324.47 177.349 321.37 176.997C318.27 176.646 297.766 168.787 284.488 169.041C271.211 169.296 253.63 174.556 253.63 174.556L240.625 148.677Z"
    fill="#12B0EE" />
  <path d="M220.63 175.101L226.575 173.827L223.361 166.012L218.338 168.515L220.63 175.101Z" fill="#455A64" />
  <path
    d="M221.306 165.792L223.501 172.396L224.871 175.724C225.779 177.919 227.496 179.682 229.666 180.648C231.836 181.614 234.295 181.709 236.533 180.914L260.664 174.135L250.285 143.61L226.329 153.691C225.205 154.156 224.183 154.838 223.322 155.697C222.461 156.557 221.778 157.578 221.311 158.702C220.845 159.825 220.604 161.03 220.604 162.246C220.603 163.463 220.841 164.668 221.306 165.792Z"
    fill="#263238" />
  <path
    d="M229.974 175.944L238.061 190.275L241.75 189.081L266.97 207.908L273.231 194.279C273.231 194.279 258.557 188.668 255.668 183.636C252.779 178.604 255.826 177.313 255.826 177.313L248.713 169.884L229.974 175.944Z"
    fill="#263238" />
  <path
    d="M317.638 135.171C324.207 154.324 326.121 171.017 321.906 172.466C317.691 173.915 308.971 159.549 302.402 140.396C295.834 121.244 293.928 104.516 298.135 103.11C302.341 101.705 311.078 116.019 317.638 135.171Z"
    fill="#263238" />
  <path d="M301.112 129.49C301.112 129.49 311.14 124.511 315.118 137.797C319.096 151.083 308.927 152.251 308.927 152.251C305.263 145.07 302.632 137.407 301.112 129.49Z" fill="#FAFAFA" />
  <path
    d="M292.436 113.297C292.417 114.125 292.466 114.953 292.585 115.773C292.734 117.363 292.945 119.672 293.287 122.517C293.563 123.934 293.855 125.468 294.166 127.119C294.324 127.944 294.49 128.805 294.666 129.683C294.754 130.122 294.842 130.57 294.93 131.027C295.026 131.474 295.175 131.905 295.298 132.379C295.816 134.206 296.352 136.12 296.914 138.104C297.055 138.596 297.195 139.097 297.344 139.606C297.494 140.115 297.696 140.598 297.871 141.099C298.249 142.091 298.626 143.11 299.004 144.129C299.382 145.147 299.777 146.166 300.146 147.167C300.348 147.659 300.497 148.168 300.725 148.642C300.954 149.116 301.173 149.591 301.393 150.056L303.93 155.439C304.141 155.861 304.326 156.317 304.545 156.704C304.765 157.09 305.002 157.494 305.221 157.889C305.678 158.662 306.099 159.426 306.53 160.155L308.892 164.212C310.49 166.574 311.851 168.453 312.782 169.753C313.23 170.449 313.738 171.104 314.301 171.711C313.945 170.962 313.525 170.245 313.046 169.568L309.366 163.887L307.162 159.838C306.749 159.101 306.337 158.346 305.897 157.573C305.681 157.186 305.461 156.791 305.239 156.387C305.028 155.983 304.844 155.553 304.642 155.123L302.165 149.757C301.955 149.292 301.735 148.827 301.516 148.352C301.296 147.878 301.138 147.378 300.945 146.886L299.821 143.874C299.434 142.855 299.057 141.854 298.688 140.862C298.512 140.361 298.293 139.878 298.152 139.378C298.012 138.877 297.862 138.385 297.722 137.894L296.071 132.221C295.939 131.764 295.79 131.343 295.685 130.877C295.579 130.412 295.5 129.999 295.412 129.551C295.228 128.673 295.044 127.795 294.868 127.014L293.893 122.456C293.489 119.663 293.164 117.389 292.936 115.765C292.846 114.928 292.678 114.102 292.436 113.297Z"
    fill="#263238" />
  <path
    d="M260.665 174.161C260.312 174.307 259.948 174.421 259.576 174.503L256.581 175.285C254.052 175.944 250.566 176.866 246.729 177.919C242.891 178.973 239.414 179.948 236.867 180.554C235.602 180.87 234.575 181.107 233.855 181.256C233.487 181.355 233.111 181.417 232.731 181.441C233.076 181.28 233.439 181.159 233.811 181.081L236.788 180.203L246.606 177.419C250.452 176.356 253.956 175.487 256.511 174.907C257.784 174.626 258.821 174.407 259.532 174.266C259.904 174.187 260.284 174.151 260.665 174.161Z"
    fill="#455A64" />
  <path
    d="M246.483 169.173C245.73 169.578 244.943 169.913 244.129 170.174C242.645 170.727 240.617 171.439 238.263 172.124C235.91 172.809 233.872 173.353 232.292 173.704C231.468 173.935 230.624 174.088 229.771 174.161C230.562 173.835 231.379 173.576 232.213 173.388C233.732 172.967 235.831 172.378 238.14 171.685C240.45 170.991 242.531 170.341 244.024 169.867C244.822 169.566 245.645 169.334 246.483 169.173Z"
    fill="#455A64" />
  <path
    d="M242.653 162.192C240.222 163.167 237.735 164 235.207 164.686C232.725 165.513 230.198 166.196 227.637 166.732C230.065 165.757 232.549 164.927 235.075 164.247C237.558 163.413 240.089 162.727 242.653 162.192Z"
    fill="#455A64" />
  <path
    d="M238.913 155.448C236.865 156.587 234.747 157.596 232.572 158.469C230.457 159.487 228.277 160.367 226.048 161.103C228.096 159.964 230.213 158.955 232.388 158.082C234.504 157.064 236.683 156.184 238.913 155.448Z"
    fill="#455A64" />
  <path
    d="M211.77 231.056L197.113 206.38L159.248 204.808V208.259C159.248 208.259 148.877 218.674 145.531 232.935C142.993 243.727 153.663 284.912 156.675 299.191C160.363 316.754 165.456 338.962 165.456 338.962C164.701 342.887 159.652 346.075 159.994 351.326L244.208 350.395L239.879 333.333L211.77 231.056Z"
    fill="#12B0EE" />
  <path
    d="M240.968 339.858C240.968 339.981 224.221 340.086 203.559 340.086C182.896 340.086 166.15 339.981 166.15 339.858C166.15 339.735 182.896 339.629 203.559 339.629C224.221 339.629 240.968 339.752 240.968 339.858Z"
    fill="white" />
  <path
    d="M235.154 318.782C235.154 318.905 218.557 319.011 198.079 319.011C177.601 319.011 161.004 318.905 161.004 318.782C161.004 318.659 177.601 318.554 198.079 318.554C218.557 318.554 235.154 318.633 235.154 318.782Z"
    fill="white" />
  <path
    d="M229.438 295.801C229.438 295.924 213.192 296.03 193.162 296.03C173.131 296.03 156.877 295.924 156.877 295.801C156.877 295.678 173.123 295.573 193.162 295.573C213.201 295.573 229.438 295.678 229.438 295.801Z"
    fill="white" />
  <path
    d="M225.442 272.697C225.442 272.82 208.758 272.926 188.077 272.926C167.397 272.926 150.704 272.82 150.704 272.697C150.704 272.574 167.432 272.469 188.077 272.469C208.722 272.469 225.442 272.574 225.442 272.697Z"
    fill="white" />
  <path
    d="M216.608 244.035C216.608 244.158 200.802 244.263 181.246 244.263C161.689 244.263 145.883 244.158 145.883 244.035C145.883 243.912 161.689 243.806 181.246 243.806C200.802 243.806 216.608 243.903 216.608 244.035Z"
    fill="white" />
  <path
    d="M204.551 217.796C204.551 217.928 192.854 218.024 178.435 218.024C164.016 218.024 152.311 217.928 152.311 217.796C152.311 217.664 164.007 217.568 178.435 217.568C192.863 217.568 204.551 217.655 204.551 217.796Z"
    fill="white" />
  <path opacity="0.3"
    d="M156.262 246.292C159.959 252.487 164.625 258.049 170.084 262.766C178.541 269.791 204.27 282.374 204.27 282.374L206.413 277.931L225.618 282.418L222.053 270.599L156.262 246.292Z" fill="black" />
  <path
    d="M246.57 215.161L239.879 251.543L182.483 224.259L173.228 256.627C195.787 267.657 241.459 286.019 247.334 285.492C255.694 284.737 261.463 279.749 264.071 267.499C265.678 259.92 264.95 209.102 264.95 209.102L246.57 215.161Z"
    fill="#C17560" />
  <path
    d="M186.233 219.324C186.233 219.324 164.763 206.064 155.402 222.775C148.71 239.073 156.122 252.087 172.64 260.175C180.613 264.065 191.467 268.877 202.426 273.453L218.4 237.993L186.233 219.324Z"
    fill="#12B0EE" />
  <path
    d="M186.233 219.324L186.822 219.64L188.525 220.597L195.006 224.303L218.487 237.853L218.628 237.932L218.567 238.081L202.628 273.54L202.54 273.742L202.338 273.654C196.718 271.319 190.923 268.833 185.03 266.19C182.396 265.022 179.84 263.846 177.311 262.678C174.782 261.51 172.288 260.298 169.882 258.99C168.706 258.313 167.538 257.611 166.422 256.873C165.311 256.132 164.239 255.335 163.208 254.485C161.184 252.855 159.362 250.989 157.782 248.926L156.684 247.372C156.334 246.85 156.017 246.308 155.735 245.747C155.128 244.671 154.605 243.55 154.172 242.393C153.962 241.822 153.821 241.233 153.645 240.636L153.391 239.758C153.321 239.468 153.277 239.17 153.224 238.88C153.127 238.292 153.022 237.712 152.925 237.124C152.829 236.535 152.846 235.956 152.811 235.367C152.755 234.229 152.779 233.087 152.881 231.951C152.969 230.836 153.206 229.747 153.356 228.676C153.505 227.605 153.891 226.586 154.181 225.576C154.471 224.566 154.892 223.627 155.244 222.678C156.489 220.412 158.223 218.45 160.319 216.935C162.234 215.631 164.415 214.77 166.703 214.415C170.376 213.967 174.103 214.333 177.619 215.486C179.852 216.172 182.021 217.054 184.099 218.121C184.811 218.49 185.346 218.788 185.698 218.999C186.049 219.21 186.225 219.333 186.225 219.333L185.671 219.043C185.311 218.85 184.793 218.569 184.056 218.217C181.966 217.197 179.795 216.352 177.566 215.688C174.072 214.587 170.382 214.255 166.747 214.714C164.506 215.073 162.373 215.928 160.504 217.216C158.456 218.713 156.764 220.644 155.551 222.872C155.209 223.811 154.866 224.777 154.515 225.752C154.164 226.727 153.979 227.78 153.707 228.817C153.566 229.879 153.329 230.95 153.25 232.048C153.151 233.166 153.13 234.29 153.189 235.411C153.233 235.982 153.25 236.553 153.303 237.168C153.356 237.782 153.505 238.309 153.602 238.924C153.663 239.205 153.698 239.504 153.768 239.802L154.023 240.68C154.199 241.242 154.339 241.822 154.541 242.384C154.974 243.519 155.49 244.619 156.087 245.677C156.369 246.224 156.683 246.755 157.026 247.266L158.106 248.803C159.671 250.834 161.472 252.67 163.472 254.274C164.455 255.152 165.571 255.855 166.651 256.636C167.731 257.418 168.916 258.059 170.084 258.735C172.464 260.026 174.958 261.211 177.487 262.397C180.016 263.582 182.589 264.759 185.197 265.909C191.089 268.544 196.885 271.029 202.497 273.373L202.207 273.488L218.215 238.063L218.286 238.292L194.883 224.61L188.455 220.817L186.778 219.816C186.418 219.456 186.233 219.324 186.233 219.324Z"
    fill="#263238" />
  <path
    d="M245.718 221.308L247.009 207.75C247.009 207.75 241.828 197.318 241.925 196.273C242.021 195.228 242.337 189.476 242.337 189.476L255.29 177.823C255.29 177.823 259.479 177.823 259.584 181.968C259.584 181.968 263.624 181.09 263.676 185.954C263.676 185.954 268.067 186.113 268.164 189.651C268.164 189.651 270.798 189.3 270.701 192.997C270.64 195.632 269.481 205.827 269.481 205.827L264.063 215.249L263.615 224.672L245.718 221.308Z"
    fill="#C17560" />
  <path
    d="M247.053 264.803C246.904 264.856 245.956 261.562 243.989 257.865C242.021 254.169 239.756 251.596 239.879 251.499C240.459 251.975 240.975 252.524 241.416 253.132C242.546 254.544 243.542 256.058 244.392 257.655C245.237 259.252 245.944 260.918 246.509 262.634C246.783 263.33 246.966 264.059 247.053 264.803Z"
    fill="#7C4236" />
  <path
    d="M173.227 214.828C173.076 215.255 172.885 215.666 172.657 216.057C172.27 216.839 171.682 217.954 170.9 219.324C169.425 222.072 167.309 225.831 164.938 229.958L158.861 240.496C158.115 241.795 157.491 242.867 157.008 243.692C156.802 244.096 156.561 244.481 156.288 244.843C156.435 244.414 156.627 244.002 156.859 243.613C157.245 242.832 157.834 241.716 158.615 240.338C160.09 237.589 162.207 233.84 164.578 229.703L170.654 219.166L172.507 215.969C172.715 215.569 172.956 215.187 173.227 214.828Z"
    fill="white" />
  <path
    d="M190.729 222.494C190.702 222.632 190.654 222.765 190.589 222.889L190.114 223.987C189.684 224.935 189.043 226.296 188.235 227.974C186.619 231.328 184.301 235.921 181.605 240.917C178.909 245.914 176.336 250.366 174.396 253.554C173.438 255.152 172.639 256.434 172.086 257.312L171.428 258.313C171.278 258.542 171.19 258.656 171.173 258.647C171.218 258.513 171.277 258.383 171.348 258.261L171.937 257.216L174.123 253.396C175.968 250.164 178.514 245.694 181.201 240.698C183.888 235.701 186.259 231.144 187.945 227.833C188.771 226.226 189.447 224.9 189.948 223.908C190.176 223.486 190.36 223.135 190.51 222.845C190.568 222.719 190.642 222.601 190.729 222.494Z"
    fill="white" />
  <path
    d="M210.312 233.444C210.181 233.945 210.005 234.433 209.785 234.902C209.425 235.78 208.907 237.15 208.134 238.775C206.694 242.024 204.551 246.441 201.908 251.183C199.265 255.925 196.639 260.078 194.62 263.011C193.619 264.478 192.793 265.646 192.196 266.454C191.908 266.881 191.588 267.286 191.239 267.666C191.472 267.205 191.742 266.765 192.047 266.348C192.635 265.47 193.408 264.267 194.356 262.836C196.288 259.859 198.87 255.688 201.513 250.963C204.156 246.239 206.325 241.848 207.844 238.669L209.601 234.867C209.804 234.377 210.042 233.901 210.312 233.444Z"
    fill="white" />
  <path d="M159.283 367.572L161.118 351.317L241.415 350.439L243.47 367.572H159.283Z" fill="#263238" />
  <path
    d="M258.741 366.132C258.741 366.263 233.995 366.36 203.489 366.36C172.982 366.36 148.236 366.263 148.236 366.132C148.236 366 172.964 365.903 203.489 365.903C234.013 365.903 258.741 366.009 258.741 366.132Z"
    fill="#455A64" />
  <path
    d="M213.983 82.5268H184.117C183.128 82.5268 182.326 83.3289 182.326 84.3182V85.6091C182.326 86.5985 183.128 87.4005 184.117 87.4005H213.983C214.972 87.4005 215.774 86.5985 215.774 85.6091V84.3182C215.774 83.3289 214.972 82.5268 213.983 82.5268Z"
    fill="#455A64" />
  <path
    d="M223.879 84.9593C223.888 85.4443 223.752 85.9209 223.489 86.3282C223.225 86.7356 222.847 87.0554 222.401 87.2466C221.955 87.4379 221.463 87.492 220.986 87.4021C220.509 87.3122 220.07 87.0824 219.725 86.7419C219.379 86.4014 219.143 85.9657 219.046 85.4904C218.949 85.0152 218.996 84.5218 219.181 84.0733C219.366 83.6248 219.68 83.2415 220.084 82.9723C220.487 82.7032 220.962 82.5603 221.447 82.562C222.085 82.5642 222.697 82.8163 223.152 83.2645C223.607 83.7126 223.868 84.321 223.879 84.9593Z"
    fill="#455A64" />
  <path
    d="M122.691 120.322H124.71V161.068H122.691C121.247 161.068 119.862 160.494 118.841 159.473C117.82 158.452 117.246 157.067 117.246 155.623V125.767C117.246 124.323 117.82 122.938 118.841 121.917C119.862 120.896 121.247 120.322 122.691 120.322Z"
    fill="#263238" />
  <path
    d="M122.208 179.562H124.183V220.307H122.208C120.764 220.307 119.379 219.734 118.358 218.713C117.337 217.692 116.763 216.307 116.763 214.863V185.006C116.763 183.562 117.337 182.177 118.358 181.156C119.379 180.135 120.764 179.562 122.208 179.562Z"
    fill="#263238" />
  <path
    d="M122.34 239.951C122.217 239.951 122.111 210.367 122.111 173.898C122.111 137.428 122.217 107.835 122.34 107.835C122.463 107.835 122.568 137.402 122.568 173.898C122.568 210.393 122.471 239.951 122.34 239.951Z"
    fill="#455A64" />
  <path
    d="M94.8976 202.402H10.2623C4.72861 202.402 0.242676 206.888 0.242676 212.422V277.369C0.242676 282.903 4.72861 287.389 10.2623 287.389H94.8976C100.431 287.389 104.917 282.903 104.917 277.369V212.422C104.917 206.888 100.431 202.402 94.8976 202.402Z"
    fill="white" />
  <path d="M56.7866 284.789C57.858 287.424 78.6172 306.901 78.6172 306.901V284.789H56.7866Z" fill="#12B0EE" />
  <path
    d="M71.3723 221.308C70.8562 219.648 70.0152 218.106 68.8981 216.774C67.7811 215.441 66.4102 214.344 64.8652 213.546C61.3831 211.917 57.4413 211.557 53.7216 212.527C50.0309 213.497 46.5245 215.067 43.342 217.172C41.4608 218.201 39.792 219.578 38.4244 221.229C36.0885 224.347 33.8317 229.431 33.7087 233.33C33.6121 236.483 35.0435 244.325 36.4573 247.143C37.2058 248.307 38.2811 249.223 39.5484 249.778C41.0721 252.566 43.0757 255.063 45.4671 257.154L47.4341 250.726L71.3723 221.308Z"
    fill="#263238" />
  <path d="M69.4487 217.445L63.2402 216.514C66.8582 224.487 68.3071 242.928 70.4849 251.411C72.6803 248.03 77.7032 237.774 77.2993 233.76C76.8953 229.747 76.7988 216.549 69.4487 217.445Z"
    fill="#263238" />
  <path
    d="M40.4087 231.723C40.4534 229.455 41.2249 227.261 42.6096 225.463C43.9943 223.666 45.9192 222.36 48.1012 221.739L62.2744 217.69C68.4214 216.812 72.8121 224.32 73.3478 230.503C73.9976 237.378 74.4806 244.632 73.822 249.822C72.5136 260.166 64.6454 261.703 64.6454 261.703C64.6454 261.703 64.7771 266.612 64.865 269.606L62.5467 283.121L43.851 267.218L40.4087 231.846C40.4087 231.671 40.4087 231.96 40.4087 231.723Z"
    fill="#FFBF9D" />
  <path
    d="M70.2659 239.1C70.2804 239.446 70.159 239.783 69.9276 240.041C69.6962 240.299 69.3732 240.456 69.0277 240.478C68.8594 240.496 68.6893 240.481 68.5272 240.432C68.3652 240.383 68.2146 240.302 68.0844 240.194C67.9542 240.086 67.847 239.953 67.7692 239.802C67.6914 239.652 67.6446 239.488 67.6314 239.319C67.6146 238.975 67.7343 238.638 67.9645 238.381C68.1947 238.125 68.5168 237.97 68.8608 237.949C69.0291 237.93 69.1995 237.944 69.362 237.992C69.5245 238.04 69.6758 238.12 69.8069 238.227C69.9379 238.334 70.0461 238.467 70.1249 238.617C70.2038 238.767 70.2517 238.931 70.2659 239.1Z"
    fill="#263238" />
  <path
    d="M71.9344 234.595C71.7763 234.77 70.7489 234.059 69.3 234.112C67.851 234.164 66.8499 234.902 66.6655 234.735C66.4811 234.568 66.7446 234.34 67.1836 233.998C67.7865 233.55 68.514 233.301 69.2648 233.286C70.0071 233.259 70.7388 233.468 71.3548 233.883C71.8554 234.208 72.0222 234.481 71.9344 234.595Z"
    fill="#263238" />
  <path
    d="M57.4095 239.1C57.4246 239.439 57.3092 239.77 57.087 240.027C56.8649 240.283 56.5528 240.445 56.2152 240.478C56.0469 240.496 55.8768 240.481 55.7147 240.432C55.5527 240.383 55.4021 240.302 55.2719 240.194C55.1417 240.086 55.0345 239.953 54.9567 239.803C54.8789 239.652 54.8321 239.488 54.8189 239.319C54.8021 238.975 54.9218 238.638 55.152 238.381C55.3822 238.125 55.7043 237.97 56.0483 237.949C56.3811 237.922 56.711 238.028 56.966 238.244C57.221 238.459 57.3804 238.767 57.4095 239.1Z"
    fill="#263238" />
  <path
    d="M58.3933 234.981C58.2352 235.157 57.2078 234.445 55.7589 234.498C54.3099 234.551 53.3088 235.288 53.1244 235.122C52.94 234.955 53.2035 234.726 53.6513 234.384C54.2542 233.936 54.9817 233.687 55.7325 233.673C56.4718 233.648 57.2002 233.857 57.8137 234.27C58.3143 234.595 58.4723 234.902 58.3933 234.981Z"
    fill="#263238" />
  <path
    d="M63.1705 246.054C63.9125 245.79 64.6861 245.625 65.4713 245.563C65.8401 245.51 66.1826 245.431 66.2353 245.176C66.2542 244.799 66.156 244.425 65.9543 244.105L64.7951 241.374C63.1793 237.466 61.9938 234.261 62.1607 234.2C62.3275 234.138 63.7589 237.238 65.3747 241.137C65.7611 242.103 66.1387 243.016 66.4899 243.894C66.731 244.327 66.8148 244.829 66.727 245.317C66.6804 245.449 66.6026 245.569 66.5002 245.665C66.3978 245.761 66.2739 245.832 66.1387 245.87C65.9391 245.931 65.7325 245.967 65.524 245.975C64.7458 246.1 63.9553 246.126 63.1705 246.054Z"
    fill="#263238" />
  <path d="M50.8413 258.445C50.8413 258.445 54.3539 265.47 64.7072 264.162L64.6457 261.703C59.8314 261.916 55.0525 260.788 50.8413 258.445Z" fill="#FF9A6C" />
  <path
    d="M57.8046 229.844C57.6729 230.239 56.2415 230.099 54.5818 230.353C52.9222 230.608 51.5698 231.1 51.3415 230.757C51.2361 230.599 51.4644 230.222 51.9913 229.835C52.7059 229.362 53.5205 229.061 54.3711 228.957C55.2254 228.827 56.0982 228.903 56.9177 229.177C57.5412 229.361 57.8573 229.66 57.8046 229.844Z"
    fill="#263238" />
  <path
    d="M71.3457 230.248C71.0999 230.582 70.1076 230.248 68.9309 230.292C67.7541 230.336 66.7531 230.582 66.516 230.248C66.4106 230.09 66.516 229.756 66.9814 229.44C67.5577 229.057 68.2344 228.852 68.9265 228.852C69.6186 228.852 70.2952 229.057 70.8715 229.44C71.3018 229.756 71.4511 230.09 71.3457 230.248Z"
    fill="#263238" />
  <path
    d="M70.2655 221.15C69.8781 220.404 69.2916 219.779 68.5709 219.345C67.8502 218.911 67.0234 218.685 66.1822 218.692C64.5029 218.745 62.8734 219.275 61.4841 220.22C55.4337 223.952 52.5183 232.628 46.5557 236.483C45.0804 237.431 43.1134 236.658 41.8752 237.888C40.637 239.117 39.873 241.067 40.6194 242.639C39.7139 241.582 38.9683 240.399 38.4065 239.126C38.1279 238.489 37.9884 237.8 37.9975 237.105C38.0066 236.41 38.164 235.725 38.4592 235.095C38.9598 234.217 39.873 233.453 40.1013 232.461C40.3297 231.469 39.9169 230.634 39.9257 229.703C40.0136 228.77 40.314 227.869 40.8039 227.069C42.9727 222.711 46.2839 219.023 50.3844 216.4C53.0893 214.719 56.2013 213.809 59.3853 213.765C62.569 213.746 65.655 214.864 68.0877 216.918C69.484 218.138 70.9505 219.412 70.2919 221.15"
    fill="#263238" />
  <path d="M42.051 239.17C41.9368 238.871 36.4923 237.08 36.5802 242.814C36.6767 248.373 42.253 247.117 42.2617 246.959C42.2705 246.801 42.051 239.17 42.051 239.17Z" fill="#FFBF9D" />
  <path
    d="M40.5056 244.887C40.5056 244.887 40.409 244.957 40.251 245.036C40.0166 245.127 39.7564 245.127 39.5221 245.036C39.158 244.814 38.8595 244.5 38.6573 244.125C38.4551 243.75 38.3565 243.328 38.3717 242.902C38.3561 242.421 38.4523 241.943 38.6527 241.506C38.7014 241.331 38.7914 241.17 38.9151 241.037C39.0389 240.904 39.1929 240.803 39.364 240.742C39.4752 240.711 39.5936 240.719 39.6992 240.766C39.8048 240.812 39.8911 240.894 39.9436 240.996C40.0226 241.154 39.9436 241.269 40.0139 241.277C40.0841 241.286 40.1368 241.181 40.0841 240.952C40.0547 240.816 39.9767 240.694 39.8646 240.61C39.7875 240.552 39.6995 240.511 39.6059 240.488C39.5123 240.466 39.4151 240.462 39.3201 240.478C39.0929 240.526 38.8821 240.633 38.7082 240.786C38.5343 240.94 38.4032 241.137 38.3278 241.356C38.1017 241.842 37.9963 242.375 38.0205 242.911C38.0009 243.407 38.1289 243.898 38.3884 244.322C38.6478 244.745 39.0271 245.082 39.4782 245.29C39.6276 245.331 39.7844 245.337 39.9365 245.309C40.0887 245.28 40.2323 245.216 40.3563 245.124C40.4968 245.018 40.5232 244.895 40.5056 244.887Z"
    fill="#FF9A6C" />
  <path
    d="M39.7593 236.369C39.8719 236.312 39.9805 236.247 40.0842 236.175C40.2949 236.035 40.6199 235.842 40.9623 235.552C42.0487 234.72 43.041 233.772 43.9217 232.724C45.1815 231.166 46.3542 229.539 47.4342 227.851C48.7301 225.781 50.1989 223.824 51.825 222.002C52.6997 221.091 53.6714 220.278 54.7228 219.578C55.7361 218.93 56.828 218.414 57.972 218.042C59.8578 217.383 61.8507 217.085 63.8467 217.164C65.1935 217.21 66.5282 217.434 67.8159 217.831C68.1704 217.929 68.5193 218.046 68.8609 218.182C68.9805 218.23 69.1039 218.269 69.2297 218.296C69.1157 218.235 68.9985 218.179 68.8785 218.13C68.5438 217.978 68.2008 217.846 67.8511 217.734C66.562 217.295 65.2163 217.044 63.8555 216.988C61.8326 216.889 59.8099 217.187 57.9017 217.866C56.7665 218.247 55.6837 218.769 54.6789 219.42C53.6112 220.13 52.6246 220.954 51.7371 221.879C50.1037 223.711 48.6345 225.683 47.3464 227.772C46.2625 229.463 45.09 231.095 43.8339 232.663C42.9815 233.705 42.0285 234.661 40.9887 235.517C40.6199 235.815 40.3037 236.017 40.1105 236.175C39.9865 236.226 39.8686 236.291 39.7593 236.369Z"
    fill="white" />
  <path
    d="M41.1988 237.905C41.0243 239.426 41.2577 240.966 41.875 242.366C42.6126 243.692 44.4128 244.562 45.7125 243.771C46.775 243.121 47.056 241.734 47.2053 240.496C47.6268 236.939 47.7673 233.348 48.2239 229.8L41.1988 237.905Z"
    fill="#263238" />
  <path
    d="M68.8428 218.542C68.8428 218.542 68.351 218.463 67.4641 218.463C66.2008 218.478 64.9531 218.744 63.7934 219.245C62.9962 219.579 62.2367 219.997 61.5278 220.492C60.7159 221.075 59.9388 221.705 59.2008 222.38C57.4933 223.912 55.9751 225.642 54.6783 227.534C54.0022 228.544 53.405 229.589 52.7552 230.547C52.1399 231.487 51.4147 232.351 50.595 233.119C49.1877 234.386 47.641 235.487 45.9847 236.404C44.5797 237.194 43.4118 237.756 42.5951 238.16L41.6555 238.59C41.5496 238.647 41.4376 238.691 41.3218 238.722C41.4178 238.65 41.5208 238.589 41.6291 238.538L42.5073 238.055C43.2976 237.633 44.4567 237.036 45.8354 236.228C47.4613 235.295 48.9807 234.188 50.3666 232.926C51.1633 232.169 51.8677 231.32 52.4654 230.397C53.1064 229.44 53.7036 228.404 54.3885 227.376C55.7051 225.46 57.2569 223.717 59.0076 222.187C59.7559 221.506 60.5479 220.876 61.3785 220.299C62.1104 219.801 62.8935 219.383 63.7144 219.052C64.9024 218.562 66.1795 218.326 67.4641 218.358C67.8089 218.37 68.1524 218.408 68.4915 218.472C68.6106 218.484 68.7282 218.508 68.8428 218.542Z"
    fill="#455A64" />
  <path
    d="M40.9533 234.481C40.8069 234.614 40.6447 234.729 40.4703 234.823L39.0829 235.701L38.6174 235.991C38.4324 236.104 38.2263 236.179 38.0115 236.211C37.8804 236.226 37.7478 236.198 37.6339 236.131C37.5737 236.091 37.523 236.037 37.4851 235.975C37.4473 235.913 37.4232 235.844 37.4144 235.771C37.4188 235.514 37.5049 235.265 37.6603 235.06L39.2146 232.426L39.4429 232.628C38.3732 233.46 37.0478 233.894 35.6932 233.857C35.5238 233.859 35.355 233.835 35.1927 233.787C35.0967 233.762 35.007 233.717 34.9297 233.655C34.8525 233.593 34.7894 233.515 34.7448 233.427C34.7104 233.332 34.6996 233.231 34.7133 233.132C34.7271 233.032 34.7651 232.937 34.8239 232.856C34.9175 232.731 35.0202 232.614 35.1312 232.505C35.845 231.775 36.4591 230.954 36.9578 230.064C37.3966 229.213 37.7751 228.333 38.0906 227.429C38.0741 227.687 38.0209 227.941 37.9325 228.184C37.7417 228.857 37.4797 229.508 37.151 230.125C36.6691 231.054 36.0603 231.911 35.342 232.672C35.14 232.874 34.938 233.102 35.0258 233.278C35.1137 233.453 35.4122 233.523 35.702 233.523C36.9709 233.531 38.2065 233.117 39.2146 232.347L39.8644 231.846L39.4341 232.549C38.8721 233.497 38.3364 234.384 37.8447 235.183C37.719 235.342 37.6427 235.534 37.6251 235.736C37.6251 235.894 37.7744 235.982 37.9501 235.965C38.3036 235.884 38.6378 235.735 38.9336 235.526L40.365 234.735C40.5478 234.622 40.7459 234.537 40.9533 234.481Z"
    fill="white" />
  <path
    d="M57.8224 248.829C57.917 248.4 58.1599 248.018 58.5084 247.749C58.8568 247.481 59.2887 247.344 59.728 247.363C60.0459 247.397 60.3505 247.509 60.6153 247.688C60.8801 247.867 61.0971 248.108 61.2472 248.39C61.3932 248.674 61.4809 248.984 61.505 249.303C61.5292 249.621 61.4893 249.941 61.3877 250.243V250.384C61.0996 250.712 60.7172 250.943 60.2927 251.045C59.8682 251.147 59.4225 251.116 59.0167 250.955C58.6106 250.782 58.273 250.48 58.0569 250.096C57.8408 249.711 57.7583 249.266 57.8224 248.829Z"
    fill="#FF9A6C" />
  <path
    d="M62.3625 250.384C62.3625 250.164 60.9136 250.27 59.7983 249.119C58.6831 247.969 58.7182 246.423 58.5162 246.432C58.3143 246.441 58.2616 246.792 58.2967 247.442C58.3516 248.288 58.703 249.087 59.289 249.699C59.5732 249.996 59.9136 250.234 60.2905 250.398C60.6674 250.562 61.0732 250.65 61.4844 250.656C62.0464 250.665 62.3625 250.48 62.3625 250.384Z"
    fill="#263238" />
  <path
    d="M85.3782 277.132L85.2113 276.921C78.0193 269.308 64.777 266.761 64.777 266.761C64.777 266.761 63.9691 271.749 56.54 272.302C49.1109 272.855 43.6664 265.277 43.6664 265.277L33.761 266.664C33.761 266.664 28.7731 267.253 25.6733 269.079C18.6833 273.207 14.9424 287.389 14.9424 287.389L91.3408 287.696L85.3782 277.132Z"
    fill="#12B0EE" />
  <path
    d="M92.3597 202.402H92.8954C93.4228 202.405 93.9488 202.455 94.4673 202.551C96.5099 202.872 98.4377 203.706 100.07 204.975C101.39 205.984 102.496 207.245 103.325 208.684C104.154 210.124 104.689 211.713 104.9 213.361C105.008 214.364 105.049 215.373 105.023 216.382C105.023 217.427 105.023 218.498 105.023 219.614C105.023 221.835 105.023 224.189 105.023 226.639C105.023 236.597 105.023 248.636 105.075 262.37C105.075 265.807 105.075 269.343 105.075 272.978C105.075 273.856 105.075 274.796 105.075 275.736C105.002 276.676 104.831 277.606 104.566 278.511C104.001 280.356 103.025 282.049 101.712 283.463C100.375 284.919 98.7102 286.036 96.8558 286.721L96.1533 286.976L95.4245 287.169C94.936 287.291 94.4403 287.382 93.9404 287.441C92.9398 287.542 91.9336 287.577 90.9284 287.547H78.6344L78.8451 287.336C78.8451 293.483 78.8451 300.095 78.8451 306.848V307.358L78.4763 307.006C75.2447 303.968 71.9605 300.824 68.6236 297.575C65.313 294.326 61.9233 291.033 58.6742 287.494L58.841 287.564H14.1875C13.3708 287.564 12.5542 287.564 11.7199 287.512C9.25546 287.31 6.90292 286.396 4.94916 284.88C2.9954 283.364 1.52485 281.313 0.716803 278.976C0.205663 277.443 -0.0321236 275.832 0.0142888 274.216V269.492C0.0142888 256.952 0.0142888 244.851 0.0142888 233.33C0.0142888 227.57 0.0142888 221.955 0.0142888 216.487C-0.0366434 215.118 0.0486632 213.748 0.26895 212.395C0.573175 211.067 1.07962 209.794 1.77057 208.619C2.42117 207.452 3.25759 206.4 4.24693 205.502C5.21404 204.615 6.31689 203.889 7.51362 203.35C8.68825 202.815 9.938 202.462 11.2194 202.305C12.4725 202.205 13.7299 202.17 14.9866 202.2H22.2576H35.9391L77.2118 202.27H88.4432H91.3587H92.351H91.3587H88.4432H77.2118L35.9391 202.341H22.2576H14.9866C13.7474 202.31 12.5075 202.345 11.2721 202.446C10.0107 202.686 8.79545 203.124 7.67169 203.746C5.32566 204.829 3.37187 206.611 2.07792 208.848C1.43066 209.99 0.962711 211.225 0.690458 212.509C0.47121 213.835 0.388818 215.18 0.444579 216.523C0.444579 221.985 0.444579 227.599 0.444579 233.365C0.444579 244.887 0.444579 256.987 0.444579 269.527V274.252C0.404173 275.816 0.632892 277.375 1.12075 278.862C1.89379 281.126 3.31091 283.116 5.19834 284.587C7.08576 286.058 9.36143 286.946 11.7463 287.143C12.5366 287.204 13.3533 287.204 14.1699 287.195H58.9552L59.0255 287.266C62.2482 290.778 65.6467 294.089 68.9573 297.338C72.2678 300.587 75.5697 303.731 78.7924 306.769L78.4324 306.927C78.4324 300.174 78.4324 293.58 78.4324 287.415V287.169H90.9284C91.9188 287.199 92.9101 287.167 93.8965 287.073C94.3789 287.016 94.857 286.928 95.3279 286.809L96.0304 286.625L96.7153 286.379C98.5116 285.715 100.125 284.635 101.422 283.226C102.698 281.857 103.649 280.218 104.206 278.432C104.465 277.553 104.63 276.649 104.698 275.736C104.768 274.858 104.698 273.918 104.75 273.005C104.75 269.369 104.75 265.833 104.75 262.397C104.75 248.663 104.75 236.623 104.803 226.665C104.803 224.18 104.803 221.827 104.803 219.64C104.803 218.525 104.803 217.453 104.803 216.408C104.835 215.409 104.8 214.409 104.698 213.414C104.48 211.638 103.881 209.931 102.941 208.409C102.156 207.14 101.154 206.02 99.982 205.098C98.3679 203.836 96.4678 202.992 94.4497 202.639C93.9338 202.542 93.4113 202.483 92.8866 202.463L92.3597 202.402Z"
    fill="#263238" />
  <path
    d="M293.524 308.938H393.273C398.831 308.938 403.336 304.433 403.336 298.875V221.668C403.336 216.111 398.831 211.605 393.273 211.605H293.524C287.967 211.605 283.461 216.111 283.461 221.668V298.875C283.461 304.433 287.967 308.938 293.524 308.938Z"
    fill="white" />
  <path d="M338.582 305.953C337.353 308.938 313.573 331.278 313.573 331.278V305.953H338.582Z" fill="#455A64" />
  <path
    d="M329.379 285.58C329.379 282.506 329.379 279.942 329.379 279.626C329.379 279.626 318.982 278.642 318.235 268.351C317.875 263.38 317.972 253.08 318.165 243.763C318.267 238.936 320.182 234.325 323.529 230.846C326.876 227.367 331.41 225.276 336.229 224.988L337.221 224.926C347.969 224.926 353.993 234.033 353.712 244.781L353.335 285.123L335.939 299.086L334.683 298.971L329.379 285.58Z"
    fill="#FFBF9D" />
  <path d="M329.362 279.626C334.118 279.328 338.689 277.673 342.534 274.858C342.534 274.858 339.715 282.576 329.362 282.26V279.626Z" fill="#FF9A6C" />
  <path
    d="M335.658 248.197C335.86 248.408 337.063 247.468 338.784 247.442C340.505 247.416 341.778 248.276 341.963 248.065C342.147 247.855 341.849 247.582 341.296 247.187C340.543 246.677 339.65 246.413 338.74 246.432C337.841 246.445 336.971 246.754 336.264 247.31C335.737 247.714 335.561 248.101 335.658 248.197Z"
    fill="#263238" />
  <path
    d="M336.931 252.922C336.952 253.285 337.112 253.626 337.379 253.874C337.646 254.121 337.999 254.255 338.363 254.248C338.54 254.25 338.716 254.217 338.881 254.15C339.045 254.084 339.195 253.985 339.321 253.86C339.447 253.735 339.546 253.586 339.614 253.422C339.682 253.257 339.716 253.081 339.715 252.904C339.697 252.541 339.538 252.2 339.272 251.953C339.007 251.705 338.655 251.571 338.292 251.578C338.114 251.576 337.938 251.609 337.773 251.675C337.608 251.742 337.457 251.84 337.331 251.965C337.204 252.09 337.104 252.239 337.035 252.403C336.966 252.567 336.931 252.744 336.931 252.922Z"
    fill="#263238" />
  <path
    d="M331.197 260.122C330.336 259.904 329.451 259.797 328.563 259.806C328.15 259.806 327.763 259.736 327.684 259.464C327.623 259.05 327.69 258.626 327.878 258.252C328.203 257.251 328.536 256.197 328.888 255.099C330.284 250.621 331.267 246.95 331.092 246.889C330.916 246.827 329.634 250.401 328.238 254.906C327.904 256.013 327.579 257.058 327.272 258.067C327.051 258.571 327.01 259.136 327.158 259.666C327.225 259.805 327.323 259.928 327.445 260.023C327.567 260.119 327.709 260.186 327.86 260.219C328.088 260.265 328.321 260.282 328.554 260.272C329.438 260.333 330.326 260.283 331.197 260.122Z"
    fill="#263238" />
  <path
    d="M336.518 242.674C336.676 243.051 338.064 242.788 339.715 242.893C341.366 242.999 342.718 243.376 342.911 243.016C342.999 242.841 342.744 242.48 342.191 242.138C341.457 241.706 340.628 241.461 339.776 241.427C338.932 241.37 338.087 241.524 337.317 241.875C336.729 242.164 336.448 242.489 336.518 242.674Z"
    fill="#263238" />
  <path
    d="M320.369 243.648C320.545 243.965 321.889 243.648 323.522 243.604C325.155 243.561 326.499 243.806 326.674 243.482C326.753 243.323 326.481 243.042 325.919 242.788C325.161 242.471 324.343 242.324 323.522 242.358C322.689 242.369 321.868 242.561 321.116 242.92C320.536 243.201 320.29 243.499 320.369 243.648Z"
    fill="#263238" />
  <path d="M353.308 252.447C353.484 252.36 360.263 249.927 360.456 256.979C360.65 264.03 353.537 262.783 353.519 262.581C353.502 262.379 353.308 252.447 353.308 252.447Z" fill="#FFBF9D" />
  <path
    d="M355.6 259.841C355.6 259.841 355.723 259.929 355.934 260.017C356.216 260.128 356.53 260.128 356.812 260.017C357.55 259.727 358.147 258.524 358.147 257.251C358.151 256.643 358.015 256.042 357.752 255.495C357.68 255.276 357.556 255.078 357.391 254.917C357.225 254.757 357.024 254.639 356.803 254.572C356.66 254.541 356.511 254.56 356.38 254.625C356.249 254.691 356.144 254.799 356.083 254.933C355.996 255.134 356.083 255.275 356.013 255.284C355.943 255.293 355.855 255.17 355.908 254.88C355.937 254.703 356.031 254.543 356.171 254.432C356.264 254.353 356.372 254.295 356.488 254.26C356.604 254.225 356.727 254.215 356.847 254.23C357.136 254.282 357.407 254.406 357.636 254.59C357.864 254.774 358.043 255.013 358.156 255.284C358.475 255.887 358.64 256.56 358.639 257.242C358.639 258.665 357.945 260.017 356.935 260.342C356.746 260.4 356.547 260.417 356.351 260.389C356.155 260.362 355.968 260.292 355.802 260.184C355.662 260.017 355.574 259.859 355.6 259.841Z"
    fill="#FF9A6C" />
  <path
    d="M333.383 266.094C333.304 265.918 334.692 265.523 335.675 264.241C336.092 263.681 336.429 263.066 336.676 262.414C336.887 261.905 337.054 261.58 337.124 261.606C337.195 261.633 337.177 261.975 337.054 262.484C336.896 263.229 336.578 263.93 336.123 264.539C335.651 265.146 335.023 265.614 334.305 265.892C333.761 266.164 333.401 266.173 333.383 266.094Z"
    fill="#263238" />
  <path
    d="M362.836 241.154C361.396 238.652 361.08 235.675 360.325 232.891C359.57 230.107 358.051 227.218 355.346 226.208H355.284C352.852 225.199 349.84 225.146 347.811 226.814C347.364 223.144 344.185 220.202 340.628 219.218C337.072 218.235 331.32 218.718 327.869 220.053C325.234 221.089 322.6 223.24 319.456 226.41C318.119 227.742 316.897 229.185 315.803 230.722L312.572 240.285L315.206 245.361C315.354 245.713 315.525 246.057 315.715 246.388L317.981 257.031C318.165 254.142 318.086 244.07 318.279 241.181C320.456 241.145 322.602 240.669 324.59 239.782C326.578 238.894 328.365 237.614 329.845 236.017C331.452 234.261 332.725 232.11 334.85 231.091C337.59 229.774 340.83 230.801 343.693 231.837L343.57 231.723C345.058 232.439 346.396 233.432 347.513 234.647C346.793 240.358 347.311 246.156 349.032 251.648C349.287 252.474 350.007 254.177 350.788 254.493C352.36 255.126 352.808 253.528 353.774 252.676C354.625 252.111 355.651 251.874 356.663 252.008C357.484 249.621 358.161 247.188 358.692 244.72C359.646 245.026 360.659 245.108 361.651 244.957C361.352 244.219 361.063 243.49 360.773 242.761C361.148 243.045 361.579 243.245 362.037 243.35C362.266 243.401 362.505 243.379 362.72 243.288C362.936 243.197 363.118 243.04 363.24 242.841C363.486 242.305 363.135 241.681 362.836 241.154Z"
    fill="#263238" />
  <path
    d="M344.562 227.982C344.929 228.268 345.27 228.585 345.581 228.931C346.38 229.924 346.909 231.107 347.118 232.364C347.28 233.233 347.356 234.115 347.346 234.999C347.346 235.947 347.249 236.966 347.162 238.028C347.049 239.149 347.008 240.275 347.039 241.4C347.063 241.99 347.134 242.578 347.249 243.157C347.326 243.794 347.568 244.399 347.952 244.913C348.128 245.117 348.354 245.272 348.608 245.362C348.862 245.451 349.136 245.472 349.401 245.422C349.906 245.338 350.367 245.084 350.709 244.702C351.285 243.934 351.641 243.023 351.737 242.068H351.517C351.818 242.85 352.232 243.584 352.747 244.246C353.242 244.856 353.952 245.255 354.731 245.361C355.095 245.401 355.462 245.34 355.794 245.185C356.1 245.028 356.354 244.783 356.523 244.483C356.674 244.215 356.753 243.912 356.751 243.605C356.737 243.308 356.626 243.024 356.435 242.797L356.321 242.893C356.923 243.602 357.668 244.177 358.507 244.579C358.729 244.686 358.958 244.777 359.192 244.851L359.438 244.922L359.201 244.816C358.976 244.725 358.757 244.622 358.542 244.509C357.732 244.089 357.015 243.509 356.435 242.805L356.321 242.893C356.487 243.113 356.581 243.378 356.59 243.653C356.6 243.928 356.524 244.2 356.373 244.43C356.215 244.692 355.987 244.905 355.715 245.045C355.412 245.182 355.078 245.231 354.749 245.185C354.022 245.082 353.363 244.705 352.905 244.131C352.413 243.483 352.017 242.767 351.728 242.006L351.587 241.673L351.508 242.033C351.408 242.932 351.071 243.79 350.534 244.518C350.224 244.857 349.81 245.083 349.357 245.159C349.132 245.2 348.901 245.182 348.685 245.106C348.47 245.031 348.278 244.901 348.128 244.729C347.782 244.252 347.561 243.697 347.486 243.113C347.369 242.534 347.298 241.947 347.276 241.356C347.244 240.24 347.279 239.123 347.381 238.011C347.46 236.948 347.548 235.93 347.539 234.972C347.544 234.088 347.459 233.205 347.285 232.338C347.055 231.058 346.492 229.861 345.651 228.869C345.342 228.513 344.973 228.213 344.562 227.982Z"
    fill="#455A64" />
  <path
    d="M312.633 237.572L312.712 237.642L312.967 237.835C313.105 237.942 313.251 238.036 313.406 238.116C313.581 238.221 313.783 238.344 314.021 238.459C315.389 239.111 316.897 239.413 318.411 239.337C320.661 239.222 322.828 238.453 324.646 237.124C326.843 235.49 328.684 233.425 330.055 231.056C330.819 229.818 331.452 228.544 332.137 227.376C332.765 226.238 333.552 225.195 334.472 224.277C335.307 223.453 336.333 222.85 337.458 222.52C337.967 222.382 338.495 222.329 339.021 222.362C339.509 222.392 339.991 222.489 340.453 222.652C341.858 223.155 343.024 224.167 343.719 225.488C343.95 225.985 344.121 226.506 344.229 227.043C344.229 227.043 344.229 226.999 344.229 226.929C344.229 226.858 344.229 226.744 344.229 226.612C344.153 226.213 344.029 225.824 343.86 225.453C343.572 224.868 343.189 224.334 342.727 223.873C342.112 223.262 341.372 222.792 340.558 222.494C339.566 222.123 338.484 222.065 337.458 222.327C336.299 222.644 335.239 223.248 334.376 224.083C333.43 225.009 332.625 226.068 331.987 227.227C331.294 228.404 330.661 229.668 329.906 230.889C328.551 233.234 326.739 235.283 324.576 236.913C322.782 238.227 320.648 238.998 318.429 239.135C316.942 239.234 315.454 238.972 314.091 238.371C313.589 238.135 313.102 237.868 312.633 237.572Z"
    fill="#455A64" />
  <path
    d="M319.957 248.645C320.159 248.856 321.353 247.916 323.074 247.89C324.795 247.863 326.077 248.768 326.262 248.504C326.446 248.241 326.139 248.03 325.586 247.626C324.839 247.109 323.947 246.842 323.039 246.862C322.137 246.879 321.266 247.187 320.554 247.741C320.027 248.162 319.851 248.531 319.957 248.645Z"
    fill="#263238" />
  <path
    d="M322.591 253.115C322.609 253.477 322.768 253.817 323.034 254.063C323.3 254.309 323.652 254.442 324.014 254.432C324.191 254.435 324.368 254.404 324.533 254.338C324.698 254.272 324.848 254.175 324.975 254.05C325.101 253.926 325.202 253.778 325.271 253.614C325.34 253.45 325.375 253.275 325.375 253.097C325.355 252.734 325.194 252.392 324.927 252.145C324.66 251.898 324.307 251.764 323.944 251.771C323.766 251.768 323.589 251.8 323.424 251.866C323.259 251.932 323.109 252.031 322.983 252.156C322.856 252.282 322.757 252.431 322.689 252.596C322.622 252.76 322.589 252.937 322.591 253.115Z"
    fill="#263238" />
  <path
    d="M316.681 229.581C315.803 230.731 314.459 231.785 313.01 231.627C312.491 231.516 311.98 231.366 311.482 231.179C310.982 231.486 311.096 233.207 311.438 233.681C311.768 234.084 312.13 234.46 312.519 234.805C310.833 235.684 309.296 235.262 307.487 234.603C307.666 236.143 308.247 237.608 309.172 238.852C310.097 240.096 311.333 241.075 312.756 241.69C313.19 241.925 313.674 242.053 314.167 242.062C314.661 242.071 315.15 241.962 315.592 241.743C316.269 241.186 316.714 240.397 316.839 239.53C317.646 236.447 318.068 233.276 318.095 230.09L316.681 229.581Z"
    fill="#263238" />
  <path
    d="M305.836 297.189L306.029 296.952C314.266 288.232 329.432 285.308 329.432 285.308C329.432 285.308 330.354 291.015 338.854 291.656C347.354 292.298 353.607 283.63 353.607 283.63L364.944 285.22C364.944 285.22 370.652 285.896 374.208 287.986C382.217 292.693 386.502 308.938 386.502 308.938L299.039 309.29L305.836 297.189Z"
    fill="#455A64" />
  <path
    d="M297.836 211.649L297.23 211.702L296.475 211.746C296.177 211.746 295.834 211.842 295.439 211.904C293.126 212.3 290.947 213.266 289.099 214.714C287.754 215.768 286.604 217.048 285.7 218.498C284.63 220.246 283.941 222.2 283.681 224.233C283.571 225.377 283.533 226.526 283.567 227.675C283.567 228.869 283.567 230.099 283.567 231.372C283.567 233.91 283.567 236.641 283.567 239.46C283.567 250.876 283.567 264.645 283.619 280.372C283.619 284.306 283.619 288.358 283.619 292.526C283.619 293.562 283.619 294.625 283.672 295.661C283.754 296.705 283.945 297.739 284.243 298.743C284.88 300.794 285.969 302.676 287.43 304.249C288.92 305.868 290.775 307.108 292.84 307.867L293.621 308.148L294.429 308.359C294.97 308.496 295.518 308.598 296.071 308.666C297.201 308.775 298.336 308.813 299.47 308.78H313.757V308.991C313.757 316.016 313.757 323.594 313.757 331.331L313.388 331.173C317.085 327.66 320.861 324.086 324.664 320.372C328.466 316.657 332.339 312.872 336.036 308.842L336.106 308.763H387.363C388.303 308.763 389.233 308.763 390.147 308.701C391.985 308.553 393.776 308.043 395.416 307.2C398.68 305.529 401.169 302.658 402.362 299.191C402.923 297.493 403.185 295.71 403.134 293.922V288.513C403.134 274.146 403.134 260.289 403.134 247.091C403.134 240.499 403.134 234.059 403.134 227.772C403.197 226.235 403.102 224.696 402.853 223.179C402.535 221.705 401.996 220.287 401.255 218.973C400.524 217.676 399.584 216.51 398.472 215.522C397.397 214.53 396.169 213.717 394.836 213.115C393.528 212.517 392.136 212.123 390.709 211.947C389.292 211.832 387.871 211.791 386.45 211.825H362.45L315.171 211.746L302.324 211.649H298.978H297.836C297.836 211.649 298.223 211.649 298.978 211.649H302.324L315.171 211.605L362.45 211.535H378.116H386.45C387.885 211.497 389.322 211.538 390.753 211.658C392.22 211.833 393.651 212.236 394.994 212.852C397.76 214.12 400.064 216.216 401.589 218.85C402.355 220.201 402.911 221.661 403.24 223.179C403.493 224.723 403.593 226.287 403.538 227.851C403.538 234.103 403.538 240.543 403.538 247.17C403.538 260.342 403.538 274.225 403.538 288.592C403.538 290.383 403.538 292.186 403.538 294.001C403.588 295.846 403.318 297.685 402.739 299.437C401.799 302.088 400.114 304.411 397.887 306.129C395.66 307.847 392.985 308.886 390.182 309.123C389.233 309.184 388.294 309.193 387.363 309.184H336.238L336.404 309.114C332.69 313.162 328.809 316.947 324.989 320.662C321.169 324.376 317.41 327.976 313.704 331.463L313.344 331.814V331.305C313.344 323.568 313.344 316.025 313.344 308.965L313.546 309.167H299.461C298.312 309.191 297.163 309.15 296.019 309.044C295.448 308.974 294.882 308.868 294.324 308.728L293.498 308.508L292.691 308.218C290.58 307.42 288.688 306.135 287.167 304.469C285.671 302.85 284.555 300.918 283.9 298.813C283.6 297.779 283.405 296.717 283.321 295.643C283.242 294.563 283.277 293.527 283.268 292.482C283.268 288.314 283.268 284.262 283.268 280.328C283.268 264.601 283.268 250.814 283.321 239.416C283.321 236.571 283.321 233.866 283.321 231.328V227.631C283.291 226.476 283.338 225.32 283.461 224.171C283.722 222.113 284.426 220.136 285.525 218.375C286.445 216.911 287.616 215.621 288.985 214.564C290.856 213.118 293.06 212.164 295.395 211.789C295.79 211.737 296.133 211.675 296.431 211.649H297.195H297.836Z"
    fill="#263238" />
</svg>