<?xml version="1.0" encoding="UTF-8"?>
<svg width="12px" height="12px" viewBox="0 0 12 12" version="1.1" xmlns="http://www.w3.org/2000/svg" xmlns:xlink="http://www.w3.org/1999/xlink">
    <title>Shape Copy</title>
    <g id="Replan-Desktop" stroke="none" stroke-width="1" fill="none" fill-rule="evenodd">
        <g id="LMS-response" transform="translate(-454.000000, -534.000000)" fill="#1BB954">
            <g id="Group-11" transform="translate(414.000000, 113.000000)">
                <g id="Group-9" transform="translate(32.000000, 23.000000)">
                    <g id="Group-16-Copy-2" transform="translate(8.000000, 350.000000)">
                        <path d="M2.4,53.2 C3.33333333,55.0666667 4.93333333,56.6 6.8,57.6 L8.26666667,56.1333333 C8.46666667,55.9333333 8.73333333,55.8666667 8.93333333,56 C9.66666667,56.2666667 10.4666667,56.4 11.3333333,56.4 C11.7333333,56.4 12,56.6666667 12,57.0666667 L12,59.3333333 C12,59.7333333 11.7333333,60 11.3333333,60 C5.06666667,60 0,54.9333333 0,48.6666667 C0,48.2666667 0.266666667,48 0.666666667,48 L3,48 C3.4,48 3.66666667,48.2666667 3.66666667,48.6666667 C3.66666667,49.4666667 3.8,50.2666667 4.06666667,51.0666667 C4.13333333,51.2666667 4.06666667,51.5333333 3.93333333,51.7333333 L2.4,53.2 L2.4,53.2 Z" id="Shape-Copy"></path>
                    </g>
                </g>
            </g>
        </g>
    </g>
</svg>