<svg width="455" height="478" viewBox="0 0 455 478" fill="none" xmlns="http://www.w3.org/2000/svg">
  <path
    d="M282.133 465.166C282.133 468.027 263.925 470.386 241.416 470.386C218.906 470.386 200.698 468.068 200.698 465.166C200.698 462.264 218.917 459.998 241.416 459.998C263.915 459.998 282.133 462.305 282.133 465.166Z"
    fill="#E0E0E0" />
  <path
    d="M161.39 129.957C164.758 127.927 168.382 126.354 172.165 125.28L174.357 114.62L192.357 114.307L194.946 124.883C198.764 125.821 202.44 127.264 205.877 129.174L214.97 123.213L227.927 135.741L222.289 145.043C224.319 148.408 225.892 152.028 226.966 155.807L237.616 158.021L237.939 176.03L227.363 178.62C226.423 182.434 224.98 186.106 223.072 189.54L229.034 198.644L216.505 211.601L207.244 205.984C203.882 208.018 200.262 209.591 196.48 210.661L194.257 221.321L176.257 221.634L173.668 211.068C169.852 210.13 166.179 208.684 162.748 206.767L153.644 212.728L140.687 200.2L146.335 190.908C144.303 187.539 142.727 183.916 141.648 180.133L130.998 177.92L130.685 159.921L141.251 157.321C142.19 153.505 143.637 149.832 145.552 146.401L139.591 137.307L152.119 124.351L161.422 129.988L161.39 129.957ZM170.995 153.97C168.342 156.718 166.564 160.192 165.885 163.951C165.205 167.71 165.656 171.586 167.18 175.089C168.704 178.592 171.232 181.564 174.445 183.631C177.658 185.697 181.412 186.764 185.231 186.696C189.051 186.629 192.764 185.431 195.903 183.253C199.041 181.075 201.463 178.016 202.863 174.462C204.263 170.907 204.577 167.018 203.766 163.285C202.955 159.552 201.056 156.143 198.308 153.49C196.485 151.726 194.332 150.338 191.973 149.406C189.614 148.474 187.095 148.016 184.559 148.057C182.022 148.099 179.519 148.64 177.192 149.649C174.865 150.658 172.759 152.116 170.995 153.939V153.97Z"
    fill="#F5F5F5" />
  <path
    d="M267.277 161.372C270.106 160.386 273.056 159.789 276.047 159.597L279.388 151.996L292.866 154.627L293.117 162.927C295.812 164.23 298.32 165.891 300.571 167.865L308.307 164.869L315.971 176.249L310.291 182.284C311.27 185.119 311.867 188.071 312.066 191.064L319.656 194.405L317.025 207.883L308.735 208.134C307.438 210.828 305.784 213.336 303.818 215.588L306.825 223.325L295.466 231.04L289.431 225.361C286.6 226.339 283.65 226.936 280.661 227.136L277.31 234.726L263.79 232.084L263.539 223.795C260.841 222.486 258.33 220.821 256.074 218.846L248.348 221.853L240.675 210.462L246.365 204.428C245.381 201.597 244.784 198.648 244.59 195.658L237 192.265L239.62 178.797L247.972 178.546C249.275 175.847 250.936 173.336 252.911 171.081L249.914 163.355L261.294 155.682L267.339 161.372H267.277ZM270.607 180.77C268.19 182.397 266.309 184.704 265.204 187.4C264.098 190.096 263.816 193.06 264.395 195.916C264.974 198.772 266.386 201.392 268.454 203.445C270.522 205.498 273.152 206.891 276.012 207.449C278.872 208.007 281.833 207.705 284.521 206.579C287.209 205.454 289.503 203.557 291.113 201.128C292.723 198.699 293.576 195.847 293.564 192.933C293.553 190.02 292.678 187.174 291.049 184.758C288.867 181.522 285.489 179.285 281.659 178.537C277.828 177.789 273.857 178.592 270.618 180.77H270.607Z"
    fill="#EBEBEB" />
  <path
    d="M341.644 370.462C341.887 370.627 342.076 370.861 342.187 371.133C342.298 371.405 342.326 371.704 342.268 371.993C342.21 372.281 342.068 372.546 341.859 372.754C341.651 372.961 341.386 373.103 341.098 373.161C340.809 373.219 340.51 373.19 340.238 373.078C339.966 372.966 339.733 372.777 339.568 372.533C339.403 372.289 339.314 372.002 339.312 371.708C339.31 371.414 339.394 371.126 339.555 370.879C339.664 370.714 339.804 370.571 339.969 370.46C340.133 370.349 340.318 370.272 340.512 370.233C340.706 370.194 340.906 370.194 341.101 370.234C341.295 370.273 341.48 370.35 341.644 370.462Z"
    fill="#E0E0E0" />
  <path
    d="M415.175 308.769C415.234 309.059 415.205 309.359 415.092 309.633C414.98 309.906 414.789 310.139 414.543 310.304C414.298 310.469 414.009 310.557 413.714 310.557C413.418 310.558 413.129 310.47 412.883 310.307C412.638 310.143 412.446 309.909 412.333 309.637C412.219 309.364 412.19 309.063 412.247 308.773C412.305 308.484 412.447 308.217 412.656 308.008C412.865 307.8 413.131 307.657 413.421 307.6C413.809 307.523 414.211 307.603 414.54 307.822C414.869 308.041 415.097 308.382 415.175 308.769Z"
    fill="#E0E0E0" />
  <path
    d="M351.844 373.437C351.861 373.512 351.856 373.59 351.828 373.662C351.8 373.734 351.752 373.796 351.689 373.84C351.626 373.885 351.551 373.909 351.474 373.91C351.397 373.911 351.321 373.89 351.257 373.848C351.192 373.806 351.142 373.745 351.112 373.674C351.082 373.603 351.074 373.525 351.088 373.449C351.103 373.374 351.14 373.304 351.195 373.25C351.25 373.196 351.319 373.159 351.395 373.144C351.444 373.134 351.494 373.133 351.543 373.142C351.592 373.151 351.639 373.169 351.681 373.197C351.722 373.224 351.758 373.259 351.786 373.3C351.814 373.342 351.834 373.388 351.844 373.437Z"
    fill="#E0E0E0" />
  <path
    d="M351.635 330.882C351.646 330.931 351.646 330.983 351.636 331.032C351.627 331.082 351.607 331.129 351.579 331.171C351.551 331.213 351.514 331.249 351.472 331.276C351.43 331.304 351.382 331.322 351.332 331.331C351.239 331.336 351.147 331.308 351.073 331.251C350.999 331.193 350.948 331.111 350.93 331.019C350.912 330.927 350.928 330.832 350.975 330.751C351.022 330.67 351.097 330.609 351.186 330.579C351.286 330.561 351.388 330.582 351.472 330.639C351.556 330.695 351.615 330.783 351.635 330.882Z"
    fill="#E0E0E0" />
  <path
    d="M413.588 339.297C413.601 339.37 413.593 339.445 413.563 339.514C413.533 339.582 413.484 339.639 413.422 339.68C413.36 339.72 413.287 339.741 413.212 339.74C413.138 339.738 413.066 339.715 413.005 339.673C412.944 339.631 412.896 339.572 412.869 339.503C412.842 339.434 412.835 339.358 412.851 339.285C412.866 339.213 412.903 339.146 412.956 339.094C413.009 339.043 413.077 339.008 413.15 338.994C413.248 338.979 413.348 339.002 413.429 339.058C413.511 339.114 413.568 339.2 413.588 339.297Z"
    fill="#E0E0E0" />
  <path
    d="M415.321 320.942C415.332 320.992 415.332 321.043 415.323 321.093C415.313 321.142 415.294 321.189 415.265 321.231C415.237 321.273 415.201 321.309 415.158 321.336C415.116 321.364 415.068 321.383 415.018 321.391C414.97 321.4 414.92 321.4 414.871 321.389C414.823 321.379 414.777 321.359 414.736 321.331C414.696 321.303 414.661 321.267 414.634 321.225C414.607 321.184 414.589 321.137 414.58 321.089C414.569 321.041 414.569 320.991 414.578 320.942C414.587 320.894 414.605 320.848 414.633 320.807C414.66 320.766 414.695 320.731 414.736 320.704C414.778 320.677 414.824 320.659 414.872 320.65C414.921 320.639 414.971 320.639 415.02 320.647C415.069 320.656 415.116 320.675 415.158 320.702C415.2 320.729 415.236 320.765 415.264 320.806C415.292 320.847 415.311 320.894 415.321 320.942Z"
    fill="#E0E0E0" />
  <path
    d="M331.193 113.91C328.028 105.608 323.179 98.0506 316.952 91.7135C306.178 80.6989 293.921 70.9789 280.035 64.1509C266.149 57.3229 243.493 51.2675 227.029 51.3614C218.52 51.0378 214.219 51.5702 206.472 54.5562C201.628 56.425 197.566 60.7369 197.232 65.8422C196.919 70.5717 199.842 76.387 203.757 79.1433C220.546 90.9827 233.262 91.5987 249.528 96.8084C265.794 102.018 282.572 109.744 291.352 124.225C296.113 132.086 298.828 142.141 307.096 146.317C315.115 150.357 325.691 146.432 330.608 139.008C335.525 131.585 334.356 122.21 331.193 113.91Z"
    fill="#F5F5F5" />
  <path
    d="M107.967 262.466L106.756 263.145C105.952 263.583 104.73 264.189 103.185 265.118C98.6419 267.706 94.2562 270.561 90.0513 273.669C83.3834 278.563 77.1832 284.064 71.53 290.102C67.9893 293.86 64.6739 297.824 61.6012 301.973C58.1119 306.587 55.0935 311.54 52.5912 316.756C51.2791 319.574 50.156 322.476 49.2294 325.443C48.3111 328.554 47.6889 331.746 47.371 334.975C47.0898 338.335 47.2725 341.718 47.9139 345.029C48.2514 346.738 48.7156 348.42 49.3025 350.061C49.9202 351.713 50.6709 353.312 51.5471 354.843C55.3245 361.197 60.7311 366.427 67.2077 369.992C74.0901 373.744 81.5845 376.243 89.3413 377.373C93.2982 378.031 97.3491 378.48 101.452 378.793C103.54 378.971 105.628 379.044 107.654 379.127L113.918 379.399C116.006 379.534 118.094 379.493 120.255 379.482H126.676C128.827 379.482 130.978 379.346 133.149 379.263L139.674 378.96C157.717 377.777 175.629 375.088 193.223 370.921C229.451 362.506 262.558 349.393 291.707 335.789C306.324 329.034 319.959 321.976 331.475 313.457C337.045 309.385 342.175 304.741 346.78 299.603L348.409 297.744C348.952 297.128 349.453 296.471 349.933 295.834L351.437 293.923C351.886 293.265 352.345 292.608 352.804 291.96C354.628 289.444 356.188 286.746 357.461 283.911C359.946 278.697 361.196 272.981 361.115 267.206C361.022 262.023 358.953 257.071 355.331 253.362C352.055 250.277 347.932 248.241 343.491 247.516C339.776 246.851 335.973 246.851 332.258 247.516C329.288 248.037 326.369 248.809 323.529 249.823C321.055 250.679 319.009 251.535 317.359 252.224L313.611 253.832L312.327 254.375L313.59 253.78C314.425 253.404 315.678 252.83 317.307 252.12C318.936 251.41 321.003 250.543 323.477 249.666C326.322 248.636 329.249 247.847 332.226 247.307C335.966 246.623 339.798 246.606 343.544 247.255C348.041 247.983 352.221 250.033 355.55 253.143C359.231 256.908 361.343 261.932 361.459 267.196C361.565 273.039 360.318 278.828 357.816 284.109C356.537 286.968 354.966 289.686 353.128 292.221L351.76 294.205C351.259 294.842 350.716 295.489 350.257 296.126C349.797 296.763 349.265 297.431 348.733 298.058L347.093 299.926C342.474 305.095 337.327 309.766 331.736 313.864C320.199 322.436 306.522 329.525 291.916 336.29C262.756 349.925 229.618 363.07 193.348 371.495C157.078 379.921 121.205 382.332 89.2369 377.916C81.4269 376.773 73.8827 374.248 66.9571 370.462C60.4119 366.821 54.9584 361.497 51.1608 355.041C49.3886 351.963 48.1529 348.605 47.5067 345.112C46.8634 341.76 46.6842 338.334 46.9743 334.933C47.2949 331.677 47.9313 328.46 48.8744 325.328C49.7846 322.343 50.8974 319.423 52.2049 316.589C54.7409 311.363 57.7831 306.397 61.288 301.764C69.3563 290.966 78.9951 281.436 89.8842 273.491C94.1078 270.399 98.5186 267.572 103.091 265.024C106.265 263.27 107.967 262.466 107.967 262.466Z"
    fill="#E0E0E0" />
  <g opacity="0.3">
    <path opacity="0.3"
      d="M93.5905 339.704C93.0299 340.004 92.3929 340.132 91.7599 340.07C91.1269 340.008 90.5265 339.76 90.0344 339.358C89.5424 338.955 89.1809 338.415 88.9957 337.806C88.8104 337.198 88.8097 336.548 88.9937 335.94C89.1776 335.331 89.5379 334.79 90.0291 334.386C90.5203 333.982 91.1202 333.733 91.753 333.67C92.3858 333.607 93.0232 333.733 93.5844 334.032C94.1456 334.331 94.6055 334.79 94.906 335.35C95.3061 336.103 95.3924 336.983 95.1459 337.799C94.8994 338.614 94.3403 339.299 93.5905 339.704Z"
      fill="white" />
  </g>
  <g opacity="0.3">
    <path opacity="0.3"
      d="M107.33 322.916C107.236 323.146 105.607 322.509 102.882 322.248C99.3629 321.866 95.8084 322.52 92.6555 324.13C89.5025 325.74 86.8883 328.235 85.1338 331.31C83.7452 333.669 83.3067 335.361 83.0457 335.309C82.7847 335.256 82.9413 333.45 84.1628 330.809C84.884 329.265 85.8344 327.84 86.9817 326.58C89.8159 323.421 93.7227 321.427 97.9441 320.984C99.6392 320.794 101.353 320.861 103.029 321.183C105.9 321.747 107.414 322.77 107.33 322.916Z"
      fill="white" />
  </g>
  <path
    d="M0.754643 174.12L0.211743 175.581C0.04618 176.029 -0.0235687 176.507 0.00700358 176.984C0.0375758 177.46 0.167789 177.925 0.389229 178.348L29.9355 234.883C30.1463 235.297 30.4407 235.663 30.8001 235.958C31.1595 236.252 31.5761 236.469 32.0236 236.595L33.7045 237.054C34.0825 237.152 34.474 237.187 34.8634 237.159L69.3166 234.444C70.139 234.382 70.9106 234.022 71.4871 233.432C72.0636 232.842 72.4054 232.063 72.4487 231.239C72.4863 230.612 72.3489 229.987 72.052 229.433L40.7309 171.04C40.429 170.475 39.9739 170.007 39.4181 169.69C38.8622 169.372 38.228 169.218 37.5883 169.244L3.68839 171.906C3.03959 171.958 2.41904 172.194 1.89945 172.586C1.37986 172.978 0.982752 173.51 0.754643 174.12Z"
    fill="#E0E0E0" />
  <path d="M2.9158 173.316L34.2578 231.907L69.776 229.12L38.6741 170.508L2.9158 173.316Z" fill="#FAFAFA" />
  <path
    d="M37.8702 217.771C38.8192 217.374 39.8644 217.266 40.8744 217.461C41.8844 217.656 42.8143 218.146 43.5473 218.867C44.2802 219.589 44.7836 220.511 44.9942 221.518C45.2048 222.525 45.1132 223.572 44.7309 224.527C44.3486 225.482 43.6926 226.303 42.8454 226.886C41.9982 227.47 40.9975 227.79 39.969 227.806C38.9404 227.823 37.9298 227.535 37.0642 226.98C36.1986 226.424 35.5165 225.625 35.1035 224.683C34.8253 224.048 34.6763 223.364 34.665 222.671C34.6538 221.978 34.7807 221.29 35.0382 220.647C35.2958 220.004 35.6788 219.418 36.165 218.924C36.6512 218.43 37.2309 218.038 37.8702 217.771Z"
    fill="#E0E0E0" />
  <path
    d="M40 220.152L39.8538 221.102C39.8464 221.159 39.8575 221.218 39.8857 221.268C39.9139 221.319 39.9576 221.359 40.0104 221.384L40.1879 221.457C40.1879 221.457 40.5116 221.54 40.4176 221.832C40.3236 222.125 39.8121 223.346 39.8121 223.346C39.8121 223.346 39.6763 223.701 39.4049 223.586L39.1439 223.482C39.1011 223.463 39.0532 223.459 39.0077 223.47C38.9623 223.481 38.922 223.508 38.8933 223.545L38.2251 224.38C38.1869 224.419 38.1654 224.471 38.1654 224.526C38.1654 224.581 38.1869 224.633 38.2251 224.672L38.4653 224.912C38.5094 224.955 38.5631 224.988 38.6219 225.006C38.7854 225.054 38.9594 225.054 39.123 225.006C39.5824 224.744 39.9827 224.39 40.2989 223.966C40.6151 223.542 40.8403 223.057 40.9605 222.542C41.5243 220.903 40.9605 220.287 40.8665 220.131C40.7506 220.01 40.5947 219.936 40.428 219.922H40.2297C40.1711 219.929 40.1165 219.955 40.0747 219.997C40.033 220.038 40.0067 220.093 40 220.152Z"
    fill="white" />
  <path
    d="M51.6619 224.474C50.8863 223.798 50.3277 222.908 50.0562 221.916C49.7846 220.924 49.8123 219.874 50.1356 218.897C50.459 217.921 51.0636 217.061 51.8737 216.427C52.6837 215.793 53.663 215.413 54.6886 215.333C55.7142 215.254 56.7403 215.48 57.6382 215.981C58.5361 216.483 59.2658 217.239 59.7354 218.155C60.2051 219.07 60.394 220.103 60.2782 221.125C60.1625 222.147 59.7474 223.113 59.085 223.9C58.6387 224.43 58.0913 224.866 57.4748 225.182C56.8582 225.499 56.1848 225.689 55.4938 225.743C54.8028 225.796 54.1081 225.711 53.4502 225.494C52.7923 225.276 52.1844 224.929 51.6619 224.474Z"
    fill="#E0E0E0" />
  <path
    d="M52.8521 221.519L53.7709 221.227C53.8268 221.208 53.8747 221.171 53.9069 221.122C53.9391 221.073 53.9538 221.014 53.9484 220.955V220.768C53.9393 220.726 53.9386 220.684 53.9464 220.642C53.9542 220.601 53.9702 220.561 53.9936 220.526C54.017 220.491 54.0473 220.461 54.0826 220.438C54.1178 220.415 54.1574 220.399 54.199 220.392C54.4182 220.392 55.8277 220.266 55.8277 220.266C55.8277 220.266 56.1931 220.266 56.214 220.527V220.809C56.2171 220.856 56.235 220.9 56.265 220.936C56.295 220.971 56.3357 220.997 56.381 221.008L57.425 221.227C57.4511 221.235 57.4785 221.237 57.5055 221.234C57.5325 221.231 57.5586 221.222 57.5821 221.208C57.6056 221.195 57.626 221.176 57.6421 221.154C57.6582 221.132 57.6696 221.107 57.6756 221.081L57.7904 220.757C57.8012 220.698 57.8012 220.638 57.7904 220.58C57.7712 220.408 57.6981 220.247 57.5816 220.12C57.1424 219.829 56.6481 219.63 56.1292 219.537C55.6103 219.443 55.0777 219.457 54.5644 219.577C52.8417 219.797 52.4763 220.548 52.4763 220.726C52.4189 220.884 52.4189 221.058 52.4763 221.216L52.5598 221.394C52.5903 221.442 52.6345 221.479 52.6866 221.502C52.7388 221.524 52.7965 221.53 52.8521 221.519Z"
    fill="white" />
  <path
    d="M36.5443 195.199C37.8806 194.27 38.2774 192.401 37.3691 190.396C36.1788 187.776 33.1929 185.938 30.7394 186.293C28.2859 186.648 27.2419 189.05 28.4321 191.67C28.8996 192.656 29.579 193.527 30.4218 194.22C31.2647 194.913 32.2501 195.411 33.3077 195.679C26.9391 197.767 30.6768 205.076 30.6768 205.076L48.1435 203.708C48.1435 203.708 43.7481 195.23 36.5443 195.199Z"
    fill="#EBEBEB" />
  <path
    d="M57.1222 209.669C57.1222 209.94 50.858 210.661 43.0695 211.266C35.281 211.872 28.9645 212.154 28.9437 211.882C28.9228 211.611 35.2079 210.838 42.9964 210.275C50.7849 209.711 57.0909 209.387 57.1222 209.669Z"
    fill="#EBEBEB" />
  <path
    d="M65.4537 409.968L66.6022 411.868C67.8885 414.033 69.779 415.775 72.0416 416.88L74.0253 417.871L72.0416 418.968C69.9087 420.254 68.188 422.123 67.0824 424.355L66.101 426.349L64.9526 424.438C63.6664 422.305 61.7972 420.585 59.5653 419.479L57.5817 418.498L59.5131 417.349C61.646 416.063 63.3667 414.194 64.4723 411.962L65.4537 409.968Z"
    fill="#EBEBEB" />
  <path
    d="M433.717 36.4424L434.866 38.3425C436.151 40.4725 438.016 42.1926 440.242 43.3017L442.237 44.2831L440.336 45.4316C438.197 46.7134 436.472 48.5835 435.367 50.8188L434.385 52.8025L433.279 50.9023C431.993 48.7694 430.123 47.0487 427.892 45.9431L425.908 44.9617L427.808 43.8133C429.941 42.5271 431.662 40.6579 432.767 38.4261L433.717 36.4424Z"
    fill="#EBEBEB" />
  <path
    d="M446.851 65.9363L447.843 67.5859C448.961 69.4423 450.588 70.9388 452.531 71.8977L454.253 72.7538L452.604 73.7979C450.747 74.9155 449.251 76.5425 448.292 78.4856L447.436 80.2083L446.444 78.5587C445.33 76.703 443.707 75.2064 441.767 74.2468L439.981 73.3907L441.631 72.3467C443.481 71.2294 444.974 69.6066 445.932 67.6694L446.851 65.9363Z"
    fill="#EBEBEB" />
  <path
    d="M43.3828 388.492L44.1971 389.839C45.1056 391.356 46.4373 392.576 48.0287 393.347L49.4278 394.046L48.0914 394.861C46.5795 395.765 45.3586 397.084 44.573 398.661L43.8526 400.071L43.0382 398.724C42.1293 397.214 40.8069 395.997 39.2275 395.216L37.8285 394.527L39.1649 393.712C40.677 392.807 41.8951 391.483 42.6728 389.902L43.3828 388.492Z"
    fill="#EBEBEB" />
  <path
    d="M388.771 403.244L389.575 404.591C390.487 406.098 391.809 407.315 393.386 408.099L394.795 408.788L393.449 409.603C391.937 410.509 390.719 411.832 389.941 413.413L389.241 414.812L388.437 413.476C387.532 411.964 386.208 410.746 384.627 409.968L383.217 409.268L384.564 408.454C386.073 407.545 387.291 406.223 388.072 404.643L388.771 403.244Z"
    fill="#EBEBEB" />
  <path
    d="M33.3077 18.2971L34.1221 19.6439C35.024 21.1553 36.3438 22.3735 37.9224 23.1519L39.3318 23.8514L37.985 24.6658C36.4649 25.5772 35.2397 26.9075 34.4562 28.4974L33.7671 29.8964L32.9736 28.4974C32.0647 26.9879 30.7423 25.7705 29.1629 24.9894L27.7534 24.3212L29.1003 23.5069C30.6146 22.604 31.8335 21.2799 32.6082 19.6961L33.3077 18.2971Z"
    fill="#EBEBEB" />
  <path
    d="M434.626 264.063L435.429 265.4C436.335 266.912 437.658 268.13 439.24 268.908L440.65 269.607L439.303 270.422C437.793 271.331 436.576 272.653 435.795 274.232L435.095 275.631L434.291 274.285C433.38 272.777 432.058 271.561 430.481 270.777L429.103 270.088L430.449 269.273C431.961 268.367 433.179 267.044 433.957 265.462L434.626 264.063Z"
    fill="#EBEBEB" />
  <path
    d="M29.8729 115.319L30.6768 116.666C31.5799 118.169 32.8903 119.385 34.4562 120.174L35.8656 120.863L34.5188 121.678C33.0071 122.584 31.789 123.907 31.0109 125.488L30.3114 126.898L29.5388 125.593C28.6331 124.081 27.3098 122.862 25.728 122.085L24.3186 121.385L25.6654 120.571C27.1745 119.666 28.3921 118.347 29.1733 116.771L29.8729 115.319Z"
    fill="#EBEBEB" />
  <path
    d="M84.9354 132.473L85.6871 133.726C86.533 135.132 87.7651 136.267 89.2368 136.994L90.5419 137.641L89.289 138.393C87.8878 139.241 86.755 140.468 86.0212 141.932L85.3739 143.247L84.6222 141.995C83.78 140.589 82.5514 139.454 81.0829 138.727L79.7674 138.121L81.0202 137.369C82.424 136.524 83.5576 135.297 84.2881 133.83L84.9354 132.473Z"
    fill="#7ED2FF" />
  <path
    d="M355.936 269.973L356.688 271.226C357.535 272.63 358.767 273.76 360.238 274.483L361.543 275.131L360.29 275.882C358.886 276.729 357.756 277.961 357.033 279.432L356.385 280.737L355.634 279.484C354.787 278.081 353.555 276.95 352.084 276.227L350.779 275.58L352.021 274.828C353.428 273.982 354.562 272.75 355.289 271.278L355.936 269.973Z"
    fill="#7ED2FF" />
  <path
    d="M208.737 11.7927L209.489 13.0456C210.335 14.4523 211.567 15.5865 213.039 16.3134L214.344 16.9607L213.091 17.7124C211.709 18.5464 210.588 19.7507 209.855 21.1891L209.207 22.4941L208.456 21.2413C207.594 19.8606 206.355 18.7555 204.885 18.057L203.59 17.3679L204.843 16.6162C206.249 15.774 207.383 14.5454 208.111 13.0769L208.737 11.7927Z"
    fill="#7ED2FF" />
  <path
    d="M384.961 129.769L385.712 131.011C386.555 132.417 387.783 133.551 389.252 134.279L390.567 134.926L389.314 135.678C387.908 136.524 386.773 137.756 386.046 139.228L385.399 140.533L384.647 139.28C383.794 137.877 382.554 136.75 381.077 136.033L379.772 135.385L381.025 134.623C382.428 133.778 383.562 132.551 384.292 131.084L384.961 129.769Z"
    fill="#7ED2FF" />
  <path
    d="M113.479 180.718L114.033 181.627C114.64 182.673 115.54 183.519 116.622 184.059L117.572 184.539L116.664 185.082C115.635 185.699 114.806 186.597 114.273 187.672L113.803 188.632L113.26 187.713C112.637 186.693 111.74 185.869 110.671 185.333L109.71 184.863L110.629 184.31C111.654 183.692 112.48 182.793 113.01 181.721L113.479 180.718Z"
    fill="#7ED2FF" />
  <path
    d="M138.453 297.723L139.006 298.632C139.621 299.659 140.52 300.486 141.595 301.012L142.545 301.492L141.637 302.035C140.61 302.65 139.783 303.549 139.257 304.624L138.776 305.585L138.233 304.666C137.615 303.642 136.717 302.816 135.644 302.286L134.684 301.816L135.603 301.263C136.627 300.645 137.453 299.746 137.983 298.673L138.453 297.723Z"
    fill="#7ED2FF" />
  <path
    d="M376.765 94.2715L377.318 95.1798C377.935 96.2081 378.833 97.0379 379.907 97.5706L380.858 98.0405L379.949 98.5938C378.922 99.2075 378.093 100.102 377.558 101.173L377.089 102.133L376.546 101.214C375.922 100.194 375.025 99.3696 373.956 98.8339L372.996 98.3641L373.915 97.8108C374.926 97.2181 375.751 96.3536 376.295 95.3155L376.765 94.2715Z"
    fill="#7ED2FF" />
  <path
    d="M64.5976 156.036L65.1509 156.955C65.7689 157.98 66.6674 158.806 67.7401 159.336L68.6902 159.805L67.7819 160.359C66.755 160.972 65.9254 161.867 65.391 162.937L64.9212 163.898L64.3783 162.99C63.7618 161.961 62.8632 161.132 61.7891 160.599L60.8286 160.129L61.7473 159.576C62.7703 158.96 63.5962 158.066 64.1277 156.997L64.5976 156.036Z"
    fill="#7ED2FF" />
  <path
    d="M403.169 99.9302L403.482 100.452C403.839 101.037 404.352 101.511 404.964 101.82L405.507 102.081L404.985 102.405C404.398 102.754 403.923 103.265 403.618 103.877L403.346 104.43L403.033 103.908C402.679 103.32 402.165 102.846 401.55 102.54L401.007 102.269L401.529 101.956C402.117 101.602 402.592 101.087 402.897 100.473L403.169 99.9302Z"
    fill="#7ED2FF" />
  <path
    d="M383.645 250.24L383.958 250.762C384.313 251.347 384.827 251.818 385.441 252.12L385.994 252.391L385.462 252.704C384.879 253.062 384.409 253.575 384.104 254.187L383.833 254.74L383.52 254.218C383.169 253.628 382.654 253.153 382.037 252.851L381.484 252.579L382.016 252.266C382.601 251.911 383.072 251.397 383.374 250.783L383.645 250.24Z"
    fill="#7ED2FF" />
  <path
    d="M248.641 0.0266113L248.954 0.54863C249.308 1.13641 249.822 1.61092 250.436 1.91632L250.979 2.18777L250.457 2.50098C249.869 2.85482 249.395 3.36917 249.089 3.98352L248.818 4.52641L248.505 4.0044C248.151 3.41661 247.637 2.94211 247.022 2.63671L246.479 2.39658L247.001 2.08337C247.589 1.72953 248.064 1.21518 248.369 0.600832L248.641 0.0266113Z"
    fill="#7ED2FF" />
  <path
    d="M188.838 26.6807L189.151 27.2027C189.508 27.7883 190.021 28.2621 190.634 28.5704L191.187 28.8418L190.665 29.155C190.075 29.5061 189.6 30.0212 189.297 30.6376L189.026 31.1805L188.713 30.6585C188.356 30.0732 187.842 29.5995 187.23 29.2908L186.687 29.0297L187.209 28.7061C187.796 28.3544 188.268 27.8392 188.567 27.2236L188.838 26.6807Z"
    fill="#7ED2FF" />
  <path
    d="M145.124 311.432L145.448 311.954C145.798 312.541 146.308 313.016 146.92 313.321L147.473 313.593L146.951 313.906C146.361 314.257 145.886 314.772 145.584 315.389L145.312 315.931L144.999 315.409C144.644 314.825 144.13 314.354 143.516 314.052L142.974 313.781L143.496 313.457C144.08 313.107 144.551 312.596 144.853 311.985L145.124 311.432Z"
    fill="#7ED2FF" />
  <path
    d="M298.754 388.513L169.294 388.21C163.938 388.21 159.595 384.42 159.605 379.785C159.605 375.139 163.969 371.38 169.335 371.432L298.796 371.735C304.163 371.735 308.506 375.525 308.495 380.161C308.485 384.765 304.121 388.523 298.754 388.513Z"
    fill="#455A64" />
  <path
    d="M298.754 368.091L169.294 367.799C163.938 367.799 159.595 364.009 159.605 359.363C159.605 354.717 163.969 351.011 169.335 351.011L298.796 351.303C304.163 351.303 308.506 355.093 308.495 359.739C308.485 364.354 304.121 368.112 298.754 368.091Z"
    fill="#455A64" />
  <path
    d="M293.555 391.561L175.036 391.29C172.787 391.444 170.681 392.446 169.143 394.094C167.605 395.741 166.75 397.911 166.75 400.164C166.75 402.418 167.605 404.588 169.143 406.235C170.681 407.882 172.787 408.884 175.036 409.039H188.045L205.23 441.926C206.199 443.769 207.652 445.315 209.432 446.396C211.212 447.477 213.253 448.054 215.336 448.065L257.682 448.159C259.784 448.165 261.848 447.59 263.644 446.497C265.44 445.405 266.9 443.837 267.861 441.968L284.712 409.258H293.555C295.804 409.104 297.91 408.102 299.448 406.454C300.986 404.807 301.841 402.637 301.841 400.384C301.841 398.13 300.986 395.96 299.448 394.313C297.91 392.666 295.804 391.664 293.555 391.509V391.561Z"
    fill="#455A64" />
  <path
    d="M334.262 253.675C334.262 253.675 333.949 254.166 333.312 255.105L330.483 259.282L328.395 262.351C327.643 263.489 326.902 264.794 326.056 266.172L323.342 270.662C322.35 272.249 321.483 274.055 320.46 275.882C319.969 276.811 319.416 277.772 318.925 278.763L318.121 280.256L317.38 281.843C316.388 283.931 315.292 286.218 314.248 288.556L311.178 296.074C310.207 298.715 309.237 301.482 308.245 304.353C306.269 310.557 304.652 316.87 303.4 323.26C301.979 330.464 301.28 337.791 301.312 345.133V345.31H301.135L162.956 345.383H162.737V345.164C161.277 328.992 157.057 313.19 150.261 298.444C146.705 290.621 142.599 283.06 137.973 275.819C135.644 272.134 133.16 268.511 130.508 264.951C127.856 261.391 124.995 257.997 122.155 254.51L121.811 254.093H122.364L122.155 254.51C109.212 237.868 100.38 218.404 96.378 197.704C95.8143 195.052 95.4697 192.359 95.0626 189.665C94.8955 188.308 94.7598 186.951 94.6136 185.593L94.4048 183.558L94.2691 181.469C94.196 180.102 94.0707 178.734 94.0394 177.356L93.9454 173.18C93.8932 171.802 93.9454 170.413 94.0081 169.004C94.0707 167.594 94.0603 166.237 94.1229 164.828C94.7601 153.626 96.7585 142.544 100.074 131.825C109.696 101.593 129.675 75.7249 156.494 58.7741C162.888 54.7478 169.603 51.2559 176.571 48.3338C183.416 45.4939 190.488 43.2343 197.712 41.5788C211.716 38.353 226.146 37.3837 240.455 38.7077C247.343 39.3596 254.172 40.5217 260.887 42.1844C267.404 43.8688 273.795 46.0073 280.014 48.5843C291.891 53.5766 302.986 60.2578 312.953 68.421C322.241 76.0629 330.471 84.907 337.426 94.7204C343.858 103.765 349.12 113.588 353.086 123.953C354.13 126.396 354.851 128.902 355.707 131.345C356.563 133.788 357.137 136.273 357.847 138.653C358.39 141.107 359.006 143.519 359.476 145.962C359.695 147.173 359.904 148.373 360.113 149.564C360.321 150.754 360.561 151.934 360.687 153.113C361.941 162.009 362.311 171.008 361.793 179.977C360.957 194.36 357.805 208.515 352.46 221.895C350.495 226.757 348.257 231.505 345.757 236.114C343.544 240.092 341.529 243.37 339.796 245.96L337.478 249.363L335.713 251.733L334.252 253.675L335.651 251.723L337.415 249.311L339.702 245.897C341.414 243.308 343.418 240.019 345.621 236.031C348.103 231.421 350.32 226.673 352.261 221.811C357.565 208.449 360.681 194.32 361.491 179.966C361.989 171.017 361.604 162.04 360.342 153.166C360.217 151.986 359.987 150.806 359.768 149.616C359.549 148.426 359.34 147.235 359.131 146.035C358.651 143.634 358.035 141.232 357.492 138.727C356.782 136.325 356.156 133.851 355.352 131.418C354.548 128.986 353.754 126.48 352.731 124.047C348.754 113.726 343.492 103.946 337.071 94.9396C330.135 85.1767 321.926 76.3846 312.661 68.7969C307.758 64.8202 302.6 61.1687 297.22 57.8658C291.618 54.5281 285.8 51.5669 279.805 49.0019C273.608 46.4373 267.237 44.3126 260.741 42.6437C254.055 40.9821 247.253 39.8269 240.393 39.188C226.145 37.8743 211.778 38.8471 197.838 42.0695C190.639 43.7102 183.594 45.9631 176.779 48.8036C169.839 51.7273 163.152 55.2193 156.786 59.244C130.031 76.1466 110.11 101.962 100.544 132.128C97.2362 142.805 95.2448 153.846 94.6136 165.005C94.551 166.383 94.5405 167.761 94.4988 169.181C94.457 170.601 94.3735 171.937 94.4361 173.305L94.5301 177.419C94.5301 178.786 94.6867 180.154 94.7598 181.522L94.8955 183.558L95.1043 185.646C95.2505 187.003 95.3758 188.35 95.5428 189.697C95.95 192.38 96.2945 195.063 96.8583 197.704C100.839 218.323 109.632 237.712 122.521 254.291L122.844 254.719H122.312L122.51 254.302C125.361 257.747 128.305 261.13 130.863 264.742C133.421 268.354 136.01 271.956 138.348 275.652C142.978 282.917 147.091 290.498 150.658 298.339C157.483 313.137 161.72 328.996 163.186 345.227L162.946 345.008L301.124 345.081L300.957 345.258C300.939 337.896 301.66 330.551 303.108 323.333C304.362 316.888 305.993 310.523 307.994 304.269C308.986 301.398 309.957 298.631 310.938 295.98L314.07 288.473C315.177 286.124 316.242 283.89 317.203 281.749L317.954 280.173C318.226 279.661 318.487 279.129 318.758 278.669C319.291 277.688 319.802 276.728 320.303 275.788C321.347 273.94 322.204 272.134 323.206 270.568C324.208 269.002 325.085 267.436 325.941 266.089C326.797 264.742 327.539 263.416 328.301 262.278L330.389 259.219C331.652 257.413 332.602 256.024 333.249 255.095C333.897 254.166 334.241 253.696 334.241 253.696L334.262 253.675Z"
    fill="#263238" />
  <path
    d="M113.083 217.051C113.029 216.959 112.987 216.861 112.957 216.758C112.884 216.529 112.78 216.236 112.655 215.881C112.394 215.067 112.018 213.918 111.548 212.478L110.765 210.003C110.504 209.095 110.274 208.093 109.992 207.028C109.481 204.877 108.771 202.455 108.332 199.72C108.082 198.352 107.81 196.922 107.539 195.429C107.267 193.936 107.132 192.359 106.912 190.741C106.422 187.494 106.265 184.007 106.015 180.3C105.709 172.323 106.058 164.333 107.059 156.413C108.192 148.509 109.972 140.712 112.383 133.099C113.594 129.633 114.68 126.303 116.016 123.306C116.653 121.803 117.207 120.331 117.864 118.953C118.522 117.575 119.169 116.28 119.775 115.027C120.934 112.501 122.26 110.36 123.335 108.418C123.888 107.468 124.379 106.56 124.87 105.756L126.279 103.585C127.125 102.321 127.783 101.319 128.253 100.599L128.785 99.8364C128.903 99.6624 128.966 99.5789 128.973 99.5859C128.934 99.6844 128.885 99.7789 128.827 99.8677L128.347 100.661L126.457 103.699L125.089 105.892C124.609 106.696 124.139 107.615 123.596 108.575C122.552 110.517 121.257 112.668 120.119 115.205L118.251 119.13C117.603 120.498 117.06 121.98 116.434 123.484C115.119 126.47 114.054 129.748 112.853 133.256C110.495 140.847 108.749 148.616 107.633 156.486C106.616 164.381 106.235 172.345 106.495 180.3C106.724 183.965 106.871 187.442 107.33 190.678C107.549 192.286 107.675 193.81 107.925 195.355C108.176 196.901 108.447 198.268 108.687 199.636C109.105 202.382 109.731 204.856 110.274 206.944C110.535 207.988 110.744 209.032 110.995 209.93C111.245 210.828 111.506 211.653 111.736 212.405L112.78 215.829L113.03 216.727C113.062 216.946 113.083 217.051 113.083 217.051Z"
    fill="#263238" />
  <path
    d="M152.954 76.5227C150.69 78.8495 148.291 81.0422 145.771 83.0897C143.377 85.2765 140.86 87.3261 138.234 89.2286C140.506 86.9135 142.904 84.7247 145.417 82.6721C147.819 80.4907 150.335 78.438 152.954 76.5227Z"
    fill="#263238" />
  <path
    d="M335.692 232.199C335.709 232.116 335.737 232.035 335.776 231.959L336.089 231.291L337.332 228.712C337.613 228.159 337.916 227.543 338.25 226.864C338.584 226.186 338.877 225.423 339.242 224.62C339.931 223.012 340.798 221.195 341.55 219.117L342.802 215.871C343.23 214.743 343.596 213.542 344.024 212.31C344.901 209.857 345.621 207.174 346.425 204.365C348.027 198.223 349.233 191.984 350.038 185.687C350.76 179.38 351.077 173.034 350.988 166.686C350.873 163.763 350.81 160.985 350.549 158.396C350.424 157.091 350.361 155.838 350.215 154.638C350.069 153.437 349.912 152.289 349.766 151.192C349.536 148.989 349.119 147.016 348.837 145.294C348.68 144.427 348.555 143.613 348.409 142.882C348.263 142.151 348.106 141.472 347.97 140.867L347.375 138.079C347.313 137.776 347.271 137.536 347.229 137.348C347.215 137.262 347.215 137.174 347.229 137.087C347.27 137.162 347.298 137.243 347.313 137.328C347.365 137.526 347.427 137.756 347.511 138.048L348.2 140.815C348.357 141.431 348.513 142.099 348.691 142.83C348.868 143.56 348.993 144.375 349.171 145.241C349.484 146.974 349.923 148.937 350.215 151.14L350.695 154.596C350.852 155.797 350.925 157.049 351.061 158.354C351.343 160.954 351.416 163.742 351.541 166.707C351.862 179.467 350.322 192.206 346.968 204.522C346.143 207.341 345.412 210.034 344.515 212.488C344.076 213.72 343.7 214.92 343.262 216.048C342.823 217.176 342.385 218.261 341.967 219.295C341.184 221.383 340.297 223.168 339.576 224.787C339.2 225.58 338.877 226.332 338.532 227.01C338.188 227.689 337.864 228.284 337.582 228.848L336.183 231.333L335.818 231.99C335.745 232.137 335.703 232.21 335.692 232.199Z"
    fill="#263238" />
  <path
    d="M292.407 104.389C285.265 100.307 277.79 96.5689 269.772 94.794C268.658 94.4877 267.497 94.3921 266.347 94.5121C265.77 94.5734 265.216 94.7734 264.732 95.0952C264.249 95.417 263.85 95.8509 263.57 96.36C262.881 97.7799 263.57 99.4922 264.426 100.818C266.358 103.731 269.25 105.85 272.163 107.782C280.139 113.075 288.721 117.387 297.272 121.688C296.228 115.602 294.056 110.361 292.407 104.399"
    fill="#7ED2FF" />
  <path
    d="M347.166 120.122C349.495 128.015 352.314 135.866 356.886 142.704C357.478 143.698 358.25 144.573 359.162 145.283C359.623 145.635 360.16 145.873 360.73 145.976C361.3 146.08 361.886 146.046 362.441 145.878C363.923 145.315 364.623 143.623 364.905 142.068C365.521 138.622 364.905 135.083 364.132 131.679C362.044 122.283 358.808 113.294 355.602 104.273C352.178 109.421 350.1 114.714 347.166 120.122Z"
    fill="#7ED2FF" />
  <path
    d="M292.334 104.232C292.334 104.232 292.897 158.887 323.571 159.952C354.245 161.017 355.529 104.618 355.529 104.232C355.529 104.232 351.906 96.0777 323.926 96.3909C295.946 96.7041 292.334 104.232 292.334 104.232Z"
    fill="#7ED2FF" />
  <path
    d="M333.051 125.937C332.899 128.023 332.132 130.017 330.846 131.667C329.561 133.317 327.815 134.549 325.83 135.207C323.844 135.865 321.709 135.92 319.692 135.364C317.676 134.808 315.87 133.667 314.502 132.084C313.134 130.502 312.266 128.55 312.008 126.474C311.75 124.398 312.113 122.293 313.051 120.423C313.989 118.554 315.461 117.005 317.279 115.972C319.098 114.939 321.182 114.468 323.268 114.62C324.654 114.719 326.007 115.091 327.249 115.713C328.492 116.336 329.599 117.198 330.507 118.249C331.416 119.3 332.109 120.521 332.545 121.84C332.982 123.159 333.153 124.551 333.051 125.937Z"
    fill="#263238" />
  <path
    d="M330.19 125.728C330.079 127.248 329.52 128.7 328.583 129.902C327.647 131.103 326.375 132 324.929 132.48C323.483 132.959 321.927 132.998 320.458 132.593C318.989 132.188 317.674 131.357 316.677 130.205C315.681 129.052 315.049 127.63 314.86 126.118C314.672 124.606 314.936 123.073 315.619 121.711C316.302 120.349 317.373 119.22 318.698 118.467C320.022 117.714 321.54 117.371 323.06 117.48C325.098 117.63 326.994 118.583 328.331 120.129C329.668 121.675 330.337 123.689 330.19 125.728Z"
    fill="white" />
  <path
    d="M326.474 127.127C326.415 126.705 326.391 126.279 326.401 125.853C326.401 125.06 326.401 123.922 326.401 122.533L326.484 122.69L322.485 120.372H322.705L318.706 122.627C318.591 122.805 318.852 122.377 318.821 122.419V123.598C318.821 123.995 318.821 124.381 318.821 124.768C318.821 125.53 318.821 126.271 318.821 126.991L318.716 126.793L322.632 129.194H322.464C323.686 128.537 324.688 128.015 325.398 127.66C325.767 127.444 326.155 127.262 326.557 127.117C326.229 127.367 325.88 127.587 325.513 127.774C324.834 128.192 323.843 128.819 322.59 129.508H322.506L322.412 129.455L318.445 127.148L318.341 127.085V126.95C318.341 126.24 318.341 125.488 318.341 124.726C318.341 124.34 318.341 123.953 318.341 123.557V122.46L318.466 122.252L322.475 120.028L322.59 119.965L322.694 120.038L326.62 122.429H326.703V122.523C326.703 123.974 326.609 125.133 326.568 125.916C326.57 126.322 326.538 126.727 326.474 127.127Z"
    fill="#7ED2FF" />
  <path
    d="M292.177 104.179H292.334L292.803 104.346L294.578 104.973L295.862 105.422C296.332 105.578 296.854 105.735 297.408 105.902C298.525 106.236 299.778 106.664 301.197 106.946L303.421 107.52C304.194 107.708 305.019 107.854 305.854 108.042C307.535 108.428 309.351 108.689 311.262 108.992C319.571 110.188 328.009 110.188 336.319 108.992C338.229 108.689 340.046 108.428 341.727 108.042C342.562 107.865 343.387 107.718 344.16 107.52L346.383 106.946C347.803 106.612 349.056 106.184 350.173 105.902C350.727 105.724 351.217 105.578 351.718 105.422L353.003 104.962L354.777 104.336L355.247 104.179L355.404 104.127C355.404 104.127 355.352 104.127 355.258 104.2L354.798 104.378L353.034 105.046L351.75 105.516C351.28 105.683 350.768 105.839 350.215 106.017C349.098 106.361 347.845 106.8 346.425 107.144L344.201 107.729C343.418 107.927 342.604 108.073 341.758 108.261C340.088 108.658 338.261 108.919 336.35 109.232C328.018 110.457 319.552 110.457 311.22 109.232C309.31 108.919 307.483 108.648 305.812 108.261C304.966 108.073 304.152 107.917 303.369 107.718L301.145 107.134C299.725 106.789 298.473 106.351 297.355 106.006L295.821 105.516L294.536 105.035L292.772 104.367L292.323 104.19L292.177 104.179Z"
    fill="#263238" />
  <g opacity="0.3">
    <path opacity="0.3" d="M292.334 104.232C292.334 104.232 295.956 96.7146 323.926 96.391C351.896 96.0673 355.529 104.232 355.529 104.232C355.529 104.232 327.278 118.149 292.334 104.232Z"
      fill="black" />
  </g>
  <path
    d="M301.918 143.122C301.918 143.122 301.918 143.122 301.866 143.049L301.73 142.798L301.229 141.848L300.863 141.149L300.477 140.303C300.195 139.698 299.872 139.009 299.558 138.215L299.068 137.004C298.901 136.566 298.734 136.127 298.566 135.657C298.211 134.739 297.909 133.726 297.522 132.671C296.875 130.583 296.228 128.192 295.674 125.687C295.121 123.181 294.693 120.78 294.369 118.587C294.046 116.395 293.816 114.411 293.68 112.72C293.597 111.885 293.555 111.133 293.513 110.465C293.472 109.796 293.43 109.222 293.419 108.752V107.708V107.426C293.419 107.364 293.419 107.333 293.419 107.333C293.424 107.364 293.424 107.395 293.419 107.426V107.708C293.419 107.969 293.419 108.324 293.492 108.752C293.566 109.18 293.566 109.796 293.618 110.454C293.67 111.112 293.733 111.874 293.827 112.709C293.973 114.38 294.234 116.363 294.557 118.556C294.881 120.748 295.32 123.15 295.873 125.645C296.426 128.14 297.063 130.489 297.71 132.619C298.055 133.663 298.358 134.707 298.702 135.595C298.869 136.064 299.036 136.513 299.182 136.941C299.329 137.369 299.517 137.777 299.673 138.163C299.976 138.946 300.279 139.635 300.561 140.251L300.926 141.107L301.271 141.807L301.74 142.778L301.855 143.039C301.855 143.039 301.928 143.122 301.918 143.122Z"
    fill="white" />
  <path
    d="M316.701 156.267C316.536 156.267 316.371 156.246 316.211 156.204C315.768 156.134 315.332 156.029 314.906 155.891C314.27 155.699 313.649 155.462 313.047 155.181C312.319 154.827 311.621 154.415 310.959 153.949C310.3 153.472 309.675 152.949 309.09 152.383C308.626 151.911 308.193 151.409 307.796 150.88C307.527 150.518 307.28 150.142 307.055 149.752C306.963 149.616 306.889 149.468 306.835 149.313C306.835 149.313 307.222 149.898 307.879 150.786C308.288 151.299 308.731 151.784 309.205 152.237C309.781 152.795 310.399 153.308 311.053 153.772C311.718 154.233 312.416 154.645 313.141 155.003C313.732 155.285 314.339 155.532 314.958 155.745C316.023 156.1 316.712 156.225 316.701 156.267Z"
    fill="white" />
  <path
    d="M323.091 136.983C322.998 136.998 322.902 136.998 322.809 136.983C322.611 136.983 322.329 136.983 321.963 136.983C320.926 136.965 319.896 136.8 318.904 136.492C318.219 136.28 317.552 136.011 316.91 135.689C316.173 135.312 315.473 134.864 314.822 134.352C313.317 133.194 312.131 131.672 311.375 129.93C310.619 128.188 310.318 126.282 310.5 124.392C310.569 123.573 310.716 122.762 310.938 121.97C311.137 121.281 311.396 120.61 311.711 119.965C312.159 119.031 312.739 118.166 313.434 117.397C313.622 117.185 313.82 116.983 314.029 116.791C314.164 116.666 314.238 116.593 314.248 116.604C314.258 116.614 313.966 116.896 313.496 117.449C312.84 118.236 312.286 119.102 311.847 120.028C311.548 120.669 311.3 121.332 311.105 122.012C310.9 122.795 310.763 123.595 310.698 124.402C310.531 126.26 310.832 128.13 311.575 129.841C312.317 131.551 313.477 133.049 314.947 134.196C315.58 134.702 316.258 135.149 316.973 135.532C317.605 135.854 318.261 136.127 318.936 136.346C319.909 136.664 320.92 136.85 321.943 136.9C322.694 136.983 323.091 136.962 323.091 136.983Z"
    fill="white" />
  <path
    d="M321.775 47.3945C321.775 47.3945 295.027 47.0708 290.799 70.2589C286.57 93.447 309.184 93.8542 315.689 94.2718C318.633 94.4702 324.939 94.4911 330.514 94.3867C342.834 94.1778 351.551 91.787 354.527 80.3548C354.877 79.0148 355.097 77.6443 355.185 76.2622C356.02 63.7233 347.48 46.7785 321.775 47.3945Z"
    fill="#7ED2FF" />
  <path
    d="M341.174 82.6723L302.325 83.2778C301.352 83.293 300.386 83.1157 299.482 82.7561C298.578 82.3966 297.754 81.8618 297.057 81.1826C296.36 80.5034 295.805 79.6932 295.423 78.7985C295.04 77.9039 294.838 76.9425 294.829 75.9696C294.815 74.9976 294.993 74.0325 295.354 73.1296C295.714 72.2268 296.249 71.4039 296.928 70.7084C297.607 70.0128 298.417 69.4583 299.311 69.0765C300.205 68.6948 301.165 68.4933 302.137 68.4838L340.986 67.8783C341.958 67.8617 342.925 68.0381 343.829 68.3973C344.733 68.7565 345.557 69.2914 346.253 69.971C346.949 70.6506 347.504 71.4614 347.884 72.3566C348.265 73.2519 348.465 74.2137 348.471 75.1865C348.487 76.158 348.31 77.1229 347.951 78.0257C347.592 78.9285 347.058 79.7514 346.379 80.4471C345.701 81.1428 344.892 81.6975 343.999 82.0794C343.105 82.4613 342.145 82.6628 341.174 82.6723Z"
    fill="#263238" />
  <path
    d="M310.385 75.218C310.296 75.6784 310.072 76.1019 309.741 76.4349C309.411 76.768 308.99 76.9955 308.53 77.0888C308.07 77.1821 307.593 77.1369 307.159 76.959C306.726 76.7811 306.354 76.4784 306.092 76.0893C305.83 75.7003 305.69 75.2422 305.689 74.7732C305.687 74.3042 305.825 73.8454 306.084 73.4547C306.344 73.0641 306.714 72.7592 307.146 72.5788C307.579 72.3983 308.056 72.3503 308.516 72.4409C309.132 72.562 309.674 72.9225 310.025 73.4431C310.375 73.9637 310.505 74.602 310.385 75.218Z"
    fill="white" />
  <path
    d="M337.53 74.7793C337.441 75.2397 337.217 75.6632 336.886 75.9962C336.556 76.3292 336.135 76.5568 335.675 76.6501C335.215 76.7434 334.738 76.6982 334.304 76.5203C333.87 76.3424 333.499 76.0397 333.237 75.6506C332.975 75.2615 332.835 74.8035 332.834 74.3345C332.832 73.8655 332.97 73.4067 333.229 73.016C333.489 72.6254 333.859 72.3205 334.291 72.14C334.724 71.9596 335.201 71.9116 335.661 72.0021C336.276 72.1258 336.816 72.4868 337.166 73.0067C337.516 73.5267 337.647 74.1636 337.53 74.7793Z"
    fill="white" />
  <path
    d="M317.182 74.1217C317.359 74.1217 317.276 74.9674 317.787 76.0741C318.087 76.7071 318.517 77.2694 319.05 77.7237C319.664 78.285 320.444 78.6297 321.272 78.7052C322.1 78.7806 322.929 78.5825 323.634 78.1413C324.244 77.7958 324.768 77.3177 325.169 76.7423C325.879 75.7609 325.941 74.9256 326.119 74.9361C326.296 74.9465 326.254 75.1553 326.254 75.5416C326.242 76.1008 326.095 76.6487 325.826 77.139C325.442 77.888 324.87 78.5246 324.166 78.987C323.287 79.5857 322.231 79.8691 321.17 79.7909C320.227 79.6767 319.337 79.29 318.61 78.6781C317.883 78.0662 317.351 77.2556 317.077 76.3455C316.903 75.8141 316.856 75.2488 316.942 74.696C317.015 74.3097 317.119 74.1113 317.182 74.1217Z"
    fill="white" />
  <path
    d="M318.435 49.1274H318.33H318.048C317.798 49.1274 317.432 49.1274 317.004 49.2213C315.676 49.3495 314.357 49.5658 313.058 49.8687C311.132 50.3263 309.257 50.9769 307.462 51.8106C305.265 52.8277 303.206 54.1186 301.333 55.6526C296.907 59.3624 293.672 64.2936 292.031 69.8307C291.885 70.2796 291.812 70.6346 291.738 70.8747L291.665 71.1461C291.665 71.2088 291.665 71.2401 291.665 71.2401C291.663 71.2088 291.663 71.1774 291.665 71.1461L291.728 70.8643C291.791 70.6241 291.853 70.2587 291.979 69.8202C292.295 68.5464 292.703 67.2973 293.2 66.0826C293.993 64.2428 294.98 62.4929 296.144 60.8624C300.185 55.2173 306.167 51.2618 312.943 49.7538C314.251 49.455 315.581 49.2595 316.921 49.1691C317.39 49.1169 317.756 49.1691 317.965 49.1169H318.435V49.1274Z"
    fill="white" />
  <path
    d="M292.219 81.2106C292.054 80.9553 291.927 80.6775 291.843 80.3858C291.598 79.7079 291.416 79.0089 291.3 78.2977C291.18 77.5665 291.134 76.8248 291.164 76.0843C291.152 75.778 291.187 75.4716 291.269 75.176C291.331 75.176 291.269 76.575 291.509 78.3081C291.749 80.0412 292.334 81.1897 292.219 81.2106Z"
    fill="white" />
  <path
    d="M334.753 66.5736C334.753 66.5736 329.637 66.678 323.321 66.678C317.004 66.678 311.888 66.678 311.888 66.5736C311.888 66.4692 317.015 66.4587 323.321 66.4587C329.627 66.4587 334.753 66.5109 334.753 66.5736Z"
    fill="white" />
  <path
    d="M315.302 92.6326H315.104H314.551H313.663C313.319 92.6326 312.932 92.6326 312.494 92.6326C311.475 92.6243 310.458 92.5616 309.445 92.4446C306.947 92.1829 304.492 91.6077 302.137 90.7324C301.181 90.3842 300.244 89.987 299.329 89.5422C298.932 89.3543 298.587 89.1663 298.285 88.9993C297.982 88.8323 297.721 88.6965 297.512 88.5712L297.042 88.2789C296.927 88.2058 296.875 88.1745 296.875 88.1641C296.875 88.1536 296.948 88.1641 297.063 88.2372L297.554 88.4982C297.773 88.613 298.034 88.7487 298.347 88.8949C298.66 89.0411 298.995 89.229 299.391 89.396C300.185 89.7719 301.135 90.1582 302.21 90.5445C303.376 90.9591 304.565 91.3076 305.77 91.5885C306.979 91.8718 308.202 92.0879 309.435 92.2358C310.573 92.3715 311.596 92.4446 312.463 92.4655C312.901 92.4655 313.287 92.4655 313.632 92.4655C313.977 92.4655 314.269 92.4655 314.519 92.4655H315.073C315.161 92.5022 315.24 92.5595 315.302 92.6326Z"
    fill="white" />
  <path
    d="M347.949 107.562H347.845L347.553 107.666L346.394 108.084C345.882 108.261 345.266 108.481 344.535 108.69C343.805 108.898 342.99 109.18 342.061 109.41L340.61 109.796L339.023 110.162C337.979 110.423 336.747 110.631 335.505 110.872C332.801 111.329 330.076 111.65 327.34 111.832C324.6 111.972 321.854 111.972 319.113 111.832C317.85 111.759 316.649 111.696 315.532 111.561C314.979 111.508 314.436 111.467 313.914 111.394L312.431 111.185C311.481 111.07 310.625 110.903 309.884 110.778C309.143 110.652 308.495 110.517 307.973 110.402L306.773 110.13L306.459 110.057H306.355H306.459H306.783L307.984 110.287C308.506 110.391 309.153 110.517 309.905 110.631C310.656 110.746 311.502 110.903 312.452 111.007L313.935 111.195C314.446 111.258 314.979 111.3 315.553 111.352C316.67 111.477 317.86 111.529 319.124 111.602C321.64 111.707 324.417 111.707 327.33 111.54C330.243 111.373 332.988 111.007 335.473 110.6C336.716 110.37 337.895 110.172 338.992 109.911C339.535 109.786 340.036 109.681 340.568 109.556L342.019 109.191C342.949 108.971 343.773 108.71 344.504 108.502C345.235 108.293 345.851 108.094 346.363 107.927L347.532 107.562L347.845 107.468L347.949 107.562Z"
    fill="white" />
  <path d="M93.9037 287.283L93.9663 301.764C93.9663 301.764 117.979 288.139 110.953 275.193L93.9037 287.283Z" fill="#7ED2FF" />
  <path d="M96.2528 253.832C96.2528 253.832 78.9427 247.484 65.7773 259.23L79.2663 266.841L96.2528 253.832Z" fill="#7ED2FF" />
  <path
    d="M79.2768 266.882C79.8301 267.603 93.8933 287.283 93.8933 287.283L130.664 261.182C132.182 260.106 133.46 258.727 134.416 257.132C135.373 255.536 135.987 253.759 136.221 251.914C136.454 250.069 136.302 248.195 135.773 246.411C135.244 244.628 134.351 242.974 133.149 241.554C130.921 238.915 127.76 237.237 124.326 236.869C120.892 236.502 117.448 237.473 114.711 239.581L79.2768 266.882Z"
    fill="#F5F5F5" />
  <path
    d="M79.2767 266.882L79.5795 266.632C79.7988 266.444 80.112 266.204 80.4983 265.901L84.0898 263.082L97.4117 252.715L106.651 245.542L111.809 241.554L114.503 239.466C115.442 238.74 116.47 238.137 117.562 237.67C118.105 237.409 118.7 237.263 119.263 237.054C119.859 236.904 120.462 236.785 121.07 236.699C122.303 236.527 123.553 236.527 124.786 236.699C126.716 236.968 128.567 237.645 130.216 238.683C131.864 239.722 133.274 241.099 134.35 242.723C135.078 243.851 135.647 245.074 136.041 246.357C136.814 249.003 136.781 251.82 135.947 254.448C135.139 256.962 133.615 259.187 131.562 260.848C129.474 262.414 127.459 263.792 125.455 265.233L113.855 273.439L94.0186 287.429L93.8515 287.544L93.7471 287.387C89.2578 281.06 85.6245 275.903 83.0979 272.353L80.2373 268.281C79.9345 267.833 79.6944 267.488 79.5064 267.237C79.3185 266.987 79.2663 266.882 79.2767 266.882C79.3838 266.996 79.4816 267.118 79.5691 267.248L80.3521 268.292L83.3172 272.343L94.0603 287.158L93.7889 287.105L113.563 273.032L125.152 264.794C127.135 263.364 129.244 261.955 131.228 260.43C133.187 258.829 134.638 256.692 135.404 254.281C136.205 251.755 136.241 249.049 135.509 246.503C135.124 245.273 134.577 244.1 133.88 243.016C133.174 241.959 132.324 241.007 131.353 240.186C129.46 238.584 127.15 237.556 124.692 237.221C123.505 237.05 122.299 237.05 121.111 237.221C120.527 237.295 119.948 237.407 119.378 237.555C118.822 237.722 118.275 237.917 117.739 238.14C115.588 239.007 113.897 240.604 112.101 241.919L106.965 245.856C103.634 248.382 100.544 250.752 97.7145 252.903L84.2672 263.134L80.6027 265.911L79.6317 266.642L79.2767 266.882Z"
    fill="#263238" />
  <path
    d="M96.9001 265.755L73.9313 282.282C73.9313 282.282 74.9127 284.798 75.5495 284.548C76.1864 284.297 93.3817 272.541 98.9986 268.72C99.2145 268.574 99.3959 268.382 99.5302 268.158C99.6645 267.935 99.7485 267.685 99.7763 267.425C99.8041 267.166 99.7751 266.904 99.6913 266.657C99.6075 266.41 99.4709 266.184 99.291 265.995C98.9913 265.669 98.5821 265.464 98.1413 265.42C97.7004 265.375 97.2587 265.495 96.9001 265.755Z"
    fill="#7ED2FF" />
  <path
    d="M120.746 255.388C120.844 256.904 120.49 258.416 119.729 259.731C118.968 261.047 117.834 262.107 116.47 262.778C115.107 263.449 113.575 263.7 112.068 263.501C110.562 263.301 109.148 262.659 108.006 261.656C106.865 260.653 106.046 259.334 105.654 257.866C105.262 256.397 105.314 254.846 105.804 253.407C106.293 251.968 107.199 250.707 108.405 249.783C109.612 248.859 111.065 248.313 112.582 248.215C113.589 248.15 114.599 248.284 115.554 248.609C116.509 248.934 117.391 249.444 118.149 250.11C118.907 250.776 119.527 251.585 119.973 252.491C120.418 253.396 120.681 254.381 120.746 255.388Z"
    fill="white" />
  <path
    d="M120.746 255.388C120.683 255.388 120.673 254.699 120.286 253.561C119.728 251.948 118.648 250.566 117.217 249.635C116.387 249.088 115.456 248.712 114.479 248.529C113.502 248.346 112.498 248.359 111.526 248.568C110.554 248.777 109.634 249.178 108.818 249.746C108.003 250.315 107.309 251.04 106.777 251.88C105.922 253.209 105.516 254.776 105.618 256.352C105.719 257.929 106.323 259.431 107.34 260.639C108.274 261.777 109.529 262.607 110.942 263.02C112.139 263.377 113.407 263.428 114.629 263.169C115.851 262.91 116.988 262.349 117.937 261.537C119.234 260.431 120.126 258.925 120.474 257.257C120.704 256.066 120.631 255.388 120.694 255.388C120.709 255.551 120.709 255.715 120.694 255.878C120.726 256.35 120.701 256.823 120.621 257.288C120.337 259.038 119.455 260.636 118.125 261.809C117.21 262.625 116.116 263.215 114.931 263.531C113.558 263.884 112.117 263.866 110.754 263.479C109.243 263.053 107.897 262.179 106.891 260.973C105.793 259.681 105.141 258.068 105.032 256.376C104.922 254.683 105.362 253 106.286 251.577C107.13 250.253 108.352 249.213 109.794 248.591C111.109 248.028 112.551 247.826 113.97 248.006C115.187 248.167 116.349 248.61 117.363 249.301C118.835 250.295 119.913 251.772 120.412 253.477C120.556 253.927 120.644 254.394 120.673 254.866C120.715 255.037 120.739 255.212 120.746 255.388Z"
    fill="#263238" />
  <path d="M132.397 259.762C144.748 248.215 142.545 234.841 142.545 234.841C125.935 230.477 114.722 239.612 114.722 239.612C125.778 241.168 131.698 247.871 132.397 259.762Z" fill="#7ED2FF" />
  <path d="M263.581 210.609L267.851 250.032L293.242 258.499L294.286 270.777L258.444 268.386C258.444 268.386 247.44 268.626 244.976 254.093L244.391 215.839L263.581 210.609Z" fill="#FFBE9D" />
  <path
    d="M316.284 270.578C316.055 270.844 315.752 271.036 315.413 271.129C315.075 271.222 314.716 271.212 314.384 271.1C314.242 271.047 314.106 270.98 313.976 270.902C313.089 270.327 313.705 268.365 313.705 268.365L309.226 266.36C309.226 266.36 302.106 268.678 299.245 270.703C296.384 272.729 291.425 269.169 291.425 269.169L292.156 258.728L302.826 253.216C302.826 253.216 302.168 253.539 303.15 252.234C304.131 250.929 306.689 252.234 306.689 252.234C307.305 251.629 309.143 251.838 309.143 251.838L316.451 254.698C317.191 254.995 317.855 255.453 318.397 256.038C318.939 256.623 319.344 257.32 319.583 258.081L321.441 263.98C321.441 263.98 322.162 268.072 321.671 268.845C321.459 269.168 321.134 269.401 320.76 269.5C320.386 269.598 319.989 269.554 319.646 269.377C319.646 269.377 318.602 271.674 317.996 271.591C317.357 271.391 316.762 271.072 316.242 270.651L316.284 270.578Z"
    fill="#FFBE9D" />
  <path
    d="M301.333 269.534C301.517 269.474 301.696 269.397 301.866 269.304L303.4 268.626C305.316 267.822 307.275 267.125 309.268 266.538H309.163L313.622 268.574L313.517 268.333C313.401 268.714 313.328 269.106 313.298 269.503C313.247 269.938 313.33 270.379 313.538 270.766C313.669 270.967 313.858 271.124 314.081 271.215C314.28 271.328 314.501 271.399 314.728 271.424C315.199 271.476 315.673 271.357 316.065 271.09C316.16 271.022 316.25 270.949 316.336 270.87L316.399 270.808C316.461 270.808 315.824 270.86 316.096 270.808L316.232 270.912L316.775 271.288C316.97 271.408 317.172 271.516 317.38 271.612L317.714 271.747C317.865 271.788 318.023 271.788 318.174 271.747C318.42 271.638 318.632 271.465 318.789 271.246C318.938 271.061 319.074 270.865 319.197 270.662C319.435 270.26 319.651 269.845 319.844 269.419L319.52 269.534C319.819 269.69 320.154 269.759 320.49 269.735C320.825 269.711 321.147 269.595 321.42 269.398C321.709 269.191 321.913 268.887 321.995 268.542C322.055 268.229 322.079 267.911 322.068 267.592C322.019 266.349 321.883 265.11 321.661 263.886C321.337 262.842 321.003 261.798 320.669 260.754C320.45 260.085 320.241 259.417 320.032 258.76C319.862 258.075 319.614 257.413 319.291 256.786C318.936 256.171 318.46 255.635 317.892 255.21C317.329 254.821 316.714 254.515 316.065 254.302L309.153 251.618H309.101C308.657 251.571 308.209 251.571 307.764 251.618C307.296 251.626 306.843 251.792 306.48 252.088H306.762C306.424 251.809 306.023 251.616 305.594 251.527C305.164 251.438 304.72 251.455 304.298 251.577C303.546 251.87 302.937 252.442 302.596 253.174L302.774 252.965L295.466 256.734L293.482 257.778C293.243 257.888 293.016 258.021 292.803 258.175C293.053 258.099 293.295 257.997 293.524 257.872L295.56 256.912L302.983 253.289H303.035V253.237C303.339 252.601 303.872 252.105 304.528 251.848C304.887 251.75 305.265 251.74 305.629 251.82C305.992 251.9 306.331 252.067 306.616 252.307L306.762 252.412L306.908 252.287C307.213 252.068 307.578 251.952 307.952 251.952C308.365 251.911 308.782 251.911 309.195 251.952H309.038L315.939 254.667C316.546 254.865 317.12 255.154 317.641 255.523C318.154 255.91 318.584 256.396 318.904 256.953C319.208 257.548 319.442 258.175 319.604 258.822L320.23 260.816C320.575 261.86 320.909 262.904 321.222 263.948C321.44 265.145 321.572 266.356 321.619 267.571C321.631 267.851 321.61 268.131 321.556 268.406C321.499 268.64 321.362 268.847 321.17 268.991C320.966 269.13 320.729 269.211 320.483 269.228C320.237 269.244 319.991 269.195 319.771 269.085L319.552 268.981L319.447 269.2C319.268 269.608 319.066 270.005 318.842 270.39C318.622 270.745 318.33 271.173 318.08 271.267C318.015 271.285 317.946 271.285 317.881 271.267L317.61 271.152C317.418 271.069 317.233 270.972 317.056 270.86C316.879 270.745 316.701 270.63 316.534 270.505L316.409 270.421C316.681 270.421 316.044 270.421 316.106 270.421V270.474L315.887 270.651C315.585 270.87 315.213 270.966 314.843 270.923C314.661 270.91 314.485 270.853 314.331 270.756C314.177 270.704 314.044 270.6 313.956 270.463C313.71 269.789 313.71 269.049 313.956 268.375V268.208L313.809 268.135L309.31 266.172H309.257H309.205C307.206 266.796 305.249 267.549 303.348 268.427L301.845 269.19C301.663 269.287 301.492 269.403 301.333 269.534Z"
    fill="#EB996E" />
  <path
    d="M307.274 255.168C307.953 255.721 308.705 256.177 309.508 256.526C311.443 257.488 313.497 258.19 315.616 258.614L315.417 258.384C315.417 258.791 315.469 259.219 315.532 259.647C315.833 262.089 316.602 264.45 317.798 266.601C318.156 267.249 318.56 267.87 319.009 268.459C319.332 268.877 319.531 269.085 319.562 269.065C319.593 269.044 318.946 268.083 318.121 266.434C317.048 264.283 316.342 261.968 316.033 259.585C316.033 259.167 315.939 258.75 315.908 258.353V258.186H315.72C313.637 257.766 311.604 257.129 309.654 256.286C308.881 255.872 308.086 255.499 307.274 255.168Z"
    fill="#EB996E" />
  <path
    d="M313.277 261.464C313.14 263.078 313.398 264.701 314.029 266.193C314.502 267.745 315.352 269.154 316.503 270.296C316.639 270.202 315.396 268.459 314.509 266.016C313.622 263.573 313.434 261.453 313.277 261.464Z"
    fill="#EB996E" />
  <path
    d="M290.747 265.734C290.747 265.734 290.747 265.818 290.945 265.943C291.155 266.12 291.379 266.28 291.613 266.423C292.498 266.977 293.479 267.359 294.505 267.551C296.076 267.86 297.702 267.715 299.193 267.133C301.095 266.393 302.681 265.017 303.682 263.239L303.359 263.343C305.069 264.162 306.886 264.735 308.756 265.045C309.466 265.16 310.166 265.233 310.844 265.275C311.543 265.346 312.248 265.304 312.932 265.15C313.313 265.065 313.648 264.842 313.872 264.523C313.972 264.358 314.039 264.175 314.068 263.984C314.097 263.793 314.088 263.599 314.041 263.411C313.995 263.224 313.912 263.048 313.797 262.893C313.681 262.738 313.537 262.607 313.371 262.508L312.557 262.059C310.406 260.9 308.38 259.971 306.731 259.209C305.081 258.447 303.599 257.925 302.67 257.57C302.176 257.367 301.666 257.206 301.145 257.09C301.613 257.345 302.098 257.568 302.596 257.758C303.546 258.165 304.914 258.802 306.574 259.543C308.234 260.284 310.197 261.297 312.327 262.477L313.131 262.926C313.345 263.064 313.501 263.276 313.569 263.521C313.621 263.77 313.581 264.03 313.454 264.252C313.29 264.468 313.053 264.617 312.786 264.669C312.156 264.807 311.506 264.839 310.865 264.763C310.166 264.724 309.469 264.647 308.777 264.534C306.97 264.229 305.214 263.677 303.557 262.894L303.338 262.79L303.233 262.999C302.3 264.68 300.829 266 299.057 266.747C297.637 267.316 296.089 267.489 294.578 267.248C293.576 267.089 292.609 266.761 291.718 266.277C291.081 265.943 290.767 265.713 290.747 265.734Z"
    fill="#EB996E" />
  <path
    d="M321.379 413.09C321.447 412.766 321.447 412.432 321.379 412.108C321.207 411.213 320.852 410.364 320.335 409.613C320.165 409.347 319.966 409.102 319.74 408.882C319.593 408.744 319.412 408.649 319.215 408.605C319.019 408.561 318.814 408.57 318.622 408.632C318.508 408.673 318.405 408.739 318.32 408.826C318.235 408.913 318.17 409.018 318.132 409.133C318.063 409.35 318.063 409.584 318.132 409.801C318.276 410.163 318.451 410.512 318.654 410.845C319.04 411.492 319.353 412.14 319.854 412.87C320 413.079 320.199 413.244 320.43 413.349C320.662 413.454 320.917 413.494 321.17 413.466C321.634 413.384 322.071 413.191 322.444 412.902C323.133 412.396 323.763 411.814 324.323 411.169C324.585 410.863 324.829 410.542 325.054 410.208C325.317 409.883 325.509 409.506 325.617 409.101C325.677 408.867 325.654 408.619 325.551 408.4C325.448 408.181 325.272 408.005 325.054 407.901C324.849 407.842 324.632 407.836 324.424 407.883C324.215 407.931 324.023 408.03 323.864 408.172C323.387 408.583 322.966 409.053 322.611 409.571C322.089 410.301 321.678 411.103 321.389 411.952C321.252 412.25 321.178 412.573 321.17 412.902C321.665 411.806 322.259 410.758 322.945 409.77C323.295 409.304 323.698 408.88 324.145 408.506C324.386 408.339 324.678 408.224 324.855 408.318C324.958 408.379 325.037 408.474 325.079 408.586C325.121 408.698 325.123 408.821 325.085 408.934C324.977 409.261 324.811 409.565 324.594 409.832C324.373 410.144 324.136 410.443 323.884 410.73C323.353 411.339 322.754 411.885 322.099 412.359C321.812 412.592 321.471 412.75 321.107 412.818C320.952 412.84 320.795 412.817 320.652 412.752C320.51 412.687 320.389 412.584 320.303 412.453C319.896 411.858 319.499 411.116 319.124 410.511C318.934 410.225 318.767 409.924 318.622 409.613C318.528 409.331 318.622 409.154 318.779 409.07C319.228 408.882 319.666 409.394 319.969 409.822C320.639 410.814 321.117 411.922 321.379 413.09Z"
    fill="#263238" />
  <path d="M295.883 413.966L283.23 441.393L262.808 431.955L275.9 398.013L295.883 413.966Z" fill="#FFBE9D" />
  <path d="M285.62 439.566L278.229 453.661C278.229 453.661 297.157 473.236 295.382 477.611L250.885 456.271L263.101 427.988L285.62 439.566Z" fill="#7ED2FF" />
  <path
    d="M265.397 445.141C264.906 445.065 264.404 445.173 263.988 445.445C263.572 445.717 263.27 446.133 263.142 446.613C263.051 447.099 263.149 447.602 263.417 448.018C263.685 448.433 264.102 448.73 264.583 448.848C265.103 448.934 265.636 448.82 266.075 448.53C266.515 448.239 266.828 447.793 266.953 447.281C267.012 446.754 266.859 446.225 266.528 445.81C266.197 445.395 265.716 445.128 265.189 445.068"
    fill="#E0E0E0" />
  <g opacity="0.6">
    <path opacity="0.6" d="M250.885 456.271L252.733 452.732L294.704 474.51C294.704 474.51 296.27 476.317 295.382 477.642L250.885 456.271Z" fill="white" />
  </g>
  <path
    d="M279.053 453.786C278.949 453.995 277.811 453.577 276.412 453.786C275.013 453.995 274 454.621 273.844 454.434C273.687 454.246 274.606 453.149 276.308 452.961C278.009 452.774 279.2 453.609 279.053 453.786Z"
    fill="#263238" />
  <path
    d="M282.802 457.952C282.749 458.182 281.632 458.098 280.452 458.672C279.273 459.247 278.594 460.103 278.364 459.988C278.135 459.873 278.604 458.578 280.077 457.9C281.549 457.221 282.937 457.743 282.802 457.952Z"
    fill="#263238" />
  <path
    d="M282.77 464.801C282.551 464.801 282.77 463.527 283.898 462.608C285.025 461.69 286.268 461.7 286.278 461.919C286.289 462.139 285.349 462.483 284.43 463.256C283.511 464.028 283 464.905 282.77 464.801Z"
    fill="#263238" />
  <path
    d="M281.183 448.347C280.995 448.503 280.139 447.731 278.876 447.219C277.613 446.707 276.464 446.645 276.433 446.405C276.402 446.165 277.707 445.83 279.189 446.405C280.672 446.979 281.371 448.2 281.183 448.347Z"
    fill="#263238" />
  <path
    d="M289.786 435.902L323.195 352.379C323.195 352.379 322.444 338.128 319.823 333.586C317.203 329.044 237.73 302.85 237.73 302.85C237.73 302.85 217.486 297.974 203.987 302.85C190.488 307.725 180.371 324.597 182.25 333.962C184.129 343.327 192.691 350.928 192.691 350.928L250.426 351.972L282.279 363.633L260.835 425.106L289.786 435.902Z"
    fill="#263238" />
  <path d="M319.458 378.856L320.209 409.049L297.721 409.603L294.484 373.364L319.458 378.856Z" fill="#FFBE9D" />
  <path d="M321.567 406.356L321.149 422.267C321.149 422.267 346.78 431.475 347.114 436.184L297.763 436.716L296.238 405.938L321.567 406.356Z" fill="#7ED2FF" />
  <path
    d="M305.906 420.283C305.434 420.435 305.034 420.755 304.782 421.182C304.53 421.609 304.443 422.114 304.538 422.601C304.671 423.077 304.98 423.485 305.403 423.741C305.826 423.997 306.331 424.082 306.814 423.979C307.322 423.828 307.754 423.489 308.021 423.032C308.289 422.574 308.373 422.032 308.255 421.515C308.065 421.03 307.695 420.638 307.222 420.42C306.749 420.202 306.21 420.175 305.718 420.346"
    fill="#E0E0E0" />
  <g opacity="0.6">
    <path opacity="0.6" d="M297.763 436.716L297.857 432.718L345.131 433.762C345.131 433.762 347.333 434.691 347.104 436.246L297.763 436.716Z" fill="white" />
  </g>
  <path
    d="M321.942 422.006C321.942 422.246 320.731 422.371 319.552 423.154C318.372 423.937 317.756 424.96 317.526 424.866C317.297 424.772 317.651 423.384 319.092 422.455C320.533 421.526 321.995 421.787 321.942 422.006Z"
    fill="#263238" />
  <path
    d="M327.131 424.093C327.194 424.334 326.15 424.751 325.346 425.774C324.542 426.797 324.302 427.862 324.072 427.862C323.843 427.862 323.665 426.495 324.699 425.242C325.732 423.989 327.131 423.864 327.131 424.093Z"
    fill="#263238" />
  <path
    d="M330.138 430.264C329.919 430.316 329.574 429.116 330.138 427.79C330.702 426.464 331.861 425.921 331.965 426.13C332.07 426.338 331.381 427.038 330.921 428.134C330.462 429.23 330.378 430.233 330.138 430.264Z"
    fill="#263238" />
  <path
    d="M321.441 416.201C321.347 416.42 320.241 416.096 318.873 416.201C317.505 416.305 316.461 416.754 316.336 416.545C316.211 416.336 317.213 415.501 318.821 415.365C320.429 415.23 321.567 416.002 321.441 416.201Z"
    fill="#263238" />
  <path
    d="M306.334 295.02C306.334 295.02 319.802 293.976 321.306 308.592C322.809 323.209 324.271 391.437 324.271 391.437L292.783 394.057L287.917 324.336L237.689 302.965C237.689 302.965 297.335 293.14 306.334 295.02Z"
    fill="#263238" />
  <path
    d="M250.791 275.287C250.791 275.287 258.966 298.256 257.411 300.772C255.855 303.288 234.828 313.843 234.828 313.843L182.208 334.045C182.208 334.045 176.8 325.453 176.8 312.246C176.8 299.039 195.102 275.287 195.102 275.287H250.791Z"
    fill="#263238" />
  <path
    d="M235.193 301.764L235.444 301.899L236.185 302.244L239.109 303.539L250.04 308.299L287.802 324.555L287.635 324.315C288.116 331.195 288.627 338.639 289.16 346.334C290.444 364.322 291.624 380.902 292.553 394.025V394.265H292.782L315.751 392.25L322.068 391.666L323.728 391.488L324.281 391.415C324.094 391.392 323.905 391.392 323.717 391.415L322.057 391.52L315.73 391.979L292.762 393.796L293.012 394.004C292.114 380.881 290.924 364.291 289.734 346.302C289.191 338.608 288.69 331.164 288.189 324.284V324.106L288.032 324.043L250.196 307.976L239.192 303.361L236.237 302.15L235.475 301.858C235.387 301.812 235.292 301.781 235.193 301.764Z"
    fill="#455A64" />
  <path
    d="M193.348 304.06C193.852 303.978 194.346 303.842 194.82 303.653L198.788 302.379C203.112 300.912 207.545 299.791 212.047 299.028C216.546 298.289 221.141 298.349 225.62 299.206C227.46 299.634 229.275 300.16 231.059 300.782C230.632 300.496 230.173 300.261 229.691 300.083C228.405 299.54 227.074 299.111 225.714 298.798C221.191 297.808 216.521 297.687 211.953 298.443C207.418 299.227 202.965 300.429 198.652 302.035C196.992 302.63 195.666 303.131 194.747 303.497C194.262 303.633 193.793 303.822 193.348 304.06Z"
    fill="#455A64" />
  <path
    d="M200.782 291.971C202.315 291.883 203.853 291.883 205.386 291.971C206.806 292.064 208.518 292.284 210.366 292.503C212.214 292.722 214.302 292.973 216.432 293.38C220.084 293.968 223.585 295.266 226.737 297.201C227.994 298.08 229.19 299.043 230.318 300.083C230.112 299.718 229.855 299.384 229.556 299.091C228.774 298.248 227.91 297.486 226.977 296.815C223.826 294.734 220.266 293.353 216.536 292.764C214.386 292.357 212.308 292.117 210.429 291.918C208.55 291.72 206.848 291.563 205.407 291.511C204.27 291.458 203.131 291.51 202.003 291.668C201.583 291.706 201.171 291.808 200.782 291.971Z"
    fill="#455A64" />
  <path
    d="M224.022 107.73C217.977 106.686 212.653 109.035 207.547 112.438C202.353 116.085 198.393 121.227 196.194 127.181C193.995 133.134 193.661 139.616 195.238 145.764C196.114 148.885 197.612 151.797 199.644 154.323C201.675 156.849 204.196 158.938 207.057 160.464C214.939 164.473 225.014 163.074 232.051 157.75C239.088 152.425 243.128 143.613 243.473 134.781C243.79 128.655 242.172 122.584 238.847 117.429C237.172 114.879 234.989 112.702 232.435 111.033C229.88 109.364 227.009 108.24 224.001 107.73"
    fill="#263238" />
  <path
    d="M206.806 128.318C207.693 126 207.349 123.411 207.704 120.957C208.476 115.549 212.83 111.217 217.862 109.108C222.55 107.145 228.303 107.573 233.92 109.4C237.842 110.588 241.344 112.87 244.015 115.977C245.714 118.087 246.885 120.571 247.43 123.225C247.975 125.878 247.878 128.623 247.148 131.231L219.481 127.201C216.891 129.341 214.26 131.523 211.128 132.713C210.221 133.117 209.224 133.275 208.236 133.173C207.745 133.114 207.282 132.916 206.9 132.601C206.519 132.286 206.236 131.869 206.086 131.398C205.804 130.354 206.42 129.32 206.806 128.318Z"
    fill="#263238" />
  <path
    d="M234.515 117.042L210.366 122.158C209.246 122.238 208.196 122.735 207.423 123.55C206.65 124.365 206.211 125.44 206.19 126.563L206.472 178.828C206.496 182.397 207.692 185.86 209.875 188.684L212.183 191.649C217.403 198.425 228.073 197.736 232.082 190.166C232.324 189.736 232.51 189.276 232.635 188.799C232.735 188.41 232.812 188.016 232.865 187.619L233.325 182.524C233.565 177.867 233.596 173.128 233.596 173.19C233.596 173.253 243.473 171.937 246.01 159.211C247.262 152.873 247.356 142.412 247.148 133.861C246.928 126.156 242.22 116.52 234.515 117.042Z"
    fill="#FFBE9D" />
  <path
    d="M243.045 144.532C243.034 144.959 242.856 145.365 242.55 145.664C242.244 145.962 241.833 146.129 241.405 146.129C241.195 146.139 240.986 146.106 240.788 146.033C240.591 145.96 240.411 145.848 240.258 145.704C240.105 145.56 239.983 145.386 239.898 145.194C239.814 145.001 239.769 144.794 239.766 144.584C239.777 144.154 239.956 143.747 240.265 143.448C240.573 143.149 240.986 142.983 241.416 142.986C241.625 142.978 241.834 143.012 242.03 143.085C242.225 143.159 242.405 143.271 242.556 143.415C242.708 143.559 242.83 143.732 242.914 143.924C242.997 144.116 243.042 144.322 243.045 144.532Z"
    fill="#263238" />
  <path
    d="M244.642 139.166C244.423 139.364 243.212 138.403 241.447 138.33C239.683 138.257 238.315 139.103 238.169 138.884C238.023 138.664 238.294 138.403 238.879 138.017C239.664 137.512 240.587 137.263 241.52 137.307C242.439 137.343 243.324 137.668 244.047 138.236C244.569 138.717 244.736 139.166 244.642 139.166Z"
    fill="#263238" />
  <path
    d="M226.716 143.686C226.705 144.115 226.526 144.523 226.217 144.822C225.909 145.12 225.496 145.286 225.066 145.283C224.857 145.292 224.647 145.258 224.451 145.184C224.254 145.111 224.075 144.999 223.922 144.855C223.769 144.711 223.647 144.538 223.562 144.346C223.477 144.155 223.431 143.948 223.427 143.738C223.441 143.31 223.62 142.903 223.928 142.605C224.236 142.307 224.648 142.14 225.077 142.141C225.287 142.131 225.496 142.163 225.694 142.236C225.891 142.309 226.071 142.421 226.224 142.565C226.377 142.71 226.499 142.883 226.584 143.076C226.668 143.268 226.713 143.476 226.716 143.686Z"
    fill="#263238" />
  <path
    d="M227.843 138.768C227.635 138.977 226.423 138.006 224.711 137.944C222.999 137.881 221.579 138.716 221.433 138.487C221.287 138.257 221.558 138.017 222.143 137.62C222.931 137.123 223.853 136.879 224.784 136.921C225.703 136.956 226.588 137.282 227.311 137.85C227.781 138.288 227.948 138.685 227.843 138.768Z"
    fill="#263238" />
  <path
    d="M233.157 152.216C234.102 151.968 235.073 151.831 236.049 151.808C236.498 151.808 236.926 151.714 237.02 151.401C237.073 150.937 236.986 150.468 236.77 150.054C236.384 148.948 235.987 147.789 235.569 146.567C233.899 141.598 232.719 137.526 232.917 137.453C233.116 137.38 234.63 141.368 236.29 146.327C236.686 147.559 237.073 148.718 237.438 149.835C237.696 150.394 237.755 151.024 237.605 151.62C237.533 151.777 237.426 151.916 237.292 152.024C237.158 152.133 237.001 152.209 236.832 152.247C236.58 152.308 236.32 152.336 236.06 152.33C235.092 152.417 234.116 152.378 233.157 152.216Z"
    fill="#263238" />
  <path d="M233.565 173.19C227.529 173.053 221.649 171.246 216.578 167.97C216.578 167.97 220.556 177.001 233.419 176.323L233.565 173.19Z" fill="#EB996E" />
  <path
    d="M232.239 156.455C231.923 156.014 231.498 155.664 231.005 155.437C230.513 155.21 229.97 155.114 229.43 155.16C229.028 155.176 228.634 155.278 228.274 155.458C227.914 155.638 227.596 155.892 227.342 156.204C227.096 156.488 226.943 156.839 226.902 157.212C226.861 157.585 226.934 157.962 227.112 158.292C227.386 158.619 227.75 158.858 228.158 158.979C228.567 159.1 229.002 159.097 229.409 158.971C230.256 158.703 231.043 158.274 231.727 157.708C231.928 157.571 232.104 157.401 232.249 157.206C232.315 157.109 232.35 156.995 232.35 156.878C232.35 156.76 232.315 156.646 232.249 156.549"
    fill="#EB996E" />
  <path
    d="M227.906 153.239C228.188 153.239 228.115 155.149 229.712 156.58C231.31 158.01 233.345 157.874 233.356 158.146C233.356 158.261 232.886 158.501 232.019 158.49C230.894 158.46 229.815 158.035 228.971 157.29C228.164 156.572 227.666 155.569 227.582 154.492C227.541 153.688 227.77 153.228 227.906 153.239Z"
    fill="#263238" />
  <path
    d="M227.749 133.527C227.551 133.997 225.797 133.705 223.719 133.872C221.642 134.039 219.93 134.54 219.669 134.102C219.554 133.893 219.867 133.444 220.566 133.005C221.491 132.47 222.525 132.152 223.59 132.076C224.656 132 225.725 132.168 226.716 132.567C227.467 132.901 227.833 133.298 227.749 133.527Z"
    fill="#263238" />
  <path
    d="M244.423 131.45C244.099 131.836 242.898 131.377 241.437 131.304C239.975 131.23 238.712 131.46 238.451 131.032C238.326 130.823 238.545 130.427 239.098 130.072C239.843 129.644 240.698 129.447 241.555 129.507C242.412 129.566 243.232 129.879 243.911 130.406C244.412 130.813 244.569 131.262 244.423 131.45Z"
    fill="#263238" />
  <path
    d="M202.379 124.549C204.885 117.188 215.816 107.176 223.552 107.844L235.778 115.518C235.34 117.629 234.339 119.584 232.882 121.173C231.425 122.763 229.565 123.929 227.499 124.549C225.296 125.175 222.655 125.3 221.318 127.159C219.982 129.017 220.671 131.867 219.397 133.82C217.633 136.534 212.945 136.305 211.598 139.249C211.013 140.543 211.274 142.099 210.669 143.373C209.855 145.074 205.449 147.163 203.684 146.557C201.92 145.951 201.951 142.892 201.398 141.274C200.697 139.451 200.645 137.441 201.252 135.584C202.108 131.982 201.189 128.098 202.379 124.549Z"
    fill="#263238" />
  <path
    d="M208.957 148.175C208.957 147.215 207.975 144.928 207.036 144.741C204.53 144.25 199.988 144.281 199.727 150.671C199.331 159.399 208.174 157.979 208.205 157.749C208.236 157.52 208.811 151.464 208.957 148.175Z"
    fill="#FFBE9D" />
  <path
    d="M205.678 154.314C205.678 154.314 205.511 154.419 205.25 154.523C205.07 154.598 204.877 154.637 204.681 154.637C204.486 154.637 204.293 154.598 204.112 154.523C203.204 154.147 202.494 152.644 202.525 151.067C202.542 150.318 202.72 149.581 203.047 148.906C203.141 148.637 203.3 148.395 203.509 148.202C203.719 148.009 203.972 147.871 204.248 147.799C204.424 147.758 204.608 147.781 204.769 147.863C204.929 147.945 205.056 148.082 205.125 148.248C205.24 148.499 205.125 148.676 205.219 148.687C205.313 148.697 205.407 148.551 205.355 148.186C205.312 147.969 205.203 147.772 205.042 147.622C204.804 147.436 204.507 147.343 204.206 147.361C203.845 147.418 203.504 147.566 203.216 147.79C202.927 148.015 202.701 148.309 202.557 148.645C202.153 149.386 201.934 150.213 201.92 151.057C201.92 152.821 202.724 154.502 204.008 154.93C204.239 155.007 204.484 155.032 204.726 155.003C204.968 154.975 205.201 154.893 205.407 154.763C205.678 154.523 205.678 154.335 205.678 154.314Z"
    fill="#EB996E" />
  <path
    d="M200.51 122.325C200.51 119.59 197.128 117.804 194.465 117.188C191.747 116.713 188.949 117.244 186.593 118.681C185.194 119.454 183.785 120.55 183.461 122.116C183.138 123.682 184.651 125.551 186.144 124.987C185.393 125.213 184.703 125.605 184.124 126.134C183.545 126.663 183.092 127.315 182.8 128.043C182.508 128.771 182.384 129.555 182.436 130.338C182.489 131.12 182.717 131.881 183.104 132.563C183.491 133.245 184.027 133.831 184.671 134.278C185.316 134.725 186.053 135.02 186.827 135.143C187.602 135.266 188.394 135.213 189.145 134.987C189.897 134.762 190.587 134.37 191.166 133.841C190.401 136.364 188.799 138.551 186.625 140.042C188.887 140.367 191.195 140.089 193.315 139.236C195.436 138.383 197.293 136.986 198.701 135.185C200.109 133.385 201.016 131.245 201.332 128.981C201.648 126.718 201.361 124.411 200.5 122.294L200.51 122.325Z"
    fill="#263238" />
  <path
    d="M194.445 136.211C194.196 135.36 194.087 134.475 194.121 133.59C194.092 129.275 195.507 125.075 198.14 121.657C198.65 120.931 199.274 120.293 199.988 119.767C198.168 122.101 196.714 124.699 195.677 127.472C194.069 132.139 194.643 136.221 194.445 136.211Z"
    fill="#7ED2FF" />
  <path
    d="M233.241 112.939C234.045 116.489 239.443 121.051 241.823 123.818C246.344 129.101 247.231 130.855 247.189 142.611C249.33 138.528 250.969 134.53 250.802 129.936C250.703 125.283 248.906 120.827 245.749 117.408C244.16 115.726 242.199 114.44 240.023 113.653C237.847 112.866 235.517 112.6 233.22 112.876"
    fill="#263238" />
  <path
    d="M270.273 210.098C270.273 210.098 260.877 194.437 258.256 191.232C256.156 188.778 253.515 186.844 250.541 185.584C249.367 185.085 248.136 184.735 246.876 184.54L233.304 181.543C233.304 181.543 233.304 190.783 223.594 191.347C213.885 191.91 205.762 178.442 205.762 178.442C205.762 178.442 190.101 180.854 186.385 182.786C182.668 184.717 176.759 187.15 173.522 203.353L171.256 219.202L198.266 221.645L200.845 261.715L214.219 271.028C214.219 271.028 251.292 280.664 253.662 281.301C256.032 281.938 256.836 221.645 256.836 221.645C256.836 221.645 266.337 215.495 270.273 210.098Z"
    fill="#7ED2FF" />
  <path
    d="M252.524 203.363C252.745 203.727 252.92 204.116 253.046 204.522C253.36 205.274 253.746 206.38 254.184 207.779C256.447 215.06 257.381 222.688 256.941 230.299C256.857 231.75 256.742 232.93 256.628 233.734C256.599 234.159 256.522 234.579 256.398 234.987C256.352 234.564 256.352 234.137 256.398 233.713C256.45 232.909 256.502 231.73 256.544 230.278C256.768 222.718 255.842 215.167 253.798 207.884C253.412 206.485 253.078 205.357 252.827 204.585C252.685 204.189 252.583 203.78 252.524 203.363Z"
    fill="#263238" />
  <path
    d="M251.376 269.002L200.604 257.945L198.266 221.644L175.683 219.556C175.683 219.556 176.518 244.362 177.385 251.744C178.638 262.351 184.902 276.801 188.577 279.714C192.252 282.626 253.704 281.311 253.704 281.311L251.376 269.002Z"
    fill="#FFBE9D" />
  <path
    d="M280.202 275.579C280.021 275.919 279.744 276.198 279.407 276.383C279.07 276.569 278.686 276.652 278.302 276.623C278.135 276.61 277.971 276.578 277.811 276.529C276.694 276.164 276.767 273.877 276.767 273.877L271.39 273C271.39 273 264.385 277.51 261.9 280.496C259.415 283.482 253.057 281.071 253.057 281.071L250.854 269.586L260.762 260.639C260.762 260.639 260.156 261.171 260.835 259.49C261.514 257.809 264.635 258.446 264.635 258.446C265.115 257.621 267.151 257.329 267.151 257.329L275.838 258.373C276.722 258.474 277.572 258.772 278.326 259.245C279.079 259.719 279.717 260.356 280.191 261.109L283.866 266.924C283.866 266.924 285.798 271.1 285.485 272.081C285.348 272.486 285.067 272.826 284.695 273.036C284.323 273.246 283.887 273.311 283.47 273.219C283.47 273.219 283.042 275.976 282.311 276.07C281.572 276.034 280.846 275.86 280.171 275.558L280.202 275.579Z"
    fill="#FFBE9D" />
  <path
    d="M261.712 267.342C261.712 267.425 262.871 267.342 264.729 267.404C267.142 267.517 269.528 267.963 271.818 268.73C273.076 269.153 274.298 269.677 275.472 270.296C276.516 270.881 277.56 271.34 277.957 272.134C278.035 272.3 278.067 272.485 278.051 272.668C278.034 272.852 277.97 273.027 277.863 273.178C277.702 273.421 277.473 273.614 277.205 273.731C276.959 273.811 276.702 273.85 276.443 273.846C276.443 273.846 276.715 274.086 277.279 273.94C277.613 273.84 277.906 273.635 278.114 273.355C278.264 273.167 278.362 272.942 278.397 272.703C278.432 272.465 278.403 272.221 278.312 271.998C278.093 271.496 277.73 271.071 277.268 270.776C276.776 270.444 276.267 270.138 275.744 269.858C274.56 269.195 273.315 268.646 272.027 268.218C269.69 267.424 267.239 267.019 264.771 267.018C263.741 266.964 262.708 267.073 261.712 267.342Z"
    fill="#EB996E" />
  <path
    d="M261.096 272.875C261.096 273.042 264.646 272.875 268.989 273.146C273.332 273.418 276.83 273.929 276.861 273.773C276.134 273.486 275.372 273.3 274.595 273.219C272.75 272.904 270.889 272.695 269.02 272.593C267.153 272.488 265.281 272.488 263.414 272.593C262.632 272.586 261.853 272.681 261.096 272.875Z"
    fill="#EB996E" />
  <path
    d="M280.15 275.349C280.214 275.047 280.249 274.74 280.254 274.431C280.308 273.582 280.308 272.732 280.254 271.883C280.218 271.29 280.138 270.7 280.014 270.119C279.845 269.442 279.555 268.802 279.158 268.229C278.303 266.914 277.196 265.782 275.9 264.899C274.616 264.005 273.21 263.301 271.724 262.811C270.503 262.465 269.244 262.272 267.976 262.236C266.932 262.236 266.034 262.236 265.439 262.236C265.126 262.215 264.812 262.246 264.51 262.33C265.648 262.494 266.795 262.588 267.945 262.612C269.174 262.7 270.389 262.924 271.568 263.28C272.988 263.794 274.333 264.497 275.566 265.368C276.8 266.204 277.863 267.267 278.698 268.501C279.384 269.504 279.775 270.679 279.826 271.894C280.077 274.024 280.024 275.36 280.15 275.349Z"
    fill="#EB996E" />
  <path
    d="M267.6 259.595C267.6 259.679 268.895 259.71 270.973 259.95C273.05 260.191 276.193 260.41 277.989 263.156C279.758 265.215 281.233 267.509 282.373 269.973C282.752 271.03 283.029 272.121 283.198 273.231C283.277 272.927 283.295 272.612 283.25 272.301C283.2 271.461 283.032 270.631 282.749 269.837C281.691 267.28 280.232 264.908 278.427 262.811C277.936 262.176 277.368 261.604 276.736 261.109C276.106 260.662 275.397 260.336 274.648 260.149C273.445 259.831 272.214 259.635 270.973 259.564C269.852 259.427 268.718 259.437 267.6 259.595Z"
    fill="#EB996E" />
  <path
    d="M263.831 278.701C264.014 278.585 264.185 278.452 264.343 278.304L265.805 277.145C267.629 275.722 269.536 274.408 271.515 273.209H271.39L276.767 274.128L276.579 273.898C276.564 274.339 276.595 274.78 276.673 275.214C276.744 275.697 276.959 276.148 277.289 276.508C277.488 276.685 277.735 276.797 277.999 276.832C278.25 276.885 278.51 276.885 278.761 276.832C279.28 276.756 279.754 276.497 280.097 276.101C280.183 276 280.26 275.892 280.327 275.778L280.379 275.694L280.056 275.809L280.223 275.882L280.922 276.122C281.161 276.201 281.406 276.263 281.653 276.31C281.789 276.321 281.925 276.321 282.06 276.31C282.229 276.323 282.399 276.291 282.551 276.216C282.791 276.033 282.975 275.788 283.083 275.506C283.189 275.266 283.276 275.018 283.344 274.765C283.495 274.265 283.613 273.756 283.699 273.241L283.376 273.46C283.741 273.534 284.119 273.51 284.472 273.389C284.824 273.267 285.138 273.054 285.38 272.771C285.622 272.476 285.754 272.108 285.756 271.727C285.728 271.373 285.665 271.024 285.568 270.683C285.162 269.36 284.666 268.066 284.086 266.809L282.123 263.677C281.705 263.019 281.298 262.362 280.88 261.714C280.5 261.033 280.044 260.396 279.523 259.814C278.968 259.253 278.304 258.813 277.571 258.52C276.86 258.256 276.114 258.098 275.358 258.05L267.162 257.131H267.099C266.611 257.215 266.133 257.345 265.669 257.517C265.171 257.667 264.732 257.971 264.416 258.384L264.719 258.29C264.276 258.09 263.791 257.999 263.306 258.026C262.82 258.054 262.349 258.198 261.931 258.447C261.204 258.975 260.71 259.765 260.553 260.649L260.616 260.535L253.788 266.674L251.95 268.365C251.726 268.554 251.52 268.764 251.334 268.991C251.58 268.83 251.813 268.653 252.034 268.459L253.944 266.841L260.887 260.837V260.754C261.044 259.991 261.479 259.313 262.109 258.854C262.463 258.649 262.862 258.532 263.27 258.514C263.679 258.496 264.087 258.577 264.458 258.749L264.646 258.822L264.761 258.655C265.031 258.332 265.396 258.102 265.805 257.998C266.238 257.839 266.685 257.724 267.141 257.653H267.078L275.264 258.624C275.978 258.657 276.682 258.802 277.352 259.052C278.011 259.322 278.608 259.723 279.106 260.232C279.601 260.786 280.035 261.391 280.4 262.038L281.632 264.011C282.311 265.055 282.969 266.099 283.595 267.143C284.171 268.366 284.656 269.629 285.046 270.923C285.144 271.22 285.204 271.529 285.224 271.842C285.231 272.107 285.142 272.367 284.973 272.572C284.796 272.78 284.565 272.936 284.305 273.022C284.046 273.109 283.768 273.123 283.501 273.063H283.23V273.324C283.149 273.817 283.041 274.305 282.906 274.786C282.815 275.212 282.622 275.61 282.342 275.945C282.27 275.962 282.195 275.962 282.123 275.945H281.789C281.562 275.909 281.338 275.853 281.121 275.778C280.901 275.715 280.672 275.642 280.463 275.558L280.296 275.485L279.972 275.6V275.652V275.725C279.916 275.814 279.853 275.898 279.784 275.976C279.518 276.291 279.148 276.499 278.74 276.561C278.544 276.602 278.341 276.602 278.145 276.561C277.964 276.541 277.794 276.468 277.654 276.352C277.198 275.697 276.99 274.901 277.07 274.107V273.909H276.882L271.495 273.074H271.432H271.38C269.407 274.309 267.52 275.676 265.731 277.166C265.105 277.688 264.635 278.116 264.332 278.409C264.159 278.495 263.992 278.592 263.831 278.701Z"
    fill="#EB996E" />
  <path
    d="M335.807 242.212L268.926 242.755C266.765 242.755 264.687 243.799 264.364 245.939L257.056 294.685H222.602C222.326 294.665 222.049 294.703 221.788 294.795C221.527 294.886 221.287 295.031 221.085 295.22C220.882 295.408 220.72 295.637 220.61 295.891C220.499 296.144 220.442 296.418 220.442 296.695C220.442 296.972 220.499 297.246 220.61 297.5C220.72 297.753 220.882 297.982 221.085 298.17C221.287 298.359 221.527 298.504 221.788 298.596C222.049 298.688 222.326 298.725 222.602 298.705H332.623L340.14 247.255C340.235 246.631 340.194 245.993 340.019 245.387C339.845 244.78 339.542 244.218 339.131 243.739C338.719 243.26 338.209 242.876 337.636 242.613C337.062 242.349 336.439 242.212 335.807 242.212Z"
    fill="#E0E0E0" />
  <path
    d="M335.807 242.212C336.159 242.196 336.51 242.232 336.851 242.316C337.878 242.553 338.783 243.154 339.399 244.008C339.852 244.621 340.139 245.34 340.234 246.096C340.249 247.021 340.165 247.945 339.984 248.852C339.702 250.815 339.378 253.091 339.023 255.638C337.551 265.859 335.421 280.58 332.821 298.684V298.861H332.644L225.912 298.924H223.041C222.52 298.976 221.994 298.879 221.527 298.642C221.043 298.379 220.672 297.948 220.483 297.431C220.298 296.92 220.302 296.359 220.493 295.85C220.685 295.341 221.051 294.917 221.527 294.654C221.996 294.422 222.52 294.325 223.041 294.372H257.076L256.815 294.591L264.124 246.242C264.198 245.268 264.642 244.36 265.366 243.705C266.091 243.087 266.98 242.692 267.924 242.567C268.819 242.484 269.719 242.453 270.618 242.473H273.238L283.313 242.4L301.208 242.285L326.672 242.16H335.254H335.849H335.254H333.49L326.672 242.264L301.208 242.546L283.313 242.723L273.249 242.817H270.618C269.739 242.799 268.861 242.834 267.987 242.922C267.125 243.035 266.316 243.398 265.658 243.966C265.025 244.562 264.65 245.383 264.614 246.252C262.432 260.869 260 277.145 257.4 294.612V294.831H223.02C222.591 294.777 222.155 294.85 221.767 295.04C221.413 295.242 221.141 295.561 220.998 295.943C220.855 296.324 220.85 296.744 220.984 297.128C221.123 297.523 221.401 297.854 221.767 298.057C222.156 298.246 222.59 298.322 223.02 298.277H225.891L332.623 298.339L332.425 298.517L338.804 255.492C339.18 252.945 339.524 250.679 339.848 248.706C340.044 247.818 340.135 246.911 340.119 246.002C340.055 245.249 339.788 244.527 339.347 243.914C338.748 243.071 337.872 242.465 336.872 242.201C336.183 242.212 335.807 242.243 335.807 242.212Z"
    fill="#263238" />
  <path
    d="M295.34 269.837C295.34 270.663 295.585 271.47 296.044 272.157C296.503 272.844 297.155 273.379 297.918 273.695C298.682 274.011 299.521 274.094 300.331 273.933C301.141 273.772 301.886 273.374 302.47 272.79C303.054 272.206 303.451 271.462 303.612 270.652C303.774 269.842 303.691 269.002 303.375 268.239C303.059 267.476 302.523 266.824 301.837 266.365C301.15 265.906 300.343 265.661 299.517 265.661C298.409 265.661 297.347 266.101 296.564 266.884C295.78 267.667 295.34 268.729 295.34 269.837Z"
    fill="white" />
  <path
    d="M259.77 298.246C259.864 298.246 261.994 285.853 264.52 270.537C267.047 255.221 269.031 242.776 268.926 242.755C268.822 242.734 266.713 255.148 264.176 270.474C261.639 285.801 259.676 298.235 259.77 298.246Z"
    fill="#263238" />
</svg>