<svg width="421" height="424" viewBox="0 0 421 424" fill="none" xmlns="http://www.w3.org/2000/svg">
  <path
    d="M232.21 421.374C214.97 413.214 208.1 393.814 205.67 375.744C205.26 372.744 204.4 369.624 205.38 366.744C206.36 363.864 209.38 361.514 212.28 362.324C214.69 362.994 216.1 365.414 217.71 367.324C219.851 369.901 222.681 371.815 225.87 372.844C227.95 373.514 230.42 373.724 232.13 372.364C234.47 370.494 234.13 366.874 233.65 363.894C232.67 358.368 231.71 352.841 230.77 347.314C230.092 344.365 229.893 341.326 230.18 338.314C230.62 335.314 232.23 332.314 234.93 331.074C237.63 329.834 241.42 330.844 242.51 333.664C242.831 334.877 243.072 336.11 243.23 337.354C243.52 338.584 244.33 339.854 245.56 340.004C246.79 340.154 247.86 339.104 248.61 338.074C251.17 334.544 252.61 330.314 253.91 326.124C255.21 321.934 256.43 317.664 258.67 313.904C260.91 310.144 264.33 306.904 268.56 305.904C272.79 304.904 277.79 306.804 279.56 310.814C281.33 314.824 279.62 319.514 277.56 323.374C274.432 329.09 270.494 334.324 265.87 338.914C264.948 339.649 264.283 340.657 263.97 341.794C263.66 343.894 265.88 345.554 267.97 345.874C270.31 346.234 272.69 345.594 275.06 345.474C277.43 345.354 280.12 345.954 281.38 348.004C283.11 350.844 281.1 354.474 278.95 357.004C274.632 362.045 269.48 366.307 263.72 369.604C261.66 370.774 259.47 371.874 257.96 373.714C256.45 375.554 255.84 378.414 257.26 380.334C258.68 382.254 261.55 382.464 263.77 381.644C265.99 380.824 267.84 379.234 269.89 378.044C273.73 375.804 279.07 375.184 282.3 378.284C283.307 379.368 284.049 380.671 284.468 382.091C284.886 383.51 284.969 385.007 284.71 386.464C284.178 389.367 283.066 392.132 281.44 394.594C276.261 403.496 268.815 410.867 259.86 415.954C250.91 420.854 242.25 423.244 232.22 421.384"
    fill="#F5F5F5" />
  <path
    d="M234.94 409.314C236.266 399.023 238.183 388.816 240.68 378.744L242.6 370.814C243.23 368.204 243.86 365.624 244.6 363.144C246.095 358.384 247.851 353.711 249.86 349.144C251.75 344.764 253.7 340.664 255.55 336.854C257.4 333.044 259.21 329.524 260.99 326.394C263.769 321.43 266.939 316.695 270.47 312.234C271.72 310.654 272.73 309.464 273.42 308.664C273.75 308.284 274.02 307.984 274.21 307.754C274.4 307.524 274.49 307.454 274.5 307.464C274.428 307.579 274.347 307.69 274.26 307.794L273.5 308.734C272.84 309.554 271.86 310.734 270.64 312.364C267.186 316.868 264.074 321.625 261.33 326.594C259.58 329.734 257.8 333.254 255.96 337.064C254.12 340.874 252.2 344.974 250.33 349.354C248.339 353.921 246.603 358.595 245.13 363.354C244.36 365.824 243.74 368.354 243.13 370.994L241.21 378.934C238.718 388.985 236.792 399.168 235.44 409.434"
    fill="#E0E0E0" />
  <path
    d="M244.77 363.104C244.553 362.715 244.382 362.302 244.26 361.874C243.96 361.084 243.57 359.874 243.11 358.464C242.19 355.564 241.05 351.514 239.81 347.054C238.57 342.594 237.38 338.564 236.41 335.694C235.93 334.254 235.53 333.084 235.25 332.294C235.082 331.883 234.951 331.458 234.86 331.024C235.101 331.397 235.299 331.796 235.45 332.214C235.8 332.984 236.25 334.134 236.78 335.554C237.85 338.414 239.1 342.424 240.35 346.904C241.6 351.384 242.65 355.304 243.49 358.344C243.88 359.724 244.2 360.884 244.49 361.814C244.621 362.235 244.715 362.667 244.77 363.104Z"
    fill="#E0E0E0" />
  <path
    d="M281.92 349.444C281.437 349.646 280.934 349.796 280.42 349.894C279.42 350.144 278.05 350.504 276.33 351.004C272.88 352.004 268.17 353.484 263.04 355.384C257.91 357.284 253.34 359.214 250.04 360.694C248.4 361.424 247.09 362.054 246.18 362.484C245.723 362.733 245.244 362.941 244.75 363.104C245.164 362.785 245.609 362.51 246.08 362.284C246.96 361.794 248.25 361.114 249.87 360.284C253.1 358.704 257.66 356.714 262.8 354.804C267.187 353.163 271.656 351.751 276.19 350.574C277.93 350.114 279.35 349.814 280.34 349.624C280.86 349.515 281.389 349.455 281.92 349.444Z"
    fill="#E0E0E0" />
  <path
    d="M235.29 408.544C235.162 408.413 235.048 408.269 234.95 408.114L234.06 406.844C233.29 405.724 232.22 404.094 230.93 402.054C228.33 397.974 224.93 392.224 221.26 385.824C217.59 379.424 214.26 373.654 211.73 369.534L208.73 364.644L207.93 363.314C207.824 363.167 207.74 363.005 207.68 362.834C207.68 362.834 207.81 362.964 208.02 363.254C208.23 363.544 208.56 364.014 208.91 364.534C209.68 365.644 210.75 367.274 212.05 369.324C214.64 373.404 218.05 379.144 221.72 385.544C225.39 391.944 228.72 397.714 231.24 401.844L234.24 406.724C234.56 407.254 234.83 407.724 235.04 408.054C235.147 408.204 235.232 408.369 235.29 408.544Z"
    fill="#E0E0E0" />
  <path
    d="M283.47 383.494C283.329 383.617 283.171 383.718 283 383.794L281.61 384.534L276.45 387.224C272.09 389.504 266.11 392.714 259.51 396.224C252.91 399.734 246.9 402.944 242.51 405.124C240.31 406.214 238.51 407.124 237.27 407.654L235.77 408.314C235.605 408.401 235.431 408.469 235.25 408.514C235.393 408.394 235.551 408.293 235.72 408.214L237.12 407.474L242.28 404.774C246.63 402.504 252.61 399.294 259.21 395.774C265.81 392.254 271.83 389.064 276.21 386.884C278.41 385.794 280.21 384.884 281.45 384.354L282.89 383.694C283.072 383.598 283.268 383.531 283.47 383.494Z"
    fill="#E0E0E0" />
  <path
    d="M107.17 206.724C107.17 206.724 95.29 208.374 101.96 234.394C108.63 260.414 114.29 273.834 114.29 273.834C114.29 273.834 115.18 279.724 110.43 279.544C105.68 279.364 95.9899 275.544 92.6999 280.634C89.2999 285.954 92.2799 292.354 99.6999 299.064C107.12 305.774 122.94 321.064 124.36 322.454C125.78 323.844 126.82 326.704 123.56 327.094C120.3 327.484 97.1799 324.774 96.5599 335.824C95.9399 346.874 119.77 362.154 122.34 363.874C124.91 365.594 125.34 366.934 124.74 368.434C124.14 369.934 116.48 368.284 109.87 367.774C103.26 367.264 95.4999 367.854 95.6699 374.254C95.8399 380.654 108.36 396.854 144.86 408.894L162.15 413.364L174.92 400.784C200.62 372.194 203.43 351.924 200.4 346.284C197.37 340.644 190.4 343.994 184.86 347.714C179.32 351.434 173.52 356.714 172.28 355.714C171.04 354.714 170.72 353.334 172.1 350.564C173.48 347.794 186.57 322.694 180.53 313.414C174.49 304.134 155.77 317.954 152.77 319.224C149.77 320.494 149.23 317.474 149.77 315.594C150.31 313.714 156.41 292.594 159.55 283.044C162.69 273.494 162.09 266.474 156.49 263.554C151.09 260.744 144.6 268.904 140.56 271.424C136.52 273.944 134.38 268.424 134.38 268.424C134.38 268.424 132.62 253.974 125.48 228.074C118.34 202.174 106.95 206.814 106.95 206.814"
    fill="#EBEBEB" />
  <path
    d="M162.14 417.664C156.97 398.664 148.34 364.664 140.79 335.474C133.24 306.284 126.38 279.964 121.3 260.904C118.76 251.384 116.7 243.684 115.3 238.334C114.6 235.684 114.05 233.614 113.67 232.194L113.25 230.594C113.16 230.234 113.13 230.044 113.13 230.044C113.13 230.044 113.2 230.214 113.31 230.574C113.42 230.934 113.57 231.484 113.77 232.164C114.18 233.584 114.77 235.634 115.51 238.274C117.01 243.584 119.13 251.274 121.71 260.794C126.88 279.794 133.81 306.204 141.36 335.334C148.91 364.464 157.47 398.494 162.55 417.554"
    fill="#E0E0E0" />
  <path
    d="M106.04 286.574C106.439 286.739 106.821 286.943 107.18 287.184C107.89 287.604 108.91 288.244 110.18 289.044C112.67 290.654 116.06 292.964 119.75 295.574L129.17 302.294L132.04 304.294C132.402 304.519 132.737 304.784 133.04 305.084C132.637 304.921 132.251 304.717 131.89 304.474C131.18 304.054 130.16 303.414 128.89 302.604C126.42 300.974 123.06 298.604 119.37 296.004L109.9 289.354L107.02 287.354C106.666 287.13 106.338 286.868 106.04 286.574Z"
    fill="#E0E0E0" />
  <path
    d="M134.49 304.254C134.36 304.174 138.81 296.984 144.42 288.194C150.03 279.404 154.7 272.344 154.83 272.424C154.96 272.504 150.51 279.704 144.89 288.494C139.27 297.284 134.62 304.314 134.49 304.254Z"
    fill="#E0E0E0" />
  <path
    d="M144.07 349.534C144.347 349.189 144.666 348.88 145.02 348.614L147.71 346.254C149.98 344.254 153.11 341.494 156.45 338.314C159.79 335.134 162.73 332.164 164.83 329.994C165.83 328.994 166.65 328.104 167.32 327.424C167.623 327.089 167.958 326.784 168.32 326.514C168.099 326.896 167.83 327.249 167.52 327.564C166.98 328.214 166.17 329.134 165.15 330.254C163.15 332.504 160.23 335.534 156.87 338.714C153.51 341.894 150.35 344.634 148.01 346.554C146.83 347.554 145.87 348.274 145.19 348.784C144.845 349.075 144.47 349.326 144.07 349.534Z"
    fill="#E0E0E0" />
  <path
    d="M114.82 339.204C115.224 339.252 115.62 339.35 116 339.494L119.17 340.494C121.83 341.344 125.5 342.554 129.54 343.914C133.58 345.274 137.23 346.554 139.86 347.504L142.97 348.644C143.357 348.765 143.73 348.93 144.08 349.134C143.676 349.093 143.279 348.999 142.9 348.854L139.73 347.854C137.07 347.004 133.4 345.794 129.36 344.424C125.32 343.054 121.67 341.784 119.04 340.844L115.93 339.694C115.54 339.581 115.166 339.416 114.82 339.204Z"
    fill="#E0E0E0" />
  <path
    d="M118.2 380.254C118.715 380.331 119.22 380.458 119.71 380.634L123.77 381.874C127.19 382.944 131.9 384.454 137.1 386.164C142.3 387.874 146.99 389.434 150.38 390.604L154.38 392.004C154.878 392.163 155.362 392.361 155.83 392.594C155.312 392.518 154.803 392.391 154.31 392.214L150.25 390.974C146.83 389.904 142.12 388.394 136.92 386.684C131.72 384.974 127.03 383.404 123.65 382.244L119.65 380.834C119.15 380.685 118.665 380.491 118.2 380.254Z"
    fill="#E0E0E0" />
  <path
    d="M155.01 392.044C155.362 391.612 155.754 391.213 156.18 390.854L159.49 387.744C162.28 385.114 166.12 381.464 170.25 377.314C174.38 373.164 178.03 369.314 180.65 366.514L183.75 363.194C184.115 362.77 184.513 362.376 184.94 362.014C184.649 362.484 184.314 362.926 183.94 363.334C183.26 364.164 182.24 365.334 180.94 366.774C178.39 369.654 174.79 373.554 170.64 377.704C166.49 381.854 162.64 385.474 159.76 388.034C158.32 389.304 157.15 390.334 156.32 391.034C155.912 391.407 155.474 391.744 155.01 392.044Z"
    fill="#E0E0E0" />
  <path
    d="M55.57 51.5541L45.81 48.5541C45.81 48.5541 43.25 56.7541 34.69 54.2441C33.0328 53.7878 31.5584 52.8276 30.4709 51.4964C29.3835 50.1653 28.7366 48.529 28.62 46.8141C28.4919 45.3679 28.7108 43.9121 29.2587 42.5676C29.8066 41.2231 30.6676 40.0288 31.77 39.0841C34.28 36.8641 38.68 35.5141 44.89 38.7241L51.76 16.7241L42.11 13.7241L38.11 26.6141C38.11 26.6141 23.47 25.8841 18.82 40.7941C14.37 55.0641 26.13 62.3741 31.61 64.0841C35.77 65.3841 50.38 68.8241 55.57 51.5541Z"
    fill="#F5F5F5" />
  <path d="M43.4172 9.14522L53.2114 12.2014L56.0651 3.0563L46.2708 0.000106611L43.4172 9.14522Z" fill="#F5F5F5" />
  <path
    d="M82.5 26.7142L86.41 25.7142C86.2906 25.2701 86.2617 24.8066 86.3251 24.3512C86.3884 23.8958 86.5427 23.4577 86.7787 23.0631C87.0148 22.6685 87.3277 22.3254 87.699 22.0541C88.0703 21.7829 88.4923 21.5891 88.94 21.4842C89.5914 21.2875 90.2879 21.2983 90.9329 21.5151C91.5779 21.7319 92.1396 22.144 92.54 22.6942C92.8799 23.151 93.1069 23.6818 93.2025 24.2432C93.2981 24.8045 93.2596 25.3806 93.09 25.9242C92.72 27.1942 91.53 28.5742 88.77 28.8042L91.1 37.6142L94.96 36.6142L93.6 31.4542C95.0638 30.5713 96.1965 29.2314 96.8236 27.6412C97.4507 26.0509 97.5373 24.2985 97.07 22.6542C95.57 16.9342 90.07 16.9642 87.9 17.5342C86.22 17.9242 80.61 19.8342 82.5 26.7142Z"
    fill="#EBEBEB" />
  <path d="M96.3219 37.899L92.3837 38.9546L93.3691 42.6309L97.3073 41.5753L96.3219 37.899Z" fill="#EBEBEB" />
  <path
    d="M405.31 127.924L409.11 129.294C409.269 128.864 409.513 128.47 409.827 128.135C410.141 127.801 410.519 127.532 410.939 127.346C411.358 127.16 411.81 127.059 412.269 127.05C412.728 127.041 413.184 127.124 413.61 127.294C414.25 127.5 414.811 127.899 415.215 128.436C415.62 128.973 415.849 129.622 415.87 130.294C415.894 130.868 415.781 131.439 415.541 131.96C415.301 132.482 414.941 132.939 414.49 133.294C413.49 134.124 411.7 134.574 409.3 133.194L406.19 141.764L409.95 143.124L411.77 138.124C413.477 138.23 415.171 137.773 416.593 136.822C418.014 135.872 419.085 134.482 419.64 132.864C421.64 127.304 417.13 124.214 415 123.444C413.37 122.804 407.67 121.194 405.31 127.924Z"
    fill="#EBEBEB" />
  <path d="M409.388 144.861L405.57 143.479L404.28 147.042L408.097 148.425L409.388 144.861Z" fill="#EBEBEB" />
  <path
    d="M2.02998 171.444L10.03 168.344C10.03 168.344 7.42999 161.594 14.4 158.764C15.734 158.2 17.2102 158.063 18.6251 158.373C20.04 158.683 21.324 159.424 22.3 160.494C23.1303 161.384 23.7388 162.457 24.076 163.627C24.4131 164.796 24.4693 166.029 24.24 167.224C23.74 170.004 21.54 173.224 15.75 174.334L22.75 192.464L30.75 189.404L26.65 178.784C26.65 178.784 36.65 171.604 31.96 159.304C27.41 147.544 15.77 148.884 11.3 150.614C7.84998 151.944 -3.59002 157.314 2.02998 171.444Z"
    fill="#F5F5F5" />
  <path d="M32.2656 193.094L24.1939 196.204L27.0987 203.744L35.1704 200.634L32.2656 193.094Z" fill="#F5F5F5" />
  <path
    d="M408.44 201.954L402.74 204.144C402.74 204.144 404.58 208.934 399.64 210.934C398.694 211.329 397.65 211.424 396.648 211.206C395.646 210.988 394.736 210.467 394.04 209.714C393.452 209.083 393.021 208.322 392.783 207.493C392.545 206.665 392.506 205.791 392.67 204.944C393.03 202.944 394.59 200.704 398.67 199.944L393.77 187.054L388.13 189.224L391.03 196.754C388.977 198.324 387.498 200.526 386.818 203.019C386.139 205.512 386.298 208.16 387.27 210.554C390.48 218.884 398.7 217.944 401.9 216.714C404.32 215.764 412.42 211.964 408.44 201.954Z"
    fill="#F5F5F5" />
  <path d="M387.014 186.612L392.734 184.408L390.678 179.071L384.958 181.274L387.014 186.612Z" fill="#F5F5F5" />
  <path
    d="M46.41 397.114C47.41 393.434 44.94 389.744 42.24 387.114C39.54 384.484 36.31 382.064 34.9 378.534C32.62 372.814 35.68 365.414 31.8 360.644C29.51 357.844 25.41 356.904 23.38 353.904C22.4414 352.251 21.8207 350.436 21.55 348.554C19.3922 339.053 14.719 330.308 8.01998 323.234C7.5684 331.697 9.40253 340.125 13.33 347.634C14.9 350.634 16.84 353.554 17.33 356.904C18.18 362.334 15.14 367.904 16.48 373.264C18.01 379.364 24.86 383.454 25.18 389.734C25.46 395.044 20.83 399.734 21.18 405.014C21.4604 407.275 22.2801 409.436 23.57 411.314C27.67 418.144 33.71 422.844 42.85 422.694L54.05 423.084L46.41 397.114Z"
    fill="#7ED2FF" />
  <g opacity="0.3">
    <path opacity="0.3"
      d="M46.41 397.114C47.41 393.434 44.94 389.744 42.24 387.114C39.54 384.484 36.31 382.064 34.9 378.534C32.62 372.814 35.68 365.414 31.8 360.644C29.51 357.844 25.41 356.904 23.38 353.904C22.4414 352.251 21.8207 350.436 21.55 348.554C19.3922 339.053 14.719 330.308 8.01998 323.234C7.5684 331.697 9.40253 340.125 13.33 347.634C14.9 350.634 16.84 353.554 17.33 356.904C18.18 362.334 15.14 367.904 16.48 373.264C18.01 379.364 24.86 383.454 25.18 389.734C25.46 395.044 20.83 399.734 21.18 405.014C21.4604 407.275 22.2801 409.436 23.57 411.314C27.67 418.144 33.71 422.844 42.85 422.694L54.05 423.084L46.41 397.114Z"
      fill="black" />
  </g>
  <path
    d="M56.31 423.314C57.3357 423.472 58.3811 423.452 59.3999 423.254C60.6369 423.066 61.8527 422.758 63.03 422.334C64.6558 421.769 66.1764 420.938 67.53 419.874C68.3443 419.219 68.9806 418.37 69.38 417.404C69.7145 416.322 69.8896 415.197 69.8999 414.064C69.9225 412.853 70.0126 411.645 70.17 410.444C70.3806 409.166 70.8429 407.942 71.53 406.844C72.85 404.524 75.05 402.324 75.75 399.174C76.45 396.024 75.97 392.724 75.45 389.364C74.93 386.004 74.45 382.364 75.71 378.844C76.97 375.324 79.37 372.174 80.6 368.234C81.83 364.294 81.2499 359.954 81.5099 355.724C81.5867 353.575 82.0827 351.463 82.9699 349.504C83.8699 347.504 85.1299 345.654 86.1099 343.574C88.1099 339.354 88.45 334.574 88.99 329.884C89.26 327.524 89.52 325.134 89.79 322.734C89.9602 320.308 90.379 317.905 91.04 315.564C91.7987 313.204 92.6935 310.89 93.7199 308.634C94.2486 307.467 94.6833 306.26 95.02 305.024C95.2083 303.745 95.3285 302.456 95.38 301.164C95.4992 298.577 95.3988 295.984 95.0799 293.414C94.7799 290.834 94.3099 288.274 94.0299 285.684C94.0299 285.524 94.0299 285.374 94.0299 285.234L93.9699 284.724L93.52 284.944C91.1555 286.157 89.1025 287.899 87.52 290.034C85.9679 292.125 84.7189 294.424 83.8099 296.864C81.9399 301.674 81.2699 306.714 80.3299 311.524C79.3899 316.334 78.1899 321.064 75.7299 325.064C74.5 327.064 73.01 328.884 71.7299 330.824C70.34 332.717 69.3903 334.897 68.95 337.204C68.28 341.944 70.89 346.104 70.35 350.304C70.1063 352.361 69.4243 354.343 68.35 356.114C67.35 357.904 66.14 359.564 65 361.224C63.8445 362.852 62.8403 364.583 62 366.394C61.209 368.167 60.7416 370.067 60.6199 372.004C60.3499 375.784 60.8799 379.364 60.6199 382.744C60.3077 385.966 59.3666 389.095 57.85 391.954C56.5 394.704 54.9899 397.194 53.7299 399.614C53.0999 400.814 52.51 401.994 52.03 403.184C51.5757 404.327 51.2406 405.513 51.03 406.724C50.6952 408.839 50.6683 410.991 50.95 413.114C51.2438 416.074 52.3513 418.895 54.1499 421.264C54.4249 421.622 54.7293 421.957 55.06 422.264C55.2808 422.496 55.5255 422.704 55.7899 422.884C56.2099 423.194 56.43 423.334 56.43 423.334C55.6305 422.702 54.9028 421.985 54.2599 421.194C52.5431 418.817 51.506 416.016 51.2599 413.094C51.0053 410.998 51.0525 408.877 51.3999 406.794C51.6105 405.612 51.9457 404.456 52.3999 403.344C52.9066 402.141 53.4775 400.966 54.1099 399.824C55.3799 397.424 56.9 394.944 58.28 392.174C59.8419 389.27 60.8139 386.085 61.14 382.804C61.44 379.354 60.92 375.754 61.2 372.074C61.3288 370.199 61.7857 368.361 62.5499 366.644C63.3955 364.871 64.3996 363.177 65.5499 361.584C66.6899 359.924 67.8999 358.264 68.9399 356.434C70.0814 354.595 70.8114 352.532 71.0799 350.384C71.6199 345.914 69.03 341.734 69.7 337.324C70.1383 335.118 71.0567 333.035 72.39 331.224C73.66 329.314 75.16 327.494 76.39 325.444C78.94 321.334 80.17 316.514 81.1 311.684C82.03 306.854 82.7199 301.854 84.5599 297.134C85.4449 294.762 86.6602 292.527 88.1699 290.494C89.6923 288.445 91.6668 286.775 93.9399 285.614L93.43 285.324C93.43 285.474 93.43 285.624 93.48 285.784C93.76 288.404 94.23 290.964 94.48 293.524C94.7957 296.054 94.8928 298.607 94.77 301.154C94.7194 302.406 94.6059 303.654 94.43 304.894C94.1068 306.09 93.6853 307.257 93.1699 308.384C92.138 310.664 91.2366 313.002 90.4699 315.384C89.8034 317.762 89.3813 320.201 89.21 322.664C88.95 325.074 88.6799 327.464 88.4199 329.824C87.8799 334.534 87.53 339.234 85.62 343.304C84.62 345.304 83.42 347.214 82.49 349.254C81.5747 351.286 81.0652 353.477 80.99 355.704C80.74 360.024 81.3 364.254 80.13 368.074C78.96 371.894 76.5299 375.074 75.2999 378.684C74.07 382.294 74.52 386.114 75.06 389.464C75.6 392.814 76.14 396.114 75.42 399.084C74.7 402.054 72.6399 404.274 71.2999 406.654C70.5935 407.8 70.121 409.075 69.91 410.404C69.7589 411.618 69.6788 412.84 69.67 414.064C69.6716 415.169 69.5098 416.267 69.1899 417.324C68.8195 418.24 68.2246 419.048 67.46 419.674C66.1427 420.736 64.6595 421.574 63.07 422.154C61.9082 422.602 60.7059 422.937 59.4799 423.154C58.7307 423.29 57.9714 423.364 57.21 423.374C56.58 423.314 56.31 423.314 56.31 423.314Z"
    fill="#263238" />
  <path
    d="M91.69 291.414C91.6366 291.521 91.5995 291.636 91.58 291.754L91.34 292.754C91.12 293.644 90.85 294.974 90.43 296.634C90.01 298.294 88.98 300.174 88.11 302.484C87.091 305.085 86.2032 307.735 85.45 310.424C84.59 313.424 83.84 316.724 83.04 320.284C82.3601 324.076 81.1552 327.755 79.46 331.214C78.54 333.034 77.46 334.874 76.69 336.894C75.8825 338.957 75.3415 341.114 75.08 343.314C74.5112 347.87 73.7034 352.393 72.66 356.864C70.42 366.034 68.28 374.774 66.33 382.734C64.38 390.694 62.54 397.814 61.02 403.834C59.5 409.854 58.35 414.654 57.51 418.084C57.12 419.724 56.81 421.014 56.59 421.964C56.5 422.374 56.42 422.704 56.36 422.964C56.3489 423.08 56.3489 423.198 56.36 423.314C56.4181 423.21 56.4618 423.099 56.49 422.984C56.56 422.714 56.66 422.394 56.78 421.984C57.03 421.054 57.38 419.764 57.83 418.134C58.73 414.734 60 409.904 61.57 403.954C63.14 398.004 64.97 390.804 67.02 382.894C69.07 374.984 71.15 366.184 73.41 357.004C74.4467 352.521 75.2346 347.984 75.77 343.414C76.0255 341.267 76.5496 339.161 77.33 337.144C78.12 335.144 79.13 333.354 80.05 331.514C82.05 327.864 82.84 323.944 83.63 320.414C84.42 316.884 85.12 313.544 85.94 310.564C86.76 307.584 87.62 304.924 88.48 302.624C89.34 300.324 90.29 298.424 90.7 296.704C91.11 294.984 91.3 293.704 91.48 292.784C91.5467 292.371 91.6067 292.037 91.66 291.784C91.69 291.534 91.71 291.414 91.69 291.414Z"
    fill="#263238" />
  <path
    d="M58.29 423.364C65.6 419.014 67.7 405.814 64.65 397.874C61.6 389.934 56.26 382.674 55.44 374.204C54.8 367.694 56.94 361.014 55.44 354.654C53.39 346.064 45.01 339.414 45.11 330.584C45.16 325.634 47.98 320.974 47.75 316.024C47.48 309.964 42.82 305.144 39.94 299.804C35.52 291.614 35.23 281.944 33.72 272.804C32.21 263.664 28.72 253.804 20.58 249.294C19.38 257.084 17.33 262.424 17.97 272.974C18.21 276.764 22.61 283.974 23.21 292.324C23.57 297.324 23.81 302.264 24.12 307.224C24.43 312.184 24.73 316.984 26.46 321.504C27.79 324.974 29.92 328.124 30.91 331.704C32.76 338.434 30.32 345.704 31.82 352.544C33.09 358.324 37.09 363.294 37.91 369.154C39.05 377.384 33.73 385.944 36.45 393.794C37.81 397.694 41.01 400.794 41.92 404.844C42.63 407.964 41.86 411.274 42.5 414.404C43.5 419.464 53.16 423.404 58.31 423.074"
    fill="#7ED2FF" />
  <path
    d="M22.58 256.984C22.5664 257.13 22.5664 257.278 22.58 257.424C22.58 257.754 22.68 258.174 22.74 258.704C22.91 259.834 23.1 261.484 23.48 263.624C23.86 265.764 25 268.184 25.88 271.104C26.76 274.024 27.74 277.364 28.56 281.104C29.38 284.844 30.1 289.014 30.83 293.484C31.56 297.954 32.36 302.824 34.58 307.484C35.58 309.814 36.76 312.154 37.58 314.654C38.4202 317.213 38.9375 319.867 39.12 322.554C39.5288 328.255 40.2465 333.93 41.27 339.554C43.51 351.094 45.64 362.084 47.58 372.094C49.52 382.104 51.47 391.034 53.03 398.594C54.59 406.154 55.87 412.194 56.76 416.454L57.76 421.304C57.88 421.824 57.97 422.234 58.05 422.554C58.077 422.701 58.1172 422.845 58.17 422.984C58.1877 422.838 58.1877 422.69 58.17 422.544C58.11 422.214 58.04 421.804 57.95 421.274C57.73 420.114 57.42 418.474 57.03 416.394C56.19 412.124 55.03 406.024 53.52 398.494C52.01 390.964 50.22 381.934 48.23 371.964C46.24 361.994 44.23 350.964 41.98 339.434C40.9559 333.81 40.2349 328.135 39.82 322.434C39.6297 319.691 39.0955 316.984 38.23 314.374C37.34 311.834 36.17 309.484 35.14 307.164C32.94 302.574 32.14 297.784 31.38 293.334C30.62 288.884 29.89 284.704 29.02 280.944C28.15 277.184 27.2 273.824 26.22 270.944C25.24 268.064 24.15 265.624 23.71 263.534C23.27 261.444 23.06 259.764 22.85 258.654C22.75 258.134 22.67 257.714 22.61 257.384C22.6079 257.25 22.5979 257.117 22.58 256.984Z"
    fill="#263238" />
  <path
    d="M360.33 37.4065H364.33C364.327 36.9529 364.415 36.5032 364.589 36.0843C364.763 35.6654 365.02 35.2857 365.344 34.9677C365.667 34.6497 366.051 34.3999 366.473 34.2331C366.895 34.0662 367.346 33.9858 367.8 33.9965C368.469 33.9725 369.13 34.1581 369.689 34.5273C370.249 34.8966 370.679 35.4312 370.92 36.0565C371.13 36.5773 371.215 37.1405 371.166 37.7001C371.118 38.2598 370.937 38.8 370.64 39.2765C369.96 40.3965 368.48 41.4065 365.8 40.9365V49.9365H369.73V44.6765C371.342 44.2018 372.755 43.211 373.75 41.8562C374.745 40.5014 375.269 38.8574 375.24 37.1765C375.24 31.3565 370.02 30.0065 367.78 30.0065C366.07 29.9665 360.25 30.3765 360.33 37.4065Z"
    fill="#7ED2FF" />
  <path d="M369.76 51.7566H365.77V55.4866H369.76V51.7566Z" fill="#7ED2FF" />
  <path
    d="M397.05 42.7642C397.063 42.5944 397.063 42.4239 397.05 42.2542C397.05 41.8942 397.05 41.4042 397.05 40.7742C397.05 40.4542 397.05 40.0842 397 39.6842C396.95 39.2842 396.89 38.8442 396.82 38.3842C396.75 37.9242 396.68 37.3842 396.6 36.8542L396.18 35.1542C395.437 32.2265 394.221 29.4398 392.58 26.9042C390.197 23.1489 386.984 19.9902 383.19 17.6706C379.395 15.3511 375.119 13.9326 370.69 13.5242C369.36 13.4067 368.024 13.38 366.69 13.4442C366.02 13.4442 365.33 13.4442 364.69 13.5742L362.63 13.8842C359.803 14.4095 357.068 15.3426 354.51 16.6542C351.839 18.0674 349.384 19.8555 347.22 21.9642C345.004 24.21 343.152 26.7876 341.73 29.6042C340.2 32.5079 339.198 35.6601 338.77 38.9142C338.645 39.7386 338.575 40.5704 338.56 41.4042C338.493 42.2391 338.477 43.0772 338.51 43.9142C338.728 49.2786 340.404 54.4821 343.36 58.9642V58.6542C341.97 62.1242 340.6 65.5342 339.26 68.8542L339.02 69.4642L339.65 69.2842L350.55 66.2842L350.29 66.2242C353.961 69.0033 358.237 70.8743 362.77 71.6842C364.873 72.0761 367.015 72.2071 369.15 72.0742C370.179 72.0588 371.206 71.9618 372.22 71.7842L373.71 71.5542C374.2 71.4642 374.71 71.3142 375.15 71.2042C381.867 69.502 387.759 65.4643 391.77 59.8142C393.266 57.7327 394.467 55.4545 395.34 53.0442C395.53 52.5142 395.71 52.0442 395.88 51.5242C396.05 51.0042 396.14 50.5242 396.25 50.0742C396.36 49.6242 396.48 49.1642 396.58 48.7442C396.68 48.3242 396.71 47.9142 396.77 47.5242C396.86 46.7542 397 46.0742 397.03 45.5242C397.06 44.9742 397.03 44.4442 397.03 44.0242C397.03 43.6042 397.03 43.3442 397.03 43.1142C397.03 42.8842 397.03 42.8042 397.03 42.8042C397.015 42.9069 397.015 43.0114 397.03 43.1142C397.03 43.3442 397.03 43.6442 396.96 44.0242C396.89 44.4042 396.9 44.9342 396.86 45.5142C396.82 46.0942 396.67 46.7742 396.55 47.5142C395.596 53.0488 393.056 58.1873 389.237 62.3057C385.419 66.4242 380.487 69.3452 375.04 70.7142C374.57 70.8242 374.1 70.9642 373.62 71.0542L372.15 71.2742C371.158 71.4397 370.155 71.53 369.15 71.5442C367.054 71.6546 364.953 71.517 362.89 71.1342C358.463 70.3195 354.289 68.4805 350.7 65.7642L350.58 65.6642H350.43L339.52 68.6642L339.9 69.0942L344.01 58.9042L344.07 58.7442L343.98 58.5942C342.011 55.6149 340.614 52.295 339.86 48.8042C339.515 47.1846 339.307 45.5387 339.24 43.8842C339.207 43.0672 339.223 42.249 339.29 41.4342C339.296 40.6203 339.363 39.8081 339.49 39.0042C339.874 35.8264 340.819 32.7419 342.28 29.8942C343.67 27.1416 345.474 24.6188 347.63 22.4142C349.748 20.3441 352.152 18.5895 354.77 17.2042C357.271 15.9032 359.95 14.9766 362.72 14.4542L364.72 14.1442C365.39 14.0442 366.06 14.0542 366.72 14.0042C368.023 13.9421 369.33 13.9655 370.63 14.0742C374.986 14.4555 379.198 15.8244 382.946 18.0769C386.694 20.3295 389.879 23.4065 392.26 27.0742C393.91 29.5656 395.146 32.3077 395.92 35.1942L396.37 36.8742C396.46 37.4042 396.54 37.8742 396.62 38.3742C396.7 38.8742 396.76 39.2742 396.83 39.6742C396.9 40.0742 396.88 40.4342 396.91 40.7542C396.91 41.3742 396.99 41.8642 397.02 42.2242C397.001 42.4046 397.011 42.5869 397.05 42.7642Z"
    fill="#263238" />
  <path
    d="M98.84 160.694H156.59C156.59 160.694 156.59 112.204 206.98 111.344C233.15 110.884 246.72 128.034 252.24 141.164C258.64 156.414 256.7 173.794 248.12 187.944C238.33 204.094 217.23 220.324 178.31 213.464L177.94 342.134H235.05V265.854C235.05 265.854 315.14 245.154 315.14 156.854C315.14 72.4042 246.85 54.1642 210.14 52.9842C189.72 52.3342 182.32 51.4542 157.06 55.0442C124.87 59.6442 98.16 97.0242 98.84 160.694Z"
    fill="#7ED2FF" />
  <path d="M235.74 368.954H177.78V423.084H235.74V368.954Z" fill="#7ED2FF" />
  <path opacity="0.1" d="M235.74 368.954H177.78V423.084H235.74V368.954Z" fill="black" />
  <path opacity="0.1"
    d="M98.84 160.694H156.59C156.59 160.694 156.59 112.204 206.98 111.344C233.15 110.884 246.72 128.034 252.24 141.164C258.64 156.414 256.7 173.794 248.12 187.944C238.33 204.094 217.23 220.324 178.31 213.464L177.94 342.134H235.05V265.854C235.05 265.854 315.14 245.154 315.14 156.854C315.14 72.4042 246.85 54.1642 210.14 52.9842C189.72 52.3342 182.32 51.4542 157.06 55.0442C124.87 59.6442 98.16 97.0242 98.84 160.694Z"
    fill="black" />
  <path
    d="M74.91 160.694H132.67C132.67 160.694 132.67 112.204 183.06 111.344C209.23 110.884 222.8 128.034 228.31 141.164C234.72 156.414 232.78 173.794 224.2 187.944C214.41 204.094 192.94 218.774 154.02 211.944V342.134H211.13V265.854C211.13 265.854 291.22 245.154 291.22 156.854C291.22 72.4042 215.48 52.7942 183.07 52.7942C158.28 52.8242 73.82 58.8142 74.91 160.694Z"
    fill="#7ED2FF" />
  <path opacity="0.3"
    d="M74.91 160.694H132.67C132.67 160.694 132.67 112.204 183.06 111.344C209.23 110.884 222.8 128.034 228.31 141.164C234.72 156.414 232.78 173.794 224.2 187.944C214.41 204.094 192.94 218.774 154.02 211.944V342.134H211.13V265.854C211.13 265.854 291.22 245.154 291.22 156.854C291.22 72.4042 215.48 52.7942 183.07 52.7942C158.28 52.8242 73.82 58.8142 74.91 160.694Z"
    fill="black" />
  <path d="M211.82 368.954H153.86V423.084H211.82V368.954Z" fill="#7ED2FF" />
  <path opacity="0.3" d="M211.82 368.954H153.86V423.084H211.82V368.954Z" fill="black" />
  <path
    d="M189.58 111.604C189.294 111.629 189.006 111.629 188.72 111.604C188.15 111.604 187.33 111.414 186.26 111.404C183.235 111.256 180.202 111.383 177.2 111.784C172.748 112.348 168.367 113.377 164.13 114.854C161.632 115.727 159.199 116.777 156.85 117.994C154.311 119.263 151.919 120.809 149.72 122.604C147.536 124.415 145.578 126.484 143.89 128.764C142.29 130.873 140.83 133.084 139.52 135.384C137.333 139.302 135.599 143.455 134.35 147.764C133.503 150.673 132.921 153.651 132.61 156.664C132.49 157.724 132.46 158.564 132.43 159.124C132.431 159.413 132.404 159.701 132.35 159.984C132.324 159.698 132.324 159.41 132.35 159.124C132.35 158.554 132.35 157.714 132.44 156.644C132.67 153.599 133.203 150.584 134.03 147.644C135.233 143.285 136.944 139.083 139.13 135.124C140.443 132.799 141.909 130.564 143.52 128.434C145.222 126.116 147.204 124.017 149.42 122.184C151.646 120.365 154.068 118.798 156.64 117.514C159.004 116.274 161.454 115.205 163.97 114.314C168.246 112.842 172.668 111.837 177.16 111.314C180.182 110.943 183.234 110.873 186.27 111.104C187.095 111.157 187.916 111.257 188.73 111.404C189.018 111.451 189.302 111.518 189.58 111.604Z"
    fill="#263238" />
  <path
    d="M276.6 101.314C276.6 101.314 276.53 101.244 276.41 101.094C276.29 100.944 276.11 100.684 275.91 100.394L274 97.6941C273.59 97.1141 273.15 96.4441 272.63 95.7541L270.83 93.5641L268.77 91.0341C268.02 90.1541 267.14 89.3041 266.26 88.3741C265.38 87.4441 264.48 86.4541 263.46 85.5041C262.44 84.5541 261.35 83.5841 260.23 82.5841C259.67 82.0841 259.12 81.5841 258.52 81.0541L256.66 79.5841C255.39 78.5841 254.13 77.5841 252.76 76.5841C246.789 72.3118 240.454 68.5708 233.83 65.4041L228.56 63.0241L223.33 61.0241C221.62 60.3141 219.88 59.8141 218.2 59.2541C216.52 58.6941 214.88 58.1241 213.2 57.7341L208.42 56.4841C206.87 56.0741 205.33 55.8241 203.86 55.4841C202.39 55.1441 200.97 54.8441 199.58 54.6741L195.58 54.0941C193.05 53.6641 190.73 53.5741 188.71 53.3741C187.71 53.2941 186.71 53.1841 185.88 53.1441L183.5 53.0841L180.2 52.9741H179.34H179.05C179.146 52.9591 179.244 52.9591 179.34 52.9741H180.2H183.5H185.89C186.76 52.9741 187.71 53.0941 188.73 53.1641C190.73 53.3341 193.09 53.4041 195.62 53.8141L199.62 54.3541C201.01 54.5141 202.43 54.8741 203.91 55.1441C205.39 55.4141 206.91 55.6941 208.5 56.1441L213.3 57.3841C214.96 57.7641 216.6 58.3841 218.3 58.8941C220 59.4041 221.73 59.8941 223.44 60.6541L228.7 62.6541L234 65.0441C240.659 68.218 247.018 71.9866 253 76.3041C254.38 77.3041 255.64 78.3741 256.91 79.3641L258.77 80.7141C259.37 81.2141 259.92 81.7141 260.48 82.2541L263.7 85.2541C264.7 86.2541 265.6 87.2541 266.49 88.1641C267.38 89.0741 268.23 89.9641 268.98 90.8541L270.98 93.4041L272.76 95.6241C273.27 96.3241 273.7 97.0041 274.1 97.6241C274.88 98.7941 275.49 99.7141 275.92 100.374L276.39 101.104C276.469 101.165 276.539 101.235 276.6 101.314Z"
    fill="#263238" />
  <path
    d="M270.58 225.314C270.461 225.531 270.317 225.732 270.15 225.914L268.77 227.544C268.2 228.274 267.48 229.144 266.59 230.114C265.7 231.084 264.75 232.224 263.59 233.404C262.43 234.584 261.19 235.904 259.78 237.234C258.37 238.564 256.84 239.964 255.21 241.424C248.061 247.664 240.223 253.069 231.85 257.534C229.91 258.534 228.08 259.534 226.31 260.304C224.54 261.074 222.89 261.864 221.37 262.504C219.85 263.144 218.45 263.674 217.23 264.144C216.01 264.614 214.94 264.994 214.06 265.274L212.06 265.924C211.828 266.016 211.586 266.083 211.34 266.124C211.556 266.001 211.783 265.9 212.02 265.824L214.02 265.084C214.89 264.774 215.94 264.374 217.15 263.874C218.36 263.374 219.76 262.874 221.26 262.164C222.76 261.454 224.42 260.784 226.15 259.914C227.88 259.044 229.73 258.124 231.66 257.114C235.47 255.014 239.58 252.554 243.73 249.714C247.88 246.874 251.61 243.884 254.93 241.064C256.56 239.624 258.12 238.274 259.51 236.914C260.9 235.554 262.2 234.324 263.35 233.144C264.5 231.964 265.51 230.874 266.41 229.914C267.31 228.954 268.05 228.114 268.65 227.414L270.05 225.824C270.213 225.64 270.39 225.47 270.58 225.314Z"
    fill="#263238" />
  <path
    d="M210.12 337.594C209.97 337.594 209.85 321.534 209.85 301.724C209.85 281.914 209.97 265.844 210.12 265.844C210.27 265.844 210.38 281.904 210.38 301.724C210.38 321.544 210.26 337.594 210.12 337.594Z"
    fill="#263238" />
  <path
    d="M212.32 419.414C212.17 419.414 212.06 408.144 212.06 394.244C212.06 380.344 212.17 369.064 212.32 369.064C212.47 369.064 212.58 380.334 212.58 394.244C212.58 408.154 212.46 419.414 212.32 419.414Z"
    fill="#263238" />
  <path
    d="M269.17 153.024C268.17 155.024 271.9 156.664 274.05 157.314C276.244 157.853 278.514 158.008 280.76 157.774C283.76 157.614 286.83 157.334 289.42 155.854C291.688 154.449 293.501 152.417 294.64 150.004C295.763 147.599 296.65 145.091 297.29 142.514C297.29 142.514 273.66 144.054 269.17 153.024Z"
    fill="#7ED2FF" />
  <g opacity="0.4">
    <path opacity="0.4"
      d="M269.17 153.024C268.17 155.024 271.9 156.664 274.05 157.314C276.244 157.853 278.514 158.008 280.76 157.774C283.76 157.614 286.83 157.334 289.42 155.854C291.688 154.449 293.501 152.417 294.64 150.004C295.763 147.599 296.65 145.091 297.29 142.514C297.29 142.514 273.66 144.054 269.17 153.024Z"
      fill="black" />
  </g>
  <path
    d="M335.91 146.624C339.806 149.388 344.474 150.85 349.25 150.804C351.539 150.932 353.797 150.221 355.6 148.804C356.37 148.094 356.95 147.194 357.74 146.514C358.28 146.054 358.91 145.704 359.42 145.214C359.689 144.983 359.897 144.688 360.024 144.356C360.151 144.025 360.195 143.667 360.15 143.314C359.953 142.446 359.466 141.67 358.77 141.114C356.06 139.574 352.82 139.634 349.7 139.704C346.578 139.84 343.493 140.443 340.55 141.494C338.13 142.314 335.6 143.494 334.37 145.694"
    fill="#7ED2FF" />
  <g opacity="0.4">
    <path opacity="0.4"
      d="M360.15 143.314C359.796 142.471 359.174 141.768 358.38 141.314C355.67 139.774 352.82 139.634 349.7 139.704C346.578 139.839 343.493 140.443 340.55 141.494C338.13 142.314 335.6 143.494 334.37 145.694L335.91 146.624C339.806 149.387 344.474 150.85 349.25 150.804C351.539 150.932 353.797 150.221 355.6 148.804C356.37 148.094 356.95 147.194 357.74 146.514C358.28 146.054 358.91 145.704 359.42 145.214C359.689 144.983 359.897 144.688 360.024 144.356C360.151 144.025 360.195 143.667 360.15 143.314Z"
      fill="black" />
  </g>
  <path
    d="M289.77 182.514L339.62 183.174C339.722 183.174 339.822 183.15 339.912 183.104C340.003 183.058 340.081 182.992 340.141 182.91C340.202 182.829 340.242 182.734 340.259 182.634C340.276 182.534 340.27 182.431 340.24 182.334L334.39 164.094C334.39 164.094 335.25 154.974 336.44 144.014C338.25 127.364 340.66 106.434 340.69 106.494C337.28 96.9342 317.16 95.3142 317.16 95.3142L294.23 96.6742L293.43 95.3242L286.83 98.3942C285.391 99.0639 284.006 99.8463 282.69 100.734C278.33 103.644 267.83 110.334 265.91 117.784C261.48 135.034 268.98 154.284 268.98 154.284L273.8 150.514C275.014 149.579 276.29 148.727 277.62 147.964L287.28 173.854C286.705 174.217 286.218 174.703 285.855 175.277C285.492 175.851 285.261 176.499 285.18 177.174C285.1 179.274 286.18 181.794 289.77 182.514Z"
    fill="#7ED2FF" />
  <g opacity="0.3">
    <path opacity="0.3"
      d="M311.16 151.994C312.74 143.494 311.91 134.754 311.06 126.154C308.3 133.154 308.4 141.154 305.47 148.094C305.111 148.827 304.849 149.604 304.69 150.404C304.614 150.806 304.634 151.221 304.748 151.614C304.863 152.006 305.069 152.367 305.35 152.664C306.15 153.394 307.35 152.994 308.41 152.874C309.359 152.693 310.282 152.398 311.16 151.994Z"
      fill="black" />
  </g>
  <g opacity="0.4">
    <path opacity="0.4"
      d="M292.77 171.674C296.77 173.064 301.03 170.474 305.26 170.014C308.06 169.714 310.86 170.354 313.64 170.804C319.261 171.714 324.98 171.855 330.64 171.224C331.508 171.177 332.358 170.956 333.14 170.574C333.544 170.299 333.874 169.929 334.103 169.497C334.331 169.065 334.45 168.583 334.45 168.094C325.03 167.094 315.62 166.554 306.2 165.584C303.855 165.184 301.454 165.262 299.14 165.814C296.3 166.694 294.14 168.924 292.14 171.134"
      fill="black" />
  </g>
  <path
    d="M358.71 140.034C354.64 130.864 340.29 105.504 340.29 105.504L329.18 119.434L331.77 146.784C331.77 146.784 337.64 140.234 354.05 140.104C355.243 140.152 356.409 140.466 357.465 141.023C358.52 141.58 359.438 142.367 360.15 143.324L358.71 140.034Z"
    fill="#7ED2FF" />
  <path
    d="M292 135.184C291.207 133.24 290.579 131.233 290.12 129.184C289.499 127.189 289.044 125.145 288.76 123.074C289.541 125.022 290.166 127.028 290.63 129.074C291.251 131.07 291.709 133.114 292 135.184Z"
    fill="#263238" />
  <path
    d="M328.34 117.584C328.702 117.84 329.037 118.131 329.34 118.454C330.223 119.307 331.052 120.216 331.82 121.174C334.406 124.335 336.223 128.052 337.13 132.034C337.601 134.235 337.705 136.499 337.44 138.734C337.19 140.784 336.8 142.584 336.54 144.104C336.28 145.624 336.12 146.864 336.04 147.724C336.038 148.171 335.991 148.617 335.9 149.054C335.829 148.608 335.809 148.155 335.84 147.704C335.884 146.479 335.998 145.257 336.18 144.044C336.39 142.514 336.74 140.694 336.97 138.684C337.201 136.499 337.083 134.292 336.62 132.144C335.724 128.237 333.987 124.572 331.53 121.404C329.7 118.944 328.26 117.664 328.34 117.584Z"
    fill="#263238" />
  <path
    d="M318.16 180.314C317.813 180.469 317.446 180.577 317.07 180.634C316.643 180.747 316.209 180.831 315.77 180.884C315.26 180.954 314.68 181.064 314.03 181.094C312.507 181.234 310.974 181.234 309.45 181.094C307.586 180.903 305.744 180.534 303.95 179.994C302.165 179.421 300.437 178.681 298.79 177.784C297.455 177.039 296.187 176.179 295 175.214C294.48 174.814 294.06 174.394 293.68 174.044C293.352 173.749 293.042 173.435 292.75 173.104C292.472 172.847 292.233 172.551 292.04 172.224C292.11 172.154 293.18 173.354 295.23 174.924C296.428 175.836 297.695 176.651 299.02 177.364C300.649 178.22 302.348 178.933 304.1 179.494C305.864 180.026 307.671 180.4 309.5 180.614C310.994 180.775 312.499 180.822 314 180.754C316.57 180.614 318.14 180.234 318.16 180.314Z"
    fill="#263238" />
  <path
    d="M333.55 174.634C333.785 175.087 333.919 175.585 333.94 176.094C334.1 177.313 334.008 178.552 333.67 179.734C333.326 180.944 332.63 182.023 331.67 182.834C330.94 183.444 330.38 183.634 330.35 183.584C330.32 183.534 330.79 183.204 331.42 182.584C332.229 181.741 332.816 180.71 333.13 179.584C333.93 176.944 333.36 174.644 333.55 174.634Z"
    fill="#263238" />
  <path
    d="M330.84 178.154C331.057 179.183 330.97 180.252 330.59 181.232C330.21 182.212 329.554 183.061 328.7 183.674C328.59 183.564 329.52 182.574 330.1 181.044C330.68 179.514 330.69 178.164 330.84 178.154Z"
    fill="#263238" />
  <path
    d="M321.92 145.254C321.39 146.15 320.795 147.006 320.14 147.814C319.623 148.718 319.038 149.58 318.39 150.394C318.582 149.339 319.036 148.349 319.71 147.514C320.243 146.586 321.004 145.808 321.92 145.254Z"
    fill="#263238" />
  <path
    d="M287.7 121.034C286.938 120.587 286.2 120.1 285.49 119.574C281.934 117.238 277.897 115.731 273.68 115.164C272.797 115.1 271.919 114.983 271.05 114.814C271.936 114.692 272.834 114.692 273.72 114.814C278.052 115.184 282.202 116.73 285.72 119.284C286.458 119.773 287.124 120.362 287.7 121.034Z"
    fill="#263238" />
  <path
    d="M340.29 105.174C338.5 106.616 336.828 108.197 335.29 109.904C333.874 111.726 332.606 113.659 331.5 115.684C331.618 115.003 331.852 114.347 332.19 113.744C332.914 112.245 333.821 110.841 334.89 109.564C335.962 108.29 337.192 107.158 338.55 106.194C339.067 105.757 339.656 105.412 340.29 105.174Z"
    fill="#263238" />
  <path
    d="M319.71 96.9343C319.801 97.0786 319.875 97.233 319.93 97.3943C320.125 97.8472 320.282 98.3155 320.4 98.7943C320.822 100.576 320.822 102.432 320.4 104.214C319.778 106.875 318.353 109.28 316.32 111.104C313.753 113.279 310.483 114.444 307.12 114.384C303.754 114.396 300.474 113.319 297.77 111.314C295.615 109.669 293.867 107.552 292.66 105.124C291.847 103.499 291.274 101.764 290.96 99.9743C290.868 99.4921 290.808 99.0044 290.78 98.5143C290.752 98.3421 290.752 98.1665 290.78 97.9943C290.78 97.9943 290.89 98.6943 291.17 99.9343C291.559 101.674 292.174 103.355 293 104.934C294.22 107.288 295.952 109.339 298.07 110.934C300.676 112.864 303.828 113.915 307.07 113.934C310.312 113.994 313.467 112.887 315.96 110.814C317.924 109.057 319.318 106.751 319.96 104.194C320.405 102.469 320.466 100.666 320.14 98.9143C319.95 97.5943 319.65 96.9543 319.71 96.9343Z"
    fill="#263238" />
  <g opacity="0.3">
    <path opacity="0.3"
      d="M323.21 147.024C323.21 146.524 323.13 145.934 322.69 145.684C322.55 145.614 322.396 145.577 322.24 145.577C322.084 145.577 321.93 145.614 321.79 145.684C321.51 145.836 321.262 146.039 321.06 146.284C319.884 147.508 318.975 148.962 318.39 150.554L323.29 150.124C323.26 149.114 323.24 148.054 323.21 147.024Z"
      fill="black" />
  </g>
  <g opacity="0.3">
    <path opacity="0.3" d="M339.48 136.714C338.988 133.91 337.759 131.288 335.92 129.114C338.04 136.034 337.33 139.944 336.14 144.684L336.4 144.024C337.77 141.254 339.85 139.514 339.48 136.714Z"
      fill="black" />
  </g>
  <path d="M329.69 369.174L326.7 414.024L307.2 413.794L304.13 367.164L329.69 369.174Z" fill="#FFBE9D" />
  <path d="M327.25 408.124V409.424C327.25 409.424 349.25 418.264 349.46 422.424L305.77 422.184L306.45 407.654C312.96 410.704 319.77 411.084 327.25 408.124Z" fill="#7ED2FF" />
  <path
    d="M310.88 412.314C310.465 412.44 310.111 412.712 309.882 413.08C309.654 413.448 309.568 413.887 309.64 414.314C309.747 414.741 310.015 415.109 310.388 415.342C310.761 415.576 311.21 415.655 311.64 415.564C312.085 415.431 312.465 415.138 312.705 414.74C312.945 414.343 313.029 413.87 312.94 413.414C312.782 412.982 312.461 412.629 312.047 412.429C311.632 412.23 311.157 412.199 310.72 412.344"
    fill="white" />
  <path d="M305.77 422.184L305.93 418.694L347.77 420.214C347.77 420.214 349.71 421.074 349.48 422.434L305.77 422.184Z" fill="#263238" />
  <path
    d="M327.41 409.544C327.41 409.754 326.33 409.844 325.28 410.544C324.23 411.244 323.66 412.114 323.47 412.034C323.28 411.954 323.6 410.714 324.89 409.914C326.18 409.114 327.46 409.314 327.41 409.544Z"
    fill="#263238" />
  <path
    d="M331.98 411.464C332.03 411.674 331.1 412.024 330.37 412.924C329.64 413.824 329.43 414.774 329.21 414.764C328.99 414.754 328.87 413.544 329.8 412.454C330.73 411.364 331.97 411.314 331.98 411.464Z"
    fill="#263238" />
  <path
    d="M334.55 416.964C334.35 416.964 334.06 415.964 334.62 414.774C335.18 413.584 336.17 413.154 336.26 413.324C336.35 413.494 335.73 414.124 335.26 415.094C334.79 416.064 334.77 416.944 334.55 416.964Z"
    fill="#263238" />
  <path
    d="M326.13 41.1643C327.26 38.3643 325.89 34.9743 323.46 33.1643C320.899 31.4785 317.776 30.8712 314.77 31.4743C311.804 32.0962 308.933 33.1048 306.23 34.4743C304.973 33.2067 303.389 32.3134 301.653 31.8941C299.918 31.4748 298.101 31.5462 296.404 32.1001C294.706 32.654 293.197 33.6687 292.043 35.0309C290.889 36.3932 290.137 38.0493 289.87 39.8143C288.789 39.5422 287.654 39.5696 286.587 39.8936C285.52 40.2175 284.562 40.8259 283.815 41.6533C283.067 42.4808 282.559 43.4961 282.345 44.5903C282.131 45.6845 282.219 46.8163 282.6 47.8643L296.12 52.6143L310.88 78.6143C313.061 80.4754 315.845 81.4792 318.712 81.4386C321.58 81.398 324.334 80.3157 326.462 78.3935C328.59 76.4714 329.945 73.8409 330.276 70.9926C330.607 68.1444 329.89 65.273 328.26 62.9143C329.087 62.1789 329.789 61.3144 330.34 60.3543C331.52 59.6568 332.549 58.7319 333.367 57.6332C334.186 56.5345 334.779 55.284 335.11 53.9543C336.42 48.1643 331.94 41.8443 326.13 41.1643Z"
    fill="#263238" />
  <path
    d="M317.18 95.3144C316.34 91.0844 315.76 88.1844 315.77 88.2144C315.78 88.2444 323.77 85.1144 323.19 73.9844C322.91 68.4444 320.8 59.7144 318.84 52.6344C317.08 46.2544 311.13 39.2244 304.84 41.2544L285.77 50.5544C283.86 51.1744 283.53 52.9744 283.98 54.9244V55.9244L291.39 86.5844L294.52 100.284C295.187 103.097 296.883 105.559 299.275 107.184C301.666 108.809 304.579 109.48 307.44 109.064C309.003 108.845 310.504 108.308 311.851 107.487C313.199 106.666 314.365 105.578 315.277 104.291C316.189 103.003 316.828 101.543 317.155 99.9992C317.483 98.4556 317.491 96.8614 317.18 95.3144Z"
    fill="#FFBE9D" />
  <path
    d="M318.77 60.0344C318.85 60.3893 318.791 60.7613 318.605 61.0739C318.419 61.3865 318.12 61.6158 317.77 61.7144C317.593 61.7638 317.408 61.7769 317.227 61.7529C317.045 61.7289 316.87 61.6684 316.712 61.575C316.554 61.4816 316.416 61.3572 316.308 61.2093C316.199 61.0614 316.122 60.8931 316.08 60.7144C316 60.3609 316.059 59.9902 316.246 59.6792C316.432 59.3682 316.731 59.1409 317.08 59.0444C317.256 58.9935 317.441 58.9789 317.622 59.0016C317.804 59.0243 317.98 59.0837 318.138 59.1764C318.296 59.269 318.433 59.3928 318.542 59.5404C318.651 59.6879 318.728 59.856 318.77 60.0344Z"
    fill="#263238" />
  <path
    d="M317.9 57.9044C317.76 58.1244 316.55 57.5744 315.07 57.9044C313.59 58.2344 312.65 59.1944 312.45 59.0444C312.25 58.8944 312.45 58.6144 312.86 58.1744C313.41 57.593 314.126 57.195 314.91 57.0344C315.684 56.8676 316.49 56.9553 317.21 57.2844C317.77 57.5144 317.96 57.8144 317.9 57.9044Z"
    fill="#263238" />
  <path
    d="M304.25 63.3143C304.33 63.6678 304.271 64.0385 304.084 64.3495C303.898 64.6605 303.599 64.8878 303.25 64.9842C303.077 65.0345 302.896 65.05 302.718 65.0299C302.539 65.0098 302.366 64.9544 302.209 64.867C302.052 64.7796 301.913 64.6618 301.802 64.5206C301.691 64.3794 301.608 64.2175 301.56 64.0443C301.48 63.6894 301.539 63.3173 301.725 63.0047C301.911 62.6922 302.21 62.4629 302.56 62.3643C302.733 62.3142 302.915 62.2991 303.094 62.3198C303.273 62.3406 303.447 62.3968 303.604 62.4853C303.761 62.5737 303.899 62.6925 304.01 62.8348C304.121 62.9772 304.203 63.1401 304.25 63.3143Z"
    fill="#263238" />
  <path
    d="M303.52 61.4344C303.39 61.6544 302.17 61.0944 300.69 61.4344C299.21 61.7744 298.27 62.7144 298.07 62.5744C297.87 62.4344 298.07 62.1444 298.48 61.6944C299.033 61.1182 299.748 60.7241 300.53 60.5644C301.303 60.4001 302.108 60.4841 302.83 60.8044C303.36 61.0444 303.59 61.3144 303.52 61.4344Z"
    fill="#263238" />
  <path
    d="M311.05 70.8343C311.783 70.4298 312.562 70.1142 313.37 69.8943C313.74 69.7743 314.09 69.6243 314.1 69.3543C314.048 68.9565 313.877 68.5837 313.61 68.2843L311.88 65.6243C309.46 61.8343 307.62 58.6943 307.77 58.6243C307.92 58.5543 310.01 61.5243 312.43 65.3143L314.12 67.9943C314.452 68.4044 314.632 68.9166 314.63 69.4443C314.6 69.5881 314.539 69.7236 314.451 69.8411C314.363 69.9587 314.25 70.0553 314.12 70.1243C313.924 70.2278 313.716 70.3052 313.5 70.3543C312.709 70.6251 311.885 70.7866 311.05 70.8343Z"
    fill="#263238" />
  <path d="M315.77 88.2143C310.712 89.3574 305.436 89.0735 300.53 87.3943C300.53 87.3943 305.77 94.2343 316.34 90.9643L315.77 88.2143Z" fill="#EB996E" />
  <path
    d="M303.77 59.3144C303.67 59.7444 302.14 59.7344 300.4 60.1644C298.66 60.5944 297.28 61.2444 297 60.9044C296.88 60.7444 297.08 60.3244 297.61 59.9044C298.314 59.3112 299.151 58.8962 300.05 58.6944C300.941 58.483 301.869 58.483 302.76 58.6944C303.47 58.8244 303.84 59.1144 303.77 59.3144Z"
    fill="#263238" />
  <path
    d="M317.33 53.1844C317.09 53.5844 315.81 53.4844 314.33 53.7744C312.85 54.0644 311.68 54.5644 311.33 54.2744C311.17 54.1244 311.33 53.7444 311.76 53.2744C312.42 52.7191 313.218 52.3528 314.07 52.2144C314.908 52.0456 315.775 52.1078 316.58 52.3944C317.19 52.6744 317.43 52.9844 317.33 53.1844Z"
    fill="#263238" />
  <path
    d="M290.48 43.3944C290.701 44.4777 291.158 45.4989 291.819 46.3856C292.479 47.2723 293.327 48.0027 294.302 48.5248C295.276 49.0469 296.354 49.348 297.458 49.4067C298.562 49.4654 299.666 49.2803 300.69 48.8644C302.27 48.2244 303.91 47.0244 305.51 47.6044C307.11 48.1844 307.77 50.4644 309.3 51.3144C311.55 52.5744 314.3 50.3944 316.81 50.6144C318.81 50.7844 320.32 52.3144 321.87 53.6144C323.42 54.9144 325.56 55.8944 327.31 54.9544C326.909 53.2844 326.315 51.6668 325.54 50.1344C324.758 48.5916 323.464 47.3685 321.88 46.6744C321 46.3244 320.05 46.2044 319.21 45.7744C317.4 44.8544 316.59 42.7744 315.28 41.2044C314.42 40.215 313.336 39.4449 312.119 38.958C310.901 38.4711 309.585 38.2813 308.28 38.4044C306.12 38.6244 304.07 39.7144 301.89 39.6244C300.28 39.5544 298.74 38.8344 297.13 38.8644C294 38.8644 291.65 41.6644 289.91 44.2744"
    fill="#263238" />
  <path
    d="M301.02 45.6843C299.58 45.5743 296.64 45.2743 295.67 44.2543C294.685 43.1521 293.427 42.3281 292.023 41.8648C290.619 41.4015 289.118 41.3151 287.67 41.6143C286.233 42.0427 284.972 42.9209 284.072 44.1199C283.172 45.3189 282.68 46.7751 282.67 48.2743C280.92 48.7013 279.318 49.5929 278.033 50.8549C276.749 52.117 275.828 53.7026 275.37 55.4443C274.905 57.2677 274.889 59.1768 275.324 61.0075C275.76 62.8383 276.633 64.5359 277.87 65.9543C278.471 66.7055 279.019 67.4974 279.51 68.3243C278.832 69.1655 278.236 70.0696 277.73 71.0243C275.44 76.0843 281.65 78.0243 281.65 78.0243C281.65 81.4243 284.8 81.4043 286.81 81.3943C288.82 81.3843 289.93 86.7543 291.5 86.5443L289.91 69.9743C290.143 70.0649 290.39 70.1123 290.64 70.1143C294.43 70.1843 293.44 63.0043 292.22 61.1143C293.349 59.7087 294.303 58.1707 295.06 56.5343C295.746 54.0329 295.795 51.3992 295.2 48.8743C296.47 48.7143 301.64 45.7243 301.02 45.6843Z"
    fill="#263238" />
  <path
    d="M290.41 70.8543C290.281 70.3278 290.021 69.8425 289.653 69.4438C289.286 69.0452 288.824 68.746 288.309 68.5743C287.795 68.4025 287.246 68.3638 286.713 68.4617C286.179 68.5597 285.68 68.791 285.26 69.1343C284.26 69.9943 283.73 71.4343 284.33 73.8443C285.95 80.2843 292.08 77.3343 292.04 77.1543C292 76.9743 291.11 73.5143 290.41 70.8543Z"
    fill="#FFBE9D" />
  <path
    d="M289.46 75.2044C289.46 75.2044 289.37 75.3144 289.2 75.4444C288.964 75.6256 288.666 75.7081 288.37 75.6744C287.63 75.5944 286.78 74.6744 286.46 73.5044C286.308 72.9577 286.277 72.3842 286.37 71.8244C286.38 71.6069 286.443 71.3951 286.552 71.207C286.662 71.019 286.816 70.8602 287 70.7444C287.121 70.6789 287.262 70.6581 287.397 70.6855C287.532 70.7129 287.654 70.7868 287.74 70.8944C287.87 71.0444 287.86 71.1844 287.9 71.1944C287.94 71.2044 288.01 71.0444 287.9 70.7944C287.823 70.6461 287.7 70.5267 287.55 70.4544C287.338 70.3687 287.102 70.3687 286.89 70.4544C286.639 70.5736 286.422 70.7544 286.259 70.9799C286.097 71.2054 285.994 71.4684 285.96 71.7444C285.83 72.3741 285.854 73.0259 286.03 73.6444C286.142 74.2251 286.422 74.7598 286.837 75.1815C287.251 75.6032 287.781 75.8929 288.36 76.0144C288.548 76.022 288.736 75.9873 288.909 75.9129C289.082 75.8385 289.236 75.7262 289.36 75.5844C289.49 75.3644 289.49 75.2144 289.46 75.2044Z"
    fill="#EB996E" />
  <path
    d="M324.94 61.8643C324.94 61.8643 325.53 61.4143 326.35 60.4143C327.482 58.9734 328.176 57.238 328.35 55.4143C328.482 54.1693 328.36 52.9104 327.99 51.7143C327.563 50.3423 326.771 49.1119 325.7 48.1543C324.463 47.0739 322.965 46.3358 321.355 46.013C319.745 45.6903 318.078 45.7941 316.52 46.3143C316.22 46.4143 315.94 46.5643 315.66 46.6843C315.38 46.8043 315.13 46.9843 314.87 47.1343L314.47 47.3543V46.9143C314.461 46.1396 314.174 45.394 313.66 44.8143C313.134 44.2516 312.488 43.8142 311.77 43.5343C310.412 42.9683 308.907 42.8561 307.48 43.2143C304.72 43.8443 302.38 45.1043 300.17 45.3643C298.437 45.6655 296.654 45.3089 295.17 44.3643C294.778 44.0948 294.439 43.7559 294.17 43.3643C294.01 43.0943 293.93 42.9443 293.95 42.9343C294.312 43.4281 294.755 43.8574 295.26 44.2043C296.72 45.047 298.435 45.3347 300.09 45.0143C301.242 44.7976 302.367 44.4625 303.45 44.0143C304.721 43.5062 306.024 43.082 307.35 42.7443C308.089 42.5654 308.85 42.488 309.61 42.5143C310.412 42.5567 311.201 42.7394 311.94 43.0543C312.705 43.381 313.388 43.8727 313.94 44.4943C314.531 45.1713 314.864 46.0355 314.88 46.9343L314.48 46.7143L315.31 46.2343C315.62 46.1143 315.91 45.9543 316.23 45.8443C317.872 45.282 319.633 45.1644 321.335 45.5034C323.037 45.8424 324.619 46.6259 325.92 47.7743C327.045 48.7925 327.868 50.1 328.3 51.5543C328.749 53.0956 328.809 54.724 328.476 56.2943C328.143 57.8646 327.426 59.3281 326.39 60.5543C326.061 60.9301 325.688 61.2658 325.28 61.5543C325.18 61.671 325.066 61.7751 324.94 61.8643Z"
    fill="#455A64" />
  <path
    d="M323.64 39.2544C322.983 38.9211 322.283 38.6821 321.56 38.5444C320.733 38.4314 319.891 38.5101 319.1 38.7744C318.075 39.088 317.184 39.7358 316.57 40.6144L316.32 40.9644L316.17 40.5644C315.648 39.3352 314.807 38.2673 313.735 37.4711C312.663 36.6748 311.398 36.1789 310.07 36.0344C307.985 35.956 305.93 36.5522 304.21 37.7344C302.745 38.6894 301.187 39.4935 299.56 40.1344C298.438 40.5587 297.23 40.7029 296.04 40.5544C295.723 40.4959 295.412 40.4089 295.11 40.2944C294.91 40.2044 294.8 40.1544 294.81 40.1344C294.82 40.1144 295.26 40.2644 296.07 40.3444C297.22 40.4163 298.372 40.2283 299.44 39.7944C301.021 39.1049 302.537 38.2749 303.97 37.3144C304.855 36.7649 305.793 36.3059 306.77 35.9444C307.844 35.5528 308.992 35.4059 310.13 35.5144C311.548 35.6693 312.898 36.2058 314.036 37.0669C315.173 37.928 316.056 39.0814 316.59 40.4044H316.2C316.888 39.4647 317.87 38.7818 318.99 38.4644C319.841 38.2176 320.738 38.1731 321.61 38.3344C322.162 38.4392 322.69 38.6424 323.17 38.9344C323.341 39.0182 323.499 39.1259 323.64 39.2544Z"
    fill="#455A64" />
  <path
    d="M310.97 76.9044C310.89 76.9044 310.8 76.6044 310.53 76.1944C310.205 75.6448 309.719 75.2081 309.138 74.9435C308.556 74.6788 307.908 74.5988 307.28 74.7144C306.79 74.7844 306.49 74.9244 306.46 74.8544C306.43 74.7844 306.66 74.5444 307.2 74.3544C307.907 74.127 308.673 74.1697 309.35 74.4744C310.033 74.7786 310.574 75.3334 310.86 76.0244C311.07 76.5444 311.04 76.8944 310.97 76.9044Z"
    fill="#263238" />
  <path
    d="M290.56 78.1444C290.56 78.1444 290.85 78.6444 290.47 79.4044C290.255 79.8592 289.877 80.2162 289.41 80.4044C289.119 80.5086 288.807 80.5439 288.5 80.5075C288.193 80.471 287.899 80.3639 287.64 80.1944C287.377 80.0344 287.154 79.8158 286.989 79.5556C286.825 79.2954 286.722 79.0007 286.69 78.6944C286.66 78.2005 286.805 77.7117 287.1 77.3144C287.62 76.6544 288.2 76.6344 288.2 76.6944C288.2 76.7544 287.76 76.9244 287.41 77.5244C287.207 77.8605 287.123 78.2548 287.17 78.6444C287.207 78.8726 287.294 79.0901 287.423 79.2817C287.553 79.4733 287.722 79.6346 287.92 79.7544C288.115 79.8793 288.335 79.9616 288.564 79.9961C288.793 80.0305 289.027 80.0163 289.25 79.9544C289.619 79.8223 289.938 79.5774 290.16 79.2544C290.55 78.6344 290.48 78.1444 290.56 78.1444Z"
    fill="#7ED2FF" />
  <path
    d="M287.19 77.7543C287.24 77.7543 287.19 78.0943 286.72 78.3143C286.489 78.4103 286.236 78.4381 285.989 78.3946C285.743 78.3511 285.514 78.238 285.33 78.0687C285.146 77.8994 285.015 77.681 284.951 77.4392C284.887 77.1974 284.894 76.9424 284.97 76.7043C285.068 76.4339 285.255 76.2047 285.5 76.0543C285.91 75.8043 286.22 75.9043 286.21 75.9643C286.2 76.0243 285.97 76.0943 285.72 76.3443C285.597 76.498 285.522 76.6846 285.505 76.8807C285.487 77.0768 285.528 77.2736 285.622 77.4466C285.716 77.6196 285.859 77.761 286.033 77.8531C286.207 77.9452 286.404 77.9839 286.6 77.9643C286.94 77.8943 287.12 77.7143 287.19 77.7543Z"
    fill="#7ED2FF" />
  <path
    d="M298.18 166.564C298.18 166.564 322.94 168.004 337.58 168.134C348.91 168.244 353.97 165.234 356.23 157.944C358.13 151.834 354.05 140.104 354.05 140.104C346.38 140.104 341.65 141.204 336.72 143.514L338.03 148.874L298.11 152.314L298.18 166.564Z"
    fill="#FFBE9D" />
  <path
    d="M346.35 154.594C345.276 153.198 344.022 151.951 342.62 150.884C341.116 149.964 339.495 149.251 337.8 148.764C338.334 148.688 338.878 148.735 339.39 148.904C340.648 149.202 341.841 149.727 342.91 150.454C343.981 151.184 344.907 152.106 345.64 153.174C346.2 153.994 346.41 154.564 346.35 154.594Z"
    fill="#EB996E" />
  <path
    d="M289.12 143.474C289.12 143.474 281.46 145.314 275.83 149.074L281.83 165.334C283.83 170.674 289.94 173.334 294.83 170.534C302.36 166.224 305.02 153.664 305.02 153.664L313.29 117.784L299.58 109.194L289.17 143.474"
    fill="#FFBE9D" />
  <path
    d="M299.53 109.194L300.09 97.3943L297.02 85.3943C296.85 84.7343 296.77 83.9043 297.31 83.5043C297.578 83.2989 297.908 83.1927 298.246 83.2036C298.583 83.2146 298.906 83.342 299.16 83.5643C299.99 84.4243 303.99 94.9143 303.99 94.9143C303.99 94.9143 310.06 91.2743 311.14 91.0943C312.22 90.9143 313.57 94.1843 313.66 94.4343C313.7 95.1671 313.7 95.9015 313.66 96.6343C313.66 96.6343 317.41 96.7443 317.75 97.2543C318.023 98.2962 318.167 99.3674 318.18 100.444C318.18 100.444 319.77 100.954 320.02 102.154C320.27 103.354 320.79 105.334 320.02 105.774C319.25 106.214 317.69 107.074 317.69 107.074C317.69 107.074 317.06 113.194 316.89 113.754C316.72 114.314 313.21 117.754 313.21 117.754L299.53 109.194Z"
    fill="#FFBE9D" />
  <path
    d="M286.77 170.774C286.77 170.774 287.14 170.994 287.92 171.244C289.061 171.602 290.267 171.698 291.45 171.524C293.35 171.253 295.13 170.433 296.57 169.164C298.473 167.437 300.081 165.411 301.33 163.164C302.065 161.844 302.684 160.462 303.18 159.034C303.7 157.463 304.131 155.864 304.47 154.244C305.25 150.874 306.1 147.244 307 143.384C308.8 135.674 310.82 127.054 313 117.764V117.694H313.05C313.74 117.014 314.43 116.324 315.12 115.604C315.46 115.244 315.8 114.884 316.12 114.514C316.28 114.324 316.45 114.134 316.58 113.944C316.681 113.756 316.739 113.548 316.75 113.334C317.02 111.334 317.23 109.264 317.45 107.174V107.044L317.57 106.984L319.48 105.914C319.62 105.824 319.84 105.724 319.93 105.644C320.026 105.558 320.089 105.441 320.11 105.314C320.157 104.983 320.157 104.646 320.11 104.314C320.013 103.581 319.863 102.856 319.66 102.144C319.32 101.522 318.749 101.059 318.07 100.854L317.9 100.794V100.624C317.9 100.044 317.84 99.4442 317.77 98.8542C317.743 98.5587 317.699 98.265 317.64 97.9742C317.617 97.8461 317.576 97.7217 317.52 97.6042C317.52 97.5342 317.52 97.6042 317.46 97.5442C317.406 97.5157 317.349 97.4923 317.29 97.4742C316.087 97.2122 314.861 97.0748 313.63 97.0642H313.37V96.8042C313.37 96.1842 313.37 95.4942 313.37 94.8042C313.329 94.5689 313.248 94.3423 313.13 94.1343C313.03 93.8943 312.91 93.6642 312.79 93.4242C312.556 92.9611 312.282 92.5193 311.97 92.1042C311.829 91.9108 311.656 91.7419 311.46 91.6042C311.388 91.5429 311.298 91.5045 311.204 91.4939C311.11 91.4832 311.014 91.5007 310.93 91.5442C310.446 91.7296 309.975 91.9467 309.52 92.1942C307.66 93.1942 305.84 94.1943 304.06 95.2743L303.8 95.4342L303.69 95.1542C302.75 92.7842 301.81 90.4442 300.89 88.1542C300.43 87.0042 299.98 85.8542 299.52 84.7242C299.449 84.4711 299.308 84.243 299.114 84.0662C298.919 83.8893 298.679 83.7708 298.42 83.7242C298.181 83.6449 297.922 83.6492 297.686 83.7365C297.45 83.8237 297.25 83.9886 297.12 84.2042C296.995 84.4188 296.943 84.6676 296.97 84.9142C296.97 85.1342 297.11 85.4742 297.17 85.7442C297.33 86.3242 297.48 86.8942 297.63 87.4642C297.93 88.6142 298.22 89.7442 298.52 90.8642C299.107 93.1176 299.683 95.3176 300.25 97.4642V97.5342C300.05 101.641 299.86 105.574 299.68 109.334V109.314L290.57 138.954L288 147.204C287.7 148.134 287.47 148.864 287.31 149.374C287.15 149.884 287.05 150.104 287.05 150.104C287.05 150.104 287.1 149.844 287.24 149.354L287.87 147.164C288.45 145.234 289.28 142.444 290.33 138.884C292.49 131.724 295.56 121.504 299.27 109.184V109.234C299.443 105.488 299.62 101.554 299.8 97.4342V97.5042C299.23 95.3542 298.64 93.1543 298.05 90.9143L297.15 87.5142C297 86.9442 296.85 86.3642 296.69 85.7942C296.604 85.4948 296.534 85.1911 296.48 84.8842C296.443 84.5371 296.517 84.1872 296.69 83.8842C296.875 83.5723 297.161 83.3325 297.5 83.2042C297.836 83.106 298.191 83.0949 298.532 83.1719C298.873 83.2488 299.189 83.4114 299.45 83.6442C299.701 83.8797 299.887 84.1759 299.99 84.5042L301.36 87.9342C302.29 90.2342 303.22 92.5742 304.17 94.9342L303.8 94.8042C305.59 93.7442 307.39 92.6842 309.29 91.6942C309.77 91.4432 310.264 91.2195 310.77 91.0243C310.928 90.9585 311.1 90.9344 311.27 90.9542C311.441 90.979 311.605 91.0404 311.75 91.1343C311.991 91.307 312.203 91.5162 312.38 91.7542C312.714 92.1918 313.006 92.6607 313.25 93.1542C313.38 93.4042 313.5 93.6442 313.61 93.8942C313.752 94.159 313.847 94.4467 313.89 94.7442C313.89 95.4542 313.89 96.1142 313.89 96.7442L313.64 96.4742C314.925 96.4829 316.206 96.6304 317.46 96.9143C317.546 96.9443 317.63 96.9811 317.71 97.0243C317.82 97.0841 317.91 97.1744 317.97 97.2842C318.048 97.4465 318.105 97.6179 318.14 97.7942C318.2 98.1142 318.24 98.4142 318.28 98.7242C318.34 99.3342 318.38 99.9342 318.41 100.534L318.23 100.294C318.639 100.414 319.019 100.616 319.348 100.888C319.676 101.159 319.946 101.495 320.14 101.874C320.359 102.634 320.52 103.41 320.62 104.194C320.689 104.595 320.689 105.004 320.62 105.404C320.576 105.647 320.449 105.866 320.26 106.024C320.096 106.134 319.926 106.234 319.75 106.324L317.85 107.314L317.98 107.124C317.75 109.214 317.54 111.264 317.26 113.294L317.2 113.684C317.177 113.842 317.111 113.991 317.01 114.114C316.863 114.333 316.699 114.54 316.52 114.734C316.18 115.114 315.84 115.484 315.52 115.844C314.83 116.564 314.14 117.254 313.44 117.934L313.51 117.814C311.31 127.094 309.27 135.714 307.44 143.424C306.53 147.274 305.66 150.904 304.86 154.264C304.518 155.896 304.077 157.506 303.54 159.084C303.025 160.525 302.39 161.92 301.64 163.254C300.363 165.529 298.717 167.577 296.77 169.314C295.287 170.591 293.461 171.405 291.52 171.654C290.312 171.816 289.082 171.693 287.93 171.294C287.637 171.187 287.353 171.056 287.08 170.904L286.77 170.774Z"
    fill="#EB996E" />
  <path
    d="M313.67 96.6644C313.67 96.7344 313.33 96.7744 312.8 96.7944C312.127 96.8072 311.457 96.8877 310.8 97.0344C310.166 97.1903 309.581 97.5032 309.1 97.9444C308.74 98.2844 308.58 98.5744 308.5 98.5444C308.42 98.5144 308.5 98.1544 308.83 97.6944C309.296 97.1121 309.944 96.7035 310.67 96.5344C311.37 96.3619 312.097 96.3279 312.81 96.4344C313.35 96.5044 313.67 96.5944 313.67 96.6644Z"
    fill="#EB996E" />
  <path
    d="M310.77 96.7742C310.64 96.7242 310.63 96.4142 310.77 96.0842C310.91 95.7542 311.11 95.5242 311.24 95.5742C311.37 95.6242 311.39 95.9342 311.24 96.2642C311.09 96.5942 310.87 96.8242 310.77 96.7742Z"
    fill="#EB996E" />
  <path
    d="M318.35 100.404C317.379 100.705 316.366 100.843 315.35 100.814C315.03 100.804 314.713 100.87 314.424 101.007C314.135 101.145 313.883 101.349 313.69 101.604C313.43 102.014 313.52 102.354 313.44 102.374C313.36 102.394 313.12 102.044 313.37 101.444C313.508 101.106 313.759 100.827 314.08 100.654C314.45 100.451 314.859 100.328 315.28 100.294C316.301 100.138 317.343 100.175 318.35 100.404Z"
    fill="#EB996E" />
  <path
    d="M317.69 104.004C317.83 104.004 317.91 104.744 317.87 105.654C317.83 106.564 317.68 107.284 317.54 107.284C317.4 107.284 317.31 106.534 317.35 105.624C317.39 104.714 317.54 103.994 317.69 104.004Z"
    fill="#EB996E" />
  <path
    d="M321.84 130.934L322.73 127.874C322.771 127.734 322.847 127.607 322.952 127.506C323.057 127.404 323.186 127.332 323.327 127.295C323.469 127.259 323.617 127.26 323.758 127.299C323.898 127.337 324.027 127.411 324.13 127.514L325.3 128.704L326.02 125.814C326.062 125.647 326.155 125.497 326.285 125.385C326.416 125.272 326.578 125.203 326.749 125.185C326.92 125.168 327.093 125.203 327.243 125.287C327.394 125.371 327.515 125.499 327.59 125.654L329.22 129.074L321.84 130.934Z"
    fill="white" />
  <path d="M329.24 130.384C328.121 130.925 326.934 131.309 325.71 131.524C324.527 131.911 323.294 132.126 322.05 132.164C324.352 131.24 326.772 130.64 329.24 130.384Z" fill="white" />
  <path
    d="M269.77 113.314C269.77 113.314 269.4 113.694 268.88 114.504C268.182 115.658 267.723 116.94 267.53 118.274C267.245 120.261 267.185 122.274 267.35 124.274C267.46 126.544 267.64 129.024 267.92 131.624C268.394 136.064 269.098 140.477 270.03 144.844C270.38 146.524 270.7 147.844 270.92 148.844C271.02 149.264 271.11 149.614 271.18 149.914C271.25 150.214 271.26 150.294 271.26 150.294C271.26 150.294 271.21 150.174 271.14 149.934C271.07 149.694 270.96 149.274 270.85 148.864C270.6 147.934 270.26 146.594 269.85 144.914C268.878 140.549 268.153 136.132 267.68 131.684C267.4 129.084 267.23 126.594 267.13 124.324C266.978 122.322 267.052 120.31 267.35 118.324C267.565 116.972 268.055 115.679 268.79 114.524C269.061 114.079 269.39 113.672 269.77 113.314Z"
    fill="white" />
  <path
    d="M290.82 99.6943L290.59 99.8143L289.93 100.134C289.36 100.404 288.53 100.804 287.54 101.354C284.959 102.794 282.453 104.362 280.03 106.054C277.17 108.054 274.64 109.874 272.79 111.194L270.6 112.744L269.99 113.154C269.922 113.209 269.848 113.256 269.77 113.294C269.827 113.227 269.895 113.17 269.97 113.124L270.55 112.684L272.7 111.074C274.53 109.724 277.05 107.844 279.91 105.884C282.337 104.185 284.861 102.629 287.47 101.224C288.47 100.694 289.31 100.314 289.9 100.064L290.57 99.7843C290.77 99.7143 290.77 99.6843 290.82 99.6943Z"
    fill="white" />
  <path
    d="M338.51 106.204C338.447 106.169 338.39 106.126 338.34 106.074L337.89 105.684C337.333 105.214 336.748 104.776 336.14 104.374C334.11 103.08 331.956 101.991 329.71 101.124C327.471 100.237 325.184 99.4761 322.86 98.8442C321.96 98.5942 321.24 98.4142 320.73 98.2942L320.16 98.1442C320.091 98.1299 320.023 98.1063 319.96 98.0742H320.17L320.75 98.1842C321.26 98.2842 321.99 98.4442 322.89 98.6742C325.236 99.2665 327.541 100.011 329.79 100.904C332.049 101.771 334.205 102.884 336.22 104.224C337.059 104.792 337.827 105.457 338.51 106.204Z"
    fill="white" />
  <path
    d="M291.1 182.534C290.964 182.51 290.833 182.466 290.71 182.404C290.363 182.252 290.028 182.071 289.71 181.864C289.171 181.541 288.702 181.116 288.327 180.611C287.953 180.107 287.682 179.534 287.53 178.924C287.255 177.695 287.392 176.409 287.92 175.264C288.072 174.909 288.267 174.573 288.5 174.264C288.66 174.054 288.77 173.954 288.78 173.964C288.507 174.391 288.263 174.835 288.05 175.294C287.585 176.418 287.477 177.657 287.74 178.844C288.026 180.016 288.74 181.04 289.74 181.714C290.57 182.314 291.12 182.494 291.1 182.534Z"
    fill="white" />
  <path
    d="M287.92 171.704C288.133 172.101 288.291 172.525 288.39 172.964C288.547 173.385 288.641 173.826 288.67 174.274C288.443 173.887 288.281 173.464 288.19 173.024C288.026 172.603 287.935 172.156 287.92 171.704Z"
    fill="white" />
  <path
    d="M301.44 395.914L331.94 395.764L331.39 290.314L331.1 183.044L289.77 182.514L282.34 196.514C279.3 202.143 277.362 208.3 276.63 214.654C276.13 219.514 279.77 235.314 281.03 239.314L292.4 275.374L301.44 395.914Z"
    fill="#263238" />
  <path
    d="M340.05 183.174L373.57 274.544C375.556 280.431 376.216 286.685 375.502 292.857C374.788 299.028 372.718 304.966 369.44 310.244L330.52 386.244L308.64 358.864L341.2 290.864L312.5 244.314L317.33 183.314L330.85 183.094L340.05 183.174Z"
    fill="#263238" />
  <path
    d="M328.32 213.784C328.32 213.784 328.32 213.944 328.32 214.254C328.32 214.564 328.37 215.044 328.41 215.634C328.48 216.864 328.57 218.634 328.69 220.924C328.92 225.554 329.24 232.204 329.69 240.414C330.14 248.624 330.52 258.414 331.02 269.314C331.26 274.754 331.52 280.464 331.78 286.384C331.97 289.384 331.89 292.384 331.92 295.384C331.95 298.384 331.92 301.544 331.92 304.684C331.92 329.814 332 352.564 332.03 369.054C332.03 377.274 332.03 383.934 332.03 388.564C332.03 390.854 332.03 392.634 332.03 393.874C332.03 394.454 332.03 394.874 332.03 395.254C332.03 395.634 332.03 395.724 332.03 395.724C332.03 395.724 332.03 395.564 332.03 395.254V393.874C332.03 392.634 332.03 390.874 331.97 388.564C331.97 383.934 331.89 377.284 331.83 369.064C331.76 352.574 331.67 329.824 331.57 304.694C331.57 301.554 331.57 298.454 331.57 295.394C331.57 292.334 331.63 289.314 331.44 286.394C331.19 280.484 330.94 274.774 330.71 269.334C330.25 258.454 329.83 248.664 329.49 240.424C329.15 232.184 328.9 225.564 328.71 220.934C328.63 218.654 328.57 216.874 328.53 215.634C328.53 215.044 328.53 214.634 328.53 214.254C328.53 213.874 328.32 213.784 328.32 213.784Z"
    fill="#455A64" />
  <path
    d="M327.55 184.974C327.667 185.296 327.738 185.633 327.76 185.974C327.87 186.614 327.99 187.544 328.13 188.704C328.39 191.014 328.67 194.224 328.83 197.774C328.99 201.324 329 204.544 328.95 206.874C328.95 208.034 328.88 208.984 328.83 209.634C328.84 209.972 328.8 210.309 328.71 210.634C328.584 209.385 328.541 208.129 328.58 206.874C328.58 204.544 328.47 201.344 328.31 197.794C328.15 194.244 327.93 191.054 327.76 188.794C327.618 187.526 327.548 186.251 327.55 184.974Z"
    fill="#455A64" />
  <path
    d="M320.83 187.034C320.88 187.104 320.31 187.364 320.15 188.174C320.105 188.394 320.117 188.622 320.186 188.835C320.254 189.049 320.376 189.241 320.54 189.394C320.738 189.578 320.984 189.702 321.25 189.75C321.516 189.797 321.79 189.768 322.04 189.664C322.28 189.541 322.48 189.353 322.618 189.121C322.756 188.89 322.826 188.624 322.82 188.354C322.811 188.131 322.744 187.913 322.627 187.722C322.51 187.531 322.346 187.374 322.15 187.264C321.743 187.067 321.29 186.988 320.84 187.034C320.84 187.034 320.94 186.904 321.2 186.824C321.575 186.733 321.97 186.772 322.32 186.934C322.599 187.051 322.841 187.242 323.017 187.488C323.194 187.733 323.299 188.023 323.32 188.324C323.36 188.697 323.282 189.072 323.097 189.398C322.912 189.723 322.63 189.983 322.29 190.14C321.949 190.296 321.569 190.342 321.201 190.272C320.834 190.201 320.497 190.016 320.24 189.744C320.027 189.533 319.877 189.268 319.805 188.977C319.732 188.686 319.741 188.381 319.83 188.094C319.93 187.72 320.156 187.392 320.47 187.164C320.67 187.024 320.82 187.004 320.83 187.034Z"
    fill="#455A64" />
  <path
    d="M304.83 185.224C304.977 185.54 305.069 185.878 305.1 186.224C305.261 187.122 305.291 188.038 305.19 188.944C305.046 190.294 304.656 191.605 304.04 192.814C303.295 194.318 302.193 195.616 300.829 196.594C299.466 197.572 297.883 198.201 296.22 198.424C294.889 198.623 293.532 198.572 292.22 198.274C291.332 198.082 290.477 197.762 289.68 197.324C289.379 197.182 289.102 196.993 288.86 196.764C289.965 197.262 291.118 197.647 292.3 197.914C293.722 198.21 295.19 198.208 296.612 197.907C298.033 197.607 299.377 197.016 300.558 196.17C301.739 195.324 302.732 194.243 303.474 192.994C304.216 191.745 304.692 190.356 304.87 188.914C304.987 187.686 304.974 186.449 304.83 185.224Z"
    fill="#455A64" />
  <path
    d="M344.07 193.984C343.418 194.06 342.757 193.981 342.14 193.754C340.629 193.279 339.273 192.409 338.21 191.234C337.138 190.065 336.402 188.628 336.08 187.074C335.923 186.441 335.923 185.778 336.08 185.144C336.17 185.144 336.18 185.874 336.48 186.994C336.885 188.442 337.622 189.774 338.633 190.887C339.643 192 340.899 192.862 342.3 193.404C343.34 193.814 344.08 193.884 344.07 193.984Z"
    fill="#455A64" />
  <path
    d="M355.98 292.484C355.479 293.056 354.879 293.534 354.21 293.894C353.508 294.34 352.743 294.677 351.94 294.894C350.93 295.162 349.865 295.134 348.87 294.814C347.123 294.156 345.627 292.967 344.59 291.414C344.114 290.831 343.72 290.185 343.42 289.494C343.96 290.01 344.449 290.575 344.88 291.184C345.942 292.593 347.376 293.676 349.02 294.314C349.859 294.538 350.736 294.589 351.595 294.464C352.455 294.338 353.28 294.039 354.02 293.584C354.652 293.181 355.306 292.813 355.98 292.484Z"
    fill="#455A64" />
  <path
    d="M348.34 298.314C347.158 297.09 346.103 295.75 345.19 294.314C344.139 292.977 343.221 291.541 342.45 290.024C343.64 291.244 344.699 292.585 345.61 294.024C346.67 295.353 347.585 296.791 348.34 298.314Z"
    fill="#455A64" />
  <path
    d="M297.1 217.314C296.96 217.364 296.61 216.794 296.3 216.024C295.99 215.254 295.86 214.604 295.99 214.544C296.12 214.484 296.48 215.064 296.78 215.834C297.08 216.604 297.23 217.314 297.1 217.314Z"
    fill="#FAFAFA" />
  <path
    d="M316.46 220.094C316.31 220.094 316.2 219.604 316.2 218.994C316.2 218.384 316.31 217.884 316.46 217.884C316.61 217.884 316.72 218.384 316.72 218.994C316.72 219.604 316.6 220.094 316.46 220.094Z"
    fill="#FAFAFA" />
  <path
    d="M308.5 230.614C308.36 230.614 308.2 230.014 308.15 229.244C308.1 228.474 308.15 227.854 308.31 227.844C308.47 227.834 308.62 228.444 308.67 229.214C308.72 229.984 308.64 230.604 308.5 230.614Z"
    fill="#FAFAFA" />
  <path
    d="M293.96 238.314C293.84 238.404 293.43 238.034 292.89 237.654C292.35 237.274 291.89 236.984 291.89 236.844C291.89 236.704 292.55 236.784 293.16 237.224C293.77 237.664 294.08 238.314 293.96 238.314Z"
    fill="#FAFAFA" />
  <path
    d="M319.59 248.124C319.47 248.044 319.59 247.614 319.93 247.124C320.27 246.634 320.58 246.354 320.7 246.434C320.82 246.514 320.7 246.954 320.36 247.434C320.02 247.914 319.71 248.204 319.59 248.124Z"
    fill="#FAFAFA" />
  <path
    d="M303.77 250.894C303.63 250.894 303.51 250.064 303.51 249.054C303.51 248.044 303.63 247.204 303.77 247.204C303.91 247.204 304.03 248.034 304.03 249.054C304.03 250.074 303.88 250.894 303.77 250.894Z"
    fill="#FAFAFA" />
  <path
    d="M298.59 262.114C298.51 262.224 297.99 261.994 297.43 261.584C296.87 261.174 296.43 260.754 296.56 260.634C296.69 260.514 297.17 260.754 297.73 261.164C298.29 261.574 298.68 261.994 298.59 262.114Z"
    fill="#FAFAFA" />
  <path
    d="M314.61 266.014C314.67 266.144 314.35 266.414 313.89 266.624C313.43 266.834 313.01 266.884 312.95 266.754C312.89 266.624 313.22 266.354 313.68 266.144C314.14 265.934 314.56 265.884 314.61 266.014Z"
    fill="#FAFAFA" />
  <path
    d="M303.77 284.314C303.65 284.374 303.13 283.604 302.62 282.584C302.11 281.564 301.8 280.684 301.93 280.584C302.06 280.484 302.58 281.294 303.08 282.314C303.58 283.334 303.86 284.204 303.77 284.314Z"
    fill="#FAFAFA" />
  <path
    d="M321.44 282.614C321.31 282.544 321.54 281.874 321.94 281.104C322.34 280.334 322.79 279.774 322.94 279.844C323.09 279.914 322.84 280.584 322.43 281.354C322.02 282.124 321.56 282.684 321.44 282.614Z"
    fill="#FAFAFA" />
  <path
    d="M313.69 298.104C313.54 298.104 313.56 297.294 313.4 296.354C313.24 295.414 313 294.664 313.14 294.594C313.28 294.524 313.76 295.234 313.92 296.274C314.08 297.314 313.83 298.134 313.69 298.104Z"
    fill="#FAFAFA" />
  <path
    d="M305.39 306.954C305.29 307.054 304.79 306.674 304.28 306.114C303.77 305.554 303.44 305.024 303.55 304.924C303.66 304.824 304.15 305.204 304.66 305.764C305.17 306.324 305.5 306.854 305.39 306.954Z"
    fill="#FAFAFA" />
  <path
    d="M325.53 310.314C325.43 310.214 325.8 309.674 326.36 309.104C326.92 308.534 327.44 308.164 327.55 308.264C327.66 308.364 327.28 308.914 326.73 309.474C326.18 310.034 325.64 310.414 325.53 310.314Z"
    fill="#FAFAFA" />
  <path
    d="M313.95 323.564C313.81 323.564 313.81 322.774 313.95 321.854C314.09 320.934 314.31 320.214 314.46 320.234C314.61 320.254 314.6 321.014 314.46 321.934C314.32 322.854 314.09 323.584 313.95 323.564Z"
    fill="#FAFAFA" />
  <path
    d="M306.16 329.994C306.03 330.064 305.59 329.544 305.16 328.834C304.73 328.124 304.51 327.494 304.63 327.424C304.75 327.354 305.19 327.864 305.63 328.574C306.07 329.284 306.28 329.914 306.16 329.994Z"
    fill="#FAFAFA" />
  <path
    d="M324.93 338.104C325.02 338.224 324.51 338.734 323.79 339.244C323.07 339.754 322.44 340.074 322.35 339.954C322.26 339.834 322.78 339.324 323.49 338.814C324.2 338.304 324.85 337.994 324.93 338.104Z"
    fill="#FAFAFA" />
  <path
    d="M309.29 348.634C309.15 348.584 309.29 347.784 309.42 346.784C309.55 345.784 309.47 344.964 309.62 344.944C309.77 344.924 310.03 345.764 309.93 346.834C309.83 347.904 309.42 348.694 309.29 348.634Z"
    fill="#FAFAFA" />
  <path
    d="M315.54 363.754C315.42 363.844 315 363.504 314.59 362.994C314.18 362.484 313.95 361.994 314.06 361.904C314.17 361.814 314.59 362.154 315 362.664C315.41 363.174 315.65 363.664 315.54 363.754Z"
    fill="#FAFAFA" />
  <path
    d="M308.71 373.894C308.59 373.974 308.04 373.384 307.48 372.564C306.92 371.744 306.57 371.024 306.68 370.944C306.79 370.864 307.35 371.454 307.91 372.274C308.47 373.094 308.83 373.814 308.71 373.894Z"
    fill="#FAFAFA" />
  <path
    d="M327.52 361.164C327.39 361.114 327.4 360.744 327.52 360.344C327.64 359.944 327.91 359.644 328.05 359.694C328.19 359.744 328.17 360.114 328.05 360.524C327.93 360.934 327.66 361.224 327.52 361.164Z"
    fill="#FAFAFA" />
  <path
    d="M319.22 385.314C319.09 385.244 319.34 384.534 319.54 383.644C319.74 382.754 319.81 382.004 319.96 381.994C320.11 381.984 320.26 382.794 320.05 383.754C319.84 384.714 319.34 385.394 319.22 385.314Z"
    fill="#FAFAFA" />
  <path
    d="M324.62 230.774C324.49 230.834 324.17 230.434 323.91 229.874C323.65 229.314 323.54 228.814 323.67 228.754C323.8 228.694 324.12 229.094 324.38 229.654C324.64 230.214 324.77 230.714 324.62 230.774Z"
    fill="#FAFAFA" />
  <path
    d="M310.77 199.634C310.85 199.754 310.15 200.314 309.4 201.114C308.65 201.914 308.14 202.654 308.01 202.584C307.88 202.514 308.22 201.584 309.01 200.764C309.8 199.944 310.67 199.504 310.77 199.634Z"
    fill="#FAFAFA" />
  <path
    d="M323.1 199.314C322.95 199.314 322.72 198.744 322.37 198.064C322.02 197.384 321.7 196.824 321.81 196.724C321.92 196.624 322.46 197.064 322.81 197.824C323.16 198.584 323.23 199.234 323.1 199.314Z"
    fill="#FAFAFA" />
  <path
    d="M284.6 209.424C284.47 209.364 284.6 208.704 284.91 207.944C285.22 207.184 285.56 206.594 285.7 206.654C285.84 206.714 285.7 207.364 285.39 208.134C285.08 208.904 284.77 209.474 284.6 209.424Z"
    fill="#FAFAFA" />
  <path
    d="M285.85 224.524C285.75 224.634 285.18 224.314 284.57 223.804C283.96 223.294 283.57 222.804 283.63 222.684C283.69 222.564 284.3 222.894 284.91 223.404C285.52 223.914 285.94 224.414 285.85 224.524Z"
    fill="#FAFAFA" />
  <path
    d="M311.11 187.644C310.98 187.644 310.7 187.324 310.5 186.814C310.3 186.304 310.24 185.814 310.37 185.814C310.5 185.814 310.78 186.134 310.98 186.644C311.18 187.154 311.24 187.594 311.11 187.644Z"
    fill="#FAFAFA" />
  <path
    d="M335.3 195.024C335.16 195.024 335.17 194.394 335.3 193.684C335.43 192.974 335.69 192.414 335.83 192.444C335.97 192.474 335.96 193.084 335.83 193.794C335.7 194.504 335.44 195.054 335.3 195.024Z"
    fill="#FAFAFA" />
  <path
    d="M340.98 206.454C340.85 206.394 341.03 205.654 341.39 204.784C341.75 203.914 342.14 203.264 342.27 203.314C342.4 203.364 342.27 204.114 341.87 204.984C341.47 205.854 341.12 206.504 340.98 206.454Z"
    fill="#FAFAFA" />
  <path
    d="M336.93 215.674C336.8 215.734 336.32 215.044 335.86 214.134C335.4 213.224 335.14 212.414 335.27 212.354C335.4 212.294 335.87 212.984 336.33 213.894C336.79 214.804 337.06 215.604 336.93 215.674Z"
    fill="#FAFAFA" />
  <path
    d="M345.59 224.894C345.46 224.844 345.59 224.264 345.81 223.604C346.03 222.944 346.38 222.444 346.52 222.494C346.66 222.544 346.52 223.124 346.3 223.784C346.08 224.444 345.77 224.944 345.59 224.894Z"
    fill="#FAFAFA" />
  <path
    d="M337.85 233.924C337.73 234.004 337.42 233.734 337.17 233.334C336.92 232.934 336.8 232.534 336.93 232.454C337.06 232.374 337.35 232.644 337.61 233.054C337.87 233.464 337.97 233.854 337.85 233.924Z"
    fill="#FAFAFA" />
  <path
    d="M339.5 252.564C339.4 252.654 338.77 252.164 338.11 251.444C337.45 250.724 337 250.074 337.11 249.974C337.22 249.874 337.84 250.374 338.5 251.094C339.16 251.814 339.61 252.464 339.5 252.564Z"
    fill="#FAFAFA" />
  <path
    d="M349.65 241.854C349.54 241.944 348.99 241.444 348.43 240.724C347.87 240.004 347.51 239.364 347.62 239.274C347.73 239.184 348.28 239.694 348.84 240.404C349.4 241.114 349.77 241.774 349.65 241.854Z"
    fill="#FAFAFA" />
  <path
    d="M355.22 256.624C355.09 256.564 355.32 255.814 355.73 254.954C356.14 254.094 356.57 253.434 356.73 253.494C356.89 253.554 356.64 254.314 356.23 255.174C355.82 256.034 355.35 256.694 355.22 256.624Z"
    fill="#FAFAFA" />
  <path
    d="M343.38 268.784C343.25 268.854 342.79 268.304 342.15 267.714C341.51 267.124 340.92 266.714 340.98 266.564C341.04 266.414 341.8 266.684 342.5 267.334C343.2 267.984 343.5 268.714 343.38 268.784Z"
    fill="#FAFAFA" />
  <path
    d="M344.12 281.314C344.12 281.454 343.62 281.574 343.01 281.574C342.4 281.574 341.91 281.454 341.91 281.314C341.91 281.174 342.4 281.054 343.01 281.054C343.62 281.054 344.12 281.174 344.12 281.314Z"
    fill="#FAFAFA" />
  <path
    d="M356.29 277.814C356.16 277.744 356.42 277.114 356.61 276.334C356.8 275.554 356.88 274.874 357.03 274.864C357.18 274.854 357.34 275.584 357.12 276.454C356.9 277.324 356.4 277.894 356.29 277.814Z"
    fill="#FAFAFA" />
  <path
    d="M368.38 282.024C368.25 282.074 367.88 281.364 367.56 280.454C367.24 279.544 367.09 278.764 367.22 278.724C367.35 278.684 367.73 279.374 368.05 280.284C368.37 281.194 368.52 281.974 368.38 282.024Z"
    fill="#FAFAFA" />
  <path
    d="M366.45 299.224C366.33 299.154 366.64 298.314 367.14 297.344C367.64 296.374 368.14 295.644 368.29 295.714C368.44 295.784 368.11 296.624 367.6 297.584C367.09 298.544 366.58 299.314 366.45 299.224Z"
    fill="#FAFAFA" />
  <path
    d="M355.42 309.314C355.29 309.364 354.88 308.674 354.5 307.764C354.12 306.854 353.93 306.074 354.07 306.014C354.21 305.954 354.61 306.654 354.98 307.564C355.35 308.474 355.55 309.314 355.42 309.314Z"
    fill="#FAFAFA" />
  <path
    d="M343.2 313.224C343.2 313.364 342.78 313.484 342.27 313.484C341.76 313.484 341.35 313.364 341.35 313.224C341.35 313.084 341.77 312.964 342.27 312.964C342.77 312.964 343.2 313.084 343.2 313.224Z"
    fill="#FAFAFA" />
  <path
    d="M350.2 329.314C350.07 329.314 349.79 328.764 349.58 328.004C349.37 327.244 349.33 326.584 349.47 326.554C349.61 326.524 349.88 327.104 350.09 327.864C350.3 328.624 350.34 329.234 350.2 329.314Z"
    fill="#FAFAFA" />
  <path
    d="M341.35 323.914C341.23 323.844 341.35 323.374 341.68 322.864C342.01 322.354 342.34 322.004 342.46 322.074C342.58 322.144 342.46 322.624 342.13 323.134C341.8 323.644 341.48 323.994 341.35 323.914Z"
    fill="#FAFAFA" />
  <path
    d="M341.17 341.624C341.03 341.624 340.83 340.954 340.73 340.084C340.63 339.214 340.66 338.504 340.8 338.484C340.94 338.464 341.14 339.154 341.24 340.024C341.34 340.894 341.31 341.604 341.17 341.624Z"
    fill="#FAFAFA" />
</svg>