<svg xmlns:dc="http://purl.org/dc/elements/1.1/" xmlns:cc="http://creativecommons.org/ns#" xmlns:rdf="http://www.w3.org/1999/02/22-rdf-syntax-ns#" xmlns:svg="http://www.w3.org/2000/svg" xmlns="http://www.w3.org/2000/svg" xmlns:sodipodi="http://sodipodi.sourceforge.net/DTD/sodipodi-0.dtd" xmlns:inkscape="http://www.inkscape.org/namespaces/inkscape" viewBox="0 0 8.4666665 10.583333625" version="1.1" x="0px" y="0px"><g transform="translate(0,-288.53333)"><path style="color:#000000;font-style:normal;font-variant:normal;font-weight:normal;font-stretch:normal;font-size:medium;line-height:normal;font-family:sans-serif;font-variant-ligatures:normal;font-variant-position:normal;font-variant-caps:normal;font-variant-numeric:normal;font-variant-alternates:normal;font-feature-settings:normal;text-indent:0;text-align:start;text-decoration:none;text-decoration-line:none;text-decoration-style:solid;text-decoration-color:#000000;letter-spacing:normal;word-spacing:normal;text-transform:none;writing-mode:lr-tb;direction:ltr;text-orientation:mixed;dominant-baseline:auto;baseline-shift:baseline;text-anchor:start;white-space:normal;shape-padding:0;clip-rule:nonzero;display:inline;overflow:visible;visibility:visible;opacity:1;isolation:auto;mix-blend-mode:normal;color-interpolation:sRGB;color-interpolation-filters:linearRGB;solid-color:#000000;solid-opacity:1;vector-effect:none;fill:#000000;fill-opacity:1;fill-rule:nonzero;stroke:none;stroke-width:1.99999988;stroke-linecap:butt;stroke-linejoin:round;stroke-miterlimit:4;stroke-dasharray:none;stroke-dashoffset:0;stroke-opacity:1;color-rendering:auto;image-rendering:auto;shape-rendering:auto;text-rendering:auto;enable-background:accumulate" d="m 8.1113281,1 c -0.036502,-6.9529e-4 -0.073015,6.087e-4 -0.109375,0.00391 h -4 C 2.3566676,1.0039062 1.0039062,2.3547339 1.0039062,4 v 4.0019531 c 0,1.6452662 1.3527917,3.0039059 2.9980469,3.0039059 h 8.7539059 l 1.123047,1.115235 c 1.163687,1.157669 3.080454,1.157669 4.244141,0 l 1.121094,-1.115235 H 28 c 1.645255,0 2.996094,-1.3586397 2.996094,-3.0039059 V 4 C 30.996094,2.3547339 29.645285,1.0039062 28,1.0039062 H 12.003906 c -1.452703,-0.13042164 -1.452703,2.1226092 0,1.9921876 H 28 c 0.56454,0 1.003906,0.4393582 1.003906,1.0039062 v 4.0019531 c 0,0.5645481 -0.439365,1.0039063 -1.003906,1.0039063 h -9.167969 c -0.265036,-0.00202 -0.520037,0.1012407 -0.708984,0.2871094 l -1.417969,1.4101562 c -0.401508,0.399458 -1.008648,0.399458 -1.410156,0 L 13.878906,9.2929688 C 13.689959,9.1071001 13.434958,9.0038352 13.169922,9.0058594 H 4.0019531 c -0.5645412,0 -1.0058593,-0.4393582 -1.0058593,-1.0039063 V 4 c 0,-0.564548 0.4413189,-1.0039062 1.0058593,-1.0039062 h 4 C 9.3752999,3.1173822 9.4897049,1.029491 8.1113281,1 Z M 12,5 c -0.552285,1e-7 -1,0.4477153 -1,1 0,0.5522847 0.447715,0.9999999 1,1 0.552285,-1e-7 1,-0.4477153 1,-1 0,-0.5522847 -0.447715,-0.9999999 -1,-1 z m 4,0 c -0.552285,1e-7 -1,0.4477153 -1,1 0,0.5522847 0.447715,0.9999999 1,1 0.552285,-1e-7 1,-0.4477153 1,-1 0,-0.5522847 -0.447715,-0.9999999 -1,-1 z m 4,0 c -0.552285,1e-7 -1,0.4477153 -1,1 0,0.5522847 0.447715,0.9999999 1,1 0.552285,-1e-7 1,-0.4477153 1,-1 C 21,5.4477153 20.552285,5.0000001 20,5 Z M 8.0019531,13 c -2.7495734,0 -5.0058462,2.246525 -5.0058593,4.996094 -6.6e-6,1.374803 0.5003115,2.965293 1.3144531,4.341797 0.022705,0.03839 0.052864,0.0731 0.076172,0.111328 L 2.6601562,23.3125 C 1.6458504,23.818428 1,24.85843 1,25.994141 V 28 c 0,1.646173 1.3569794,3 3.0019531,3 h 8.0019529 c 1.644974,0 3,-1.354998 3,-3 v -2.005859 c 0,-1.135711 -0.645983,-2.175676 -1.660156,-2.681641 l -1.732422,-0.865234 c 0.02284,-0.03749 0.05195,-0.07173 0.07422,-0.109375 C 12.499688,20.961387 13.000007,19.370897 13,17.996094 12.999987,15.246525 10.751526,13 8.0019531,13 Z m 15.9960939,0 c -2.749574,0 -4.996081,2.246525 -4.996094,4.996094 -7e-6,1.374803 0.490546,2.965293 1.304688,4.341797 0.02316,0.03916 0.05434,0.07429 0.07813,0.113281 l -1.722657,0.859375 C 17.647801,23.816474 17,24.854524 17,25.990234 V 28 c 0,1.646135 1.360878,3.003906 3.005859,3.003906 h 8.001953 c 1.644982,0 2.996094,-1.358942 2.996094,-3.003906 v -2.009766 c 0,-1.333644 -2,-1.333644 -2,0 V 28 c 0,0.564813 -0.431279,1.003906 -0.996094,1.003906 h -8.001953 c -0.564814,0 -1.003906,-0.440265 -1.003906,-1.003906 v -2.009766 c 0,-0.37833 0.212228,-0.714913 0.552735,-0.884765 l 2.115234,-1.066407 c 0.645827,0.572168 1.413326,0.962891 2.328125,0.962891 1.676575,0 2.877265,-1.287558 3.691406,-2.664062 0.814142,-1.376504 1.31446,-2.966994 1.314453,-4.341797 C 29.003893,15.246525 26.74762,13 23.998047,13 Z M 8.0019531,15 c 1.6686947,0 2.9960859,1.327395 2.9960939,2.996094 4e-6,0.834368 -0.39963,2.251034 -1.0332032,3.322265 -0.633574,1.071194 -1.4303171,1.683594 -1.9628907,1.683594 -0.532574,0 -1.3371292,-0.6124 -1.9707031,-1.683594 C 5.3976765,20.247128 4.9980431,18.830462 4.9980469,17.996094 4.9980548,16.327395 6.3332581,15 8.0019531,15 Z m 15.9960939,0 c 1.668695,0 3.005851,1.327395 3.005859,2.996094 4e-6,0.834368 -0.401582,2.251034 -1.035156,3.322265 -0.633574,1.071194 -1.43813,1.683594 -1.970703,1.683594 -0.532574,0 -1.329317,-0.6124 -1.962891,-1.683594 C 21.401583,20.247128 21.001949,18.830462 21.001953,17.996094 21.001961,16.327395 22.329351,15 23.998047,15 Z M 5.6757812,24.041016 c 0.6454106,0.571158 1.4123458,0.960937 2.3261719,0.960937 0.9141938,0 1.6806468,-0.389397 2.3242189,-0.960937 l 2.123047,1.060546 c 0.340641,0.170079 0.554687,0.514248 0.554687,0.892579 V 28 c 0,0.56485 -0.435178,1 -1,1 H 4.0019531 C 3.4371309,29 3,28.563679 3,28 V 25.994141 C 3,25.61581 3.2141779,25.271414 3.5546875,25.101562 Z" transform="matrix(0.26458333,0,0,0.26458333,0,288.53333)"/></g><text x="0" y="23.4666669" fill="#000000" font-size="5px" font-weight="bold" font-family="'Helvetica Neue', Helvetica, Arial-Unicode, Arial, Sans-serif">Created by Gajah Mada Studio</text><text x="0" y="28.4666669" fill="#000000" font-size="5px" font-weight="bold" font-family="'Helvetica Neue', Helvetica, Arial-Unicode, Arial, Sans-serif">from the Noun Project</text></svg>