<svg width="276" height="261" viewBox="0 0 276 261" fill="none" xmlns="http://www.w3.org/2000/svg">
<path d="M38.1921 221.368L31.7801 216.953C31.7801 216.953 28.0765 222.339 22.4186 218.588C21.3152 217.884 20.4581 216.854 19.9663 215.642C19.4745 214.429 19.3724 213.093 19.6741 211.82C19.9132 210.746 20.403 209.745 21.1033 208.896C21.8035 208.048 22.6945 207.378 23.7034 206.94C26.0196 205.896 29.5242 205.909 33.3243 209.642L43.2649 195.166L36.9254 190.805L31.1046 199.249C31.1046 199.249 20.6331 195.431 13.8895 205.227C7.44133 214.6 14.3479 222.563 17.9489 225.036C20.6995 226.972 30.5014 232.757 38.1921 221.368Z" fill="#EBEBEB"/>
<path d="M38.8686 187.797L45.2988 192.221L49.4325 186.213L43.0023 181.789L38.8686 187.797Z" fill="#EBEBEB"/>
<path d="M65.4925 239.096L68.8945 238.197C68.7934 237.81 68.7704 237.407 68.8267 237.011C68.883 236.615 69.0175 236.234 69.2224 235.89C69.4273 235.547 69.6984 235.247 70.0201 235.01C70.3418 234.772 70.7076 234.601 71.0962 234.506C71.6629 234.333 72.2693 234.342 72.8306 234.532C73.392 234.721 73.8801 235.081 74.2267 235.561C74.5247 235.959 74.7242 236.421 74.8092 236.911C74.8941 237.401 74.8619 237.903 74.7153 238.378C74.3896 239.482 73.3521 240.682 70.9514 240.881L72.9721 248.56L76.3379 247.673L75.1315 243.173C76.4041 242.402 77.3883 241.234 77.9332 239.849C78.478 238.464 78.5533 236.939 78.1475 235.507C76.8325 230.531 72.0613 230.549 70.1552 231.055C68.7256 231.441 63.8458 233.106 65.4925 239.096Z" fill="#EBEBEB"/>
<path d="M76.8128 249.232L73.395 250.134L74.2367 253.324L77.6545 252.422L76.8128 249.232Z" fill="#EBEBEB"/>
<path d="M122.035 24.1666C123.756 23.118 125.611 22.3065 127.549 21.7538L128.683 16.3251L137.905 16.1622L139.232 21.591C141.189 22.0702 143.072 22.8107 144.83 23.7926L149.493 20.7344L156.128 27.1403L153.239 31.9055C154.283 33.6304 155.095 35.4864 155.651 37.4248L161.11 38.5588L161.267 47.7816L155.838 49.1086C155.356 51.064 154.616 52.9464 153.637 54.7062L156.689 59.3689L150.283 66.004L145.518 63.1147C143.795 64.1633 141.938 64.9748 139.999 65.5275L138.865 70.9924L129.642 71.1492L128.315 65.7205C126.358 65.244 124.474 64.5033 122.717 63.5188L118.054 66.577L111.419 60.1711L114.309 55.4059C113.26 53.6829 112.448 51.8265 111.896 49.8867L106.467 48.7527L106.304 39.5299L111.733 38.2029C112.203 36.235 112.938 34.3399 113.916 32.5691L110.858 27.9064L117.264 21.2713L122.035 24.1666ZM126.951 36.4536C125.595 37.8631 124.686 39.6433 124.341 41.5691C123.996 43.4949 124.229 45.4798 125.012 47.2728C125.795 49.0658 127.092 50.5864 128.739 51.6423C130.386 52.6982 132.31 53.242 134.266 53.2048C136.222 53.1677 138.123 52.5514 139.729 51.4338C141.335 50.3162 142.573 48.7475 143.288 46.9261C144.002 45.1047 144.16 43.1123 143.742 41.201C143.324 39.2897 142.349 37.5452 140.939 36.1882C139.049 34.3699 136.513 33.3764 133.891 33.4262C131.268 33.476 128.772 34.5648 126.951 36.4536Z" fill="#F5F5F5"/>
<path d="M83.4314 4.93681C84.4255 4.33978 85.4945 3.87732 86.6102 3.56153L87.2617 0.412865L92.5758 0.322388L93.3419 3.44089C94.4677 3.71619 95.5511 4.14228 96.5629 4.70759L99.2471 2.94627L103.047 6.63178L101.382 9.3763C101.983 10.3695 102.447 11.4386 102.764 12.5551L105.906 13.2066L105.997 18.5207L102.878 19.2988C102.604 20.425 102.178 21.5086 101.612 22.5199L103.373 25.2041L99.6814 29.0283L96.9369 27.3635C95.9437 27.9638 94.8746 28.4284 93.7581 28.7448L93.0825 31.8814L87.7684 31.9779L87.0506 28.8594C85.9254 28.5793 84.8423 28.1513 83.8295 27.5867L81.1453 29.348L77.3211 25.6565L78.9618 22.918C78.3604 21.9275 77.8958 20.8602 77.5805 19.7452L74.4378 19.0877L74.3413 13.7736L77.4658 13.0135C77.7401 11.8855 78.1662 10.7999 78.7326 9.78647L76.9712 7.10226L80.6628 3.28406L83.4314 4.93681ZM86.2604 12.0183C85.4732 12.828 84.9443 13.8533 84.7408 14.9641C84.5372 16.0749 84.6682 17.2211 85.1171 18.2573C85.5659 19.2935 86.3125 20.1731 87.262 20.7844C88.2116 21.3957 89.3213 21.7111 90.4503 21.6908C91.5794 21.6704 92.677 21.3151 93.6039 20.67C94.5308 20.0249 95.2451 19.119 95.6564 18.0673C96.0676 17.0155 96.1572 15.8653 95.9137 14.7626C95.6702 13.6599 95.1047 12.6543 94.2889 11.8735C93.2012 10.8261 91.7424 10.2531 90.2326 10.2803C88.7229 10.3074 87.2856 10.9325 86.2363 12.0183H86.2604Z" fill="#EBEBEB"/>
<path d="M252.97 103.571C253.962 102.972 255.029 102.507 256.143 102.189L256.801 99.0468L262.109 98.9563L262.875 102.075C264.003 102.349 265.088 102.775 266.102 103.342L268.786 101.58L272.604 105.272L270.939 108.016C271.54 109.009 272.004 110.079 272.321 111.195L275.469 111.847L275.56 117.161L272.441 117.927C272.161 119.051 271.735 120.134 271.175 121.148L272.93 123.832L269.244 127.656L266.5 125.991C265.507 126.592 264.438 127.056 263.321 127.373L262.664 130.515L257.355 130.612L256.589 127.487C255.463 127.213 254.38 126.787 253.368 126.221L250.678 127.982L246.86 124.29L248.525 121.546C247.923 120.553 247.459 119.484 247.143 118.367L244.001 117.716L243.904 112.401L247.023 111.635C247.303 110.511 247.729 109.429 248.289 108.414L246.534 105.73L250.22 101.906L252.97 103.571ZM255.799 110.646C255.016 111.457 254.49 112.482 254.289 113.591C254.088 114.701 254.221 115.845 254.67 116.879C255.119 117.913 255.865 118.791 256.813 119.401C257.761 120.011 258.869 120.326 259.996 120.307C261.123 120.287 262.22 119.934 263.146 119.292C264.073 118.649 264.788 117.746 265.201 116.697C265.615 115.648 265.708 114.501 265.468 113.399C265.229 112.297 264.669 111.291 263.858 110.507C262.77 109.459 261.311 108.885 259.8 108.911C258.289 108.937 256.85 109.561 255.799 110.646Z" fill="#EBEBEB"/>
<path d="M239.453 260.322L153.8 260.274C148.853 260.271 144.109 258.303 140.611 254.804C137.114 251.304 135.149 246.559 135.149 241.611L135.192 26.8749C135.203 21.9229 137.178 17.1776 140.683 13.68C144.189 10.1824 148.939 8.21813 153.891 8.21814L239.544 8.27243C244.491 8.27563 249.235 10.2433 252.733 13.7429C256.23 17.2425 258.195 21.9876 258.195 26.9352L258.152 241.672C258.152 244.125 257.668 246.554 256.728 248.82C255.788 251.086 254.41 253.144 252.673 254.877C250.936 256.609 248.874 257.982 246.606 258.916C244.337 259.851 241.907 260.329 239.453 260.322Z" fill="#455A64"/>
<path d="M239.424 15.8425H222.818C221.723 15.8678 220.683 16.3268 219.926 17.1185C219.17 17.9102 218.758 18.97 218.783 20.0649V23.0808C218.807 24.1757 218.395 25.2355 217.639 26.0272C216.882 26.8189 215.842 27.2779 214.747 27.3032H182.374C181.28 27.2763 180.242 26.8167 179.486 26.0251C178.731 25.2336 178.32 24.1747 178.345 23.0808V20.0649C178.369 18.97 177.957 17.9102 177.201 17.1185C176.444 16.3268 175.404 15.8678 174.309 15.8425H153.933C150.475 15.8393 147.156 17.2078 144.704 19.6479C142.253 22.088 140.869 25.4006 140.856 28.8594L140.814 238.481C140.82 241.942 142.199 245.26 144.649 247.706C147.098 250.152 150.418 251.526 153.879 251.528L239.369 251.576C241.086 251.577 242.786 251.24 244.372 250.583C245.958 249.927 247.4 248.965 248.614 247.752C249.828 246.539 250.792 245.098 251.449 243.513C252.107 241.927 252.446 240.227 252.447 238.511L252.483 28.8896C252.478 25.4287 251.1 22.1111 248.652 19.665C246.204 17.2189 242.885 15.8441 239.424 15.8425Z" fill="white"/>
<path d="M252.476 59.8997V28.6724C252.415 25.2504 251.013 21.9891 248.572 19.5899C246.131 17.1907 242.846 15.8451 239.423 15.8425H222.817C222.275 15.8543 221.74 15.9729 221.244 16.1915C220.747 16.4102 220.299 16.7246 219.924 17.1168C219.549 17.509 219.255 17.9712 219.059 18.4771C218.863 18.983 218.769 19.5225 218.782 20.0649V23.0808C218.806 24.1757 218.395 25.2355 217.638 26.0272C216.881 26.8189 215.841 27.2779 214.746 27.3032H182.373C181.279 27.2763 180.241 26.8167 179.486 26.0251C178.73 25.2336 178.32 24.1747 178.344 23.0808V20.0649C178.368 18.97 177.957 17.9102 177.2 17.1185C176.443 16.3268 175.403 15.8678 174.309 15.8425H153.933C150.474 15.8393 147.155 17.2078 144.703 19.6479C142.252 22.088 140.868 25.4006 140.855 28.8594V59.9962H252.476V59.8997Z" fill="#EBEBEB"/>
<path d="M163.62 102.256C171.092 102.256 177.15 96.2118 177.15 88.7563C177.15 81.3007 171.092 75.2568 163.62 75.2568C156.148 75.2568 150.09 81.3007 150.09 88.7563C150.09 96.2118 156.148 102.256 163.62 102.256Z" fill="#E0E0E0"/>
<path d="M157.299 92.1342L160.846 91.8326L169.496 93.2924L170.515 99.8008L170.37 100.561C168.422 101.661 166.232 102.263 163.996 102.314C161.759 102.366 159.544 101.865 157.547 100.856L157.299 92.1342Z" fill="#455A64"/>
<path d="M167.644 93.19C168.501 93.0647 169.377 93.1832 170.171 93.532C170.964 93.8808 171.644 94.4458 172.131 95.1625C172.717 95.9808 173.255 96.8328 173.742 97.714C172.33 99.2461 171.184 100.41 169.23 101.092L167.644 93.19Z" fill="#455A64"/>
<path d="M157.299 92.1342C157.299 92.1342 154.959 92.4237 154.054 94.4203C153.149 96.4168 152.938 97.0381 152.938 97.0381C154.144 98.4978 155.689 100.223 157.577 100.868C157.577 100.868 158.005 95.8378 158.059 94.4203C158.125 92.8882 158.186 92.0919 157.299 92.1342Z" fill="#455A64"/>
<path d="M159.434 79.3464C160.024 78.5912 160.775 77.978 161.633 77.5521C162.492 77.1262 163.434 76.8983 164.392 76.8854C165.216 76.8852 166.033 77.0323 166.805 77.3197C167.618 77.5121 168.336 77.9866 168.832 78.6588C169.447 79.449 169.85 80.3834 170.002 81.3731C170.144 82.386 170.192 83.4096 170.147 84.4313C170.097 85.4602 169.766 86.4557 169.188 87.3085L166.588 87.7549C165.155 87.8693 163.712 87.7922 162.299 87.5257C160.871 87.2514 159.609 86.4231 158.789 85.2215C157.745 83.5265 158.18 80.8906 159.434 79.3464Z" fill="#263238"/>
<path d="M156.925 86.8563C156.952 86.5622 157.045 86.2779 157.198 86.0251C157.35 85.7722 157.558 85.5573 157.806 85.3966C158.06 85.2442 158.355 85.1761 158.65 85.2021C158.945 85.2281 159.224 85.3469 159.447 85.5414L159.857 86.0239C160.173 86.1702 160.436 86.4115 160.609 86.7142C160.782 87.0169 160.857 87.366 160.822 87.7129C160.777 88.0601 160.632 88.3868 160.405 88.6534C160.178 88.92 159.879 89.115 159.543 89.2148C159.208 89.31 158.853 89.3172 158.514 89.2359C158.175 89.1546 157.863 88.9874 157.607 88.7504C157.356 88.5079 157.164 88.211 157.046 87.8826C156.928 87.5543 156.886 87.2032 156.925 86.8563Z" fill="#263238"/>
<path d="M157.437 88.6298C157.34 88.477 157.291 88.2981 157.298 88.117C157.385 87.678 157.594 87.2723 157.902 86.9469C158.193 86.605 158.547 86.3224 158.945 86.1145C159.247 85.9516 159.458 85.8913 159.452 85.8732C159.259 85.8872 159.072 85.9428 158.903 86.036C158.478 86.2251 158.102 86.51 157.805 86.8684C157.639 87.0502 157.497 87.253 157.383 87.4716C157.284 87.6583 157.227 87.864 157.214 88.0748C157.211 88.2198 157.251 88.3624 157.329 88.485C157.383 88.6056 157.437 88.666 157.437 88.6298Z" fill="#455A64"/>
<path d="M166.564 92.7251V90.3124C166.564 90.3124 168.681 90.0771 169.272 87.3628C169.55 85.5673 169.659 83.7498 169.598 81.934C169.598 80.2873 168.18 78.0434 166.142 78.0374L165.237 77.9288L161.768 79.3041C161.528 79.3174 161.3 79.4199 161.131 79.5916C160.961 79.7633 160.862 79.992 160.852 80.233L160.749 91.8203L162.335 94.0461C162.626 94.4392 163.032 94.7316 163.497 94.8821C163.962 95.0326 164.463 95.0338 164.928 94.8854C165.394 94.7371 165.801 94.4466 166.094 94.0549C166.386 93.6631 166.548 93.1897 166.558 92.701L166.564 92.7251Z" fill="#FFBE9D"/>
<path d="M165.183 86.7358C165.201 86.5962 165.273 86.469 165.382 86.3799C165.481 86.2968 165.604 86.2478 165.734 86.2402C165.863 86.2326 165.991 86.2668 166.1 86.3377C166.21 86.4241 166.297 86.5381 166.35 86.6683C166.403 86.7986 166.42 86.9404 166.401 87.0796C166.341 87.1635 166.263 87.2337 166.174 87.2857C166.085 87.3377 165.985 87.3702 165.882 87.3812H165.786C165.706 87.3833 165.626 87.3694 165.552 87.3404C165.477 87.3114 165.409 87.2679 165.352 87.2123C165.291 87.1499 165.244 87.0749 165.215 86.9926C165.186 86.9104 165.175 86.8227 165.183 86.7358Z" fill="#EB996E"/>
<path d="M168.337 83.8404C168.334 83.9321 168.295 84.019 168.228 84.0822C168.162 84.1453 168.073 84.1798 167.981 84.1782C167.936 84.179 167.891 84.1709 167.849 84.1543C167.807 84.1378 167.769 84.1131 167.736 84.0818C167.704 84.0504 167.678 84.0129 167.66 83.9715C167.642 83.9301 167.632 83.8856 167.631 83.8404C167.636 83.7481 167.676 83.6613 167.744 83.5983C167.811 83.5352 167.901 83.5009 167.993 83.5026C168.038 83.5018 168.083 83.51 168.124 83.5266C168.166 83.5432 168.204 83.568 168.236 83.5994C168.268 83.6308 168.293 83.6684 168.311 83.7097C168.328 83.7511 168.337 83.7955 168.337 83.8404Z" fill="#263238"/>
<path d="M168.916 82.9718C168.868 83.0141 168.609 82.8029 168.235 82.7848C167.861 82.7667 167.565 82.9417 167.529 82.8934C167.493 82.8452 167.559 82.7909 167.686 82.7064C167.857 82.6046 168.054 82.5562 168.253 82.5677C168.449 82.5755 168.638 82.6475 168.79 82.7728C168.898 82.8693 168.934 82.9537 168.916 82.9718Z" fill="#263238"/>
<path d="M166.534 85.831C166.731 85.7845 166.934 85.7603 167.137 85.7586C167.233 85.7586 167.33 85.7586 167.348 85.6741C167.362 85.575 167.345 85.474 167.3 85.3846L167.052 84.6366C166.822 83.9984 166.642 83.3429 166.516 82.6763C166.798 83.2941 167.03 83.9335 167.209 84.5884C167.294 84.8478 167.366 85.1011 167.445 85.3424C167.495 85.4625 167.506 85.5958 167.475 85.7224C167.438 85.7871 167.377 85.8347 167.306 85.8551C167.252 85.8607 167.197 85.8607 167.143 85.8551C166.94 85.8746 166.735 85.8665 166.534 85.831Z" fill="#263238"/>
<path d="M166.551 90.3186C165.256 90.2604 164.003 89.8426 162.932 89.1122C162.932 89.1122 163.807 91.0605 166.551 90.9579V90.3186Z" fill="#EB996E"/>
<path d="M165.405 86.0358C165.472 86.0358 165.448 86.446 165.785 86.7536C166.123 87.0612 166.557 87.0431 166.557 87.0974C166.557 87.1517 166.455 87.1758 166.274 87.1698C166.033 87.1589 165.803 87.0652 165.623 86.9044C165.452 86.7477 165.349 86.5319 165.333 86.3012C165.327 86.1263 165.381 86.0298 165.405 86.0358Z" fill="#263238"/>
<path d="M168.837 81.5482C168.771 81.6387 168.482 81.5482 168.144 81.5482C167.806 81.5482 167.541 81.6327 167.45 81.5482C167.36 81.4638 167.45 81.4155 167.583 81.3311C167.749 81.2265 167.941 81.1701 168.138 81.1682C168.335 81.163 168.53 81.2154 168.699 81.319C168.825 81.4276 168.868 81.506 168.837 81.5482Z" fill="#263238"/>
<path d="M164.187 83.8403C164.185 83.9327 164.22 84.0221 164.283 84.0896C164.346 84.1572 164.433 84.1976 164.525 84.2022C164.57 84.2064 164.615 84.2015 164.658 84.1878C164.701 84.1742 164.741 84.1522 164.775 84.1229C164.809 84.0937 164.837 84.0579 164.858 84.0177C164.878 83.9774 164.89 83.9335 164.893 83.8886C164.893 83.7972 164.858 83.7094 164.795 83.6431C164.732 83.5769 164.646 83.5373 164.555 83.5327C164.51 83.5277 164.465 83.5318 164.422 83.5447C164.38 83.5576 164.34 83.5791 164.305 83.6079C164.271 83.6366 164.243 83.672 164.222 83.712C164.202 83.7519 164.19 83.7956 164.187 83.8403Z" fill="#263238"/>
<path d="M163.729 82.8391C163.771 82.8874 164.042 82.6944 164.422 82.7004C164.802 82.7064 165.074 82.8994 165.116 82.8572C165.158 82.815 165.116 82.7547 164.971 82.6642C164.81 82.5462 164.616 82.4828 164.416 82.4832C164.221 82.4771 164.028 82.5342 163.867 82.6461C163.747 82.7366 163.705 82.815 163.729 82.8391Z" fill="#263238"/>
<path d="M163.512 82.0307C163.584 82.1212 163.88 82.0307 164.23 82.0307C164.58 82.0307 164.875 82.1031 164.948 82.0307C165.02 81.9583 164.948 81.898 164.803 81.8135C164.627 81.7107 164.427 81.6565 164.224 81.6565C164.02 81.6565 163.82 81.7107 163.645 81.8135C163.518 81.898 163.476 81.9824 163.512 82.0307Z" fill="#263238"/>
<path d="M161.31 84.8597C161.31 84.6546 161.117 84.16 160.912 84.1178C160.381 84.0032 159.41 83.9972 159.325 85.3604C159.211 87.2242 161.135 86.9528 161.135 86.8985C161.135 86.8442 161.274 85.5594 161.31 84.8597Z" fill="#FFBE9D"/>
<path d="M160.64 86.1867C160.64 86.1867 160.61 86.1867 160.55 86.2289C160.512 86.2452 160.471 86.2536 160.429 86.2536C160.388 86.2536 160.347 86.2452 160.309 86.2289C160.192 86.1451 160.099 86.0315 160.041 85.9C159.983 85.7685 159.961 85.6239 159.977 85.481C159.984 85.3213 160.025 85.165 160.097 85.0226C160.119 84.9657 160.154 84.9147 160.199 84.8738C160.244 84.8329 160.298 84.8033 160.357 84.7873C160.395 84.7791 160.435 84.7849 160.469 84.8037C160.504 84.8225 160.53 84.8531 160.544 84.8898C160.548 84.9199 160.548 84.9503 160.544 84.9803C160.544 84.9803 160.586 84.9803 160.574 84.8778C160.566 84.8311 160.543 84.7885 160.508 84.7571C160.485 84.7348 160.457 84.7178 160.427 84.7074C160.397 84.697 160.364 84.6934 160.333 84.6968C160.256 84.7067 160.182 84.7364 160.12 84.7829C160.058 84.8294 160.008 84.8911 159.977 84.9622C159.887 85.1188 159.838 85.2948 159.832 85.4749C159.812 85.6408 159.841 85.809 159.916 85.9582C159.991 86.1075 160.109 86.2311 160.254 86.3134C160.304 86.3301 160.356 86.336 160.408 86.3308C160.46 86.3256 160.511 86.3094 160.556 86.2832C160.64 86.2531 160.64 86.1927 160.64 86.1867Z" fill="#EB996E"/>
<path d="M160.839 84.1238L161.31 84.6123C163.361 82.658 167.372 77.7541 167.149 78.0436C166.213 77.6982 165.205 77.5904 164.217 77.7299C162.691 77.9893 159.802 78.7493 159.844 80.5408C159.934 81.7895 160.272 83.0077 160.839 84.1238Z" fill="#263238"/>
<path d="M158.125 83.7138C158.125 83.7138 158.125 83.6715 158.125 83.6052C158.161 83.5039 158.203 83.4052 158.252 83.3096C158.445 82.9639 158.713 82.6652 159.036 82.435C159.514 82.0942 160.046 81.8372 160.61 81.675C161.213 81.4759 161.937 81.3191 162.631 81.0235C163.818 80.5223 164.889 79.7833 165.78 78.852C166.048 78.569 166.299 78.2709 166.533 77.9593L166.72 77.6999C166.741 77.6688 166.765 77.6404 166.793 77.6155L166.739 77.712C166.696 77.7723 166.642 77.8688 166.564 77.9834C166.339 78.3049 166.093 78.6111 165.828 78.9003C165.431 79.3268 164.995 79.7146 164.525 80.0584C163.95 80.4811 163.326 80.8335 162.667 81.108C162.002 81.3628 161.323 81.5803 160.634 81.7594C160.079 81.9145 159.553 82.1611 159.078 82.4893C158.758 82.7096 158.489 82.9954 158.288 83.3277C158.224 83.4522 158.17 83.5812 158.125 83.7138Z" fill="#455A64"/>
<path d="M158.669 84.0032C158.664 83.8649 158.689 83.7272 158.741 83.5991C158.88 83.2418 159.124 82.9349 159.441 82.7184C159.916 82.4151 160.447 82.21 161.003 82.1152C161.669 81.9881 162.319 81.7858 162.939 81.512C163.556 81.2315 164.136 80.8749 164.664 80.4504C165.103 80.1018 165.507 79.712 165.871 79.2863C166.11 79.0001 166.33 78.6978 166.528 78.3815C166.594 78.2789 166.649 78.1885 166.685 78.1221C166.704 78.0896 166.726 78.0592 166.751 78.0316C166.738 78.0653 166.722 78.0976 166.703 78.1281L166.558 78.3996C166.373 78.7275 166.159 79.0384 165.919 79.3285C165.562 79.7738 165.158 80.1784 164.712 80.5349C164.179 80.9681 163.593 81.3329 162.969 81.6206C162.341 81.8967 161.683 82.0991 161.009 82.2238C160.463 82.3262 159.941 82.5308 159.471 82.827C159.158 83.0308 158.913 83.3225 158.765 83.6654C158.723 83.775 158.691 83.888 158.669 84.0032Z" fill="#455A64"/>
<path d="M157.576 100.856C157.488 99.6678 157.488 98.4742 157.576 97.2855C157.657 98.4745 157.657 99.6675 157.576 100.856Z" fill="#263238"/>
<path d="M170.376 100.603C170.36 100.402 170.36 100.2 170.376 99.9997C170.412 99.4965 170.394 98.9909 170.321 98.4917C170.227 97.9934 170.082 97.5062 169.887 97.038C169.796 96.8443 169.723 96.6423 169.67 96.4348C169.788 96.6109 169.887 96.7989 169.965 96.9958C170.189 97.461 170.349 97.9539 170.442 98.4615C170.514 98.9717 170.514 99.4895 170.442 99.9997C170.445 100.203 170.423 100.405 170.376 100.603Z" fill="#263238"/>
<path d="M235.484 105.899H189.37C188.272 105.897 187.219 105.46 186.442 104.684C185.665 103.907 185.228 102.854 185.227 101.755V82.3926L180.142 77.8807H235.484C236.032 77.8767 236.574 77.9812 237.081 78.188C237.588 78.3949 238.048 78.7 238.436 79.0859C238.824 79.4717 239.132 79.9306 239.342 80.436C239.552 80.9415 239.659 81.4834 239.659 82.0307V101.755C239.658 102.302 239.549 102.843 239.339 103.347C239.128 103.851 238.82 104.309 238.432 104.694C238.045 105.079 237.585 105.384 237.079 105.591C236.573 105.797 236.031 105.902 235.484 105.899Z" fill="#EBEBEB"/>
<path d="M232.324 109.036C230.689 109.191 229.045 109.244 227.402 109.193C225.762 109.243 224.12 109.191 222.486 109.036C224.12 108.881 225.762 108.828 227.402 108.879C229.045 108.828 230.689 108.88 232.324 109.036Z" fill="#E0E0E0"/>
<path d="M234.357 109.422C234.337 109.421 234.317 109.417 234.298 109.409C234.279 109.4 234.262 109.388 234.249 109.373L233.296 108.378C233.268 108.35 233.252 108.312 233.252 108.272C233.252 108.233 233.268 108.195 233.296 108.167C233.309 108.152 233.325 108.141 233.344 108.133C233.362 108.125 233.381 108.121 233.401 108.121C233.421 108.121 233.44 108.125 233.459 108.133C233.477 108.141 233.493 108.152 233.507 108.167L234.351 109.048L236.203 107.166C236.216 107.151 236.233 107.14 236.251 107.132C236.269 107.124 236.289 107.12 236.308 107.12C236.328 107.12 236.348 107.124 236.366 107.132C236.384 107.14 236.401 107.151 236.414 107.166C236.442 107.194 236.457 107.232 236.457 107.271C236.457 107.311 236.442 107.349 236.414 107.377L234.454 109.373C234.427 109.399 234.394 109.416 234.357 109.422Z" fill="#12B0EE"/>
<path d="M235.713 109.392H235.538C235.498 109.392 235.46 109.376 235.432 109.347C235.404 109.319 235.388 109.281 235.388 109.241C235.392 109.201 235.41 109.164 235.439 109.137C235.467 109.109 235.505 109.093 235.545 109.09H235.653L237.565 107.142C237.579 107.127 237.596 107.115 237.615 107.107C237.633 107.1 237.654 107.095 237.674 107.095C237.694 107.095 237.714 107.1 237.733 107.107C237.751 107.115 237.768 107.127 237.782 107.142C237.81 107.17 237.825 107.208 237.825 107.247C237.825 107.287 237.81 107.325 237.782 107.353L235.822 109.343C235.809 109.359 235.792 109.371 235.773 109.38C235.754 109.388 235.734 109.392 235.713 109.392Z" fill="#12B0EE"/>
<path d="M232.324 184.839C230.689 184.994 229.045 185.047 227.402 184.996C225.762 185.046 224.12 184.994 222.486 184.839C224.12 184.684 225.762 184.631 227.402 184.682C229.045 184.631 230.689 184.684 232.324 184.839Z" fill="#E0E0E0"/>
<path d="M234.356 185.225C234.333 185.227 234.309 185.224 234.287 185.216C234.265 185.207 234.246 185.194 234.23 185.177L233.277 184.181C233.26 184.168 233.246 184.151 233.236 184.132C233.227 184.112 233.221 184.091 233.22 184.07C233.219 184.048 233.223 184.027 233.231 184.007C233.239 183.987 233.252 183.969 233.267 183.954C233.283 183.939 233.302 183.928 233.322 183.921C233.343 183.914 233.364 183.911 233.386 183.913C233.407 183.916 233.428 183.922 233.447 183.933C233.465 183.944 233.481 183.959 233.494 183.976L234.338 184.857L236.19 182.975C236.204 182.96 236.22 182.949 236.238 182.941C236.256 182.933 236.276 182.929 236.296 182.929C236.316 182.929 236.335 182.933 236.353 182.941C236.371 182.949 236.388 182.96 236.401 182.975C236.429 183.003 236.444 183.041 236.444 183.08C236.444 183.12 236.429 183.158 236.401 183.186L234.465 185.177C234.436 185.205 234.397 185.222 234.356 185.225Z" fill="#12B0EE"/>
<path d="M235.713 185.177H235.538C235.498 185.175 235.46 185.158 235.431 185.129C235.403 185.099 235.388 185.06 235.388 185.02C235.388 185 235.392 184.98 235.4 184.962C235.408 184.943 235.42 184.927 235.434 184.913C235.449 184.899 235.466 184.889 235.485 184.882C235.504 184.876 235.525 184.873 235.545 184.875H235.653L237.565 182.927C237.579 182.912 237.596 182.901 237.615 182.893C237.633 182.885 237.654 182.881 237.674 182.881C237.694 182.881 237.714 182.885 237.733 182.893C237.751 182.901 237.768 182.912 237.782 182.927C237.81 182.955 237.825 182.993 237.825 183.032C237.825 183.072 237.81 183.11 237.782 183.138L235.822 185.128C235.809 185.144 235.792 185.156 235.773 185.165C235.754 185.173 235.734 185.177 235.713 185.177Z" fill="#12B0EE"/>
<path d="M234.893 83.4243C234.893 83.5087 224.826 83.5811 212.406 83.5811C199.987 83.5811 189.925 83.5087 189.925 83.4243C189.925 83.3398 199.987 83.2675 212.406 83.2675C224.826 83.2675 234.893 83.3338 234.893 83.4243Z" fill="white"/>
<path d="M234.893 86.7236C234.893 86.8141 224.826 86.8804 212.406 86.8804C199.987 86.8804 189.925 86.8141 189.925 86.7236C189.925 86.6331 199.987 86.5668 212.406 86.5668C224.826 86.5668 234.893 86.6392 234.893 86.7236Z" fill="white"/>
<path d="M234.893 90.0291C234.893 90.1136 224.826 90.186 212.406 90.186C199.987 90.186 189.925 90.1136 189.925 90.0291C189.925 89.9447 199.987 89.8723 212.406 89.8723C224.826 89.8723 234.893 89.9447 234.893 90.0291Z" fill="white"/>
<path d="M163.62 186.443C171.092 186.443 177.15 180.399 177.15 172.944C177.15 165.488 171.092 159.444 163.62 159.444C156.148 159.444 150.09 165.488 150.09 172.944C150.09 180.399 156.148 186.443 163.62 186.443Z" fill="#E0E0E0"/>
<path d="M157.299 176.322L160.846 176.02L169.496 177.48L170.515 183.97L170.37 184.724C168.423 185.825 166.233 186.429 163.996 186.48C161.759 186.532 159.543 186.03 157.547 185.02L157.299 176.304" fill="#455A64"/>
<path d="M167.644 177.371C168.501 177.247 169.376 177.367 170.17 177.715C170.963 178.064 171.643 178.628 172.131 179.344C172.718 180.163 173.256 181.018 173.742 181.901C172.33 183.433 171.184 184.598 169.23 185.273L167.644 177.371Z" fill="#455A64"/>
<path d="M157.299 176.322C157.299 176.322 154.959 176.605 154.054 178.602C153.149 180.598 152.938 181.226 152.938 181.226C154.144 182.679 155.689 184.405 157.577 185.05C157.577 185.05 158.005 180.025 158.059 178.602C158.125 177.046 158.186 176.274 157.299 176.322Z" fill="#455A64"/>
<path d="M159.434 163.534C160.023 162.778 160.774 162.164 161.633 161.738C162.491 161.312 163.434 161.085 164.392 161.073C165.216 161.068 166.034 161.213 166.805 161.501C167.616 161.698 168.333 162.172 168.832 162.84C169.446 163.631 169.848 164.565 170.002 165.555C170.144 166.57 170.192 167.595 170.147 168.619C170.099 169.646 169.767 170.64 169.188 171.49L166.588 171.943C165.155 172.054 163.713 171.977 162.299 171.713C160.871 171.439 159.609 170.611 158.789 169.409C157.745 167.684 158.18 165.072 159.434 163.534Z" fill="#263238"/>
<path d="M156.925 171.068C156.951 170.773 157.044 170.489 157.196 170.236C157.349 169.983 157.558 169.768 157.806 169.608C158.059 169.454 158.354 169.384 158.649 169.409C158.944 169.434 159.223 169.552 159.447 169.747L159.857 170.235C160.174 170.381 160.437 170.622 160.611 170.925C160.784 171.228 160.858 171.577 160.822 171.924C160.773 172.27 160.626 172.595 160.4 172.861C160.174 173.126 159.877 173.323 159.543 173.426C159.207 173.52 158.853 173.526 158.514 173.444C158.175 173.361 157.862 173.193 157.607 172.956C157.356 172.715 157.164 172.419 157.046 172.091C156.928 171.764 156.886 171.414 156.925 171.068Z" fill="#263238"/>
<path d="M157.437 172.817C157.34 172.662 157.292 172.481 157.298 172.299C157.385 171.861 157.595 171.458 157.902 171.134C158.191 170.791 158.546 170.508 158.945 170.302C159.247 170.139 159.458 170.079 159.452 170.055C159.26 170.072 159.073 170.128 158.903 170.218C158.48 170.41 158.105 170.695 157.805 171.05C157.638 171.244 157.496 171.459 157.383 171.689C157.283 171.876 157.226 172.082 157.214 172.293C157.212 172.437 157.252 172.58 157.329 172.703C157.383 172.793 157.437 172.823 157.437 172.817Z" fill="#455A64"/>
<path d="M166.576 177.13V174.717C166.576 174.717 168.693 174.482 169.284 171.774C169.562 169.978 169.671 168.161 169.61 166.345C169.61 164.698 168.193 162.455 166.154 162.448L165.249 162.346L161.781 163.721C161.539 163.733 161.311 163.835 161.141 164.007C160.972 164.179 160.873 164.409 160.864 164.65L160.761 176.231L162.348 178.457C162.638 178.85 163.044 179.143 163.509 179.293C163.974 179.444 164.475 179.445 164.94 179.296C165.406 179.148 165.814 178.858 166.106 178.466C166.398 178.074 166.56 177.601 166.57 177.112L166.576 177.13Z" fill="#FFBE9D"/>
<path d="M165.183 170.923C165.202 170.783 165.273 170.656 165.382 170.567C165.481 170.484 165.605 170.435 165.734 170.427C165.863 170.42 165.991 170.454 166.1 170.525C166.211 170.611 166.297 170.725 166.35 170.856C166.403 170.986 166.42 171.128 166.401 171.267C166.341 171.35 166.263 171.419 166.174 171.47C166.084 171.521 165.985 171.553 165.883 171.562H165.786C165.625 171.559 165.471 171.497 165.352 171.388C165.29 171.328 165.243 171.255 165.213 171.175C165.184 171.094 165.174 171.008 165.183 170.923Z" fill="#EB996E"/>
<path d="M168.337 168.287C168.326 168.373 168.284 168.452 168.219 168.509C168.154 168.566 168.071 168.597 167.984 168.597C167.898 168.597 167.814 168.566 167.749 168.509C167.685 168.452 167.643 168.373 167.631 168.287C167.636 168.195 167.676 168.108 167.744 168.045C167.811 167.982 167.901 167.948 167.993 167.95C168.038 167.949 168.083 167.957 168.124 167.973C168.166 167.99 168.204 168.015 168.236 168.046C168.268 168.078 168.293 168.115 168.311 168.157C168.328 168.198 168.337 168.242 168.337 168.287Z" fill="#263238"/>
<path d="M168.916 167.389C168.868 167.431 168.609 167.22 168.235 167.202C167.861 167.184 167.565 167.352 167.529 167.304C167.493 167.256 167.559 167.202 167.686 167.123C167.854 167.016 168.054 166.967 168.253 166.984C168.449 166.992 168.638 167.064 168.79 167.19C168.898 167.286 168.934 167.371 168.916 167.389Z" fill="#263238"/>
<path d="M166.534 170.248C166.732 170.201 166.934 170.174 167.137 170.169C167.233 170.169 167.33 170.169 167.348 170.085C167.361 169.986 167.344 169.885 167.3 169.795C167.221 169.56 167.137 169.313 167.052 169.047C166.823 168.411 166.644 167.757 166.516 167.093C166.798 167.708 167.03 168.346 167.209 168.999C167.294 169.265 167.366 169.512 167.445 169.753C167.495 169.873 167.506 170.007 167.475 170.133C167.458 170.167 167.435 170.196 167.405 170.219C167.376 170.242 167.342 170.258 167.306 170.266C167.252 170.274 167.197 170.274 167.143 170.266C166.94 170.287 166.735 170.281 166.534 170.248Z" fill="#263238"/>
<path d="M166.551 174.729C165.259 174.679 164.007 174.272 162.932 173.553C162.932 173.553 163.807 175.501 166.551 175.399V174.729Z" fill="#EB996E"/>
<path d="M165.405 170.447C165.472 170.447 165.448 170.857 165.785 171.171C166.123 171.484 166.557 171.46 166.557 171.514C166.557 171.569 166.455 171.587 166.274 171.587C166.032 171.576 165.801 171.48 165.623 171.315C165.45 171.16 165.346 170.944 165.333 170.712C165.327 170.543 165.381 170.447 165.405 170.447Z" fill="#263238"/>
<path d="M168.837 165.965C168.771 166.055 168.482 165.965 168.144 165.965C167.806 165.965 167.541 166.049 167.45 165.965C167.36 165.88 167.45 165.832 167.583 165.748C167.748 165.64 167.941 165.584 168.138 165.585C168.336 165.577 168.531 165.629 168.699 165.736C168.825 165.832 168.868 165.923 168.837 165.965Z" fill="#263238"/>
<path d="M164.187 168.239C164.185 168.331 164.22 168.42 164.283 168.486C164.346 168.553 164.433 168.592 164.525 168.595C164.569 168.6 164.614 168.596 164.657 168.583C164.7 168.57 164.74 168.548 164.775 168.52C164.809 168.491 164.837 168.456 164.857 168.416C164.878 168.376 164.89 168.332 164.893 168.287C164.894 168.195 164.86 168.106 164.797 168.038C164.734 167.97 164.647 167.93 164.555 167.925C164.51 167.921 164.465 167.926 164.422 167.94C164.379 167.953 164.339 167.975 164.305 168.005C164.271 168.034 164.243 168.07 164.222 168.11C164.202 168.15 164.19 168.194 164.187 168.239Z" fill="#263238"/>
<path d="M163.729 167.25C163.771 167.298 164.042 167.105 164.422 167.117C164.802 167.129 165.074 167.316 165.116 167.268C165.158 167.22 165.116 167.165 164.971 167.075C164.809 166.959 164.615 166.896 164.416 166.894C164.22 166.892 164.029 166.951 163.867 167.063C163.747 167.147 163.705 167.232 163.729 167.25Z" fill="#263238"/>
<path d="M163.512 166.441C163.584 166.526 163.88 166.441 164.23 166.441C164.58 166.441 164.875 166.508 164.948 166.441C165.02 166.375 164.948 166.315 164.803 166.23C164.627 166.127 164.427 166.073 164.224 166.073C164.02 166.073 163.82 166.127 163.645 166.23C163.518 166.309 163.476 166.399 163.512 166.441Z" fill="#263238"/>
<path d="M161.31 169.041C161.31 168.836 161.117 168.348 160.912 168.305C160.381 168.191 159.41 168.179 159.325 169.542C159.211 171.406 161.135 171.14 161.135 171.086C161.135 171.032 161.274 169.747 161.31 169.041Z" fill="#FFBE9D"/>
<path d="M160.64 170.375C160.64 170.375 160.61 170.375 160.55 170.417C160.472 170.446 160.386 170.446 160.308 170.417C160.192 170.334 160.1 170.221 160.042 170.091C159.983 169.96 159.961 169.817 159.977 169.675C159.983 169.515 160.024 169.359 160.097 169.216C160.119 169.16 160.154 169.109 160.199 169.068C160.244 169.027 160.298 168.997 160.357 168.981C160.394 168.974 160.433 168.979 160.467 168.997C160.501 169.014 160.528 169.043 160.544 169.078C160.549 169.11 160.549 169.142 160.544 169.174C160.544 169.174 160.586 169.144 160.574 169.066C160.565 169.019 160.542 168.977 160.507 168.945C160.483 168.925 160.455 168.909 160.425 168.9C160.395 168.891 160.364 168.888 160.332 168.891C160.255 168.899 160.181 168.929 160.119 168.975C160.056 169.022 160.007 169.084 159.977 169.156C159.886 169.312 159.837 169.489 159.832 169.669C159.812 169.834 159.841 170.001 159.916 170.149C159.992 170.297 160.109 170.42 160.254 170.501C160.301 170.524 160.353 170.536 160.405 170.536C160.457 170.536 160.509 170.524 160.556 170.501C160.64 170.417 160.64 170.375 160.64 170.375Z" fill="#EB996E"/>
<path d="M160.839 168.287L161.31 168.782C163.361 166.822 167.372 161.918 167.149 162.213C166.214 161.863 165.206 161.753 164.217 161.894C162.691 162.153 159.802 162.913 159.844 164.71C159.935 165.957 160.273 167.173 160.839 168.287Z" fill="#263238"/>
<path d="M158.125 167.895C158.125 167.895 158.125 167.859 158.125 167.787C158.162 167.688 158.204 167.591 158.252 167.497C158.446 167.15 158.714 166.85 159.036 166.616C159.524 166.279 160.067 166.028 160.64 165.874C161.244 165.669 161.967 165.513 162.661 165.217C163.314 164.946 163.934 164.6 164.507 164.186C164.975 163.848 165.411 163.468 165.81 163.052C166.147 162.69 166.413 162.376 166.564 162.159C166.636 162.05 166.702 161.966 166.751 161.899C166.799 161.833 166.817 161.809 166.823 161.815L166.769 161.911L166.594 162.177C166.372 162.501 166.126 162.807 165.858 163.094C165.462 163.522 165.025 163.912 164.555 164.258C163.976 164.668 163.35 165.009 162.691 165.271C161.991 165.567 161.28 165.724 160.658 165.923C160.103 166.076 159.577 166.321 159.102 166.647C158.782 166.869 158.513 167.157 158.312 167.491C158.241 167.622 158.179 167.757 158.125 167.895Z" fill="#455A64"/>
<path d="M158.668 168.191C158.664 168.05 158.689 167.911 158.741 167.781C158.879 167.424 159.123 167.119 159.441 166.906C159.916 166.603 160.447 166.397 161.003 166.303C161.668 166.173 162.318 165.971 162.939 165.7C163.556 165.419 164.136 165.062 164.664 164.638C165.391 164.056 166.015 163.357 166.51 162.569C166.576 162.46 166.631 162.376 166.667 162.304C166.686 162.273 166.709 162.245 166.733 162.219C166.72 162.253 166.704 162.285 166.685 162.316L166.54 162.587C166.355 162.915 166.141 163.226 165.901 163.516C165.544 163.961 165.14 164.366 164.694 164.722C164.162 165.156 163.576 165.519 162.951 165.802C162.322 166.075 161.665 166.278 160.991 166.405C160.443 166.502 159.92 166.707 159.453 167.008C159.136 167.208 158.89 167.501 158.747 167.847C158.71 167.959 158.684 168.074 158.668 168.191Z" fill="#455A64"/>
<path d="M157.576 185.038C157.488 183.851 157.488 182.66 157.576 181.473C157.657 182.66 157.657 183.851 157.576 185.038Z" fill="#263238"/>
<path d="M170.376 184.79C170.358 184.58 170.358 184.368 170.376 184.157C170.412 183.652 170.394 183.144 170.321 182.643C170.227 182.147 170.081 181.662 169.887 181.195C169.797 181.001 169.724 180.799 169.67 180.592C169.788 180.768 169.887 180.956 169.965 181.153C170.19 181.618 170.35 182.111 170.442 182.619C170.514 183.129 170.514 183.647 170.442 184.157C170.447 184.37 170.425 184.583 170.376 184.79Z" fill="#263238"/>
<path d="M235.484 180.882H189.37C188.271 180.88 187.217 180.442 186.44 179.664C185.663 178.886 185.227 177.831 185.227 176.732V166.574L180.142 162.062H235.484C236.583 162.064 237.636 162.501 238.413 163.278C239.19 164.055 239.627 165.108 239.628 166.206V176.732C239.628 177.831 239.192 178.886 238.415 179.664C237.638 180.442 236.584 180.88 235.484 180.882Z" fill="#EBEBEB"/>
<path d="M234.893 167.606C234.893 167.696 224.826 167.762 212.406 167.762C199.987 167.762 189.925 167.696 189.925 167.606C189.925 167.515 199.987 167.449 212.406 167.449C224.826 167.449 234.893 167.521 234.893 167.606Z" fill="white"/>
<path d="M234.893 170.911C234.893 170.996 224.826 171.068 212.406 171.068C199.987 171.068 189.925 170.996 189.925 170.911C189.925 170.827 199.987 170.754 212.406 170.754C224.826 170.754 234.893 170.827 234.893 170.911Z" fill="white"/>
<path d="M234.893 174.217C234.893 174.301 224.826 174.373 212.406 174.373C199.987 174.373 189.925 174.301 189.925 174.217C189.925 174.132 199.987 174.06 212.406 174.06C224.826 174.06 234.893 174.126 234.893 174.217Z" fill="white"/>
<path d="M234.893 93.3346C234.893 93.419 224.826 93.4914 212.406 93.4914C199.987 93.4914 189.925 93.419 189.925 93.3346C189.925 93.2501 199.987 93.1777 212.406 93.1777C224.826 93.1777 234.893 93.2441 234.893 93.3346Z" fill="white"/>
<path d="M234.893 96.6339C234.893 96.7244 224.826 96.7907 212.406 96.7907C199.987 96.7907 189.925 96.7244 189.925 96.6339C189.925 96.5434 199.987 96.4771 212.406 96.4771C224.826 96.4771 234.893 96.5494 234.893 96.6339Z" fill="white"/>
<path d="M234.893 100.603C234.893 100.693 224.826 100.76 212.406 100.76C199.987 100.76 189.925 100.693 189.925 100.603C189.925 100.513 199.987 100.446 212.406 100.446C224.826 100.446 234.893 100.519 234.893 100.603Z" fill="white"/>
<path d="M190.197 43.2033C190.229 42.7346 190.398 42.2855 190.682 41.9111C190.966 41.5367 191.353 41.2534 191.795 41.0958C192.238 40.9382 192.717 40.9133 193.173 41.0241C193.63 41.1349 194.044 41.3766 194.365 41.7195L193.72 42.3226C193.586 42.161 193.419 42.0312 193.229 41.9425C193.039 41.8538 192.832 41.8085 192.622 41.8099C192.251 41.8099 191.895 41.9574 191.633 42.2198C191.37 42.4822 191.223 42.8382 191.223 43.2093C191.223 43.5805 191.37 43.9364 191.633 44.1989C191.895 44.4613 192.251 44.6087 192.622 44.6087C192.832 44.6103 193.04 44.5644 193.23 44.4746C193.42 44.3848 193.588 44.2534 193.72 44.09L194.365 44.6932C194.045 45.0359 193.631 45.2775 193.175 45.3885C192.719 45.4996 192.24 45.4752 191.798 45.3183C191.355 45.1614 190.968 44.8789 190.684 44.5054C190.4 44.1319 190.231 43.6836 190.197 43.2154V43.2033Z" fill="#263238"/>
<path d="M198.377 43.4627V45.3869H197.436V43.6135C197.436 43.0706 197.182 42.8233 196.754 42.8233C196.326 42.8233 195.952 43.1128 195.952 43.7281V45.3869H194.975V40.7604H195.952V42.383C196.093 42.247 196.261 42.1412 196.444 42.0717C196.628 42.0022 196.823 41.9707 197.019 41.9788C197.211 41.9711 197.402 42.0052 197.578 42.0789C197.755 42.1525 197.914 42.2639 198.043 42.4052C198.172 42.5466 198.269 42.7144 198.327 42.8971C198.384 43.0797 198.401 43.2728 198.377 43.4627Z" fill="#263238"/>
<path d="M202.225 43.4746V45.3867H201.314V44.9705C201.201 45.1333 201.046 45.2624 200.865 45.3442C200.685 45.4259 200.486 45.4573 200.289 45.435C199.505 45.435 199.04 45.0007 199.04 44.4216C199.04 43.8425 199.456 43.4143 200.482 43.4143H201.254C201.254 42.9981 201 42.7568 200.482 42.7568C200.133 42.7533 199.793 42.8611 199.511 43.0644L199.161 42.3888C199.591 42.1101 200.096 41.9671 200.608 41.9787C201.658 41.9787 202.225 42.4552 202.225 43.4746ZM201.254 44.3251V43.9813H200.584C200.132 43.9813 199.981 44.1502 199.981 44.3794C199.981 44.6086 200.186 44.7835 200.53 44.7835C200.684 44.7951 200.837 44.7567 200.968 44.6741C201.098 44.5916 201.198 44.4692 201.254 44.3251Z" fill="#263238"/>
<path d="M205.276 45.2361C205.038 45.3855 204.76 45.4591 204.48 45.4473C204.314 45.4701 204.145 45.4549 203.986 45.403C203.828 45.3511 203.682 45.2638 203.562 45.1476C203.442 45.0314 203.35 44.8894 203.292 44.7323C203.235 44.5753 203.214 44.4072 203.231 44.2409V42.8596H202.712V42.1116H203.231V41.2913H204.202V42.1116H205.041V42.8596H204.202V44.2288C204.195 44.2863 204.201 44.3447 204.219 44.3997C204.237 44.4548 204.267 44.5052 204.306 44.5473C204.346 44.5894 204.395 44.6222 204.449 44.6433C204.503 44.6643 204.561 44.6732 204.618 44.6691C204.76 44.6742 204.899 44.6294 205.011 44.5425L205.276 45.2361Z" fill="#263238"/>
<path d="M222.486 49.935C222.486 50.0194 212.232 50.0918 199.523 50.0918C186.814 50.0918 176.565 50.0194 176.565 49.935C176.565 49.8505 186.82 49.7721 199.523 49.7721C212.226 49.7721 222.486 49.8445 222.486 49.935Z" fill="#263238"/>
<path d="M242.832 43.2032C243.421 43.2032 243.899 42.7252 243.899 42.1355C243.899 41.5459 243.421 41.0679 242.832 41.0679C242.242 41.0679 241.764 41.5459 241.764 42.1355C241.764 42.7252 242.242 43.2032 242.832 43.2032Z" fill="#263238"/>
<path d="M243.881 45.2361C243.882 45.449 243.82 45.6574 243.703 45.8349C243.585 46.0124 243.418 46.1509 243.221 46.2329C243.025 46.3149 242.808 46.3367 242.6 46.2955C242.391 46.2542 242.199 46.1519 242.048 46.0013C241.898 45.8508 241.795 45.659 241.754 45.4501C241.713 45.2413 241.735 45.0249 241.817 44.8285C241.899 44.632 242.037 44.4644 242.215 44.3469C242.392 44.2294 242.601 44.1673 242.814 44.1685C243.096 44.1701 243.367 44.283 243.567 44.4829C243.767 44.6828 243.88 44.9535 243.881 45.2361Z" fill="#263238"/>
<path d="M243.881 48.3665C243.882 48.5794 243.82 48.7878 243.703 48.9653C243.585 49.1427 243.418 49.2813 243.221 49.3633C243.025 49.4453 242.808 49.4671 242.6 49.4259C242.391 49.3846 242.199 49.2822 242.048 49.1317C241.898 48.9812 241.795 48.7893 241.754 48.5805C241.713 48.3717 241.735 48.1553 241.817 47.9589C241.899 47.7624 242.037 47.5948 242.215 47.4773C242.392 47.3598 242.601 47.2977 242.814 47.2988C243.097 47.2988 243.368 47.4113 243.569 47.6116C243.769 47.8118 243.881 48.0833 243.881 48.3665Z" fill="#263238"/>
<path d="M156.007 45.7548C155.942 45.7562 155.878 45.7349 155.826 45.6945L152.997 43.6195C152.959 43.5908 152.927 43.5535 152.905 43.5107C152.883 43.4678 152.871 43.4204 152.871 43.3722C152.871 43.3248 152.882 43.2781 152.904 43.2361C152.927 43.1941 152.958 43.158 152.997 43.1309L155.826 41.0921C155.859 41.069 155.895 41.0525 155.934 41.0436C155.973 41.0347 156.013 41.0336 156.052 41.0403C156.092 41.0471 156.129 41.0615 156.163 41.0828C156.197 41.1041 156.226 41.1319 156.248 41.1645C156.294 41.2288 156.312 41.3084 156.3 41.3861C156.288 41.4639 156.245 41.5338 156.182 41.5807L153.685 43.3903L156.182 45.1999C156.246 45.2479 156.288 45.3188 156.301 45.3976C156.313 45.4764 156.294 45.5569 156.248 45.6221C156.222 45.6622 156.186 45.6952 156.144 45.7183C156.102 45.7414 156.055 45.7539 156.007 45.7548Z" fill="#263238"/>
<path d="M229.832 147.176C237.305 147.176 243.362 141.132 243.362 133.676C243.362 126.221 237.305 120.177 229.832 120.177C222.36 120.177 216.303 126.221 216.303 133.676C216.303 141.132 222.36 147.176 229.832 147.176Z" fill="#E0E0E0"/>
<path d="M233.536 141.656H226.418C226.175 141.656 225.942 141.56 225.77 141.388C225.598 141.216 225.501 140.983 225.501 140.739C225.501 140.496 225.598 140.262 225.77 140.089C225.941 139.916 226.175 139.818 226.418 139.817H233.536C233.78 139.818 234.013 139.916 234.185 140.089C234.356 140.262 234.453 140.496 234.453 140.739C234.453 140.983 234.356 141.216 234.184 141.388C234.012 141.56 233.779 141.656 233.536 141.656Z" fill="#263238"/>
<path d="M230.381 124.9H229.754V128.06H230.381V124.9Z" fill="#263238"/>
<path d="M220.845 137.536C221.858 137.536 222.679 136.715 222.679 135.703C222.679 134.69 221.858 133.869 220.845 133.869C219.832 133.869 219.011 134.69 219.011 135.703C219.011 136.715 219.832 137.536 220.845 137.536Z" fill="#12B0EE"/>
<path d="M239.387 137.416C240.4 137.416 241.221 136.595 241.221 135.582C241.221 134.57 240.4 133.749 239.387 133.749C238.374 133.749 237.553 134.57 237.553 135.582C237.553 136.595 238.374 137.416 239.387 137.416Z" fill="#12B0EE"/>
<path d="M230.339 127.397C230.339 127.397 237.806 127.306 238.989 133.778C240.171 140.251 233.855 140.365 232.04 140.486C231.22 140.54 229.458 140.546 227.902 140.522C224.458 140.462 222.027 139.798 221.201 136.601C221.101 136.226 221.039 135.843 221.014 135.455C220.796 131.957 223.161 127.228 230.339 127.397Z" fill="#12B0EE"/>
<path d="M224.923 137.247L235.781 137.416C236.327 137.424 236.854 137.215 237.246 136.835C237.638 136.455 237.864 135.935 237.874 135.389C237.88 134.843 237.67 134.317 237.289 133.925C236.908 133.534 236.387 133.31 235.841 133.302L224.983 133.133C224.713 133.128 224.444 133.177 224.192 133.276C223.94 133.376 223.711 133.524 223.516 133.712C223.322 133.9 223.166 134.125 223.059 134.374C222.952 134.622 222.894 134.889 222.89 135.16C222.886 135.431 222.936 135.699 223.036 135.951C223.136 136.202 223.285 136.432 223.474 136.625C223.662 136.819 223.888 136.974 224.136 137.081C224.385 137.187 224.652 137.244 224.923 137.247Z" fill="#263238"/>
<path d="M233.524 135.166C233.54 135.251 233.573 135.332 233.62 135.405C233.668 135.478 233.729 135.54 233.801 135.589C233.873 135.638 233.953 135.672 234.038 135.689C234.123 135.707 234.211 135.707 234.296 135.691C234.388 135.681 234.477 135.653 234.557 135.607C234.637 135.562 234.707 135.5 234.762 135.426C234.817 135.352 234.856 135.267 234.877 135.177C234.897 135.087 234.898 134.994 234.881 134.903C234.863 134.813 234.827 134.727 234.774 134.651C234.721 134.575 234.653 134.511 234.574 134.464C234.495 134.416 234.407 134.385 234.316 134.373C234.224 134.361 234.131 134.368 234.043 134.394C233.958 134.41 233.877 134.443 233.805 134.491C233.733 134.539 233.672 134.601 233.623 134.672C233.575 134.744 233.542 134.824 233.525 134.909C233.508 134.994 233.507 135.081 233.524 135.166Z" fill="white"/>
<path d="M225.942 135.045C225.951 135.137 225.979 135.226 226.025 135.306C226.071 135.387 226.132 135.457 226.206 135.512C226.281 135.567 226.365 135.606 226.455 135.626C226.545 135.646 226.639 135.648 226.729 135.63C226.82 135.612 226.906 135.576 226.981 135.523C227.057 135.47 227.121 135.402 227.169 135.324C227.217 135.245 227.248 135.157 227.26 135.065C227.272 134.974 227.265 134.881 227.239 134.792C227.192 134.633 227.088 134.498 226.947 134.412C226.805 134.326 226.637 134.296 226.475 134.328C226.312 134.359 226.168 134.451 226.069 134.583C225.971 134.716 225.925 134.881 225.942 135.045Z" fill="white"/>
<path d="M231.099 124.858C231.1 125.062 231.041 125.262 230.928 125.432C230.816 125.603 230.655 125.736 230.467 125.815C230.278 125.894 230.071 125.915 229.87 125.876C229.67 125.837 229.485 125.739 229.34 125.595C229.196 125.451 229.097 125.267 229.056 125.067C229.016 124.867 229.036 124.659 229.114 124.47C229.192 124.281 229.324 124.12 229.494 124.006C229.664 123.893 229.863 123.832 230.068 123.832C230.34 123.832 230.602 123.94 230.795 124.132C230.988 124.324 231.097 124.585 231.099 124.858Z" fill="#12B0EE"/>
<path d="M231.625 134.865C231.625 134.865 231.667 134.913 231.691 135.021C231.71 135.175 231.696 135.332 231.649 135.48C231.583 135.709 231.458 135.917 231.287 136.083C231.078 136.292 230.803 136.422 230.509 136.451C230.215 136.475 229.921 136.399 229.676 136.234C229.483 136.103 229.323 135.927 229.212 135.721C229.14 135.583 229.099 135.43 229.091 135.275C229.091 135.166 229.091 135.106 229.127 135.106C229.164 135.106 229.188 135.335 229.387 135.618C229.503 135.776 229.648 135.909 229.815 136.011C230.017 136.131 230.251 136.185 230.485 136.167C230.709 136.139 230.92 136.042 231.088 135.89C231.24 135.764 231.362 135.605 231.444 135.425C231.601 135.112 231.576 134.865 231.625 134.865Z" fill="white"/>
<path d="M238.977 133.568C238.999 133.618 239.017 133.671 239.031 133.724C239.055 133.788 239.075 133.852 239.091 133.917C239.091 133.99 239.134 134.074 239.152 134.177C239.198 134.402 239.23 134.629 239.248 134.858C239.269 135.14 239.269 135.422 239.248 135.703C239.223 135.984 239.177 136.262 239.109 136.535C239.053 136.757 238.98 136.975 238.892 137.187C238.862 137.271 238.828 137.353 238.79 137.434C238.763 137.494 238.733 137.553 238.699 137.609L238.615 137.76C238.628 137.704 238.651 137.651 238.681 137.603L238.76 137.416C238.79 137.344 238.826 137.265 238.856 137.175C238.937 136.962 239.004 136.745 239.055 136.523C239.119 136.251 239.166 135.975 239.194 135.697C239.212 135.418 239.212 135.138 239.194 134.858C239.179 134.632 239.151 134.406 239.109 134.183C239.097 134.089 239.079 133.997 239.055 133.905C239.055 133.827 239.025 133.767 239.013 133.712C238.994 133.666 238.982 133.617 238.977 133.568Z" fill="#263238"/>
<path d="M221.285 133.604C221.259 133.656 221.239 133.71 221.225 133.767C221.225 133.815 221.189 133.881 221.165 133.954C221.14 134.026 221.122 134.116 221.104 134.213C221.058 134.438 221.028 134.666 221.014 134.895C220.993 135.176 220.993 135.458 221.014 135.739C221.038 136.02 221.084 136.298 221.153 136.571C221.209 136.796 221.281 137.015 221.37 137.229C221.4 137.319 221.442 137.398 221.472 137.47C221.502 137.543 221.539 137.603 221.563 137.651L221.647 137.796C221.631 137.741 221.609 137.689 221.581 137.639C221.581 137.591 221.533 137.531 221.502 137.458C221.472 137.386 221.436 137.307 221.406 137.217C221.325 137.002 221.258 136.783 221.207 136.559C221.142 136.287 221.096 136.011 221.068 135.733C221.05 135.456 221.05 135.178 221.068 134.901C221.083 134.672 221.111 134.444 221.153 134.219C221.165 134.134 221.183 134.049 221.207 133.966C221.207 133.887 221.237 133.821 221.249 133.773C221.261 133.724 221.285 133.604 221.285 133.604Z" fill="#263238"/>
<path d="M222.896 145.269C222.896 145.269 225.116 143.104 229.755 143.104C234.393 143.104 236.77 145.269 236.77 145.269C234.677 146.532 232.278 147.2 229.833 147.2C227.388 147.2 224.99 146.532 222.896 145.269Z" fill="#12B0EE"/>
<path d="M155.815 147.441H201.923C202.467 147.442 203.006 147.335 203.51 147.127C204.013 146.919 204.47 146.614 204.855 146.229C205.24 145.844 205.545 145.387 205.753 144.884C205.961 144.381 206.068 143.842 206.067 143.297V129.918L211.152 125.406H155.815C155.271 125.406 154.732 125.514 154.229 125.722C153.726 125.93 153.269 126.235 152.885 126.62C152.5 127.005 152.195 127.462 151.986 127.965C151.778 128.467 151.671 129.006 151.671 129.55V143.297C151.67 143.842 151.777 144.381 151.985 144.884C152.193 145.387 152.498 145.844 152.883 146.229C153.268 146.614 153.725 146.919 154.228 147.127C154.731 147.335 155.27 147.442 155.815 147.441Z" fill="#EBEBEB"/>
<path d="M199.848 131.945C199.848 132.035 190.354 132.102 178.64 132.102C166.926 132.102 157.432 132.035 157.432 131.945C157.432 131.854 166.926 131.788 178.64 131.788C190.354 131.788 199.848 131.86 199.848 131.945Z" fill="white"/>
<path d="M199.848 135.528C199.848 135.618 190.354 135.685 178.64 135.685C166.926 135.685 157.432 135.618 157.432 135.528C157.432 135.437 166.926 135.371 178.64 135.371C190.354 135.371 199.848 135.443 199.848 135.528Z" fill="white"/>
<path d="M199.848 139.111C199.848 139.195 190.354 139.268 178.64 139.268C166.926 139.268 157.432 139.195 157.432 139.111C157.432 139.026 166.926 138.954 178.64 138.954C190.354 138.954 199.848 139.026 199.848 139.111Z" fill="white"/>
<path d="M199.848 142.694C199.848 142.778 190.354 142.851 178.64 142.851C166.926 142.851 157.432 142.778 157.432 142.694C157.432 142.609 166.926 142.537 178.64 142.537C190.354 142.537 199.848 142.603 199.848 142.694Z" fill="white"/>
<path d="M229.832 222.14C237.305 222.14 243.362 216.096 243.362 208.641C243.362 201.185 237.305 195.141 229.832 195.141C222.36 195.141 216.303 201.185 216.303 208.641C216.303 216.096 222.36 222.14 229.832 222.14Z" fill="#E0E0E0"/>
<path d="M233.536 216.621H226.418C226.297 216.621 226.178 216.597 226.066 216.551C225.954 216.504 225.853 216.436 225.768 216.35C225.683 216.265 225.615 216.163 225.57 216.051C225.524 215.939 225.501 215.819 225.501 215.698C225.501 215.455 225.598 215.222 225.77 215.05C225.942 214.878 226.175 214.781 226.418 214.781H233.536C233.779 214.781 234.012 214.878 234.184 215.05C234.356 215.222 234.453 215.455 234.453 215.698C234.454 215.819 234.431 215.939 234.385 216.051C234.339 216.163 234.272 216.265 234.186 216.35C234.101 216.436 234 216.504 233.888 216.551C233.777 216.597 233.657 216.621 233.536 216.621Z" fill="#263238"/>
<path d="M230.381 199.864H229.754V203.025H230.381V199.864Z" fill="#263238"/>
<path d="M220.845 212.501C221.858 212.501 222.679 211.68 222.679 210.668C222.679 209.655 221.858 208.834 220.845 208.834C219.832 208.834 219.011 209.655 219.011 210.668C219.011 211.68 219.832 212.501 220.845 212.501Z" fill="#12B0EE"/>
<path d="M239.387 212.375C240.4 212.375 241.221 211.554 241.221 210.541C241.221 209.528 240.4 208.707 239.387 208.707C238.374 208.707 237.553 209.528 237.553 210.541C237.553 211.554 238.374 212.375 239.387 212.375Z" fill="#12B0EE"/>
<path d="M230.339 202.362C230.339 202.362 237.806 202.271 238.989 208.737C240.171 215.204 233.855 215.33 232.04 215.451C231.22 215.505 229.458 215.511 227.902 215.487C224.458 215.427 222.027 214.757 221.201 211.566C221.101 211.191 221.039 210.807 221.014 210.42C220.796 206.922 223.161 202.187 230.339 202.362Z" fill="#12B0EE"/>
<path d="M224.923 212.212L235.781 212.38C236.327 212.389 236.854 212.18 237.246 211.8C237.638 211.42 237.864 210.9 237.874 210.354C237.88 209.808 237.67 209.281 237.289 208.89C236.908 208.499 236.387 208.275 235.841 208.267L224.983 208.092C224.437 208.084 223.91 208.293 223.518 208.672C223.126 209.052 222.9 209.572 222.89 210.119C222.886 210.389 222.936 210.658 223.036 210.91C223.136 211.162 223.284 211.392 223.473 211.586C223.662 211.78 223.887 211.936 224.136 212.043C224.385 212.15 224.652 212.208 224.923 212.212Z" fill="#263238"/>
<path d="M233.524 210.131C233.539 210.217 233.57 210.299 233.617 210.373C233.663 210.446 233.723 210.51 233.795 210.561C233.866 210.611 233.946 210.647 234.031 210.666C234.116 210.686 234.204 210.688 234.29 210.673C234.376 210.659 234.458 210.627 234.532 210.581C234.606 210.534 234.67 210.474 234.72 210.403C234.771 210.332 234.806 210.251 234.826 210.166C234.845 210.081 234.848 209.993 234.833 209.907C234.824 209.816 234.795 209.727 234.75 209.646C234.704 209.566 234.642 209.496 234.568 209.441C234.494 209.386 234.409 209.347 234.319 209.327C234.229 209.307 234.136 209.305 234.046 209.323C233.955 209.341 233.869 209.377 233.793 209.43C233.718 209.482 233.654 209.55 233.606 209.629C233.558 209.708 233.527 209.796 233.515 209.888C233.503 209.979 233.51 210.072 233.536 210.161L233.524 210.131Z" fill="white"/>
<path d="M225.942 210.01C225.967 210.139 226.03 210.257 226.122 210.35C226.214 210.444 226.332 210.507 226.461 210.533C226.59 210.559 226.723 210.547 226.844 210.497C226.966 210.447 227.07 210.363 227.143 210.254C227.217 210.145 227.256 210.017 227.257 209.886C227.257 209.755 227.219 209.626 227.146 209.517C227.074 209.407 226.971 209.322 226.85 209.271C226.729 209.22 226.596 209.207 226.467 209.232C226.381 209.248 226.3 209.282 226.227 209.33C226.154 209.378 226.092 209.44 226.043 209.512C225.994 209.584 225.96 209.666 225.943 209.751C225.926 209.836 225.925 209.924 225.942 210.01Z" fill="white"/>
<path d="M231.099 199.798C231.099 200.002 231.039 200.201 230.925 200.371C230.812 200.541 230.651 200.673 230.462 200.751C230.274 200.829 230.066 200.849 229.866 200.81C229.666 200.77 229.482 200.672 229.338 200.527C229.194 200.383 229.096 200.199 229.056 199.999C229.016 199.799 229.037 199.592 229.115 199.403C229.193 199.215 229.325 199.054 229.495 198.94C229.664 198.827 229.864 198.766 230.068 198.766C230.341 198.766 230.604 198.875 230.797 199.069C230.99 199.262 231.099 199.524 231.099 199.798Z" fill="#12B0EE"/>
<path d="M231.625 209.823C231.625 209.823 231.667 209.877 231.691 209.986C231.71 210.14 231.695 210.296 231.649 210.444C231.581 210.673 231.457 210.88 231.287 211.047C231.078 211.256 230.803 211.386 230.509 211.415C230.215 211.44 229.921 211.363 229.676 211.198C229.483 211.067 229.323 210.891 229.212 210.686C229.141 210.547 229.1 210.395 229.091 210.239C229.091 210.131 229.091 210.07 229.127 210.07C229.164 210.07 229.188 210.3 229.387 210.577C229.501 210.737 229.647 210.873 229.815 210.975C230.018 211.091 230.251 211.146 230.485 211.132C230.709 211.103 230.92 211.006 231.088 210.854C231.237 210.726 231.358 210.568 231.444 210.39C231.601 210.064 231.576 209.829 231.625 209.823Z" fill="white"/>
<path d="M238.977 208.526C238.977 208.526 238.977 208.586 239.031 208.689C239.055 208.752 239.076 208.816 239.091 208.882C239.091 208.954 239.134 209.039 239.152 209.135C239.197 209.361 239.229 209.588 239.248 209.817C239.269 210.098 239.269 210.38 239.248 210.661C239.224 210.942 239.178 211.22 239.109 211.494C239.053 211.718 238.981 211.938 238.892 212.151C238.862 212.234 238.828 212.314 238.79 212.393C238.764 212.455 238.734 212.516 238.699 212.574L238.615 212.718C238.631 212.664 238.653 212.611 238.681 212.561C238.681 212.513 238.729 212.453 238.76 212.381C238.79 212.308 238.826 212.23 238.856 212.139C238.938 211.925 239.004 211.705 239.055 211.482C239.12 211.212 239.166 210.938 239.194 210.661C239.212 210.382 239.212 210.102 239.194 209.823C239.179 209.596 239.151 209.371 239.109 209.147C239.097 209.06 239.078 208.973 239.055 208.888C239.055 208.81 239.025 208.749 239.013 208.695C238.992 208.641 238.98 208.584 238.977 208.526Z" fill="#263238"/>
<path d="M221.285 208.568C221.259 208.62 221.239 208.675 221.225 208.731C221.225 208.779 221.189 208.846 221.165 208.918C221.14 208.991 221.122 209.081 221.104 209.178C221.058 209.402 221.028 209.63 221.014 209.859C220.993 210.14 220.993 210.423 221.014 210.704C221.038 210.984 221.085 211.263 221.153 211.536C221.209 211.76 221.281 211.98 221.37 212.194C221.4 212.284 221.442 212.362 221.472 212.435C221.502 212.507 221.539 212.568 221.563 212.616L221.647 212.761C221.633 212.705 221.61 212.653 221.581 212.604C221.581 212.555 221.533 212.495 221.502 212.423C221.472 212.35 221.436 212.272 221.406 212.175C221.325 211.963 221.258 211.745 221.207 211.524C221.142 211.252 221.096 210.976 221.068 210.698C221.05 210.42 221.05 210.142 221.068 209.865C221.083 209.637 221.111 209.409 221.153 209.184C221.165 209.098 221.183 209.013 221.207 208.93C221.207 208.852 221.237 208.786 221.249 208.737C221.261 208.689 221.285 208.568 221.285 208.568Z" fill="#263238"/>
<path d="M222.896 220.234C222.896 220.234 225.116 218.069 229.755 218.069C234.393 218.069 236.77 220.234 236.77 220.234C234.677 221.497 232.278 222.165 229.833 222.165C227.388 222.165 224.99 221.497 222.896 220.234Z" fill="#12B0EE"/>
<path d="M155.815 222.406H201.923C202.467 222.406 203.006 222.3 203.51 222.092C204.013 221.884 204.47 221.579 204.855 221.194C205.24 220.809 205.545 220.352 205.753 219.849C205.961 219.345 206.068 218.806 206.067 218.262V204.883L211.152 200.371H155.815C155.271 200.371 154.732 200.478 154.229 200.687C153.726 200.895 153.269 201.2 152.885 201.585C152.5 201.97 152.195 202.426 151.986 202.929C151.778 203.432 151.671 203.971 151.671 204.515V218.262C151.67 218.806 151.777 219.345 151.985 219.849C152.193 220.352 152.498 220.809 152.883 221.194C153.268 221.579 153.725 221.884 154.228 222.092C154.731 222.3 155.27 222.406 155.815 222.406Z" fill="#EBEBEB"/>
<path d="M155.815 243.33H201.923C202.468 243.33 203.007 243.223 203.51 243.014C204.013 242.806 204.47 242.5 204.855 242.115C205.24 241.729 205.545 241.272 205.753 240.768C205.961 240.265 206.068 239.725 206.067 239.18V234.747L211.152 230.235H155.815C155.271 230.235 154.732 230.342 154.229 230.551C153.726 230.759 153.269 231.064 152.885 231.449C152.5 231.834 152.195 232.29 151.986 232.793C151.778 233.296 151.671 233.835 151.671 234.379V239.205C151.676 240.3 152.114 241.35 152.891 242.123C153.668 242.896 154.719 243.33 155.815 243.33Z" fill="#EBEBEB"/>
<path d="M199.848 206.892C199.848 206.982 190.354 207.048 178.64 207.048C166.926 207.048 157.432 206.982 157.432 206.892C157.432 206.801 166.926 206.735 178.64 206.735C190.354 206.735 199.848 206.825 199.848 206.892Z" fill="white"/>
<path d="M199.848 210.511C199.848 210.595 190.354 210.668 178.64 210.668C166.926 210.668 157.432 210.595 157.432 210.511C157.432 210.426 166.926 210.354 178.64 210.354C190.354 210.354 199.848 210.408 199.848 210.511Z" fill="white"/>
<path d="M199.848 214.075C199.848 214.16 190.354 214.232 178.64 214.232C166.926 214.232 157.432 214.16 157.432 214.075C157.432 213.991 166.926 213.919 178.64 213.919C190.354 213.919 199.848 213.985 199.848 214.075Z" fill="white"/>
<path d="M199.848 217.658C199.848 217.743 190.354 217.815 178.64 217.815C166.926 217.815 157.432 217.743 157.432 217.658C157.432 217.574 166.926 217.502 178.64 217.502C190.354 217.502 199.848 217.568 199.848 217.658Z" fill="white"/>
<path d="M199.993 236.973C199.993 237.057 190.595 237.129 179.008 237.129C167.42 237.129 158.017 237.057 158.017 236.973C158.017 236.888 167.414 236.816 179.008 236.816C190.601 236.816 199.993 236.882 199.993 236.973Z" fill="white"/>
<path d="M60.5704 71.5956L58.3386 64.6287C61.513 59.4776 62.6457 53.3253 61.5142 47.3814C60.3826 41.4374 57.0687 36.1317 52.2237 32.5072C47.3787 28.8826 41.3532 27.2014 35.3316 27.7941C29.31 28.3867 23.7278 31.2104 19.6825 35.7099C15.6371 40.2095 13.4211 46.0595 13.47 52.11C13.519 58.1605 15.8294 63.9738 19.9471 68.4073C24.0648 72.8408 29.6919 75.5737 35.7223 76.0688C41.7527 76.5639 47.7502 74.7854 52.5359 71.0829L60.5704 71.5956Z" fill="#FAFAFA"/>
<path d="M60.5709 71.5956H60.0643L58.5322 71.5171L52.5002 71.1854C52.491 71.1854 52.4818 71.1835 52.4734 71.1798C52.4649 71.1761 52.4573 71.1707 52.451 71.1639C52.4448 71.1571 52.44 71.149 52.4371 71.1403C52.4341 71.1315 52.433 71.1222 52.4339 71.113C52.4313 71.1011 52.4313 71.0887 52.4339 71.0768L52.5304 71.1733C48.3391 74.4472 43.185 76.2472 37.8668 76.2944C36.5236 76.2873 35.1829 76.1804 33.8556 75.9747C27.6882 75.0094 22.1333 71.6959 18.3535 66.7278C16.2485 63.9311 14.7656 60.7166 14.0045 57.2999C13.1774 53.6671 13.2104 49.8913 14.101 46.2736C14.2156 45.8151 14.3363 45.3507 14.4569 44.8922C14.5775 44.4338 14.7766 43.9875 14.9334 43.5351C15.0863 43.0776 15.2635 42.6285 15.4642 42.1899C15.6693 41.7556 15.8804 41.3213 16.0674 40.881C16.275 40.4408 16.5128 40.0156 16.7792 39.6083L17.5453 38.3536L18.4259 37.1473L18.8723 36.5441C19.0231 36.351 19.198 36.1761 19.3609 35.9891C21.9693 32.99 25.2784 30.6818 28.9938 29.2696C32.5309 27.9218 36.3291 27.3999 40.0986 27.7435C43.6406 28.0957 47.0614 29.2243 50.1176 31.049C55.5489 34.2747 59.5103 39.4888 61.1621 45.5859C61.511 46.8923 61.761 48.2231 61.91 49.567C62.0066 50.8232 62.0288 52.0841 61.9764 53.343C61.7452 57.3549 60.5135 61.2451 58.3934 64.6588V64.6046C59.1052 66.8726 59.6481 68.6218 60.022 69.8161C60.203 70.4193 60.3357 70.8355 60.4322 71.1432L60.5649 71.5895C60.5649 71.5895 60.5046 71.4267 60.402 71.1251L59.9617 69.792C59.5757 68.5856 59.0026 66.8846 58.2667 64.6468C58.2603 64.6293 58.2603 64.61 58.2667 64.5925C60.3469 61.1864 61.5471 57.3163 61.7592 53.3309C61.8055 52.0837 61.7773 50.8349 61.6748 49.5911C61.5241 48.2589 61.2721 46.9401 60.9208 45.6462C59.627 40.9526 56.9435 36.7601 53.2229 33.6198C49.5023 30.4795 44.9188 28.5382 40.0745 28.0511C36.3525 27.7105 32.6018 28.2242 29.1084 29.5531C25.4494 30.9532 22.191 33.2318 19.6202 36.1882C19.4634 36.3752 19.2885 36.5441 19.1377 36.7371L18.6973 37.3403L17.8288 38.5044L17.0808 39.747C16.8154 40.1528 16.5776 40.576 16.369 41.0137C16.1639 41.442 15.9589 41.8763 15.7658 42.3046C15.5691 42.7372 15.3959 43.1802 15.2471 43.6316C15.0903 44.0779 14.9033 44.5183 14.7706 44.9707C14.6379 45.4231 14.5353 45.8815 14.4207 46.3339C13.5461 49.896 13.5089 53.6124 14.3121 57.1913C15.3573 61.8911 17.7902 66.1687 21.2953 69.4694C24.8004 72.7702 29.2161 74.942 33.9702 75.7033C35.2854 75.9098 36.6139 76.0207 37.9452 76.035C39.1879 76.0298 40.4283 75.9269 41.6548 75.7274C45.607 75.0835 49.3376 73.469 52.5123 71.0285C52.5185 71.022 52.526 71.0168 52.5343 71.0132C52.5426 71.0096 52.5515 71.0077 52.5605 71.0077C52.5696 71.0077 52.5785 71.0096 52.5868 71.0132C52.5951 71.0168 52.6026 71.022 52.6088 71.0285C52.6176 71.0409 52.6224 71.0556 52.6224 71.0708C52.6224 71.0859 52.6176 71.1007 52.6088 71.113L52.5605 71.0044L58.5201 71.4146L60.0643 71.5232L60.5709 71.5956Z" fill="#263238"/>
<path d="M30.9168 51.9557C30.9168 52.4413 30.7728 52.9159 30.5031 53.3196C30.2333 53.7234 29.8499 54.038 29.4013 54.2238C28.9527 54.4097 28.4591 54.4583 27.9829 54.3635C27.5067 54.2688 27.0692 54.035 26.7259 53.6917C26.3825 53.3483 26.1487 52.9109 26.054 52.4347C25.9593 51.9584 26.0079 51.4648 26.1937 51.0162C26.3795 50.5677 26.6942 50.1842 27.0979 49.9145C27.5016 49.6447 27.9763 49.5007 28.4618 49.5007C29.1124 49.5023 29.736 49.7615 30.196 50.2215C30.6561 50.6816 30.9152 51.3051 30.9168 51.9557Z" fill="#263238"/>
<path d="M40.7498 51.9557C40.7498 52.4413 40.6058 52.9159 40.3361 53.3196C40.0663 53.7234 39.6829 54.038 39.2343 54.2238C38.7857 54.4097 38.2921 54.4583 37.8159 54.3635C37.3397 54.2688 36.9022 54.035 36.5589 53.6917C36.2156 53.3483 35.9817 52.9109 35.887 52.4347C35.7923 51.9584 35.8409 51.4648 36.0267 51.0162C36.2125 50.5677 36.5272 50.1842 36.9309 49.9145C37.3346 49.6447 37.8093 49.5007 38.2948 49.5007C38.9454 49.5023 39.569 49.7615 40.029 50.2215C40.4891 50.6816 40.7482 51.3051 40.7498 51.9557Z" fill="#263238"/>
<path d="M50.5583 50.7312C50.8003 51.1517 50.9123 51.6345 50.8802 52.1186C50.848 52.6027 50.6731 53.0664 50.3776 53.4512C50.082 53.836 49.6791 54.1246 49.2197 54.2806C48.7602 54.4365 48.2649 54.4528 47.7962 54.3275C47.3275 54.2021 46.9064 53.9406 46.5862 53.5761C46.266 53.2116 46.061 52.7604 45.997 52.2794C45.9331 51.7985 46.0131 51.3093 46.2269 50.8738C46.4407 50.4383 46.7788 50.0759 47.1985 49.8324C47.478 49.6703 47.7867 49.5649 48.107 49.5223C48.4273 49.4797 48.7529 49.5007 49.065 49.5842C49.3771 49.6677 49.6697 49.812 49.926 50.0089C50.1822 50.2057 50.3971 50.4511 50.5583 50.7312Z" fill="#263238"/>
<path d="M51.534 160.446L26.1275 157.816L15.3666 133.393L7.00635 135.57C7.00635 135.57 13.183 161.381 20.0956 165.38C27.0082 169.379 50.6232 170.097 50.6232 170.097L51.534 160.446Z" fill="#12B0EE"/>
<path d="M65.0407 172.868C69.1747 168.217 68.7553 161.095 64.104 156.961C59.4526 152.827 52.3307 153.246 48.1967 157.897C44.0627 162.549 44.4821 169.671 49.1334 173.805C53.7847 177.939 60.9067 177.519 65.0407 172.868Z" fill="#263238"/>
<path d="M56.6202 176.66C54.0092 176.66 51.4789 175.754 49.4606 174.098C47.4423 172.441 46.0607 170.136 45.5513 167.576C45.042 165.015 45.4363 162.356 46.6671 160.054C47.8979 157.751 49.8891 155.946 52.3014 154.947C54.7136 153.948 57.3977 153.816 59.8963 154.574C62.3949 155.332 64.5534 156.933 66.004 159.104C67.4546 161.275 68.1075 163.882 67.8516 166.48C67.5957 169.079 66.4467 171.508 64.6004 173.354C63.5548 174.405 62.3111 175.239 60.9413 175.806C59.5715 176.373 58.1028 176.664 56.6202 176.66ZM56.6202 154.124C54.0162 154.122 51.4918 155.022 49.4772 156.672C47.4625 158.322 46.0823 160.619 45.5716 163.172C45.0609 165.726 45.4514 168.377 46.6764 170.675C47.9015 172.973 49.8854 174.775 52.2902 175.774C54.6949 176.773 57.3716 176.908 59.8643 176.154C62.357 175.401 64.5114 173.807 65.9604 171.643C67.4095 169.48 68.0635 166.881 67.8111 164.289C67.5588 161.697 66.4155 159.273 64.5763 157.43C63.5345 156.38 62.295 155.548 60.9293 154.98C59.5636 154.413 58.099 154.122 56.6202 154.124Z" fill="#263238"/>
<path d="M23.8503 167.309C28.3885 166.22 31.1843 161.658 30.0947 157.119C29.0052 152.581 24.443 149.785 19.9047 150.875C15.3665 151.964 12.5707 156.527 13.6603 161.065C14.7498 165.603 19.312 168.399 23.8503 167.309Z" fill="#263238"/>
<path d="M15.4606 135.367C18.1577 132.67 18.1577 128.297 15.4606 125.6C12.7634 122.903 8.39041 122.903 5.69324 125.6C2.99606 128.297 2.99606 132.67 5.69324 135.367C8.39041 138.064 12.7634 138.064 15.4606 135.367Z" fill="#263238"/>
<path d="M21.3416 126.746L15.6547 131.548L13.6037 129.12L19.2907 124.317C19.5901 124.064 19.9778 123.941 20.3683 123.974C20.7589 124.007 21.1203 124.193 21.3732 124.493L21.5133 124.659C21.6395 124.807 21.7351 124.979 21.7948 125.164C21.8544 125.349 21.8769 125.544 21.861 125.738C21.845 125.932 21.7909 126.121 21.7018 126.294C21.6127 126.467 21.4903 126.62 21.3416 126.746Z" fill="#263238"/>
<path d="M14.1182 117.951V125.189C14.1182 125.245 14.0959 125.299 14.0563 125.338C14.0167 125.378 13.963 125.4 13.9071 125.4H11.1565C11.1005 125.4 11.0468 125.378 11.0072 125.338C10.9676 125.299 10.9454 125.245 10.9454 125.189V117.951C10.9454 117.559 11.1011 117.183 11.3782 116.906C11.6554 116.629 12.0313 116.473 12.4232 116.473H12.6403C13.0323 116.473 13.4082 116.629 13.6853 116.906C13.9625 117.183 14.1182 117.559 14.1182 117.951Z" fill="#263238"/>
<path d="M8.99646 117.978L10.5767 125.042C10.5889 125.097 10.5789 125.154 10.5489 125.201C10.5189 125.248 10.4714 125.282 10.4167 125.294L7.73253 125.895C7.67789 125.907 7.62063 125.897 7.57335 125.867C7.52607 125.837 7.49265 125.789 7.48042 125.735L5.9002 118.671C5.81464 118.288 5.88452 117.888 6.09447 117.557C6.30443 117.226 6.63726 116.992 7.01974 116.906L7.23166 116.859C7.61414 116.773 8.01496 116.843 8.34592 117.053C8.67688 117.263 8.91089 117.596 8.99646 117.978Z" fill="#263238"/>
<path d="M3.48647 119.748L7.10562 126.017C7.13362 126.066 7.1412 126.123 7.12671 126.177C7.11221 126.231 7.07683 126.277 7.02834 126.305L4.64629 127.681C4.5978 127.709 4.54018 127.716 4.4861 127.702C4.43201 127.687 4.3859 127.652 4.3579 127.603L0.738747 121.335C0.542776 120.995 0.489671 120.592 0.591113 120.213C0.692556 119.835 0.940241 119.512 1.27967 119.316L1.46773 119.208C1.80716 119.012 2.21054 118.958 2.58913 119.06C2.96771 119.161 3.2905 119.409 3.48647 119.748Z" fill="#263238"/>
<path d="M161.954 223.715L169.558 220.48L147.615 168.886L140.011 172.12L161.954 223.715Z" fill="#12B0EE"/>
<path d="M148.705 173.816C152.728 169.068 152.14 161.958 147.391 157.936C142.643 153.913 135.533 154.502 131.511 159.25C127.488 163.998 128.077 171.108 132.825 175.13C137.573 179.153 144.683 178.565 148.705 173.816Z" fill="#263238"/>
<path d="M140.131 177.842C138.364 177.842 136.62 177.428 135.042 176.632C133.463 175.837 132.094 174.681 131.044 173.259C129.993 171.838 129.291 170.189 128.994 168.446C128.697 166.704 128.814 164.916 129.334 163.226C129.951 161.234 131.108 159.451 132.678 158.077C134.247 156.702 136.166 155.79 138.223 155.441C140.28 155.092 142.393 155.321 144.327 156.101C146.262 156.881 147.942 158.182 149.182 159.86C150.421 161.537 151.171 163.526 151.348 165.604C151.525 167.683 151.123 169.77 150.185 171.633C149.247 173.496 147.811 175.063 146.036 176.159C144.261 177.255 142.217 177.838 140.131 177.842ZM140.131 155.294C138.049 155.296 136.008 155.876 134.235 156.969C132.463 158.062 131.028 159.625 130.091 161.485C129.154 163.345 128.751 165.428 128.928 167.503C129.104 169.578 129.853 171.563 131.09 173.238C132.327 174.913 134.005 176.212 135.937 176.99C137.869 177.768 139.978 177.995 142.031 177.646C144.084 177.297 146 176.384 147.565 175.011C149.131 173.638 150.285 171.857 150.898 169.867C151.775 167.016 151.483 163.933 150.089 161.296C148.695 158.659 146.311 156.682 143.461 155.801C142.371 155.463 141.236 155.293 140.095 155.294H140.131Z" fill="#263238"/>
<path d="M162.922 200.222C164.172 195.726 161.539 191.067 157.042 189.818C152.546 188.568 147.887 191.2 146.638 195.697C145.388 200.194 148.02 204.852 152.517 206.102C157.014 207.352 161.672 204.719 162.922 200.222Z" fill="#263238"/>
<path d="M167.523 231.17C171.337 231.17 174.429 228.078 174.429 224.264C174.429 220.449 171.337 217.357 167.523 217.357C163.708 217.357 160.616 220.449 160.616 224.264C160.616 228.078 163.708 231.17 167.523 231.17Z" fill="#263238"/>
<path d="M158.489 231.219L162.356 224.873L165.071 226.527L161.203 232.873C160.999 233.208 160.671 233.448 160.29 233.54C159.909 233.633 159.507 233.57 159.172 233.366L158.987 233.253C158.82 233.152 158.675 233.02 158.56 232.863C158.445 232.706 158.362 232.528 158.315 232.339C158.269 232.15 158.261 231.954 158.29 231.762C158.32 231.57 158.388 231.385 158.489 231.219Z" fill="#263238"/>
<path d="M168.119 237.271L165.827 230.405C165.809 230.352 165.813 230.294 165.838 230.244C165.863 230.194 165.907 230.156 165.96 230.138L168.569 229.267C168.622 229.249 168.68 229.253 168.73 229.278C168.781 229.303 168.819 229.347 168.836 229.4L171.128 236.266C171.188 236.451 171.21 236.646 171.194 236.839C171.178 237.033 171.124 237.221 171.035 237.394C170.946 237.566 170.824 237.72 170.676 237.845C170.528 237.97 170.356 238.065 170.172 238.125L169.966 238.193C169.598 238.311 169.2 238.28 168.854 238.108C168.509 237.936 168.245 237.635 168.119 237.271Z" fill="#263238"/>
<path d="M172.973 235.626L169.237 229.426C169.223 229.402 169.213 229.376 169.209 229.348C169.205 229.321 169.206 229.293 169.213 229.266C169.22 229.239 169.232 229.214 169.248 229.191C169.265 229.169 169.285 229.15 169.309 229.136L171.665 227.716C171.689 227.702 171.715 227.693 171.742 227.688C171.77 227.684 171.798 227.686 171.825 227.692C171.852 227.699 171.877 227.711 171.899 227.727C171.922 227.744 171.94 227.764 171.955 227.788L175.69 233.988C175.893 234.324 175.953 234.726 175.859 235.107C175.764 235.487 175.523 235.814 175.187 236.017L175.001 236.129C174.665 236.331 174.263 236.392 173.883 236.297C173.502 236.203 173.175 235.961 172.973 235.626Z" fill="#263238"/>
<path d="M177.636 232.207L172.218 227.407C172.176 227.37 172.151 227.318 172.147 227.262C172.144 227.206 172.163 227.151 172.2 227.109L174.02 225.055C174.057 225.013 174.11 224.987 174.165 224.984C174.221 224.981 174.276 225 174.318 225.037L179.736 229.837C180.029 230.097 180.208 230.462 180.231 230.854C180.255 231.245 180.122 231.629 179.862 231.923L179.718 232.085C179.458 232.377 179.092 232.553 178.702 232.576C178.312 232.599 177.929 232.466 177.636 232.207Z" fill="#263238"/>
<path d="M53.272 153.654C53.272 153.654 54.0863 232.756 98.4752 234.301C142.864 235.845 144.728 154.221 144.728 153.654C144.728 153.654 139.486 141.861 99 142.32C58.5137 142.778 53.272 153.654 53.272 153.654Z" fill="#12B0EE"/>
<path d="M78.196 139.732H115.714C118.163 139.732 120.148 137.747 120.148 135.299V134.653C120.148 132.205 118.163 130.22 115.714 130.22H78.196C75.7474 130.22 73.7625 132.205 73.7625 134.653V135.299C73.7625 137.747 75.7474 139.732 78.196 139.732Z" fill="#263238"/>
<path d="M95.338 69.3938H98.5771V53.0171H95.338V69.3938Z" fill="#263238"/>
<path d="M146.486 118.148C151.6 116.933 154.761 111.801 153.545 106.687C152.329 101.572 147.198 98.4118 142.084 99.6274C136.969 100.843 133.809 105.974 135.024 111.089C136.24 116.203 141.371 119.364 146.486 118.148Z" fill="#12B0EE"/>
<path d="M50.3076 117.53C55.4342 116.367 58.6475 111.268 57.4846 106.142C56.3218 101.015 51.2232 97.8019 46.0965 98.9648C40.9699 100.128 37.7566 105.226 38.9195 110.353C40.0824 115.48 45.181 118.693 50.3076 117.53Z" fill="#12B0EE"/>
<path d="M95.0728 65.8411C95.0728 65.8411 56.372 65.3766 50.2557 98.9201C44.1393 132.464 76.8564 133.067 86.2723 133.7C90.5368 133.99 99.6691 134.02 107.728 133.875C125.57 133.567 138.177 130.117 142.466 113.566C142.976 111.625 143.298 109.639 143.425 107.636C144.553 89.4681 132.29 64.9484 95.0728 65.8411Z" fill="#12B0EE"/>
<path d="M123.146 116.895L66.9225 117.77C65.5197 117.795 64.1257 117.543 62.8205 117.028C61.5152 116.513 60.3243 115.746 59.3158 114.771C58.3073 113.796 57.5011 112.631 56.9433 111.343C56.3855 110.056 56.087 108.671 56.065 107.268C56.0411 105.865 56.294 104.471 56.8092 103.166C57.3245 101.861 58.092 100.67 59.068 99.6613C60.0439 98.6529 61.209 97.8468 62.4967 97.2891C63.7845 96.7313 65.1695 96.4329 66.5726 96.4109L122.796 95.5363C124.199 95.5108 125.593 95.7623 126.899 96.2767C128.205 96.791 129.396 97.5579 130.405 98.5335C131.413 99.5091 132.219 100.674 132.777 101.962C133.335 103.25 133.632 104.635 133.654 106.038C133.678 107.441 133.426 108.836 132.911 110.141C132.396 111.447 131.629 112.638 130.652 113.647C129.676 114.655 128.511 115.461 127.223 116.019C125.935 116.576 124.549 116.874 123.146 116.895Z" fill="#263238"/>
<path d="M78.6062 106.104C78.4755 106.769 78.1505 107.38 77.6725 107.86C77.1944 108.34 76.5848 108.668 75.9205 108.802C75.2563 108.935 74.5674 108.869 73.9408 108.611C73.3142 108.354 72.7781 107.916 72.4004 107.353C72.0226 106.791 71.82 106.129 71.8184 105.451C71.8167 104.774 72.0159 104.111 72.3909 103.547C72.7659 102.982 73.2998 102.542 73.9251 102.281C74.5504 102.02 75.239 101.95 75.9039 102.081C76.3456 102.168 76.7658 102.34 77.1407 102.589C77.5156 102.839 77.8377 103.159 78.0886 103.533C78.3396 103.906 78.5145 104.326 78.6033 104.767C78.6921 105.208 78.6931 105.663 78.6062 106.104Z" fill="white"/>
<path d="M117.867 105.477C117.737 106.142 117.413 106.754 116.936 107.235C116.458 107.716 115.849 108.045 115.184 108.179C114.52 108.314 113.831 108.248 113.204 107.991C112.576 107.734 112.04 107.296 111.661 106.734C111.283 106.171 111.08 105.509 111.078 104.831C111.076 104.154 111.275 103.49 111.65 102.926C112.025 102.361 112.56 101.92 113.185 101.659C113.811 101.398 114.5 101.329 115.165 101.46C116.056 101.635 116.84 102.156 117.347 102.909C117.854 103.662 118.041 104.586 117.867 105.477Z" fill="white"/>
<path d="M112.216 185.068C111.995 188.086 110.885 190.972 109.025 193.359C107.165 195.747 104.638 197.529 101.765 198.48C98.8924 199.432 95.8017 199.511 92.8841 198.706C89.9665 197.901 87.3531 196.249 85.3743 193.959C83.3955 191.669 82.1402 188.844 81.7671 185.84C81.394 182.837 81.9199 179.79 83.2783 177.086C84.6366 174.381 86.7664 172.14 89.3984 170.646C92.0304 169.152 95.0463 168.471 98.0649 168.691C102.113 168.988 105.877 170.879 108.531 173.95C111.184 177.021 112.51 181.02 112.216 185.068Z" fill="#263238"/>
<path d="M108.072 184.766C107.911 186.966 107.101 189.069 105.745 190.809C104.389 192.549 102.547 193.847 100.453 194.54C98.3588 195.234 96.1061 195.29 93.9798 194.703C91.8535 194.116 89.949 192.911 88.5073 191.242C87.0655 189.572 86.1512 187.513 85.88 185.324C85.6088 183.134 85.9929 180.914 86.9836 178.943C87.9744 176.972 89.5273 175.339 91.446 174.251C93.3648 173.163 95.5632 172.668 97.7632 172.829C99.2241 172.935 100.65 173.328 101.959 173.986C103.268 174.644 104.434 175.553 105.391 176.661C106.349 177.77 107.078 179.056 107.538 180.447C107.998 181.838 108.179 183.305 108.072 184.766Z" fill="white"/>
<path d="M102.697 186.793C102.612 186.184 102.577 185.568 102.594 184.953C102.564 183.801 102.54 182.155 102.54 180.128L102.661 180.351L96.9242 177.003H97.2439L91.4533 180.255C91.2964 180.52 91.6644 179.899 91.6282 179.965V180.822V181.684C91.6282 182.251 91.6282 182.818 91.598 183.373C91.598 184.483 91.5558 185.557 91.5377 186.594L91.3809 186.317L97.0509 189.779H96.7975C98.5649 188.826 100.025 188.066 101.02 187.547C101.555 187.242 102.114 186.98 102.691 186.763C102.241 187.13 101.756 187.451 101.243 187.722C100.266 188.325 98.8303 189.176 97.0207 190.219L96.8941 190.292L96.7674 190.219L91.025 186.872L90.8682 186.781V186.588C90.8682 185.551 90.8802 184.477 90.9044 183.367C90.9044 182.812 90.9044 182.251 90.9044 181.678V180.822V179.989C90.8682 180.055 91.2361 179.44 91.0793 179.7L96.888 176.479L97.0569 176.388L97.2137 176.485L102.878 179.947L103.004 180.025V180.17C102.938 182.257 102.872 183.934 102.811 185.074C102.827 185.649 102.788 186.225 102.697 186.793Z" fill="#12B0EE"/>
<path d="M100.736 56.4601C102.821 54.3754 102.821 50.9954 100.736 48.9107C98.6515 46.826 95.2715 46.826 93.1868 48.9107C91.1021 50.9954 91.1021 54.3754 93.1868 56.4601C95.2715 58.5449 98.6515 58.5449 100.736 56.4601Z" fill="#12B0EE"/>
<path d="M88.4313 104.524C88.6846 104.554 88.5579 105.73 89.3059 107.341C89.7296 108.265 90.3467 109.088 91.1155 109.753C92.0166 110.546 93.1382 111.045 94.3305 111.183C95.529 111.26 96.723 110.974 97.7566 110.363C98.6313 109.854 99.3879 109.165 99.9763 108.342C101.002 106.912 101.092 105.712 101.346 105.73C101.448 105.73 101.551 106.032 101.551 106.599C101.528 107.407 101.321 108.199 100.947 108.915C100.386 109.998 99.5547 110.918 98.5347 111.587C97.2738 112.476 95.7378 112.887 94.2016 112.746C92.6655 112.606 91.2294 111.923 90.1504 110.821C89.2696 109.979 88.6214 108.923 88.2684 107.757C88.0169 106.979 87.9508 106.152 88.0754 105.344C88.1779 104.783 88.3347 104.506 88.4313 104.524Z" fill="white"/>
<path d="M139.962 120.153C139.902 120.153 140.596 119.067 141.265 117.167C142.098 114.678 142.624 112.098 142.833 109.482C143.075 106.876 143.135 104.255 143.014 101.641C142.972 100.633 142.924 99.831 142.876 99.2278C142.835 98.9361 142.825 98.641 142.845 98.3472C142.923 98.6314 142.973 98.9222 142.996 99.2158C143.081 99.7767 143.165 100.591 143.237 101.629C143.427 104.264 143.396 106.912 143.147 109.542C142.935 112.183 142.373 114.783 141.476 117.275C141.192 118.027 140.849 118.755 140.451 119.453C140.308 119.7 140.145 119.934 139.962 120.153Z" fill="#263238"/>
<path d="M50.3281 97.7982C50.294 98.0911 50.2313 98.38 50.1411 98.6608C50.0627 98.9322 49.9783 99.264 49.8998 99.6621C49.8214 100.06 49.7008 100.494 49.6284 100.995C49.4169 102.158 49.2759 103.332 49.2062 104.512C49.125 105.955 49.1452 107.402 49.2665 108.843C49.4013 110.281 49.635 111.708 49.9662 113.113C50.2431 114.263 50.5896 115.395 51.0037 116.503C51.1665 116.98 51.3535 117.396 51.5043 117.77C51.6551 118.144 51.7999 118.458 51.9205 118.711C52.058 118.971 52.1711 119.244 52.2583 119.525C52.0867 119.286 51.9372 119.032 51.812 118.765C51.6414 118.464 51.4864 118.154 51.3475 117.836C51.1786 117.474 50.9735 117.058 50.7986 116.582C50.3507 115.477 49.9799 114.342 49.6887 113.186C49.3357 111.766 49.0897 110.323 48.9528 108.867C48.8299 107.412 48.8178 105.95 48.9166 104.494C49.0008 103.304 49.166 102.121 49.4112 100.953C49.5017 100.452 49.6284 100.012 49.7309 99.6199C49.8335 99.2278 49.93 98.896 50.0205 98.6246C50.1004 98.3412 50.2033 98.0649 50.3281 97.7982Z" fill="#263238"/>
<path d="M53.0664 153.587L53.2956 153.654L53.9712 153.883L56.5408 154.788L58.3986 155.451C59.0802 155.68 59.8342 155.898 60.6365 156.145C62.247 156.621 64.0626 157.243 66.1255 157.725L69.3405 158.552C70.4625 158.835 71.6447 159.046 72.8632 159.312C75.2759 159.867 77.9239 160.247 80.7047 160.693C86.7182 161.518 92.779 161.951 98.8487 161.99C104.919 161.954 110.979 161.521 116.993 160.693C119.755 160.247 122.385 159.873 124.834 159.312C126.041 159.052 127.247 158.841 128.357 158.558L131.578 157.731C133.635 157.249 135.45 156.627 137.061 156.151C137.863 155.904 138.617 155.687 139.299 155.457L141.157 154.794L143.726 153.889L144.402 153.66C144.478 153.63 144.557 153.608 144.637 153.593L144.414 153.69L143.75 153.949L141.199 154.908L139.299 155.62C138.623 155.855 137.869 156.079 137.067 156.338C135.456 156.833 133.647 157.466 131.584 157.967L128.363 158.811C127.247 159.101 126.059 159.318 124.84 159.589C122.427 160.156 119.773 160.542 116.999 161.001C110.973 161.846 104.897 162.287 98.8125 162.322C92.7297 162.283 86.6562 161.84 80.6323 160.995C77.8636 160.542 75.2036 160.15 72.7908 159.583C71.5844 159.312 70.378 159.095 69.2681 158.805L66.0471 157.961C63.9842 157.46 62.1746 156.827 60.5641 156.332C59.7618 156.073 59.0139 155.849 58.3323 155.614L56.4805 154.92L53.929 153.961L53.2655 153.702C53.1956 153.67 53.129 153.632 53.0664 153.587Z" fill="#263238"/>
<g opacity="0.3">
<path opacity="0.3" d="M53.2715 153.654C53.2715 153.654 58.5132 142.796 98.9995 142.32C139.486 141.843 144.727 153.654 144.727 153.654C144.727 153.654 103.867 173.794 53.2715 153.654Z" fill="black"/>
</g>
<path d="M90.1685 68.3504C90.1223 68.3548 90.0759 68.3548 90.0297 68.3504L89.6256 68.3926C89.2637 68.4288 88.7329 68.4409 88.0513 68.5193C86.128 68.706 84.2196 69.0224 82.339 69.4663C72.6123 71.694 64.033 77.3949 58.2113 85.4992C55.3987 89.3937 53.2692 93.7383 51.914 98.3472C51.7029 98.9986 51.5883 99.5174 51.4858 99.8612L51.3711 100.259C51.3603 100.305 51.3441 100.35 51.3229 100.392C51.3149 100.346 51.3149 100.299 51.3229 100.253C51.3229 100.145 51.3712 100.012 51.4073 99.8491C51.4918 99.4993 51.5823 98.9745 51.7753 98.311C52.2787 96.437 52.924 94.604 53.7055 92.828C56.2838 86.9257 60.2088 81.7095 65.1662 77.5974C70.1446 73.5162 76.0092 70.6572 82.2908 69.2492C84.1824 68.8194 86.1042 68.535 88.0392 68.3987C88.7268 68.3384 89.2456 68.3444 89.6196 68.3263H90.0297C90.1262 68.3384 90.1685 68.3444 90.1685 68.3504Z" fill="white"/>
<path d="M52.3065 114.784C52.0648 114.411 51.8779 114.004 51.7516 113.578C51.0361 111.562 50.7027 109.43 50.7684 107.292C50.7512 106.849 50.8041 106.405 50.9252 105.977C51.0217 105.977 50.889 107.992 51.2751 110.429C51.6611 112.866 52.397 114.748 52.3065 114.784Z" fill="white"/>
<path d="M42.1549 111.666C42.1549 111.666 42.0161 111.569 41.8292 111.34C41.5626 111.015 41.3339 110.661 41.1476 110.284C40.5034 109.037 40.2569 107.623 40.4414 106.232C40.6258 104.84 41.2322 103.539 42.179 102.503C42.4563 102.186 42.7701 101.902 43.114 101.659C43.232 101.559 43.3668 101.482 43.5121 101.429C43.5483 101.478 43.0054 101.846 42.3479 102.636C41.485 103.669 40.9329 104.926 40.7556 106.261C40.5784 107.595 40.7833 108.953 41.3466 110.176C41.7688 111.135 42.1971 111.629 42.1549 111.666Z" fill="white"/>
<path d="M97.3051 48.9639C96.8344 48.9121 96.3601 48.902 95.8876 48.9337C95.325 48.9831 94.7812 49.1607 94.2979 49.4528C93.8146 49.745 93.4047 50.144 93.0995 50.6192C92.7944 51.0944 92.6021 51.6332 92.5375 52.1942C92.4729 52.7553 92.5377 53.3236 92.7269 53.8558C92.8897 54.2971 93.0916 54.723 93.3301 55.1285C93.3301 55.1285 93.2094 55.0561 93.0405 54.8631C92.8088 54.5839 92.6253 54.2679 92.4977 53.9281C92.2676 53.3649 92.1765 52.7545 92.2322 52.1486C92.288 51.5427 92.4888 50.9591 92.8178 50.4473C93.1468 49.9354 93.5943 49.5104 94.1223 49.2081C94.6504 48.9058 95.2435 48.7351 95.8514 48.7105C96.2125 48.6855 96.5753 48.7201 96.9251 48.8131C97.1965 48.8553 97.3051 48.9458 97.3051 48.9639Z" fill="white"/>
<path d="M149.879 104.349C149.812 104.421 148.878 103.522 147.466 102.847C146.055 102.171 144.77 101.972 144.782 101.876C145.765 101.851 146.737 102.089 147.599 102.563C148.505 102.943 149.293 103.559 149.879 104.349Z" fill="white"/>
<path d="M67.1452 209.95C67.1177 209.914 67.0934 209.875 67.0728 209.835L66.8737 209.479C66.6928 209.135 66.4515 208.677 66.1378 208.092C65.981 207.79 65.8121 207.453 65.6191 207.091L65.0521 205.884C64.6419 205.01 64.1835 204.014 63.7311 202.868C63.5019 202.307 63.2606 201.716 63.0073 201.107C62.7539 200.498 62.5368 199.834 62.2895 199.165C61.7707 197.832 61.3304 196.366 60.8177 194.846C59.8707 191.77 58.9418 188.362 58.1275 184.742C57.3131 181.123 56.722 177.631 56.2395 174.452C55.7569 171.273 55.4432 168.42 55.2502 165.971C55.1356 164.765 55.0632 163.667 55.0029 162.702C54.9426 161.737 54.8883 160.892 54.8702 160.229C54.8521 159.565 54.834 159.052 54.8159 158.666V158.262C54.8094 158.216 54.8094 158.17 54.8159 158.124C54.8229 158.17 54.8229 158.216 54.8159 158.262L54.8521 158.666C54.8521 159.046 54.9185 159.571 54.9607 160.223C55.0029 160.874 55.0632 161.731 55.1477 162.69C55.2321 163.649 55.3105 164.747 55.4432 165.953C55.6604 168.366 56.0464 171.237 56.4988 174.398C56.9512 177.558 57.6087 181.033 58.4049 184.652C59.2011 188.271 60.1361 191.673 61.059 194.743C61.5717 196.263 61.9999 197.723 62.5066 199.056C62.7479 199.732 62.9771 200.377 63.2063 200.998L63.906 202.772C64.3403 203.9 64.7867 204.901 65.1848 205.788L65.7277 206.994C65.9026 207.362 66.0715 207.7 66.2223 208.008L66.8979 209.419L67.0668 209.787C67.1033 209.836 67.13 209.891 67.1452 209.95Z" fill="white"/>
<path d="M43.5416 160.771C42.07 160.827 40.5962 160.775 39.1323 160.615C37.6614 160.563 36.1961 160.408 34.7471 160.15C36.2187 160.094 37.6924 160.147 39.1564 160.307C40.6273 160.358 42.0927 160.513 43.5416 160.771Z" fill="white"/>
<path d="M20.8504 147.893C19.9949 146.647 19.227 145.343 18.5523 143.991C17.7875 142.688 17.1143 141.333 16.5376 139.937C17.3905 141.186 18.1563 142.492 18.8297 143.846C19.5984 145.145 20.2736 146.498 20.8504 147.893Z" fill="white"/>
<path d="M88.5582 228.968C88.3207 228.964 88.0843 228.936 87.8525 228.884C87.2143 228.77 86.5837 228.617 85.9645 228.425C85.0446 228.145 84.1456 227.801 83.2742 227.394C82.2128 226.882 81.1924 226.289 80.2221 225.621C79.2627 224.935 78.3591 224.175 77.5198 223.346C76.8401 222.666 76.2111 221.936 75.6378 221.163C75.2451 220.647 74.8884 220.105 74.5702 219.54C74.44 219.342 74.3327 219.13 74.2505 218.907C74.2987 218.877 74.8054 219.751 75.8128 221.03C76.4049 221.774 77.0435 222.479 77.7249 223.141C79.3945 224.763 81.3102 226.111 83.4009 227.135C84.255 227.547 85.1332 227.908 86.0308 228.214C87.575 228.733 88.5703 228.908 88.5582 228.968Z" fill="white"/>
<path d="M97.8113 201.064C97.6718 201.089 97.5307 201.103 97.3891 201.107C96.9879 201.141 96.5852 201.153 96.1827 201.143C94.6828 201.11 93.1947 200.868 91.7613 200.425C90.7709 200.117 89.8067 199.729 88.8781 199.267C87.8132 198.719 86.8033 198.071 85.8621 197.331C83.6818 195.656 81.9632 193.454 80.8679 190.932C79.7727 188.41 79.3367 185.651 79.601 182.914C79.6993 181.727 79.9114 180.551 80.2343 179.404C80.5234 178.409 80.8967 177.44 81.3502 176.509C82.0045 175.157 82.8451 173.904 83.8474 172.787C84.1163 172.481 84.4022 172.191 84.704 171.918C84.8038 171.818 84.9106 171.726 85.0237 171.641C85.0237 171.641 84.6256 172.069 83.9379 172.847C82.9727 173.982 82.1614 175.24 81.5252 176.587C80.5765 178.572 80.0117 180.719 79.8603 182.914C79.6158 185.603 80.0512 188.309 81.1263 190.785C82.2014 193.261 83.8818 195.427 86.0129 197.083C86.9264 197.819 87.908 198.465 88.9444 199.014C89.8527 199.493 90.7989 199.896 91.7734 200.22C93.1855 200.678 94.6518 200.948 96.1345 201.022C97.2262 201.064 97.8113 201.028 97.8113 201.064Z" fill="white"/>
<path d="M24.7826 153.563C24.7826 153.612 24.3181 153.388 23.5762 153.214C22.5834 152.996 21.5543 153.007 20.5661 153.244C19.5778 153.481 18.6561 153.939 17.87 154.583C17.2668 155.083 16.9773 155.482 16.9351 155.451C17.1006 155.052 17.3566 154.697 17.683 154.414C18.4659 153.696 19.4191 153.189 20.4525 152.942C21.4859 152.695 22.5652 152.716 23.5883 153.002C24.0242 153.095 24.433 153.287 24.7826 153.563Z" fill="white"/>
<path d="M113.856 93.5879C113.856 93.6723 106.448 93.7447 97.3161 93.7447C88.1837 93.7447 80.7705 93.6723 80.7705 93.5879C80.7705 93.5034 88.1777 93.431 97.3161 93.431C106.454 93.431 113.856 93.4914 113.856 93.5879Z" fill="white"/>
<path d="M85.6275 131.305C85.5371 131.331 85.4439 131.345 85.35 131.348L84.5417 131.42C84.1919 131.45 83.7636 131.474 83.263 131.486C82.7623 131.498 82.1953 131.523 81.568 131.486C80.3073 131.486 78.8114 131.396 77.1526 131.221C75.3575 131.012 73.5754 130.704 71.8144 130.298C70.0575 129.877 68.3256 129.357 66.6269 128.742C65.2429 128.235 63.8859 127.657 62.5614 127.011C61.9582 126.745 61.4938 126.468 61.0534 126.233C60.6131 125.997 60.2391 125.786 59.9375 125.629L59.2439 125.207C59.1616 125.162 59.0847 125.107 59.0146 125.044C59.0146 125.044 59.1112 125.044 59.274 125.153L59.9979 125.521C60.3055 125.69 60.6855 125.889 61.1319 126.124C61.5782 126.359 62.0849 126.601 62.6579 126.854C63.7919 127.385 65.1732 127.952 66.7295 128.513C70.1118 129.725 73.6206 130.551 77.1888 130.974C78.8295 131.167 80.3194 131.275 81.568 131.305C82.1712 131.342 82.7744 131.305 83.263 131.305C83.7516 131.305 84.1859 131.305 84.5357 131.305H85.344C85.4378 131.29 85.5336 131.29 85.6275 131.305Z" fill="white"/>
<path d="M133.78 158.485C133.735 158.515 133.686 158.537 133.635 158.552L133.201 158.715L131.524 159.318C130.794 159.583 129.901 159.891 128.846 160.198C127.79 160.506 126.602 160.904 125.257 161.242L123.157 161.797C122.428 161.984 121.655 162.141 120.865 162.328C119.285 162.708 117.572 163.009 115.774 163.353C107.945 164.717 99.9881 165.204 92.0508 164.807C90.2412 164.692 88.4859 164.602 86.8694 164.415C86.0611 164.33 85.277 164.27 84.529 164.167L82.3756 163.872C81.0003 163.709 79.7698 163.462 78.6901 163.269C77.6104 163.076 76.6754 162.895 75.9214 162.72L74.1842 162.334L73.7319 162.225C73.6795 162.217 73.6287 162.2 73.5811 162.177C73.6352 162.172 73.6897 162.172 73.7439 162.177L74.1963 162.255L75.9456 162.587C76.7056 162.738 77.6345 162.913 78.7203 163.076C79.806 163.238 81.0305 163.474 82.4058 163.625L84.5531 163.896C85.3011 163.992 86.0852 164.047 86.8935 164.125C88.504 164.3 90.2412 164.379 92.0629 164.487C95.7122 164.638 99.7234 164.644 103.934 164.397C108.144 164.149 112.119 163.625 115.72 163.033C117.53 162.702 119.231 162.43 120.811 162.044C121.601 161.863 122.373 161.712 123.103 161.531L125.202 160.995C126.547 160.675 127.736 160.301 128.791 159.999C129.847 159.698 130.752 159.396 131.481 159.173L133.176 158.63L133.623 158.497L133.78 158.485Z" fill="white"/>
</svg>
