<svg width="25" height="24" viewBox="0 0 25 24" fill="none" xmlns="http://www.w3.org/2000/svg">
<g clip-path="url(#clip0_1874_878)">
<path d="M12.117 0C5.46922 0 0.0800781 5.37257 0.0800781 11.9999C0.0800781 18.6273 5.46922 23.9999 12.117 23.9999C18.7649 23.9999 24.154 18.6273 24.154 11.9999C24.154 5.37257 18.7649 0 12.117 0V0ZM12.117 1.41177C15.0274 1.41177 17.6554 2.58773 19.5738 4.47793C18.7629 4.32119 17.9296 4.23529 17.0734 4.23529C16.8412 4.23529 16.6168 4.2233 16.3875 4.23529C14.593 4.32835 12.8847 4.7915 11.3426 5.53674C10.2796 4.46964 9.23699 3.33501 8.2006 2.16178C9.41174 1.6829 10.7349 1.41177 12.117 1.41177ZM6.6296 2.93381C7.65092 4.17118 8.7127 5.32334 9.79373 6.44114C8.65321 7.19703 7.63082 8.1129 6.76236 9.17641C6.65784 9.16724 6.55952 9.17641 6.45259 9.17641C6.15886 9.17641 5.88468 9.2195 5.61177 9.2867C5.08797 8.23674 4.67799 7.11671 4.3948 5.95585C4.30899 5.60409 4.27198 5.25409 4.26204 4.89704C4.95364 4.13738 5.74433 3.46766 6.6296 2.93381ZM19.5738 5.49262C19.9051 5.49827 20.2205 5.5488 20.5473 5.60292C21.9094 7.38318 22.7379 9.58808 22.7379 11.9999C22.7379 13.0889 22.5574 14.1435 22.2511 15.1323C21.5991 14.6015 20.9547 14.0579 20.3039 13.522C20.4976 13.1699 20.6137 12.7828 20.6137 12.3529C20.6137 10.9884 19.5042 9.88229 18.1355 9.88229C17.5575 9.88229 17.0303 10.081 16.6088 10.4117C15.5165 9.46223 14.4323 8.49164 13.3561 7.47792C15.0913 6.51385 16.9845 5.83096 18.9542 5.53674C19.1594 5.50607 19.3689 5.48931 19.5738 5.49262V5.49262ZM3.04507 6.50733C3.17677 7.35444 3.37237 8.51315 3.42122 8.66908C3.58065 9.17796 3.75777 9.67616 3.97439 10.1691C3.32072 10.8094 2.91231 11.72 2.91231 12.7058C2.91231 13.6635 3.30904 14.5185 3.93013 15.1543C3.74089 16.074 3.62036 17.0232 3.62036 17.9999C3.62036 18.1098 3.61753 18.2215 3.62036 18.3308C2.29197 16.563 1.4962 14.3787 1.4962 11.9999C1.4962 9.98639 2.06629 8.10998 3.04507 6.50733V6.50733ZM11.8073 8.44848C13.0789 9.66156 14.3846 10.8111 15.7016 11.9338C15.6788 12.0684 15.6573 12.2117 15.6573 12.3529C15.6573 13.7173 16.7668 14.8234 18.1355 14.8234C18.4282 14.8234 18.7157 14.7619 18.9763 14.669C19.8412 15.3686 20.7189 16.0718 21.5873 16.7646C21.3971 17.1399 21.1998 17.4975 20.9677 17.8455C20.3885 17.9446 19.7906 18.0298 19.5738 18.044C18.3554 18.124 17.1321 17.9897 15.945 17.7131C15.8033 16.4828 14.7609 15.5293 13.4889 15.5293C12.8927 15.5293 12.3455 15.7311 11.9179 16.0808C11.0865 15.588 10.2907 15.0071 9.55034 14.3602C9.81988 13.8622 9.99287 13.3114 9.99287 12.7058C9.99287 11.903 9.71561 11.1591 9.26269 10.5661C10.0304 9.78275 10.8949 9.08501 11.8073 8.44848V8.44848ZM8.11209 15.794C9.00301 16.5798 9.99111 17.2527 11.0328 17.8234C11.0286 17.8819 11.0107 17.9404 11.0107 17.9999C11.0107 19.3643 12.1202 20.4705 13.4889 20.4705C14.3274 20.4705 15.0761 20.047 15.5246 19.4116C16.5596 19.5874 17.6329 19.6473 18.7108 19.5661C19.0352 19.5417 19.3485 19.4996 19.6623 19.4337C17.7369 21.3758 15.0724 22.5881 12.1171 22.5881C9.56187 22.5881 7.22295 21.6825 5.39053 20.1837C5.20276 19.7272 5.01591 19.2601 5.0365 19.0587C5.1373 18.0727 5.38399 17.0921 5.72242 16.147C5.95942 16.1968 6.20074 16.2352 6.45261 16.2352C7.05825 16.2352 7.61363 16.0612 8.11212 15.794H8.11209Z" fill="#00BCF2"/>
</g>
<defs>
<clipPath id="clip0_1874_878">
<rect width="24.0741" height="24" fill="white" transform="translate(0.0800781)"/>
</clipPath>
</defs>
</svg>
