<?xml version="1.0" encoding="UTF-8"?>
<svg width="20px" height="20px" viewBox="0 0 20 20" version="1.1" xmlns="http://www.w3.org/2000/svg" xmlns:xlink="http://www.w3.org/1999/xlink">
    <title>noun_Chatbot_3632528</title>
    <g id="Wireframs-LMS" stroke="none" stroke-width="1" fill="none" fill-rule="evenodd" opacity="0.699999988">
        <g id="LMS-dashboard-case3" transform="translate(-185.000000, -666.000000)" fill="#24272C" fill-rule="nonzero">
            <g id="noun_Chatbot_3632528" transform="translate(185.000000, 666.000000)">
                <path d="M6.5,10 C5.67157288,10 5,9.32842712 5,8.5 C5,7.67157288 5.67157288,7 6.5,7 C7.32842712,7 8,7.67157288 8,8.5 C8,9.32842712 7.32842712,10 6.5,10 Z M20,9.5 C20,10.3284271 19.3284271,11 18.5,11 L18,11 L18,14 C17.998738,15.1040464 17.1040464,15.998738 16,16 L9.707,16 L5.85352,19.85352 C5.75977044,19.9472997 5.63260322,20 5.5,20 C5.43429854,20 5.36922552,19.987209 5.30859,19.96191 C5.1218272,19.8844566 5.0000573,19.7021865 5,19.5 L5,16 L4,16 C2.89595365,15.998738 2.00126197,15.1040464 2,14 L2,11 L1.5,11 C0.671572875,11 0,10.3284271 0,9.5 C0,8.67157288 0.671572875,8 1.5,8 L2,8 L2,5 C2.00126197,3.89595365 2.89595365,3.00126197 4,3 L9,3 L9,1 C9,0.44771525 9.44771525,0 10,0 C10.5522847,0 11,0.44771525 11,1 L11,3 L16,3 C17.1040464,3.00126197 17.998738,3.89595365 18,5 L18,8 L18.5,8 C19.3284271,8 20,8.67157288 20,9.5 Z M17,5 C16.9994488,4.44794374 16.5520563,4.00055123 16,4 L4,4 C3.44794374,4.00055123 3.00055123,4.44794374 3,5 L3,14 C3.00055123,14.5520563 3.44794374,14.9994488 4,15 L5.5,15 C5.63263183,14.999923 5.75985353,15.0525767 5.85363841,15.1463616 C5.9474233,15.2401465 6.00007699,15.3673682 6,15.5 L6,18.293 L9.14648,15.14651 C9.24020782,15.0526941 9.36738657,14.9999872 9.5,15 L16,15 C16.5520563,14.9994488 16.9994488,14.5520563 17,14 L17,5 Z M13.5,7 C12.6715729,7 12,7.67157288 12,8.5 C12,9.32842712 12.6715729,10 13.5,10 C14.3284271,10 15,9.32842712 15,8.5 C15,7.67157288 14.3284271,7 13.5,7 L13.5,7 Z M12.83008,11.48877 C11.0045759,12.1684602 8.99542547,12.1684602 7.16992,11.48877 C6.91113086,11.3981704 6.62765364,11.5328881 6.53446828,11.7907574 C6.44128292,12.0486267 6.57315634,12.3334382 6.83008,12.4292 C8.87483833,13.1902663 11.1251617,13.1902663 13.16992,12.4292 C13.4268437,12.3334382 13.5587171,12.0486267 13.4655317,11.7907574 C13.3723464,11.5328881 13.0888691,11.3981704 12.83008,11.48877 L12.83008,11.48877 Z" id="Shape"></path>
            </g>
        </g>
    </g>
</svg>