<svg width="129" height="34" viewBox="0 0 129 34" fill="none" xmlns="http://www.w3.org/2000/svg">
  <path
    d="M23.5317 6.06934H9.04057C7.26307 6.06934 5.81592 7.51529 5.81592 9.29284V9.55922H17.7153C20.7759 9.55922 23.2653 12.0499 23.2653 15.1093V22.3554H23.5317C25.3092 22.3554 26.7552 20.9095 26.7552 19.1319V9.29284C26.7552 7.51529 25.3093 6.06934 23.5317 6.06934Z"
    fill="#FF53B0" />
  <path
    d="M17.7158 11.8857H3.22351C1.44601 11.8857 0 13.3317 0 15.1092V24.9484C0 26.7259 1.44596 28.1719 3.22351 28.1719H3.48988V32.825C3.48988 33.295 3.77257 33.7196 4.20766 33.8999C4.35189 33.9593 4.50315 33.9883 4.65322 33.9883C4.95569 33.9883 5.25348 33.8697 5.47568 33.6475L10.9513 28.1718H17.7159C19.4933 28.1718 20.9394 26.7259 20.9394 24.9483V15.1092C20.9393 13.3317 19.4933 11.8857 17.7158 11.8857ZM5.81649 21.1921C5.17435 21.1921 4.65322 20.6709 4.65322 20.0288C4.65322 19.3866 5.17435 18.8655 5.81649 18.8655C6.45863 18.8655 6.97977 19.3866 6.97977 20.0288C6.97977 20.6709 6.45863 21.1921 5.81649 21.1921ZM10.4697 21.1921C9.82751 21.1921 9.30638 20.6709 9.30638 20.0288C9.30638 19.3866 9.82751 18.8655 10.4697 18.8655C11.1118 18.8655 11.6329 19.3866 11.6329 20.0288C11.6329 20.6709 11.1118 21.1921 10.4697 21.1921ZM15.1228 21.1921C14.4807 21.1921 13.9595 20.6709 13.9595 20.0288C13.9595 19.3866 14.4807 18.8655 15.1228 18.8655C15.765 18.8655 16.2861 19.3866 16.2861 20.0288C16.2861 20.6709 15.765 21.1921 15.1228 21.1921Z"
    fill="#FF53B0" />
  <path
    d="M51.1267 19.3965H55.2146C55.1326 20.7363 54.7634 21.9258 54.1072 22.9648C53.46 24.0039 52.5531 24.8151 51.3865 25.3984C50.2289 25.9818 48.8344 26.2734 47.2029 26.2734C45.9268 26.2734 44.7829 26.0547 43.7712 25.6172C42.7595 25.1706 41.8936 24.5326 41.1736 23.7031C40.4626 22.8737 39.9203 21.8711 39.5466 20.6953C39.1729 19.5195 38.9861 18.2025 38.9861 16.7441V15.3633C38.9861 13.9049 39.1775 12.5879 39.5603 11.4121C39.9522 10.2272 40.5082 9.22005 41.2283 8.39062C41.9574 7.5612 42.8279 6.92318 43.8396 6.47656C44.8513 6.02995 45.9815 5.80664 47.2302 5.80664C48.8891 5.80664 50.2882 6.10742 51.4275 6.70898C52.5759 7.31055 53.4646 8.13997 54.0935 9.19727C54.7315 10.2546 55.1143 11.4577 55.2419 12.8066H51.1404C51.0948 12.0046 50.9353 11.3255 50.6618 10.7695C50.3884 10.2044 49.9737 9.7806 49.4177 9.49805C48.8708 9.20638 48.1417 9.06055 47.2302 9.06055C46.5466 9.06055 45.9496 9.18815 45.4392 9.44336C44.9288 9.69857 44.5004 10.0859 44.154 10.6055C43.8077 11.125 43.5479 11.7812 43.3747 12.5742C43.2107 13.3581 43.1286 14.2786 43.1286 15.3359V16.7441C43.1286 17.7741 43.2061 18.681 43.3611 19.4648C43.516 20.2396 43.753 20.8958 44.072 21.4336C44.4001 21.9622 44.8194 22.3633 45.3298 22.6367C45.8493 22.901 46.4737 23.0332 47.2029 23.0332C48.0596 23.0332 48.766 22.8965 49.322 22.623C49.878 22.3496 50.3018 21.944 50.5935 21.4062C50.8943 20.8685 51.072 20.1986 51.1267 19.3965ZM66.4118 22.459V11.207H70.3493V26H66.6443L66.4118 22.459ZM66.8493 19.4238L68.0115 19.3965C68.0115 20.3809 67.8975 21.2969 67.6697 22.1445C67.4418 22.9831 67.1 23.7122 66.6443 24.332C66.1885 24.9427 65.6143 25.4212 64.9216 25.7676C64.2289 26.1048 63.4132 26.2734 62.4743 26.2734C61.7543 26.2734 61.0889 26.1732 60.4783 25.9727C59.8767 25.763 59.3572 25.4395 58.9197 25.002C58.4913 24.5553 58.154 23.9857 57.9079 23.293C57.671 22.5911 57.5525 21.748 57.5525 20.7637V11.207H61.49V20.791C61.49 21.2285 61.5401 21.5977 61.6404 21.8984C61.7497 22.1992 61.9001 22.4453 62.0915 22.6367C62.2829 22.8281 62.5063 22.9648 62.7615 23.0469C63.0258 23.1289 63.3174 23.1699 63.6365 23.1699C64.4477 23.1699 65.0857 23.0059 65.5505 22.6777C66.0245 22.3496 66.3572 21.903 66.5486 21.3379C66.7491 20.7637 66.8493 20.1257 66.8493 19.4238ZM77.2947 14.4336V26H73.3572V11.207H77.0622L77.2947 14.4336ZM81.7517 11.1113L81.6833 14.7617C81.4919 14.7344 81.2595 14.7116 80.9861 14.6934C80.7217 14.666 80.4802 14.6523 80.2615 14.6523C79.7055 14.6523 79.2224 14.7253 78.8122 14.8711C78.4112 15.0078 78.074 15.2129 77.8005 15.4863C77.5362 15.7598 77.3357 16.0924 77.199 16.4844C77.0714 16.8763 76.9984 17.3229 76.9802 17.8242L76.1872 17.5781C76.1872 16.6211 76.2829 15.7415 76.4743 14.9395C76.6658 14.1283 76.9438 13.4219 77.3083 12.8203C77.682 12.2188 78.1378 11.7539 78.6755 11.4258C79.2133 11.0977 79.8285 10.9336 80.5212 10.9336C80.74 10.9336 80.9633 10.9518 81.1911 10.9883C81.419 11.0156 81.6059 11.0566 81.7517 11.1113ZM91.1306 22.6641V16.0742C91.1306 15.6003 91.0531 15.1947 90.8982 14.8574C90.7432 14.5111 90.5017 14.2422 90.1736 14.0508C89.8546 13.8594 89.4398 13.7637 88.9294 13.7637C88.4919 13.7637 88.1137 13.8411 87.7947 13.9961C87.4757 14.1419 87.2296 14.3561 87.0564 14.6387C86.8832 14.9121 86.7966 15.2357 86.7966 15.6094H82.8591C82.8591 14.9805 83.0049 14.3835 83.2966 13.8184C83.5883 13.2533 84.0121 12.7565 84.5681 12.3281C85.1241 11.8906 85.7849 11.5488 86.5505 11.3027C87.3253 11.0566 88.1911 10.9336 89.1482 10.9336C90.2966 10.9336 91.3174 11.125 92.2107 11.5078C93.1039 11.8906 93.8057 12.4648 94.3161 13.2305C94.8357 13.9961 95.0954 14.9531 95.0954 16.1016V22.4316C95.0954 23.2428 95.1456 23.9082 95.2458 24.4277C95.3461 24.9382 95.4919 25.3848 95.6833 25.7676V26H91.7048C91.5134 25.599 91.3676 25.0977 91.2673 24.4961C91.1762 23.8854 91.1306 23.2747 91.1306 22.6641ZM91.6501 16.9902L91.6775 19.2188H89.4763C88.9568 19.2188 88.5056 19.278 88.1228 19.3965C87.74 19.515 87.4255 19.6836 87.1794 19.9023C86.9333 20.112 86.751 20.3581 86.6326 20.6406C86.5232 20.9232 86.4685 21.2331 86.4685 21.5703C86.4685 21.9076 86.546 22.2129 86.7009 22.4863C86.8559 22.7507 87.0792 22.9603 87.3708 23.1152C87.6625 23.2611 88.0043 23.334 88.3962 23.334C88.9887 23.334 89.5036 23.2155 89.9411 22.9785C90.3786 22.7415 90.7159 22.4499 90.9529 22.1035C91.199 21.7572 91.3266 21.429 91.3357 21.1191L92.3747 22.7871C92.2289 23.1608 92.0284 23.5482 91.7732 23.9492C91.5271 24.3503 91.2126 24.7285 90.8298 25.084C90.447 25.4303 89.9867 25.7174 89.449 25.9453C88.9112 26.1641 88.2732 26.2734 87.5349 26.2734C86.5961 26.2734 85.7439 26.0866 84.9783 25.7129C84.2217 25.3301 83.6202 24.806 83.1736 24.1406C82.7361 23.4661 82.5173 22.7005 82.5173 21.8438C82.5173 21.069 82.6632 20.3809 82.9548 19.7793C83.2465 19.1777 83.6749 18.6719 84.24 18.2617C84.8142 17.8424 85.5297 17.528 86.3865 17.3184C87.2432 17.0996 88.2367 16.9902 89.3669 16.9902H91.6501ZM105.377 11.207V13.9961H96.7634V11.207H105.377ZM98.8962 7.55664H102.834V21.543C102.834 21.9714 102.888 22.2995 102.998 22.5273C103.116 22.7552 103.289 22.9147 103.517 23.0059C103.745 23.0879 104.032 23.1289 104.379 23.1289C104.625 23.1289 104.843 23.1198 105.035 23.1016C105.235 23.0742 105.404 23.0469 105.541 23.0195L105.554 25.918C105.217 26.0273 104.853 26.1139 104.461 26.1777C104.069 26.2415 103.636 26.2734 103.162 26.2734C102.296 26.2734 101.539 26.1322 100.892 25.8496C100.254 25.5579 99.7621 25.0931 99.4158 24.4551C99.0694 23.8171 98.8962 22.9785 98.8962 21.9395V7.55664ZM114.427 26.2734C113.279 26.2734 112.249 26.0911 111.338 25.7266C110.426 25.3529 109.651 24.8379 109.013 24.1816C108.385 23.5254 107.901 22.7643 107.564 21.8984C107.227 21.0234 107.058 20.0938 107.058 19.1094V18.5625C107.058 17.4414 107.218 16.416 107.537 15.4863C107.856 14.5566 108.312 13.75 108.904 13.0664C109.506 12.3828 110.235 11.8587 111.092 11.4941C111.948 11.1204 112.914 10.9336 113.99 10.9336C115.038 10.9336 115.968 11.1068 116.779 11.4531C117.59 11.7995 118.269 12.2917 118.816 12.9297C119.372 13.5677 119.791 14.3333 120.074 15.2266C120.357 16.1107 120.498 17.0951 120.498 18.1797V19.8203H108.74V17.1953H116.629V16.8945C116.629 16.3477 116.528 15.86 116.328 15.4316C116.136 14.9941 115.845 14.6478 115.453 14.3926C115.061 14.1374 114.56 14.0098 113.949 14.0098C113.429 14.0098 112.983 14.1237 112.609 14.3516C112.235 14.5794 111.93 14.8984 111.693 15.3086C111.465 15.7188 111.292 16.2018 111.174 16.7578C111.064 17.3047 111.01 17.9062 111.01 18.5625V19.1094C111.01 19.7018 111.092 20.2487 111.256 20.75C111.429 21.2513 111.67 21.6842 111.98 22.0488C112.299 22.4134 112.682 22.696 113.129 22.8965C113.584 23.097 114.099 23.1973 114.674 23.1973C115.385 23.1973 116.045 23.0605 116.656 22.7871C117.276 22.5046 117.809 22.0807 118.256 21.5156L120.17 23.5938C119.86 24.0404 119.436 24.4688 118.898 24.8789C118.37 25.2891 117.732 25.6263 116.984 25.8906C116.237 26.1458 115.385 26.2734 114.427 26.2734Z"
    fill="#FF53B0" />
</svg>