<svg width="200" height="100" viewBox="0 0 200 100" fill="none" xmlns="http://www.w3.org/2000/svg">
  <path
    d="M41.0177 45.3715V58.8587C39.8662 59.5671 38.5427 59.9468 37.1908 59.9567C35.8261 60.0338 34.4855 59.573 33.4567 58.673C32.2779 57.5265 31.6926 55.6292 31.6926 52.9326C31.6926 50.3328 32.4273 45.9286 37.2917 45.5814C37.9618 45.537 39.738 45.424 41.0258 45.3715H41.0177ZM63.8301 45.1333C63.9916 45.1333 64.1732 45.1333 64.3428 45.1333C65.4525 45.0922 66.5344 45.4861 67.3579 46.2312C68.1814 46.9762 68.6813 48.0134 68.7511 49.1218H59.2765C59.9143 46.8369 61.412 45.315 63.8301 45.1333ZM152.888 40.0267V56.0329C152.888 62.7462 155.988 65.9999 162.362 65.9999C164.546 65.9999 166.944 65.1925 167.868 64.8333L167.917 65.4146H174.638V40.0267H167.868V59.0242C166.198 59.9934 164.228 60.3098 162.338 59.9123C160.529 59.4844 159.633 58.3379 159.633 55.0358V40.0267H152.888ZM93.0692 39.4211C90.8852 39.4211 88.4631 40.2285 87.5387 40.5636L87.5185 40.0267H80.7971V65.4186H87.5387V46.4009C89.2205 45.4387 91.1954 45.123 93.0934 45.5128C94.914 45.9407 95.8021 47.0952 95.8021 50.3893V65.4186H102.548V49.3882C102.548 42.6829 99.4434 39.4211 93.0692 39.4211ZM138.185 39.3969C135.287 39.4454 132.756 40.2043 130.919 41.593C129.968 42.2961 129.189 43.207 128.643 44.2563C128.096 45.3056 127.797 46.4657 127.766 47.6483C127.572 51.8547 130.212 54.3657 136.308 55.5606C137.629 55.7881 138.932 56.1078 140.208 56.5173C140.995 56.8443 141.467 57.357 141.467 57.9383C141.452 58.2441 141.347 58.5385 141.164 58.7843C140.982 59.0301 140.73 59.2161 140.442 59.3189C139.291 59.7993 137.455 59.7226 136.264 59.5974C133.493 59.2824 130.783 58.5714 128.214 57.4862V63.7877C131.052 65.2405 134.198 65.9922 137.386 65.9797C141.802 65.899 147.292 64.5668 148.286 58.7457C148.486 57.7753 148.488 56.7743 148.292 55.8031C148.096 54.8318 147.705 53.9103 147.143 53.094C145.791 51.225 143.728 50.2682 139.905 49.5456C138.318 49.2509 136.441 48.9038 135.355 48.3103C135.126 48.2171 134.927 48.0599 134.784 47.8574C134.641 47.6549 134.559 47.4156 134.548 47.1679C134.568 46.9366 134.65 46.715 134.785 46.5261C134.92 46.3372 135.103 46.188 135.315 46.0941C136.304 45.5693 138.096 45.2867 140.801 45.7671C142.985 46.1933 145.125 46.8175 147.196 47.6321V41.5001C144.41 40.0514 141.304 39.328 138.165 39.3969H138.185ZM64.3428 39.3525C60.4553 39.3525 57.2339 40.7937 55.058 43.5065C53.1284 45.9286 52.0707 49.2953 52.0707 53.0294C52.0667 59.2624 55.5505 65.9111 65.4408 65.9111C68.7586 65.8649 72.0284 65.1122 75.0324 63.7029V57.4862C72.0619 59.1541 68.7061 60.0143 65.2995 59.9809C61.6946 59.9164 59.7367 57.9867 59.1393 54.5675H75.428V54.3132C75.4523 52.0122 75.428 50.0704 75.3594 49.2227C75.097 46.3403 74.0515 43.9182 72.3237 42.2227C70.3981 40.3254 67.7136 39.3525 64.3428 39.3525ZM108.24 34.6375V56.6667C108.24 59.6984 108.773 61.8218 109.899 63.3194C111.227 65.0876 113.375 65.9555 116.479 65.9555C118.625 65.9293 120.756 65.592 122.805 64.9544V58.8991C121.937 59.1211 119.268 59.7064 117.714 59.7064C116.729 59.7064 116.039 59.4965 115.615 59.0767C114.997 58.455 115.01 57.3812 115.01 56.3478V45.6056C117.67 45.6056 120.956 45.8075 122.805 46.0093V40.0267H115.01V34.6375H108.24ZM41.0177 34.6375V40.0267H37.5743C27.3973 40.0267 25.2739 47.6362 25.2739 53.1223C25.2739 57.1269 26.485 60.6067 28.681 62.9238C29.6306 63.9093 30.774 64.6875 32.0392 65.2093C33.3044 65.731 34.664 65.9851 36.0322 65.9555C37.7586 66.005 39.4707 65.6293 41.0177 64.8615L41.042 65.4186H47.7714V34.6375H41.0177Z"
    fill="white" />
</svg>