<svg width="12" height="8" viewBox="0 0 12 8" fill="none" xmlns="http://www.w3.org/2000/svg">
  <path fill-rule="evenodd" clip-rule="evenodd"
    d="M7.47593 0.42034C7.79606 0.683186 7.8425 1.15578 7.57965 1.47592L2.93494 7.13294L0.455537 4.5158C0.170664 4.2151 0.183494 3.7404 0.484193 3.45553C0.784893 3.17065 1.25959 3.18348 1.54447 3.48418L2.85454 4.86704L6.42035 0.524067C6.6832 0.203934 7.15579 0.157494 7.47593 0.42034Z"
    fill="#12B0EE" />
  <path fill-rule="evenodd" clip-rule="evenodd"
    d="M11.4605 0.407988C11.7874 0.662289 11.8463 1.1335 11.592 1.46046L7.20842 7.09657L5.49831 5.55747C5.19043 5.28038 5.16547 4.80616 5.44257 4.49828C5.71966 4.1904 6.19388 4.16544 6.50176 4.44253L7.01388 4.90344L10.408 0.539551C10.6623 0.21259 11.1335 0.153687 11.4605 0.407988Z"
    fill="#12B0EE" />
</svg>