<svg width="8" height="12" viewBox="0 0 8 12" fill="none" xmlns="http://www.w3.org/2000/svg">
  <path
    d="M0 11V11.3H5.55727e-06H1.24977e-05H2.22073e-05H3.4682e-05H4.99176e-05H6.79101e-05H8.86555e-05H0.00011215H0.000138388H0.000167368H0.000199084H0.000233532H0.000270709H0.00031061H0.000353231H0.000398569H0.000446618H0.000497376H0.000550837H0.000606999H0.000665856H0.000727405H0.000791641H0.000858561H0.000928161H0.00100044H0.00107538H0.001153H0.00123327H0.00131621H0.0014018H0.00149004H0.00158093H0.00167446H0.00177063H0.00186944H0.00197087H0.00207494H0.00218162H0.00229092H0.00240284H0.00251737H0.0026345H0.00275424H0.00287657H0.0030015H0.00312902H0.00325912H0.00339181H0.00352707H0.00366491H0.00380531H0.00394828H0.00409381H0.0042419H0.00439255H0.00454574H0.00470148H0.00485976H0.00502057H0.00518392H0.00534979H0.0055182H0.00568912H0.00586256H0.00603851H0.00621697H0.00639793H0.00658139H0.00676735H0.00695581H0.00714675H0.00734017H0.00753607H0.00773445H0.0079353H0.00813862H0.00834441H0.00855265H0.00876334H0.00897649H0.00919209H0.00941013H0.00963061H0.00985352H0.0100789H0.0103066H0.0105368H0.0107694H0.0110045H0.0112419H0.0114818H0.011724H0.0119686H0.0122157H0.0124651H0.0127169H0.0129711H0.0132277H0.0134867H0.013748H0.0140117H0.0142777H0.0145461H0.0148169H0.01509H0.0153654H0.0156432H0.0159234H0.0162058H0.0164906H0.0167777H0.0170672H0.0173589H0.017653H0.0179494H0.0182481H0.018549H0.0188523H0.0191579H0.0194658H0.0197759H0.0200883H0.020403H0.02072H0.0210393H0.0213608H0.0216845H0.0220105H0.0223388H0.0226693H0.0230021H0.0233371H0.0236743H0.0240138H0.0243555H0.0246994H0.0250456H0.0253939H0.0257445H0.0260973H0.0264522H0.0268094H0.0271688H0.0275303H0.0278941H0.02826H0.0286281H0.0289984H0.0293709H0.0297455H0.0301223H0.0305012H0.0308823H0.0312655H0.0316509H0.0320385H0.0324281H0.0328199H0.0332138H0.0336099H0.0340081H0.0344084H0.0348108H0.0352153H0.0356219H0.0360306H0.0364415H0.0368544H0.0372694H0.0376865H0.0381056H0.0385269H0.0389502H0.0393756H0.039803H0.0402325H0.0406641H0.0410977H0.0415334H0.0419711H0.0424108H0.0428526H0.0432964H0.0437422H0.0441901H0.04464H0.0450919H0.0455458H0.0460017H0.0464596H0.0469196H0.0473815H0.0478454H0.0483113H0.0487792H0.049249H0.0497209H0.0501947H0.0506704H0.0511482H0.0516278H0.0521095H0.0525931H0.0530786H0.0535661H0.0540555H0.0545469H0.0550402H0.0555354H0.0560325H0.0565315H0.0570325H0.0575354H0.0580401H0.0585468H0.0590554H0.0595659H0.0600782H0.0605925H0.0611086H0.0616266H0.0621465H0.0626682H0.0631918H0.0637173H0.0642446H0.0647738H0.0653048H0.0658377H0.0663724H0.0669089H0.0674473H0.0679875H0.0685295H0.0690734H0.069619H0.0701665H0.0707158H0.0712669H0.0718198H0.0723744H0.0729309H0.0734892H0.0740492H0.074611H0.0751746H0.07574H0.0763071H0.076876H0.0774467H0.0780191H0.0785933H0.0791692H0.0797468H0.0803262H0.0809073H0.0814902H0.0820748H0.0826611H0.0832491H0.0838388H0.0844303H0.0850234H0.0856183H0.0862148H0.0868131H0.087413H0.0880146H0.0886179H0.0892229H0.0898295H0.0904379H0.0910478H0.0916595H0.0922728H0.0928877H0.0935043H0.0941226H0.0947425H0.095364H0.0959871H0.0966119H0.0972383H0.0978664H0.098496H0.0991273H0.0997601H0.100395H0.101031H0.101668H0.102308H0.102948H0.103591H0.104235H0.10488H0.105528H0.106176H0.106827H0.107478H0.108132H0.108787H0.109443H0.110101H0.110761H0.111422H0.112085H0.112749H0.113415H0.114082H0.11475H0.115421H0.116092H0.116766H0.11744H0.118117H0.118794H0.119474H0.120154H0.120836H0.12152H0.122205H0.122892H0.12358H0.124269H0.12496H0.125653H0.126346H0.127042H0.127738H0.128437H0.129136H0.129837H0.13054H0.131244H0.131949H0.132655H0.133364H0.134073H0.134784H0.135496H0.13621H0.136925H0.137641H0.138359H0.139078H0.139799H0.140521H0.141244H0.141968H0.142694H0.143422H0.14415H0.14488H0.145612H0.146344H0.147078H0.147813H0.14855H0.149288H0.150027H0.150768H0.15151H0.152253H0.152997H0.153743H0.15449H0.155238H0.155988H0.156739H0.157491H0.158244H0.158999H0.159755H0.160512H0.16127H0.16203H0.162791H0.163553H0.164316H0.165081H0.165847H0.166614H0.167382H0.168152H0.168922H0.169694H0.170467H0.171242H0.172017H0.172794H0.173572H0.174351H0.175131H0.175912H0.176695H0.177478H0.178263H0.179049H0.179837H0.180625H0.181414H0.182205H0.182997H0.18379H0.184584H0.185379H0.186175H0.186972H0.187771H0.18857H0.189371H0.190173H0.190976H0.19178H0.192585H0.193391H0.194198H0.195006H0.195816H0.196626H0.197437H0.19825H0.199064H0.199878H0.200694H0.201511H0.202328H0.203147H0.203967H0.204788H0.20561H0.206433H0.207257H0.208082H0.208907H0.209734H0.210562H0.211391H0.212221H0.213052H0.213884H0.214717H0.215551H0.216385H0.217221H0.218058H0.218895H0.219734H0.220574H0.221414H0.222256H0.223098H0.223941H0.224785H0.225631H0.226477H0.227324H0.228172H0.22902H0.22987H0.230721H0.231572H0.232425H0.233278H0.234132H0.234987H0.235843H0.2367H0.237558H0.238416H0.239276H0.240136H0.240997H0.241859H0.242722H0.243585H0.24445H0.245315H0.246181H0.247048H0.247916H0.248784H0.249654H0.250524H0.251395H0.252267H0.253139H0.254013H0.254887H0.255762H0.256637H0.257514H0.258391H0.259269H0.260148H0.261027H0.261908H0.262789H0.26367H0.264553H0.265436H0.26632H0.267205H0.26809H0.268976H0.269863H0.270751H0.271639H0.272528H0.273418H7.72658H7.72747H7.72836H7.72925H7.73014H7.73102H7.73191H7.7328H7.73368H7.73456H7.73545H7.73633H7.73721H7.73809H7.73897H7.73985H7.74073H7.74161H7.74249H7.74336H7.74424H7.74511H7.74599H7.74686H7.74773H7.74861H7.74948H7.75035H7.75122H7.75208H7.75295H7.75382H7.75469H7.75555H7.75641H7.75728H7.75814H7.759H7.75986H7.76072H7.76158H7.76244H7.7633H7.76416H7.76501H7.76587H7.76672H7.76758H7.76843H7.76928H7.77013H7.77098H7.77183H7.77268H7.77352H7.77437H7.77521H7.77606H7.7769H7.77774H7.77859H7.77943H7.78027H7.7811H7.78194H7.78278H7.78361H7.78445H7.78528H7.78612H7.78695H7.78778H7.78861H7.78944H7.79027H7.79109H7.79192H7.79274H7.79357H7.79439H7.79521H7.79603H7.79685H7.79767H7.79849H7.79931H7.80012H7.80094H7.80175H7.80256H7.80337H7.80418H7.80499H7.8058H7.80661H7.80742H7.80822H7.80902H7.80983H7.81063H7.81143H7.81223H7.81303H7.81383H7.81462H7.81542H7.81621H7.817H7.8178H7.81859H7.81938H7.82016H7.82095H7.82174H7.82252H7.82331H7.82409H7.82487H7.82565H7.82643H7.82721H7.82798H7.82876H7.82953H7.83031H7.83108H7.83185H7.83262H7.83339H7.83415H7.83492H7.83568H7.83645H7.83721H7.83797H7.83873H7.83949H7.84025H7.841H7.84176H7.84251H7.84326H7.84401H7.84476H7.84551H7.84626H7.847H7.84775H7.84849H7.84923H7.84997H7.85071H7.85145H7.85219H7.85292H7.85366H7.85439H7.85512H7.85585H7.85658H7.85731H7.85803H7.85876H7.85948H7.8602H7.86092H7.86164H7.86236H7.86308H7.86379H7.8645H7.86522H7.86593H7.86664H7.86734H7.86805H7.86876H7.86946H7.87016H7.87086H7.87156H7.87226H7.87296H7.87365H7.87435H7.87504H7.87573H7.87642H7.87711H7.87779H7.87848H7.87916H7.87985H7.88053H7.88121H7.88188H7.88256H7.88323H7.88391H7.88458H7.88525H7.88592H7.88659H7.88725H7.88792H7.88858H7.88924H7.8899H7.89056H7.89121H7.89187H7.89252H7.89317H7.89382H7.89447H7.89512H7.89577H7.89641H7.89705H7.89769H7.89833H7.89897H7.89961H7.90024H7.90087H7.9015H7.90213H7.90276H7.90339H7.90401H7.90464H7.90526H7.90588H7.9065H7.90711H7.90773H7.90834H7.90895H7.90956H7.91017H7.91078H7.91138H7.91199H7.91259H7.91319H7.91378H7.91438H7.91498H7.91557H7.91616H7.91675H7.91734H7.91793H7.91851H7.91909H7.91967H7.92025H7.92083H7.92141H7.92198H7.92255H7.92312H7.92369H7.92426H7.92483H7.92539H7.92595H7.92651H7.92707H7.92763H7.92818H7.92873H7.92928H7.92983H7.93038H7.93093H7.93147H7.93201H7.93255H7.93309H7.93363H7.93416H7.9347H7.93523H7.93576H7.93628H7.93681H7.93733H7.93785H7.93837H7.93889H7.93941H7.93992H7.94043H7.94094H7.94145H7.94196H7.94246H7.94297H7.94347H7.94397H7.94446H7.94496H7.94545H7.94594H7.94643H7.94692H7.94741H7.94789H7.94837H7.94885H7.94933H7.94981H7.95028H7.95075H7.95122H7.95169H7.95215H7.95262H7.95308H7.95354H7.954H7.95445H7.95491H7.95536H7.95581H7.95626H7.9567H7.95715H7.95759H7.95803H7.95847H7.9589H7.95934H7.95977H7.9602H7.96062H7.96105H7.96147H7.96189H7.96231H7.96273H7.96315H7.96356H7.96397H7.96438H7.96478H7.96519H7.96559H7.96599H7.96639H7.96679H7.96718H7.96757H7.96796H7.96835H7.96873H7.96912H7.9695H7.96988H7.97025H7.97063H7.971H7.97137H7.97174H7.97211H7.97247H7.97283H7.97319H7.97355H7.9739H7.97426H7.97461H7.97495H7.9753H7.97564H7.97599H7.97633H7.97666H7.977H7.97733H7.97766H7.97799H7.97832H7.97864H7.97896H7.97928H7.9796H7.97991H7.98022H7.98053H7.98084H7.98115H7.98145H7.98175H7.98205H7.98235H7.98264H7.98293H7.98322H7.98351H7.98379H7.98408H7.98436H7.98463H7.98491H7.98518H7.98545H7.98572H7.98599H7.98625H7.98651H7.98677H7.98703H7.98728H7.98753H7.98778H7.98803H7.98828H7.98852H7.98876H7.989H7.98923H7.98946H7.98969H7.98992H7.99015H7.99037H7.99059H7.99081H7.99102H7.99124H7.99145H7.99166H7.99186H7.99206H7.99227H7.99246H7.99266H7.99285H7.99304H7.99323H7.99342H7.9936H7.99378H7.99396H7.99414H7.99431H7.99448H7.99465H7.99482H7.99498H7.99514H7.9953H7.99545H7.99561H7.99576H7.99591H7.99605H7.99619H7.99634H7.99647H7.99661H7.99674H7.99687H7.997H7.99712H7.99725H7.99737H7.99748H7.9976H7.99771H7.99782H7.99793H7.99803H7.99813H7.99823H7.99833H7.99842H7.99851H7.9986H7.99868H7.99877H7.99885H7.99892H7.999H7.99907H7.99914H7.99921H7.99927H7.99933H7.99939H7.99945H7.9995H7.99955H7.9996H7.99965H7.99969H7.99973H7.99977H7.9998H7.99983H7.99986H7.99989H7.99991H7.99993H7.99995H7.99997H7.99998H7.99999H7.99999L8 11L8 10.7H7.99999H7.99998H7.99997H7.99995H7.99993H7.99991H7.99989H7.99986H7.99983H7.9998H7.99977H7.99973H7.99969H7.99965H7.9996H7.99955H7.9995H7.99945H7.99939H7.99933H7.99927H7.99921H7.99914H7.99907H7.999H7.99892H7.99885H7.99877H7.99868H7.9986H7.99851H7.99842H7.99833H7.99823H7.99813H7.99803H7.99793H7.99782H7.99771H7.9976H7.99748H7.99737H7.99725H7.99712H7.997H7.99687H7.99674H7.99661H7.99647H7.99634H7.99619H7.99605H7.99591H7.99576H7.99561H7.99545H7.9953H7.99514H7.99498H7.99482H7.99465H7.99448H7.99431H7.99414H7.99396H7.99378H7.9936H7.99342H7.99323H7.99304H7.99285H7.99266H7.99246H7.99227H7.99206H7.99186H7.99166H7.99145H7.99124H7.99102H7.99081H7.99059H7.99037H7.99015H7.98992H7.98969H7.98946H7.98923H7.989H7.98876H7.98852H7.98828H7.98803H7.98778H7.98753H7.98728H7.98703H7.98677H7.98651H7.98625H7.98599H7.98572H7.98545H7.98518H7.98491H7.98463H7.98436H7.98408H7.98379H7.98351H7.98322H7.98293H7.98264H7.98235H7.98205H7.98175H7.98145H7.98115H7.98084H7.98053H7.98022H7.97991H7.9796H7.97928H7.97896H7.97864H7.97832H7.97799H7.97766H7.97733H7.977H7.97666H7.97633H7.97599H7.97564H7.9753H7.97495H7.97461H7.97426H7.9739H7.97355H7.97319H7.97283H7.97247H7.97211H7.97174H7.97137H7.971H7.97063H7.97025H7.96988H7.9695H7.96912H7.96873H7.96835H7.96796H7.96757H7.96718H7.96679H7.96639H7.96599H7.96559H7.96519H7.96478H7.96438H7.96397H7.96356H7.96315H7.96273H7.96231H7.96189H7.96147H7.96105H7.96062H7.9602H7.95977H7.95934H7.9589H7.95847H7.95803H7.95759H7.95715H7.9567H7.95626H7.95581H7.95536H7.95491H7.95445H7.954H7.95354H7.95308H7.95262H7.95215H7.95169H7.95122H7.95075H7.95028H7.94981H7.94933H7.94885H7.94837H7.94789H7.94741H7.94692H7.94643H7.94594H7.94545H7.94496H7.94446H7.94397H7.94347H7.94297H7.94246H7.94196H7.94145H7.94094H7.94043H7.93992H7.93941H7.93889H7.93837H7.93785H7.93733H7.93681H7.93628H7.93576H7.93523H7.9347H7.93416H7.93363H7.93309H7.93255H7.93201H7.93147H7.93093H7.93038H7.92983H7.92928H7.92873H7.92818H7.92763H7.92707H7.92651H7.92595H7.92539H7.92483H7.92426H7.92369H7.92312H7.92255H7.92198H7.92141H7.92083H7.92025H7.91967H7.91909H7.91851H7.91793H7.91734H7.91675H7.91616H7.91557H7.91498H7.91438H7.91378H7.91319H7.91259H7.91199H7.91138H7.91078H7.91017H7.90956H7.90895H7.90834H7.90773H7.90711H7.9065H7.90588H7.90526H7.90464H7.90401H7.90339H7.90276H7.90213H7.9015H7.90087H7.90024H7.89961H7.89897H7.89833H7.89769H7.89705H7.89641H7.89577H7.89512H7.89447H7.89382H7.89317H7.89252H7.89187H7.89121H7.89056H7.8899H7.88924H7.88858H7.88792H7.88725H7.88659H7.88592H7.88525H7.88458H7.88391H7.88323H7.88256H7.88188H7.88121H7.88053H7.87985H7.87916H7.87848H7.87779H7.87711H7.87642H7.87573H7.87504H7.87435H7.87365H7.87296H7.87226H7.87156H7.87086H7.87016H7.86946H7.86876H7.86805H7.86734H7.86664H7.86593H7.86522H7.8645H7.86379H7.86308H7.86236H7.86164H7.86092H7.8602H7.85948H7.85876H7.85803H7.85731H7.85658H7.85585H7.85512H7.85439H7.85366H7.85292H7.85219H7.85145H7.85071H7.84997H7.84923H7.84849H7.84775H7.847H7.84626H7.84551H7.84476H7.84401H7.84326H7.84251H7.84176H7.841H7.84025H7.83949H7.83873H7.83797H7.83721H7.83645H7.83568H7.83492H7.83415H7.83339H7.83262H7.83185H7.83108H7.83031H7.82953H7.82876H7.82798H7.82721H7.82643H7.82565H7.82487H7.82409H7.82331H7.82252H7.82174H7.82095H7.82016H7.81938H7.81859H7.8178H7.817H7.81621H7.81542H7.81462H7.81383H7.81303H7.81223H7.81143H7.81063H7.80983H7.80902H7.80822H7.80742H7.80661H7.8058H7.80499H7.80418H7.80337H7.80256H7.80175H7.80094H7.80012H7.79931H7.79849H7.79767H7.79685H7.79603H7.79521H7.79439H7.79357H7.79274H7.79192H7.79109H7.79027H7.78944H7.78861H7.78778H7.78695H7.78612H7.78528H7.78445H7.78361H7.78278H7.78194H7.7811H7.78027H7.77943H7.77859H7.77774H7.7769H7.77606H7.77521H7.77437H7.77352H7.77268H7.77183H7.77098H7.77013H7.76928H7.76843H7.76758H7.76672H7.76587H7.76501H7.76416H7.7633H7.76244H7.76158H7.76072H7.75986H7.759H7.75814H7.75728H7.75641H7.75555H7.75469H7.75382H7.75295H7.75208H7.75122H7.75035H7.74948H7.74861H7.74773H7.74686H7.74599H7.74511H7.74424H7.74336H7.74249H7.74161H7.74073H7.73985H7.73897H7.73809H7.73721H7.73633H7.73545H7.73456H7.73368H7.7328H7.73191H7.73102H7.73014H7.72925H7.72836H7.72747H7.72658H0.273418H0.272528H0.271639H0.270751H0.269863H0.268976H0.26809H0.267205H0.26632H0.265436H0.264553H0.26367H0.262789H0.261908H0.261027H0.260148H0.259269H0.258391H0.257514H0.256637H0.255762H0.254887H0.254013H0.253139H0.252267H0.251395H0.250524H0.249654H0.248784H0.247916H0.247048H0.246181H0.245315H0.24445H0.243585H0.242722H0.241859H0.240997H0.240136H0.239276H0.238416H0.237558H0.2367H0.235843H0.234987H0.234132H0.233278H0.232425H0.231572H0.230721H0.22987H0.22902H0.228172H0.227324H0.226477H0.225631H0.224785H0.223941H0.223098H0.222256H0.221414H0.220574H0.219734H0.218895H0.218058H0.217221H0.216385H0.215551H0.214717H0.213884H0.213052H0.212221H0.211391H0.210562H0.209734H0.208907H0.208082H0.207257H0.206433H0.20561H0.204788H0.203967H0.203147H0.202328H0.201511H0.200694H0.199878H0.199064H0.19825H0.197437H0.196626H0.195816H0.195006H0.194198H0.193391H0.192585H0.19178H0.190976H0.190173H0.189371H0.18857H0.187771H0.186972H0.186175H0.185379H0.184584H0.18379H0.182997H0.182205H0.181414H0.180625H0.179837H0.179049H0.178263H0.177478H0.176695H0.175912H0.175131H0.174351H0.173572H0.172794H0.172017H0.171242H0.170467H0.169694H0.168922H0.168152H0.167382H0.166614H0.165847H0.165081H0.164316H0.163553H0.162791H0.16203H0.16127H0.160512H0.159755H0.158999H0.158244H0.157491H0.156739H0.155988H0.155238H0.15449H0.153743H0.152997H0.152253H0.15151H0.150768H0.150027H0.149288H0.14855H0.147813H0.147078H0.146344H0.145612H0.14488H0.14415H0.143422H0.142694H0.141968H0.141244H0.140521H0.139799H0.139078H0.138359H0.137641H0.136925H0.13621H0.135496H0.134784H0.134073H0.133364H0.132655H0.131949H0.131244H0.13054H0.129837H0.129136H0.128437H0.127738H0.127042H0.126346H0.125653H0.12496H0.124269H0.12358H0.122892H0.122205H0.12152H0.120836H0.120154H0.119474H0.118794H0.118117H0.11744H0.116766H0.116092H0.115421H0.11475H0.114082H0.113415H0.112749H0.112085H0.111422H0.110761H0.110101H0.109443H0.108787H0.108132H0.107478H0.106827H0.106176H0.105528H0.10488H0.104235H0.103591H0.102948H0.102308H0.101668H0.101031H0.100395H0.0997601H0.0991273H0.098496H0.0978664H0.0972383H0.0966119H0.0959871H0.095364H0.0947425H0.0941226H0.0935043H0.0928877H0.0922728H0.0916595H0.0910478H0.0904379H0.0898295H0.0892229H0.0886179H0.0880146H0.087413H0.0868131H0.0862148H0.0856183H0.0850234H0.0844303H0.0838388H0.0832491H0.0826611H0.0820748H0.0814902H0.0809073H0.0803262H0.0797468H0.0791692H0.0785933H0.0780191H0.0774467H0.076876H0.0763071H0.07574H0.0751746H0.074611H0.0740492H0.0734892H0.0729309H0.0723744H0.0718198H0.0712669H0.0707158H0.0701665H0.069619H0.0690734H0.0685295H0.0679875H0.0674473H0.0669089H0.0663724H0.0658377H0.0653048H0.0647738H0.0642446H0.0637173H0.0631918H0.0626682H0.0621465H0.0616266H0.0611086H0.0605925H0.0600782H0.0595659H0.0590554H0.0585468H0.0580401H0.0575354H0.0570325H0.0565315H0.0560325H0.0555354H0.0550402H0.0545469H0.0540555H0.0535661H0.0530786H0.0525931H0.0521095H0.0516278H0.0511482H0.0506704H0.0501947H0.0497209H0.049249H0.0487792H0.0483113H0.0478454H0.0473815H0.0469196H0.0464596H0.0460017H0.0455458H0.0450919H0.04464H0.0441901H0.0437422H0.0432964H0.0428526H0.0424108H0.0419711H0.0415334H0.0410977H0.0406641H0.0402325H0.039803H0.0393756H0.0389502H0.0385269H0.0381056H0.0376865H0.0372694H0.0368544H0.0364415H0.0360306H0.0356219H0.0352153H0.0348108H0.0344084H0.0340081H0.0336099H0.0332138H0.0328199H0.0324281H0.0320385H0.0316509H0.0312655H0.0308823H0.0305012H0.0301223H0.0297455H0.0293709H0.0289984H0.0286281H0.02826H0.0278941H0.0275303H0.0271688H0.0268094H0.0264522H0.0260973H0.0257445H0.0253939H0.0250456H0.0246994H0.0243555H0.0240138H0.0236743H0.0233371H0.0230021H0.0226693H0.0223388H0.0220105H0.0216845H0.0213608H0.0210393H0.02072H0.020403H0.0200883H0.0197759H0.0194658H0.0191579H0.0188523H0.018549H0.0182481H0.0179494H0.017653H0.0173589H0.0170672H0.0167777H0.0164906H0.0162058H0.0159234H0.0156432H0.0153654H0.01509H0.0148169H0.0145461H0.0142777H0.0140117H0.013748H0.0134867H0.0132277H0.0129711H0.0127169H0.0124651H0.0122157H0.0119686H0.011724H0.0114818H0.0112419H0.0110045H0.0107694H0.0105368H0.0103066H0.0100789H0.00985352H0.00963061H0.00941013H0.00919209H0.00897649H0.00876334H0.00855265H0.00834441H0.00813862H0.0079353H0.00773445H0.00753607H0.00734017H0.00714675H0.00695581H0.00676735H0.00658139H0.00639793H0.00621697H0.00603851H0.00586256H0.00568912H0.0055182H0.00534979H0.00518392H0.00502057H0.00485976H0.00470148H0.00454574H0.00439255H0.0042419H0.00409381H0.00394828H0.00380531H0.00366491H0.00352707H0.00339181H0.00325912H0.00312902H0.0030015H0.00287657H0.00275424H0.0026345H0.00251737H0.00240284H0.00229092H0.00218162H0.00207494H0.00197087H0.00186944H0.00177063H0.00167446H0.00158093H0.00149004H0.0014018H0.00131621H0.00123327H0.001153H0.00107538H0.00100044H0.000928161H0.000858561H0.000791641H0.000727405H0.000665856H0.000606999H0.000550837H0.000497376H0.000446618H0.000398569H0.000353231H0.00031061H0.000270709H0.000233532H0.000199084H0.000167368H0.000138388H0.00011215H8.86555e-05H6.79101e-05H4.99176e-05H3.4682e-05H2.22073e-05H1.24977e-05H5.55727e-06H0V11Z"
    fill="#12B0EE" stroke="#12B0EE" stroke-width="0.6" />
  <path
    d="M3.60328 9.10753C3.71241 9.19952 3.85697 9.25 4 9.25C4.13811 9.25 4.285 9.20451 4.3983 9.10619L7.06256 6.86034C7.18026 6.76112 7.25 6.6209 7.25 6.46956C7.25 6.31822 7.18026 6.178 7.06256 6.07878C6.83803 5.88951 6.49117 5.88951 6.26664 6.07878L4.58478 7.49652V1.28221C4.58478 0.949031 4.28233 0.75 4 0.75C3.71767 0.75 3.41522 0.949031 3.41522 1.28221V7.49652L1.73336 6.07878C1.50883 5.88951 1.16197 5.88951 0.937445 6.07878C0.819742 6.178 0.75 6.31822 0.75 6.46956C0.75 6.6209 0.819742 6.76112 0.937445 6.86034L3.60328 9.10753Z"
    fill="#12B0EE" stroke="#12B0EE" stroke-width="0.5" />
</svg>