<svg width="56" height="62" viewBox="0 0 56 62" fill="none" xmlns="http://www.w3.org/2000/svg">
  <path
    d="M51.4687 30.963C51.6 30.7745 51.7476 30.586 51.8745 30.3974C55.5059 24.8947 56.3029 19.7749 54.1111 15.9803C52.1306 12.5513 47.8948 10.6605 42.1859 10.6605C41.4197 10.6605 40.6313 10.7025 39.8284 10.7683C36.9749 4.75062 32.8476 1 28.1631 1C23.4796 1 19.3512 4.75062 16.4989 10.7683C15.6959 10.7028 14.9072 10.6605 14.1413 10.6605C8.42964 10.6605 4.19283 12.5513 2.21304 15.9803C0.0235893 19.7725 0.818208 24.8947 4.451 30.3974C4.57714 30.586 4.7265 30.7724 4.85645 30.963C4.72442 31.1536 4.5768 31.3397 4.451 31.5282C0.818208 37.0344 0.02151 42.1507 2.21304 45.9447C4.19283 49.3737 8.42964 51.2658 14.1413 51.2658C14.9072 51.2658 15.6959 51.2228 16.4989 51.1577C19.3512 57.1754 23.4796 60.926 28.1631 60.926C32.8456 60.926 36.9749 57.1757 39.8284 51.1577C40.631 51.2249 41.4197 51.2658 42.1859 51.2658C47.8965 51.2658 52.1327 49.3734 54.1131 45.9447C56.3029 42.1511 55.508 37.0302 51.8766 31.5282C51.7477 31.3397 51.5979 31.1536 51.4687 30.963ZM42.188 13.5164C46.8358 13.5164 50.1931 14.898 51.643 17.4091C53.2326 20.163 52.5156 24.1233 49.648 28.5736C47.8331 26.388 45.6742 24.2682 43.2099 22.2853C42.7265 19.1144 41.9728 16.1861 41.0101 13.5708C41.4034 13.5542 41.803 13.5164 42.188 13.5164ZM34.5866 42.0832C32.4723 43.304 30.3137 44.3443 28.1631 45.2318C26.0152 44.3443 23.8563 43.3044 21.7427 42.0832C19.6267 40.8606 17.648 39.5229 15.8085 38.1135C15.5001 35.8219 15.322 33.429 15.322 30.963C15.322 28.4987 15.5001 26.1052 15.8085 23.8142C17.6459 22.4052 19.6267 21.0654 21.7427 19.8446C23.8566 18.624 26.0135 17.5834 28.1631 16.6962C30.3137 17.5834 32.4685 18.6237 34.5845 19.8446C36.7001 21.0675 38.6789 22.4052 40.5183 23.8142C40.8257 26.1052 41.0038 28.4987 41.0038 30.963C41.0038 33.429 40.8254 35.8219 40.5183 38.1135C38.6813 39.5229 36.7026 40.8602 34.5866 42.0832ZM39.8038 42.1487C39.3328 44.2709 38.7447 46.2701 38.0381 48.0683C36.0944 47.7796 34.0685 47.3045 31.9951 46.645C33.347 46.0036 34.6885 45.3199 36.0119 44.5557C37.3274 43.7954 38.5832 42.9824 39.8038 42.1487ZM24.3328 46.645C22.2608 47.3045 20.2321 47.7796 18.288 48.0683C17.5856 46.2701 16.9958 44.273 16.5245 42.1507C17.7471 42.9866 19.0009 43.7975 20.3157 44.5554C21.6401 45.3178 22.984 46.0015 24.3328 46.645ZM12.6606 35.4836C11.0609 34.0233 9.63214 32.5072 8.40712 30.963C9.63214 29.4195 11.0609 27.9048 12.6606 26.4424C12.5479 27.919 12.472 29.4195 12.472 30.963C12.472 32.5072 12.5476 34.0088 12.6606 35.4836ZM16.5266 19.777C16.9975 17.6548 17.5856 15.6577 18.2901 13.8605C20.2349 14.1492 22.2629 14.6215 24.3348 15.282C22.9861 15.9262 21.6422 16.6082 20.3181 17.3734C19.003 18.1302 17.7474 18.9443 16.5266 19.777ZM31.9976 15.282C34.0706 14.6253 36.0985 14.1492 38.0423 13.8605C38.7447 15.658 39.3345 17.6551 39.8058 19.7791C38.5853 18.9443 37.3295 18.1302 36.0147 17.3734C34.6912 16.6082 33.3473 15.9262 31.9976 15.282ZM43.6708 26.4455C45.2704 27.9048 46.6961 29.4195 47.9232 30.963C46.6985 32.5072 45.2708 34.0233 43.6708 35.4836C43.7834 34.0067 43.8593 32.5072 43.8593 30.963C43.8593 29.4195 43.7838 27.919 43.6708 26.4455ZM28.1652 3.8555C31.4649 3.8555 34.511 6.66387 36.8131 11.1609C34.0293 11.6433 31.1083 12.4781 28.1652 13.619C25.2227 12.4802 22.3006 11.6433 19.5169 11.1609C21.8207 6.6656 24.8654 3.8555 28.1652 3.8555ZM4.69046 17.4091C6.1397 14.8977 9.49768 13.5164 14.1455 13.5164C14.5277 13.5164 14.9301 13.5542 15.3244 13.5708C14.3617 16.1886 13.609 19.1148 13.1246 22.2853C10.6593 24.2661 8.4993 26.388 6.68481 28.5736C3.81752 24.1237 3.09776 20.1651 4.69046 17.4091ZM14.1455 48.4107C9.49768 48.4107 6.1397 47.0283 4.69046 44.5169C3.09984 41.7619 3.81752 37.8023 6.68446 33.3514C8.4993 35.5387 10.6593 37.6571 13.1242 39.6397C13.6087 42.8102 14.3593 45.7395 15.3241 48.3552C14.9301 48.3736 14.5274 48.4107 14.1455 48.4107ZM28.1652 58.0705C24.8654 58.0705 21.8203 55.2621 19.5169 50.7664C22.3006 50.2827 25.2203 49.4472 28.1652 48.3081C31.1083 49.4472 34.0273 50.2827 36.8131 50.7664C34.511 55.2621 31.4629 58.0705 28.1652 58.0705ZM51.6409 44.5166C50.1906 47.028 46.8333 48.4103 42.1859 48.4103C41.803 48.4103 41.4013 48.3736 41.0063 48.3552C41.9686 45.7371 42.7227 42.8102 43.2061 39.6376C45.6704 37.6568 47.8293 35.5346 49.6462 33.351C52.5135 37.802 53.2326 41.7616 51.6409 44.5166Z"
    fill="#24272C" />
  <path fill-rule="evenodd" clip-rule="evenodd"
    d="M52.1249 30.5629L52.1234 30.5651C52.0562 30.665 51.9843 30.7637 51.9151 30.8579C51.8887 30.894 51.8626 30.9293 51.8371 30.9642C51.862 30.9982 51.8876 31.0326 51.9137 31.0678L51.9202 31.0766C51.9872 31.1668 52.058 31.2623 52.1242 31.3591L52.127 31.3631L52.127 31.3631C55.7857 36.9066 56.6457 42.1576 54.373 46.0948L54.3729 46.0949C52.3171 49.6541 47.9516 51.566 42.1859 51.566C41.4755 51.566 40.7477 51.5313 40.0099 51.4736C37.1417 57.4208 32.9713 61.2262 28.1631 61.2262C23.3537 61.2262 19.1843 57.4203 16.3171 51.4732C15.5798 51.5295 14.8519 51.566 14.1413 51.566C8.37468 51.566 4.00841 49.6545 1.95324 46.0949C-0.321328 42.1571 0.540631 36.9106 4.2006 31.3632L4.20146 31.3619C4.26862 31.2612 4.34071 31.1626 4.4098 31.0687L4.43277 31.0375C4.45143 31.0122 4.46984 30.9872 4.48798 30.9625C4.46573 30.9321 4.443 30.9012 4.41981 30.8698L4.4109 30.8577C4.34196 30.7643 4.26913 30.6653 4.20168 30.5645L4.20064 30.5629C0.54052 25.0188 -0.319187 19.7664 1.95324 15.8305L2.21304 15.9805C0.0235965 19.7727 0.818216 24.8949 4.45101 30.3976C4.51712 30.4964 4.58961 30.5947 4.66234 30.6932C4.72838 30.7827 4.79462 30.8725 4.85646 30.9632C4.79775 31.048 4.73595 31.1318 4.67436 31.2154C4.59745 31.3198 4.52086 31.4237 4.45101 31.5284C0.818216 37.0346 0.0215173 42.1509 2.21304 45.9449C4.19283 49.3739 8.42965 51.266 14.1413 51.266C14.9072 51.266 15.6959 51.223 16.4989 51.1579C19.3512 57.1756 23.4796 60.9262 28.1631 60.9262C32.8456 60.9262 36.9749 57.1759 39.8284 51.1579C40.631 51.2251 41.4197 51.266 42.1859 51.266C47.8965 51.266 52.1327 49.3736 54.1131 45.9449C56.3029 42.1513 55.508 37.0304 51.8766 31.5284C51.8138 31.4366 51.7461 31.3453 51.6782 31.2538C51.6067 31.1575 51.535 31.061 51.4687 30.9632C51.5264 30.8804 51.5872 30.7976 51.648 30.7148C51.7257 30.6091 51.8034 30.5034 51.8745 30.3976C55.5059 24.8949 56.3029 19.7751 54.1111 15.9805C52.1306 12.5515 47.8948 10.6607 42.1859 10.6607C41.4197 10.6607 40.6313 10.7027 39.8284 10.7685C36.9749 4.75081 32.8476 1.0002 28.1631 1.0002C23.4796 1.0002 19.3512 4.75081 16.4989 10.7685C15.6959 10.703 14.9072 10.6607 14.1413 10.6607C8.42965 10.6607 4.19283 12.5515 2.21304 15.9805L1.95324 15.8305C4.00844 12.2708 8.37476 10.3607 14.1413 10.3607C14.8518 10.3607 15.5796 10.3966 16.3171 10.4532C19.1843 4.50608 23.3537 0.700195 28.1631 0.700195C32.9735 0.700195 37.1419 4.50608 40.0101 10.4531C40.7477 10.3963 41.4752 10.3607 42.1859 10.3607C47.9498 10.3607 52.315 12.2709 54.3708 15.8304C56.6458 19.7688 55.7835 25.0189 52.1249 30.5629ZM21.7427 19.8448C19.6267 21.0656 17.6459 22.4054 15.8086 23.8144C15.5001 26.1054 15.322 28.4989 15.322 30.9632C15.322 33.4292 15.5001 35.822 15.8086 38.1137C17.648 39.5231 19.6267 40.8608 21.7427 42.0834C23.8563 43.3046 26.0152 44.3445 28.1631 45.232C30.3137 44.3445 32.4723 43.3042 34.5866 42.0834C36.7026 40.8604 38.6813 39.5231 40.5183 38.1137C40.8254 35.822 41.0038 33.4292 41.0038 30.9632C41.0038 28.4989 40.8257 26.1054 40.5183 23.8144C38.6789 22.4054 36.7001 21.0677 34.5845 19.8448C32.4685 18.6239 30.3137 17.5836 28.1631 16.6964C26.0135 17.5836 23.8566 18.6242 21.7427 19.8448ZM28.1631 17.0211C26.0625 17.8933 23.9566 18.9129 21.8927 20.1046L21.8927 20.1046C19.8264 21.2968 17.8894 22.6032 16.0895 23.9772C15.7928 26.2186 15.622 28.5573 15.622 30.9632C15.622 33.3708 15.7928 35.7088 16.0895 37.9509C17.8913 39.3252 19.8264 40.6297 21.8928 41.8236C23.9562 43.0158 26.0639 44.0347 28.1632 44.9073C30.2649 44.0348 32.3724 43.0155 34.4365 41.8236C36.5029 40.6293 38.4379 39.3252 40.2373 37.951C40.5327 35.7088 40.7038 33.3707 40.7038 30.9632C40.7038 28.5574 40.5331 26.2187 40.2374 23.9772C38.4356 22.6033 36.5005 21.2989 34.4346 20.1046C32.3685 18.9126 30.2646 17.8933 28.1631 17.0211ZM36.0119 44.5559C34.8181 45.2452 33.6097 45.869 32.3922 46.4555C32.2599 46.5191 32.1276 46.5824 31.9951 46.6452C32.1357 46.6899 32.276 46.7338 32.4161 46.7768C34.3428 47.3682 36.2261 47.7994 38.0381 48.0685C38.6969 46.3919 39.2527 44.5406 39.7066 42.5778C39.7395 42.4354 39.7719 42.2924 39.8038 42.1489C39.6831 42.2313 39.5621 42.3135 39.4407 42.3955C38.3343 43.1429 37.1973 43.8708 36.0119 44.5559ZM39.3405 42.8244C38.3143 43.5115 37.2593 44.1815 36.162 44.8157L36.1619 44.8157C35.056 45.4542 33.9386 46.0364 32.8148 46.5841C34.5362 47.0983 36.2199 47.4824 37.8456 47.7357C38.4258 46.2245 38.924 44.5722 39.3405 42.8244ZM20.166 44.8156L20.1658 44.8155C19.0689 44.1832 18.0151 43.5148 16.988 42.8269C17.4049 44.5738 17.904 46.2245 18.4811 47.7356C20.1076 47.4823 21.7938 47.098 23.5151 46.5836C22.3924 46.0348 21.273 45.4528 20.166 44.8156ZM23.937 46.4551C22.7212 45.8671 21.5105 45.2434 20.3157 44.5556C19.1308 43.8726 17.9954 43.1465 16.8877 42.3978C16.7663 42.3158 16.6453 42.2335 16.5245 42.1509C16.5564 42.2946 16.5889 42.4377 16.6218 42.5801C17.0762 44.5426 17.6332 46.392 18.2881 48.0685C20.1006 47.7993 21.9867 47.3681 23.9128 46.7766C24.0526 46.7336 24.1926 46.6898 24.3328 46.6452C24.2008 46.5823 24.0689 46.5189 23.937 46.4551ZM4.95031 17.5592L4.95021 17.5594C3.48433 20.096 4.05497 23.7896 6.71865 28.0667C8.46805 26.003 10.5218 24.001 12.8458 22.1248C13.31 19.1327 14.0123 16.356 14.9049 13.8487C14.8908 13.8478 14.8767 13.847 14.8627 13.8461C14.617 13.831 14.3821 13.8166 14.1455 13.8166C9.53645 13.8166 6.31884 15.1877 4.95031 17.5592ZM15.011 13.5545C15.1157 13.5607 15.2203 13.5666 15.3244 13.571C15.2884 13.669 15.2526 13.7675 15.2172 13.8664C14.3057 16.4083 13.5909 19.2337 13.1246 22.2855C10.75 24.1934 8.65871 26.2322 6.88656 28.3327C6.81885 28.413 6.7516 28.4933 6.68481 28.5738C6.6276 28.485 6.57123 28.3964 6.51573 28.308C3.78973 23.9663 3.12955 20.1103 4.69047 17.4093C6.1397 14.8979 9.49769 13.5166 14.1455 13.5166C14.3897 13.5166 14.6421 13.532 14.8955 13.5475C14.934 13.5498 14.9725 13.5522 15.011 13.5545ZM4.95027 44.3671L4.95031 44.3672C6.31886 46.7387 9.53652 48.1109 14.1455 48.1109C14.39 48.1109 14.6358 48.0955 14.8924 48.0795C14.8965 48.0793 14.9005 48.079 14.9046 48.0788C14.0101 45.5724 13.3096 42.7927 12.8454 39.8005C10.5219 37.9228 8.46812 35.9239 6.7183 33.8588C4.05514 38.1367 3.48628 41.8314 4.95027 44.3671ZM6.5154 33.6174C3.78981 37.9601 3.13159 41.8171 4.69047 44.5171C6.1397 47.0285 9.49769 48.4109 14.1455 48.4109C14.3988 48.4109 14.6612 48.3945 14.9242 48.3782C14.9531 48.3764 14.982 48.3746 15.0109 48.3728C15.1155 48.3664 15.2201 48.3603 15.3241 48.3554C15.288 48.2575 15.2522 48.1592 15.2167 48.0604C14.3035 45.5201 13.5906 42.6917 13.1242 39.6399C10.75 37.7303 8.65865 35.6946 6.88618 33.5927C6.81847 33.5124 6.75124 33.432 6.68447 33.3516C6.62725 33.4404 6.5709 33.529 6.5154 33.6174ZM51.3811 44.3667L51.3812 44.3667C52.8461 41.831 52.276 38.1362 49.6121 33.858C47.8609 35.9198 45.8081 37.922 43.485 39.7984C43.0216 42.793 42.318 45.5707 41.4254 48.0786C41.4291 48.0789 41.4328 48.0791 41.4365 48.0793C41.6939 48.0953 41.9402 48.1105 42.1859 48.1105C46.7944 48.1105 50.0115 46.7384 51.3811 44.3667ZM41.3194 48.3727C41.2149 48.3664 41.1103 48.3602 41.0063 48.3554C41.0423 48.2575 41.078 48.1591 41.1134 48.0603C42.0246 45.518 42.7408 42.6917 43.2061 39.6378C45.5797 37.7299 47.67 35.6907 49.4443 33.592C49.5121 33.5118 49.5794 33.4315 49.6462 33.3512C49.7034 33.44 49.7598 33.5286 49.8152 33.617C52.5413 37.9597 53.2008 41.8167 51.6409 44.5168C50.1906 47.0282 46.8334 48.4105 42.1859 48.4105C41.9314 48.4105 41.6687 48.3943 41.4051 48.378C41.3765 48.3762 41.348 48.3745 41.3194 48.3727ZM51.3832 17.5592C50.0139 15.188 46.7969 13.8166 42.188 13.8166C41.9493 13.8166 41.7145 13.831 41.4693 13.8462C41.4561 13.847 41.4429 13.8478 41.4297 13.8486C42.3224 16.354 43.0256 19.1325 43.4888 22.125C45.8117 24.003 47.8645 26.0032 49.6141 28.0667C52.2779 23.7894 52.8462 20.094 51.3832 17.5592ZM51.643 17.4093C50.1931 14.8982 46.8358 13.5166 42.188 13.5166C41.9416 13.5166 41.6893 13.532 41.4365 13.5475C41.3988 13.5498 41.3612 13.5522 41.3235 13.5544C41.2189 13.5607 41.1143 13.5666 41.0101 13.571C41.0462 13.669 41.0819 13.7675 41.1174 13.8664C42.0289 16.4062 42.7446 19.2334 43.2099 22.2855C45.5835 24.1954 47.6738 26.2323 49.4462 28.3328C49.5139 28.413 49.5812 28.4934 49.648 28.5738C49.7052 28.485 49.7615 28.3964 49.8171 28.308C52.5433 23.966 53.2009 20.1083 51.643 17.4093ZM12.6606 35.4838C12.6494 35.3383 12.6386 35.1926 12.6283 35.0466C12.5334 33.7123 12.4721 32.3551 12.4721 30.9632C12.4721 29.5719 12.5337 28.2154 12.6284 26.88C12.6387 26.7339 12.6495 26.5881 12.6606 26.4426C12.5521 26.5417 12.4444 26.6411 12.3376 26.7407C10.8681 28.1105 9.54909 29.5243 8.40712 30.9632C9.54907 32.4027 10.8681 33.8177 12.3375 35.186C12.4444 35.2855 12.5521 35.3848 12.6606 35.4838ZM12.3068 34.7459C12.2243 33.5098 12.1721 32.2518 12.1721 30.9632C12.1721 29.6751 12.2246 28.4178 12.307 27.181C11.0045 28.4129 9.82628 29.6784 8.79121 30.9632C9.8263 32.2487 11.0045 33.5151 12.3068 34.7459ZM16.6237 19.3485C16.5908 19.4908 16.5584 19.6337 16.5266 19.7772C16.6472 19.6949 16.7682 19.6128 16.8896 19.5309C17.9962 18.7841 19.1329 18.0556 20.3181 17.3736C21.5128 16.6832 22.7235 16.0606 23.9394 15.4723C24.0712 15.4085 24.203 15.3452 24.3349 15.2822C24.1948 15.2375 24.0549 15.1937 23.9152 15.1508C21.989 14.5587 20.1034 14.1298 18.2901 13.8607C17.6332 15.5363 17.0776 17.3858 16.6237 19.3485ZM20.168 17.1138C19.0708 17.7453 18.0159 18.4157 16.9897 19.1022ZM16.9897 19.1022C17.4062 17.3547 17.9043 15.7039 18.4829 14.1934C20.1104 14.4467 21.7964 14.8292 23.5177 15.3438M32.4183 15.1512C32.2783 15.1941 32.138 15.2377 31.9976 15.2822C32.1297 15.3453 32.2618 15.4087 32.3939 15.4726C33.6103 16.0608 34.8208 16.6833 36.0147 17.3736C37.1994 18.0556 38.3363 18.784 39.4427 19.5322C39.5641 19.6143 39.6851 19.6967 39.8058 19.7793C39.774 19.6356 39.7415 19.4925 39.7086 19.35C39.2542 17.386 38.6972 15.5366 38.0423 13.8607C36.2302 14.1298 34.345 14.5619 32.4183 15.1512ZM32.8165 15.3444C33.9394 15.8931 35.0586 16.4743 36.1648 17.1139C36.1647 17.1138 36.1645 17.1137 36.1643 17.1136M32.8165 15.3444C34.5382 14.8317 36.2235 14.4469 37.8493 14.1935C38.4264 15.7042 38.9255 17.3549 39.3424 19.1031C38.3164 18.4154 37.2615 17.7452 36.1648 17.1139M43.6708 26.4457C43.682 26.5911 43.6928 26.7368 43.7031 26.8828C43.798 28.2158 43.8593 29.572 43.8593 30.9632C43.8593 32.3553 43.7977 33.7111 43.703 35.0467C43.6926 35.1927 43.6819 35.3384 43.6708 35.4838C43.7793 35.3848 43.8869 35.2856 43.9938 35.1861C45.4634 33.8178 46.7816 32.4027 47.9232 30.9632C46.7794 29.5244 45.4629 28.1106 43.9939 26.7434C43.887 26.6439 43.7793 26.5447 43.6708 26.4457ZM44.0246 27.1834C45.3262 28.4131 46.5024 29.6784 47.5391 30.9634C46.5042 32.2489 45.3267 33.5154 44.0244 34.7461C44.1068 33.5091 44.1593 32.2521 44.1593 30.9632C44.1593 29.6754 44.1071 28.4183 44.0246 27.1834ZM36.3582 10.9378C34.0945 6.68082 31.2013 4.1557 28.1652 4.1557C25.1291 4.1557 22.2373 6.68228 19.972 10.9378C22.6213 11.4268 25.385 12.2285 28.1651 13.2976C30.946 12.2265 33.709 11.4266 36.3582 10.9378ZM36.6681 10.8819C34.3838 6.54812 31.3961 3.8557 28.1652 3.8557C24.9343 3.8557 21.9479 6.54975 19.6621 10.8819C19.6134 10.9743 19.565 11.0673 19.5169 11.1611C19.6197 11.179 19.7228 11.1973 19.826 11.2161C22.5166 11.7058 25.3314 12.5225 28.1652 13.6192C30.9996 12.5205 33.8135 11.7056 36.504 11.216C36.6072 11.1973 36.7103 11.179 36.8131 11.1611C36.7651 11.0673 36.7167 10.9742 36.6681 10.8819ZM19.9719 50.9898C22.2369 55.2456 25.129 57.7707 28.1652 57.7707C31.1994 57.7707 34.0944 55.2455 36.3582 50.9899C33.7073 50.4998 30.9461 49.6993 28.1651 48.6298C25.3827 49.6993 22.6209 50.4998 19.9719 50.9898ZM19.662 51.0458C19.6133 50.9535 19.5649 50.8604 19.5169 50.7666C19.6197 50.7488 19.7227 50.7304 19.8259 50.7116C22.5164 50.2207 25.3291 49.4053 28.1652 48.3083C30.9997 49.4053 33.8117 50.2208 36.5041 50.7116C36.6073 50.7304 36.7103 50.7488 36.8131 50.7666C36.7651 50.8604 36.7167 50.9535 36.6681 51.0458C34.3837 55.3783 31.3941 58.0707 28.1652 58.0707C24.9342 58.0707 21.9475 55.3783 19.662 51.0458Z"
    fill="#24272C" />
  <path
    d="M28.1651 26.5183C26.2252 24.7752 22.1994 24.7167 21.8266 28.3269C21.3442 32.9702 28.1651 36.5653 28.1651 36.5653C28.1651 36.5653 34.984 32.9702 34.5027 28.3269C34.1319 24.717 30.1051 24.7773 28.1651 26.5183Z"
    fill="#24272C" />
  <path fill-rule="evenodd" clip-rule="evenodd"
    d="M28.1651 36.565C28.1651 36.565 21.3442 32.9699 21.8266 28.3266C22.1994 24.7164 26.2252 24.7749 28.1651 26.518C30.1051 24.777 34.1319 24.7167 34.5027 28.3266C34.984 32.9699 28.1651 36.565 28.1651 36.565ZM34.8011 28.2957C35.0578 30.7715 33.3711 32.9206 31.715 34.4101C30.8777 35.1632 30.0269 35.7671 29.3863 36.1824C29.0656 36.3903 28.7968 36.5515 28.6075 36.6611C28.5128 36.7159 28.438 36.7578 28.3864 36.7862C28.3607 36.8004 28.3407 36.8112 28.327 36.8186L28.3112 36.8271L28.3069 36.8294L28.3057 36.83L28.3053 36.8302C28.3052 36.8303 28.3051 36.8303 28.1651 36.565C28.0253 36.8304 28.0252 36.8303 28.025 36.8302L28.0247 36.83L28.0234 36.8294L28.0192 36.8271L28.0033 36.8186C27.9896 36.8112 27.9697 36.8004 27.9439 36.7862C27.8923 36.7578 27.8175 36.7159 27.7228 36.6611C27.5334 36.5515 27.2645 36.3903 26.9437 36.1824C26.303 35.7671 25.4519 35.1632 24.6144 34.4101C22.958 32.9207 21.271 30.7716 21.5282 28.2958M34.8011 28.2957C34.7025 27.3361 34.3575 26.5972 33.8443 26.0675C33.3325 25.5393 32.6719 25.2379 31.9723 25.1199C30.671 24.9004 29.1981 25.3077 28.1653 26.1258C27.1324 25.3067 25.6597 24.8993 24.3583 25.119C23.6586 25.2372 22.9979 25.5387 22.486 26.0671C21.9727 26.5969 21.6273 27.336 21.5282 28.2956M28.0253 36.8304L28.1651 36.565L28.3051 36.8303L28.1652 36.9041L28.0253 36.8304Z"
    fill="#24272C" />
</svg>