<svg width="305" height="71" viewBox="0 0 305 71" fill="none" xmlns="http://www.w3.org/2000/svg">
  <path
    d="M10.0979 60.0495C-3.36596 46.3316 -3.36596 23.9766 10.0979 10.2587C23.5617 -3.20515 45.4087 -3.45918 59.1265 9.75062L59.8887 10.2587L61.1588 11.5289L55.5701 17.1176L54.2999 15.8475C43.6304 5.178 26.3561 5.178 15.6866 15.8475C5.01718 26.5169 5.01718 43.7913 15.6866 54.4607C26.1021 64.8761 43.1224 65.1302 53.7918 54.9688L54.2999 54.4607L55.5701 53.1905L61.1588 58.7793C60.9048 59.0333 60.3967 59.5414 59.8887 60.0495C46.1708 73.7674 23.8157 73.7674 10.0979 60.0495Z"
    fill="#12B0EE" />
  <path d="M51.7595 20.9272L57.3483 26.516L30.6747 53.4437L16.7028 39.4718L22.5456 33.883L30.6747 42.2662L51.7595 20.9272Z" fill="#12B0EE" />
  <path
    d="M84.2761 53.9526C89.1027 53.9526 92.6592 52.1743 94.9455 48.6178L89.8648 45.5694C88.5946 47.0936 86.8164 48.1098 84.2761 48.1098C80.4655 48.1098 78.1792 46.5856 77.4171 43.5371H95.9616C96.2157 42.521 96.2157 41.7589 96.2157 40.9968C96.2157 37.4403 94.9455 34.1379 92.6592 31.8515C90.3729 29.3112 87.3245 28.041 83.768 28.041C79.9575 28.041 76.9091 29.3112 74.3687 31.8515C71.8284 34.3919 70.8122 37.4403 70.8122 40.9968C70.8122 44.8073 72.0824 47.8557 74.6227 50.3961C76.9091 52.9364 80.2115 53.9526 84.2761 53.9526ZM89.8648 38.7105H77.4171C77.6712 37.1863 78.4333 35.9161 79.7034 35.154C80.7196 34.3919 82.2438 33.8838 84.022 33.8838C85.5462 33.8838 86.8164 34.3919 87.8325 35.154C88.5946 35.9161 89.3568 37.1863 89.8648 38.7105ZM111.204 53.9526C114.76 53.9526 117.301 52.6824 119.333 50.3961V53.4445H125.684V28.8031H119.333V31.5975C117.301 29.3112 114.76 28.041 111.204 28.041C107.901 28.041 105.107 29.3112 102.821 31.8515C100.534 34.3919 99.2641 37.4403 99.2641 40.9968C99.2641 44.5533 100.534 47.6017 102.821 50.142C105.107 52.6824 107.901 53.9526 111.204 53.9526ZM112.22 48.1098C110.188 48.1098 108.663 47.3477 107.393 46.0775C106.123 44.8073 105.361 43.0291 105.361 40.9968C105.361 38.9645 106.123 37.1863 107.393 35.9161C108.663 34.6459 110.188 33.8838 112.22 33.8838C114.252 33.8838 115.776 34.6459 117.047 35.9161C118.317 37.1863 119.079 38.9645 119.079 40.9968C119.079 43.0291 118.317 44.8073 117.047 46.0775C115.776 47.3477 114.252 48.1098 112.22 48.1098ZM139.656 53.9526C142.45 53.9526 144.736 53.1904 146.769 51.9203C148.547 50.6501 149.563 48.6178 149.563 46.0775C149.563 44.2992 149.055 43.0291 148.293 42.0129C147.531 40.9968 146.26 39.9807 144.99 39.7266C143.72 39.2186 142.45 38.9645 141.18 38.4564C139.91 38.2024 138.893 37.6943 137.877 37.4403C136.861 37.1863 136.607 36.4242 136.607 35.9161C136.607 35.408 136.861 34.9 137.369 34.3919C137.877 34.1379 138.639 33.8838 139.402 33.8838C141.18 33.8838 142.45 34.6459 143.466 36.4242L148.801 33.3758C147.785 31.5975 146.515 30.3273 144.99 29.5652C143.466 28.5491 141.434 28.2951 139.402 28.2951C136.861 28.2951 134.575 29.0572 132.797 30.3273C131.018 31.5975 130.002 33.6298 130.002 36.1701C130.002 37.6943 130.51 39.2186 131.272 40.2347C132.035 41.2508 133.305 42.0129 134.575 42.521C135.845 43.0291 137.115 43.5371 138.385 43.7912C139.656 44.0452 140.672 44.5533 141.688 44.8073C142.704 45.0613 142.958 45.8234 142.958 46.3315C142.958 47.8557 141.942 48.3638 139.656 48.3638C137.115 48.3638 135.591 47.3477 134.829 45.0613L129.494 48.1098C131.272 52.1743 134.575 53.9526 139.656 53.9526ZM153.627 63.0978C156.676 63.3518 159.47 62.5897 161.503 61.0655C163.535 59.5413 165.313 57.001 166.583 53.4445L175.474 28.8031H168.616L163.027 45.3154L156.676 28.8031H149.817L159.978 52.6824C159.47 54.4606 158.708 55.4768 157.692 56.2389C156.676 57.001 155.406 57.255 153.627 57.255V63.0978V63.0978ZM185.89 53.9526C188.684 53.9526 190.971 53.1904 193.003 51.9203C194.781 50.6501 195.797 48.6178 195.797 46.0775C195.797 44.2992 195.289 43.0291 194.527 42.0129C193.765 40.9968 192.495 39.9807 191.225 39.7266C189.954 39.2186 188.684 38.9645 187.414 38.4564C186.144 38.2024 185.128 37.6943 184.112 37.4403C183.096 37.1863 182.841 36.4242 182.841 35.9161C182.841 35.408 183.096 34.9 183.604 34.3919C184.112 34.1379 184.874 33.8838 185.636 33.8838C187.414 33.8838 188.684 34.6459 189.7 36.4242L195.035 33.3758C194.019 31.5975 192.749 30.3273 191.225 29.5652C189.7 28.5491 187.922 28.041 185.89 28.041C183.35 28.041 181.063 28.8031 179.285 30.0733C177.507 31.3435 176.491 33.3758 176.491 35.9161C176.491 37.4403 176.999 38.9645 177.761 39.9807C178.523 40.9968 179.793 41.7589 181.063 42.267C182.333 42.775 183.604 43.2831 184.874 43.5371C186.144 43.7912 187.16 44.2992 188.176 44.5533C189.192 44.8073 189.446 45.5694 189.446 46.0775C189.446 47.6017 188.43 48.1098 186.144 48.1098C183.604 48.1098 182.079 47.0936 181.317 44.8073L175.728 47.8557C177.253 52.1743 180.809 53.9526 185.89 53.9526ZM211.293 53.9526C214.85 53.9526 218.152 52.6824 220.439 50.142C222.979 47.6017 224.249 44.5533 224.249 40.9968C224.249 37.4403 222.979 34.3919 220.439 31.8515C217.898 29.3112 214.85 28.041 211.293 28.041C207.737 28.041 204.688 29.3112 202.148 31.8515C199.608 34.3919 198.084 37.4403 198.084 40.9968C198.084 44.5533 199.354 47.6017 201.894 50.142C204.434 52.6824 207.483 53.9526 211.293 53.9526ZM211.293 47.8557C209.261 47.8557 207.737 47.0936 206.467 45.8234C205.197 44.5533 204.688 43.0291 204.688 40.9968C204.688 38.9645 205.197 37.4403 206.467 36.1701C207.737 34.9 209.261 34.1379 211.293 34.1379C213.326 34.1379 214.85 34.9 216.12 36.1701C217.39 37.4403 218.152 38.9645 218.152 40.9968C218.152 43.0291 217.39 44.5533 216.12 45.8234C214.596 47.0936 213.072 47.8557 211.293 47.8557ZM240.507 53.9526C242.794 53.9526 245.08 53.4445 247.112 52.1743C249.144 50.9041 250.669 49.3799 251.685 47.6017L246.096 44.5533C245.588 45.5694 244.826 46.3315 243.81 46.8396C242.794 47.3477 241.777 47.6017 240.507 47.6017C238.475 47.6017 236.951 47.0936 235.681 45.8234C234.41 44.5533 233.902 43.0291 233.902 40.9968C233.902 38.9645 234.41 37.4403 235.681 36.1701C236.951 34.9 238.475 34.3919 240.507 34.3919C241.777 34.3919 242.794 34.6459 243.81 35.154C244.826 35.6621 245.588 36.4242 246.096 37.4403L251.685 34.1379C250.669 32.1056 249.144 30.5814 247.112 29.5652C245.08 28.2951 243.048 27.787 240.507 27.787C236.697 27.787 233.648 29.0572 231.108 31.5975C228.568 34.1379 227.298 37.1863 227.298 40.7428C227.298 44.2992 228.568 47.6017 231.108 49.888C233.648 52.1743 236.697 53.9526 240.507 53.9526ZM258.036 25.7547C259.052 25.7547 260.068 25.2467 260.83 24.4845C261.592 23.7224 262.1 22.7063 262.1 21.6902C262.1 20.674 261.592 19.6579 260.83 18.8958C260.068 18.1337 259.052 17.6256 258.036 17.6256C257.02 17.6256 256.003 18.1337 255.241 18.8958C254.479 19.6579 253.971 20.674 253.971 21.6902C253.971 22.7063 254.479 23.7224 255.241 24.4845C256.257 25.5007 257.02 25.7547 258.036 25.7547ZM261.338 53.4445V28.8031H254.987V53.4445H261.338ZM277.85 53.9526C281.407 53.9526 283.947 52.6824 285.979 50.3961V53.4445H292.33V28.8031H285.979V31.5975C283.947 29.3112 281.407 28.041 277.85 28.041C274.548 28.041 271.754 29.3112 269.467 31.8515C267.181 34.3919 265.911 37.4403 265.911 40.9968C265.911 44.5533 267.181 47.6017 269.467 50.142C271.754 52.6824 274.548 53.9526 277.85 53.9526ZM279.121 48.1098C277.088 48.1098 275.564 47.3477 274.294 46.0775C273.024 44.8073 272.262 43.0291 272.262 40.9968C272.262 38.9645 273.024 37.1863 274.294 35.9161C275.564 34.6459 277.088 33.8838 279.121 33.8838C281.153 33.8838 282.677 34.6459 283.947 35.9161C285.217 37.1863 285.979 38.9645 285.979 40.9968C285.979 43.0291 285.217 44.8073 283.947 46.0775C282.677 47.3477 280.899 48.1098 279.121 48.1098ZM304.27 53.4445V17.3716H297.919V53.4445H304.27Z"
    fill="#3C4555" />
</svg>