<svg width="77" height="55" viewBox="0 0 77 55" fill="none" xmlns="http://www.w3.org/2000/svg">
  <path
    d="M61.5507 35.5312L61.3103 35.6L61.5506 35.5312C61.2858 34.6059 60.3144 34.0714 59.3821 34.3315C58.4497 34.5915 57.9025 35.5507 58.1676 36.4776L58.1676 36.4776C58.8855 38.9864 61.0388 42.5456 62.7998 45.0292C63.1425 45.5127 63.6884 45.7699 64.2406 45.7699C64.5879 45.7699 64.9394 45.6682 65.2458 45.4566C66.0419 44.9068 66.2373 43.8218 65.6788 43.034C63.6811 40.2164 62.0279 37.1991 61.5507 35.5312ZM14.2009 45.0291L13.997 44.8845L14.201 45.0291C15.962 42.5446 18.1152 38.9851 18.8326 36.4775C19.0979 35.5508 18.5505 34.5914 17.6179 34.3315C16.6859 34.071 15.714 34.6062 15.4494 35.5314C14.9727 37.1981 13.3197 40.2156 11.3216 43.0342C10.7631 43.822 10.9587 44.9072 11.7549 45.4568C12.0614 45.6684 12.4125 45.7699 12.76 45.7699C13.3122 45.7699 13.8583 45.5125 14.2009 45.0291ZM20.493 2.53736C16.7502 2.76063 13.1461 3.62136 10.2331 6.15036C7.25053 8.73972 5.03161 13.0434 4.0908 20.083L0.835428 44.4411C0.484591 47.0655 1.22428 49.6405 2.87697 51.5007L3.06386 51.3346L2.87698 51.5007C4.45372 53.2752 6.67941 54.25 9.13663 54.25C13.1437 54.25 15.8914 53.2667 18.1398 51.4643C20.3744 49.673 22.0984 47.0845 24.0834 43.9245C24.9718 42.5104 25.637 41.452 26.2651 40.6503C26.8895 39.8532 27.466 39.3251 28.1686 38.965C28.8741 38.6035 29.7267 38.4011 30.9207 38.2891C32.1162 38.177 33.6338 38.157 35.6631 38.1488C35.6634 38.1488 35.6637 38.1488 35.6641 38.1488L41.4451 38.1489C41.4454 38.1489 41.4457 38.1489 41.446 38.1489C43.4487 38.1581 44.9462 38.1789 46.1265 38.2915C47.3052 38.4039 48.1477 38.6063 48.8462 38.9676C49.5422 39.3275 50.1153 39.8553 50.738 40.6522C51.3641 41.4535 52.029 42.5112 52.9167 43.9244C54.9016 47.0843 56.6256 49.6728 58.8602 51.4641C61.1086 53.2665 63.8564 54.2498 67.8634 54.2498C70.3207 54.2498 72.5464 53.2752 74.1229 51.5005C75.7756 49.6405 76.5153 47.0657 76.1646 44.441L72.9093 20.0829C71.9686 13.0433 69.7498 8.73968 66.7673 6.15034C63.8542 3.62136 60.2501 2.76063 56.5072 2.53736C56.5077 2.52101 56.5079 2.50459 56.5079 2.48811C56.5079 1.52499 55.7178 0.75 54.7499 0.75H50.3592C49.3969 0.75 48.6103 1.51614 48.6013 2.47158H28.3991C28.3901 1.51614 27.6035 0.75 26.6412 0.75H22.2503C21.2825 0.75 20.4923 1.52499 20.4923 2.48811C20.4923 2.50458 20.4926 2.521 20.493 2.53736ZM41.4613 34.6729H41.4602L35.6507 34.6725L35.6496 34.6726C31.0423 34.6912 28.4048 34.9018 26.4164 35.9505C24.4219 37.0024 23.1128 38.8808 21.0966 42.0902L21.3083 42.2232L21.0966 42.0903C19.1748 45.1498 17.7468 47.3116 16.0179 48.718C14.3071 50.1097 12.2836 50.7738 9.13663 50.7738C7.6957 50.7738 6.41409 50.2144 5.51858 49.2064L5.33168 49.3725L5.51857 49.2064C4.52954 48.0932 4.09784 46.567 4.32116 44.8964L7.57671 20.5385C8.3955 14.4119 10.2514 10.4275 13.1962 8.27124C15.9792 6.23354 19.6184 5.94814 22.8726 5.94814H54.1275C57.3818 5.94814 61.0211 6.23354 63.8041 8.27124L63.9518 8.06953L63.8041 8.27125C66.7492 10.4275 68.6051 14.4119 69.4237 20.5385L72.6791 44.8966C72.9024 46.5672 72.4706 48.0932 71.4815 49.2066C70.586 50.2144 69.3042 50.7738 67.8634 50.7738C64.7164 50.7738 62.6928 50.1096 60.982 48.718C59.2531 47.3115 57.8251 45.1498 55.9033 42.0903C53.8886 38.8832 52.5819 37.0063 50.6026 35.9544C48.6287 34.9054 46.018 34.6937 41.4613 34.6729ZM24.9859 22.1461C25.9538 22.1461 26.7439 21.3711 26.7439 20.408C26.7439 19.445 25.9538 18.6699 24.9859 18.6699H21.6248V15.3563C21.6248 14.3932 20.8347 13.6182 19.8669 13.6182C18.899 13.6182 18.1089 14.3932 18.1089 15.3563V18.6699H14.7478C13.78 18.6699 12.9898 19.4449 12.9898 20.408C12.9898 21.3711 13.78 22.1461 14.7478 22.1461H18.1089V25.4596C18.1089 26.4228 18.899 27.1977 19.8669 27.1977C20.8347 27.1977 21.6248 26.4228 21.6248 25.4596V22.1461H24.9859ZM35.6476 18.6702H35.0595C34.0917 18.6702 33.3015 19.4452 33.3015 20.4083C33.3015 21.3714 34.0917 22.1464 35.0595 22.1464H35.6476C36.6155 22.1464 37.4056 21.3714 37.4056 20.4083C37.4056 19.4452 36.6155 18.6702 35.6476 18.6702ZM41.9411 18.6702H41.3526C40.3848 18.6702 39.5946 19.4452 39.5946 20.4083C39.5946 21.3714 40.3848 22.1464 41.3526 22.1464H41.9411C42.9089 22.1464 43.699 21.3714 43.699 20.4083C43.699 19.4452 42.9089 18.6702 41.9411 18.6702ZM50.4336 20.4081C50.4336 24.1071 53.4817 27.1104 57.222 27.1104C60.9622 27.1104 64.0102 24.1071 64.0102 20.4081C64.0102 16.7094 60.9622 13.706 57.222 13.706C53.4819 13.706 50.4336 16.7092 50.4336 20.4081ZM57.222 17.1821C59.0292 17.1821 60.4943 18.6325 60.4943 20.408C60.4943 22.1837 59.0292 23.6342 57.222 23.6341C55.4147 23.6341 53.9496 22.1836 53.9496 20.408C53.9496 18.6326 55.4145 17.1821 57.222 17.1821Z"
    fill="#24272C" stroke="#24272C" stroke-width="0.5" />
</svg>