<svg width="129" height="34" viewBox="0 0 129 34" fill="none" xmlns="http://www.w3.org/2000/svg">
  <path
    d="M23.5317 6.06934H9.04057C7.26307 6.06934 5.81592 7.51529 5.81592 9.29284V9.55922H17.7153C20.7759 9.55922 23.2653 12.0499 23.2653 15.1093V22.3554H23.5317C25.3092 22.3554 26.7552 20.9095 26.7552 19.1319V9.29284C26.7552 7.51529 25.3093 6.06934 23.5317 6.06934Z"
    fill="#12B0EE" />
  <path
    d="M17.7158 11.8857H3.22351C1.44601 11.8857 0 13.3317 0 15.1092V24.9484C0 26.7259 1.44596 28.1719 3.22351 28.1719H3.48988V32.825C3.48988 33.295 3.77257 33.7196 4.20766 33.8999C4.35189 33.9593 4.50315 33.9883 4.65322 33.9883C4.95569 33.9883 5.25348 33.8697 5.47568 33.6475L10.9513 28.1718H17.7159C19.4933 28.1718 20.9394 26.7259 20.9394 24.9483V15.1092C20.9393 13.3317 19.4933 11.8857 17.7158 11.8857ZM5.81649 21.1921C5.17435 21.1921 4.65322 20.6709 4.65322 20.0288C4.65322 19.3866 5.17435 18.8655 5.81649 18.8655C6.45863 18.8655 6.97977 19.3866 6.97977 20.0288C6.97977 20.6709 6.45863 21.1921 5.81649 21.1921ZM10.4697 21.1921C9.82751 21.1921 9.30638 20.6709 9.30638 20.0288C9.30638 19.3866 9.82751 18.8655 10.4697 18.8655C11.1118 18.8655 11.6329 19.3866 11.6329 20.0288C11.6329 20.6709 11.1118 21.1921 10.4697 21.1921ZM15.1228 21.1921C14.4807 21.1921 13.9595 20.6709 13.9595 20.0288C13.9595 19.3866 14.4807 18.8655 15.1228 18.8655C15.765 18.8655 16.2861 19.3866 16.2861 20.0288C16.2861 20.6709 15.765 21.1921 15.1228 21.1921Z"
    fill="#12B0EE" />
  <path
    d="M47.8728 22.8008V26H37.2771V22.8008H47.8728ZM38.6169 6.09375V26H34.5154V6.09375H38.6169ZM46.4919 14.2012V17.3184H37.2771V14.2012H46.4919ZM47.8591 6.09375V9.30664H37.2771V6.09375H47.8591ZM53.8747 14.3652V26H49.9372V11.207H53.6286L53.8747 14.3652ZM53.3005 18.084H52.2341C52.2341 16.9902 52.3754 16.0059 52.6579 15.1309C52.9405 14.2467 53.337 13.4948 53.8474 12.875C54.3578 12.2461 54.9639 11.7676 55.6658 11.4395C56.3767 11.1022 57.1697 10.9336 58.0447 10.9336C58.7374 10.9336 59.3708 11.0339 59.9451 11.2344C60.5193 11.4349 61.0115 11.7539 61.4216 12.1914C61.8409 12.6289 62.1599 13.2077 62.3786 13.9277C62.6065 14.6478 62.7204 15.5273 62.7204 16.5664V26H58.7556V16.5527C58.7556 15.8965 58.6645 15.3861 58.4822 15.0215C58.2999 14.6569 58.031 14.4017 57.6755 14.2559C57.3292 14.1009 56.9008 14.0234 56.3904 14.0234C55.8617 14.0234 55.4014 14.1283 55.0095 14.3379C54.6267 14.5475 54.3077 14.8392 54.0525 15.2129C53.8064 15.5775 53.6195 16.0059 53.4919 16.498C53.3643 16.9902 53.3005 17.5189 53.3005 18.084ZM75.0798 11.207H78.6482V25.5078C78.6482 26.8568 78.3474 28.0007 77.7458 28.9395C77.1534 29.8874 76.324 30.6029 75.2576 31.0859C74.1911 31.5781 72.9516 31.8242 71.5388 31.8242C70.919 31.8242 70.2628 31.7422 69.5701 31.5781C68.8865 31.4141 68.2302 31.1589 67.6013 30.8125C66.9815 30.4661 66.462 30.0286 66.0427 29.5L67.779 27.1758C68.2348 27.7044 68.7634 28.1146 69.365 28.4062C69.9665 28.707 70.6319 28.8574 71.3611 28.8574C72.072 28.8574 72.6736 28.7253 73.1658 28.4609C73.6579 28.2057 74.0362 27.8275 74.3005 27.3262C74.5648 26.834 74.697 26.237 74.697 25.5352V14.625L75.0798 11.207ZM65.1267 18.7812V18.4941C65.1267 17.3639 65.2634 16.3385 65.5368 15.418C65.8194 14.4883 66.2159 13.6908 66.7263 13.0254C67.2458 12.36 67.8747 11.8451 68.613 11.4805C69.3513 11.1159 70.1853 10.9336 71.115 10.9336C72.0993 10.9336 72.9242 11.1159 73.5896 11.4805C74.2549 11.8451 74.8018 12.3646 75.2302 13.0391C75.6586 13.7044 75.9913 14.4928 76.2283 15.4043C76.4743 16.3066 76.6658 17.2956 76.8025 18.3711V19C76.6658 20.0299 76.4607 20.987 76.1872 21.8711C75.9138 22.7552 75.5538 23.5299 75.1072 24.1953C74.6605 24.8516 74.1046 25.362 73.4392 25.7266C72.7829 26.0911 71.9991 26.2734 71.0876 26.2734C70.1762 26.2734 69.3513 26.0866 68.613 25.7129C67.8839 25.3392 67.2595 24.8151 66.74 24.1406C66.2204 23.4661 65.8194 22.6732 65.5368 21.7617C65.2634 20.8503 65.1267 19.8568 65.1267 18.7812ZM69.0642 18.4941V18.7812C69.0642 19.3919 69.1234 19.9616 69.2419 20.4902C69.3604 21.0189 69.5427 21.4883 69.7888 21.8984C70.044 22.2995 70.3585 22.6139 70.7322 22.8418C71.115 23.0605 71.5661 23.1699 72.0857 23.1699C72.8057 23.1699 73.3936 23.0195 73.8493 22.7188C74.3051 22.4089 74.6469 21.985 74.8747 21.4473C75.1026 20.9095 75.2348 20.2897 75.2712 19.5879V17.7969C75.253 17.2227 75.1755 16.7077 75.0388 16.252C74.9021 15.7871 74.7107 15.3906 74.4646 15.0625C74.2185 14.7344 73.8995 14.4792 73.5076 14.2969C73.1156 14.1146 72.6508 14.0234 72.113 14.0234C71.5935 14.0234 71.1423 14.1419 70.7595 14.3789C70.3858 14.6068 70.0714 14.9212 69.8161 15.3223C69.5701 15.7233 69.3832 16.1973 69.2556 16.7441C69.128 17.2819 69.0642 17.8652 69.0642 18.4941ZM89.6951 22.6641V16.0742C89.6951 15.6003 89.6176 15.1947 89.4626 14.8574C89.3077 14.5111 89.0661 14.2422 88.738 14.0508C88.419 13.8594 88.0043 13.7637 87.4939 13.7637C87.0564 13.7637 86.6781 13.8411 86.3591 13.9961C86.0401 14.1419 85.794 14.3561 85.6208 14.6387C85.4477 14.9121 85.3611 15.2357 85.3611 15.6094H81.4236C81.4236 14.9805 81.5694 14.3835 81.8611 13.8184C82.1527 13.2533 82.5766 12.7565 83.1326 12.3281C83.6885 11.8906 84.3493 11.5488 85.115 11.3027C85.8897 11.0566 86.7556 10.9336 87.7126 10.9336C88.8611 10.9336 89.8819 11.125 90.7751 11.5078C91.6684 11.8906 92.3702 12.4648 92.8806 13.2305C93.4001 13.9961 93.6599 14.9531 93.6599 16.1016V22.4316C93.6599 23.2428 93.71 23.9082 93.8103 24.4277C93.9105 24.9382 94.0564 25.3848 94.2478 25.7676V26H90.2693C90.0779 25.599 89.932 25.0977 89.8318 24.4961C89.7406 23.8854 89.6951 23.2747 89.6951 22.6641ZM90.2146 16.9902L90.2419 19.2188H88.0408C87.5212 19.2188 87.0701 19.278 86.6872 19.3965C86.3044 19.515 85.99 19.6836 85.7439 19.9023C85.4978 20.112 85.3155 20.3581 85.197 20.6406C85.0876 20.9232 85.0329 21.2331 85.0329 21.5703C85.0329 21.9076 85.1104 22.2129 85.2654 22.4863C85.4203 22.7507 85.6436 22.9603 85.9353 23.1152C86.227 23.2611 86.5688 23.334 86.9607 23.334C87.5531 23.334 88.0681 23.2155 88.5056 22.9785C88.9431 22.7415 89.2803 22.4499 89.5173 22.1035C89.7634 21.7572 89.891 21.429 89.9001 21.1191L90.9392 22.7871C90.7934 23.1608 90.5928 23.5482 90.3376 23.9492C90.0915 24.3503 89.7771 24.7285 89.3943 25.084C89.0115 25.4303 88.5512 25.7174 88.0134 25.9453C87.4757 26.1641 86.8376 26.2734 86.0993 26.2734C85.1605 26.2734 84.3083 26.0866 83.5427 25.7129C82.7862 25.3301 82.1846 24.806 81.738 24.1406C81.3005 23.4661 81.0818 22.7005 81.0818 21.8438C81.0818 21.069 81.2276 20.3809 81.5193 19.7793C81.8109 19.1777 82.2393 18.6719 82.8044 18.2617C83.3786 17.8424 84.0941 17.528 84.9509 17.3184C85.8077 17.0996 86.8012 16.9902 87.9314 16.9902H90.2146ZM106.06 11.207H109.629V25.5078C109.629 26.8568 109.328 28.0007 108.726 28.9395C108.134 29.8874 107.304 30.6029 106.238 31.0859C105.172 31.5781 103.932 31.8242 102.519 31.8242C101.899 31.8242 101.243 31.7422 100.551 31.5781C99.8669 31.4141 99.2107 31.1589 98.5818 30.8125C97.962 30.4661 97.4424 30.0286 97.0232 29.5L98.7595 27.1758C99.2152 27.7044 99.7439 28.1146 100.345 28.4062C100.947 28.707 101.612 28.8574 102.342 28.8574C103.052 28.8574 103.654 28.7253 104.146 28.4609C104.638 28.2057 105.017 27.8275 105.281 27.3262C105.545 26.834 105.677 26.237 105.677 25.5352V14.625L106.06 11.207ZM96.1072 18.7812V18.4941C96.1072 17.3639 96.2439 16.3385 96.5173 15.418C96.7999 14.4883 97.1964 13.6908 97.7068 13.0254C98.2263 12.36 98.8552 11.8451 99.5935 11.4805C100.332 11.1159 101.166 10.9336 102.095 10.9336C103.08 10.9336 103.905 11.1159 104.57 11.4805C105.235 11.8451 105.782 12.3646 106.211 13.0391C106.639 13.7044 106.972 14.4928 107.209 15.4043C107.455 16.3066 107.646 17.2956 107.783 18.3711V19C107.646 20.0299 107.441 20.987 107.168 21.8711C106.894 22.7552 106.534 23.5299 106.088 24.1953C105.641 24.8516 105.085 25.362 104.42 25.7266C103.763 26.0911 102.98 26.2734 102.068 26.2734C101.157 26.2734 100.332 26.0866 99.5935 25.7129C98.8643 25.3392 98.24 24.8151 97.7204 24.1406C97.2009 23.4661 96.7999 22.6732 96.5173 21.7617C96.2439 20.8503 96.1072 19.8568 96.1072 18.7812ZM100.045 18.4941V18.7812C100.045 19.3919 100.104 19.9616 100.222 20.4902C100.341 21.0189 100.523 21.4883 100.769 21.8984C101.024 22.2995 101.339 22.6139 101.713 22.8418C102.095 23.0605 102.547 23.1699 103.066 23.1699C103.786 23.1699 104.374 23.0195 104.83 22.7188C105.286 22.4089 105.627 21.985 105.855 21.4473C106.083 20.9095 106.215 20.2897 106.252 19.5879V17.7969C106.233 17.2227 106.156 16.7077 106.019 16.252C105.883 15.7871 105.691 15.3906 105.445 15.0625C105.199 14.7344 104.88 14.4792 104.488 14.2969C104.096 14.1146 103.631 14.0234 103.093 14.0234C102.574 14.0234 102.123 14.1419 101.74 14.3789C101.366 14.6068 101.052 14.9212 100.797 15.3223C100.551 15.7233 100.364 16.1973 100.236 16.7441C100.108 17.2819 100.045 17.8652 100.045 18.4941ZM119.5 26.2734C118.351 26.2734 117.321 26.0911 116.41 25.7266C115.498 25.3529 114.724 24.8379 114.086 24.1816C113.457 23.5254 112.974 22.7643 112.636 21.8984C112.299 21.0234 112.131 20.0938 112.131 19.1094V18.5625C112.131 17.4414 112.29 16.416 112.609 15.4863C112.928 14.5566 113.384 13.75 113.976 13.0664C114.578 12.3828 115.307 11.8587 116.164 11.4941C117.021 11.1204 117.987 10.9336 119.062 10.9336C120.11 10.9336 121.04 11.1068 121.851 11.4531C122.663 11.7995 123.342 12.2917 123.888 12.9297C124.444 13.5677 124.864 14.3333 125.146 15.2266C125.429 16.1107 125.57 17.0951 125.57 18.1797V19.8203H113.812V17.1953H121.701V16.8945C121.701 16.3477 121.601 15.86 121.4 15.4316C121.209 14.9941 120.917 14.6478 120.525 14.3926C120.133 14.1374 119.632 14.0098 119.021 14.0098C118.502 14.0098 118.055 14.1237 117.681 14.3516C117.308 14.5794 117.002 14.8984 116.765 15.3086C116.538 15.7188 116.364 16.2018 116.246 16.7578C116.136 17.3047 116.082 17.9062 116.082 18.5625V19.1094C116.082 19.7018 116.164 20.2487 116.328 20.75C116.501 21.2513 116.743 21.6842 117.052 22.0488C117.371 22.4134 117.754 22.696 118.201 22.8965C118.657 23.097 119.172 23.1973 119.746 23.1973C120.457 23.1973 121.118 23.0605 121.728 22.7871C122.348 22.5046 122.881 22.0807 123.328 21.5156L125.242 23.5938C124.932 24.0404 124.508 24.4688 123.97 24.8789C123.442 25.2891 122.804 25.6263 122.056 25.8906C121.309 26.1458 120.457 26.2734 119.5 26.2734Z"
    fill="#12B0EE" />
</svg>