<svg width="40" height="61" viewBox="0 0 40 61" fill="none" xmlns="http://www.w3.org/2000/svg">
  <path
    d="M7.95952 9.88915C11.772 5.03694 17.3663 4.74356 21.2255 4.58276C29.9087 5.93348 32.4011 11.4167 32.5619 13.9895V21.9491L26.5319 13.9895L25.3259 15.4367C24.2807 16.8035 21.3702 20.0195 18.0899 21.9491C14.8096 23.8787 9.00474 22.7531 6.51234 21.9491C6.75354 20.0195 5.3063 13.2659 7.95952 9.88915Z"
    fill="#7ED2FF" />
  <path d="M11.5775 46.5514L13.5071 38.3506L20.0195 40.039L26.2907 38.3506L26.7731 46.5514L18.8135 42.6922L11.5775 46.5514Z" fill="#7ED2FF" />
  <path
    d="M30.6742 36.4851C31.4617 35.7189 32.1336 34.8381 32.665 33.8702H33.243C36.0299 33.8702 38.2973 31.5985 38.2973 28.806V15.861C38.2973 13.8876 37.9397 11.9618 37.2344 10.1374C36.0939 7.18502 34.1163 4.66338 31.5158 2.84502C28.8534 0.983914 25.7241 0 22.466 0H16.607C13.3488 0 10.2194 0.984152 7.55676 2.84585C4.97113 4.654 3.00185 7.15676 1.85898 10.0867C1.85128 10.104 1.84393 10.1216 1.83694 10.1394C1.1328 11.9651 0.7757 13.89 0.7757 15.861V26.7293C0.7757 28.3009 2.05175 29.5795 3.62032 29.5795H4.30669C4.57386 29.5795 4.83144 29.5397 5.07694 29.4705C5.3049 32.1492 6.48912 34.6337 8.39655 36.4861C3.36891 38.6108 0 43.5779 0 49.1775V59.7222C0 60.3076 0.473689 60.7822 1.05792 60.7822H38.0164C38.6008 60.7822 39.0743 60.3076 39.0743 59.7222V49.1775C39.0744 43.5768 35.7036 38.609 30.6742 36.4851ZM33.5647 31.7317C33.7873 30.9961 33.9322 30.2411 33.9971 29.471C34.2421 29.5401 34.4992 29.5798 34.7661 29.5798H35.4524C35.6735 29.5798 35.8876 29.5519 36.0942 29.5039C35.8053 30.6894 34.8004 31.5961 33.5647 31.7317ZM36.1812 26.7293C36.1812 27.132 35.8543 27.4595 35.4524 27.4595H34.7661C34.3642 27.4595 34.0373 27.1318 34.0373 26.7293V20.4544C34.0373 20.0518 34.3642 19.7242 34.7661 19.7242H35.4524C35.8543 19.7242 36.1812 20.0518 36.1812 20.4544V26.7293ZM5.0357 26.7293C5.0357 27.132 4.7087 27.4595 4.30681 27.4595H3.62044C3.21855 27.4595 2.89166 27.1318 2.89166 26.7293V20.4544C2.89166 20.0518 3.21855 19.7242 3.62044 19.7242H4.30681C4.7087 19.7242 5.0357 20.0518 5.0357 20.4544V26.7293ZM5.0357 16.3176V17.7026C4.80265 17.6405 4.55917 17.6042 4.30681 17.6042H3.62044C3.3682 17.6042 3.12472 17.6405 2.89166 17.7026V15.8611C2.89166 14.1701 3.1945 12.5191 3.79189 10.9527C3.79899 10.9367 3.80575 10.9205 3.81203 10.904C4.79933 8.34641 6.51293 6.16122 8.76752 4.58467C11.0733 2.97228 13.784 2.12014 16.6067 2.12014H22.4658C25.2886 2.12014 27.9992 2.97216 30.3045 4.58384C32.5589 6.16003 34.2727 8.34511 35.2608 10.903C35.8715 12.4825 36.181 14.1505 36.181 15.8611V17.7026C35.9479 17.6405 35.7044 17.6042 35.4522 17.6042H34.7658C34.5136 17.6042 34.2701 17.6405 34.037 17.7026V16.3176C34.037 9.52561 28.5222 3.99988 21.7436 3.99988H17.3289C10.5505 3.99976 5.0357 9.5255 5.0357 16.3176ZM7.15167 16.3177C7.15167 10.6947 11.7174 6.12002 17.3292 6.12002H21.744C27.3559 6.12002 31.9215 10.6947 31.9215 16.3177V19.6237L27.1848 12.9802C26.9589 12.6635 26.578 12.496 26.1923 12.5447C25.8067 12.5931 25.4785 12.8495 25.3379 13.2124C24.3919 15.6511 22.7527 17.7209 20.5977 19.1984C18.4426 20.6756 15.9235 21.4565 13.3122 21.4565H7.15191V16.3177H7.15167ZM7.15167 28.5196V23.5763H13.312C16.3513 23.5763 19.2837 22.6674 21.7923 20.9481C23.7789 19.5864 25.3888 17.7919 26.5197 15.6945L31.9215 23.2709V28.5197C31.9215 29.6367 31.7173 30.7201 31.3195 31.7503H23.6454C23.0609 31.7503 22.5875 32.225 22.5875 32.8104C22.5875 33.3957 23.061 33.8704 23.6454 33.8704H30.157C29.5465 34.6952 28.7973 35.4132 27.9386 35.9883C27.2908 36.4217 26.5868 36.7699 25.8451 37.023C25.8362 37.0258 25.8272 37.0287 25.8184 37.0316L20.9047 38.6891C20.0261 38.9857 19.0498 38.9857 18.1688 38.6891L13.2555 37.0316C12.5028 36.7777 11.7894 36.4265 11.1349 35.9881C8.64063 34.319 7.15167 31.527 7.15167 28.5196ZM26.2906 45.0204L20.5952 41.9487V40.9447C20.9289 40.8889 21.2579 40.8069 21.5796 40.6983L25.3251 39.4348L26.2906 45.0204ZM18.4791 40.945V41.9488L12.7827 45.0205L13.7491 39.4355L17.4939 40.6988C17.8162 40.8073 18.1453 40.8892 18.4791 40.945ZM18.4791 58.6623H2.11584V49.1778C2.11596 44.0197 5.49233 39.4945 10.3806 38.018C10.8122 38.2796 11.2619 38.5112 11.7267 38.7119L10.3264 46.805C10.2573 47.2047 10.4218 47.609 10.7503 47.8461C10.934 47.9789 11.1509 48.0463 11.369 48.0463C11.5407 48.0463 11.713 48.0045 11.8701 47.9198L14.5926 46.452L18.4791 50.3451V58.6623ZM16.5383 45.4029L19.5373 43.786L22.5353 45.4027L19.5371 48.4068L16.5383 45.4029ZM20.5952 58.6622V50.3449L24.4807 46.4516L27.2029 47.9195C27.3599 48.0042 27.5323 48.0461 27.704 48.0461C27.9218 48.0461 28.1389 47.9786 28.3227 47.846C28.6511 47.6088 28.8157 47.2047 28.7466 46.805L27.3476 38.7113C27.8115 38.5108 28.2608 38.2791 28.6923 38.0178C33.5816 39.4942 36.9586 44.0194 36.9586 49.1775V58.6622H20.5952Z"
    fill="#0757A0" />
  <path
    d="M32.1308 50.548H26.7707C26.1862 50.548 25.7128 51.0226 25.7128 51.608C25.7128 52.1934 26.1863 52.668 26.7707 52.668H32.1308C32.7153 52.668 33.1887 52.1934 33.1887 51.608C33.1887 51.0226 32.7151 50.548 32.1308 50.548Z"
    fill="#0757A0" />
</svg>