<svg width="72" height="71" viewBox="0 0 72 71" fill="none" xmlns="http://www.w3.org/2000/svg">
  <path d="M49.5 37V32.5L67.5 41L67 45L49.5 37Z" fill="#7ED2FF" />
  <path d="M7 36V30.5H21.5V36H7Z" fill="#7ED2FF" />
  <path d="M26.5 9.5V5L45.5 4V10.5H49.5V69.5H45.5V14H21.5V10.5L26.5 9.5Z" fill="#7ED2FF" />
  <path
    d="M68.743 68.7429V40.0501L50.557 31.3208V9.09297H46.1924V3.27345H36.7357V0H34.5535V3.27345H25.0968V9.09297H20.7322V29.4613H16.3675V23.2781H14.1853V29.4613H6.18321V35.2808H2.54608V68.7429H0V70.9252H71.289V68.7429H68.743ZM20.732 43.2826H7.27441V45.4649H20.732V49.102H7.27441V51.2842H20.732V54.9214H7.27441V57.1036H20.732V60.7408H7.27441V62.923H20.732V68.7425H4.72833V37.4631H20.732V43.2826ZM20.732 35.2808H8.3656V31.6437H20.732V35.2808ZM27.2789 5.45584H44.01V9.09297H27.2789V5.45584ZM48.3748 68.7429H22.9143V11.2754H48.3746V68.7429H48.3748ZM66.5607 62.9234H62.1961V59.2863H66.5607V62.9234ZM66.5607 51.2845H62.1961V47.6472H66.5607V51.2845ZM66.5607 45.465H53.4668V53.4668H66.5607V57.1039H53.4668V65.1057H66.5607V68.7428H50.557V33.7414L66.5607 41.4232V45.465V45.465ZM60.0137 47.6472V51.2844H55.649V47.6472H60.0137ZM60.0137 59.2863V62.9234H55.649V59.2863H60.0137Z"
    fill="#0757A0" />
  <path d="M56.0128 40.3728H53.103V42.5551H56.0128V40.3728Z" fill="#0757A0" />
  <path d="M37.827 15.6399H33.4624V17.8221H37.827V15.6399Z" fill="#0757A0" />
  <path d="M37.827 21.4595H33.4624V23.6417H37.827V21.4595Z" fill="#0757A0" />
  <path d="M37.827 27.2791H33.4624V29.4613H37.827V27.2791Z" fill="#0757A0" />
  <path d="M37.827 33.0984H33.4624V35.2808H37.827V33.0984Z" fill="#0757A0" />
  <path d="M45.1012 33.0984H40.7366V35.2808H45.1012V33.0984Z" fill="#0757A0" />
  <path d="M30.5524 33.0984H26.1877V35.2808H30.5524V33.0984Z" fill="#0757A0" />
  <path d="M37.827 38.9182H33.4624V41.1005H37.827V38.9182Z" fill="#0757A0" />
  <path d="M45.1012 38.9182H40.7366V41.1005H45.1012V38.9182Z" fill="#0757A0" />
  <path d="M30.5524 38.9182H26.1877V41.1005H30.5524V38.9182Z" fill="#0757A0" />
  <path d="M37.827 44.7373H33.4624V46.9196H37.827V44.7373Z" fill="#0757A0" />
  <path d="M45.1012 44.7373H40.7366V46.9196H45.1012V44.7373Z" fill="#0757A0" />
  <path d="M30.5526 44.7373H26.188V46.9196H30.5526V44.7373Z" fill="#0757A0" />
  <path d="M37.827 50.5571H33.4624V52.7394H37.827V50.5571Z" fill="#0757A0" />
  <path d="M45.1012 50.5571H40.7366V52.7394H45.1012V50.5571Z" fill="#0757A0" />
  <path d="M30.5524 50.5571H26.1877V52.7394H30.5524V50.5571Z" fill="#0757A0" />
  <path d="M37.827 56.3767H33.4624V58.559H37.827V56.3767Z" fill="#0757A0" />
  <path d="M45.1012 56.3767H40.7366V58.559H45.1012V56.3767Z" fill="#0757A0" />
  <path d="M30.5524 56.3767H26.1877V58.559H30.5524V56.3767Z" fill="#0757A0" />
  <path d="M37.827 62.196H33.4624V64.3783H37.827V62.196Z" fill="#0757A0" />
  <path d="M45.1012 62.196H40.7366V64.3783H45.1012V62.196Z" fill="#0757A0" />
  <path d="M30.5524 62.196H26.1877V64.3783H30.5524V62.196Z" fill="#0757A0" />
  <path d="M45.1012 27.2791H40.7366V29.4613H45.1012V27.2791Z" fill="#0757A0" />
  <path d="M30.5524 27.2791H26.1877V29.4613H30.5524V27.2791Z" fill="#0757A0" />
  <path d="M45.1012 21.4595H40.7366V23.6417H45.1012V21.4595Z" fill="#0757A0" />
  <path d="M30.5526 21.4595H26.188V23.6417H30.5526V21.4595Z" fill="#0757A0" />
  <path d="M45.1012 15.6399H40.7366V17.8221H45.1012V15.6399Z" fill="#0757A0" />
  <path d="M30.5524 15.6399H26.1877V17.8221H30.5524V15.6399Z" fill="#0757A0" />
</svg>