<svg width="22" height="24" viewBox="0 0 22 24" fill="none" xmlns="http://www.w3.org/2000/svg">
  <path
    d="M20.5714 3.42857C20.5714 2.97391 20.3908 2.53788 20.0693 2.21639C19.7478 1.8949 19.3118 1.71429 18.8571 1.71429H15.4286V0H13.7143V1.71429H6.85714V0H5.14286V1.71429H1.71429C1.25963 1.71429 0.823593 1.8949 0.502103 2.21639C0.180612 2.53788 0 2.97391 0 3.42857V20.5714C0 21.0261 0.180612 21.4621 0.502103 21.7836C0.823593 22.1051 1.25963 22.2857 1.71429 22.2857H5.14286V20.5714H1.71429V3.42857H5.14286V5.14286H6.85714V3.42857H13.7143V5.14286H15.4286V3.42857H18.8571V8.57143H20.5714V3.42857Z"
    fill="#12B0EE" />
  <path d="M14.5714 11.1428L16.7563 15.3754L21.4286 16.0534L18 19.3483L18.8572 24L14.5714 21.804L10.2857 24L11.1429 19.3483L7.71429 16.0534L12.5143 15.3754L14.5714 11.1428Z" fill="#12B0EE" />
</svg>