<svg width="18" height="13" viewBox="0 0 18 13" fill="none" xmlns="http://www.w3.org/2000/svg">
<g opacity="0.7">
<path d="M9 0C4.05 0 0 2.826 0 6.3C0 9.774 4.05 12.6 9 12.6C13.95 12.6 18 9.774 18 6.3C18 2.826 13.95 0 9 0ZM9 11.7C4.536 11.7 0.9 9.279 0.9 6.3C0.9 3.321 4.536 0.9 9 0.9C13.464 0.9 17.1 3.321 17.1 6.3C17.1 9.279 13.464 11.7 9 11.7Z" fill="#24272C"/>
<path d="M9.00003 2.69995C8.28801 2.69995 7.59199 2.91109 6.99997 3.30666C6.40796 3.70223 5.94654 4.26448 5.67406 4.92229C5.40158 5.5801 5.33029 6.30394 5.4692 7.00228C5.60811 7.70061 5.95097 8.34207 6.45444 8.84554C6.95791 9.349 7.59937 9.69187 8.2977 9.83078C8.99603 9.96969 9.71987 9.89839 10.3777 9.62592C11.0355 9.35344 11.5977 8.89202 11.9933 8.3C12.3889 7.70799 12.6 7.01196 12.6 6.29995C12.6 5.34517 12.2207 4.4295 11.5456 3.75437C10.8705 3.07924 9.95481 2.69995 9.00003 2.69995ZM9.00003 8.99995C8.46602 8.99995 7.944 8.8416 7.49999 8.54492C7.05597 8.24824 6.70991 7.82656 6.50555 7.3332C6.30119 6.83984 6.24773 6.29696 6.35191 5.77321C6.45609 5.24946 6.71324 4.76836 7.09084 4.39076C7.46844 4.01316 7.94953 3.75601 8.47328 3.65183C8.99703 3.54765 9.53991 3.60112 10.0333 3.80548C10.5266 4.00983 10.9483 4.3559 11.245 4.79991C11.5417 5.24392 11.7 5.76594 11.7 6.29995C11.7 7.01604 11.4156 7.70279 10.9092 8.20914C10.4029 8.71549 9.71611 8.99995 9.00003 8.99995Z" fill="#24272C"/>
</g>
</svg>
