<svg width="18" height="17" viewBox="0 0 18 17" fill="none" xmlns="http://www.w3.org/2000/svg">
<g opacity="0.7">
<path d="M9 3C4.05 3 0 5.826 0 9.3C0 12.774 4.05 15.6 9 15.6C13.95 15.6 18 12.774 18 9.3C18 5.826 13.95 3 9 3ZM9 14.7C4.536 14.7 0.9 12.279 0.9 9.3C0.9 6.321 4.536 3.9 9 3.9C13.464 3.9 17.1 6.321 17.1 9.3C17.1 12.279 13.464 14.7 9 14.7Z" fill="#24272C"/>
<path d="M2.93335 15.0667L16 2" stroke="#24272C" stroke-width="3" stroke-linecap="round"/>
<path d="M2.93335 15.0667L16 2" stroke="white" stroke-width="3" stroke-linecap="round"/>
<path d="M2 16L15.0667 2.93332" stroke="#24272C" stroke-linecap="round"/>
<path d="M2 16L15.0667 2.93332" stroke="#24272C" stroke-linecap="round"/>
<path d="M9.00003 5.69995C8.28801 5.69995 7.59199 5.91109 6.99997 6.30666C6.40796 6.70223 5.94654 7.26448 5.67406 7.92229C5.40158 8.5801 5.33029 9.30394 5.4692 10.0023C5.60811 10.7006 5.95097 11.3421 6.45444 11.8455C6.95791 12.349 7.59937 12.6919 8.2977 12.8308C8.99603 12.9697 9.71987 12.8984 10.3777 12.6259C11.0355 12.3534 11.5977 11.892 11.9933 11.3C12.3889 10.708 12.6 10.012 12.6 9.29995C12.6 8.34517 12.2207 7.4295 11.5456 6.75437C10.8705 6.07924 9.95481 5.69995 9.00003 5.69995ZM9.00003 12C8.46602 12 7.944 11.8416 7.49999 11.5449C7.05597 11.2482 6.70991 10.8266 6.50555 10.3332C6.30119 9.83984 6.24773 9.29696 6.35191 8.77321C6.45609 8.24946 6.71324 7.76836 7.09084 7.39076C7.46844 7.01316 7.94953 6.75601 8.47328 6.65183C8.99703 6.54765 9.53991 6.60112 10.0333 6.80548C10.5266 7.00983 10.9483 7.3559 11.245 7.79991C11.5417 8.24392 11.7 8.76594 11.7 9.29995C11.7 10.016 11.4156 10.7028 10.9092 11.2091C10.4029 11.7155 9.71611 12 9.00003 12Z" fill="#24272C"/>
</g>
</svg>
