<svg width="5" height="9" viewBox="0 0 5 9" fill="none" xmlns="http://www.w3.org/2000/svg">
  <path
    d="M0.128851 4.65466H1.00455V8.25976C1.00455 8.33094 1.06222 8.38861 1.1334 8.38861H2.61818C2.68935 8.38861 2.74703 8.33094 2.74703 8.25976V4.67164H3.75372C3.81917 4.67164 3.87424 4.62252 3.88172 4.55751L4.03461 3.23029C4.03881 3.19377 4.02724 3.1572 4.00281 3.12981C3.97836 3.10239 3.94336 3.0867 3.90664 3.0867H2.74708V2.25473C2.74708 2.00393 2.88212 1.87676 3.14848 1.87676C3.18644 1.87676 3.90664 1.87676 3.90664 1.87676C3.97781 1.87676 4.03549 1.81906 4.03549 1.74791V0.529646C4.03549 0.458469 3.97781 0.400795 3.90664 0.400795H2.86178C2.85441 0.400434 2.83805 0.399841 2.81393 0.399841C2.63263 0.399841 2.00248 0.43543 1.5047 0.893367C0.953163 1.40083 1.02983 2.00844 1.04815 2.11379V3.08667H0.128851C0.0576738 3.08667 0 3.14434 0 3.21552V4.52578C0 4.59696 0.0576738 4.65466 0.128851 4.65466Z"
    fill="#0058DD" />
</svg>