<svg width="60" height="57" viewBox="0 0 60 57" fill="none" xmlns="http://www.w3.org/2000/svg">
  <path d="M26 10L30 5L39.5 19.5L54.5 21L57.5 23L45 35V37L47.5 54H45L35 48.5L26 10Z" fill="#FFAFDA" />
  <path
    d="M59.9093 21.6386C59.6918 20.972 59.1131 20.486 58.4165 20.3854L39.927 17.709L31.6588 1.02661C31.3471 0.398023 30.7042 0 30.0004 0C29.2964 0 28.6536 0.398023 28.3419 1.02661L20.0736 17.709L1.58369 20.3854C0.886818 20.4863 0.308067 20.9722 0.0905734 21.6386C-0.126921 22.3053 0.0543245 23.037 0.558605 23.5263L13.9379 36.5121L10.7798 54.8472C10.661 55.5381 10.946 56.2364 11.5154 56.6482C12.0848 57.0602 12.8399 57.1147 13.463 56.7884L30.0004 48.1321L46.5376 56.7884C46.8081 56.9301 47.1038 56.9998 47.398 56.9998C47.3997 56.9998 47.4014 56.9998 47.4032 56.9998C47.4032 56.9998 47.4032 56.9998 47.4034 56.9998C48.4248 56.9998 49.2528 56.1753 49.2528 55.1583C49.2528 55.0038 49.2336 54.8538 49.1979 54.7104L46.0629 36.5116L59.4415 23.5261C59.9456 23.0372 60.1271 22.3053 59.9093 21.6386ZM42.7847 34.5504C42.3488 34.9735 42.1498 35.5832 42.2528 36.1806L44.9422 51.7924L30.8613 44.4217C30.3225 44.1396 29.6789 44.1396 29.1403 44.4217L15.0592 51.7924L17.7485 36.1806C17.8516 35.5832 17.6526 34.9737 17.2166 34.5504L5.82433 23.4934L21.5685 21.2146C22.1709 21.1274 22.6917 20.7507 22.961 20.2071L30.0012 6.00276L37.0414 20.2071C37.3107 20.7505 37.8315 21.1274 38.4336 21.2146L54.177 23.4934L42.7847 34.5504Z"
    fill="#D0408E" />
</svg>