<svg width="88" height="78" viewBox="0 0 88 78" fill="none" xmlns="http://www.w3.org/2000/svg">
  <ellipse cx="57.5" cy="30" rx="30.5" ry="30" fill="#7ED2FF" />
  <mask id="path-2-outside-1_415_2" maskUnits="userSpaceOnUse" x="0" y="13" width="82" height="65" fill="black">
    <rect fill="white" y="13" width="82" height="65" />
    <path d="M59.5514 18.0115V14H79.4451V34.0574H75.4666V20.8477L64.7952 31.536H59.1485L72.6531 18.0115H59.5514Z" />
    <path d="M21.1571 69.5807L13.8266 76.9233H19.4789L26.8084 69.5807H21.1571Z" />
    <path
      d="M38.9692 39.3697V42.8828H23.4176V39.885L30.7718 31.9999C31.5109 31.1776 32.0938 30.4541 32.5206 29.8296C32.9474 29.1946 33.2545 28.6273 33.4418 28.1276C33.6396 27.6176 33.7385 27.1335 33.7385 26.6755C33.7385 25.9885 33.624 25.4004 33.395 24.9112C33.166 24.4115 32.8277 24.0264 32.3801 23.7557C31.9429 23.4851 31.4016 23.3498 30.7562 23.3498C30.0692 23.3498 29.4759 23.5163 28.9762 23.8494C28.487 24.1825 28.1123 24.6457 27.852 25.239C27.6022 25.8324 27.4773 26.5038 27.4773 27.2532H22.9648C22.9648 25.9 23.2875 24.6613 23.9329 23.5371C24.5783 22.4025 25.4891 21.5021 26.6654 20.8359C27.8416 20.1593 29.2365 19.821 30.8499 19.821C32.4425 19.821 33.7853 20.0812 34.8783 20.6017C35.9817 21.1117 36.8144 21.8508 37.3765 22.8189C37.9491 23.7765 38.2353 24.9216 38.2353 26.254C38.2353 27.0034 38.1156 27.7373 37.8762 28.4555C37.6368 29.1634 37.2933 29.8712 36.8457 30.579C36.4085 31.2765 35.8776 31.9843 35.253 32.7025C34.6285 33.4208 33.9363 34.165 33.1764 34.9353L29.226 39.3697H38.9692Z" />
    <path
      d="M57.3312 39.3697V42.8828H41.7797V39.885L49.1339 31.9999C49.8729 31.1776 50.4559 30.4541 50.8826 29.8296C51.3094 29.1946 51.6165 28.6273 51.8039 28.1276C52.0016 27.6176 52.1005 27.1335 52.1005 26.6755C52.1005 25.9885 51.986 25.4004 51.757 24.9112C51.528 24.4115 51.1897 24.0264 50.7421 23.7557C50.3049 23.4851 49.7636 23.3498 49.1183 23.3498C48.4312 23.3498 47.8379 23.5163 47.3383 23.8494C46.849 24.1825 46.4743 24.6457 46.2141 25.239C45.9642 25.8324 45.8393 26.5038 45.8393 27.2532H41.3269C41.3269 25.9 41.6496 24.6613 42.295 23.5371C42.9403 22.4025 43.8511 21.5021 45.0274 20.8359C46.2037 20.1593 47.5985 19.821 49.2119 19.821C50.8046 19.821 52.1474 20.0812 53.2404 20.6017C54.3437 21.1117 55.1765 21.8508 55.7386 22.8189C56.3111 23.7765 56.5974 24.9216 56.5974 26.254C56.5974 27.0034 56.4777 27.7373 56.2382 28.4555C55.9988 29.1634 55.6553 29.8712 55.2077 30.579C54.7705 31.2765 54.2396 31.9843 53.6151 32.7025C52.9905 33.4208 52.2983 34.165 51.5384 34.9353L47.5881 39.3697H57.3312Z" />
    <path fill-rule="evenodd" clip-rule="evenodd"
      d="M64.8743 58.0455L65.2853 55.386C65.3981 54.4512 65.386 53.5325 65.249 52.6299C65.1201 51.7193 64.8461 50.9013 64.427 50.176C64.016 49.4507 63.4479 48.8665 62.7226 48.4232C62.0053 47.98 61.1148 47.7503 60.0511 47.7342C58.9228 47.702 57.9235 47.8954 57.0532 48.3144C56.1909 48.7254 55.4535 49.3016 54.841 50.043C54.2286 50.7764 53.737 51.6105 53.3663 52.5453C53.0036 53.4801 52.7498 54.4472 52.6047 55.4465L52.2058 58.118C52.093 59.0689 52.101 59.9997 52.23 60.9104C52.3589 61.813 52.6289 62.6309 53.0399 63.3643C53.4509 64.0896 54.019 64.6738 54.7443 65.1171C55.4696 65.5603 56.3722 65.794 57.4521 65.8182C58.5803 65.8504 59.5756 65.657 60.4379 65.238C61.3083 64.8108 62.0456 64.2306 62.65 63.4973C63.2545 62.7639 63.738 61.9298 64.1006 60.995C64.4713 60.0521 64.7292 59.0689 64.8743 58.0455ZM61.1995 55.4102L60.7885 58.118C60.732 58.5612 60.6474 59.0448 60.5346 59.5686C60.4298 60.0843 60.2646 60.5719 60.039 61.0313C59.8214 61.4906 59.5232 61.8613 59.1445 62.1434C58.7737 62.4254 58.2942 62.5503 57.706 62.5181C57.1821 62.4939 56.7993 62.3207 56.5576 61.9983C56.3239 61.676 56.1869 61.2771 56.1466 60.8016C56.1063 60.3261 56.1103 59.8506 56.1587 59.3752L56.3037 58.1301L56.7026 55.4344C56.7671 54.975 56.8517 54.4875 56.9565 53.9717C57.0612 53.4479 57.2184 52.9603 57.4279 52.509C57.6455 52.0497 57.9397 51.683 58.3104 51.409C58.6811 51.127 59.1727 51.0061 59.7851 51.0464C60.3009 51.0705 60.6756 51.2438 60.9093 51.5662C61.143 51.8885 61.2841 52.2834 61.3324 52.7508C61.3808 53.2182 61.3808 53.6937 61.3324 54.1772C61.2841 54.6527 61.2397 55.0637 61.1995 55.4102Z" />
    <path fill-rule="evenodd" clip-rule="evenodd"
      d="M11.4374 56.7242C11.6619 56.6538 11.8777 56.5704 12.0849 56.474C12.786 56.1516 13.3461 55.6842 13.7652 55.0718C14.1842 54.4512 14.422 53.6776 14.4784 52.7508C14.5267 51.9369 14.422 51.2357 14.1641 50.6475C13.9062 50.0511 13.5315 49.5595 13.0399 49.1727C12.5564 48.7859 11.9882 48.4958 11.3354 48.3023C10.6827 48.1009 9.98559 47.9961 9.24418 47.988L4.03415 47.976L1 65.5764H7.12874C8.27309 65.5926 9.30059 65.4072 10.2112 65.0204C11.1219 64.6336 11.8512 64.0453 12.3992 63.2555C12.9553 62.4657 13.2696 61.4705 13.3421 60.2697C13.4066 59.5041 13.3058 58.8352 13.0399 58.2631C12.782 57.6909 12.3871 57.2476 11.8552 56.9333C11.7238 56.8545 11.5846 56.7848 11.4374 56.7242ZM8.20326 55.3221C8.53429 55.29 8.83291 55.2106 9.09912 55.0838C9.44565 54.9227 9.72368 54.689 9.93321 54.3827C10.1508 54.0765 10.2959 53.7018 10.3684 53.2585C10.4248 52.8878 10.4329 52.5574 10.3926 52.2673C10.3523 51.9691 10.2314 51.7314 10.0299 51.5541C9.83651 51.3687 9.53027 51.272 9.11121 51.264L7.51556 51.2519L6.80545 55.317L8.20326 55.3221ZM6.31973 58.0976L5.58167 62.3227L7.2738 62.3368C7.69286 62.3207 8.04745 62.2199 8.33756 62.0346C8.62768 61.8412 8.85736 61.5873 9.02659 61.273C9.20389 60.9507 9.32477 60.5961 9.38924 60.2093C9.44565 59.9272 9.47789 59.629 9.48595 59.3147C9.50207 59.0004 9.44162 58.7305 9.30462 58.5048C9.17568 58.2711 8.92586 58.1381 8.55515 58.1059L6.31973 58.0976Z" />
    <path d="M18.8543 65.5764L21.9006 47.976H17.8752L14.8169 65.5764H18.8543Z" />
    <path d="M31.7404 62.3126L31.1723 65.5764H21.3808L24.4149 47.976H28.4524L25.9612 62.3126H31.7404Z" />
    <path d="M42.6803 65.5764L43.2484 62.3126H37.4692L39.9604 47.976H35.9229L32.8888 65.5764H42.6803Z" />
    <path d="M51.6618 47.976L48.6156 65.5764H44.5781L47.6364 47.976H51.6618Z" />
    <path d="M81 47.976L77.9538 65.5764H74.0251L71.6074 54.4673L69.6733 65.5764H65.6479L68.6821 47.976H72.6349L75.0526 59.085L76.9746 47.976H81Z" />
  </mask>
  <path d="M59.5514 18.0115V14H79.4451V34.0574H75.4666V20.8477L64.7952 31.536H59.1485L72.6531 18.0115H59.5514Z" fill="#0757A0" />
  <path d="M21.1571 69.5807L13.8266 76.9233H19.4789L26.8084 69.5807H21.1571Z" fill="#0757A0" />
  <path
    d="M38.9692 39.3697V42.8828H23.4176V39.885L30.7718 31.9999C31.5109 31.1776 32.0938 30.4541 32.5206 29.8296C32.9474 29.1946 33.2545 28.6273 33.4418 28.1276C33.6396 27.6176 33.7385 27.1335 33.7385 26.6755C33.7385 25.9885 33.624 25.4004 33.395 24.9112C33.166 24.4115 32.8277 24.0264 32.3801 23.7557C31.9429 23.4851 31.4016 23.3498 30.7562 23.3498C30.0692 23.3498 29.4759 23.5163 28.9762 23.8494C28.487 24.1825 28.1123 24.6457 27.852 25.239C27.6022 25.8324 27.4773 26.5038 27.4773 27.2532H22.9648C22.9648 25.9 23.2875 24.6613 23.9329 23.5371C24.5783 22.4025 25.4891 21.5021 26.6654 20.8359C27.8416 20.1593 29.2365 19.821 30.8499 19.821C32.4425 19.821 33.7853 20.0812 34.8783 20.6017C35.9817 21.1117 36.8144 21.8508 37.3765 22.8189C37.9491 23.7765 38.2353 24.9216 38.2353 26.254C38.2353 27.0034 38.1156 27.7373 37.8762 28.4555C37.6368 29.1634 37.2933 29.8712 36.8457 30.579C36.4085 31.2765 35.8776 31.9843 35.253 32.7025C34.6285 33.4208 33.9363 34.165 33.1764 34.9353L29.226 39.3697H38.9692Z"
    fill="#0757A0" />
  <path
    d="M57.3312 39.3697V42.8828H41.7797V39.885L49.1339 31.9999C49.8729 31.1776 50.4559 30.4541 50.8826 29.8296C51.3094 29.1946 51.6165 28.6273 51.8039 28.1276C52.0016 27.6176 52.1005 27.1335 52.1005 26.6755C52.1005 25.9885 51.986 25.4004 51.757 24.9112C51.528 24.4115 51.1897 24.0264 50.7421 23.7557C50.3049 23.4851 49.7636 23.3498 49.1183 23.3498C48.4312 23.3498 47.8379 23.5163 47.3383 23.8494C46.849 24.1825 46.4743 24.6457 46.2141 25.239C45.9642 25.8324 45.8393 26.5038 45.8393 27.2532H41.3269C41.3269 25.9 41.6496 24.6613 42.295 23.5371C42.9403 22.4025 43.8511 21.5021 45.0274 20.8359C46.2037 20.1593 47.5985 19.821 49.2119 19.821C50.8046 19.821 52.1474 20.0812 53.2404 20.6017C54.3437 21.1117 55.1765 21.8508 55.7386 22.8189C56.3111 23.7765 56.5974 24.9216 56.5974 26.254C56.5974 27.0034 56.4777 27.7373 56.2382 28.4555C55.9988 29.1634 55.6553 29.8712 55.2077 30.579C54.7705 31.2765 54.2396 31.9843 53.6151 32.7025C52.9905 33.4208 52.2983 34.165 51.5384 34.9353L47.5881 39.3697H57.3312Z"
    fill="#0757A0" />
  <path fill-rule="evenodd" clip-rule="evenodd"
    d="M64.8743 58.0455L65.2853 55.386C65.3981 54.4512 65.386 53.5325 65.249 52.6299C65.1201 51.7193 64.8461 50.9013 64.427 50.176C64.016 49.4507 63.4479 48.8665 62.7226 48.4232C62.0053 47.98 61.1148 47.7503 60.0511 47.7342C58.9228 47.702 57.9235 47.8954 57.0532 48.3144C56.1909 48.7254 55.4535 49.3016 54.841 50.043C54.2286 50.7764 53.737 51.6105 53.3663 52.5453C53.0036 53.4801 52.7498 54.4472 52.6047 55.4465L52.2058 58.118C52.093 59.0689 52.101 59.9997 52.23 60.9104C52.3589 61.813 52.6289 62.6309 53.0399 63.3643C53.4509 64.0896 54.019 64.6738 54.7443 65.1171C55.4696 65.5603 56.3722 65.794 57.4521 65.8182C58.5803 65.8504 59.5756 65.657 60.4379 65.238C61.3083 64.8108 62.0456 64.2306 62.65 63.4973C63.2545 62.7639 63.738 61.9298 64.1006 60.995C64.4713 60.0521 64.7292 59.0689 64.8743 58.0455ZM61.1995 55.4102L60.7885 58.118C60.732 58.5612 60.6474 59.0448 60.5346 59.5686C60.4298 60.0843 60.2646 60.5719 60.039 61.0313C59.8214 61.4906 59.5232 61.8613 59.1445 62.1434C58.7737 62.4254 58.2942 62.5503 57.706 62.5181C57.1821 62.4939 56.7993 62.3207 56.5576 61.9983C56.3239 61.676 56.1869 61.2771 56.1466 60.8016C56.1063 60.3261 56.1103 59.8506 56.1587 59.3752L56.3037 58.1301L56.7026 55.4344C56.7671 54.975 56.8517 54.4875 56.9565 53.9717C57.0612 53.4479 57.2184 52.9603 57.4279 52.509C57.6455 52.0497 57.9397 51.683 58.3104 51.409C58.6811 51.127 59.1727 51.0061 59.7851 51.0464C60.3009 51.0705 60.6756 51.2438 60.9093 51.5662C61.143 51.8885 61.2841 52.2834 61.3324 52.7508C61.3808 53.2182 61.3808 53.6937 61.3324 54.1772C61.2841 54.6527 61.2397 55.0637 61.1995 55.4102Z"
    fill="#0757A0" />
  <path fill-rule="evenodd" clip-rule="evenodd"
    d="M11.4374 56.7242C11.6619 56.6538 11.8777 56.5704 12.0849 56.474C12.786 56.1516 13.3461 55.6842 13.7652 55.0718C14.1842 54.4512 14.422 53.6776 14.4784 52.7508C14.5267 51.9369 14.422 51.2357 14.1641 50.6475C13.9062 50.0511 13.5315 49.5595 13.0399 49.1727C12.5564 48.7859 11.9882 48.4958 11.3354 48.3023C10.6827 48.1009 9.98559 47.9961 9.24418 47.988L4.03415 47.976L1 65.5764H7.12874C8.27309 65.5926 9.30059 65.4072 10.2112 65.0204C11.1219 64.6336 11.8512 64.0453 12.3992 63.2555C12.9553 62.4657 13.2696 61.4705 13.3421 60.2697C13.4066 59.5041 13.3058 58.8352 13.0399 58.2631C12.782 57.6909 12.3871 57.2476 11.8552 56.9333C11.7238 56.8545 11.5846 56.7848 11.4374 56.7242ZM8.20326 55.3221C8.53429 55.29 8.83291 55.2106 9.09912 55.0838C9.44565 54.9227 9.72368 54.689 9.93321 54.3827C10.1508 54.0765 10.2959 53.7018 10.3684 53.2585C10.4248 52.8878 10.4329 52.5574 10.3926 52.2673C10.3523 51.9691 10.2314 51.7314 10.0299 51.5541C9.83651 51.3687 9.53027 51.272 9.11121 51.264L7.51556 51.2519L6.80545 55.317L8.20326 55.3221ZM6.31973 58.0976L5.58167 62.3227L7.2738 62.3368C7.69286 62.3207 8.04745 62.2199 8.33756 62.0346C8.62768 61.8412 8.85736 61.5873 9.02659 61.273C9.20389 60.9507 9.32477 60.5961 9.38924 60.2093C9.44565 59.9272 9.47789 59.629 9.48595 59.3147C9.50207 59.0004 9.44162 58.7305 9.30462 58.5048C9.17568 58.2711 8.92586 58.1381 8.55515 58.1059L6.31973 58.0976Z"
    fill="#0757A0" />
  <path d="M18.8543 65.5764L21.9006 47.976H17.8752L14.8169 65.5764H18.8543Z" fill="#0757A0" />
  <path d="M31.7404 62.3126L31.1723 65.5764H21.3808L24.4149 47.976H28.4524L25.9612 62.3126H31.7404Z" fill="#0757A0" />
  <path d="M42.6803 65.5764L43.2484 62.3126H37.4692L39.9604 47.976H35.9229L32.8888 65.5764H42.6803Z" fill="#0757A0" />
  <path d="M51.6618 47.976L48.6156 65.5764H44.5781L47.6364 47.976H51.6618Z" fill="#0757A0" />
  <path d="M81 47.976L77.9538 65.5764H74.0251L71.6074 54.4673L69.6733 65.5764H65.6479L68.6821 47.976H72.6349L75.0526 59.085L76.9746 47.976H81Z" fill="#0757A0" />
  <path d="M59.5514 18.0115V14H79.4451V34.0574H75.4666V20.8477L64.7952 31.536H59.1485L72.6531 18.0115H59.5514Z" stroke="#0857A0" mask="url(#path-2-outside-1_415_2)" />
  <path d="M21.1571 69.5807L13.8266 76.9233H19.4789L26.8084 69.5807H21.1571Z" stroke="#0857A0" mask="url(#path-2-outside-1_415_2)" />
  <path
    d="M38.9692 39.3697V42.8828H23.4176V39.885L30.7718 31.9999C31.5109 31.1776 32.0938 30.4541 32.5206 29.8296C32.9474 29.1946 33.2545 28.6273 33.4418 28.1276C33.6396 27.6176 33.7385 27.1335 33.7385 26.6755C33.7385 25.9885 33.624 25.4004 33.395 24.9112C33.166 24.4115 32.8277 24.0264 32.3801 23.7557C31.9429 23.4851 31.4016 23.3498 30.7562 23.3498C30.0692 23.3498 29.4759 23.5163 28.9762 23.8494C28.487 24.1825 28.1123 24.6457 27.852 25.239C27.6022 25.8324 27.4773 26.5038 27.4773 27.2532H22.9648C22.9648 25.9 23.2875 24.6613 23.9329 23.5371C24.5783 22.4025 25.4891 21.5021 26.6654 20.8359C27.8416 20.1593 29.2365 19.821 30.8499 19.821C32.4425 19.821 33.7853 20.0812 34.8783 20.6017C35.9817 21.1117 36.8144 21.8508 37.3765 22.8189C37.9491 23.7765 38.2353 24.9216 38.2353 26.254C38.2353 27.0034 38.1156 27.7373 37.8762 28.4555C37.6368 29.1634 37.2933 29.8712 36.8457 30.579C36.4085 31.2765 35.8776 31.9843 35.253 32.7025C34.6285 33.4208 33.9363 34.165 33.1764 34.9353L29.226 39.3697H38.9692Z"
    stroke="#0857A0" mask="url(#path-2-outside-1_415_2)" />
  <path
    d="M57.3312 39.3697V42.8828H41.7797V39.885L49.1339 31.9999C49.8729 31.1776 50.4559 30.4541 50.8826 29.8296C51.3094 29.1946 51.6165 28.6273 51.8039 28.1276C52.0016 27.6176 52.1005 27.1335 52.1005 26.6755C52.1005 25.9885 51.986 25.4004 51.757 24.9112C51.528 24.4115 51.1897 24.0264 50.7421 23.7557C50.3049 23.4851 49.7636 23.3498 49.1183 23.3498C48.4312 23.3498 47.8379 23.5163 47.3383 23.8494C46.849 24.1825 46.4743 24.6457 46.2141 25.239C45.9642 25.8324 45.8393 26.5038 45.8393 27.2532H41.3269C41.3269 25.9 41.6496 24.6613 42.295 23.5371C42.9403 22.4025 43.8511 21.5021 45.0274 20.8359C46.2037 20.1593 47.5985 19.821 49.2119 19.821C50.8046 19.821 52.1474 20.0812 53.2404 20.6017C54.3437 21.1117 55.1765 21.8508 55.7386 22.8189C56.3111 23.7765 56.5974 24.9216 56.5974 26.254C56.5974 27.0034 56.4777 27.7373 56.2382 28.4555C55.9988 29.1634 55.6553 29.8712 55.2077 30.579C54.7705 31.2765 54.2396 31.9843 53.6151 32.7025C52.9905 33.4208 52.2983 34.165 51.5384 34.9353L47.5881 39.3697H57.3312Z"
    stroke="#0857A0" mask="url(#path-2-outside-1_415_2)" />
  <path fill-rule="evenodd" clip-rule="evenodd"
    d="M64.8743 58.0455L65.2853 55.386C65.3981 54.4512 65.386 53.5325 65.249 52.6299C65.1201 51.7193 64.8461 50.9013 64.427 50.176C64.016 49.4507 63.4479 48.8665 62.7226 48.4232C62.0053 47.98 61.1148 47.7503 60.0511 47.7342C58.9228 47.702 57.9235 47.8954 57.0532 48.3144C56.1909 48.7254 55.4535 49.3016 54.841 50.043C54.2286 50.7764 53.737 51.6105 53.3663 52.5453C53.0036 53.4801 52.7498 54.4472 52.6047 55.4465L52.2058 58.118C52.093 59.0689 52.101 59.9997 52.23 60.9104C52.3589 61.813 52.6289 62.6309 53.0399 63.3643C53.4509 64.0896 54.019 64.6738 54.7443 65.1171C55.4696 65.5603 56.3722 65.794 57.4521 65.8182C58.5803 65.8504 59.5756 65.657 60.4379 65.238C61.3083 64.8108 62.0456 64.2306 62.65 63.4973C63.2545 62.7639 63.738 61.9298 64.1006 60.995C64.4713 60.0521 64.7292 59.0689 64.8743 58.0455ZM61.1995 55.4102L60.7885 58.118C60.732 58.5612 60.6474 59.0448 60.5346 59.5686C60.4298 60.0843 60.2646 60.5719 60.039 61.0313C59.8214 61.4906 59.5232 61.8613 59.1445 62.1434C58.7737 62.4254 58.2942 62.5503 57.706 62.5181C57.1821 62.4939 56.7993 62.3207 56.5576 61.9983C56.3239 61.676 56.1869 61.2771 56.1466 60.8016C56.1063 60.3261 56.1103 59.8506 56.1587 59.3752L56.3037 58.1301L56.7026 55.4344C56.7671 54.975 56.8517 54.4875 56.9565 53.9717C57.0612 53.4479 57.2184 52.9603 57.4279 52.509C57.6455 52.0497 57.9397 51.683 58.3104 51.409C58.6811 51.127 59.1727 51.0061 59.7851 51.0464C60.3009 51.0705 60.6756 51.2438 60.9093 51.5662C61.143 51.8885 61.2841 52.2834 61.3324 52.7508C61.3808 53.2182 61.3808 53.6937 61.3324 54.1772C61.2841 54.6527 61.2397 55.0637 61.1995 55.4102Z"
    stroke="#0857A0" mask="url(#path-2-outside-1_415_2)" />
  <path fill-rule="evenodd" clip-rule="evenodd"
    d="M11.4374 56.7242C11.6619 56.6538 11.8777 56.5704 12.0849 56.474C12.786 56.1516 13.3461 55.6842 13.7652 55.0718C14.1842 54.4512 14.422 53.6776 14.4784 52.7508C14.5267 51.9369 14.422 51.2357 14.1641 50.6475C13.9062 50.0511 13.5315 49.5595 13.0399 49.1727C12.5564 48.7859 11.9882 48.4958 11.3354 48.3023C10.6827 48.1009 9.98559 47.9961 9.24418 47.988L4.03415 47.976L1 65.5764H7.12874C8.27309 65.5926 9.30059 65.4072 10.2112 65.0204C11.1219 64.6336 11.8512 64.0453 12.3992 63.2555C12.9553 62.4657 13.2696 61.4705 13.3421 60.2697C13.4066 59.5041 13.3058 58.8352 13.0399 58.2631C12.782 57.6909 12.3871 57.2476 11.8552 56.9333C11.7238 56.8545 11.5846 56.7848 11.4374 56.7242ZM8.20326 55.3221C8.53429 55.29 8.83291 55.2106 9.09912 55.0838C9.44565 54.9227 9.72368 54.689 9.93321 54.3827C10.1508 54.0765 10.2959 53.7018 10.3684 53.2585C10.4248 52.8878 10.4329 52.5574 10.3926 52.2673C10.3523 51.9691 10.2314 51.7314 10.0299 51.5541C9.83651 51.3687 9.53027 51.272 9.11121 51.264L7.51556 51.2519L6.80545 55.317L8.20326 55.3221ZM6.31973 58.0976L5.58167 62.3227L7.2738 62.3368C7.69286 62.3207 8.04745 62.2199 8.33756 62.0346C8.62768 61.8412 8.85736 61.5873 9.02659 61.273C9.20389 60.9507 9.32477 60.5961 9.38924 60.2093C9.44565 59.9272 9.47789 59.629 9.48595 59.3147C9.50207 59.0004 9.44162 58.7305 9.30462 58.5048C9.17568 58.2711 8.92586 58.1381 8.55515 58.1059L6.31973 58.0976Z"
    stroke="#0857A0" mask="url(#path-2-outside-1_415_2)" />
  <path d="M18.8543 65.5764L21.9006 47.976H17.8752L14.8169 65.5764H18.8543Z" stroke="#0857A0" mask="url(#path-2-outside-1_415_2)" />
  <path d="M31.7404 62.3126L31.1723 65.5764H21.3808L24.4149 47.976H28.4524L25.9612 62.3126H31.7404Z" stroke="#0857A0" mask="url(#path-2-outside-1_415_2)" />
  <path d="M42.6803 65.5764L43.2484 62.3126H37.4692L39.9604 47.976H35.9229L32.8888 65.5764H42.6803Z" stroke="#0857A0" mask="url(#path-2-outside-1_415_2)" />
  <path d="M51.6618 47.976L48.6156 65.5764H44.5781L47.6364 47.976H51.6618Z" stroke="#0857A0" mask="url(#path-2-outside-1_415_2)" />
  <path d="M81 47.976L77.9538 65.5764H74.0251L71.6074 54.4673L69.6733 65.5764H65.6479L68.6821 47.976H72.6349L75.0526 59.085L76.9746 47.976H81Z" stroke="#0857A0" mask="url(#path-2-outside-1_415_2)" />
</svg>