<svg width="200" height="100" viewBox="0 0 200 100" fill="none" xmlns="http://www.w3.org/2000/svg">
  <path fill-rule="evenodd" clip-rule="evenodd"
    d="M51 54.655C51.337 53.0502 52.0192 51.6417 53.2603 50.5366C54.5015 49.4315 55.955 48.6764 57.4838 48.0532C78.6721 39.4169 99.8947 30.8699 121.023 22.0963C129.105 18.744 136.96 14.8672 144.918 11.2265C145.035 11.1612 145.146 11.0854 145.25 11L145.524 11C145.524 11.2183 145.573 11.4613 145.496 11.6507C144.413 14.3126 143.425 17.0211 142.184 19.6129C140.91 22.2652 138.759 24.1185 135.986 25.1288C127.767 28.1307 119.537 31.1051 111.298 34.052C93.9685 40.1994 76.6332 46.3322 59.292 52.4503C58.5156 52.7134 57.7747 53.0722 57.0865 53.5183C55.4152 54.6385 55.0508 56.4245 56.1399 58.1131C56.5632 58.7358 57.0605 59.3046 57.6208 59.8071C63.0702 64.9221 68.5252 70.0262 73.9857 75.1193C74.1322 75.2566 74.3048 75.3664 74.609 75.6011C74.2925 75.6409 74.198 75.6643 74.0925 75.6656C71.7637 75.6656 69.4348 75.6574 67.106 75.6753C66.7032 75.6753 66.4991 75.5613 66.3649 75.1673C65.9539 73.9565 65.21 72.953 64.31 72.0524C61.2962 69.0488 58.34 66.0012 55.2974 63.0345C53.3288 61.114 51.5028 59.144 51 56.3023V54.655Z"
    fill="white" />
  <path fill-rule="evenodd" clip-rule="evenodd"
    d="M80.4527 89.1124C79.1485 88.9271 77.8279 88.8117 76.5457 88.5276C75.7475 88.3403 74.985 88.0241 74.2881 87.5913C73.5331 87.1348 72.9089 86.4904 72.4761 85.7206C72.0433 84.9508 71.8166 84.0818 71.8181 83.1982C71.8196 82.3146 72.0493 81.4465 72.4847 80.6782C72.9202 79.9098 73.5467 79.2675 74.3032 78.8137C75.5525 78.0435 76.9389 77.677 78.3759 77.5356C80.9088 77.2857 83.435 77.2816 85.8775 78.1492C88.9283 79.2351 90.3982 81.9683 89.4612 84.8608C88.7762 87.0024 87.0775 88.0347 85.0405 88.5276C83.7665 88.8351 82.4377 88.9243 81.1349 89.1124H80.4527ZM80.8061 79.4191C80.4582 79.4438 80.0458 79.4506 79.6403 79.5042C78.1731 79.6991 77.243 80.4651 77.0046 81.8764C76.7306 83.5237 76.5936 85.1876 78.1485 86.3764C78.4166 86.5914 78.7356 86.7333 79.0745 86.7882C79.9266 86.8884 80.7965 86.9996 81.6459 86.9392C83.5158 86.802 84.4624 85.8712 84.6679 84.0262C84.7342 83.3908 84.7139 82.7493 84.6076 82.1193C84.3336 80.4885 83.3966 79.6483 81.7541 79.4918C81.4596 79.4589 81.1637 79.4451 80.8061 79.4191Z"
    fill="white" />
  <path fill-rule="evenodd" clip-rule="evenodd"
    d="M148.126 88.7004H138.696V87.2535C139.03 87.2096 139.381 87.1697 139.74 87.1162C140.126 87.0572 140.674 86.9789 140.554 86.5135C140.441 86.0742 140.006 85.3988 139.684 85.3837C137.612 85.2808 135.53 85.2794 133.457 85.3837C133.133 85.4002 132.7 86.0701 132.574 86.5177C132.437 87.0077 132.978 87.075 133.364 87.1313C133.675 87.1766 133.99 87.2068 134.334 87.2466V88.6441H127.454V87.3084C127.513 87.2576 127.53 87.2288 127.546 87.2301C128.986 87.3358 129.738 86.5135 130.379 85.3316C131.235 83.746 132.246 82.2441 133.185 80.7039C133.733 79.7978 133.544 79.4505 132.47 79.3571C132.018 79.3173 131.568 79.2542 131.086 79.1993V77.7482H132.886C134.894 77.7482 136.904 77.777 138.914 77.7331C139.692 77.7166 140.192 77.9912 140.606 78.6392C142.112 80.9853 143.719 83.2669 145.143 85.661C145.874 86.8897 146.822 87.2919 148.129 87.1903L148.126 88.7004ZM134.396 83.3616H138.674L136.47 79.9873L134.396 83.3616Z"
    fill="white" />
  <path fill-rule="evenodd" clip-rule="evenodd"
    d="M77.4389 54.865C74.2142 55.7106 71.0428 56.5453 67.8701 57.3758C65.3125 58.0458 62.7535 58.7047 60.1987 59.387C59.7795 59.4995 59.4644 59.4735 59.1562 59.1399C58.8 58.7541 58.378 58.4301 58.0205 58.0416C56.9712 56.9201 57.1657 55.4457 58.4904 54.6879C59.0312 54.3947 59.5998 54.1561 60.1877 53.9754C83.0843 46.4269 105.981 38.8765 128.879 31.3242C131.949 30.3084 134.959 29.1086 137.996 27.9952C138.218 27.9142 138.441 27.8415 138.681 27.7563C138.719 27.9183 138.764 27.9938 138.744 28.0405C137.5 30.9234 136.004 33.669 134.048 36.14C132.611 37.948 130.724 39.097 128.494 39.6969C115.951 43.0694 103.409 46.447 90.8681 49.8296C86.5757 50.9855 82.2834 52.1391 77.991 53.2904C77.0855 53.5416 76.917 53.9685 77.4389 54.865Z"
    fill="white" />
  <path fill-rule="evenodd" clip-rule="evenodd"
    d="M130.89 42.566C130.816 42.7486 130.728 42.9253 130.627 43.0945C129.266 45.0384 127.951 47.0194 126.518 48.9056C125.011 50.8838 122.857 51.7239 120.469 52.1797C109.276 54.3158 98.0889 56.4775 86.9068 58.6648C86.8177 58.6827 86.7314 58.7129 86.6424 58.7321C85.7191 58.9394 85.5547 59.402 86.1835 60.271C85.0232 60.5002 83.9026 60.7254 82.782 60.9409C77.0503 62.0392 71.3195 63.1374 65.5897 64.2356C65.0568 64.3386 64.6677 64.2768 64.2526 63.8677C63.117 62.7475 61.9238 61.6863 60.6429 60.4975L130.763 42.3889L130.89 42.566Z"
    fill="white" />
  <path fill-rule="evenodd" clip-rule="evenodd"
    d="M96.1946 66.5309L90.3656 67.2722L76.7227 69.0033C74.8446 69.2422 72.9678 69.4907 71.0883 69.7103C70.8465 69.7425 70.6016 69.6812 70.4033 69.5387C68.928 68.2071 67.4759 66.8494 66.0196 65.4958C65.9721 65.4285 65.9339 65.3551 65.9059 65.2776L122.119 54.707C121.935 55.0159 121.869 55.1834 121.757 55.3069C120.294 56.9406 118.88 58.6195 117.343 60.1817C115.55 62.0076 113.225 62.683 110.747 63.0207C106.161 63.6481 101.585 64.3454 97.0056 65.0263C95.9329 65.1925 95.7768 65.489 96.1946 66.5309Z"
    fill="white" />
  <path fill-rule="evenodd" clip-rule="evenodd"
    d="M111.015 75.6671H110.147C99.3345 75.6671 88.5214 75.6703 77.7073 75.6767C77.473 75.6884 77.2389 75.6505 77.0201 75.5656C76.8014 75.4807 76.6028 75.3506 76.4374 75.1839C74.9374 73.7521 73.4086 72.3518 71.7715 70.8294C72.7305 70.7072 73.5524 70.5946 74.3744 70.4999C79.2649 69.9298 84.1555 69.3623 89.0461 68.7976C91.9653 68.4586 94.8846 68.103 97.8135 67.7749C98.099 67.7327 98.3906 67.7807 98.6477 67.9122C102.666 70.3915 106.676 72.884 110.677 75.3898C110.747 75.4338 110.807 75.4955 111.015 75.6671Z"
    fill="white" />
  <path fill-rule="evenodd" clip-rule="evenodd"
    d="M51.5477 79.1976V77.7946H60.1631V79.1935C59.7521 79.247 59.3521 79.3156 58.9493 79.3486C58.3753 79.3953 58.0671 79.6973 58.0479 80.2643C58.0288 80.8546 58.0479 81.4449 58.0479 82.0805H64.8358C64.8358 81.4462 64.8591 80.8353 64.8358 80.2258C64.8098 79.6959 64.5016 79.4021 63.9618 79.3527C63.5508 79.3156 63.1495 79.2566 62.7042 79.2017V77.7932H71.3456V79.1962C70.9483 79.2484 70.5689 79.3211 70.188 79.3417C69.5182 79.3774 69.1921 79.6987 69.1962 80.3796C69.2045 82.2781 69.1962 84.1767 69.1962 86.0753C69.1962 86.7192 69.4976 87.0363 70.1415 87.0829C70.5278 87.1063 70.91 87.1804 71.3401 87.2381V88.6315H62.7097V87.2367C63.1207 87.1832 63.5317 87.1104 63.9632 87.0747C64.5495 87.0267 64.8235 86.6917 64.8427 86.1371C64.8618 85.5825 64.8427 84.9963 64.8427 84.3621H58.0904C58.0904 85.0485 58.0301 85.75 58.1246 86.435C58.1562 86.6711 58.5438 86.9457 58.8233 87.0418C59.2233 87.179 59.674 87.1694 60.159 87.2298V88.6287H51.5601V87.2394C51.9984 87.1804 52.3998 87.1022 52.8039 87.0774C53.3519 87.0335 53.6725 86.7452 53.6779 86.2126C53.6971 84.2229 53.6971 82.2338 53.6779 80.245C53.6779 79.6781 53.33 79.3857 52.7574 79.3472C52.3779 79.3211 51.9971 79.2539 51.5477 79.1976Z"
    fill="white" />
  <path fill-rule="evenodd" clip-rule="evenodd"
    d="M97.1429 87.2383V88.6495H90.2824V87.2369C90.7221 87.1806 91.1482 87.1174 91.5756 87.0721C92.1235 87.0131 92.3975 86.7138 92.4044 86.1702C92.4044 84.2025 92.4044 82.2349 92.4044 80.2672C92.4044 79.681 92.0797 79.401 91.5139 79.3488C91.103 79.3117 90.703 79.25 90.2618 79.195V77.7481H91.0989C93.2441 77.7481 95.3908 77.7632 97.5374 77.7399C97.8319 77.7221 98.1259 77.7818 98.3902 77.9131C98.6545 78.0443 98.88 78.2425 99.0443 78.4881C100.709 80.7243 102.403 82.94 104.087 85.1626C104.224 85.341 104.361 85.5154 104.594 85.8092C104.63 85.6085 104.656 85.4059 104.671 85.2024C104.676 83.7161 104.676 82.2289 104.671 80.7408C104.671 79.6206 104.51 79.4559 103.399 79.3241C103.125 79.2911 102.859 79.2403 102.536 79.1868V77.8003H109.393V79.1937C109.027 79.2445 108.671 79.3021 108.313 79.3406C107.45 79.4339 107.25 79.6247 107.246 80.5143C107.234 82.9387 107.246 85.3644 107.246 87.7901V88.6618C105.312 88.6618 103.447 88.6962 101.587 88.6289C101.261 88.6179 100.879 88.2363 100.644 87.9315C98.9813 85.7803 97.3497 83.6031 95.7127 81.4354C95.536 81.2021 95.3579 80.9701 95.0825 80.6118C95.0465 80.8153 95.0209 81.0206 95.0058 81.2268C95.0003 82.6682 95.0003 84.1092 95.0058 85.5497C95.0058 86.8511 95.0853 86.9445 96.3374 87.1229L97.1429 87.2383Z"
    fill="white" />
  <path fill-rule="evenodd" clip-rule="evenodd"
    d="M110.202 88.6443V87.2441C110.613 87.1864 111.015 87.1068 111.417 87.0821C112.033 87.045 112.35 86.7142 112.355 86.1211C112.372 84.1571 112.372 82.1917 112.355 80.2249C112.355 79.6964 112.081 79.3793 111.52 79.3367C111.137 79.3079 110.759 79.2434 110.351 79.1899V77.7855C110.587 77.7718 110.787 77.7498 110.985 77.7498C114.384 77.7498 117.783 77.688 121.179 77.78C122.473 77.8179 123.755 78.0492 124.982 78.4664C127.11 79.1926 128.227 80.969 128.231 83.2108C128.235 85.4526 127.127 87.2084 125.002 87.973C123.914 88.3765 122.769 88.6044 121.61 88.6484C117.912 88.7336 114.222 88.6841 110.528 88.6841C110.441 88.68 110.354 88.6608 110.202 88.6443ZM116.64 86.5357C118.207 86.5357 119.688 86.5893 121.161 86.5165C122.184 86.4643 122.901 85.8054 123.025 84.8046C123.147 83.7446 123.147 82.6742 123.025 81.6142C122.935 80.7631 122.347 80.0753 121.482 79.9861C119.884 79.8213 118.272 79.8159 116.639 79.7431L116.64 86.5357Z"
    fill="white" />
</svg>