<svg width="135" height="109" viewBox="0 0 135 109" fill="none" xmlns="http://www.w3.org/2000/svg">
  <path fill-rule="evenodd" clip-rule="evenodd"
    d="M0 60.6762C0.468393 58.4457 1.4166 56.488 3.14166 54.9521C4.86672 53.4161 6.88691 52.3666 9.01181 51.5004C38.4616 39.4968 67.9589 27.6172 97.3249 15.4228C108.559 10.7634 119.477 5.375 130.537 0.314829C130.7 0.22408 130.854 0.118704 130.998 0L131.379 0C131.379 0.303381 131.447 0.641107 131.341 0.904419C129.834 4.60414 128.462 8.36874 126.737 11.9712C124.966 15.6575 121.977 18.2334 118.123 19.6377C106.699 23.81 95.2603 27.9441 83.8082 32.0401C59.7221 40.5844 35.6277 49.1083 11.5251 57.6119C10.446 57.9777 9.41624 58.4763 8.45964 59.0964C6.13672 60.6533 5.63024 63.1357 7.14395 65.4826C7.73232 66.3481 8.42348 67.1388 9.20222 67.8372C16.7765 74.9466 24.3584 82.0407 31.9479 89.1196C32.1516 89.3104 32.3915 89.4631 32.8142 89.7894C32.3744 89.8447 32.243 89.8771 32.0964 89.879C28.8595 89.879 25.6226 89.8676 22.3858 89.8924C21.826 89.8924 21.5423 89.734 21.3557 89.1864C20.7845 87.5035 19.7506 86.1087 18.4996 84.857C14.3108 80.6822 10.2018 76.4463 5.97297 72.323C3.23687 69.6536 0.698782 66.9156 0 62.9659V60.6762Z"
    fill="#FF0808" />
  <path fill-rule="evenodd" clip-rule="evenodd"
    d="M40.9364 108.569C39.1237 108.311 37.2882 108.151 35.5061 107.756C34.3966 107.495 33.3368 107.056 32.3682 106.454C31.3189 105.82 30.4513 104.924 29.8497 103.854C29.2481 102.784 28.9331 101.577 28.9352 100.348C28.9373 99.1204 29.2565 97.9137 29.8617 96.8458C30.467 95.7779 31.3377 94.8852 32.3892 94.2543C34.1256 93.1839 36.0525 92.6745 38.0499 92.4779C41.5704 92.1307 45.0815 92.1249 48.4764 93.3308C52.7167 94.8401 54.7597 98.6391 53.4573 102.659C52.5053 105.636 50.1443 107.071 47.313 107.756C45.5423 108.183 43.6953 108.307 41.8846 108.569H40.9364ZM41.4276 95.0958C40.944 95.1301 40.3709 95.1397 39.8073 95.2141C37.7681 95.485 36.4752 96.5497 36.1439 98.5112C35.7631 100.801 35.5727 103.113 37.7338 104.766C38.1064 105.065 38.5498 105.262 39.0209 105.338C40.2052 105.478 41.4143 105.632 42.5948 105.548C45.1938 105.357 46.5095 104.064 46.7951 101.499C46.8873 100.616 46.8591 99.7245 46.7113 98.8489C46.3305 96.5822 45.0282 95.4144 42.7452 95.1969C42.3359 95.1511 41.9246 95.132 41.4276 95.0958Z"
    fill="#FF0808" />
  <path fill-rule="evenodd" clip-rule="evenodd"
    d="M134.996 107.996H121.889V105.985C122.353 105.924 122.841 105.868 123.34 105.794C123.877 105.712 124.638 105.603 124.471 104.956C124.314 104.346 123.709 103.407 123.262 103.386C120.383 103.243 117.488 103.241 114.608 103.386C114.156 103.409 113.555 104.34 113.38 104.962C113.189 105.643 113.941 105.737 114.478 105.815C114.91 105.878 115.348 105.92 115.826 105.975V107.918H106.264V106.061C106.346 105.991 106.369 105.95 106.392 105.952C108.393 106.099 109.438 104.956 110.329 103.314C111.519 101.11 112.924 99.0223 114.229 96.8815C114.99 95.6222 114.728 95.1394 113.235 95.0097C112.607 94.9543 111.982 94.8666 111.312 94.7902V92.7734H113.814C116.605 92.7734 119.398 92.8135 122.191 92.7524C123.273 92.7295 123.968 93.1112 124.543 94.0118C126.637 97.2726 128.871 100.444 130.849 103.771C131.866 105.479 133.183 106.038 135 105.897L134.996 107.996ZM115.912 100.575H121.858L118.795 95.8855L115.912 100.575Z"
    fill="#FF0808" />
  <path fill-rule="evenodd" clip-rule="evenodd"
    d="M36.7474 60.9677C32.2653 62.1431 27.8574 63.3032 23.4477 64.4575C19.8928 65.3887 16.3361 66.3045 12.7851 67.2528C12.2024 67.4093 11.7645 67.3731 11.3361 66.9094C10.841 66.3732 10.2546 65.9229 9.75765 65.383C8.29916 63.8241 8.56953 61.7748 10.4107 60.7216C11.1625 60.3141 11.9527 59.9824 12.7698 59.7313C44.5939 49.2395 76.4187 38.7452 108.244 28.2483C112.511 26.8364 116.694 25.1687 120.915 23.6213C121.224 23.5087 121.534 23.4076 121.867 23.2893C121.921 23.5145 121.984 23.6194 121.955 23.6843C120.226 27.6912 118.147 31.5073 115.428 34.9418C113.431 37.4547 110.809 39.0518 107.709 39.8856C90.2756 44.573 72.8435 49.2675 55.4127 53.969C49.4467 55.5755 43.4807 57.1789 37.5147 58.7792C36.2562 59.1283 36.022 59.7217 36.7474 60.9677Z"
    fill="#FF0808" />
  <path fill-rule="evenodd" clip-rule="evenodd"
    d="M111.04 43.8738C110.937 44.1277 110.815 44.3732 110.674 44.6084C108.782 47.3102 106.954 50.0636 104.962 52.6852C102.868 55.4347 99.8745 56.6025 96.5558 57.236C80.9985 60.2049 65.4488 63.2094 49.9068 66.2496C49.7831 66.2744 49.6631 66.3164 49.5393 66.3431C48.256 66.6312 48.0275 67.2743 48.9015 68.4821C47.2888 68.8007 45.7313 69.1136 44.1738 69.4132C36.2073 70.9396 28.242 72.4661 20.2781 73.9925C19.5374 74.1356 18.9967 74.0498 18.4197 73.4812C16.8413 71.9242 15.1829 70.4493 13.4026 68.7969L110.863 43.6277L111.04 43.8738Z"
    fill="#FF0808" />
  <path fill-rule="evenodd" clip-rule="evenodd"
    d="M62.8161 77.1829L54.7144 78.2132L35.7521 80.6193C33.1417 80.9513 30.5332 81.2966 27.9208 81.6019C27.5848 81.6467 27.2443 81.5614 26.9688 81.3634C24.9181 79.5126 22.8999 77.6255 20.8759 75.7442C20.8098 75.6506 20.7567 75.5486 20.7178 75.4408L98.8481 60.7488C98.593 61.1781 98.5016 61.4109 98.3455 61.5826C96.312 63.8532 94.347 66.1867 92.2107 68.3581C89.7183 70.8958 86.4871 71.8346 83.0427 72.304C76.668 73.176 70.3085 74.1452 63.9433 75.0916C62.4524 75.3225 62.2354 75.7347 62.8161 77.1829Z"
    fill="#FF0808" />
  <path fill-rule="evenodd" clip-rule="evenodd"
    d="M83.4157 89.881H82.2085C67.1806 89.881 52.1514 89.8855 37.1209 89.8944C36.7952 89.9105 36.4698 89.8579 36.1658 89.7399C35.8617 89.6219 35.5858 89.4411 35.3559 89.2094C33.271 87.2193 31.1461 85.2731 28.8707 83.157C30.2036 82.9872 31.346 82.8307 32.4884 82.6991C39.2858 81.9066 46.0832 81.1179 52.8806 80.3331C56.9381 79.8618 60.9957 79.3676 65.0665 78.9116C65.4634 78.8529 65.8687 78.9196 66.226 79.1024C71.8112 82.5483 77.3843 86.0127 82.9454 89.4956C83.0425 89.5567 83.1263 89.6425 83.4157 89.881Z"
    fill="#FF0808" />
  <path fill-rule="evenodd" clip-rule="evenodd"
    d="M0.761536 94.7886V92.8386H12.736V94.7829C12.1648 94.8573 11.6088 94.9527 11.0491 94.9985C10.2513 95.0634 9.82285 95.4831 9.7962 96.2712C9.76954 97.0916 9.7962 97.9121 9.7962 98.7955H19.2307C19.2307 97.914 19.2631 97.0649 19.2307 96.2177C19.1945 95.4812 18.7661 95.0729 18.0159 95.0042C17.4447 94.9527 16.8868 94.8707 16.268 94.7943V92.8367H28.2787V94.7867C27.7265 94.8592 27.1991 94.9603 26.6698 94.989C25.7387 95.0386 25.2855 95.4851 25.2913 96.4315C25.3027 99.0703 25.2913 101.709 25.2913 104.348C25.2913 105.243 25.7101 105.684 26.605 105.748C27.142 105.781 27.6732 105.884 28.2711 105.964V107.901H16.2756V105.962C16.8469 105.888 17.4181 105.787 18.0178 105.737C18.8328 105.67 19.2136 105.205 19.2402 104.434C19.2669 103.663 19.2402 102.848 19.2402 101.967H9.85522C9.85522 102.921 9.77144 103.896 9.90282 104.848C9.94662 105.176 10.4855 105.558 10.8739 105.691C11.4299 105.882 12.0563 105.869 12.7303 105.953V107.897H0.778672V105.966C1.38796 105.884 1.94585 105.775 2.50754 105.741C3.26915 105.68 3.7147 105.279 3.72232 104.539C3.74897 101.773 3.74897 99.0086 3.72232 96.2445C3.72232 95.4564 3.23869 95.05 2.4428 94.9966C1.91538 94.9603 1.38606 94.8668 0.761536 94.7886Z"
    fill="#FF0808" />
  <path fill-rule="evenodd" clip-rule="evenodd"
    d="M64.1344 105.964V107.926H54.5989V105.962C55.2101 105.884 55.8023 105.796 56.3963 105.733C57.158 105.651 57.5388 105.235 57.5483 104.48C57.5483 101.745 57.5483 99.0099 57.5483 96.275C57.5483 95.4603 57.097 95.0711 56.3107 94.9986C55.7394 94.947 55.1835 94.8612 54.5704 94.7849V92.7738H55.7337C58.7155 92.7738 61.6991 92.7948 64.6827 92.7623C65.092 92.7376 65.5006 92.8206 65.868 93.003C66.2354 93.1854 66.5488 93.4609 66.7772 93.8022C69.0906 96.9104 71.4459 99.99 73.7859 103.079C73.9763 103.327 74.1667 103.57 74.4904 103.978C74.5413 103.699 74.5769 103.417 74.597 103.135C74.6047 101.069 74.6047 99.0017 74.597 96.9333C74.597 95.3763 74.3743 95.1474 72.8301 94.9642C72.4493 94.9184 72.0799 94.8478 71.6306 94.7734V92.8463H81.1603V94.7829C80.6519 94.8535 80.1568 94.9337 79.6599 94.9871C78.4603 95.1169 78.1823 95.3821 78.1766 96.6185C78.1595 99.9881 78.1766 103.36 78.1766 106.731V107.943C75.4881 107.943 72.8967 107.99 70.3111 107.897C69.8579 107.882 69.3267 107.351 69.0011 106.928C66.6896 103.938 64.4219 100.912 62.1465 97.8988C61.9009 97.5744 61.6534 97.252 61.2707 96.754C61.2205 97.0369 61.1849 97.3222 61.1641 97.6088C61.1564 99.6122 61.1564 101.615 61.1641 103.617C61.1641 105.426 61.2745 105.556 63.0148 105.804L64.1344 105.964Z"
    fill="#FF0808" />
  <path fill-rule="evenodd" clip-rule="evenodd"
    d="M82.2843 107.918V105.972C82.8555 105.892 83.4153 105.781 83.9732 105.747C84.83 105.695 85.2698 105.235 85.2775 104.411C85.3003 101.681 85.3003 98.9494 85.2775 96.2158C85.2775 95.4812 84.8966 95.0404 84.116 94.9812C83.5848 94.9412 83.0592 94.8515 82.4918 94.7771V92.8251C82.8193 92.8061 83.0973 92.7755 83.3734 92.7755C88.0973 92.7755 92.8212 92.6897 97.5414 92.8175C99.3408 92.8702 101.122 93.1917 102.827 93.7715C105.786 94.7809 107.338 97.2499 107.343 100.366C107.349 103.482 105.809 105.922 102.856 106.985C101.343 107.546 99.7522 107.862 98.1411 107.924C93.0002 108.042 87.8727 107.973 82.7375 107.973C82.6175 107.967 82.4957 107.941 82.2843 107.918ZM91.2333 104.987C93.4115 104.987 95.4698 105.062 97.5166 104.96C98.9389 104.888 99.9347 103.972 100.108 102.581C100.277 101.108 100.277 99.62 100.108 98.1467C99.9823 96.9637 99.1655 96.0078 97.9622 95.8838C95.742 95.6548 93.501 95.6472 91.2314 95.546L91.2333 104.987Z"
    fill="#FF0808" />
</svg>