<svg width="82" height="75" viewBox="0 0 82 75" fill="none" xmlns="http://www.w3.org/2000/svg">
  <path
    d="M12.9998 42.5C10.5998 47.7 14.6665 53.6667 16.9998 56L12.9998 60.5L3 64.5L3.5 71H19.5H37V67L35 64L24.5 59.5C24.3333 58.3333 24.4 55.6 26 54C28 52 26.5 45 27 42.5C27.5 40 22.5 35.5 19.5 35.5C16.5 35.5 15.9998 36 12.9998 42.5Z"
    fill="#7ED2FF" />
  <circle cx="64" cy="24" r="17" fill="#83D4FF" />
  <path
    d="M52.5678 1C36.886 1 24.1299 11.6 24.1299 24.6286C24.1299 31.7119 27.851 38.2667 34.3856 42.7759L33.6675 50.3415C33.5994 51.0541 33.9492 51.7409 34.566 52.1036C34.8551 52.273 35.1773 52.3595 35.4995 52.3595C35.8641 52.3595 36.2287 52.2472 36.5435 52.0318L43.7501 47.0733C46.6353 47.8577 49.5997 48.2572 52.566 48.2572C68.246 48.2572 81.0002 37.6554 81.0002 24.6286C81.0002 11.5982 68.2478 1 52.5678 1ZM52.5678 44.5748C49.6623 44.5748 46.7661 44.1476 43.9527 43.3025C43.4169 43.1423 42.8387 43.2343 42.3784 43.551L37.7072 46.7658L38.1564 42.0302C38.2227 41.3397 37.895 40.6713 37.3095 40.3013C31.2739 36.4752 27.8124 30.7636 27.8124 24.6323C27.8124 13.6327 38.9169 4.68616 52.5678 4.68616C66.2169 4.68616 77.3178 13.6327 77.3178 24.6323C77.3178 35.6282 66.2169 44.5748 52.5678 44.5748Z"
    fill="#1A64A8" stroke="#1C66A9" />
  <path
    d="M68.5315 15.4207H37.1181C36.0999 15.4207 35.2769 16.2437 35.2769 17.2619C35.2769 18.2801 36.0999 19.1031 37.1181 19.1031H68.5315C69.5515 19.1031 70.3727 18.2801 70.3727 17.2619C70.3727 16.2418 69.5497 15.4207 68.5315 15.4207Z"
    fill="#1A64A8" stroke="#1C66A9" />
  <path
    d="M68.5315 22.7856H37.1181C36.0999 22.7856 35.2769 23.6087 35.2769 24.6269C35.2769 25.6451 36.0999 26.4681 37.1181 26.4681H68.5315C69.5515 26.4681 70.3727 25.6451 70.3727 24.6269C70.3727 23.6068 69.5497 22.7856 68.5315 22.7856Z"
    fill="#1A64A8" stroke="#1C66A9" />
  <path
    d="M68.5315 30.1506H37.1181C36.0999 30.1506 35.2769 30.9737 35.2769 31.9919C35.2769 33.0101 36.0999 33.8331 37.1181 33.8331H68.5315C69.5515 33.8331 70.3727 33.0101 70.3727 31.9919C70.3727 30.9718 69.5497 30.1506 68.5315 30.1506Z"
    fill="#1A64A8" stroke="#1C66A9" />
  <path
    d="M37.8358 63.2634L25.5419 58.0601L24.903 56.8743C27.4163 54.1585 29.1378 49.4099 29.1378 44.8676C29.1378 37.44 24.5384 34.1147 19.9777 34.1147C15.4187 34.1147 10.8212 37.44 10.8212 44.8676C10.8212 49.4118 12.5446 54.1603 15.0579 56.8743L14.4171 58.0564L2.12316 63.2634C1.4419 63.5488 1 64.2208 1 64.9573V71.6631C1 72.6813 1.82303 73.5044 2.84124 73.5044H37.1177C38.1359 73.5044 38.959 72.6813 38.959 71.6631V64.9573C38.959 64.2208 38.5171 63.5506 37.8358 63.2634ZM35.2765 69.8219H4.68432V66.1799L16.4498 61.1994C16.8347 61.0337 17.1532 60.7464 17.352 60.38L18.9815 57.3696C19.4142 56.565 19.1951 55.567 18.4642 55.0202C16.2455 53.3612 14.5073 48.9036 14.5073 44.8694C14.5073 40.4449 16.5529 37.7991 19.9813 37.7991C23.4097 37.7991 25.459 40.4449 25.459 44.8694C25.459 48.8981 23.7227 53.3557 21.504 55.0183C20.7749 55.5652 20.554 56.565 20.9885 57.3659L22.6143 60.3782C22.8113 60.7464 23.1299 61.0337 23.5165 61.1994L35.282 66.1799V69.8219H35.2765Z"
    fill="#1A64A8" stroke="#1C66A9" />
</svg>