<svg width="446" height="422" viewBox="0 0 446 422" fill="none" xmlns="http://www.w3.org/2000/svg">
  <path
    d="M20.4915 101.714H1C1 101.714 2.94363 96.888 18.1062 98.4892C18.1062 98.4892 25.6598 89.8423 36.6701 89.8423C36.8817 87.7966 37.7719 85.8805 39.1989 84.3995C40.6259 82.9185 42.5075 81.9577 44.544 81.6702C52.0645 80.2235 53.5222 86.9268 53.5222 86.9268C55.5758 86.0388 57.7894 85.5807 60.0268 85.5807C62.2641 85.5807 64.4777 86.0388 66.5313 86.9268C73.9856 89.8644 72.4726 98.4671 72.4726 98.4671C72.4726 98.4671 93.9851 97.7604 97.6846 101.714H86.6413"
    stroke="#E0E0E0" stroke-linecap="round" stroke-linejoin="round" />
  <path d="M23.8817 101.714H27.1395" stroke="#E0E0E0" stroke-linecap="round" stroke-linejoin="round" />
  <path d="M45.0961 101.659H74.88" stroke="#E0E0E0" stroke-linecap="round" stroke-linejoin="round" />
  <path
    d="M186.628 210.314H158.169C158.169 210.314 159.836 206.195 172.768 207.564C172.768 207.564 179.218 200.188 188.604 200.188C188.788 198.441 189.55 196.807 190.768 195.542C191.986 194.278 193.592 193.457 195.33 193.208C201.746 191.982 202.994 197.703 202.994 197.703C204.746 196.944 206.634 196.553 208.543 196.553C210.452 196.553 212.341 196.944 214.093 197.703C220.454 200.21 219.172 207.553 219.172 207.553C219.172 207.553 237.527 206.946 240.674 210.314H233.783"
    stroke="#E0E0E0" stroke-linecap="round" stroke-linejoin="round" />
  <path d="M193.353 210.104H197.428" stroke="#E0E0E0" stroke-linecap="round" stroke-linejoin="round" />
  <path
    d="M184.607 18.2702H156.093C156.093 18.2702 157.76 14.1511 170.692 15.5315C170.692 15.5315 177.13 8.14348 186.528 8.14348C186.711 6.39801 187.472 4.76379 188.691 3.50101C189.91 2.23823 191.516 1.41948 193.254 1.17512C199.67 -0.0617394 200.918 5.65872 200.918 5.65872C202.662 4.90823 204.541 4.52117 206.44 4.52117C208.338 4.52117 210.217 4.90823 211.961 5.65872C218.322 8.16556 217.03 15.5094 217.03 15.5094C217.03 15.5094 235.395 14.902 238.543 18.2702H231.652"
    stroke="#E0E0E0" stroke-linecap="round" stroke-linejoin="round" />
  <path d="M191.321 18.0603H195.407" stroke="#E0E0E0" stroke-linecap="round" stroke-linejoin="round" />
  <path
    d="M95.1446 262.362H24.0696C29.3704 256.696 60.2697 257.701 60.2697 257.701C60.2697 257.701 58.061 245.355 68.8173 241.136C79.5735 236.918 87.5026 241.136 87.5026 241.136C87.5026 241.136 89.6009 231.506 100.401 233.583C111.202 235.659 111.721 245.322 111.721 245.322C127.546 245.322 138.39 257.757 138.39 257.757C160.168 255.437 162.973 262.373 162.973 262.373H155.033"
    stroke="#E0E0E0" stroke-linecap="round" stroke-linejoin="round" />
  <path d="M149.08 262.362H146.065" stroke="#E0E0E0" stroke-linecap="round" stroke-linejoin="round" />
  <path d="M107.447 262.362H117.828" stroke="#E0E0E0" stroke-linecap="round" stroke-linejoin="round" />
  <path
    d="M338.706 91.7528H253.672C253.672 91.7528 257.195 83.0617 284.494 85.9661C284.494 85.9661 298.1 70.3728 317.922 70.3728C317.922 70.3728 318.585 58.2251 332.124 55.652C345.663 53.0789 348.292 65.1272 348.292 65.1272C348.292 65.1272 358.297 59.8264 371.726 65.1272C385.154 70.428 382.438 85.9219 382.438 85.9219C382.438 85.9219 421.189 84.6519 427.837 91.7528H408.191"
    stroke="#E0E0E0" stroke-linecap="round" stroke-linejoin="round" />
  <path d="M346.834 91.7527H354.741" stroke="#E0E0E0" stroke-linecap="round" stroke-linejoin="round" />
  <path
    d="M362.471 284.029H430.289C430.289 284.029 427.484 277.105 405.706 279.413C405.706 279.413 394.862 266.978 379.047 266.978C379.047 266.978 378.517 257.315 367.717 255.239C356.917 253.163 354.818 262.792 354.818 262.792C354.818 262.792 346.845 258.563 336.133 262.792C325.421 267.022 327.596 279.357 327.596 279.357C327.596 279.357 296.675 278.341 291.385 284.007H311.904"
    stroke="#E0E0E0" stroke-linecap="round" stroke-linejoin="round" />
  <path d="M317.448 284.029H327.453" stroke="#E0E0E0" stroke-linecap="round" stroke-linejoin="round" />
  <path d="M223.159 310.389V256.995H231.961V278.518H240.619V310.71" stroke="#E0E0E0" stroke-linecap="round" stroke-linejoin="round" />
  <path d="M257.604 278.01V227.984H275.207V206.295H308.988V213.992H317.448V264.924" stroke="#E0E0E0" stroke-linecap="round" stroke-linejoin="round" />
  <path d="M354.741 245.565V195.527H366.072V172.866H370.533V133.916H374.233V152.657L383.321 161.746V184.429H393.713V234.124H403.166V247.818" stroke="#E0E0E0" stroke-linecap="round"
    stroke-linejoin="round" />
  <path d="M322.45 238.276H331.13V183.899H338.11V105.712H340.749V158.19H346.834V212.888H351.163" stroke="#E0E0E0" stroke-linecap="round" stroke-linejoin="round" />
  <path d="M253.672 247.818H246.35V231.65H242.452V247.818H236.997V272.069" stroke="#E0E0E0" stroke-linecap="round" stroke-linejoin="round" />
  <path d="M267.322 222.451V184.429H279.193V152.657H283.302V184.429H291.396V201.071" stroke="#E0E0E0" stroke-linecap="round" stroke-linejoin="round" />
  <path d="M279.359 227.984H298.254V270.501" stroke="#E0E0E0" stroke-linecap="round" stroke-linejoin="round" />
  <path d="M271.275 308.026V282.77H249.763V336.175" stroke="#E0E0E0" stroke-linecap="round" stroke-linejoin="round" />
  <path d="M231.961 321.985V314.818H209.962V372.464H204.143" stroke="#E0E0E0" stroke-linecap="round" stroke-linejoin="round" />
  <path d="M370.533 212.324H385.397" stroke="#E0E0E0" stroke-linecap="round" stroke-linejoin="round" />
  <path d="M370.533 220.165H385.397" stroke="#E0E0E0" stroke-linecap="round" stroke-linejoin="round" />
  <path d="M370.533 228.889H384.26" stroke="#E0E0E0" stroke-linecap="round" stroke-linejoin="round" />
  <path d="M303.445 210.314H283.302" stroke="#E0E0E0" stroke-linecap="round" stroke-linejoin="round" />
  <path d="M264.439 237.183H287.52" stroke="#E0E0E0" stroke-linecap="round" stroke-linejoin="round" />
  <path d="M264.439 242.152H287.52" stroke="#E0E0E0" stroke-linecap="round" stroke-linejoin="round" />
  <path d="M264.439 247.818H287.52" stroke="#E0E0E0" stroke-linecap="round" stroke-linejoin="round" />
  <path d="M336.807 194.323V245.565" stroke="#E0E0E0" stroke-linecap="round" stroke-linejoin="round" />
  <path d="M340.749 194.323V245.565" stroke="#E0E0E0" stroke-linecap="round" stroke-linejoin="round" />
  <path d="M50.6067 90.444C50.6067 90.444 62.2685 79.732 70.3412 81.013C71.6885 81.2228 64.7643 94.4086 64.7643 94.4086L50.6067 90.444Z" fill="#7ED2FF" />
  <path opacity="0.5" d="M50.6067 90.444C50.6067 90.444 62.2685 79.732 70.3412 81.013C71.6885 81.2228 64.7643 94.4086 64.7643 94.4086L50.6067 90.444Z" fill="black" fill-opacity="0.7" />
  <path d="M50.6067 90.444C50.6067 90.444 62.2685 79.732 70.3412 81.013C71.6885 81.2228 64.7643 94.4086 64.7643 94.4086L50.6067 90.444Z" stroke="#263238" stroke-linecap="round"
    stroke-linejoin="round" />
  <path
    d="M157.429 136.959C157.429 136.959 157.871 172.054 159.174 177.907C160.364 182.252 162.128 186.419 164.42 190.298C164.42 190.298 160.621 267.193 161.858 270.749C163.094 274.305 168.351 298.645 168.351 298.645L174.469 391.839H172.26C172.26 391.839 163.934 303.879 163.934 301.273C163.934 298.667 157.385 275.741 157.385 275.741C157.385 275.741 156.513 199.475 157.385 195.124C158.257 190.773 152.261 179.277 152.261 179.277C152.261 179.277 152.338 144.004 150.494 140.504C150.538 140.492 154.37 137.356 157.429 136.959Z"
    fill="#757575" />
  <path
    d="M70.3412 177.908C70.3412 177.908 58.4807 197.841 62.2686 215.455C62.2686 215.455 57.7518 275.951 55.9959 279.882C54.24 283.813 42.4568 301.196 38.8345 326.507C36.6445 341.824 33.3224 356.958 28.8955 371.785H44.6654C44.6654 371.785 68.2099 297.275 73.0358 293.377C77.8618 289.479 86.7406 263.416 93.0133 240.159C93.0133 240.159 101.472 281.417 104.841 289.291C108.209 297.165 105.393 319.903 110.208 334.436C114.967 348.793 114.625 371.829 114.625 371.829C114.625 371.829 131.025 375.893 130.87 371.829C129.766 343.713 135.453 319.373 128.418 294.349C125.105 282.665 131.731 214.384 119.65 177.963L70.3412 177.908Z"
    fill="#BFBFBF" />
  <path opacity="0.3"
    d="M92.6711 235.189C92.6711 235.984 92.7925 237.994 92.9361 240.49C86.6635 263.681 77.8509 289.412 73.0581 293.322C68.2652 297.231 44.6876 371.729 44.6876 371.729H28.9398C33.3667 356.903 36.6888 341.769 38.8788 326.452C42.4679 301.14 54.3396 283.802 56.0402 279.86C57.7409 275.917 62.2687 215.532 62.2687 215.532C61.3592 210.953 61.2695 206.25 62.0036 201.64C62.8429 207.636 66.421 215.079 78.5687 217.001C77.8263 214.692 77.6155 212.245 77.9521 209.843C78.2887 207.441 79.1639 205.146 80.5123 203.13C80.5123 203.13 78.1601 215.532 88.1212 221.341C88.5629 221.595 88.4194 223.351 88.4194 223.351C88.4194 223.351 92.6269 232.307 92.6711 235.189Z"
    fill="black" fill-opacity="0.7" />
  <path opacity="0.3"
    d="M121.218 182.954C117.187 185.395 108.452 188.244 89.8549 187.493C86.7938 190.008 84.2284 193.072 82.2902 196.527L80.5122 195.113C80.5122 195.113 71.9977 199.961 62.7434 197.587C64.3243 190.695 66.8828 184.064 70.3412 177.897H119.76C120.257 179.52 120.754 181.21 121.218 182.954Z"
    fill="black" fill-opacity="0.7" />
  <path
    d="M83.5933 85.4303C84.4767 85.0659 128.551 81.7749 130.748 77.2361C128.585 73.1288 126.96 68.7603 125.911 64.2381C123.159 53.802 118.732 43.8814 112.803 34.8627L123.846 32.8418C130.472 51.4609 146.11 67.9818 145.834 85.2536C145.834 85.2536 121.98 101.476 97.6956 104.116C90.7052 104.856 83.5933 85.4303 83.5933 85.4303Z"
    fill="#FFBE9D" />
  <path
    d="M98.2809 73.1611C96.7861 72.9534 95.2645 73.2445 93.9519 73.9894C89.4683 76.7061 90.2855 84.8119 90.2855 84.8119L70.3412 81.013C74.6923 74.6851 73.5769 60.1631 73.5769 60.1631C92.2623 42.6483 96.7679 58.6943 97.8723 67.8935C98.2146 70.4887 98.2699 72.5317 98.2809 73.1611Z"
    fill="#FFBE9D" />
  <path d="M98.281 73.1613C96.7862 72.9535 95.2645 73.2446 93.952 73.9895C92.3542 71.3188 91.3487 68.3361 91.0034 65.2432L97.9055 67.9046C98.2147 70.4888 98.2699 72.5318 98.281 73.1613Z"
    fill="#D76F3B" />
  <path
    d="M63.1851 30.2688C63.1851 30.2688 61.4845 20.3298 78.182 18.8058C94.8796 17.2818 110.208 21.8869 110.208 34.0567C110.208 46.2265 100.136 71.3611 80.0925 60.1632C60.0488 48.9652 63.1851 30.2688 63.1851 30.2688Z"
    fill="#263238" />
  <path
    d="M72.8812 61.5434C71.1584 59.3347 66.6086 51.4056 65.8797 48.3797C61.374 29.7716 71.556 28.4243 79.1318 24.6586C93.5433 17.5135 106.652 32.0024 105.525 44.901C104.399 57.7997 110.484 56.2757 110.208 58.0537C109.976 59.5556 106.111 61.0796 106.111 61.0796C106.049 62.1847 106.082 63.2931 106.21 64.3926L105.26 65.265C104.763 67.7166 103.637 73.9009 102.831 74.0997C101.218 74.5856 92.174 71.4272 90.6831 68.081"
    fill="#FFBE9D" />
  <path
    d="M104.134 50.3457C104.001 51.2844 103.471 51.9801 102.952 51.9139C102.433 51.8476 102.102 51.0194 102.223 50.0807C102.345 49.142 102.886 48.4463 103.416 48.5236C103.946 48.6009 104.3 49.407 104.134 50.3457Z"
    fill="#263238" />
  <path d="M104.841 43.0129C104.841 43.0129 102.433 42.6043 100.015 45.2216" stroke="#263238" stroke-linecap="round" stroke-linejoin="round" />
  <path
    d="M99.8822 24.725C93.2562 19.656 56.2831 14.4436 62.4232 43.6643C61.606 47.2865 64.0907 53.3935 72.3622 63.2994C72.3622 63.2994 76.3709 60.1631 80.6668 62.8577C80.6668 62.8577 83.262 54.8181 87.7345 52.996C88.7013 52.5727 89.5587 51.9344 90.2414 51.1296C102.08 48.17 103.582 36.9389 103.427 33.0075C104.134 31.9363 105.404 28.8993 99.8822 24.725Z"
    fill="#263238" />
  <path
    d="M70.3412 25.5863C70.3412 25.5863 60.7114 14.7638 48.906 20.8046C37.1007 26.8453 40.2591 43.7195 46.7968 52.8303C53.3344 61.9411 45.3169 69.2849 47.8459 74.2434C50.3748 79.2018 55.7087 77.1588 55.7087 77.1588C54.8307 76.6267 54.0883 75.8978 53.5402 75.0296C52.9921 74.1614 52.6532 73.1777 52.5503 72.1562C52.1196 68.5781 59.2978 66.8885 59.2978 56.7617C59.2978 46.635 56.9787 37.5684 65.4158 41.7869C73.853 46.0055 70.3412 25.5863 70.3412 25.5863Z"
    fill="#263238" />
  <path d="M105.272 65.232C105.272 65.232 101.583 65.4198 100.015 63.962" stroke="#263238" stroke-linecap="round" stroke-linejoin="round" />
  <g opacity="0.2">
    <path opacity="0.2" d="M70.3412 25.5867C70.3412 25.5867 76.0837 32.9195 69.1816 38.9933" stroke="white" stroke-linecap="round" stroke-linejoin="round" />
    <path opacity="0.2" d="M99.8822 24.7251C99.8822 24.7251 108.717 34.366 91.0475 45.1664" stroke="white" stroke-linecap="round" stroke-linejoin="round" />
    <path opacity="0.2" d="M96.5691 23.0355C96.5691 23.0355 100.015 26.3485 92.1518 32.8531C84.2889 39.3576 78.4139 41.0472 72.6161 40.7491" stroke="white" stroke-linecap="round"
      stroke-linejoin="round" />
    <path opacity="0.2" d="M67.7019 31.2631C67.7019 31.2631 62.611 22.9806 54.5383 28.6568C46.4656 34.3331 48.2104 42.1518 52.5725 51.1301C56.9347 60.1083 53.975 66.0055 53.975 66.0055" stroke="white"
      stroke-linecap="round" stroke-linejoin="round" />
    <path opacity="0.2" d="M52.3957 21.6661C52.3957 21.6661 42.4567 21.9533 43.2187 34.9182C43.9807 47.8831 48.6078 47.8058 49.6238 54.0563" stroke="white" stroke-linecap="round"
      stroke-linejoin="round" />
    <path opacity="0.2" d="M79.3416 51.1299C79.3416 51.1299 69.4026 53.3386 65.6699 45.1665" stroke="white" stroke-linecap="round" stroke-linejoin="round" />
  </g>
  <path
    d="M88.9272 52.3666C88.9272 52.3666 87.2928 46.4031 82.9638 48.413C78.6348 50.4229 82.4227 56.1434 84.5651 58.8601C84.8492 59.301 85.2548 59.6503 85.7331 59.8657C86.2113 60.0812 86.7417 60.1536 87.2602 60.0742C87.7787 59.9948 88.2631 59.767 88.6549 59.4183C89.0468 59.0696 89.3293 58.6149 89.4684 58.1091"
    fill="#FFBE9D" />
  <path
    d="M88.9272 52.3666C88.9272 52.3666 87.2928 46.4031 82.9638 48.413C78.6348 50.4229 82.4227 56.1434 84.5651 58.8601C84.8492 59.301 85.2548 59.6503 85.7331 59.8657C86.2113 60.0812 86.7417 60.1536 87.2602 60.0742C87.7787 59.9948 88.2631 59.767 88.6549 59.4183C89.0468 59.0696 89.3293 58.6149 89.4684 58.1091"
    stroke="#263238" stroke-linecap="round" stroke-linejoin="round" />
  <path
    d="M68.9608 77.9208L68.497 81.289C51.4571 97.2246 62.7103 134.673 73.4113 158.593L66.5754 180.193C66.5754 180.193 95.7299 189.9 122.3 182.303L119.76 156.936L116.812 137.124C116.812 137.124 119.241 130.377 119.716 117.246C120.191 104.116 95.4649 70.5438 68.9608 77.9208Z"
    fill="#263238" />
  <path
    d="M117.552 38.2533C117.552 38.2533 113.134 40.6166 111.246 39.976C111.246 39.976 101.737 40.5172 101.472 36.4974C103.103 36.2146 104.661 35.6125 106.058 34.7255C107.454 33.8386 108.662 32.6843 109.611 31.3291C111.202 29.1204 124.917 29.1204 124.111 33.7034C123.978 34.4417 123.675 35.1389 123.226 35.7405C122.778 36.3422 122.196 36.8318 121.527 37.171"
    fill="#FFBE9D" />
  <path
    d="M108.617 362.74C108.617 362.74 118.479 359.537 126.353 362.431L128.805 371.774L134.117 362.74C134.117 362.74 132.339 374.104 134.117 377.582C135.895 381.061 146.485 382.706 148.219 384.97C149.953 387.234 150.516 391.839 150.516 391.839H109.357L112.56 377.582L108.617 362.74Z"
    fill="#7ED2FF" />
  <path
    d="M26.5212 362.74C26.5212 362.74 34.2515 359.537 42.1254 362.431L41.3745 371.774L50.9712 362.74C50.9712 362.74 44.9304 374.104 46.7084 377.582C48.4864 381.061 59.077 382.706 60.8108 384.97C62.5446 387.234 63.1078 391.839 63.1078 391.839H21.9271L26.1899 377.582L26.5212 362.74Z"
    fill="#7ED2FF" />
  <path d="M109.369 150.807C109.369 150.807 115.321 142.845 116.381 138.394L117.607 142.259C117.607 142.259 114.46 151.094 109.369 155.677V150.807Z" fill="#BFBFBF" stroke="#263238"
    stroke-linecap="round" stroke-linejoin="round" />
  <path d="M85.7578 154.617C85.7578 154.617 94.0845 157.753 99.9817 155.788C103.865 154.335 107.369 152.02 110.23 149.018L112.151 152.508C112.151 152.508 98.8442 175.699 85.7578 172.187"
    fill="#7ED2FF" />
  <path d="M85.7578 154.617C85.7578 154.617 94.0845 157.753 99.9817 155.788C103.865 154.335 107.369 152.02 110.23 149.018L112.151 152.508C112.151 152.508 98.8442 175.699 85.7578 172.187"
    stroke="#263238" stroke-linecap="round" stroke-linejoin="round" />
  <path
    d="M86.6301 185.152C82.3011 196.526 40.3585 193.909 32.1974 187.515C30.3973 186.102 28.7298 183.374 27.2721 179.928C24.3734 172.564 22.4251 164.86 21.4743 157.002C21.2203 154.959 21.0436 153.027 20.9663 151.293C20.7786 147.406 21.0547 144.479 21.8829 143.419C25.1959 139.211 28.8954 135.136 28.8954 135.136C28.8954 135.136 22.4461 100.681 28.8954 97.3902C34.2174 94.2138 40.0442 91.9727 46.1231 90.7642C55.4437 89.1187 71.1253 84.4805 78.1488 94.0772C78.5079 94.5824 78.815 95.1226 79.0654 95.6895C85.6804 109.726 90.7714 174.263 86.6301 185.152Z"
    fill="#7ED2FF" />
  <path opacity="0.3"
    d="M83.6302 185.152C79.3012 196.527 37.3585 193.909 29.1975 187.515C27.3974 186.102 25.7299 183.374 24.2721 179.928C21.9751 172.077 19.8548 163.01 18.5296 157.002C17.7013 153.215 17.1712 150.653 17.1271 150.376C17.3392 150.756 17.6478 151.072 18.0216 151.293C19.9983 152.707 26.2268 155.346 45.63 156.627C45.63 156.627 31.5166 160.547 20.4511 155.699C20.4511 155.699 24.239 178.537 28.314 183.043C32.389 187.548 50.8866 191.347 55.2598 188.874C59.633 186.4 56.6623 163.187 57.5679 160.812C58.4734 158.438 61.9852 156.461 62.173 155.699C62.3607 154.937 63.1227 143.795 63.1227 143.795C63.1227 143.795 35.8898 138.207 28.314 138.416C20.7383 138.626 31.5166 133.237 39.0923 134.11C46.6681 134.982 61.8085 138.207 62.173 138.416C62.5374 138.626 59.0256 105.11 55.1052 100.096C51.1848 95.0823 60.0526 95.3032 62.173 103.276C64.2049 111.007 69.2959 139.057 69.6604 140.99C69.572 139.455 68.556 122.989 67.5179 116.849C66.4688 110.411 66.5682 101.929 67.6836 101.057C68.799 100.184 74.4311 97.9536 74.9612 96.7388C75.2428 96.3081 75.6209 95.9489 76.0655 95.6897C82.6805 109.726 87.7715 174.263 83.6302 185.152Z"
    fill="black" fill-opacity="0.7" />
  <path
    d="M30.7286 126.081C30.7286 126.081 26.3113 110.62 28.9396 106.645C31.5679 102.669 48.2103 103.332 51.2693 106.645C54.3283 109.958 54.5823 128.488 54.5823 128.488C54.5823 128.488 40.3805 125.308 34.0527 126.28"
    fill="#64A6C9" />
  <path
    d="M70.3412 90.7423C70.3412 90.7423 88.0106 81.0463 97.2539 84.039C106.497 87.0318 110.23 96.3745 110.23 96.3745C110.23 96.3745 107.071 87.6502 98.2809 88.2134C89.4904 88.7766 76.8236 97.5119 76.8236 97.5119"
    fill="#7ED2FF" />
  <path
    d="M70.3412 90.7423C70.3412 90.7423 88.0106 81.0463 97.2539 84.039C106.497 87.0318 110.23 96.3745 110.23 96.3745C110.23 96.3745 107.071 87.6502 98.2809 88.2134C89.4904 88.7766 76.8236 97.5119 76.8236 97.5119"
    stroke="#263238" stroke-linecap="round" stroke-linejoin="round" />
  <path
    d="M98.2809 88.169C98.2809 88.169 108.22 87.3408 111.268 92.0011C114.316 96.6614 111.268 108.776 111.268 108.776C111.268 108.776 113.885 111.868 109.368 114.099C104.852 116.33 92.715 117.544 89.8327 113.149C86.9504 108.754 88.4965 90.0022 98.2809 88.169Z"
    fill="#263238" />
  <path
    d="M110.561 109.648C110.561 109.648 100.048 147.649 103.493 151.359C107.931 151.606 112.328 152.347 116.602 153.568C136.336 158.593 147.523 154.948 147.523 154.948L145.425 165.937C125.657 165.417 106.541 169.007 90.5506 162.491C90.5506 162.491 84.046 134.397 90.3739 110.797C90.3739 110.797 92.2071 108.434 97.6404 107.727C102.043 107.046 106.548 107.716 110.561 109.648Z"
    fill="#FFBE9D" />
  <path
    d="M144.464 165.97C148.219 168.432 153.652 164.567 158.677 165.042C163.702 165.517 161.272 151.127 161.272 151.127C161.272 151.127 154.989 148.123 153.144 147.45C151.3 146.776 148.55 150.94 142.741 156.285"
    fill="#FFBE9D" />
  <path
    d="M344.393 386.743C344.393 386.743 342.074 362.337 346.79 339.743C351.505 317.148 342.372 314.475 338.595 320.671C334.819 326.866 333.593 347.385 333.593 347.385C333.593 347.385 331.693 326.59 328.425 315.988C323.632 300.45 318.486 288.612 311.65 292.112C303.71 296.154 322.163 324.138 325.796 356.893C325.796 356.893 310.932 341.587 303.809 327.319C296.686 313.051 288.039 321.72 294.389 334.497C300.739 347.274 315.868 351.945 324.206 365.496C324.206 365.496 303.389 353.083 299.182 360.603C296.807 364.844 305.278 365.739 309.055 366.655C327.409 371.073 335.912 390.144 335.912 390.144L344.393 386.743Z"
    fill="#7ED2FF" stroke="#E0E0E0" stroke-linecap="round" stroke-linejoin="round" />
  <path opacity="0.2"
    d="M344.393 386.743C344.393 386.743 342.074 362.337 346.79 339.743C351.505 317.148 342.372 314.475 338.595 320.671C334.819 326.866 333.593 347.385 333.593 347.385C333.593 347.385 331.693 326.59 328.425 315.988C323.632 300.45 318.486 288.612 311.65 292.112C303.71 296.154 322.163 324.138 325.796 356.893C325.796 356.893 310.932 341.587 303.809 327.319C296.686 313.051 288.039 321.72 294.389 334.497C300.739 347.274 315.868 351.945 324.206 365.496C324.206 365.496 303.389 353.083 299.182 360.603C296.807 364.844 305.278 365.739 309.055 366.655C327.409 371.073 335.912 390.144 335.912 390.144L344.393 386.743Z"
    fill="black" fill-opacity="0.7" stroke="#E0E0E0" stroke-miterlimit="10" />
  <path
    d="M343.532 357.158C343.532 357.158 344.758 334.928 336.652 316.507C328.546 298.087 335.779 296.629 340.119 301.256C344.459 305.884 347.772 329.715 347.772 329.715C347.772 329.715 351.582 308.357 349.849 293.581C348.115 278.805 348.236 270.501 354.321 270.501C362.052 270.501 360.274 306.657 353.99 328.324C353.99 328.324 363.929 312.576 367.396 299.114C370.864 285.652 379.831 291.483 376.717 303.531C373.603 315.58 361.566 322.305 356.905 335.369C356.905 335.369 372.366 321.013 377.369 326.667C380.163 329.859 373.095 332.189 370.036 333.613C355.183 340.725 351.373 358.516 351.373 358.516L343.532 357.158Z"
    fill="#7ED2FF" stroke="#E0E0E0" stroke-linecap="round" stroke-linejoin="round" />
  <path d="M340.749 315.591C347.64 331.129 348.037 353.801 348.037 353.801C348.037 353.801 357.093 308.755 354.818 289.749" stroke="#E0E0E0" stroke-linecap="round" stroke-linejoin="round" />
  <path d="M370.533 306.657C370.533 306.657 360.417 327.992 351.163 336.176" stroke="#E0E0E0" stroke-linecap="round" stroke-linejoin="round" />
  <path d="M370.533 329.649C370.533 329.649 353.438 340.692 349.241 347.385" stroke="#E0E0E0" stroke-linecap="round" stroke-linejoin="round" />
  <path
    d="M329.198 384.38C329.198 384.38 316.144 366.39 313.03 346.512C309.916 326.634 303.036 329.34 301.865 335.557C300.695 341.774 310.799 363.629 310.799 363.629C310.799 363.629 296.045 347.616 289.585 334.298C283.125 320.98 278.475 314 273.351 317.291C266.814 321.488 287.873 350.929 304.869 365.761C304.869 365.761 288.028 357.865 277.813 348.434C267.598 339.003 263.225 348.732 272.291 357.191C281.358 365.65 295.184 364.789 306.172 373.27C306.172 373.27 285.366 369.571 284.251 377.003C283.622 381.199 290.8 379.311 294.19 378.891C310.523 376.848 323.334 389.758 323.334 389.758L329.198 384.38Z"
    fill="#7ED2FF" stroke="#E0E0E0" stroke-linecap="round" stroke-linejoin="round" />
  <path d="M309.065 347.893C311.672 364.701 323.587 383.982 323.587 383.982C323.587 383.982 291.628 350.985 283.301 333.779" stroke="#E0E0E0" stroke-linecap="round" stroke-linejoin="round" />
  <path d="M279.193 356.451C279.193 356.451 299.226 368.941 311.44 370.808" stroke="#E0E0E0" stroke-linecap="round" stroke-linejoin="round" />
  <path d="M291.617 375.821C291.617 375.821 311.937 375.821 319.104 379.245" stroke="#E0E0E0" stroke-linecap="round" stroke-linejoin="round" />
  <path d="M376.739 307.032C376.739 307.032 393.37 308.346 394.055 320.615C394.055 320.615 377.225 328.357 376.739 307.032Z" fill="#7ED2FF" stroke="#E0E0E0" stroke-linecap="round"
    stroke-linejoin="round" />
  <path d="M409.626 310.069C409.626 310.069 418.914 297.513 433.922 303.951C433.922 303.962 424.756 319.147 409.626 310.069Z" fill="#7ED2FF" stroke="#E0E0E0" stroke-linecap="round"
    stroke-linejoin="round" />
  <path d="M432.652 270.434C432.652 270.434 435.357 294.608 413.337 287.982C413.337 287.982 420.316 270.18 432.652 270.434Z" fill="#7ED2FF" stroke="#E0E0E0" stroke-linecap="round"
    stroke-linejoin="round" />
  <path d="M405.651 256.995C405.651 256.995 423.044 266.37 410.256 280.594C410.256 280.594 398.064 270.434 405.651 256.995Z" fill="#7ED2FF" stroke="#E0E0E0" stroke-linecap="round"
    stroke-linejoin="round" />
  <path d="M384.26 278.573C384.26 278.573 403.166 276.663 403.166 294.167C403.166 294.167 384.26 294.917 384.26 278.573Z" fill="#7ED2FF" stroke="#E0E0E0" stroke-linecap="round"
    stroke-linejoin="round" />
  <path d="M402.084 345.596C402.084 345.596 393.47 327.506 401.741 309.075C410.013 290.644 412.785 275.139 408.489 264.206" stroke="#E0E0E0" stroke-linecap="round" stroke-linejoin="round" />
  <path d="M390.466 283.278C390.466 283.278 401.797 287.784 405.651 299.456" stroke="#E0E0E0" stroke-linecap="round" stroke-linejoin="round" />
  <path d="M426.677 280.097C426.677 280.097 420.129 289.02 409.008 288.06" stroke="#E0E0E0" stroke-linecap="round" stroke-linejoin="round" />
  <path d="M426.677 306.524C426.677 306.524 408.533 311.759 401.278 310.047" stroke="#E0E0E0" stroke-linecap="round" stroke-linejoin="round" />
  <path d="M382.162 312.554C382.162 312.554 390.267 321.455 398.429 321.311" stroke="#E0E0E0" stroke-linecap="round" stroke-linejoin="round" />
  <path d="M270.977 370.035C270.977 370.035 256.532 373.568 257.725 384.468C257.67 384.468 273.605 388.886 270.977 370.035Z" fill="#7ED2FF" stroke="#E0E0E0" stroke-linecap="round"
    stroke-linejoin="round" />
  <path d="M242.452 377.433C242.452 377.433 232.513 367.704 220.188 375.523C220.188 375.501 230.426 387.56 242.452 377.433Z" fill="#7ED2FF" stroke="#E0E0E0" stroke-linecap="round"
    stroke-linejoin="round" />
  <path d="M216.522 345.794C216.522 345.794 217.627 367.45 236.036 358.45C236.036 358.45 227.345 343.807 216.522 345.794Z" fill="#7ED2FF" stroke="#E0E0E0" stroke-linecap="round"
    stroke-linejoin="round" />
  <path d="M238.377 330.09C238.377 330.09 224.429 340.836 237.681 351.537C237.681 351.537 246.98 340.847 238.377 330.09Z" fill="#7ED2FF" stroke="#E0E0E0" stroke-linecap="round"
    stroke-linejoin="round" />
  <path d="M260.298 346.048C260.298 346.048 243.38 347.064 245.875 362.481C245.875 362.481 262.639 360.438 260.298 346.048Z" fill="#7ED2FF" stroke="#E0E0E0" stroke-linecap="round"
    stroke-linejoin="round" />
  <path d="M254.169 407.615C254.169 407.615 259.183 390.454 249.266 375.413C239.349 360.372 234.666 347.097 236.908 336.849" stroke="#E0E0E0" stroke-linecap="round" stroke-linejoin="round" />
  <path d="M255.505 351.073C255.505 351.073 246.162 356.661 244.462 367.494" stroke="#E0E0E0" stroke-linecap="round" stroke-linejoin="round" />
  <path d="M223.17 353.447C223.17 353.447 230.205 360.371 239.835 357.942" stroke="#E0E0E0" stroke-linecap="round" stroke-linejoin="round" />
  <path d="M226.936 376.727C226.936 376.727 243.656 378.737 249.763 376.197" stroke="#E0E0E0" stroke-linecap="round" stroke-linejoin="round" />
  <path d="M267.001 375.677C267.001 375.677 261.126 384.667 253.926 385.705" stroke="#E0E0E0" stroke-linecap="round" stroke-linejoin="round" />
  <path
    d="M25.3063 419.012C96.3261 419.398 168.108 419.398 238.785 419.398C240.994 419.398 242.098 417.19 243.203 416.085C248.725 407.25 254.246 399.52 261.977 392.894C268.603 392.894 275.229 392.894 280.75 390.685C290.689 386.268 300.628 385.164 310.567 380.746C317.193 377.433 326.028 373.016 326.028 365.286C327.132 359.764 332.654 357.555 335.967 354.242C337.071 353.138 337.071 352.034 338.176 350.929C340.384 348.721 342.593 346.512 344.802 346.512C352.47 347.795 360.22 348.533 367.993 348.721C371.615 349.924 378.363 353.326 381.93 351.548C383.973 350.521 389.66 342.823 390.024 340.979C390.963 335.612 396.429 332.465 401.322 330.057C402.592 329.428 404.204 328.832 405.319 329.693C406.435 330.554 406.324 331.902 407.02 332.873C408.213 334.574 410.764 334.397 412.774 333.834C414.784 333.271 417.025 332.509 418.814 333.569C420.095 334.331 420.725 335.778 421.608 337.015C422.848 338.689 424.646 339.864 426.677 340.328C427.373 340.482 428.168 340.604 428.555 341.2"
    stroke="#E0E0E0" stroke-linecap="round" stroke-linejoin="round" />
  <path
    d="M370.533 370.034C375.248 370.388 382.084 367.218 382.161 367.494C382.239 367.771 390.466 368.764 390.466 368.764C390.466 368.764 401.366 371.868 403.166 370.034C404.966 368.201 410.521 369.46 414.949 369.052C419.378 368.643 423.894 372.232 423.894 372.232C423.894 372.232 431.713 378.935 432.729 379.245C433.745 379.554 441.63 381.862 444.689 383.982"
    stroke="#E0E0E0" stroke-linecap="round" stroke-linejoin="round" />
  <path d="M238.786 419.398H257.559C257.559 419.398 269.707 413.137 275.936 413.821C282.164 414.506 287.476 419.012 287.476 419.012H298.21L311.396 420.668H320.098" stroke="#E0E0E0"
    stroke-linecap="round" stroke-linejoin="round" />
  <path
    d="M364.327 392.055C361.709 389.173 350.765 388.565 349.241 385.815C347.717 383.066 338.121 389.36 336.807 388.388C335.492 387.417 328.579 389.161 327.453 392.441C326.326 395.721 326.879 396.318 322.45 397.963"
    stroke="#E0E0E0" stroke-linecap="round" stroke-linejoin="round" />
  <path
    d="M434.463 353.259C433.627 352.527 432.559 352.113 431.448 352.09C430.337 352.068 429.253 352.439 428.389 353.138C428.139 353.377 427.874 353.598 427.594 353.801C426.795 354.148 425.92 354.281 425.054 354.187C423.093 354.234 421.199 354.912 419.654 356.12C419.196 356.565 418.656 356.918 418.063 357.158C417.701 357.242 417.331 357.29 416.959 357.301C415.984 357.43 415.059 357.811 414.276 358.406"
    stroke="#E0E0E0" stroke-linecap="round" stroke-linejoin="round" />
  <path
    d="M376.297 419.84C381.101 421.96 387.032 420.094 390.654 416.262C393.525 413.203 395.855 408.653 400.052 408.476C401.156 408.476 402.26 408.719 403.365 408.73C405.849 408.73 408.091 407.394 410.399 406.522C412.707 405.649 415.59 405.174 417.456 406.809C418.693 407.913 419.212 409.669 420.559 410.619C421.906 411.568 423.64 411.425 425.23 411.723C426.821 412.021 428.544 413.313 428.212 414.903"
    stroke="#E0E0E0" stroke-linecap="round" stroke-linejoin="round" />
</svg>