<svg width="412" height="433" viewBox="0 0 412 433" fill="none" xmlns="http://www.w3.org/2000/svg">
  <path
    d="M255.414 421.089C255.414 423.679 238.931 425.815 218.553 425.815C198.175 425.815 181.692 423.717 181.692 421.089C181.692 418.462 198.185 416.411 218.553 416.411C238.921 416.411 255.414 418.5 255.414 421.089Z"
    fill="#E0E0E0" />
  <path
    d="M146.106 117.625C149.155 115.787 152.435 114.363 155.86 113.391L157.845 103.741L174.14 103.457L176.484 113.032C179.94 113.881 183.268 115.188 186.38 116.917L194.612 111.52L206.341 122.862L201.238 131.283C203.076 134.329 204.5 137.606 205.472 141.028L215.113 143.031L215.406 159.336L205.831 161.68C204.98 165.133 203.674 168.457 201.946 171.566L207.343 179.808L196.001 191.537L187.618 186.452C184.574 188.294 181.296 189.718 177.873 190.687L175.86 200.337L159.565 200.62L157.221 191.055C153.766 190.206 150.441 188.896 147.335 187.161L139.093 192.558L127.364 181.216L132.477 172.804C130.637 169.755 129.21 166.475 128.233 163.05L118.592 161.046L118.309 144.752L127.874 142.398C128.724 138.943 130.034 135.618 131.768 132.512L126.371 124.279L137.713 112.55L146.134 117.654L146.106 117.625ZM154.802 139.364C152.4 141.852 150.79 144.997 150.175 148.4C149.56 151.803 149.968 155.312 151.348 158.483C152.727 161.654 155.016 164.345 157.925 166.216C160.833 168.086 164.231 169.052 167.689 168.991C171.147 168.931 174.509 167.846 177.35 165.874C180.191 163.903 182.384 161.133 183.651 157.915C184.918 154.697 185.203 151.176 184.469 147.797C183.735 144.417 182.015 141.332 179.527 138.929C177.877 137.333 175.928 136.076 173.793 135.233C171.657 134.389 169.376 133.974 167.08 134.012C164.784 134.049 162.518 134.539 160.411 135.453C158.305 136.366 156.398 137.686 154.802 139.336V139.364Z"
    fill="#F5F5F5" />
  <path
    d="M241.965 146.065C244.527 145.173 247.197 144.633 249.904 144.458L252.929 137.578L265.131 139.959L265.358 147.474C267.798 148.653 270.068 150.157 272.106 151.944L279.11 149.232L286.047 159.534L280.906 164.997C281.792 167.563 282.333 170.236 282.512 172.946L289.384 175.97L287.002 188.172L279.497 188.399C278.323 190.838 276.826 193.108 275.046 195.148L277.768 202.151L267.484 209.136L262.021 203.994C259.458 204.88 256.788 205.42 254.082 205.601L251.048 212.472L238.808 210.081L238.581 202.577C236.139 201.392 233.866 199.885 231.823 198.097L224.829 200.819L217.882 190.507L223.033 185.044C222.143 182.482 221.603 179.811 221.426 177.104L214.555 174.033L216.927 161.84L224.489 161.613C225.668 159.17 227.172 156.897 228.959 154.855L226.247 147.861L236.549 140.914L242.022 146.065H241.965ZM244.98 163.626C242.792 165.099 241.089 167.188 240.088 169.629C239.087 172.07 238.832 174.752 239.356 177.338C239.88 179.923 241.159 182.295 243.031 184.154C244.903 186.013 247.284 187.274 249.873 187.779C252.462 188.284 255.143 188.01 257.576 186.992C260.01 185.973 262.086 184.256 263.544 182.057C265.001 179.858 265.773 177.276 265.763 174.638C265.753 172 264.96 169.425 263.486 167.237C261.51 164.307 258.453 162.282 254.985 161.605C251.517 160.928 247.922 161.655 244.989 163.626H244.98Z"
    fill="#EBEBEB" />
  <path
    d="M309.289 335.354C309.509 335.503 309.68 335.715 309.781 335.961C309.882 336.208 309.907 336.479 309.854 336.74C309.802 337.001 309.673 337.241 309.484 337.429C309.296 337.617 309.056 337.745 308.795 337.797C308.533 337.85 308.263 337.823 308.016 337.722C307.77 337.621 307.559 337.449 307.41 337.229C307.261 337.008 307.18 336.748 307.178 336.482C307.176 336.216 307.253 335.955 307.399 335.732C307.497 335.582 307.624 335.453 307.773 335.352C307.921 335.252 308.089 335.182 308.264 335.147C308.44 335.111 308.622 335.112 308.798 335.147C308.973 335.183 309.14 335.253 309.289 335.354V335.354Z"
    fill="#E0E0E0" />
  <path
    d="M375.857 279.504C375.91 279.766 375.884 280.038 375.782 280.285C375.68 280.533 375.507 280.744 375.285 280.893C375.063 281.042 374.801 281.122 374.534 281.122C374.266 281.123 374.005 281.044 373.782 280.895C373.56 280.747 373.386 280.536 373.284 280.289C373.181 280.042 373.154 279.77 373.206 279.507C373.258 279.245 373.387 279.004 373.576 278.815C373.765 278.626 374.007 278.497 374.269 278.445C374.62 278.375 374.984 278.448 375.282 278.646C375.579 278.845 375.786 279.153 375.857 279.504Z"
    fill="#E0E0E0" />
  <path
    d="M318.523 338.047C318.539 338.115 318.534 338.186 318.509 338.251C318.484 338.316 318.44 338.373 318.383 338.413C318.326 338.453 318.258 338.475 318.188 338.476C318.118 338.477 318.05 338.457 317.992 338.419C317.933 338.381 317.887 338.326 317.86 338.262C317.833 338.198 317.826 338.127 317.839 338.059C317.853 337.99 317.886 337.927 317.936 337.878C317.985 337.829 318.048 337.796 318.117 337.783C318.161 337.773 318.206 337.772 318.251 337.78C318.295 337.788 318.337 337.805 318.375 337.83C318.413 337.854 318.446 337.886 318.471 337.924C318.496 337.961 318.514 338.003 318.523 338.047V338.047Z"
    fill="#E0E0E0" />
  <path
    d="M318.334 299.522C318.344 299.567 318.344 299.613 318.335 299.658C318.327 299.703 318.309 299.746 318.284 299.784C318.258 299.822 318.225 299.854 318.187 299.879C318.148 299.904 318.105 299.921 318.06 299.929C317.975 299.934 317.892 299.908 317.825 299.856C317.758 299.804 317.712 299.73 317.696 299.646C317.68 299.563 317.694 299.477 317.737 299.404C317.78 299.33 317.847 299.275 317.928 299.248C318.018 299.231 318.111 299.251 318.187 299.302C318.263 299.353 318.316 299.432 318.334 299.522Z"
    fill="#E0E0E0" />
  <path
    d="M374.42 307.14C374.432 307.207 374.424 307.275 374.397 307.336C374.371 307.398 374.326 307.45 374.27 307.487C374.213 307.523 374.147 307.542 374.08 307.541C374.013 307.54 373.947 307.519 373.892 307.481C373.837 307.443 373.794 307.389 373.769 307.327C373.744 307.264 373.738 307.196 373.752 307.13C373.767 307.064 373.8 307.004 373.848 306.957C373.896 306.91 373.957 306.879 374.023 306.866C374.112 306.852 374.203 306.873 374.276 306.924C374.35 306.975 374.402 307.053 374.42 307.14V307.14Z"
    fill="#E0E0E0" />
  <path
    d="M375.989 290.524C375.999 290.569 375.999 290.615 375.99 290.66C375.982 290.705 375.964 290.748 375.938 290.786C375.913 290.824 375.88 290.856 375.841 290.881C375.803 290.906 375.76 290.923 375.715 290.931C375.671 290.939 375.626 290.938 375.582 290.929C375.538 290.92 375.496 290.902 375.459 290.876C375.423 290.851 375.391 290.818 375.367 290.78C375.343 290.743 375.326 290.701 375.318 290.657C375.308 290.613 375.308 290.568 375.316 290.524C375.324 290.48 375.341 290.439 375.366 290.402C375.39 290.365 375.422 290.333 375.46 290.309C375.497 290.284 375.539 290.267 375.583 290.26C375.627 290.25 375.672 290.249 375.717 290.257C375.761 290.265 375.803 290.282 375.841 290.307C375.879 290.331 375.912 290.363 375.937 290.401C375.962 290.438 375.98 290.48 375.989 290.524V290.524Z"
    fill="#E0E0E0" />
  <path
    d="M299.828 103.098C296.963 95.5823 292.573 88.7408 286.936 83.0038C277.182 73.0323 266.085 64.2328 253.515 58.0515C240.944 51.8701 220.434 46.3881 205.529 46.4732C197.826 46.1802 193.932 46.6622 186.918 49.3654C182.533 51.0572 178.856 54.9608 178.554 59.5826C178.27 63.8642 180.917 69.1288 184.461 71.624C199.659 82.3422 211.171 82.8998 225.897 87.6162C240.623 92.3326 255.812 99.3268 263.76 112.436C268.07 119.553 270.528 128.655 278.013 132.436C285.272 136.094 294.847 132.54 299.299 125.82C303.75 119.1 302.692 110.612 299.828 103.098Z"
    fill="#F5F5F5" />
  <path
    d="M97.7422 237.586L96.6458 238.2C95.918 238.597 94.8122 239.145 93.4133 239.986C89.3002 242.329 85.3299 244.914 81.5232 247.727C75.4868 252.158 69.8738 257.138 64.756 262.604C61.5505 266.006 58.5491 269.594 55.7674 273.351C52.6086 277.528 49.876 282.012 47.6107 286.734C46.4228 289.285 45.4061 291.912 44.5672 294.598C43.7359 297.415 43.1726 300.304 42.8848 303.227C42.6303 306.27 42.7957 309.332 43.3763 312.329C43.6819 313.877 44.1021 315.4 44.6334 316.885C45.1926 318.381 45.8722 319.828 46.6655 321.214C50.0851 326.967 54.9798 331.701 60.843 334.928C67.0736 338.325 73.8582 340.587 80.8805 341.611C84.4626 342.206 88.1299 342.612 91.8444 342.896C93.7347 343.057 95.625 343.123 97.4586 343.198L103.13 343.444C105.02 343.567 106.91 343.529 108.867 343.52H114.68C116.627 343.52 118.574 343.397 120.54 343.321L126.447 343.047C142.781 341.976 158.996 339.542 174.924 335.769C207.722 328.151 237.693 316.28 264.082 303.965C277.314 297.849 289.658 291.46 300.083 283.748C305.126 280.061 309.77 275.857 313.939 271.205L315.414 269.523C315.905 268.965 316.359 268.37 316.794 267.793L318.155 266.064C318.561 265.468 318.977 264.873 319.393 264.287C321.044 262.008 322.456 259.566 323.608 256.999C325.858 252.28 326.99 247.105 326.916 241.877C326.832 237.184 324.959 232.701 321.68 229.344C318.714 226.551 314.982 224.708 310.962 224.051C307.599 223.449 304.155 223.449 300.792 224.051C298.104 224.523 295.461 225.222 292.89 226.14C290.65 226.915 288.798 227.69 287.304 228.314L283.911 229.769L282.749 230.261L283.892 229.722C284.648 229.382 285.783 228.862 287.257 228.219C288.732 227.576 290.603 226.792 292.843 225.998C295.419 225.065 298.068 224.351 300.764 223.862C304.149 223.243 307.618 223.227 311.009 223.815C315.081 224.474 318.864 226.33 321.879 229.145C325.211 232.554 327.123 237.102 327.228 241.867C327.324 247.157 326.195 252.398 323.93 257.179C322.772 259.767 321.35 262.228 319.686 264.523L318.448 266.319C317.994 266.895 317.502 267.481 317.087 268.058C316.671 268.634 316.189 269.239 315.707 269.806L314.223 271.498C310.041 276.177 305.381 280.406 300.319 284.116C289.875 291.876 277.494 298.294 264.271 304.418C237.872 316.762 207.873 328.662 175.038 336.289C142.203 343.917 109.727 346.1 80.7859 342.102C73.7156 341.067 66.8858 338.782 60.6161 335.354C54.6907 332.057 49.7537 327.238 46.3158 321.393C44.7114 318.607 43.5927 315.567 43.0077 312.405C42.4253 309.37 42.2631 306.269 42.5257 303.19C42.816 300.242 43.3921 297.33 44.2459 294.494C45.0699 291.792 46.0773 289.148 47.261 286.583C49.5568 281.851 52.3109 277.356 55.4839 273.162C62.7881 263.386 71.514 254.759 81.3719 247.567C85.1956 244.768 89.1886 242.208 93.3283 239.901C96.2016 238.313 97.7422 237.586 97.7422 237.586Z"
    fill="#E0E0E0" />
  <g opacity="0.3">
    <path opacity="0.3"
      d="M84.7271 307.509C84.2196 307.781 83.6429 307.896 83.0699 307.84C82.4968 307.785 81.9533 307.56 81.5078 307.195C81.0624 306.831 80.7351 306.342 80.5674 305.791C80.3997 305.24 80.3991 304.652 80.5656 304.101C80.7321 303.55 81.0583 303.061 81.503 302.695C81.9476 302.329 82.4907 302.103 83.0636 302.046C83.6365 301.989 84.2135 302.103 84.7216 302.374C85.2296 302.645 85.646 303.06 85.918 303.568C86.2803 304.249 86.3583 305.046 86.1352 305.784C85.9121 306.522 85.4059 307.143 84.7271 307.509V307.509Z"
      fill="white" />
  </g>
  <g opacity="0.3">
    <path opacity="0.3"
      d="M97.1656 292.311C97.0805 292.519 95.6061 291.942 93.1392 291.706C89.953 291.36 86.7352 291.952 83.8808 293.409C81.0264 294.867 78.6598 297.126 77.0714 299.91C75.8143 302.046 75.4174 303.577 75.1811 303.53C74.9448 303.482 75.0866 301.847 76.1924 299.456C76.8453 298.059 77.7057 296.768 78.7443 295.628C81.3101 292.768 84.8469 290.962 88.6686 290.562C90.2032 290.39 91.755 290.45 93.2715 290.742C95.8707 291.252 97.2412 292.178 97.1656 292.311Z"
      fill="white" />
  </g>
  <path
    d="M0.683176 157.606L0.19169 158.929C0.0418066 159.335 -0.0213367 159.767 0.00634032 160.199C0.0340173 160.63 0.151899 161.051 0.352368 161.434L27.1005 212.615C27.2913 212.99 27.5579 213.321 27.8832 213.588C28.2086 213.855 28.5857 214.051 28.9909 214.165L30.5126 214.581C30.8548 214.669 31.2092 214.701 31.5617 214.675L62.7521 212.218C63.4967 212.161 64.1952 211.836 64.7171 211.302C65.2389 210.767 65.5484 210.062 65.5876 209.316V209.316C65.6216 208.748 65.4973 208.182 65.2285 207.681L36.8735 154.818C36.6002 154.307 36.1883 153.883 35.6851 153.595C35.1818 153.308 34.6077 153.168 34.0286 153.192L3.33909 155.602C2.75173 155.649 2.18995 155.863 1.71957 156.218C1.24919 156.573 0.889682 157.054 0.683176 157.606V157.606Z"
    fill="#E0E0E0" />
  <path d="M2.63965 156.878L31.0135 209.921L63.168 207.397L35.0115 154.336L2.63965 156.878Z" fill="#FAFAFA" />
  <path
    d="M34.2838 197.123C35.143 196.764 36.0891 196.666 37.0035 196.843C37.9179 197.02 38.7597 197.462 39.4233 198.116C40.0868 198.769 40.5425 199.604 40.7332 200.516C40.9238 201.427 40.8409 202.375 40.4948 203.239C40.1487 204.104 39.5549 204.847 38.7879 205.375C38.0209 205.903 37.115 206.193 36.1838 206.208C35.2527 206.223 34.3378 205.963 33.5542 205.46C32.7705 204.957 32.153 204.233 31.7791 203.38C31.5273 202.806 31.3924 202.187 31.3822 201.56C31.3721 200.932 31.4869 200.309 31.7201 199.727C31.9532 199.144 32.3 198.614 32.7401 198.167C33.1803 197.72 33.7051 197.365 34.2838 197.123V197.123Z"
    fill="#E0E0E0" />
  <path
    d="M36.2118 199.278L36.0795 200.139C36.0728 200.191 36.0829 200.244 36.1084 200.29C36.1339 200.335 36.1735 200.372 36.2213 200.394L36.382 200.46C36.382 200.46 36.675 200.536 36.5899 200.8C36.5048 201.065 36.0417 202.171 36.0417 202.171C36.0417 202.171 35.9188 202.492 35.6731 202.388L35.4368 202.294C35.3981 202.276 35.3547 202.272 35.3136 202.283C35.2724 202.293 35.2359 202.317 35.21 202.35L34.6051 203.106C34.5704 203.142 34.551 203.189 34.551 203.239C34.551 203.288 34.5704 203.336 34.6051 203.371L34.8224 203.588C34.8624 203.627 34.911 203.657 34.9642 203.674C35.1123 203.717 35.2698 203.717 35.4179 203.674C35.8338 203.436 36.1962 203.116 36.4824 202.732C36.7687 202.348 36.9726 201.909 37.0814 201.443C37.5918 199.959 37.0814 199.401 36.9963 199.26C36.8913 199.15 36.7502 199.083 36.5994 199.071H36.4198C36.3667 199.077 36.3173 199.1 36.2795 199.138C36.2418 199.176 36.2179 199.225 36.2118 199.278Z"
    fill="white" />
  <path
    d="M46.7692 203.191C46.0671 202.58 45.5614 201.774 45.3156 200.876C45.0698 199.978 45.0948 199.027 45.3875 198.143C45.6802 197.259 46.2276 196.481 46.961 195.907C47.6943 195.333 48.5808 194.988 49.5093 194.917C50.4378 194.845 51.3667 195.049 52.1796 195.503C52.9925 195.958 53.653 196.642 54.0782 197.47C54.5034 198.299 54.6744 199.235 54.5696 200.16C54.4648 201.085 54.089 201.959 53.4893 202.671C53.0853 203.151 52.5898 203.546 52.0316 203.833C51.4734 204.119 50.8638 204.292 50.2383 204.34C49.6127 204.388 48.9838 204.312 48.3882 204.115C47.7926 203.917 47.2423 203.603 46.7692 203.191V203.191Z"
    fill="#E0E0E0" />
  <path
    d="M47.8468 200.517L48.6785 200.252C48.7291 200.235 48.7725 200.202 48.8017 200.157C48.8308 200.113 48.8441 200.059 48.8392 200.006V199.836C48.831 199.799 48.8303 199.76 48.8374 199.723C48.8444 199.685 48.859 199.65 48.8801 199.618C48.9013 199.586 48.9287 199.559 48.9607 199.538C48.9926 199.517 49.0284 199.503 49.066 199.496C49.2645 199.496 50.5405 199.383 50.5405 199.383C50.5405 199.383 50.8713 199.383 50.8902 199.619V199.874C50.893 199.916 50.9092 199.956 50.9364 199.989C50.9636 200.021 51.0004 200.044 51.0414 200.054L51.9866 200.252C52.0102 200.259 52.035 200.261 52.0594 200.258C52.0839 200.256 52.1075 200.248 52.1288 200.235C52.1501 200.223 52.1685 200.206 52.1831 200.186C52.1977 200.166 52.208 200.144 52.2134 200.12L52.3174 199.827C52.3272 199.774 52.3272 199.719 52.3174 199.666C52.3 199.511 52.2338 199.365 52.1284 199.25C51.7307 198.986 51.2832 198.806 50.8135 198.722C50.3437 198.637 49.8616 198.65 49.3968 198.759C47.8373 198.957 47.5065 199.638 47.5065 199.798C47.4545 199.942 47.4545 200.099 47.5065 200.243L47.5821 200.403C47.6097 200.447 47.6497 200.481 47.6969 200.501C47.7442 200.521 47.7964 200.527 47.8468 200.517V200.517Z"
    fill="white" />
  <path
    d="M33.0834 176.689C34.2932 175.848 34.6524 174.156 33.8301 172.341C32.7526 169.969 30.0494 168.305 27.8283 168.627C25.6071 168.948 24.662 171.122 25.7395 173.494C26.1627 174.387 26.7778 175.175 27.5408 175.802C28.3038 176.43 29.1959 176.881 30.1534 177.124C24.3879 179.014 27.7716 185.63 27.7716 185.63L43.5842 184.392C43.5842 184.392 39.605 176.717 33.0834 176.689Z"
    fill="#EBEBEB" />
  <path
    d="M51.7127 189.788C51.7127 190.034 46.0417 190.686 38.9908 191.235C31.9398 191.783 26.2216 192.038 26.2027 191.792C26.1838 191.546 31.8737 190.847 38.9246 190.337C45.9755 189.826 51.6843 189.533 51.7127 189.788Z"
    fill="#EBEBEB" />
  <path
    d="M59.255 371.119L60.2946 372.839C61.4591 374.798 63.1706 376.375 65.2189 377.376L67.0148 378.274L65.2189 379.266C63.288 380.43 61.7303 382.123 60.7294 384.143L59.841 385.948L58.8013 384.219C57.6369 382.288 55.9447 380.73 53.9242 379.729L52.1284 378.841L53.877 377.801C55.8079 376.637 57.3656 374.944 58.3665 372.924L59.255 371.119Z"
    fill="#EBEBEB" />
  <path
    d="M392.643 32.967L393.683 34.6872C394.846 36.6155 396.534 38.1727 398.55 39.1768L400.355 40.0652L398.635 41.1049C396.699 42.2654 395.137 43.9584 394.136 45.982L393.248 47.7778L392.246 46.0576C391.082 44.1266 389.389 42.5689 387.369 41.568L385.573 40.6796L387.293 39.6399C389.224 38.4755 390.782 36.7834 391.783 34.7629L392.643 32.967Z"
    fill="#EBEBEB" />
  <path
    d="M404.533 59.668L405.431 61.1613C406.443 62.8419 407.916 64.1968 409.675 65.0649L411.234 65.8399L409.741 66.7851C408.06 67.7968 406.706 69.2697 405.837 71.0288L405.062 72.5884L404.165 71.095C403.156 69.4151 401.686 68.0602 399.93 67.1915L398.314 66.4164L399.807 65.4713C401.482 64.4599 402.833 62.9907 403.701 61.2369L404.533 59.668Z"
    fill="#EBEBEB" />
  <path
    d="M39.2744 351.677L40.0116 352.896C40.834 354.27 42.0396 355.373 43.4804 356.072L44.7469 356.705L43.5371 357.442C42.1684 358.261 41.063 359.455 40.3519 360.883L39.6997 362.159L38.9625 360.939C38.1396 359.573 36.9424 358.471 35.5126 357.764L34.2461 357.14L35.4559 356.403C36.8248 355.583 37.9276 354.385 38.6317 352.953L39.2744 351.677Z"
    fill="#EBEBEB" />
  <path
    d="M351.954 365.032L352.681 366.251C353.507 367.616 354.703 368.717 356.131 369.427L357.407 370.051L356.188 370.788C354.819 371.608 353.717 372.806 353.012 374.238L352.379 375.504L351.651 374.294C350.831 372.925 349.633 371.823 348.201 371.119L346.925 370.485L348.145 369.748C349.511 368.925 350.613 367.728 351.32 366.298L351.954 365.032Z"
    fill="#EBEBEB" />
  <path
    d="M30.1533 16.5402L30.8905 17.7594C31.707 19.1277 32.9018 20.2305 34.3309 20.9352L35.6069 21.5684L34.3876 22.3057C33.0114 23.1308 31.9022 24.3351 31.193 25.7744L30.5691 27.0409L29.8508 25.7744C29.028 24.4079 27.8308 23.3058 26.401 22.5987L25.125 21.9938L26.3443 21.2565C27.7152 20.4392 28.8187 19.2405 29.52 17.8067L30.1533 16.5402Z"
    fill="#EBEBEB" />
  <path
    d="M393.465 239.032L394.193 240.242C395.013 241.61 396.211 242.713 397.643 243.417L398.919 244.051L397.7 244.788C396.333 245.611 395.231 246.808 394.524 248.238L393.891 249.504L393.163 248.285C392.338 246.92 391.141 245.819 389.713 245.109L388.465 244.485L389.685 243.748C391.053 242.928 392.156 241.73 392.86 240.298L393.465 239.032Z"
    fill="#EBEBEB" />
  <path
    d="M27.0439 104.374L27.7717 105.593C28.5893 106.954 29.7756 108.055 31.1932 108.769L32.4691 109.393L31.2499 110.13C29.8813 110.951 28.7786 112.148 28.0741 113.58L27.4409 114.856L26.7414 113.675C25.9215 112.306 24.7235 111.203 23.2916 110.499L22.0156 109.866L23.2349 109.128C24.6011 108.309 25.7033 107.115 26.4106 105.688L27.0439 104.374Z"
    fill="#EBEBEB" />
  <path
    d="M76.8917 119.903L77.5722 121.038C78.338 122.311 79.4534 123.338 80.7858 123.996L81.9672 124.582L80.833 125.262C79.5646 126.03 78.539 127.141 77.8747 128.467L77.2887 129.657L76.6082 128.523C75.8457 127.25 74.7335 126.224 73.404 125.565L72.2131 125.017L73.3473 124.336C74.6181 123.571 75.6444 122.46 76.3057 121.132L76.8917 119.903Z"
    fill="#7ED2FF" />
  <path
    d="M322.228 244.382L322.909 245.516C323.675 246.786 324.791 247.81 326.122 248.465L327.304 249.051L326.17 249.731C324.899 250.498 323.875 251.613 323.221 252.945L322.635 254.126L321.954 252.992C321.188 251.721 320.072 250.698 318.741 250.043L317.559 249.457L318.684 248.777C319.957 248.011 320.984 246.895 321.642 245.563L322.228 244.382Z"
    fill="#7ED2FF" />
  <path
    d="M188.969 10.6519L189.65 11.7861C190.416 13.0595 191.531 14.0863 192.864 14.7444L194.045 15.3304L192.911 16.0109C191.659 16.7659 190.644 17.8562 189.981 19.1583L189.395 20.3398L188.714 19.2056C187.934 17.9556 186.813 16.9553 185.482 16.3228L184.31 15.699L185.444 15.0185C186.717 14.2561 187.744 13.1439 188.402 11.8144L188.969 10.6519Z"
    fill="#7ED2FF" />
  <path
    d="M348.504 117.455L349.184 118.58C349.947 119.853 351.059 120.879 352.388 121.538L353.579 122.124L352.445 122.805C351.172 123.57 350.145 124.686 349.487 126.018L348.901 127.2L348.22 126.065C347.447 124.796 346.325 123.775 344.988 123.126L343.806 122.54L344.94 121.85C346.211 121.085 347.238 119.974 347.899 118.646L348.504 117.455Z"
    fill="#7ED2FF" />
  <path
    d="M102.733 163.58L103.234 164.402C103.783 165.349 104.598 166.115 105.578 166.604L106.438 167.039L105.615 167.53C104.684 168.089 103.933 168.902 103.451 169.875L103.026 170.744L102.534 169.912C101.97 168.989 101.158 168.242 100.19 167.757L99.3206 167.332L100.152 166.831C101.08 166.272 101.828 165.458 102.307 164.487L102.733 163.58Z"
    fill="#7ED2FF" />
  <path
    d="M125.341 269.504L125.842 270.326C126.398 271.256 127.212 272.005 128.186 272.481L129.046 272.916L128.224 273.408C127.294 273.964 126.545 274.778 126.069 275.752L125.634 276.621L125.142 275.789C124.583 274.862 123.769 274.114 122.798 273.634L121.929 273.209L122.76 272.708C123.688 272.149 124.436 271.335 124.915 270.364L125.341 269.504Z"
    fill="#7ED2FF" />
  <path
    d="M341.084 85.3197L341.585 86.142C342.143 87.0729 342.957 87.8241 343.929 88.3064L344.789 88.7317L343.967 89.2327C343.037 89.7882 342.286 90.5984 341.802 91.5672L341.377 92.4368L340.886 91.605C340.321 90.6816 339.509 89.935 338.542 89.4501L337.672 89.0247L338.504 88.5238C339.419 87.9873 340.166 87.2046 340.659 86.2649L341.084 85.3197Z"
    fill="#7ED2FF" />
  <path
    d="M58.4799 141.235L58.9809 142.067C59.5404 142.994 60.3538 143.742 61.3249 144.222L62.185 144.647L61.3627 145.148C60.4331 145.704 59.682 146.514 59.1982 147.483L58.7729 148.352L58.2814 147.53C57.7233 146.599 56.9098 145.848 55.9374 145.366L55.0679 144.94L55.8996 144.439C56.8257 143.882 57.5734 143.072 58.0546 142.105L58.4799 141.235Z"
    fill="#7ED2FF" />
  <path
    d="M364.987 90.4424L365.271 90.915C365.594 91.4448 366.059 91.8737 366.613 92.1531L367.105 92.3894L366.632 92.6824C366.1 92.999 365.67 93.4615 365.394 94.0151L365.148 94.516L364.865 94.0435C364.544 93.5113 364.079 93.0818 363.522 92.8053L363.031 92.5596L363.503 92.276C364.036 91.9557 364.465 91.49 364.742 90.9339L364.987 90.4424Z"
    fill="#7ED2FF" />
  <path
    d="M347.313 226.518L347.596 226.99C347.917 227.52 348.383 227.946 348.938 228.219L349.439 228.465L348.957 228.748C348.43 229.072 348.004 229.537 347.729 230.091L347.483 230.591L347.199 230.119C346.882 229.585 346.415 229.155 345.857 228.881L345.356 228.635L345.838 228.351C346.368 228.031 346.794 227.565 347.067 227.009L347.313 226.518Z"
    fill="#7ED2FF" />
  <path
    d="M225.094 0L225.377 0.472582C225.697 1.0047 226.163 1.43427 226.719 1.71075L227.211 1.95649L226.738 2.24004C226.206 2.56037 225.776 3.02601 225.5 3.58217L225.254 4.07366L224.971 3.60108C224.65 3.06896 224.185 2.63939 223.629 2.36291L223.137 2.14552L223.61 1.86197C224.142 1.54164 224.571 1.07601 224.848 0.519841L225.094 0Z"
    fill="#7ED2FF" />
  <path
    d="M170.955 24.1298L171.238 24.6023C171.561 25.1325 172.026 25.5615 172.58 25.8405L173.081 26.0863L172.609 26.3698C172.074 26.6876 171.644 27.1539 171.37 27.7119L171.125 28.2034L170.841 27.7308C170.518 27.201 170.053 26.7721 169.499 26.4927L169.008 26.2564L169.48 25.9634C170.012 25.645 170.439 25.1786 170.709 24.6212L170.955 24.1298Z"
    fill="#7ED2FF" />
  <path
    d="M131.381 281.914L131.674 282.387C131.99 282.918 132.453 283.348 133.006 283.625L133.507 283.871L133.035 284.154C132.501 284.472 132.07 284.938 131.797 285.496L131.551 285.988L131.267 285.515C130.946 284.986 130.481 284.559 129.925 284.286L129.434 284.041L129.906 283.748C130.435 283.431 130.862 282.968 131.135 282.415L131.381 281.914Z"
    fill="#7ED2FF" />
  <path
    d="M270.462 351.695L153.261 351.421C148.412 351.421 144.481 347.99 144.49 343.794C144.49 339.588 148.441 336.185 153.299 336.232L270.499 336.507C275.357 336.507 279.289 339.937 279.28 344.134C279.27 348.302 275.32 351.705 270.462 351.695Z"
    fill="#455A64" />
  <path
    d="M270.462 333.208L153.261 332.943C148.412 332.943 144.481 329.512 144.49 325.306C144.49 321.1 148.441 317.745 153.299 317.745L270.499 318.009C275.357 318.009 279.289 321.44 279.28 325.646C279.27 329.824 275.32 333.227 270.462 333.208Z"
    fill="#455A64" />
  <path
    d="M265.754 354.455L158.459 354.209C156.424 354.349 154.517 355.256 153.125 356.748C151.732 358.239 150.958 360.203 150.958 362.243C150.958 364.284 151.732 366.248 153.125 367.739C154.517 369.23 156.424 370.138 158.459 370.277H170.236L185.794 400.05C186.671 401.719 187.986 403.118 189.598 404.097C191.21 405.076 193.057 405.598 194.943 405.608L233.279 405.693C235.182 405.698 237.05 405.177 238.676 404.188C240.302 403.199 241.623 401.78 242.494 400.088L257.749 370.476H265.754C267.79 370.336 269.696 369.429 271.089 367.938C272.481 366.446 273.256 364.482 273.256 362.442C273.256 360.402 272.481 358.437 271.089 356.946C269.696 355.455 267.79 354.548 265.754 354.408V354.455Z"
    fill="#455A64" />
  <path
    d="M302.607 229.627C302.607 229.627 302.323 230.071 301.747 230.922L299.185 234.703L297.295 237.482C296.614 238.512 295.943 239.693 295.178 240.941L292.72 245.005C291.822 246.442 291.038 248.077 290.112 249.731C289.667 250.572 289.166 251.442 288.722 252.34L287.994 253.691L287.323 255.128C286.425 257.018 285.433 259.088 284.488 261.205L281.709 268.01C280.83 270.402 279.951 272.906 279.053 275.506C277.265 281.122 275.8 286.837 274.668 292.622C273.381 299.144 272.748 305.777 272.777 312.424V312.584H272.617L147.524 312.65H147.326V312.452C146.004 297.812 142.184 283.506 136.031 270.156C132.812 263.074 129.095 256.23 124.906 249.674C122.799 246.338 120.549 243.058 118.148 239.835C115.748 236.612 113.158 233.54 110.587 230.383L110.275 230.005H110.776L110.587 230.383C98.8695 215.317 90.874 197.697 87.2509 178.957C86.7405 176.556 86.4286 174.118 86.06 171.679C85.9087 170.45 85.7859 169.222 85.6535 167.993L85.4645 166.15L85.3416 164.26C85.2755 163.021 85.1621 161.783 85.1337 160.536L85.0486 156.755C85.0014 155.507 85.0486 154.25 85.1053 152.974C85.1621 151.698 85.1526 150.47 85.2093 149.194C85.7862 139.053 87.5953 129.02 90.5968 119.317C99.3076 91.948 117.395 68.5294 141.673 53.1839C147.462 49.5389 153.541 46.3776 159.849 43.7323C166.046 41.1613 172.449 39.1157 178.989 37.6171C191.666 34.6967 204.729 33.8193 217.684 35.0179C223.919 35.608 230.101 36.66 236.18 38.1653C242.08 39.6902 247.866 41.6262 253.496 43.9591C264.248 48.4786 274.292 54.5271 283.316 61.9172C291.724 68.8354 299.175 76.8419 305.47 85.7259C311.293 93.9143 316.057 102.806 319.648 112.191C320.593 114.402 321.245 116.671 322.02 118.882C322.795 121.094 323.315 123.343 323.958 125.498C324.449 127.72 325.007 129.903 325.432 132.115C325.631 133.211 325.82 134.298 326.009 135.375C326.198 136.453 326.415 137.521 326.529 138.589C327.664 146.642 327.999 154.788 327.531 162.908C326.773 175.93 323.92 188.744 319.081 200.856C317.302 205.258 315.276 209.556 313.013 213.73C311.009 217.331 309.185 220.298 307.616 222.642L305.518 225.724L303.92 227.869L302.597 229.627L303.864 227.86L305.461 225.676L307.531 222.586C309.081 220.242 310.896 217.264 312.89 213.654C315.137 209.481 317.144 205.183 318.901 200.781C323.703 188.684 326.524 175.893 327.257 162.899C327.707 154.797 327.359 146.67 326.217 138.636C326.103 137.568 325.896 136.5 325.697 135.423C325.499 134.345 325.31 133.268 325.12 132.181C324.686 130.007 324.128 127.833 323.637 125.565C322.994 123.391 322.427 121.151 321.699 118.948C320.971 116.746 320.253 114.478 319.327 112.276C315.726 102.932 310.962 94.0782 305.149 85.9244C298.871 77.0861 291.439 69.1266 283.051 62.2575C278.612 58.6574 273.943 55.3517 269.072 52.3616C264.001 49.34 258.734 46.6593 253.307 44.3372C247.696 42.0154 241.929 40.0919 236.048 38.5811C229.995 37.0769 223.837 36.0311 217.627 35.4526C204.728 34.2634 191.723 35.144 179.102 38.0613C172.585 39.5466 166.207 41.5861 160.038 44.1576C153.755 46.8044 147.701 49.9657 141.938 53.6092C117.717 68.9111 99.6825 92.2813 91.0221 119.591C88.0278 129.257 86.2249 139.252 85.6535 149.354C85.5968 150.602 85.5874 151.85 85.5496 153.135C85.5118 154.42 85.4362 155.63 85.4929 156.868L85.5779 160.592C85.5779 161.831 85.7197 163.069 85.7859 164.307L85.9087 166.15L86.0978 168.04C86.2301 169.269 86.3435 170.488 86.4947 171.708C86.8634 174.137 87.1753 176.566 87.6856 178.957C91.2898 197.623 99.2497 215.175 110.918 230.185L111.211 230.572H110.729L110.908 230.194C113.489 233.313 116.154 236.376 118.47 239.646C120.785 242.916 123.129 246.177 125.246 249.523C129.438 256.099 133.162 262.962 136.39 270.061C142.569 283.458 146.405 297.815 147.732 312.509L147.515 312.31L272.607 312.376L272.456 312.537C272.439 305.872 273.092 299.223 274.403 292.689C275.538 286.854 277.015 281.091 278.826 275.43C279.724 272.831 280.603 270.326 281.492 267.925L284.327 261.13C285.329 259.003 286.293 256.98 287.163 255.043L287.843 253.616C288.089 253.152 288.325 252.67 288.571 252.254C289.053 251.366 289.516 250.496 289.97 249.646C290.915 247.973 291.69 246.338 292.597 244.92C293.505 243.502 294.299 242.085 295.074 240.865C295.849 239.646 296.52 238.446 297.21 237.415L299.1 234.646C300.244 233.011 301.104 231.754 301.69 230.913C302.276 230.071 302.588 229.646 302.588 229.646L302.607 229.627Z"
    fill="#263238" />
  <path
    d="M102.374 196.471C102.325 196.388 102.287 196.299 102.26 196.206C102.194 195.998 102.099 195.734 101.986 195.412C101.75 194.675 101.409 193.636 100.984 192.331L100.275 190.091C100.039 189.269 99.831 188.362 99.5758 187.397C99.1127 185.45 98.47 183.258 98.073 180.781C97.8462 179.543 97.6004 178.248 97.3547 176.897C97.1089 175.545 96.9861 174.118 96.7876 172.653C96.3434 169.713 96.2016 166.557 95.9747 163.201C95.6978 155.979 96.0139 148.746 96.9199 141.576C97.9456 134.421 99.5578 127.362 101.74 120.47C102.837 117.332 103.82 114.317 105.029 111.605C105.606 110.244 106.107 108.911 106.702 107.663C107.298 106.416 107.884 105.244 108.432 104.11C109.481 101.822 110.682 99.8847 111.655 98.1267C112.156 97.2666 112.6 96.4443 113.044 95.7165L114.32 93.7506C115.086 92.6069 115.681 91.6996 116.107 91.0474L116.589 90.3575C116.696 90.1999 116.753 90.1243 116.759 90.1306C116.723 90.2199 116.679 90.3054 116.627 90.3858L116.192 91.1041L114.481 93.8546L113.243 95.8394C112.808 96.5672 112.383 97.3989 111.891 98.2685C110.946 100.026 109.774 101.974 108.744 104.27L107.052 107.824C106.466 109.062 105.975 110.404 105.407 111.765C104.217 114.469 103.253 117.436 102.166 120.612C100.031 127.485 98.4507 134.517 97.4397 141.642C96.5193 148.789 96.1748 155.999 96.4095 163.201C96.6175 166.519 96.7498 169.666 97.1657 172.596C97.3641 174.052 97.4776 175.432 97.7044 176.831C97.9312 178.229 98.177 179.468 98.3944 180.706C98.7724 183.192 99.3395 185.432 99.831 187.322C100.067 188.267 100.256 189.212 100.483 190.025C100.71 190.838 100.946 191.585 101.154 192.265L102.099 195.365L102.326 196.178C102.355 196.377 102.374 196.471 102.374 196.471Z"
    fill="#263238" />
  <path
    d="M138.469 69.2517C136.419 71.3581 134.248 73.3432 131.966 75.1968C129.798 77.1765 127.52 79.032 125.142 80.7544C127.2 78.6584 129.371 76.6769 131.645 74.8187C133.82 72.8439 136.098 70.9857 138.469 69.2517V69.2517Z"
    fill="#263238" />
  <path
    d="M303.901 210.185C303.916 210.11 303.942 210.036 303.977 209.968L304.261 209.363L305.385 207.028C305.64 206.527 305.915 205.97 306.217 205.355C306.519 204.741 306.784 204.051 307.115 203.323C307.739 201.868 308.523 200.223 309.204 198.342L310.338 195.403C310.725 194.382 311.056 193.295 311.444 192.18C312.238 189.959 312.89 187.53 313.618 184.987C315.068 179.426 316.16 173.778 316.888 168.078C317.542 162.368 317.829 156.623 317.748 150.876C317.644 148.23 317.587 145.716 317.351 143.372C317.238 142.19 317.181 141.056 317.049 139.969C316.916 138.882 316.775 137.842 316.642 136.85C316.434 134.856 316.056 133.069 315.801 131.51C315.659 130.725 315.546 129.988 315.413 129.326C315.281 128.665 315.139 128.05 315.017 127.502L314.478 124.979C314.421 124.705 314.383 124.487 314.345 124.317C314.333 124.239 314.333 124.159 314.345 124.081C314.382 124.148 314.408 124.222 314.421 124.298C314.468 124.478 314.525 124.686 314.601 124.95L315.224 127.455C315.366 128.013 315.508 128.617 315.669 129.279C315.829 129.941 315.943 130.678 316.103 131.462C316.387 133.031 316.784 134.808 317.049 136.803L317.483 139.931C317.625 141.018 317.691 142.152 317.814 143.334C318.069 145.687 318.136 148.211 318.249 150.895C318.54 162.447 317.145 173.979 314.109 185.129C313.362 187.681 312.701 190.119 311.888 192.34C311.491 193.456 311.151 194.543 310.754 195.563C310.357 196.584 309.96 197.567 309.582 198.503C308.873 200.393 308.07 202.01 307.417 203.475C307.077 204.193 306.784 204.873 306.472 205.488C306.16 206.102 305.867 206.641 305.612 207.151L304.346 209.401L304.015 209.996C303.949 210.128 303.911 210.195 303.901 210.185Z"
    fill="#263238" />
  <path
    d="M264.715 94.4786C258.25 90.783 251.483 87.3994 244.224 85.7926C243.215 85.5153 242.164 85.4288 241.124 85.5374C240.601 85.5929 240.099 85.774 239.661 86.0653C239.223 86.3566 238.863 86.7494 238.609 87.2103C237.986 88.4957 238.609 90.0458 239.385 91.2462C241.133 93.8832 243.751 95.8019 246.388 97.5504C253.609 102.342 261.378 106.246 269.119 110.14C268.174 104.63 266.208 99.885 264.715 94.4881"
    fill="#7ED2FF" />
  <path
    d="M314.289 108.722C316.397 115.867 318.948 122.975 323.088 129.166C323.624 130.065 324.323 130.857 325.149 131.5C325.565 131.819 326.052 132.034 326.568 132.128C327.084 132.221 327.615 132.191 328.117 132.039C329.459 131.529 330.092 129.998 330.347 128.589C330.905 125.47 330.347 122.266 329.648 119.185C327.757 110.678 324.827 102.54 321.926 94.3743C318.826 99.0339 316.945 103.826 314.289 108.722"
    fill="#7ED2FF" />
  <path
    d="M264.649 94.3365C264.649 94.3365 265.159 143.816 292.928 144.78C320.697 145.744 321.859 94.6862 321.859 94.3365C321.859 94.3365 318.58 86.9548 293.249 87.2383C267.919 87.5219 264.649 94.3365 264.649 94.3365Z"
    fill="#7ED2FF" />
  <path
    d="M301.51 113.987C301.372 115.875 300.678 117.68 299.514 119.174C298.351 120.668 296.77 121.783 294.973 122.379C293.175 122.974 291.242 123.024 289.416 122.521C287.591 122.017 285.956 120.984 284.717 119.552C283.479 118.119 282.694 116.352 282.46 114.472C282.226 112.593 282.555 110.687 283.404 108.995C284.254 107.303 285.586 105.9 287.232 104.965C288.879 104.03 290.765 103.604 292.654 103.741C293.909 103.831 295.133 104.167 296.258 104.731C297.383 105.295 298.385 106.075 299.207 107.027C300.03 107.978 300.657 109.083 301.052 110.277C301.447 111.471 301.603 112.732 301.51 113.987Z"
    fill="#263238" />
  <path
    d="M298.92 113.797C298.82 115.173 298.313 116.488 297.466 117.576C296.618 118.663 295.466 119.476 294.157 119.909C292.848 120.343 291.439 120.379 290.11 120.012C288.78 119.646 287.589 118.893 286.687 117.85C285.785 116.806 285.213 115.519 285.042 114.15C284.871 112.782 285.11 111.393 285.729 110.16C286.347 108.928 287.317 107.906 288.516 107.224C289.715 106.542 291.089 106.231 292.465 106.331C294.311 106.466 296.027 107.328 297.237 108.728C298.448 110.128 299.053 111.951 298.92 113.797V113.797Z"
    fill="white" />
  <path
    d="M295.556 115.064C295.502 114.682 295.48 114.296 295.489 113.911C295.489 113.192 295.489 112.162 295.489 110.905L295.565 111.047L291.945 108.949H292.144L288.524 110.99C288.42 111.151 288.656 110.763 288.628 110.801V111.869C288.628 112.228 288.628 112.578 288.628 112.928C288.628 113.618 288.628 114.289 288.628 114.941L288.533 114.761L292.077 116.935H291.926C293.032 116.34 293.939 115.867 294.582 115.546C294.916 115.35 295.267 115.186 295.631 115.054C295.335 115.281 295.018 115.48 294.686 115.65C294.072 116.028 293.174 116.595 292.04 117.219H291.964L291.879 117.171L288.287 115.083L288.193 115.026V114.903C288.193 114.26 288.193 113.58 288.193 112.89C288.193 112.54 288.193 112.19 288.193 111.831V110.839L288.306 110.65L291.936 108.637L292.04 108.58L292.134 108.646L295.688 110.811H295.764V110.896C295.764 112.209 295.678 113.259 295.641 113.967C295.643 114.335 295.614 114.701 295.556 115.064V115.064Z"
    fill="#7ED2FF" />
  <path
    d="M264.507 94.289H264.649L265.074 94.4402L266.681 95.0073L267.843 95.4137C268.269 95.5555 268.741 95.6972 269.242 95.8485C270.254 96.1509 271.388 96.5384 272.673 96.7936L274.686 97.3135C275.386 97.4836 276.132 97.6159 276.889 97.7861C278.41 98.1358 280.055 98.3721 281.785 98.6462C289.307 99.7291 296.946 99.7291 304.469 98.6462C306.198 98.3721 307.843 98.1358 309.364 97.7861C310.121 97.6254 310.867 97.4931 311.567 97.3135L313.58 96.7936C314.865 96.4912 316 96.1037 317.011 95.8485C317.512 95.6878 317.956 95.5555 318.41 95.4137L319.572 94.9978L321.179 94.4307L321.604 94.289L321.746 94.2417C321.746 94.2417 321.699 94.2417 321.614 94.3079L321.198 94.4685L319.601 95.0734L318.438 95.4988C318.013 95.65 317.55 95.7918 317.049 95.9524C316.037 96.2643 314.903 96.6613 313.618 96.9732L311.604 97.5025C310.896 97.6821 310.158 97.8144 309.393 97.9845C307.881 98.3437 306.227 98.58 304.497 98.8636C296.954 99.9725 289.29 99.9725 281.747 98.8636C280.017 98.58 278.363 98.3343 276.851 97.9845C276.085 97.8144 275.348 97.6726 274.639 97.4931L272.626 96.9638C271.34 96.6519 270.206 96.2549 269.195 95.943L267.806 95.4988L266.643 95.064L265.046 94.4591L264.639 94.2984L264.507 94.289Z"
    fill="#263238" />
  <g opacity="0.3">
    <path opacity="0.3" d="M264.649 94.3365C264.649 94.3365 267.928 87.5313 293.249 87.2383C318.57 86.9453 321.859 94.3365 321.859 94.3365C321.859 94.3365 296.283 106.936 264.649 94.3365Z"
      fill="black" />
  </g>
  <path
    d="M273.325 129.544C273.325 129.544 273.325 129.544 273.278 129.478L273.155 129.251L272.702 128.391L272.371 127.757L272.021 126.992C271.766 126.444 271.473 125.82 271.189 125.102L270.745 124.005C270.594 123.608 270.443 123.211 270.291 122.786C269.97 121.954 269.696 121.037 269.346 120.083C268.76 118.192 268.174 116.028 267.673 113.76C267.172 111.491 266.785 109.317 266.492 107.332C266.199 105.348 265.991 103.552 265.868 102.021C265.792 101.264 265.755 100.584 265.717 99.979C265.679 99.3741 265.641 98.8543 265.632 98.429V97.4838V97.2286C265.632 97.1719 265.632 97.1436 265.632 97.1436C265.636 97.1718 265.636 97.2004 265.632 97.2286V97.4838C265.632 97.7201 265.632 98.0415 265.698 98.429C265.764 98.8165 265.764 99.3741 265.811 99.9696C265.859 100.565 265.915 101.255 266 102.011C266.133 103.523 266.369 105.319 266.662 107.304C266.955 109.289 267.352 111.463 267.853 113.722C268.354 115.981 268.93 118.107 269.516 120.035C269.828 120.981 270.102 121.926 270.414 122.729C270.565 123.154 270.717 123.561 270.849 123.948C270.981 124.336 271.151 124.705 271.293 125.054C271.567 125.763 271.841 126.387 272.097 126.945L272.427 127.72L272.739 128.353L273.165 129.232L273.269 129.468C273.269 129.468 273.335 129.544 273.325 129.544Z"
    fill="white" />
  <path
    d="M286.709 141.444C286.559 141.444 286.41 141.425 286.265 141.387C285.864 141.323 285.469 141.228 285.083 141.103C284.508 140.929 283.946 140.715 283.401 140.461C282.742 140.14 282.11 139.767 281.51 139.345C280.913 138.914 280.348 138.44 279.819 137.928C279.398 137.501 279.007 137.046 278.647 136.567C278.404 136.239 278.18 135.899 277.976 135.546C277.893 135.422 277.826 135.289 277.777 135.149C277.777 135.149 278.127 135.678 278.722 136.481C279.092 136.946 279.493 137.385 279.923 137.795C280.444 138.301 281.003 138.765 281.596 139.185C282.197 139.603 282.829 139.975 283.486 140.3C284.021 140.555 284.57 140.779 285.13 140.971C286.095 141.292 286.718 141.406 286.709 141.444Z"
    fill="white" />
  <path
    d="M292.493 123.986C292.409 124 292.323 124 292.238 123.986C292.058 123.986 291.803 123.986 291.472 123.986C290.533 123.97 289.601 123.82 288.703 123.542C288.082 123.35 287.479 123.106 286.898 122.814C286.23 122.473 285.597 122.068 285.008 121.605C283.645 120.556 282.571 119.178 281.887 117.601C281.202 116.024 280.93 114.299 281.095 112.588C281.157 111.846 281.29 111.112 281.492 110.395C281.672 109.771 281.906 109.164 282.191 108.58C282.596 107.734 283.122 106.951 283.75 106.255C283.921 106.063 284.1 105.88 284.289 105.707C284.412 105.593 284.478 105.527 284.488 105.537C284.497 105.546 284.232 105.801 283.807 106.302C283.213 107.015 282.711 107.799 282.314 108.637C282.044 109.217 281.819 109.818 281.643 110.433C281.456 111.142 281.333 111.866 281.274 112.597C281.123 114.279 281.396 115.971 282.068 117.52C282.74 119.069 283.789 120.425 285.121 121.463C285.694 121.921 286.308 122.326 286.955 122.673C287.527 122.964 288.121 123.211 288.731 123.41C289.612 123.697 290.528 123.866 291.454 123.911C292.134 123.986 292.493 123.967 292.493 123.986Z"
    fill="white" />
  <path
    d="M291.302 42.882C291.302 42.882 267.087 42.589 263.259 63.5811C259.431 84.5732 279.904 84.9418 285.792 85.3199C288.457 85.4994 294.166 85.5183 299.213 85.4238C310.366 85.2348 318.258 83.0704 320.952 72.7208C321.269 71.5078 321.468 70.267 321.548 69.0158C322.304 57.6643 314.572 42.3243 291.302 42.882Z"
    fill="#7ED2FF" />
  <path
    d="M308.863 74.8189L273.694 75.3671C272.813 75.3808 271.938 75.2203 271.12 74.8948C270.302 74.5693 269.556 74.0851 268.925 73.4703C268.294 72.8554 267.791 72.1219 267.445 71.312C267.099 70.5021 266.916 69.6317 266.908 68.7509V68.7509C266.895 67.871 267.057 66.9973 267.383 66.1799C267.709 65.3626 268.193 64.6177 268.808 63.988C269.423 63.3583 270.156 62.8563 270.965 62.5107C271.774 62.1651 272.644 61.9827 273.524 61.9741L308.693 61.4259C309.574 61.4109 310.449 61.5706 311.267 61.8958C312.086 62.2209 312.832 62.7052 313.462 63.3204C314.092 63.9356 314.594 64.6697 314.939 65.4802C315.283 66.2906 315.464 67.1614 315.47 68.042V68.042C315.484 68.9215 315.324 69.795 314.999 70.6123C314.674 71.4296 314.19 72.1746 313.576 72.8044C312.962 73.4342 312.23 73.9364 311.421 74.2821C310.612 74.6278 309.743 74.8103 308.863 74.8189V74.8189Z"
    fill="#263238" />
  <path
    d="M280.991 68.0706C280.91 68.4874 280.707 68.8708 280.408 69.1723C280.109 69.4738 279.727 69.6798 279.311 69.7643C278.895 69.8487 278.463 69.8079 278.07 69.6468C277.678 69.4857 277.341 69.2117 277.104 68.8595C276.867 68.5072 276.74 68.0926 276.739 67.668C276.738 67.2434 276.862 66.828 277.097 66.4744C277.332 66.1207 277.667 65.8447 278.059 65.6814C278.451 65.518 278.882 65.4745 279.299 65.5565C279.856 65.6662 280.347 65.9925 280.664 66.4638C280.982 66.9351 281.099 67.513 280.991 68.0706Z"
    fill="white" />
  <path
    d="M305.565 67.6734C305.484 68.0902 305.281 68.4736 304.982 68.7751C304.683 69.0766 304.302 69.2826 303.886 69.3671C303.469 69.4515 303.038 69.4106 302.645 69.2496C302.252 69.0885 301.916 68.8145 301.679 68.4623C301.442 68.11 301.314 67.6953 301.313 67.2708C301.312 66.8462 301.437 66.4308 301.672 66.0772C301.907 65.7235 302.241 65.4475 302.633 65.2841C303.025 65.1207 303.457 65.0773 303.873 65.1593C304.429 65.2713 304.919 65.5981 305.236 66.0687C305.552 66.5394 305.671 67.116 305.565 67.6734V67.6734Z"
    fill="white" />
  <path
    d="M287.144 67.078C287.304 67.078 287.229 67.8436 287.692 68.8455C287.963 69.4186 288.353 69.9276 288.835 70.3388C289.39 70.847 290.097 71.1591 290.846 71.2274C291.596 71.2957 292.347 71.1163 292.985 70.7169C293.537 70.4042 294.012 69.9713 294.374 69.4504C295.017 68.5619 295.073 67.8058 295.234 67.8152C295.395 67.8247 295.357 68.0137 295.357 68.3634C295.346 68.8696 295.213 69.3657 294.97 69.8095C294.621 70.4876 294.104 71.0639 293.467 71.4825C292.671 72.0245 291.715 72.281 290.754 72.2102C289.9 72.1069 289.095 71.7568 288.437 71.2028C287.779 70.6489 287.296 69.915 287.049 69.0912C286.891 68.61 286.849 68.0983 286.926 67.5978C286.992 67.2481 287.087 67.0685 287.144 67.078Z"
    fill="white" />
  <path
    d="M288.278 44.4506H288.183H287.928C287.701 44.4506 287.37 44.4506 286.983 44.5357C285.78 44.6517 284.587 44.8475 283.41 45.1217C281.667 45.536 279.969 46.125 278.344 46.8797C276.355 47.8005 274.491 48.9692 272.796 50.3579C268.789 53.7164 265.86 58.1805 264.375 63.1932C264.242 63.5996 264.176 63.921 264.11 64.1384L264.044 64.3841C264.044 64.4408 264.044 64.4692 264.044 64.4692C264.042 64.4409 264.042 64.4125 264.044 64.3841L264.101 64.1289C264.157 63.9116 264.214 63.5807 264.327 63.1838C264.614 62.0306 264.983 60.8998 265.433 59.8001C266.151 58.1346 267.045 56.5503 268.099 55.0743C271.757 49.9638 277.172 46.3829 283.306 45.0177C284.491 44.7472 285.695 44.5702 286.907 44.4884C287.333 44.4412 287.663 44.4884 287.852 44.4412H288.278V44.4506Z"
    fill="white" />
  <path
    d="M264.545 73.4955C264.396 73.2644 264.281 73.0129 264.204 72.7488C263.983 72.1352 263.818 71.5024 263.713 70.8585C263.604 70.1965 263.563 69.5251 263.59 68.8548C263.579 68.5774 263.611 68.3 263.685 68.0325C263.741 68.0325 263.685 69.299 263.902 70.868C264.119 72.4369 264.649 73.4766 264.545 73.4955Z"
    fill="white" />
  <path
    d="M303.051 60.2447C303.051 60.2447 298.419 60.3392 292.701 60.3392C286.983 60.3392 282.352 60.3392 282.352 60.2447C282.352 60.1502 286.992 60.1407 292.701 60.1407C298.41 60.1407 303.051 60.188 303.051 60.2447Z"
    fill="white" />
  <path
    d="M285.442 83.8358H285.263H284.762H283.958C283.647 83.8358 283.297 83.8358 282.9 83.8358C281.978 83.8283 281.056 83.7715 280.14 83.6656C277.878 83.4287 275.655 82.9079 273.524 82.1156C272.658 81.8004 271.81 81.4407 270.981 81.0381C270.622 80.8679 270.31 80.6978 270.036 80.5466C269.762 80.3954 269.526 80.2725 269.337 80.1591L268.911 79.8944C268.808 79.8283 268.76 79.7999 268.76 79.7905C268.76 79.781 268.826 79.7905 268.93 79.8566L269.375 80.0929C269.573 80.1969 269.809 80.3197 270.093 80.4521C270.376 80.5844 270.679 80.7545 271.038 80.9058C271.756 81.246 272.617 81.5957 273.59 81.9454C274.646 82.3208 275.722 82.6363 276.813 82.8906C277.907 83.1471 279.015 83.3427 280.131 83.4766C281.161 83.5995 282.087 83.6656 282.872 83.6845C283.269 83.6845 283.618 83.6845 283.93 83.6845C284.242 83.6845 284.507 83.6845 284.734 83.6845H285.234C285.315 83.7177 285.386 83.7696 285.442 83.8358V83.8358Z"
    fill="white" />
  <path
    d="M314.998 97.3515H314.903L314.638 97.4461L313.589 97.8241C313.126 97.9848 312.569 98.1833 311.907 98.3723C311.245 98.5614 310.508 98.8165 309.667 99.0245L308.353 99.3742L306.916 99.705C305.971 99.9413 304.856 100.13 303.731 100.348C301.284 100.762 298.817 101.052 296.34 101.217C293.859 101.344 291.373 101.344 288.892 101.217C287.749 101.151 286.662 101.094 285.65 100.972C285.149 100.924 284.658 100.886 284.185 100.82L282.843 100.631C281.983 100.527 281.208 100.376 280.537 100.263C279.866 100.149 279.28 100.026 278.807 99.9224L277.72 99.6767L277.437 99.6105H277.342H277.437H277.73L278.817 99.8184C279.289 99.9129 279.875 100.026 280.556 100.13C281.236 100.234 282.002 100.376 282.862 100.471L284.204 100.641C284.667 100.697 285.149 100.735 285.669 100.782C286.681 100.896 287.758 100.943 288.902 101.009C291.18 101.104 293.694 101.104 296.331 100.953C298.968 100.801 301.453 100.471 303.703 100.102C304.828 99.894 305.896 99.7145 306.888 99.4782C307.38 99.3647 307.833 99.2702 308.315 99.1568L309.629 98.826C310.47 98.6275 311.217 98.3912 311.879 98.2022C312.54 98.0132 313.098 97.8336 313.561 97.6824L314.62 97.3515L314.903 97.2665L314.998 97.3515Z"
    fill="white" />
  <path d="M85.0107 260.053L85.0674 273.162C85.0674 273.162 106.806 260.828 100.445 249.108L85.0107 260.053Z" fill="#7ED2FF" />
  <path d="M87.1375 229.769C87.1375 229.769 71.4666 224.023 59.5481 234.656L71.7596 241.546L87.1375 229.769Z" fill="#7ED2FF" />
  <path
    d="M71.769 241.584C72.27 242.236 85.0013 260.052 85.0013 260.052L118.29 236.423C119.664 235.449 120.821 234.201 121.686 232.756C122.552 231.312 123.109 229.704 123.32 228.033C123.532 226.362 123.394 224.666 122.915 223.051C122.436 221.437 121.627 219.939 120.54 218.654V218.654C118.522 216.265 115.661 214.746 112.552 214.413C109.443 214.08 106.325 214.959 103.848 216.868L71.769 241.584Z"
    fill="#F5F5F5" />
  <path
    d="M71.769 241.584L72.0431 241.357C72.2416 241.187 72.5251 240.969 72.8748 240.695L76.1262 238.143L88.1865 228.758L96.5512 222.265L101.22 218.654L103.659 216.764C104.509 216.107 105.44 215.56 106.428 215.138C106.92 214.902 107.458 214.769 107.969 214.58C108.508 214.444 109.054 214.337 109.604 214.259C110.72 214.103 111.853 214.103 112.969 214.259C114.716 214.503 116.391 215.115 117.884 216.055C119.376 216.995 120.652 218.242 121.626 219.713C122.285 220.733 122.801 221.84 123.158 223.002C123.857 225.398 123.827 227.948 123.073 230.327C122.341 232.603 120.962 234.617 119.103 236.121C117.212 237.538 115.388 238.786 113.574 240.09L103.073 247.519L85.1147 260.185L84.9635 260.288L84.8689 260.147C80.8047 254.419 77.5156 249.75 75.2283 246.536L72.6385 242.85C72.3644 242.444 72.147 242.132 71.9769 241.905C71.8068 241.678 71.7595 241.584 71.769 241.584C71.8659 241.687 71.9544 241.797 72.0336 241.914L72.7425 242.86L75.4268 246.527L85.1525 259.939L84.9068 259.892L102.808 247.151L113.299 239.693C115.095 238.398 117.005 237.122 118.8 235.743C120.574 234.293 121.887 232.358 122.581 230.176C123.306 227.889 123.339 225.439 122.676 223.134C122.328 222.02 121.832 220.959 121.201 219.977C120.562 219.021 119.792 218.158 118.914 217.416C117.2 215.965 115.108 215.034 112.884 214.732C111.809 214.576 110.717 214.576 109.642 214.732C109.113 214.799 108.589 214.9 108.073 215.034C107.569 215.185 107.074 215.362 106.589 215.563C104.642 216.348 103.111 217.794 101.485 218.985L96.8347 222.548C93.8197 224.835 91.022 226.981 88.4606 228.928L76.2869 238.191L72.9693 240.705L72.0903 241.366L71.769 241.584Z"
    fill="#263238" />
  <path
    d="M87.7233 240.563L66.9297 255.525C66.9297 255.525 67.8181 257.803 68.3947 257.576C68.9712 257.349 84.5381 246.707 89.6231 243.247C89.8185 243.115 89.9827 242.941 90.1043 242.739C90.2259 242.536 90.3019 242.31 90.3271 242.075C90.3523 241.84 90.326 241.603 90.2502 241.379C90.1743 241.156 90.0506 240.951 89.8877 240.78C89.6164 240.485 89.246 240.3 88.8469 240.26C88.4478 240.219 88.048 240.327 87.7233 240.563Z"
    fill="#7ED2FF" />
  <path
    d="M109.311 231.177C109.4 232.55 109.079 233.919 108.39 235.11C107.701 236.301 106.675 237.26 105.44 237.868C104.206 238.475 102.819 238.703 101.455 238.522C100.091 238.341 98.8114 237.76 97.7778 236.852C96.7442 235.944 96.003 234.75 95.6481 233.421C95.2931 232.091 95.3403 230.687 95.7837 229.384C96.227 228.082 97.0466 226.94 98.1388 226.104C99.231 225.267 100.547 224.773 101.92 224.684C102.831 224.625 103.746 224.746 104.611 225.041C105.476 225.335 106.274 225.797 106.96 226.4C107.647 227.003 108.207 227.735 108.611 228.555C109.014 229.375 109.252 230.266 109.311 231.177Z"
    fill="white" />
  <path
    d="M109.311 231.178C109.254 231.178 109.245 230.554 108.895 229.523C108.389 228.063 107.412 226.813 106.116 225.97C105.365 225.475 104.522 225.134 103.637 224.969C102.753 224.803 101.844 224.815 100.964 225.004C100.085 225.193 99.2512 225.556 98.5129 226.07C97.7747 226.585 97.1464 227.242 96.6646 228.002C95.8912 229.205 95.5235 230.624 95.6154 232.051C95.7072 233.478 96.2538 234.838 97.175 235.932C98.0202 236.962 99.1567 237.713 100.436 238.087C101.519 238.41 102.667 238.456 103.773 238.222C104.879 237.987 105.909 237.48 106.768 236.745C107.942 235.743 108.75 234.38 109.065 232.869C109.273 231.792 109.207 231.178 109.264 231.178C109.278 231.325 109.278 231.474 109.264 231.622C109.293 232.048 109.27 232.477 109.198 232.898C108.941 234.482 108.142 235.929 106.939 236.99C106.11 237.729 105.119 238.263 104.046 238.55C102.804 238.869 101.5 238.853 100.266 238.503C98.8978 238.117 97.6787 237.326 96.7686 236.234C95.7741 235.064 95.1836 233.604 95.0848 232.072C94.9861 230.539 95.3843 229.016 96.2204 227.728C96.9845 226.529 98.0908 225.587 99.3962 225.025C100.587 224.514 101.892 224.332 103.177 224.495C104.278 224.64 105.33 225.042 106.249 225.667C107.581 226.567 108.557 227.905 109.008 229.448C109.139 229.856 109.218 230.278 109.245 230.705C109.283 230.86 109.305 231.018 109.311 231.178V231.178Z"
    fill="#263238" />
  <path d="M119.859 235.138C131.04 224.684 129.046 212.577 129.046 212.577C114.008 208.626 103.857 216.896 103.857 216.896C113.867 218.304 119.226 224.372 119.859 235.138Z" fill="#7ED2FF" />
  <path d="M238.619 190.639L242.485 226.329L265.471 233.994L266.416 245.109L233.969 242.945C233.969 242.945 224.007 243.162 221.776 230.006L221.247 195.375L238.619 190.639Z" fill="#FFBE9D" />
  <path
    d="M286.331 244.929C286.124 245.17 285.849 245.344 285.543 245.428C285.236 245.512 284.912 245.503 284.611 245.402C284.482 245.354 284.359 245.294 284.242 245.222C283.439 244.703 283.996 242.926 283.996 242.926L279.941 241.111C279.941 241.111 273.495 243.209 270.906 245.043C268.316 246.876 263.826 243.653 263.826 243.653L264.488 234.202L274.148 229.211C274.148 229.211 273.552 229.504 274.441 228.323C275.329 227.141 277.645 228.323 277.645 228.323C278.202 227.775 279.866 227.964 279.866 227.964L286.482 230.553C287.152 230.822 287.754 231.236 288.244 231.766C288.734 232.296 289.101 232.927 289.318 233.616L291 238.956C291 238.956 291.652 242.661 291.208 243.36C291.016 243.653 290.722 243.864 290.383 243.953C290.045 244.042 289.685 244.003 289.374 243.842C289.374 243.842 288.429 245.922 287.881 245.846C287.303 245.665 286.764 245.377 286.293 244.996L286.331 244.929Z"
    fill="#FFBE9D" />
  <path
    d="M272.796 243.984C272.963 243.93 273.124 243.861 273.278 243.776L274.667 243.162C276.402 242.434 278.175 241.803 279.979 241.272H279.885L283.921 243.115L283.826 242.897C283.721 243.242 283.654 243.597 283.628 243.956C283.581 244.351 283.657 244.75 283.845 245.1C283.964 245.282 284.135 245.424 284.336 245.506C284.517 245.608 284.716 245.672 284.922 245.695C285.349 245.742 285.778 245.635 286.132 245.393C286.218 245.332 286.3 245.265 286.378 245.194L286.435 245.137C286.491 245.137 285.915 245.185 286.161 245.137L286.283 245.232L286.775 245.572C286.951 245.681 287.135 245.779 287.323 245.865L287.626 245.988C287.762 246.025 287.905 246.025 288.041 245.988C288.264 245.889 288.457 245.732 288.599 245.534C288.734 245.366 288.857 245.19 288.968 245.005C289.184 244.641 289.379 244.266 289.554 243.88L289.261 243.984C289.531 244.125 289.835 244.188 290.138 244.167C290.442 244.145 290.734 244.039 290.981 243.862C291.242 243.674 291.427 243.399 291.501 243.087C291.555 242.803 291.577 242.515 291.567 242.226C291.523 241.101 291.399 239.98 291.198 238.871V238.871C290.905 237.926 290.603 236.981 290.3 236.036C290.102 235.431 289.913 234.826 289.724 234.23C289.57 233.611 289.345 233.011 289.053 232.444C288.732 231.887 288.301 231.401 287.786 231.017C287.277 230.665 286.72 230.388 286.132 230.194L279.875 227.765H279.828C279.426 227.723 279.02 227.723 278.618 227.765C278.194 227.773 277.784 227.922 277.456 228.191H277.711C277.405 227.938 277.042 227.763 276.653 227.683C276.264 227.602 275.862 227.617 275.48 227.728C274.8 227.993 274.248 228.511 273.94 229.174L274.1 228.985L267.484 232.397L265.688 233.342C265.472 233.441 265.266 233.561 265.074 233.701C265.3 233.632 265.519 233.54 265.726 233.427L267.569 232.557L274.289 229.278H274.337V229.23C274.611 228.655 275.095 228.206 275.688 227.973C276.013 227.884 276.355 227.875 276.685 227.948C277.014 228.02 277.321 228.172 277.578 228.389L277.711 228.484L277.843 228.37C278.119 228.173 278.449 228.067 278.788 228.068C279.162 228.03 279.539 228.03 279.913 228.068H279.771L286.019 230.525C286.568 230.705 287.088 230.966 287.559 231.3C288.024 231.65 288.413 232.091 288.703 232.595C288.978 233.133 289.19 233.701 289.336 234.287L289.903 236.092C290.215 237.037 290.518 237.983 290.801 238.928C290.998 240.011 291.118 241.107 291.16 242.207C291.171 242.461 291.152 242.715 291.104 242.964C291.052 243.175 290.928 243.362 290.754 243.493C290.57 243.618 290.355 243.692 290.132 243.707C289.91 243.722 289.687 243.677 289.488 243.578L289.289 243.483L289.195 243.682C289.033 244.051 288.85 244.411 288.646 244.759C288.448 245.081 288.183 245.468 287.956 245.553C287.898 245.57 287.836 245.57 287.777 245.553L287.531 245.449C287.357 245.374 287.19 245.286 287.03 245.185C286.869 245.081 286.709 244.977 286.558 244.863L286.444 244.788C286.69 244.788 286.113 244.788 286.17 244.788V244.835L285.972 244.996C285.699 245.193 285.361 245.281 285.026 245.241C284.862 245.23 284.703 245.178 284.563 245.09C284.423 245.043 284.303 244.95 284.223 244.826C284 244.215 284 243.546 284.223 242.935V242.784L284.091 242.718L280.017 240.941H279.97H279.923C278.113 241.505 276.341 242.187 274.62 242.983L273.259 243.672C273.095 243.761 272.94 243.865 272.796 243.984V243.984Z"
    fill="#EB996E" />
  <path
    d="M278.174 230.979C278.789 231.479 279.47 231.892 280.197 232.208C281.948 233.079 283.808 233.715 285.726 234.098L285.546 233.89C285.546 234.259 285.594 234.646 285.65 235.034C285.923 237.245 286.619 239.382 287.701 241.329C288.025 241.915 288.392 242.478 288.798 243.011C289.091 243.389 289.27 243.578 289.299 243.559C289.327 243.54 288.741 242.671 287.994 241.177C287.023 239.231 286.384 237.135 286.104 234.977C286.104 234.599 286.019 234.221 285.991 233.862V233.711H285.82C283.935 233.331 282.094 232.754 280.329 231.99C279.629 231.616 278.91 231.278 278.174 230.979V230.979Z"
    fill="#EB996E" />
  <path
    d="M283.609 236.678C283.485 238.14 283.718 239.609 284.289 240.96C284.718 242.364 285.487 243.64 286.529 244.674C286.652 244.589 285.527 243.011 284.724 240.799C283.921 238.587 283.751 236.669 283.609 236.678Z"
    fill="#EB996E" />
  <path
    d="M263.212 240.544C263.212 240.544 263.212 240.62 263.392 240.733C263.582 240.893 263.784 241.039 263.997 241.168C264.798 241.669 265.686 242.015 266.615 242.189C268.036 242.469 269.508 242.337 270.858 241.811C272.58 241.141 274.016 239.895 274.923 238.285L274.63 238.38C276.178 239.121 277.823 239.639 279.516 239.921C280.159 240.025 280.792 240.091 281.406 240.128C282.039 240.193 282.677 240.155 283.297 240.015C283.641 239.938 283.944 239.736 284.147 239.448C284.238 239.299 284.298 239.133 284.325 238.96C284.351 238.787 284.343 238.611 284.301 238.441C284.259 238.272 284.183 238.112 284.079 237.972C283.975 237.832 283.844 237.713 283.694 237.624L282.957 237.217C281.009 236.168 279.176 235.327 277.683 234.637C276.189 233.947 274.847 233.475 274.006 233.153C273.559 232.969 273.097 232.824 272.626 232.718C273.05 232.95 273.488 233.152 273.94 233.323C274.8 233.692 276.038 234.268 277.541 234.94C279.044 235.611 280.82 236.527 282.749 237.595L283.476 238.002C283.67 238.127 283.811 238.319 283.873 238.541C283.921 238.766 283.884 239.002 283.769 239.202C283.621 239.398 283.406 239.533 283.164 239.58C282.594 239.705 282.006 239.734 281.425 239.665C280.792 239.629 280.161 239.56 279.535 239.457C277.899 239.181 276.309 238.682 274.809 237.974L274.611 237.879L274.516 238.068C273.671 239.59 272.34 240.785 270.736 241.461C269.45 241.976 268.049 242.133 266.681 241.915C265.774 241.771 264.898 241.474 264.091 241.036C263.514 240.733 263.231 240.525 263.212 240.544Z"
    fill="#EB996E" />
  <path
    d="M290.943 373.945C291.005 373.652 291.005 373.349 290.943 373.056C290.788 372.246 290.466 371.477 289.998 370.797C289.845 370.557 289.664 370.335 289.459 370.136C289.326 370.011 289.162 369.924 288.984 369.884C288.807 369.844 288.621 369.853 288.448 369.909C288.344 369.946 288.251 370.006 288.174 370.085C288.097 370.163 288.039 370.258 288.004 370.362C287.941 370.559 287.941 370.771 288.004 370.967C288.134 371.295 288.292 371.611 288.476 371.913C288.826 372.499 289.109 373.085 289.563 373.746C289.695 373.935 289.875 374.085 290.084 374.18C290.294 374.274 290.525 374.311 290.754 374.285C291.174 374.211 291.57 374.036 291.907 373.775C292.531 373.316 293.102 372.79 293.608 372.206C293.845 371.929 294.066 371.638 294.27 371.336C294.508 371.041 294.682 370.7 294.78 370.334C294.835 370.122 294.813 369.897 294.72 369.699C294.627 369.501 294.468 369.341 294.27 369.247C294.084 369.194 293.888 369.188 293.7 369.231C293.511 369.274 293.337 369.364 293.193 369.493C292.762 369.865 292.38 370.29 292.058 370.759C291.587 371.42 291.214 372.146 290.953 372.914C290.829 373.185 290.761 373.477 290.754 373.775C291.203 372.783 291.74 371.834 292.361 370.939C292.678 370.517 293.043 370.134 293.448 369.795C293.665 369.644 293.93 369.54 294.091 369.625C294.184 369.68 294.255 369.766 294.293 369.867C294.331 369.969 294.333 370.08 294.298 370.183C294.2 370.478 294.05 370.754 293.854 370.996C293.654 371.278 293.44 371.549 293.212 371.809C292.73 372.36 292.188 372.854 291.595 373.283C291.335 373.494 291.026 373.637 290.697 373.699C290.557 373.718 290.414 373.698 290.285 373.639C290.157 373.581 290.047 373.487 289.97 373.368C289.601 372.829 289.242 372.158 288.902 371.61C288.73 371.351 288.578 371.079 288.448 370.797C288.363 370.542 288.448 370.381 288.59 370.306C288.996 370.136 289.393 370.599 289.667 370.986C290.273 371.884 290.706 372.888 290.943 373.945V373.945Z"
    fill="#263238" />
  <path d="M267.862 374.738L256.407 399.568L237.919 391.023L249.772 360.296L267.862 374.738Z" fill="#FFBE9D" />
  <path d="M258.571 397.914L251.88 410.674C251.88 410.674 269.015 428.396 267.409 432.356L227.126 413.037L238.184 387.432L258.571 397.914Z" fill="#7ED2FF" />
  <path
    d="M240.263 402.961C239.819 402.892 239.364 402.99 238.987 403.236C238.61 403.482 238.338 403.859 238.222 404.294C238.139 404.734 238.228 405.189 238.471 405.565C238.713 405.941 239.091 406.21 239.526 406.316C239.997 406.394 240.479 406.291 240.877 406.028C241.275 405.766 241.559 405.362 241.672 404.899C241.725 404.421 241.587 403.942 241.287 403.567C240.988 403.191 240.552 402.949 240.074 402.895"
    fill="#E0E0E0" />
  <g opacity="0.6">
    <path opacity="0.6" d="M227.126 413.037L228.799 409.833L266.794 429.549C266.794 429.549 268.212 431.184 267.409 432.384L227.126 413.037Z" fill="white" />
  </g>
  <path
    d="M252.626 410.787C252.532 410.976 251.501 410.598 250.235 410.787C248.968 410.976 248.052 411.543 247.91 411.373C247.768 411.203 248.6 410.211 250.14 410.04C251.681 409.87 252.759 410.626 252.626 410.787Z"
    fill="#263238" />
  <path
    d="M256.019 414.558C255.972 414.766 254.961 414.691 253.893 415.211C252.825 415.73 252.21 416.505 252.002 416.401C251.795 416.297 252.22 415.125 253.553 414.511C254.885 413.897 256.142 414.369 256.019 414.558Z"
    fill="#263238" />
  <path
    d="M255.991 420.759C255.792 420.759 255.991 419.606 257.012 418.774C258.033 417.942 259.157 417.952 259.167 418.15C259.176 418.349 258.326 418.661 257.494 419.36C256.662 420.059 256.199 420.853 255.991 420.759Z"
    fill="#263238" />
  <path
    d="M254.554 405.863C254.384 406.004 253.609 405.305 252.466 404.842C251.322 404.379 250.282 404.322 250.254 404.105C250.226 403.887 251.407 403.585 252.749 404.105C254.091 404.624 254.725 405.73 254.554 405.863Z"
    fill="#263238" />
  <path
    d="M262.343 394.596L292.588 318.983C292.588 318.983 291.907 306.082 289.535 301.97C287.163 297.859 215.217 274.145 215.217 274.145C215.217 274.145 196.89 269.731 184.669 274.145C172.448 278.559 163.289 293.832 164.991 302.31C166.692 310.789 174.442 317.669 174.442 317.669L226.71 318.615L255.547 329.172L236.133 384.823L262.343 394.596Z"
    fill="#263238" />
  <path d="M289.204 342.953L289.885 370.287L269.526 370.788L266.596 337.981L289.204 342.953Z" fill="#FFBE9D" />
  <path d="M291.113 367.848L290.735 382.253C290.735 382.253 313.939 390.589 314.241 394.852L269.564 395.334L268.184 367.47L291.113 367.848Z" fill="#7ED2FF" />
  <path
    d="M276.936 380.457C276.508 380.595 276.146 380.884 275.918 381.271C275.69 381.658 275.611 382.115 275.698 382.555C275.818 382.987 276.098 383.356 276.481 383.588C276.864 383.819 277.32 383.896 277.758 383.803C278.218 383.666 278.609 383.36 278.851 382.945C279.093 382.531 279.169 382.04 279.062 381.572C278.891 381.133 278.556 380.778 278.127 380.581C277.699 380.383 277.211 380.359 276.766 380.514"
    fill="#E0E0E0" />
  <g opacity="0.6">
    <path opacity="0.6" d="M269.564 395.334L269.649 391.714L312.446 392.659C312.446 392.659 314.44 393.5 314.232 394.908L269.564 395.334Z" fill="white" />
  </g>
  <path
    d="M291.454 382.017C291.454 382.234 290.357 382.347 289.289 383.056C288.221 383.765 287.663 384.691 287.456 384.606C287.248 384.521 287.569 383.264 288.873 382.423C290.178 381.582 291.501 381.818 291.454 382.017Z"
    fill="#263238" />
  <path
    d="M296.151 383.907C296.208 384.124 295.263 384.502 294.535 385.428C293.807 386.355 293.59 387.319 293.382 387.319C293.174 387.319 293.013 386.08 293.949 384.946C294.884 383.812 296.151 383.699 296.151 383.907Z"
    fill="#263238" />
  <path
    d="M298.873 389.493C298.675 389.54 298.363 388.453 298.873 387.253C299.384 386.052 300.433 385.561 300.527 385.75C300.622 385.939 299.998 386.572 299.582 387.564C299.166 388.557 299.091 389.464 298.873 389.493Z"
    fill="#263238" />
  <path
    d="M291 376.761C290.915 376.96 289.913 376.666 288.675 376.761C287.437 376.856 286.491 377.262 286.378 377.073C286.265 376.884 287.172 376.128 288.628 376.005C290.083 375.882 291.113 376.581 291 376.761Z"
    fill="#263238" />
  <path
    d="M277.323 267.056C277.323 267.056 289.516 266.111 290.877 279.344C292.238 292.576 293.561 354.342 293.561 354.342L265.055 356.715L260.651 293.597L215.179 274.249C215.179 274.249 269.176 265.355 277.323 267.056Z"
    fill="#263238" />
  <path
    d="M227.041 249.192C227.041 249.192 234.441 269.986 233.033 272.264C231.625 274.542 212.589 284.097 212.589 284.097L164.953 302.386C164.953 302.386 160.057 294.607 160.057 282.651C160.057 270.695 176.626 249.192 176.626 249.192H227.041Z"
    fill="#263238" />
  <path
    d="M212.92 273.162L213.147 273.284L213.818 273.596L216.464 274.768L226.36 279.078L260.547 293.795L260.395 293.577C260.83 299.806 261.293 306.545 261.775 313.511C262.938 329.796 264.006 344.805 264.847 356.686V356.903H265.055L285.849 355.079L291.567 354.55L293.07 354.389L293.571 354.323C293.401 354.302 293.23 354.302 293.06 354.323L291.557 354.417L285.83 354.833L265.036 356.478L265.263 356.667C264.45 344.786 263.373 329.768 262.295 313.482C261.804 306.516 261.35 299.777 260.896 293.549V293.388L260.755 293.331L226.502 278.785L216.54 274.608L213.865 273.511L213.175 273.247C213.095 273.206 213.009 273.177 212.92 273.162V273.162Z"
    fill="#455A64" />
  <path
    d="M175.038 275.241C175.494 275.166 175.941 275.043 176.37 274.872L179.962 273.719C183.876 272.391 187.89 271.376 191.965 270.685C196.039 270.016 200.198 270.07 204.253 270.846C205.918 271.233 207.562 271.71 209.177 272.273C208.791 272.014 208.375 271.801 207.939 271.64C206.774 271.149 205.569 270.76 204.338 270.477C200.243 269.58 196.016 269.471 191.88 270.156C187.775 270.865 183.744 271.954 179.839 273.407C178.336 273.946 177.136 274.4 176.304 274.73C175.864 274.853 175.44 275.025 175.038 275.241V275.241Z"
    fill="#455A64" />
  <path
    d="M181.767 264.296C183.155 264.217 184.547 264.217 185.935 264.296C187.221 264.381 188.771 264.58 190.444 264.778C192.117 264.976 194.007 265.203 195.935 265.572C199.241 266.104 202.41 267.279 205.264 269.031C206.402 269.827 207.485 270.699 208.506 271.64C208.319 271.309 208.087 271.007 207.816 270.742C207.108 269.979 206.326 269.289 205.481 268.682C202.629 266.798 199.406 265.547 196.03 265.014C194.083 264.646 192.202 264.428 190.5 264.249C188.799 264.069 187.259 263.927 185.954 263.88C184.925 263.832 183.893 263.879 182.873 264.022C182.493 264.057 182.12 264.149 181.767 264.296Z"
    fill="#455A64" />
  <path
    d="M202.807 97.5032C197.334 96.5581 192.514 98.6847 187.892 101.766C183.19 105.067 179.604 109.723 177.614 115.112C175.623 120.502 175.321 126.37 176.749 131.936C177.541 134.761 178.898 137.397 180.737 139.684C182.576 141.971 184.858 143.862 187.448 145.244C194.584 148.873 203.705 147.606 210.075 142.786C216.445 137.966 220.103 129.989 220.415 121.992C220.702 116.447 219.237 110.951 216.228 106.284C214.711 103.975 212.735 102.004 210.422 100.494C208.11 98.983 205.511 97.965 202.788 97.5032"
    fill="#263238" />
  <path
    d="M187.221 116.142C188.024 114.044 187.712 111.7 188.034 109.478C188.733 104.582 192.674 100.66 197.23 98.7508C201.474 96.9739 206.682 97.3614 211.767 99.0154C215.317 100.091 218.488 102.157 220.907 104.97C222.445 106.88 223.504 109.129 223.997 111.531C224.491 113.933 224.403 116.418 223.742 118.779L198.695 115.13C196.351 117.068 193.969 119.043 191.134 120.121C190.312 120.486 189.41 120.629 188.516 120.537C188.071 120.484 187.651 120.304 187.306 120.019C186.961 119.734 186.705 119.356 186.569 118.93C186.313 117.985 186.871 117.049 187.221 116.142Z"
    fill="#263238" />
  <path
    d="M212.305 105.933L190.444 110.565C189.429 110.638 188.479 111.087 187.78 111.825C187.08 112.564 186.682 113.537 186.663 114.553L186.918 161.868C186.94 165.1 188.022 168.235 190 170.791L192.088 173.475C196.814 179.609 206.474 178.985 210.103 172.133C210.323 171.743 210.491 171.327 210.604 170.895C210.695 170.543 210.764 170.186 210.812 169.827L211.228 165.214C211.445 160.999 211.474 156.708 211.474 156.764C211.474 156.821 220.415 155.63 222.712 144.109C223.846 138.371 223.931 128.901 223.742 121.16C223.543 114.185 219.281 105.461 212.305 105.933Z"
    fill="#FFBE9D" />
  <path
    d="M220.028 130.82C220.018 131.207 219.857 131.575 219.58 131.845C219.303 132.115 218.931 132.266 218.544 132.266C218.354 132.275 218.164 132.245 217.985 132.179C217.807 132.113 217.643 132.012 217.505 131.881C217.366 131.751 217.256 131.594 217.179 131.42C217.103 131.245 217.062 131.057 217.06 130.867C217.07 130.479 217.232 130.109 217.511 129.839C217.79 129.569 218.164 129.418 218.553 129.421C218.742 129.413 218.931 129.444 219.109 129.511C219.286 129.577 219.448 129.679 219.586 129.809C219.723 129.94 219.833 130.096 219.909 130.27C219.985 130.443 220.025 130.63 220.028 130.82Z"
    fill="#263238" />
  <path
    d="M221.474 125.962C221.275 126.142 220.179 125.272 218.581 125.206C216.984 125.14 215.746 125.905 215.614 125.707C215.481 125.508 215.727 125.272 216.256 124.922C216.967 124.465 217.803 124.24 218.648 124.28C219.48 124.312 220.28 124.606 220.935 125.121C221.407 125.556 221.559 125.962 221.474 125.962Z"
    fill="#263238" />
  <path
    d="M205.245 130.054C205.235 130.443 205.073 130.812 204.794 131.082C204.515 131.353 204.14 131.503 203.752 131.5C203.562 131.508 203.373 131.478 203.195 131.411C203.017 131.344 202.854 131.243 202.716 131.113C202.578 130.982 202.467 130.826 202.39 130.652C202.313 130.479 202.271 130.291 202.268 130.101C202.28 129.714 202.443 129.346 202.722 129.076C203 128.806 203.373 128.655 203.761 128.655C203.951 128.646 204.141 128.676 204.32 128.742C204.498 128.808 204.661 128.909 204.8 129.04C204.938 129.17 205.049 129.328 205.126 129.502C205.202 129.676 205.243 129.864 205.245 130.054Z"
    fill="#263238" />
  <path
    d="M206.266 125.603C206.077 125.792 204.98 124.913 203.43 124.856C201.88 124.799 200.595 125.555 200.463 125.348C200.33 125.14 200.576 124.922 201.105 124.563C201.819 124.113 202.653 123.892 203.496 123.93C204.329 123.962 205.129 124.257 205.784 124.771C206.209 125.168 206.36 125.527 206.266 125.603Z"
    fill="#263238" />
  <path
    d="M211.077 137.776C211.932 137.552 212.811 137.428 213.695 137.408C214.101 137.408 214.489 137.322 214.574 137.039C214.622 136.619 214.543 136.194 214.347 135.82C213.997 134.818 213.638 133.769 213.26 132.663C211.748 128.164 210.68 124.478 210.859 124.412C211.039 124.345 212.409 127.956 213.912 132.445C214.271 133.561 214.621 134.61 214.952 135.621C215.185 136.127 215.239 136.697 215.103 137.237C215.038 137.38 214.941 137.505 214.82 137.603C214.699 137.701 214.556 137.77 214.404 137.805C214.175 137.859 213.94 137.885 213.704 137.88C212.828 137.958 211.945 137.923 211.077 137.776Z"
    fill="#263238" />
  <path d="M211.445 156.765C205.981 156.641 200.658 155.005 196.068 152.039C196.068 152.039 199.669 160.214 211.313 159.6L211.445 156.765Z" fill="#EB996E" />
  <path
    d="M210.245 141.614C209.959 141.215 209.574 140.897 209.128 140.692C208.683 140.487 208.191 140.4 207.703 140.442C207.338 140.456 206.982 140.548 206.656 140.711C206.33 140.874 206.042 141.104 205.812 141.387C205.59 141.644 205.451 141.962 205.413 142.3C205.376 142.637 205.443 142.978 205.604 143.277C205.852 143.573 206.181 143.789 206.551 143.899C206.921 144.008 207.315 144.006 207.684 143.892C208.45 143.649 209.163 143.261 209.782 142.748C209.964 142.624 210.123 142.471 210.254 142.294C210.314 142.206 210.346 142.103 210.346 141.997C210.346 141.89 210.314 141.787 210.254 141.699"
    fill="#EB996E" />
  <path
    d="M206.323 138.703C206.578 138.703 206.512 140.432 207.958 141.727C209.404 143.022 211.247 142.899 211.256 143.145C211.256 143.249 210.831 143.466 210.046 143.457C209.028 143.429 208.051 143.044 207.287 142.37C206.556 141.72 206.105 140.812 206.03 139.837C205.992 139.109 206.2 138.693 206.323 138.703Z"
    fill="#263238" />
  <path
    d="M206.181 120.858C206.001 121.283 204.413 121.018 202.532 121.17C200.652 121.321 199.102 121.775 198.865 121.378C198.761 121.189 199.045 120.782 199.678 120.385C200.515 119.9 201.451 119.612 202.416 119.544C203.38 119.475 204.348 119.627 205.245 119.988C205.926 120.291 206.256 120.65 206.181 120.858Z"
    fill="#263238" />
  <path
    d="M221.275 118.977C220.982 119.327 219.895 118.911 218.572 118.845C217.249 118.779 216.105 118.986 215.869 118.599C215.755 118.41 215.954 118.051 216.455 117.729C217.129 117.342 217.904 117.164 218.679 117.218C219.455 117.272 220.197 117.555 220.812 118.032C221.266 118.4 221.407 118.807 221.275 118.977Z"
    fill="#263238" />
  <path
    d="M183.213 112.729C185.482 106.066 195.378 97.0019 202.381 97.6068L213.449 104.554C213.053 106.465 212.147 108.235 210.827 109.674C209.508 111.113 207.824 112.169 205.954 112.729C203.96 113.296 201.568 113.41 200.359 115.092C199.149 116.775 199.773 119.355 198.619 121.122C197.022 123.58 192.778 123.372 191.559 126.037C191.03 127.209 191.266 128.618 190.718 129.771C189.981 131.311 185.992 133.202 184.395 132.653C182.797 132.105 182.826 129.336 182.325 127.871C181.69 126.22 181.643 124.401 182.192 122.72C182.967 119.459 182.136 115.943 183.213 112.729Z"
    fill="#263238" />
  <path
    d="M189.168 134.119C189.168 133.249 188.279 131.179 187.429 131.009C185.16 130.565 181.049 130.593 180.813 136.377C180.453 144.279 188.459 142.994 188.487 142.786C188.516 142.578 189.035 137.096 189.168 134.119Z"
    fill="#FFBE9D" />
  <path
    d="M186.2 139.676C186.2 139.676 186.049 139.77 185.812 139.865C185.649 139.933 185.474 139.968 185.297 139.968C185.121 139.968 184.945 139.933 184.782 139.865C183.96 139.525 183.317 138.164 183.346 136.736C183.361 136.058 183.522 135.391 183.818 134.78C183.903 134.537 184.047 134.318 184.236 134.143C184.426 133.968 184.656 133.843 184.905 133.778C185.064 133.741 185.231 133.761 185.377 133.836C185.522 133.91 185.636 134.034 185.699 134.185C185.803 134.411 185.699 134.572 185.784 134.582C185.869 134.591 185.954 134.459 185.907 134.128C185.869 133.932 185.769 133.753 185.623 133.617C185.409 133.449 185.14 133.365 184.867 133.381C184.54 133.433 184.232 133.567 183.971 133.77C183.71 133.973 183.504 134.239 183.374 134.544C183.008 135.214 182.81 135.963 182.797 136.727C182.797 138.324 183.525 139.846 184.688 140.234C184.897 140.303 185.119 140.326 185.338 140.3C185.557 140.274 185.767 140.2 185.954 140.082C186.2 139.865 186.2 139.695 186.2 139.676Z"
    fill="#EB996E" />
  <path
    d="M181.521 110.716C181.521 108.24 178.459 106.624 176.049 106.066C173.588 105.636 171.055 106.117 168.922 107.418C167.656 108.117 166.38 109.11 166.087 110.527C165.794 111.945 167.164 113.637 168.516 113.127C167.836 113.331 167.211 113.685 166.687 114.164C166.162 114.643 165.753 115.234 165.488 115.893C165.224 116.552 165.111 117.262 165.159 117.97C165.207 118.679 165.413 119.367 165.764 119.985C166.114 120.602 166.599 121.133 167.182 121.537C167.766 121.942 168.433 122.209 169.134 122.321C169.836 122.432 170.553 122.384 171.233 122.179C171.913 121.975 172.538 121.621 173.062 121.142C172.37 123.426 170.92 125.406 168.951 126.756C170.999 127.05 173.088 126.798 175.008 126.026C176.927 125.254 178.609 123.989 179.883 122.359C181.158 120.729 181.979 118.791 182.265 116.742C182.551 114.693 182.291 112.605 181.512 110.688L181.521 110.716Z"
    fill="#263238" />
  <path
    d="M176.03 123.287C175.806 122.517 175.707 121.716 175.737 120.915C175.711 117.009 176.992 113.206 179.376 110.112C179.837 109.454 180.402 108.876 181.049 108.401C179.401 110.514 178.084 112.866 177.145 115.376C175.69 119.601 176.21 123.297 176.03 123.287Z"
    fill="#7ED2FF" />
  <path
    d="M211.152 102.219C211.88 105.433 216.767 109.563 218.922 112.068C223.014 116.851 223.818 118.438 223.78 129.081C225.717 125.385 227.201 121.765 227.05 117.607C226.961 113.394 225.334 109.36 222.476 106.265C221.037 104.742 219.262 103.578 217.292 102.866C215.322 102.153 213.213 101.913 211.134 102.163"
    fill="#263238" />
  <path
    d="M244.677 190.177C244.677 190.177 236.171 175.999 233.799 173.097C231.897 170.876 229.506 169.125 226.814 167.984C225.751 167.533 224.637 167.216 223.496 167.039L211.209 164.326C211.209 164.326 211.209 172.691 202.419 173.201C193.629 173.712 186.276 161.519 186.276 161.519C186.276 161.519 172.098 163.702 168.734 165.451C165.369 167.2 160.019 169.402 157.089 184.071L155.038 198.418L179.489 200.63L181.824 236.905L193.932 245.336C193.932 245.336 227.494 254.06 229.64 254.637C231.785 255.213 232.513 200.63 232.513 200.63C232.513 200.63 241.114 195.063 244.677 190.177Z"
    fill="#7ED2FF" />
  <path
    d="M228.61 184.08C228.809 184.409 228.968 184.761 229.082 185.129C229.366 185.809 229.715 186.811 230.112 188.078C232.161 194.669 233.006 201.575 232.608 208.465C232.532 209.779 232.428 210.847 232.324 211.575C232.298 211.959 232.229 212.34 232.116 212.709C232.075 212.326 232.075 211.939 232.116 211.556C232.163 210.828 232.211 209.76 232.249 208.446C232.451 201.601 231.613 194.766 229.763 188.172C229.413 186.906 229.111 185.885 228.884 185.186C228.755 184.827 228.663 184.457 228.61 184.08V184.08Z"
    fill="#263238" />
  <path
    d="M227.57 243.502L181.606 233.493L179.489 200.63L159.045 198.739C159.045 198.739 159.802 221.196 160.586 227.879C161.72 237.482 167.391 250.563 170.718 253.2C174.045 255.837 229.678 254.646 229.678 254.646L227.57 243.502Z"
    fill="#FFBE9D" />
  <path
    d="M253.666 249.457C253.502 249.764 253.252 250.017 252.946 250.185C252.641 250.353 252.293 250.428 251.946 250.402C251.795 250.39 251.646 250.362 251.501 250.317C250.49 249.986 250.556 247.916 250.556 247.916L245.689 247.122C245.689 247.122 239.347 251.205 237.097 253.909C234.848 256.612 229.092 254.428 229.092 254.428L227.097 244.032L236.067 235.931C236.067 235.931 235.519 236.414 236.133 234.892C236.747 233.37 239.573 233.947 239.573 233.947C240.008 233.2 241.851 232.935 241.851 232.935L249.715 233.88C250.516 233.972 251.285 234.242 251.968 234.67C252.65 235.099 253.227 235.675 253.656 236.357L256.983 241.621C256.983 241.621 258.732 245.402 258.448 246.29C258.325 246.657 258.07 246.965 257.733 247.155C257.397 247.345 257.002 247.404 256.624 247.321C256.624 247.321 256.237 249.816 255.575 249.901C254.906 249.868 254.249 249.711 253.638 249.438L253.666 249.457Z"
    fill="#FFBE9D" />
  <path
    d="M236.927 241.999C236.927 242.075 237.976 241.999 239.659 242.056C241.843 242.158 244.003 242.562 246.076 243.256C247.215 243.639 248.322 244.113 249.384 244.674C250.329 245.204 251.275 245.619 251.634 246.338C251.704 246.489 251.733 246.656 251.718 246.822C251.704 246.988 251.645 247.147 251.549 247.283C251.402 247.504 251.196 247.677 250.953 247.784C250.731 247.856 250.497 247.891 250.263 247.888C250.263 247.888 250.509 248.105 251.019 247.973C251.322 247.882 251.587 247.697 251.776 247.444C251.912 247.273 252 247.07 252.032 246.854C252.064 246.638 252.037 246.417 251.955 246.215C251.757 245.761 251.428 245.376 251.01 245.109C250.565 244.808 250.104 244.531 249.63 244.277C248.558 243.677 247.431 243.18 246.265 242.793C244.15 242.074 241.931 241.707 239.696 241.706C238.764 241.657 237.829 241.756 236.927 241.999Z"
    fill="#EB996E" />
  <path
    d="M236.369 247.009C236.369 247.16 239.583 247.009 243.515 247.254C247.447 247.5 250.613 247.963 250.641 247.822C249.984 247.562 249.294 247.394 248.59 247.321C246.92 247.035 245.235 246.846 243.543 246.754C241.853 246.659 240.158 246.659 238.468 246.754C237.76 246.748 237.055 246.833 236.369 247.009V247.009Z"
    fill="#EB996E" />
  <path
    d="M253.619 249.249C253.677 248.975 253.709 248.697 253.713 248.417C253.762 247.649 253.762 246.879 253.713 246.111C253.681 245.574 253.608 245.04 253.496 244.514C253.343 243.901 253.08 243.322 252.721 242.803C251.947 241.613 250.945 240.588 249.772 239.788C248.609 238.979 247.336 238.342 245.991 237.898C244.886 237.584 243.746 237.41 242.598 237.378C241.653 237.378 240.84 237.378 240.301 237.378C240.018 237.358 239.734 237.387 239.46 237.463C240.49 237.611 241.529 237.696 242.57 237.718C243.682 237.797 244.782 238 245.849 238.323C247.135 238.788 248.353 239.424 249.469 240.213C250.586 240.97 251.548 241.932 252.305 243.049C252.926 243.957 253.28 245.021 253.326 246.12C253.552 248.049 253.505 249.258 253.619 249.249Z"
    fill="#EB996E" />
  <path
    d="M242.258 234.987C242.258 235.062 243.43 235.091 245.311 235.308C247.192 235.526 250.037 235.724 251.662 238.21C253.264 240.074 254.6 242.151 255.632 244.382C255.975 245.338 256.225 246.326 256.379 247.331C256.45 247.056 256.466 246.77 256.426 246.49C256.38 245.728 256.228 244.977 255.972 244.259C255.014 241.944 253.693 239.797 252.059 237.898C251.615 237.323 251.1 236.805 250.528 236.357C249.958 235.952 249.317 235.657 248.638 235.488C247.549 235.2 246.435 235.023 245.311 234.959C244.296 234.834 243.27 234.843 242.258 234.987V234.987Z"
    fill="#EB996E" />
  <path
    d="M238.846 252.283C239.011 252.178 239.166 252.058 239.309 251.924L240.632 250.875C242.284 249.586 244.01 248.397 245.802 247.311H245.689L250.556 248.143L250.386 247.935C250.373 248.334 250.401 248.733 250.471 249.126C250.536 249.564 250.73 249.972 251.029 250.298C251.209 250.458 251.433 250.56 251.672 250.591C251.899 250.639 252.134 250.639 252.362 250.591C252.831 250.522 253.26 250.288 253.571 249.929C253.649 249.838 253.719 249.74 253.779 249.636L253.827 249.561L253.534 249.665L253.685 249.731L254.318 249.948C254.535 250.019 254.756 250.076 254.98 250.119C255.102 250.128 255.226 250.128 255.348 250.119C255.501 250.13 255.655 250.101 255.793 250.033C256.01 249.868 256.176 249.645 256.275 249.391C256.37 249.173 256.449 248.949 256.511 248.72C256.647 248.267 256.754 247.806 256.832 247.34L256.539 247.538C256.87 247.606 257.212 247.583 257.532 247.474C257.851 247.364 258.135 247.171 258.354 246.914C258.572 246.648 258.693 246.314 258.694 245.969C258.668 245.649 258.611 245.333 258.524 245.024C258.156 243.826 257.708 242.655 257.182 241.518V241.518L255.405 238.682C255.027 238.087 254.658 237.491 254.28 236.905C253.935 236.288 253.523 235.711 253.052 235.185C252.549 234.677 251.947 234.278 251.284 234.013C250.64 233.774 249.965 233.631 249.28 233.588L241.861 232.756H241.804C241.363 232.832 240.929 232.949 240.509 233.106C240.058 233.241 239.661 233.516 239.375 233.89L239.649 233.805C239.248 233.624 238.809 233.542 238.37 233.566C237.931 233.591 237.504 233.722 237.126 233.947C236.468 234.425 236.02 235.14 235.878 235.941L235.935 235.837L229.753 241.395L228.09 242.926C227.887 243.097 227.7 243.287 227.532 243.493C227.754 243.347 227.966 243.186 228.165 243.011L229.895 241.546L236.18 236.111V236.036C236.322 235.345 236.716 234.731 237.286 234.315C237.607 234.13 237.968 234.025 238.338 234.008C238.708 233.992 239.077 234.065 239.413 234.221L239.583 234.287L239.687 234.136C239.932 233.843 240.262 233.635 240.632 233.54C241.024 233.397 241.429 233.292 241.842 233.228H241.785L249.195 234.107C249.842 234.138 250.479 234.268 251.086 234.495C251.682 234.739 252.223 235.102 252.673 235.563C253.122 236.064 253.515 236.613 253.845 237.198L254.961 238.984C255.575 239.93 256.171 240.875 256.738 241.82C257.259 242.927 257.698 244.07 258.051 245.241C258.14 245.511 258.194 245.79 258.212 246.073C258.218 246.314 258.138 246.549 257.985 246.735C257.825 246.923 257.616 247.064 257.381 247.142C257.146 247.22 256.894 247.233 256.653 247.179H256.407V247.415C256.334 247.862 256.236 248.303 256.114 248.739C256.032 249.125 255.857 249.485 255.603 249.788C255.538 249.803 255.47 249.803 255.405 249.788H255.103C254.897 249.755 254.694 249.705 254.498 249.636C254.299 249.58 254.091 249.514 253.902 249.438L253.751 249.372L253.458 249.476V249.523V249.589C253.407 249.669 253.351 249.745 253.288 249.816C253.047 250.101 252.711 250.289 252.343 250.345C252.165 250.383 251.982 250.383 251.804 250.345C251.64 250.328 251.486 250.262 251.36 250.156C250.946 249.564 250.758 248.843 250.83 248.124V247.945H250.66L245.783 247.189H245.727H245.679C243.893 248.307 242.185 249.545 240.566 250.894C239.999 251.366 239.573 251.754 239.299 252.018C239.142 252.096 238.991 252.185 238.846 252.283Z"
    fill="#EB996E" />
  <path
    d="M304.005 219.25L243.458 219.741C241.502 219.741 239.621 220.686 239.328 222.624L232.712 266.754H201.521C201.271 266.736 201.02 266.769 200.784 266.853C200.547 266.936 200.331 267.067 200.147 267.238C199.964 267.408 199.818 267.615 199.718 267.845C199.617 268.075 199.566 268.322 199.566 268.573C199.566 268.824 199.617 269.072 199.718 269.301C199.818 269.531 199.964 269.738 200.147 269.909C200.331 270.079 200.547 270.21 200.784 270.294C201.02 270.377 201.271 270.411 201.521 270.392H301.123L307.928 223.815C308.014 223.25 307.976 222.673 307.819 222.124C307.661 221.574 307.386 221.066 307.014 220.632C306.642 220.199 306.18 219.851 305.661 219.612C305.141 219.374 304.577 219.25 304.005 219.25V219.25Z"
    fill="#E0E0E0" />
  <path
    d="M304.005 219.25C304.323 219.236 304.642 219.267 304.951 219.344C305.879 219.558 306.699 220.102 307.257 220.875C307.667 221.43 307.927 222.081 308.013 222.766C308.027 223.603 307.951 224.44 307.786 225.261C307.531 227.038 307.238 229.098 306.916 231.404C305.584 240.658 303.656 253.984 301.302 270.373V270.534H301.141L204.517 270.591H201.918C201.446 270.638 200.971 270.55 200.548 270.336C200.11 270.097 199.774 269.707 199.602 269.239C199.435 268.776 199.439 268.269 199.612 267.808C199.785 267.347 200.117 266.963 200.548 266.725C200.972 266.515 201.447 266.427 201.918 266.47H232.73L232.494 266.668L239.11 222.898C239.177 222.016 239.58 221.194 240.235 220.601C240.892 220.042 241.696 219.684 242.551 219.571C243.361 219.496 244.175 219.468 244.989 219.486H247.362L256.482 219.42L272.683 219.316L295.735 219.202H303.504H304.043H303.504H301.907L295.735 219.297L272.683 219.552L256.482 219.713L247.371 219.798H244.989C244.194 219.781 243.399 219.813 242.607 219.892C241.828 219.995 241.095 220.323 240.5 220.837C239.926 221.377 239.587 222.12 239.555 222.907C237.579 236.14 235.377 250.875 233.023 266.687V266.886H201.899C201.511 266.837 201.116 266.902 200.765 267.075C200.445 267.258 200.198 267.547 200.069 267.892C199.939 268.237 199.935 268.617 200.056 268.965C200.182 269.323 200.434 269.622 200.765 269.806C201.117 269.978 201.51 270.046 201.899 270.005H204.498L301.123 270.062L300.943 270.222L306.718 231.272C307.058 228.966 307.37 226.915 307.663 225.128C307.84 224.325 307.923 223.503 307.909 222.68C307.851 221.999 307.609 221.345 307.209 220.79C306.667 220.027 305.875 219.479 304.969 219.24C304.346 219.25 304.005 219.278 304.005 219.25Z"
    fill="#263238" />
  <path
    d="M267.371 244.259C267.371 245.006 267.593 245.737 268.008 246.359C268.423 246.981 269.014 247.465 269.705 247.751C270.396 248.038 271.156 248.112 271.889 247.967C272.622 247.821 273.296 247.461 273.825 246.932C274.354 246.403 274.714 245.73 274.86 244.996C275.005 244.263 274.931 243.503 274.644 242.812C274.358 242.121 273.874 241.53 273.252 241.115C272.63 240.7 271.899 240.478 271.152 240.478C270.149 240.478 269.187 240.876 268.478 241.585C267.769 242.294 267.371 243.256 267.371 244.259Z"
    fill="white" />
  <path
    d="M235.169 269.977C235.254 269.977 237.182 258.758 239.47 244.892C241.757 231.026 243.553 219.76 243.458 219.741C243.364 219.722 241.454 230.96 239.158 244.835C236.861 258.71 235.084 269.967 235.169 269.977Z"
    fill="#263238" />
</svg>