<svg width="35" height="35" viewBox="0 0 35 35" fill="none" xmlns="http://www.w3.org/2000/svg">
  <path
    d="M34.9865 9.10526C34.9509 8.41401 34.5117 7.80849 33.8659 7.56062C33.6617 7.48248 33.4494 7.44393 33.2389 7.44393C32.7827 7.44393 32.3353 7.62241 32.0005 7.95724L27.9119 12.0493L23.751 11.2577L22.96 7.09386L27.0486 3.0018C27.5374 2.51241 27.6926 1.7809 27.4453 1.13511C27.1973 0.489385 26.593 0.0495605 25.9023 0.0133301C25.7302 0.00464844 25.5575 0 25.3848 0C22.8048 0 20.3921 0.992236 18.5914 2.79419C15.7389 5.64901 14.9969 9.87062 16.5888 13.4698L5.16358 24.9043L2.29064 27.7795C1.08547 28.9858 -1.42284 31.4959 1.05279 33.9739C1.90038 34.8221 2.78536 35 3.37858 35C4.97922 35 6.18152 33.7966 7.2426 32.7349L21.5424 18.4234C22.7581 18.9571 24.0758 19.2354 25.4187 19.2354C27.9836 19.2354 30.3951 18.2361 32.2081 16.422C34.1167 14.5121 35.1294 11.8452 34.9865 9.10526ZM30.9703 15.183C29.4361 16.7184 27.4283 17.4837 25.4187 17.4837C23.958 17.4837 22.4968 17.0795 21.2157 16.2727C15.7499 21.7431 8.54922 28.9491 6.0042 31.4959C5.12858 32.3721 4.25358 33.2482 3.37804 33.2482C3.0158 33.2482 2.65295 33.0977 2.2901 32.7349C1.05225 31.4959 2.2901 30.2569 3.52795 29.0185C6.07297 26.4717 13.2731 19.2657 18.7395 13.7953C16.825 10.7496 17.1791 6.685 19.8286 4.0332C21.3633 2.4973 23.3723 1.75239 25.3842 1.75239C25.5265 1.75239 25.6683 1.75588 25.8106 1.76347L21.067 6.51061L22.2535 12.7563L28.4946 13.944L33.2382 9.19625C33.3508 11.3494 32.6135 13.538 30.9703 15.183Z"
    fill="#0757A0" />
</svg>