<svg width="11" height="11" viewBox="0 0 11 11" fill="none" xmlns="http://www.w3.org/2000/svg">
<circle opacity="0.3" cx="5.5" cy="5.5" r="5.5" fill="#24272C"/>
<path d="M6.0625 8H4.92969V3.77344H6.0625V8ZM4.86328 2.67969C4.86328 2.51042 4.91927 2.37109 5.03125 2.26172C5.14583 2.15234 5.30078 2.09766 5.49609 2.09766C5.6888 2.09766 5.84245 2.15234 5.95703 2.26172C6.07161 2.37109 6.12891 2.51042 6.12891 2.67969C6.12891 2.85156 6.07031 2.99219 5.95312 3.10156C5.83854 3.21094 5.6862 3.26562 5.49609 3.26562C5.30599 3.26562 5.15234 3.21094 5.03516 3.10156C4.92057 2.99219 4.86328 2.85156 4.86328 2.67969Z" fill="white"/>
</svg>
