<svg width="41" height="35" viewBox="0 0 41 35" fill="none" xmlns="http://www.w3.org/2000/svg">
  <path
    d="M6.914 20.5895L12.9469 23.1096C13.3375 23.2729 13.7906 23.127 14.0118 22.7636L19.9995 12.9312L26.6444 19.6012C27.0223 19.9804 27.6527 19.9254 27.9587 19.485L31.9349 13.761L32.4649 14.1172C32.7658 14.3195 33.1728 14.1202 33.1975 13.7585L33.4193 10.5134C33.4441 10.1516 33.0679 9.89879 32.7423 10.0582L29.821 11.4886C29.4954 11.6481 29.4646 12.1002 29.7654 12.3025L30.5087 12.8022L27.1349 17.6589L20.4438 10.9426C20.0499 10.5471 19.3905 10.6278 19.1016 11.1021L12.9281 21.2395L7.57622 19.004C7.13875 18.8211 6.63519 19.0277 6.45236 19.4656C6.26943 19.9034 6.47619 20.4065 6.914 20.5895Z"
    fill="#0757A0" />
  <path
    d="M39.8064 3.09081C38.9273 3.09081 21.8686 3.09081 21.1919 3.09081V0.85913C21.1919 0.384661 20.8072 0 20.3327 0C19.8583 0 19.4736 0.384661 19.4736 0.85913V3.09081C18.7813 3.09081 1.73006 3.09081 0.85913 3.09081C0.384661 3.09081 0 3.47547 0 3.94994C0 4.42441 0.384661 4.80907 0.85913 4.80907H2.14198V28.3767C2.14198 28.8512 2.52664 29.2359 3.00111 29.2359H13.1277L9.01468 33.5479C8.68718 33.8913 8.70001 34.4351 9.04332 34.7626C9.38674 35.0901 9.93063 35.0771 10.258 34.7338L12.7533 32.1178H27.9122L30.4075 34.7338C30.7352 35.0772 31.2789 35.0899 31.6222 34.7626C31.9655 34.4351 31.9783 33.8913 31.6509 33.5479L27.5379 29.2359H37.6645C38.139 29.2359 38.5236 28.8512 38.5236 28.3767V4.80907H39.8064C40.2808 4.80907 40.6655 4.42441 40.6655 3.94994C40.6655 3.47547 40.2808 3.09081 39.8064 3.09081ZM14.3923 30.3997L15.5024 29.2359H25.1631L26.2732 30.3997H14.3923ZM36.8054 27.5176H3.86024V4.80907H36.8054V27.5176Z"
    fill="#0757A0" />
</svg>