<svg width="10" height="9" viewBox="0 0 10 9" fill="none" xmlns="http://www.w3.org/2000/svg">
  <path
    d="M6.69116 0H3.29728C1.91798 0 0.795837 1.12214 0.795837 2.50144V5.89532C0.795837 7.27462 1.91798 8.39676 3.29728 8.39676H6.69116C8.07046 8.39676 9.1926 7.27462 9.1926 5.89532V2.50144C9.19258 1.12214 8.07044 0 6.69116 0ZM8.34788 5.89532C8.34788 6.8103 7.60613 7.55205 6.69116 7.55205H3.29728C2.3823 7.55205 1.64055 6.8103 1.64055 5.89532V2.50144C1.64055 1.58645 2.3823 0.844714 3.29728 0.844714H6.69116C7.60613 0.844714 8.34788 1.58645 8.34788 2.50144V5.89532Z"
    fill="url(#paint0_linear_207_3)" />
  <path
    d="M4.99422 2.02667C3.79674 2.02667 2.82252 3.0009 2.82252 4.19836C2.82252 5.39582 3.79674 6.37006 4.99422 6.37006C6.19169 6.37006 7.16592 5.39584 7.16592 4.19836C7.16592 3.00088 6.19169 2.02667 4.99422 2.02667ZM4.99422 5.52536C4.26134 5.52536 3.66723 4.93125 3.66723 4.19837C3.66723 3.46549 4.26135 2.87139 4.99422 2.87139C5.7271 2.87139 6.3212 3.46549 6.3212 4.19837C6.3212 4.93124 5.72708 5.52536 4.99422 5.52536Z"
    fill="url(#paint1_linear_207_3)" />
  <path
    d="M7.17006 2.56338C7.45745 2.56338 7.69043 2.3304 7.69043 2.04301C7.69043 1.75562 7.45745 1.52264 7.17006 1.52264C6.88267 1.52264 6.64969 1.75562 6.64969 2.04301C6.64969 2.3304 6.88267 2.56338 7.17006 2.56338Z"
    fill="url(#paint2_linear_207_3)" />
  <defs>
    <linearGradient id="paint0_linear_207_3" x1="4.99422" y1="8.3723" x2="4.99422" y2="0.065216" gradientUnits="userSpaceOnUse">
      <stop stop-color="#E09B3D" />
      <stop offset="0.3" stop-color="#C74C4D" />
      <stop offset="0.6" stop-color="#C21975" />
      <stop offset="1" stop-color="#7024C4" />
    </linearGradient>
    <linearGradient id="paint1_linear_207_3" x1="4.99422" y1="8.37229" x2="4.99422" y2="0.0652098" gradientUnits="userSpaceOnUse">
      <stop stop-color="#E09B3D" />
      <stop offset="0.3" stop-color="#C74C4D" />
      <stop offset="0.6" stop-color="#C21975" />
      <stop offset="1" stop-color="#7024C4" />
    </linearGradient>
    <linearGradient id="paint2_linear_207_3" x1="7.17006" y1="8.37229" x2="7.17006" y2="0.0652154" gradientUnits="userSpaceOnUse">
      <stop stop-color="#E09B3D" />
      <stop offset="0.3" stop-color="#C74C4D" />
      <stop offset="0.6" stop-color="#C21975" />
      <stop offset="1" stop-color="#7024C4" />
    </linearGradient>
  </defs>
</svg>