<svg width="48" height="48" viewBox="0 0 48 48" fill="none" xmlns="http://www.w3.org/2000/svg">
  <path
    d="M39.6914 11.1896C39.6914 9.59435 38.3985 8.30626 36.8092 8.30626C35.2198 8.30626 33.9258 9.59435 33.9258 11.1896C33.9258 12.779 35.2198 14.0671 36.8092 14.0671C38.3985 14.0671 39.6914 12.779 39.6914 11.1896"
    fill="url(#paint0_linear_1330_9)" />
  <path
    d="M43.5331 33.6969C43.4264 36.0371 43.035 37.3085 42.71 38.153C42.2735 39.2727 41.7528 40.0733 40.9084 40.9131C40.0733 41.7528 39.2727 42.2723 38.153 42.704C37.3085 43.0338 36.0323 43.4264 33.6922 43.5379C31.1622 43.6494 30.4126 43.6731 23.997 43.6731C17.5874 43.6731 16.8318 43.6494 14.3019 43.5379C11.9618 43.4264 10.6915 43.0338 9.84691 42.704C8.72134 42.2723 7.92669 41.7528 7.08693 40.9131C6.24122 40.0733 5.72055 39.2727 5.29 38.153C4.96495 37.3085 4.56767 36.0371 4.46679 33.6969C4.3435 31.1669 4.3209 30.4055 4.3209 24.003C4.3209 17.5874 4.3435 16.8318 4.46679 14.3019C4.56767 11.9618 4.96495 10.6915 5.29 9.83979C5.72055 8.72133 6.24122 7.92543 7.08693 7.08568C7.92669 6.24717 8.72134 5.72642 9.84691 5.29C10.6915 4.95908 11.9618 4.57238 14.3019 4.46092C16.8318 4.34937 17.5874 4.3209 23.997 4.3209C30.4126 4.3209 31.1622 4.34937 33.6922 4.46092C36.0323 4.57238 37.3085 4.95908 38.153 5.29C39.2727 5.72642 40.0733 6.24717 40.9084 7.08568C41.7528 7.92543 42.2735 8.72133 42.71 9.83979C43.035 10.6915 43.4264 11.9618 43.5331 14.3019C43.6505 16.8318 43.679 17.5874 43.679 24.003C43.679 30.4055 43.6505 31.1669 43.5331 33.6969V33.6969ZM47.8541 14.105C47.7367 11.5478 47.3334 9.80065 46.7344 8.27895C46.1248 6.70023 45.3075 5.36232 43.9696 4.02441C42.6377 2.69245 41.2998 1.87521 39.721 1.25847C38.1934 0.665394 36.4521 0.257347 33.8937 0.145884C31.3353 0.0225003 30.5182 -7.11842e-06 23.997 -7.11842e-06C17.4818 -7.11842e-06 16.6587 0.0225003 14.1003 0.145884C11.5478 0.257347 9.80777 0.665394 8.27299 1.25847C6.70024 1.87521 5.36232 2.69245 4.03037 4.02441C2.69246 5.36232 1.87521 6.70023 1.25963 8.27895C0.666554 9.80065 0.263312 11.5478 0.139929 14.105C0.0284662 16.6634 0 17.4818 0 24.003C0 30.5182 0.0284662 31.3353 0.139929 33.8937C0.263312 36.4463 0.666554 38.1921 1.25963 39.721C1.87521 41.2938 2.69246 42.6377 4.03037 43.9696C5.36232 45.3016 6.70024 46.1248 8.27299 46.7404C9.80777 47.3334 11.5478 47.7367 14.1003 47.8541C16.6587 47.9715 17.4818 48 23.997 48C30.5182 48 31.3353 47.9715 33.8937 47.8541C36.4521 47.7367 38.1934 47.3334 39.721 46.7404C41.2998 46.1248 42.6377 45.3016 43.9696 43.9696C45.3075 42.6377 46.1248 41.2938 46.7344 39.721C47.3334 38.1921 47.7367 36.4463 47.8541 33.8937C47.9715 31.3353 48 30.5182 48 24.003C48 17.4818 47.9715 16.6634 47.8541 14.105V14.105Z"
    fill="url(#paint1_linear_1330_9)" />
  <path
    d="M23.9976 31.996C19.5818 31.996 15.9986 28.4187 15.9986 24.0029C15.9986 19.58 19.5818 15.998 23.9976 15.998C28.4147 15.998 32.0026 19.58 32.0026 24.0029C32.0026 28.4187 28.4147 31.996 23.9976 31.996V31.996ZM23.9976 11.6711C17.1907 11.6711 11.6777 17.1959 11.6777 24.0029C11.6777 30.804 17.1907 36.3229 23.9976 36.3229C30.8046 36.3229 36.3235 30.804 36.3235 24.0029C36.3235 17.1959 30.8046 11.6711 23.9976 11.6711Z"
    fill="url(#paint2_linear_1330_9)" />
  <defs>
    <linearGradient id="paint0_linear_1330_9" x1="0.431785" y1="47.5037" x2="44.001" y2="3.93475" gradientUnits="userSpaceOnUse">
      <stop stop-color="#FFD521" />
      <stop offset="0.05" stop-color="#FFD521" />
      <stop offset="0.501119" stop-color="#F50000" />
      <stop offset="0.95" stop-color="#B900B4" />
      <stop offset="0.950079" stop-color="#B900B4" />
      <stop offset="1" stop-color="#B900B4" />
    </linearGradient>
    <linearGradient id="paint1_linear_1330_9" x1="0.432953" y1="47.5635" x2="44.0379" y2="3.95858" gradientUnits="userSpaceOnUse">
      <stop stop-color="#FFD521" />
      <stop offset="0.05" stop-color="#FFD521" />
      <stop offset="0.501119" stop-color="#F50000" />
      <stop offset="0.95" stop-color="#B900B4" />
      <stop offset="0.950079" stop-color="#B900B4" />
      <stop offset="1" stop-color="#B900B4" />
    </linearGradient>
    <linearGradient id="paint2_linear_1330_9" x1="0.444883" y1="47.5646" x2="44.0393" y2="3.97022" gradientUnits="userSpaceOnUse">
      <stop stop-color="#FFD521" />
      <stop offset="0.05" stop-color="#FFD521" />
      <stop offset="0.501119" stop-color="#F50000" />
      <stop offset="0.95" stop-color="#B900B4" />
      <stop offset="0.950079" stop-color="#B900B4" />
      <stop offset="1" stop-color="#B900B4" />
    </linearGradient>
  </defs>
</svg>