<svg width="200" height="100" viewBox="0 0 200 100" fill="none" xmlns="http://www.w3.org/2000/svg">
  <path
    d="M71.2435 48.6682C71.2435 48.6682 74.0114 41.3601 78.1356 37.652C82.0025 33.9438 82.5748 35.0404 80.4874 38.3734C78.5636 41.5573 74.1677 47.7183 71.2435 48.6562V48.6682ZM23.5185 48.774C27.015 48.774 28.9485 45.7464 30.2519 44.2338C30.9733 43.4475 33.3324 40.4223 34.4313 39.4243C35.5255 38.484 36.7255 39.0059 35.6818 40.4175C34.9003 41.983 32.7071 46.2634 27.1689 51.0153C18.6633 57.9121 19.3414 59.7927 19.1298 61.7261C19.1298 62.3513 18.9735 65.4823 22.7875 65.4823C27.6427 65.4823 30.9853 59.1674 33.2314 55.7695C33.3348 55.2068 42.2156 38.8015 42.937 37.8612C43.6176 36.8704 48.468 29.7691 48.468 29.1415C48.468 28.6605 48.7806 27.4173 46.5874 27.4173C44.1827 27.4173 42.5667 29.3411 40.2701 31.0244C37.3846 32.8294 34.4075 34.4837 31.3508 35.9807C23.7253 39.7922 20.0725 42.4615 20.0725 45.7464C20.0725 49.089 23.5185 48.774 23.5185 48.774ZM39.3299 46.1649C40.4264 48.6682 39.0148 52.1768 38.2333 53.5787C37.3988 54.6753 35.5183 58.1743 35.5183 63.1978C35.5183 68.5268 38.2333 70.2991 42.2011 70.2991C46.5874 70.2991 46.3277 67.5841 46.3277 67.5841C43.3506 67.3749 43.442 61.8415 45.2287 56.8276C47.4772 49.7792 45.4404 45.3929 45.4404 45.3929C53.114 42.3124 68.0452 30.9282 68.0452 24.5075C68.0596 22.0378 66.2296 20.5781 64.7675 20.5781C62.9423 20.5781 61.271 21.2563 58.8085 24.6518C46.0223 42.3004 41.1142 42.7693 41.1142 42.7693L39.3299 46.1649ZM48.6243 57.6524C46.0127 58.1743 45.2287 58.6961 45.2287 60.7329C45.4404 63.1858 49.8772 61.5145 49.8772 61.5145C49.8868 62.6616 51.3537 64.3449 54.9608 64.3449C59.8714 64.3449 64.8829 60.1678 64.8829 60.1678C64.8829 61.5241 67.6508 64.3449 70.7313 64.3449C75.8487 64.3449 81.2257 60.1678 81.2257 60.1678C81.2257 62.6736 83.681 65.1793 86.2397 65.1793C93.4972 65.1793 92.7157 57.662 92.7157 57.662C86.9178 59.4897 87.9639 54.6849 87.9639 54.6849C98.5521 45.9556 106.699 33.1623 106.699 27.7924C106.699 25.4959 104.819 23.4061 101.738 25.1833C84.3495 34.8937 81.2161 53.5884 81.2161 53.5884C79.2322 55.7791 76.0483 57.3999 73.8022 57.3999C71.6091 57.3999 71.609 55.0481 71.609 55.0481C81.2281 47.5332 88.3198 35.365 88.3198 31.2938C88.3198 28.8385 86.2805 27.4269 83.3058 28.8385C68.1558 34.8937 64.4044 54.6849 64.4044 54.6849C57.4594 60.7425 55.9444 58.1839 55.9444 58.1839C61.1651 55.5218 64.0388 50.3515 64.0388 46.4342C64.0388 44.0294 62.3675 42.2042 60.0181 42.625C49.1557 45.1284 48.6339 57.662 48.6339 57.662L48.6243 57.6524ZM88.517 47.5235C88.517 47.5235 91.5975 39.6359 95.8275 35.3554C99.3793 31.5439 100.156 32.7967 98.1264 36.1394C96.2026 39.4291 91.2319 46.6338 88.5073 47.5235H88.517ZM54.5352 54.6753C54.5352 54.6753 54.9512 51.0201 56.3075 49.6109C58.8181 46.6338 59.8618 47.3119 58.1904 50.6016C57.6662 51.5948 57.1973 52.9511 54.5352 54.6753ZM106.803 44.0222C98.5521 45.1188 93.8026 53.5788 93.8026 58.6913C93.8026 62.5028 95.9934 65.1649 100.329 65.1649C110.302 65.1649 113.796 49.1876 113.796 49.1876C115.155 49.9091 119.276 49.9091 119.276 49.9091C116.511 52.1551 114.005 55.7551 114.005 58.4219C114.005 61.2403 115.883 62.9646 118.391 62.9646C121.053 62.9646 123.98 60.9253 123.98 60.9253C123.562 62.3369 122.297 63.7461 122.297 63.7461C107.313 67.3533 105.432 75.0245 105.432 76.3832C105.432 78.2132 107.313 79.6729 109.761 79.6729C117.959 79.6729 126.784 66.6174 126.784 66.6174C132.943 65.1553 135.242 59.1626 135.242 59.0472C135.242 58.1598 134.407 57.638 133.361 58.6817C131.012 60.5622 130.177 60.5622 130.177 60.5622C134.773 55.0312 137.8 48.0815 137.8 46.9825C137.8 45.9412 137.435 44.5296 135.66 44.5296C132.892 44.5296 130.439 49.0746 129.028 51.3712C127.15 54.3988 125.06 57.2196 123.547 57.2196C122.292 57.2196 122.083 57.2196 122.083 55.3943C122.083 52.8357 127.566 48.7596 129.653 47.7159C131.901 46.6194 131.901 46.2538 131.901 45.5228C131.901 44.0078 131.221 43.6976 129.653 43.6976C128.297 43.6976 125.685 44.8446 125.685 44.8446C118.115 48.4999 112.632 45.1043 112.632 45.1043C110.708 45.5228 109.342 47.3528 109.342 47.3528C109.186 53.5643 104.331 57.8977 103.232 57.7414C102.344 57.638 101.719 58.1598 101.719 55.7551C101.719 50.8493 107.565 47.7159 108.036 47.3528C108.715 46.9825 109.186 47.7159 109.342 45.9412C109.342 43.8515 106.784 44.0174 106.784 44.0174L106.803 44.0222ZM118.237 69.2963C118.237 69.2963 117.516 72.1147 113.801 74.2549C112.076 75.1447 111.24 73.9423 112.545 72.7928C113.382 71.8021 116.153 69.2963 118.237 69.2963ZM149.36 65.3789C151.135 64.898 158.979 59.0616 158.979 59.0616C158.876 61.2548 158.498 66.3192 164.671 66.3192C174.747 66.3192 176.993 54.2569 176.214 51.0201C175.901 48.3051 176.998 46.9969 178.725 46.9969C180.603 46.9969 180.915 45.9556 180.915 44.2338C180.915 42.31 178.304 40.9417 175.589 42.1946C169.531 44.7003 153.448 57.9121 153.448 57.9121C157.777 51.7511 158.258 50.6016 158.258 49.6109C158.258 48.5143 157.943 47.3119 156.334 47.3119C153.357 47.3119 152.469 48.774 151.007 51.1788C149.283 54.2569 147.143 56.5029 145.943 56.5029C144.481 56.5029 144.375 56.5029 144.375 54.6753C144.635 51.0201 149.961 48.5143 153.2 47.3119C155.605 46.4246 155.341 45.9556 155.341 45.0154C155.341 43.712 154.619 43.4475 153.042 43.6038C148.449 43.712 136.336 50.1327 135.968 58.1743C135.968 60.9397 137.954 62.7698 140.513 62.7698C143.278 62.7698 145.943 60.7329 145.943 60.7329C145.731 61.9858 144.375 63.6547 144.375 63.6547C130.329 66.8939 128.97 74.0481 128.97 76.2942C129.076 78.9563 129.963 79.9999 132.522 79.9999C141.554 79.9999 149.283 65.4823 149.283 65.4823L149.389 65.3789H149.36ZM141.532 68.8274C141.532 68.8274 139.289 72.4345 136.47 74.2549C134.799 75.301 133.753 74.0481 135.268 72.7928C136.052 71.8021 139.289 68.8274 141.532 68.8274ZM163.204 56.0821L170.82 49.9163C170.82 49.9163 170.976 55.8681 168.314 58.167C167.165 59.2636 166.018 59.7855 165.963 58.8452C165.758 57.9049 165.758 56.0797 163.197 56.0797L163.204 56.0821ZM165.765 33.6264C162.786 33.6264 161.377 36.1346 161.48 37.3874C161.74 38.7461 161.74 39.4243 162.577 39.9437C163.517 40.4247 163.517 42.1898 162.786 42.4519C162.577 42.6106 162.305 43.4427 162.42 43.7072C162.42 44.5392 162.577 44.6955 163.882 44.5392C165.97 44.5392 169.731 40.1024 169.731 37.2816C169.731 33.6264 165.765 33.6264 165.765 33.6264Z"
    fill="white" />
</svg>