<svg width="9" height="9" viewBox="0 0 9 9" fill="none" xmlns="http://www.w3.org/2000/svg">
  <path
    d="M2.54358 2.698H0.854202C0.779224 2.698 0.718472 2.75878 0.718472 2.83373V8.26098C0.718472 8.33596 0.779224 8.39671 0.854202 8.39671H2.54358C2.61856 8.39671 2.67931 8.33596 2.67931 8.26098V2.83373C2.67931 2.75878 2.61856 2.698 2.54358 2.698Z"
    fill="#036196" />
  <path d="M1.6995 0C1.08481 0 0.584724 0.499542 0.584724 1.11356C0.584724 1.72785 1.08481 2.22758 1.6995 2.22758C2.31371 2.22758 2.81339 1.72782 2.81339 1.11356C2.81341 0.499542 2.31371 0 1.6995 0Z"
    fill="#036196" />
  <path
    d="M6.84064 2.56311C6.16212 2.56311 5.66055 2.85479 5.35632 3.18622V2.83373C5.35632 2.75878 5.29557 2.698 5.22059 2.698H3.60271C3.52774 2.698 3.46698 2.75878 3.46698 2.83373V8.26098C3.46698 8.33596 3.52774 8.39671 3.60271 8.39671H5.2884C5.36338 8.39671 5.42413 8.33596 5.42413 8.26098V5.57575C5.42413 4.67089 5.66991 4.31837 6.30068 4.31837C6.98764 4.31837 7.04223 4.8835 7.04223 5.62231V8.26101C7.04223 8.33599 7.10298 8.39674 7.17796 8.39674H8.86427C8.93925 8.39674 9 8.33599 9 8.26101V5.28407C9 3.93857 8.74344 2.56311 6.84064 2.56311Z"
    fill="#036196" />
</svg>