<svg width="169" height="111" viewBox="0 0 169 111" fill="none" xmlns="http://www.w3.org/2000/svg">
<g opacity="0.3">
<path opacity="0.3" d="M81.2295 1.5V33.5" stroke="#24272C" stroke-width="2" stroke-linecap="round" stroke-linejoin="round" stroke-dasharray="6 6"/>
<path opacity="0.3" d="M109.697 70.5L167.5 109.5" stroke="#24272C" stroke-width="2" stroke-linecap="round" stroke-linejoin="round" stroke-dasharray="6 6"/>
<path opacity="0.3" d="M60.5002 71.5L1.69678 109.5" stroke="#24272C" stroke-width="2" stroke-linecap="round" stroke-linejoin="round" stroke-dasharray="6 6"/>
<path opacity="0.3" d="M90.5 74.5L111.5 109.5" stroke="#24272C" stroke-width="2" stroke-linecap="round" stroke-linejoin="round" stroke-dasharray="6 6"/>
<path opacity="0.3" d="M78.5 74.5L57.5 109.5" stroke="#24272C" stroke-width="2" stroke-linecap="round" stroke-linejoin="round" stroke-dasharray="6 6"/>
<g opacity="0.5">
<g opacity="0.5">
<path opacity="0.5" d="M93.0481 42.9523C90.4443 40.3492 86.2232 40.3492 83.6202 42.9523L79.9002 46.6708C80.1947 46.6387 80.4923 46.625 80.7914 46.625C81.7328 46.625 82.6482 46.7745 83.5148 47.0629L85.6228 44.9557C86.3467 44.2309 87.3095 43.8327 88.3334 43.8327C89.3573 43.8327 90.3201 44.2309 91.044 44.9557C91.7681 45.6789 92.1662 46.6402 92.1662 47.6655C92.1662 48.6894 91.7681 49.6522 91.044 50.3754L86.9198 54.4997C86.1959 55.2245 85.233 55.6227 84.2092 55.6227C83.1838 55.6227 82.2226 55.2245 81.4979 54.4997C81.1454 54.1487 80.8708 53.7398 80.6815 53.2943C80.2116 53.3202 79.7722 53.5155 79.4365 53.8511L78.3379 54.9512C78.6385 55.5081 79.0245 56.033 79.4945 56.5046C82.0975 59.1077 86.3194 59.1077 88.9231 56.5046L93.0481 52.3787C95.6504 49.7758 95.6504 45.5554 93.0481 42.9523Z" fill="#24272C"/>
<path opacity="0.5" d="M84.2533 60.3729C83.3103 60.3729 82.3857 60.2203 81.4993 59.9197L79.3769 62.0422C78.6536 62.7671 77.6909 63.1652 76.6671 63.1652C75.6432 63.1652 74.682 62.7671 73.9572 62.0422C73.2325 61.319 72.8342 60.3563 72.8342 59.3324C72.8342 58.3085 73.2325 57.3457 73.9572 56.621L78.0815 52.4967C78.8062 51.7735 79.7675 51.3753 80.7913 51.3753C81.8167 51.3753 82.778 51.7735 83.5019 52.4967C83.8544 52.8492 84.1297 53.2581 84.3198 53.7036C84.7912 53.6792 85.2314 53.4824 85.5671 53.1467L86.6642 52.0482C86.3636 51.4897 85.9768 50.9648 85.5061 50.4933C82.9031 47.8902 78.6812 47.8902 76.0782 50.4933L71.9539 54.6192C69.3494 57.2223 69.3494 61.4426 71.9539 64.0472C74.5569 66.6504 78.7773 66.6504 81.3803 64.0472L85.0941 60.3334C84.8172 60.3592 84.5372 60.3731 84.2549 60.3731L84.2533 60.3729Z" fill="#24272C"/>
</g>
</g>
</g>
</svg>
