<svg width="10" height="10" viewBox="0 0 10 10" fill="none" xmlns="http://www.w3.org/2000/svg">
  <path
    d="M7.31203 6.95326V8.4766C7.31203 8.5574 7.27993 8.63489 7.22279 8.69203C7.16565 8.74916 7.08816 8.78126 7.00736 8.78126H1.52334C1.44254 8.78126 1.36504 8.74916 1.30791 8.69203C1.25077 8.63489 1.21867 8.5574 1.21867 8.4766V2.99258C1.21867 2.91177 1.25077 2.83428 1.30791 2.77714C1.36504 2.72001 1.44254 2.68791 1.52334 2.68791H3.04668C3.20828 2.68791 3.36327 2.62371 3.47754 2.50944C3.59181 2.39517 3.65601 2.24018 3.65601 2.07857C3.65601 1.91697 3.59181 1.76198 3.47754 1.64771C3.36327 1.53344 3.20828 1.46924 3.04668 1.46924H0.914003C0.671594 1.46924 0.439114 1.56553 0.267705 1.73694C0.0962965 1.90835 0 2.14083 0 2.38324L0 9.08593C0 9.32834 0.0962965 9.56082 0.267705 9.73223C0.439114 9.90364 0.671594 9.99993 0.914003 9.99993H7.61669C7.8591 9.99993 8.09158 9.90364 8.26299 9.73223C8.4344 9.56082 8.5307 9.32834 8.5307 9.08593V6.95326C8.5307 6.79165 8.4665 6.63666 8.35223 6.52239C8.23795 6.40812 8.08297 6.34392 7.92136 6.34392C7.75975 6.34392 7.60477 6.40812 7.4905 6.52239C7.37622 6.63666 7.31203 6.79165 7.31203 6.95326Z"
    fill="#12B0EE" />
  <path
    d="M9.14017 0.250732H5.48415C5.14763 0.250732 4.87482 0.523541 4.87482 0.860068C4.87482 1.19659 5.14763 1.4694 5.48415 1.4694H9.14017C9.47669 1.4694 9.7495 1.19659 9.7495 0.860068C9.7495 0.523541 9.47669 0.250732 9.14017 0.250732Z"
    fill="#12B0EE" />
  <path
    d="M9.74921 4.51608V0.860068C9.74921 0.523541 9.4764 0.250732 9.13987 0.250732C8.80334 0.250732 8.53054 0.523541 8.53054 0.860068V4.51608C8.53054 4.85261 8.80334 5.12542 9.13987 5.12542C9.4764 5.12542 9.74921 4.85261 9.74921 4.51608Z"
    fill="#12B0EE" />
  <path
    d="M8.71677 0.427758L2.61486 6.52967C2.37857 6.76596 2.37852 7.14903 2.61475 7.38526C2.85099 7.6215 3.23405 7.62145 3.47034 7.38515L9.57226 1.28324C9.80855 1.04695 9.8086 0.663884 9.57236 0.427649C9.33613 0.191414 8.95307 0.191463 8.71677 0.427758Z"
    fill="#12B0EE" />
</svg>