<svg width="60" height="61" viewBox="0 0 60 61" fill="none" xmlns="http://www.w3.org/2000/svg">
  <path
    d="M47.4625 49.1267C46.4696 49.1267 45.5174 48.7323 44.8153 48.0302C44.1132 47.3281 43.7187 46.3758 43.7188 45.3829V5.25997C43.7187 4.26706 44.1132 3.31481 44.8153 2.61271C45.5174 1.91062 46.4696 1.51618 47.4625 1.51618C47.9549 1.51507 48.4426 1.61108 48.8978 1.79873C49.353 1.98637 49.7667 2.26196 50.1153 2.60972C50.4638 2.95747 50.7403 3.37056 50.929 3.82533C51.1177 4.2801 51.2148 4.76762 51.2148 5.25997V45.349C51.2193 45.8442 51.1255 46.3354 50.9388 46.7941C50.7521 47.2528 50.4763 47.6699 50.1273 48.0212C49.7784 48.3726 49.3631 48.6512 48.9057 48.841C48.4483 49.0307 47.9578 49.1278 47.4625 49.1267Z"
    fill="#7ED2FF" />
  <path
    d="M47.4624 1.51618C46.751 1.51452 46.0542 1.71739 45.455 2.10062C45.9796 2.44294 46.4097 2.91171 46.7057 3.4638C47.0018 4.01588 47.1542 4.63355 47.149 5.25997V45.349C47.1542 45.9754 47.0018 46.5931 46.7057 47.1452C46.4097 47.6973 45.9796 48.1661 45.455 48.5084C46.0217 48.8672 46.6742 49.0676 47.3446 49.0887C48.015 49.1097 48.6789 48.9507 49.267 48.6281C49.8551 48.3055 50.3459 47.8312 50.6885 47.2545C51.031 46.6778 51.2127 46.0198 51.2146 45.349V5.25997C51.2146 4.76762 51.1175 4.2801 50.9288 3.82533C50.7402 3.37056 50.4636 2.95747 50.1151 2.60972C49.7666 2.26196 49.3529 1.98637 48.8977 1.79873C48.4425 1.61108 47.9547 1.51507 47.4624 1.51618Z"
    fill="#3CB1FE" />
  <path
    d="M14.4291 11.9259C11.0092 11.9349 7.73239 13.2997 5.31732 15.7211C2.90225 18.1426 1.54601 21.4229 1.54602 24.8428C1.54377 28.2634 2.89929 31.5451 5.31484 33.967C7.73039 36.3889 11.0085 37.753 14.4291 37.7598H19.1215V11.9259H14.4291Z"
    fill="#7ED2FF" />
  <path
    d="M14.4288 11.9259C11.0088 11.9349 7.73207 13.2997 5.317 15.7211C2.90193 18.1426 1.5457 21.4229 1.54571 24.8428C1.54168 25.9343 1.67833 27.0218 1.95228 28.0784C2.66648 25.3103 4.27878 22.8574 6.53656 21.1039C8.79434 19.3504 11.57 18.3954 14.4288 18.3886H19.1212V11.9259H14.4288Z"
    fill="#3CB1FE" />
  <path
    d="M47.4625 50.6089C46.0682 50.6067 44.7316 50.0518 43.7456 49.0658C42.7597 48.0799 42.2048 46.7433 42.2026 45.349V5.25994C42.2026 3.86492 42.7567 2.52703 43.7432 1.5406C44.7296 0.554171 46.0675 0 47.4625 0C48.8575 0 50.1954 0.554171 51.1819 1.5406C52.1683 2.52703 52.7225 3.86492 52.7225 5.25994V45.349C52.7202 46.7433 52.1653 48.0799 51.1794 49.0658C50.1934 50.0518 48.8569 50.6067 47.4625 50.6089ZM47.4625 3.02383C46.8701 3.02606 46.3027 3.26237 45.8838 3.68124C45.4649 4.10011 45.2286 4.66757 45.2264 5.25994V45.349C45.2264 45.942 45.462 46.5108 45.8813 46.9302C46.3007 47.3495 46.8695 47.5851 47.4625 47.5851C48.0556 47.5851 48.6243 47.3495 49.0437 46.9302C49.463 46.5108 49.6986 45.942 49.6986 45.349V5.25994C49.6986 4.66689 49.463 4.09812 49.0437 3.67877C48.6243 3.25942 48.0556 3.02383 47.4625 3.02383Z"
    fill="#0757A0" />
  <path
    d="M19.1552 39.2759H14.4289C10.6021 39.2759 6.9321 37.7558 4.22617 35.0498C1.52024 32.3439 6.10352e-05 28.6739 6.10352e-05 24.8471C6.10352e-05 21.0203 1.52024 17.3503 4.22617 14.6444C6.9321 11.9385 10.6021 10.4183 14.4289 10.4183H19.1213C19.3193 10.4183 19.5154 10.4573 19.6983 10.533C19.8812 10.6088 20.0474 10.7199 20.1874 10.8599C20.3274 10.9999 20.4385 11.1661 20.5143 11.349C20.59 11.5319 20.629 11.728 20.629 11.926V37.7598C20.6292 38.1547 20.4753 38.534 20.2 38.8172C19.9248 39.1003 19.5499 39.2649 19.1552 39.2759ZM14.4289 13.4421C12.905 13.4006 11.3883 13.6648 9.96824 14.2193C8.54821 14.7738 7.2537 15.6072 6.16117 16.6704C5.06863 17.7336 4.20024 19.0049 3.60728 20.4093C3.01432 21.8137 2.70882 23.3227 2.70882 24.8471C2.70882 26.3716 3.01432 27.8805 3.60728 29.2849C4.20024 30.6893 5.06863 31.9607 6.16117 33.0238C7.2537 34.087 8.54821 34.9204 9.96824 35.4749C11.3883 36.0294 12.905 36.2937 14.4289 36.2521H17.6052V13.4421H14.4289Z"
    fill="#0757A0" />
  <path
    d="M43.7272 45.8741C43.443 45.8767 43.1639 45.7985 42.9224 45.6485C42.681 45.4985 42.4871 45.283 42.3635 45.0271C41.0591 42.3167 38.2301 39.098 32.1147 39.2844H19.1554C18.7533 39.2844 18.3677 39.1246 18.0833 38.8403C17.799 38.5559 17.6393 38.1703 17.6393 37.7682V11.9259C17.6415 11.5252 17.8022 11.1418 18.0863 10.8593C18.3704 10.5768 18.7548 10.4182 19.1554 10.4182H32.1147C38.2386 10.5707 41.0591 7.37743 42.3635 4.67547C42.51 4.36485 42.7581 4.11353 43.0668 3.96309C43.3755 3.81266 43.7263 3.77212 44.0612 3.84818C44.3961 3.92425 44.6949 4.11236 44.9084 4.38139C45.1218 4.65042 45.237 4.98426 45.2349 5.32767V44.3579C45.2379 44.699 45.1246 45.0308 44.9136 45.2987C44.7027 45.5667 44.4067 45.7547 44.0745 45.8317C43.9606 45.8584 43.8442 45.8726 43.7272 45.8741ZM32.589 36.2436C36.1325 36.1026 39.5892 37.3623 42.211 39.7502V9.93541C40.1189 11.9089 36.9003 13.5606 32.0469 13.442H20.6631V36.252H32.589V36.2436Z"
    fill="#0757A0" />
  <path d="M32.5889 36.2436C36.1324 36.1026 39.589 37.3623 42.2109 39.7502V9.93542C40.1188 11.909 36.9001 13.5606 32.0468 13.4421H20.6629V36.2521H32.5889V36.2436Z" fill="white" />
  <path
    d="M24.4574 60.9001H12.4891C12.0885 60.8979 11.705 60.7372 11.4225 60.4531C11.14 60.169 10.9814 59.7846 10.9814 59.384V37.6158C10.981 37.3968 11.0283 37.1802 11.12 36.9813C11.2117 36.7824 11.3456 36.6059 11.5125 36.464C11.6794 36.3221 11.8752 36.2183 12.0863 36.1597C12.2973 36.1012 12.5186 36.0894 12.7348 36.1251C13.2955 36.2091 13.8618 36.2515 14.4288 36.2521H27.0323C27.2466 36.2523 27.4584 36.2977 27.654 36.3852C27.8495 36.4728 28.0245 36.6006 28.1673 36.7603C28.3097 36.9204 28.4165 37.1089 28.4808 37.3133C28.545 37.5177 28.5652 37.7334 28.54 37.9461L25.999 59.5619C25.9566 59.9376 25.7747 60.2837 25.4891 60.5316C25.2036 60.7795 24.8354 60.911 24.4574 60.9001ZM14.0053 57.8678H23.1107L25.3298 39.2759H14.0053V57.8678Z"
    fill="#0757A0" />
  <path
    d="M24.4574 60.9001H12.4891C12.0885 60.8979 11.705 60.7372 11.4225 60.4531C11.14 60.169 10.9814 59.7846 10.9814 59.384V37.6158C10.981 37.3968 11.0283 37.1802 11.12 36.9813C11.2117 36.7824 11.3456 36.6059 11.5125 36.464C11.6794 36.3221 11.8752 36.2183 12.0863 36.1597C12.2973 36.1012 12.5186 36.0894 12.7348 36.1251C13.2955 36.2091 13.8618 36.2515 14.4288 36.2521H27.0323C27.2466 36.2523 27.4584 36.2977 27.654 36.3852C27.8495 36.4728 28.0245 36.6006 28.1673 36.7603C28.3097 36.9204 28.4165 37.1089 28.4808 37.3133C28.545 37.5177 28.5652 37.7334 28.54 37.9461L25.999 59.5619C25.9566 59.9376 25.7747 60.2837 25.4891 60.5316C25.2036 60.7795 24.8354 60.911 24.4574 60.9001Z"
    fill="#0757A0" />
  <path d="M14.0055 57.8678H23.1109L25.3301 39.2759H14.0055V57.8678Z" fill="white" />
  <path
    d="M49.8679 35.1171V16.4151L51.5619 16.6692C53.7568 16.9768 55.7667 18.0673 57.2211 19.7397C58.6755 21.4122 59.4765 23.5539 59.4765 25.7703C59.4765 27.9867 58.6755 30.1285 57.2211 31.8009C55.7667 33.4734 53.7568 34.5639 51.5619 34.8715L49.8679 35.1171ZM52.8917 20.1758V31.3394C53.9593 30.8463 54.8634 30.0578 55.497 29.0672C56.1307 28.0765 56.4674 26.9251 56.4674 25.7492C56.4674 24.5732 56.1307 23.4218 55.497 22.4311C54.8634 21.4405 53.9593 20.652 52.8917 20.1589V20.1758Z"
    fill="#0757A0" />
  <path
    d="M52.8915 20.1759V31.3395C53.9591 30.8464 54.8632 30.0579 55.4969 29.0672C56.1305 28.0766 56.4673 26.9252 56.4673 25.7492C56.4673 24.5732 56.1305 23.4219 55.4969 22.4312C54.8632 21.4405 53.9591 20.652 52.8915 20.1589V20.1759Z"
    fill="white" />
  <path d="M31.4791 16.1102H23.4918V19.134H31.4791V16.1102Z" fill="#0757A0" />
  <path d="M35.2652 16.1102H33.1476V19.134H35.2652V16.1102Z" fill="#0757A0" />
</svg>