<svg width="80" height="75" viewBox="0 0 80 75" fill="none" xmlns="http://www.w3.org/2000/svg">
  <path d="M58 2H76V44H58V2Z" fill="#7ED2FF" />
  <path d="M20.5 46L1.5 64V72.5H54V64L43.5 52.5L36.5 58.5H33L20.5 46Z" fill="#7ED2FF" />
  <path
    d="M22.069 0V19.3103H27.5862V5.51724H33.1034V8.27586H38.6207V5.51724H63.4483V8.27586H68.9655V5.51724H74.4828V38.6207H68.9655V35.8621H63.4483V44.1379H80V0H22.069ZM33.1034 13.7931V19.3103H38.6207V13.7931H33.1034ZM63.4483 13.7931V19.3103H68.9655V13.7931H63.4483ZM0 24.8276V74.4828H57.931V24.8276H0ZM63.4483 24.8276V30.3448H68.9655V24.8276H63.4483ZM5.51724 30.3448H52.4138V57.3276L45.2586 50.1724L43.2759 48.2759L35.5172 56.0345L23.7069 44.1379L21.8103 42.1552L5.51724 58.4483V30.3448ZM37.2414 35.8621C34.9545 35.8621 33.1034 37.7131 33.1034 40C33.1034 42.2869 34.9545 44.1379 37.2414 44.1379C39.5283 44.1379 41.3793 42.2869 41.3793 40C41.3793 37.7131 39.5283 35.8621 37.2414 35.8621ZM21.805 50L35.5981 63.7931L37.5 61.8103L43.2759 56.0345L52.4138 65.1724V68.9655H5.51724V66.2931L21.805 50Z"
    fill="#125EA4" />
</svg>