<svg width="87" height="74" viewBox="0 0 87 74" fill="none" xmlns="http://www.w3.org/2000/svg">
  <g opacity="0.1">
    <path
      d="M60.3706 46.412C65.4614 46.412 69.6023 42.2705 69.6023 37.1803V9.23254C69.6023 4.14202 65.4614 0 60.3706 0H9.23019C4.14055 0 0 4.14202 0 9.23254V37.1803C0 42.2705 4.14055 46.412 9.23019 46.412H15.9479V56.0751C15.9479 57.2503 16.6557 58.3093 17.741 58.7589C18.1007 58.9074 18.478 58.9795 18.8517 58.9795C19.6075 58.9795 20.3507 58.6845 20.9063 58.1288L32.6209 46.412H60.3706V46.412Z"
      fill="white" />
    <path
      d="M78.919 24.1685H74.2486V37.1798C74.2486 44.8325 68.0229 51.0582 60.3702 51.0582H34.5453L29.1152 56.4897C29.7696 60.2939 33.0894 63.1983 37.0773 63.1983H59.5632L68.9928 72.6295C69.5482 73.1851 70.2917 73.4804 71.0474 73.4804C71.4212 73.4804 71.7985 73.4075 72.1582 73.259C73.2435 72.8093 73.9509 71.7507 73.9509 70.5757V63.198H78.9193C83.3751 63.198 86.9998 59.5721 86.9998 55.1158V32.2495C86.9995 27.7937 83.3748 24.1685 78.919 24.1685Z"
      fill="white" />
  </g>
</svg>