<svg width="82" height="81" viewBox="0 0 82 81" fill="none" xmlns="http://www.w3.org/2000/svg">
  <path d="M52 20C53.2 14.4 51.5 8.33333 50.5 6L52 4.5L63 15L67.5 17L76.5 22L78 30.5L76.5 40.5L78 45.5L76.5 51L67.5 49.5H54.5L44 40.5L41.5 37C44.5 33.6667 50.8 25.6 52 20Z" fill="#7ED2FF"
    stroke="black" stroke-opacity="0.05" stroke-linejoin="round" />
  <g opacity="0.2">
    <path opacity="0.2"
      d="M44.0175 38.9234L43.7651 38.9665V38.9669V39.2037L43.8358 39.2075C44.7368 41.6922 46.1667 43.9524 48.0273 45.8314C49.9273 47.7501 52.2292 49.2236 54.7671 50.1457C57.3051 51.0678 60.0159 51.4156 62.7045 51.164C65.3572 50.9157 67.9231 50.09 70.2222 48.7453L76.3357 50.4921C76.6358 50.5778 76.9534 50.5817 77.2555 50.5035C77.5576 50.4252 77.8333 50.2675 78.0539 50.0468C78.2746 49.8262 78.4323 49.5505 78.5106 49.2484C78.5888 48.9463 78.5849 48.6287 78.4992 48.3286L76.7525 42.2151C78.3179 39.5392 79.1763 36.508 79.2459 33.4074C79.3164 30.2709 78.5773 27.1691 77.1 24.4014C75.6226 21.6336 73.4569 19.2934 70.8117 17.6063C68.2138 15.9495 65.2396 14.9776 62.1665 14.7801L62.1403 14.7054L61.9074 14.782L61.9068 14.7822L61.9403 15.0354L61.7496 15.1023C62.6884 17.7792 62.9724 20.6421 62.5778 23.4514C62.1832 26.2606 61.1215 28.9345 59.4815 31.2493C57.8416 33.564 55.671 35.4523 53.1516 36.7562C50.6321 38.06 47.837 38.7414 45.0002 38.7434C44.6742 38.7434 44.3503 38.7347 44.0287 38.7172L44.0175 38.9234Z"
      fill="#0857A0" stroke="black" stroke-width="0.5" />
  </g>
  <path
    d="M78.635 42.435C80.1694 39.5664 80.9811 36.3669 80.9997 33.1138C81.0182 29.8606 80.2431 26.6521 78.7415 23.7662C77.2398 20.8803 75.057 18.4042 72.3822 16.5525C69.7074 14.7008 66.6214 13.5295 63.3916 13.1399C62.3305 10.6572 60.7776 8.41501 58.8267 6.54854C56.8757 4.68207 54.567 3.22994 52.0398 2.27968C49.5125 1.32941 46.8191 0.900675 44.1217 1.01932C41.4243 1.13797 38.7788 1.80153 36.3448 2.97002C33.9107 4.13852 31.7385 5.78774 29.9589 7.8183C28.1794 9.84886 26.8294 12.2187 25.9903 14.785C25.1512 17.3513 24.8405 20.0609 25.0767 22.7506C25.313 25.4402 26.0913 28.0542 27.3649 30.4349L25.8188 35.8474C25.6472 36.4476 25.6393 37.0827 25.7958 37.6869C25.9523 38.2912 26.2675 38.8426 26.7088 39.284C27.1502 39.7254 27.7015 40.0408 28.3057 40.1974C28.9099 40.354 29.5451 40.3462 30.1452 40.1747L35.5583 38.6282C37.7488 39.8007 40.1389 40.5539 42.6059 40.8491C43.6965 43.4003 45.3057 45.6968 47.3314 47.5928C49.357 49.4887 51.7548 50.9427 54.3725 51.8623C56.9902 52.7819 59.7706 53.1471 62.5369 52.9346C65.3033 52.7222 67.9953 51.9367 70.4418 50.6282L75.8547 52.1748C76.4549 52.3462 77.0899 52.354 77.6941 52.1975C78.2983 52.0409 78.8497 51.7256 79.291 51.2842C79.7323 50.8428 80.0476 50.2915 80.2042 49.6873C80.3607 49.0831 80.3529 48.448 80.1814 47.8479L78.635 42.435ZM35.8128 34.4753C35.6269 34.4753 35.4419 34.5012 35.2632 34.5522L29.9121 36.0813L31.4409 30.7298C31.5158 30.4678 31.5363 30.1932 31.5012 29.9229C31.4661 29.6527 31.3761 29.3924 31.2368 29.1582C29.2495 25.8071 28.5538 21.8458 29.2804 18.0181C30.007 14.1904 32.1058 10.7596 35.1829 8.36984C38.2599 5.98007 42.1035 4.79573 45.9919 5.03919C49.8803 5.28265 53.5461 6.93717 56.3011 9.69208C59.056 12.447 60.7105 16.1128 60.954 20.0012C61.1974 23.8897 60.0131 27.7332 57.6233 30.8103C55.2335 33.8873 51.8027 35.9862 47.975 36.7127C44.1473 37.4393 40.1861 36.7436 36.835 34.7563C36.5257 34.5724 36.1726 34.4753 35.8128 34.4753V34.4753ZM74.7631 41.158C74.6238 41.3923 74.5339 41.6525 74.4988 41.9228C74.4637 42.1931 74.4842 42.4677 74.559 42.7298L76.0881 48.0814L70.7365 46.5524C70.4745 46.4776 70.1999 46.4571 69.9297 46.4922C69.6594 46.5273 69.3992 46.6173 69.165 46.7565C67.3346 47.8413 65.3063 48.5503 63.1987 48.8421C61.0911 49.1339 58.9465 49.0026 56.8902 48.4559C54.8339 47.9093 52.9073 46.9582 51.2228 45.6582C49.5384 44.3583 48.13 42.7356 47.08 40.885C49.8196 40.6015 52.4709 39.7546 54.8675 38.3974C57.2641 37.0403 59.3541 35.2022 61.0064 32.9986C62.6586 30.7951 63.8373 28.2736 64.4685 25.5928C65.0997 22.9119 65.1697 20.1294 64.6741 17.4202C67.1177 17.9975 69.3912 19.1415 71.3109 20.7599C73.2306 22.3783 74.7426 24.4256 75.7247 26.7364C76.7069 29.0472 77.1316 31.5566 76.9645 34.0619C76.7975 36.5672 76.0434 38.998 74.7632 41.158H74.7631Z"
    fill="#0857A0" />
  <path fill-rule="evenodd" clip-rule="evenodd"
    d="M75.8547 52.1748L70.4418 50.6282C67.9953 51.9367 65.3033 52.7222 62.5369 52.9346C59.7706 53.1471 56.9902 52.7819 54.3725 51.8623C51.7548 50.9427 49.357 49.4887 47.3314 47.5928C45.3057 45.6968 43.6965 43.4003 42.6059 40.8491C40.1389 40.5539 37.7488 39.8007 35.5583 38.6282L30.1452 40.1747C29.5451 40.3462 28.9099 40.354 28.3057 40.1974C27.7015 40.0408 27.1502 39.7254 26.7088 39.284C26.2675 38.8426 25.9523 38.2912 25.7958 37.6869C25.6393 37.0827 25.6472 36.4476 25.8188 35.8474L27.3649 30.4349C26.0913 28.0542 25.313 25.4402 25.0767 22.7506C24.8405 20.0609 25.1512 17.3513 25.9903 14.785C26.8294 12.2187 28.1794 9.84886 29.9589 7.8183C31.7385 5.78774 33.9107 4.13852 36.3448 2.97002C38.7788 1.80153 41.4243 1.13797 44.1217 1.01932C46.8191 0.900675 49.5125 1.32941 52.0398 2.27968C54.567 3.22994 56.8757 4.68207 58.8267 6.54854C60.7776 8.41501 62.3305 10.6572 63.3916 13.1399C66.6214 13.5295 69.7074 14.7008 72.3822 16.5525C75.057 18.4042 77.2398 20.8803 78.7415 23.7662C80.2431 26.6521 81.0182 29.8606 80.9997 33.1138C80.9811 36.3669 80.1694 39.5664 78.635 42.435L80.1814 47.8479C80.3529 48.448 80.3607 49.0831 80.2042 49.6873C80.0476 50.2915 79.7323 50.8428 79.291 51.2842C78.8497 51.7256 78.2983 52.0409 77.6941 52.1975C77.0899 52.354 76.4549 52.3462 75.8547 52.1748ZM79.171 42.4909L80.6622 47.7105C80.8581 48.3964 80.8671 49.1222 80.6882 49.8127C80.5093 50.5032 80.1489 51.1333 79.6446 51.6377C79.1402 52.1421 78.5101 52.5025 77.8196 52.6815C77.1291 52.8604 76.4033 52.8515 75.7174 52.6556L70.4977 51.1641C68.0382 52.4484 65.3431 53.2206 62.5752 53.4332C59.7397 53.651 56.8899 53.2767 54.2068 52.3341C51.5237 51.3915 49.066 49.9012 46.9897 47.9578C44.9834 46.08 43.3757 43.8189 42.261 41.3094C39.9007 40.9932 37.6134 40.2673 35.5024 39.1642L30.2826 40.6555C29.5966 40.8514 28.8708 40.8604 28.1803 40.6814C27.4897 40.5024 26.8596 40.142 26.3553 39.6375C25.8509 39.133 25.4906 38.5029 25.3117 37.8123C25.1329 37.1217 25.142 36.3959 25.338 35.7101C25.338 35.7101 25.338 35.7101 25.338 35.7101L26.829 30.4909C25.5798 28.0991 24.8148 25.4836 24.5786 22.7943C24.3365 20.0375 24.655 17.2601 25.5151 14.6296C26.3751 11.9992 27.7589 9.57007 29.5829 7.48875C31.4069 5.40743 33.6335 3.71698 36.1284 2.51927C38.6233 1.32157 41.3349 0.641415 44.0997 0.519804C46.8645 0.398192 49.6253 0.837642 52.2158 1.81167C54.8062 2.78569 57.1726 4.27412 59.1723 6.18725C61.1028 8.03413 62.653 10.2399 63.7366 12.6799C66.9435 13.1124 70.004 14.298 72.6668 16.1414C75.4085 18.0394 77.6458 20.5774 79.185 23.5354C80.7242 26.4934 81.5187 29.7822 81.4997 33.1166C81.481 36.3832 80.6822 39.5971 79.171 42.4909ZM35.1259 34.0715C35.3493 34.0077 35.5805 33.9753 35.8128 33.9753C36.2625 33.9753 36.704 34.0967 37.0906 34.3266C40.3368 36.2515 44.174 36.9253 47.8818 36.2215C51.5898 35.5176 54.9134 33.4844 57.2284 30.5036C59.5435 27.5228 60.6908 23.7993 60.4549 20.0325C60.2191 16.2656 58.6163 12.7144 55.9475 10.0456C53.2787 7.37685 49.7275 5.77406 45.9607 5.53821C42.1938 5.30237 38.4704 6.44968 35.4896 8.76473C32.5087 11.0798 30.4755 14.4033 29.7716 18.1114C29.0678 21.8194 29.7417 25.6568 31.6669 28.9031C31.8408 29.1958 31.9532 29.5209 31.997 29.8585C32.0409 30.1964 32.0152 30.5396 31.9217 30.8672L31.4409 30.7298C31.5158 30.4678 31.5363 30.1932 31.5012 29.9229C31.4661 29.6527 31.3761 29.3924 31.2368 29.1582C29.2495 25.8071 28.5538 21.8458 29.2804 18.0181C30.007 14.1904 32.1058 10.7596 35.1829 8.36984C38.2599 5.98007 42.1035 4.79573 45.9919 5.03919C49.8803 5.28265 53.5462 6.93717 56.3011 9.69208C59.056 12.447 60.7105 16.1128 60.954 20.0012C61.1974 23.8897 60.0131 27.7332 57.6233 30.8103C55.2335 33.8873 51.8027 35.9862 47.975 36.7127C44.1473 37.4393 40.1861 36.7436 36.835 34.7563C36.5257 34.5724 36.1726 34.4753 35.8128 34.4753C35.6269 34.4753 35.4419 34.5012 35.2632 34.5522L29.9121 36.0813L31.4409 30.7298L31.9217 30.8672L30.6401 35.3533L35.1259 34.0715ZM74.0783 42.8671C73.9847 42.5395 73.9591 42.1963 74.0029 41.8584C74.0468 41.5206 74.1593 41.1953 74.3334 40.9024M74.559 42.7298C74.4842 42.4677 74.4637 42.1931 74.4988 41.9228C74.5339 41.6525 74.6238 41.3923 74.7631 41.158C76.0434 38.998 76.7975 36.5672 76.9645 34.0619C77.1316 31.5566 76.7069 29.0472 75.7247 26.7364C74.7426 24.4256 73.2306 22.3783 71.3109 20.7599C69.5312 19.2595 67.4474 18.1668 65.2059 17.5555C65.0296 17.5074 64.8523 17.4623 64.6741 17.4202C64.7068 17.5988 64.737 17.7777 64.7647 17.9569C65.158 20.4958 65.0581 23.0886 64.4685 25.5928C63.8373 28.2736 62.6586 30.7951 61.0064 32.9986C59.3541 35.2022 57.2641 37.0403 54.8675 38.3974C52.6289 39.6651 50.168 40.4877 47.6206 40.8216C47.4408 40.8452 47.2606 40.8664 47.08 40.885C47.1704 41.0443 47.2633 41.2018 47.3589 41.3576C48.3744 43.0124 49.6833 44.4701 51.2228 45.6582C52.9073 46.9582 54.8339 47.9093 56.8902 48.4559C58.9465 49.0026 61.0911 49.1339 63.1987 48.8421C65.3063 48.5503 67.3346 47.8413 69.165 46.7565C69.3992 46.6173 69.6594 46.5273 69.9297 46.4922C70.1999 46.4571 70.4745 46.4776 70.7365 46.5524L76.0881 48.0814L74.559 42.7298ZM74.0783 42.8671L75.3601 47.3534ZM75.3601 47.3534L70.8739 46.0717C70.5463 45.9782 70.2031 45.9525 69.8653 45.9964C69.5275 46.0403 69.2022 46.1527 68.9095 46.3268C67.1364 47.3774 65.1717 48.0642 63.1301 48.3468C61.0883 48.6295 59.0107 48.5023 57.0187 47.9727C55.0266 47.4431 53.1601 46.5217 51.5283 45.2624C50.0966 44.1574 48.8707 42.8118 47.9045 41.2875C50.4377 40.9275 52.8834 40.0956 55.1139 38.8325C57.5705 37.4414 59.7128 35.5573 61.4064 33.2986C63.1 31.0399 64.3082 28.4553 64.9552 25.7073C65.5427 23.2123 65.6559 20.6314 65.2915 18.0988C67.3804 18.7013 69.3221 19.7372 70.9886 21.1422C72.8483 22.71 74.3131 24.6934 75.2646 26.932C76.216 29.1706 76.6275 31.6016 76.4656 34.0286C76.3039 36.4537 75.5744 38.8068 74.336 40.898"
    fill="#0A59A0" />
  <path
    d="M12.9395 54.9609V77H7.83838V60.7129L2.81299 62.1812V58.3062L12.4702 54.9609H12.9395ZM33.4331 70.9302C33.4331 72.3328 33.1001 73.5085 32.4341 74.457C31.7782 75.4056 30.87 76.117 29.7095 76.5913C28.5591 77.0656 27.2472 77.3027 25.7739 77.3027C24.3107 77.3027 22.9938 77.0656 21.8232 76.5913C20.6628 76.117 19.7445 75.4056 19.0684 74.457C18.3923 73.5085 18.0542 72.3328 18.0542 70.9302C18.0542 69.9715 18.2459 69.1138 18.6294 68.3569C19.0229 67.59 19.5679 66.9391 20.2642 66.4043C20.9604 65.8695 21.7728 65.4608 22.7012 65.1782C23.6396 64.8957 24.6538 64.7544 25.7437 64.7544C27.217 64.7544 28.5339 65.0067 29.6943 65.5112C30.8548 66.0057 31.7681 66.7121 32.4341 67.6304C33.1001 68.5487 33.4331 69.6486 33.4331 70.9302ZM28.3018 70.5215C28.3018 69.916 28.1958 69.4064 27.9839 68.9927C27.772 68.5688 27.4743 68.2459 27.0908 68.0239C26.7074 67.8019 26.2583 67.6909 25.7437 67.6909C25.2391 67.6909 24.79 67.8019 24.3965 68.0239C24.013 68.2459 23.7103 68.5688 23.4883 68.9927C23.2764 69.4064 23.1704 69.916 23.1704 70.5215C23.1704 71.1068 23.2814 71.6164 23.5034 72.0503C23.7254 72.4741 24.0282 72.8021 24.4116 73.0342C24.8052 73.2562 25.2593 73.3672 25.7739 73.3672C26.2886 73.3672 26.7326 73.2562 27.106 73.0342C27.4894 72.8021 27.7821 72.4741 27.9839 72.0503C28.1958 71.6164 28.3018 71.1068 28.3018 70.5215ZM32.979 60.8491C32.979 61.9995 32.6712 63.0086 32.0557 63.8765C31.4502 64.7342 30.6025 65.4053 29.5127 65.8896C28.4329 66.3639 27.1867 66.6011 25.7739 66.6011C24.3713 66.6011 23.12 66.3639 22.02 65.8896C20.9302 65.4053 20.0724 64.7342 19.4468 63.8765C18.8312 63.0086 18.5234 61.9995 18.5234 60.8491C18.5234 59.4969 18.8312 58.3617 19.4468 57.4434C20.0724 56.5251 20.9302 55.8288 22.02 55.3545C23.1099 54.8802 24.3511 54.6431 25.7437 54.6431C27.1564 54.6431 28.4077 54.8802 29.4976 55.3545C30.5874 55.8288 31.4401 56.5251 32.0557 57.4434C32.6712 58.3617 32.979 59.4969 32.979 60.8491ZM27.8779 61.1216C27.8779 60.5968 27.7972 60.1478 27.6357 59.7744C27.4743 59.391 27.2371 59.0983 26.9243 58.8965C26.6115 58.6846 26.2179 58.5786 25.7437 58.5786C25.2896 58.5786 24.9061 58.6795 24.5933 58.8813C24.2804 59.0832 24.0433 59.3758 23.8818 59.7593C23.7204 60.1326 23.6396 60.5868 23.6396 61.1216C23.6396 61.6463 23.7204 62.1055 23.8818 62.499C24.0433 62.8926 24.2804 63.2004 24.5933 63.4224C24.9162 63.6444 25.3097 63.7554 25.7739 63.7554C26.2482 63.7554 26.6367 63.6444 26.9395 63.4224C27.2523 63.2004 27.4844 62.8926 27.6357 62.499C27.7972 62.1055 27.8779 61.6463 27.8779 61.1216ZM49.9155 63.9673V67.9937C49.9155 69.578 49.7288 70.9554 49.3555 72.126C48.9922 73.2965 48.4674 74.2653 47.7812 75.0322C47.1051 75.7992 46.2979 76.3693 45.3594 76.7427C44.4209 77.116 43.3866 77.3027 42.2563 77.3027C41.3481 77.3027 40.5005 77.1867 39.7134 76.9546C38.9263 76.7124 38.2148 76.3491 37.5791 75.8647C36.9535 75.3703 36.4136 74.7547 35.9595 74.0181C35.5054 73.2814 35.1572 72.4136 34.915 71.4146C34.6729 70.4054 34.5518 69.2651 34.5518 67.9937V63.9673C34.5518 62.3729 34.7334 60.9954 35.0967 59.835C35.4701 58.6644 35.9998 57.6956 36.686 56.9287C37.3722 56.1618 38.1846 55.5916 39.123 55.2183C40.0615 54.8449 41.0959 54.6582 42.2261 54.6582C43.1343 54.6582 43.9769 54.7793 44.7539 55.0215C45.541 55.2536 46.2524 55.6169 46.8882 56.1113C47.5239 56.5957 48.0638 57.2062 48.5078 57.9429C48.9619 58.6795 49.3101 59.5524 49.5522 60.5615C49.7944 61.5605 49.9155 62.6958 49.9155 63.9673ZM44.8145 68.6143V63.3164C44.8145 62.61 44.7741 61.9945 44.6934 61.4697C44.6227 60.945 44.5117 60.501 44.3604 60.1377C44.2191 59.7744 44.0425 59.4818 43.8306 59.2598C43.6187 59.0277 43.3765 58.8612 43.104 58.7603C42.8416 58.6493 42.549 58.5938 42.2261 58.5938C41.8224 58.5938 41.4591 58.6795 41.1362 58.8511C40.8234 59.0125 40.556 59.2749 40.334 59.6382C40.112 60.0015 39.9404 60.4858 39.8193 61.0913C39.7083 61.6968 39.6528 62.4385 39.6528 63.3164V68.6143C39.6528 69.3307 39.6882 69.9564 39.7588 70.4912C39.8395 71.016 39.9505 71.465 40.0918 71.8384C40.2432 72.2017 40.4248 72.4993 40.6367 72.7314C40.8486 72.9535 41.0908 73.1149 41.3633 73.2158C41.6357 73.3167 41.9334 73.3672 42.2563 73.3672C42.6499 73.3672 43.0031 73.2865 43.3159 73.125C43.6287 72.9635 43.8962 72.7012 44.1182 72.3379C44.3503 71.9645 44.5218 71.4751 44.6328 70.8696C44.7539 70.2541 44.8145 69.5023 44.8145 68.6143ZM66.3979 63.9673V67.9937C66.3979 69.578 66.2113 70.9554 65.8379 72.126C65.4746 73.2965 64.9499 74.2653 64.2637 75.0322C63.5876 75.7992 62.7803 76.3693 61.8418 76.7427C60.9033 77.116 59.869 77.3027 58.7388 77.3027C57.8306 77.3027 56.9829 77.1867 56.1958 76.9546C55.4087 76.7124 54.6973 76.3491 54.0615 75.8647C53.4359 75.3703 52.896 74.7547 52.4419 74.0181C51.9878 73.2814 51.6396 72.4136 51.3975 71.4146C51.1553 70.4054 51.0342 69.2651 51.0342 67.9937V63.9673C51.0342 62.3729 51.2158 60.9954 51.5791 59.835C51.9525 58.6644 52.4823 57.6956 53.1685 56.9287C53.8547 56.1618 54.667 55.5916 55.6055 55.2183C56.5439 54.8449 57.5783 54.6582 58.7085 54.6582C59.6167 54.6582 60.4593 54.7793 61.2363 55.0215C62.0234 55.2536 62.7349 55.6169 63.3706 56.1113C64.0063 56.5957 64.5462 57.2062 64.9902 57.9429C65.4443 58.6795 65.7925 59.5524 66.0347 60.5615C66.2769 61.5605 66.3979 62.6958 66.3979 63.9673ZM61.2969 68.6143V63.3164C61.2969 62.61 61.2565 61.9945 61.1758 61.4697C61.1051 60.945 60.9941 60.501 60.8428 60.1377C60.7015 59.7744 60.5249 59.4818 60.313 59.2598C60.1011 59.0277 59.8589 58.8612 59.5864 58.7603C59.3241 58.6493 59.0314 58.5938 58.7085 58.5938C58.3049 58.5938 57.9416 58.6795 57.6187 58.8511C57.3058 59.0125 57.0384 59.2749 56.8164 59.6382C56.5944 60.0015 56.4229 60.4858 56.3018 61.0913C56.1908 61.6968 56.1353 62.4385 56.1353 63.3164V68.6143C56.1353 69.3307 56.1706 69.9564 56.2412 70.4912C56.3219 71.016 56.4329 71.465 56.5742 71.8384C56.7256 72.2017 56.9072 72.4993 57.1191 72.7314C57.3311 72.9535 57.5732 73.1149 57.8457 73.2158C58.1182 73.3167 58.4159 73.3672 58.7388 73.3672C59.1323 73.3672 59.4855 73.2865 59.7983 73.125C60.1112 72.9635 60.3786 72.7012 60.6006 72.3379C60.8327 71.9645 61.0042 71.4751 61.1152 70.8696C61.2363 70.2541 61.2969 69.5023 61.2969 68.6143Z"
    fill="#0857A0" />
</svg>