<svg width="80" height="75" viewBox="0 0 80 75" fill="none" xmlns="http://www.w3.org/2000/svg">
  <path
    d="M31.5 12.5C17 9.5 7.83314 21.5 4.49981 29C3.66648 26.6667 2.49981 20.5 4.49981 14.5C6.99981 6.99998 18.9998 4.50002 26.9998 2.50002C33.3998 0.900018 43.9998 7.49999 48.4998 11C49.6665 13.3333 54.3998 18.8 63.9998 22C73.5998 25.2 76.9998 37.6667 77.4998 43.5C76.4998 48.1667 74.4998 56.6 74.4998 53C74.4998 48.5 71.2658 40.8128 66.5 37C61.5002 33 55.4998 33.5 55.4998 33.5L48.4998 43.5C48.6665 41.3334 50 37 48.4998 29C48.0381 26.538 44.5098 15.1917 31.5 12.5Z"
    fill="#7ED2FF" />
  <g opacity="0.2">
    <path opacity="0.2"
      d="M27.165 54.2378C28.4291 57.8264 30.4734 61.0899 33.1505 63.7935C35.8276 66.497 39.0709 68.5731 42.647 69.8724C46.223 71.1717 50.0426 71.6617 53.8308 71.3072C57.619 70.9526 61.2814 69.7624 64.5542 67.8222L73.4354 70.3595C73.8029 70.4645 74.1917 70.4693 74.5617 70.3734C74.9316 70.2775 75.2692 70.0845 75.5394 69.8143C75.8096 69.5441 76.0026 69.2065 76.0985 68.8366C76.1944 68.4666 76.1895 68.0778 76.0846 67.7104L73.547 58.8291C75.8016 55.0267 77.0384 50.7076 77.1377 46.2882C77.237 41.8688 76.1956 37.4984 74.114 33.5986C72.0324 29.6989 68.9809 26.4014 65.2538 24.0244C61.5268 21.6473 57.25 20.271 52.8362 20.0281C54.1962 23.9062 54.6084 28.0533 54.0368 32.123C53.4652 36.1927 51.9271 40.0663 49.5513 43.4196C47.1755 46.773 44.0311 49.5085 40.3813 51.3973C36.7314 53.2861 32.6822 54.2733 28.5725 54.2762C28.1003 54.2762 27.6311 54.263 27.165 54.2378Z"
      fill="#0857A0" />
  </g>
  <path
    d="M76.6214 59.1928C78.8135 55.0949 79.973 50.5241 79.9995 45.8768C80.026 41.2295 78.9187 36.6458 76.7735 32.5231C74.6283 28.4004 71.51 24.8632 67.6889 22.2179C63.8678 19.5726 59.4592 17.8992 54.8452 17.3427C53.3293 13.796 51.1109 10.5929 48.3238 7.92649C45.5367 5.2601 42.2386 3.18563 38.6283 1.82811C35.0179 0.470581 31.1701 -0.141892 27.3167 0.0276007C23.4633 0.197094 19.6841 1.14504 16.2068 2.81432C12.7296 4.48359 9.6264 6.83963 7.08419 9.74043C4.54197 12.6412 2.61341 16.0267 1.41473 19.6929C0.21606 23.359 -0.227908 27.2299 0.109589 31.0723C0.447086 34.9146 1.55906 38.6488 3.37849 42.0499L1.16971 49.782C0.92461 50.6394 0.913255 51.5467 1.13682 52.4099C1.36039 53.2731 1.81074 54.0608 2.4412 54.6914C3.07166 55.322 3.85929 55.7725 4.72246 55.9962C5.58563 56.22 6.49293 56.2088 7.35033 55.9639L15.0834 53.7546C18.2126 55.4296 21.6271 56.5056 25.1512 56.9273C26.7092 60.5719 29.0081 63.8526 31.9019 66.5611C34.7957 69.2696 38.2212 71.3467 41.9608 72.6605C45.7003 73.9742 49.6722 74.4959 53.6242 74.1924C57.5762 73.8888 61.4218 72.7667 64.9169 70.8974L72.6496 73.1069C73.5069 73.3518 74.4142 73.3629 75.2773 73.1392C76.1405 72.9155 76.9281 72.4651 77.5586 71.8346C78.189 71.204 78.6394 70.4164 78.8631 69.5533C79.0867 68.6901 79.0755 67.7829 78.8306 66.9255L76.6214 59.1928ZM15.4468 47.8219C15.1813 47.8219 14.917 47.8589 14.6617 47.9318L7.01727 50.1162L9.20129 42.4712C9.30824 42.0968 9.33754 41.7046 9.2874 41.3185C9.23726 40.9324 9.10874 40.5606 8.90972 40.226C6.07072 35.4387 5.07691 29.7797 6.11488 24.3116C7.15285 18.8435 10.1512 13.9423 14.547 10.5283C18.9427 7.11439 24.4335 5.42247 29.9884 5.77027C35.5433 6.11807 40.7802 8.48167 44.7158 12.4173C48.6514 16.3529 51.015 21.5897 51.3628 27.1446C51.7106 32.6995 50.0187 38.1903 46.6047 42.5861C43.1908 46.9819 38.2896 49.9802 32.8215 51.0182C27.3533 52.0562 21.6944 51.0624 16.9071 48.2234C16.4653 47.9606 15.9608 47.8219 15.4468 47.8219ZM71.0902 57.3686C70.8912 57.7032 70.7627 58.075 70.7125 58.4612C70.6624 58.8473 70.6917 59.2396 70.7986 59.614L72.983 67.2591L65.3379 65.0749C64.9635 64.968 64.5713 64.9388 64.1852 64.9889C63.7992 65.039 63.4275 65.1675 63.0928 65.3665C60.478 66.9162 57.5804 67.929 54.5696 68.3459C51.5587 68.7627 48.495 68.5752 45.5574 67.7942C42.6199 67.0132 39.8675 65.6545 37.4612 63.7975C35.0549 61.9404 33.0429 59.6223 31.5429 56.9786C35.4565 56.5736 39.2442 55.3637 42.6679 53.4249C46.0916 51.4861 49.0773 48.8602 51.4377 45.7123C53.798 42.5644 55.4819 38.9624 56.3836 35.1325C57.2853 31.3027 57.3853 27.3278 56.6773 23.4574C60.1682 24.2821 63.416 25.9164 66.1584 28.2284C68.9008 30.5404 71.0609 33.4651 72.4639 36.7663C73.867 40.0674 74.4737 43.6523 74.235 47.2313C73.9964 50.8103 72.9191 54.2829 71.0902 57.3686Z"
    fill="#0857A0" />
  <path
    d="M67.6671 43.0017H63.9828C63.4943 43.0017 63.0257 43.1966 62.6803 43.5435C62.3348 43.8905 62.1407 44.361 62.1407 44.8517C62.1407 45.3423 62.3348 45.8129 62.6803 46.1598C63.0257 46.5068 63.4943 46.7017 63.9828 46.7017V50.4017H61.8013C62.0197 49.8092 62.1345 49.1834 62.1407 48.5517C62.1409 47.3299 61.7396 46.1422 60.9991 45.1729C60.2585 44.2036 59.2201 43.5068 58.0449 43.1906C56.8698 42.8745 55.6236 42.9567 54.4997 43.4244C53.3758 43.8922 52.4371 44.7193 51.8291 45.7776C51.7069 45.9881 51.6274 46.2207 51.5951 46.4622C51.5627 46.7036 51.5782 46.9491 51.6406 47.1845C51.703 47.42 51.8111 47.6407 51.9586 47.8341C52.1062 48.0274 52.2903 48.1896 52.5005 48.3113C52.7106 48.433 52.9426 48.5118 53.1832 48.5432C53.4238 48.5746 53.6681 48.558 53.9023 48.4943C54.1364 48.4306 54.3557 48.3211 54.5476 48.172C54.7395 48.023 54.9002 47.8373 55.0204 47.6257C55.1822 47.345 55.4146 47.1119 55.6944 46.9497C55.9741 46.7875 56.2913 46.702 56.6143 46.7017C57.1029 46.7017 57.5714 46.8966 57.9169 47.2435C58.2624 47.5905 58.4565 48.061 58.4565 48.5517C58.4565 49.0423 58.2624 49.5129 57.9169 49.8598C57.5714 50.2068 57.1029 50.4017 56.6143 50.4017C56.1258 50.4017 55.6572 50.5966 55.3117 50.9435C54.9663 51.2905 54.7722 51.761 54.7722 52.2517C54.7722 52.7423 54.9663 53.2129 55.3117 53.5598C55.6572 53.9068 56.1258 54.1017 56.6143 54.1017C57.1029 54.1017 57.5714 54.2966 57.9169 54.6435C58.2624 54.9905 58.4565 55.461 58.4565 55.9517C58.4565 56.4423 58.2624 56.9129 57.9169 57.2598C57.5714 57.6068 57.1029 57.8017 56.6143 57.8017C56.2913 57.8013 55.9741 57.7158 55.6944 57.5536C55.4146 57.3914 55.1822 57.1583 55.0204 56.8776C54.9002 56.666 54.7395 56.4803 54.5476 56.3313C54.3558 56.1822 54.1365 56.0727 53.9023 56.009C53.6682 55.9453 53.4238 55.9287 53.1832 55.9601C52.9427 55.9915 52.7106 56.0703 52.5005 56.192C52.2903 56.3137 52.1062 56.4759 51.9586 56.6692C51.8111 56.8626 51.703 57.0833 51.6406 57.3188C51.5782 57.5542 51.5628 57.7997 51.5951 58.0411C51.6274 58.2826 51.707 58.5153 51.8291 58.7257C52.4371 59.784 53.3758 60.6112 54.4997 61.0789C55.6236 61.5467 56.8698 61.6288 58.0449 61.3127C59.2201 60.9966 60.2585 60.2998 60.999 59.3304C61.7396 58.3611 62.1409 57.1734 62.1407 55.9517C62.1345 55.32 62.0197 54.6941 61.8013 54.1017H63.9828V59.6517C63.9828 60.1423 64.1769 60.6129 64.5224 60.9599C64.8679 61.3068 65.3364 61.5017 65.825 61.5017C66.3135 61.5017 66.7821 61.3068 67.1276 60.9599C67.473 60.6129 67.6671 60.1423 67.6671 59.6517V46.7017C68.1557 46.7017 68.6242 46.5068 68.9697 46.1598C69.3152 45.8129 69.5092 45.3423 69.5092 44.8517C69.5092 44.361 69.3152 43.8905 68.9697 43.5435C68.6242 43.1966 68.1557 43.0017 67.6671 43.0017ZM31.5528 36.1197C31.6714 36.5955 31.9733 37.0045 32.3922 37.2568C32.5996 37.3817 32.8294 37.4643 33.0686 37.5C33.3078 37.5357 33.5517 37.5237 33.7863 37.4648C34.0209 37.4058 34.2416 37.301 34.4359 37.1564C34.6301 37.0118 34.7941 36.8301 34.9185 36.6218C35.0429 36.4136 35.1252 36.1827 35.1607 35.9425C35.1962 35.7023 35.1843 35.4574 35.1256 35.2218L31.8892 22.2167C31.6621 21.3039 31.1376 20.4935 30.3991 19.9144C29.6606 19.3353 28.7506 19.0208 27.8137 19.0208C26.8768 19.0208 25.9667 19.3353 25.2283 19.9144C24.4898 20.4935 23.9653 21.3039 23.7381 22.2167L20.5 35.2218C20.3814 35.6976 20.4559 36.2012 20.7071 36.6218C20.9583 37.0425 21.3655 37.3457 21.8393 37.4648C22.3131 37.5838 22.8146 37.509 23.2334 37.2568C23.6523 37.0045 23.9542 36.5955 24.0727 36.1197L25.1058 31.9708H30.5203L31.5528 36.1197ZM26.0271 28.2708L27.3109 23.1146C27.3498 23.0124 27.4187 22.9244 27.5085 22.8624C27.5983 22.8003 27.7047 22.7671 27.8137 22.7671C27.9227 22.7671 28.0291 22.8003 28.1189 22.8624C28.2087 22.9244 28.2776 23.0124 28.3165 23.1146L29.5996 28.2708H26.0271Z"
    fill="#0857A0" />
</svg>