<svg width="320" height="240" viewBox="0 0 320 240" fill="none" xmlns="http://www.w3.org/2000/svg">
  <path
    d="M147.073 153.301C150.203 153.087 152.916 153.931 155.517 155.153C156.716 155.734 158.025 156.054 159.356 156.093L162.785 156.02L162.83 117.904C162.827 117.045 162.656 116.195 162.325 115.402C161.994 114.61 161.511 113.891 160.901 113.285C160.292 112.68 159.57 112.2 158.776 111.874C157.981 111.548 157.13 111.382 156.271 111.385L120.036 111.52V110.766C120.053 109.235 120.416 107.728 121.1 106.358C122.948 102.562 123.551 98.2787 122.822 94.1197C121.924 89.1193 119.191 84.6347 115.158 81.5456C111.124 78.4565 106.082 76.9859 101.021 77.4222C95.959 77.8585 91.243 80.1703 87.7978 83.904C84.3526 87.6377 82.4268 92.524 82.398 97.6043C82.407 100.395 83.0015 103.153 84.1431 105.699C84.728 106.981 85.0368 108.372 85.0494 109.78L85.2634 111.497H41.5968C40.7385 111.494 39.8881 111.661 39.094 111.986C38.2999 112.312 37.5778 112.791 36.9688 113.396C36.3598 114.001 35.8759 114.719 35.5448 115.511C35.2136 116.303 35.0416 117.152 35.0387 118.011V155.282H31.9257C30.4785 155.268 29.0537 154.923 27.76 154.275C24.0823 152.523 19.9524 151.955 15.9384 152.648C11.2128 153.504 6.97701 156.094 4.06012 159.909C1.14322 163.724 -0.244748 168.491 0.167895 173.276C0.580538 178.06 2.76408 182.519 6.29111 185.779C9.81815 189.038 14.4347 190.864 19.2372 190.899C21.8925 190.899 24.5182 190.341 26.9437 189.261C28.1573 188.71 29.4726 188.418 30.8054 188.405H34.8022L34.881 234.002C34.8833 234.702 35.0232 235.394 35.2929 236.039C35.5625 236.684 35.9567 237.27 36.4527 237.763C36.9488 238.256 37.5371 238.646 38.1841 238.912C38.831 239.178 39.5239 239.313 40.2232 239.311H157.116C160.066 239.311 162.379 235.607 162.379 232.674V191.265H157.651C156.556 191.266 155.473 191.478 154.459 191.89C151.725 192.989 148.759 193.389 145.831 193.052C142.903 192.714 140.106 191.651 137.693 189.958C135.281 188.265 133.329 185.997 132.016 183.358C130.703 180.72 130.07 177.795 130.174 174.85C130.529 165.984 138.185 153.92 147.073 153.301Z"
    fill="#E0E0E0" />
  <path
    d="M147.073 153.301L146.764 153.34C146.456 153.371 146.149 153.418 145.846 153.481C144.651 153.718 143.496 154.128 142.418 154.697C139.564 156.155 135.826 159.476 133.006 165.027C131.395 168.099 130.451 171.477 130.236 174.94C130.184 176.924 130.456 178.903 131.041 180.8C131.683 182.855 132.7 184.773 134.041 186.457C135.537 188.333 137.401 189.883 139.518 191.011C141.635 192.139 143.962 192.821 146.353 193.016C148.978 193.258 151.625 192.894 154.087 191.952C155.364 191.395 156.749 191.133 158.141 191.186H162.469V191.265C162.469 197.817 162.469 204.775 162.469 212.133C162.469 215.807 162.469 219.578 162.469 223.448V232.297C162.483 232.806 162.449 233.315 162.368 233.817C162.277 234.319 162.137 234.811 161.952 235.286C161.589 236.255 161.036 237.141 160.325 237.892C159.615 238.683 158.662 239.216 157.617 239.407C157.054 239.463 156.57 239.441 156.046 239.446H111.192H51.5608H43.6797C42.3568 239.446 41.0508 239.474 39.6942 239.418C38.313 239.276 37.0367 238.617 36.1219 237.573C35.2071 236.528 34.7215 235.176 34.7629 233.789C34.7629 232.449 34.7629 231.104 34.7629 229.758C34.7629 227.064 34.7629 224.354 34.7629 221.629C34.7629 210.746 34.7423 199.666 34.701 188.388L34.8473 188.535H32.3536C31.5238 188.511 30.6933 188.53 29.8654 188.591C29.0407 188.689 28.2324 188.895 27.4617 189.205C26.6859 189.551 25.893 189.857 25.0861 190.122C21.7439 191.185 18.1739 191.31 14.7658 190.482C11.3577 189.654 8.24259 187.905 5.7607 185.427C4.49491 184.18 3.40584 182.765 2.52384 181.222C2.0922 180.445 1.71598 179.638 1.39798 178.807C1.24036 178.391 1.05459 177.985 0.930748 177.558L0.576103 176.263C-0.482469 172.016 -0.0741897 167.536 1.73463 163.55C3.54345 159.565 6.64656 156.308 10.54 154.309C12.4403 153.353 14.4847 152.716 16.5915 152.423C18.7024 152.133 20.846 152.183 22.9414 152.569C23.9803 152.765 25.0023 153.041 25.9981 153.397C26.4991 153.577 26.9888 153.774 27.4673 153.999C27.9325 154.229 28.4098 154.434 28.8972 154.612C30.8393 155.378 32.9615 155.102 35.0331 155.175L34.8867 155.322C34.8867 147.261 34.8867 139.303 34.8867 131.448V119.773C34.8477 118.799 34.8873 117.824 35.005 116.857C35.1795 115.885 35.5743 114.967 36.159 114.172C36.7334 113.378 37.4756 112.721 38.3328 112.247C39.19 111.774 40.1411 111.495 41.1184 111.43H85.2522L85.1227 111.576C85.0495 111.013 84.9764 110.451 84.9088 109.888C84.9015 108.84 84.7247 107.8 84.3853 106.808C84.222 106.313 84.0025 105.846 83.8223 105.35C83.6422 104.855 83.4395 104.365 83.2594 103.864C82.6156 101.863 82.287 99.7741 82.2855 97.672L82.37 96.1183C82.37 95.8594 82.37 95.5948 82.4263 95.3415L82.5501 94.5702C82.6458 94.0636 82.6909 93.5457 82.826 93.0503L83.2425 91.5586C83.303 91.3095 83.3859 91.0665 83.4902 90.8324L83.7717 90.1175C83.9428 89.6346 84.1518 89.1659 84.3965 88.7158L85.1058 87.3591L85.9446 85.9968C87.0915 84.3388 88.4848 82.8657 90.0765 81.6285L90.6394 81.1556L91.2643 80.7447C91.6865 80.4745 92.0918 80.1817 92.5196 79.9397C93.3819 79.4587 94.2751 79.0355 95.1936 78.6731C97.012 77.9508 98.9249 77.4939 100.874 77.3164C101.835 77.2284 102.803 77.2134 103.767 77.2714C104.245 77.2995 104.724 77.3108 105.202 77.3615L106.615 77.5754C110.321 78.2936 113.759 80.0126 116.557 82.546C119.215 84.9437 121.188 88.004 122.276 91.4141C123.364 94.8242 123.527 98.4621 122.749 101.956C122.378 103.609 121.811 105.211 121.06 106.73C120.721 107.48 120.473 108.268 120.323 109.077C120.19 109.882 120.139 110.699 120.171 111.514L120.064 111.408L147.647 111.317H153.913H155.444C155.951 111.317 156.452 111.317 156.964 111.346C157.962 111.451 158.924 111.777 159.779 112.303C160.61 112.808 161.319 113.492 161.853 114.305C162.388 115.118 162.735 116.039 162.869 117.003C162.942 117.93 162.964 118.86 162.937 119.79C162.937 120.702 162.937 121.602 162.937 122.492C162.909 136.739 162.886 148.066 162.869 156.037V156.076H162.824C161.445 156.076 160.161 156.161 158.957 156.132C157.847 156.04 156.761 155.757 155.748 155.294C154.243 154.544 152.654 153.977 151.014 153.605C150.046 153.398 149.059 153.293 148.07 153.29C147.738 153.29 147.507 153.29 147.338 153.29H147.096C147.419 153.259 147.745 153.245 148.07 153.25C149.062 153.243 150.053 153.341 151.025 153.543C152.67 153.914 154.266 154.481 155.776 155.232C156.784 155.683 157.862 155.961 158.962 156.054C160.156 156.054 161.445 156.009 162.824 155.986L162.785 156.031V119.773C162.813 118.851 162.79 117.928 162.717 117.009C162.585 116.069 162.245 115.171 161.723 114.379C161.202 113.586 160.51 112.919 159.7 112.426C158.862 111.914 157.919 111.599 156.941 111.503C156.446 111.464 155.945 111.469 155.438 111.475H153.89H147.619L120.036 111.588H119.934V111.486C119.898 110.658 119.949 109.827 120.086 109.009C120.243 108.184 120.494 107.379 120.835 106.611C121.588 105.11 122.155 103.522 122.524 101.883C123.29 98.4281 123.126 94.8323 122.05 91.4613C120.975 88.0903 119.025 85.0647 116.399 82.6924C113.631 80.1882 110.23 78.4905 106.565 77.7836L105.169 77.5754C104.696 77.5247 104.223 77.5134 103.744 77.4853C102.793 77.4272 101.839 77.4423 100.89 77.5303C98.9588 77.704 97.0626 78.1572 95.2611 78.8757C94.3517 79.2314 93.4677 79.649 92.6153 80.1254C92.1931 80.3788 91.7934 80.6884 91.3769 80.9248L90.7633 81.3301L90.2004 81.7973C88.6315 83.0224 87.2574 84.4782 86.1247 86.115L85.2972 87.3647L84.5936 88.7045C84.3548 89.1502 84.1497 89.6131 83.98 90.0893L83.7041 90.793C83.5999 91.0252 83.517 91.2663 83.4564 91.5135L83.0511 92.9828C82.916 93.4725 82.871 93.9848 82.7753 94.4858L82.6514 95.2458C82.6177 95.4991 82.6177 95.758 82.6008 96.0114L82.5163 97.5482C82.5161 99.6237 82.8409 101.687 83.479 103.662C83.6422 104.157 83.8223 104.652 84.0419 105.136C84.2614 105.621 84.4697 106.099 84.6386 106.606C84.9976 107.622 85.1878 108.691 85.2015 109.769C85.2747 110.332 85.3423 110.895 85.4211 111.486V111.633H85.2691L41.1522 111.666C40.2157 111.728 39.3044 111.996 38.4832 112.451C37.6619 112.905 36.951 113.535 36.401 114.295C35.8345 115.054 35.4493 115.932 35.2752 116.862C35.1633 117.828 35.1275 118.801 35.1682 119.773C35.1682 123.642 35.1682 127.537 35.1682 131.459V155.479H31.9032C30.8392 155.47 29.7846 155.28 28.7846 154.916C28.2892 154.748 27.7994 154.506 27.3322 154.292C26.865 154.078 26.3809 153.881 25.8911 153.729C24.9093 153.375 23.9002 153.102 22.8738 152.912C20.8101 152.532 18.6989 152.482 16.6196 152.766C13.9825 153.148 11.4546 154.078 9.19868 155.496C6.94274 156.914 5.00877 158.789 3.5213 161C2.03383 163.21 1.02583 165.708 0.562205 168.332C0.0985795 170.956 0.189605 173.648 0.82942 176.235L1.17281 177.507C1.29665 177.929 1.48242 178.329 1.63441 178.74C1.95236 179.557 2.32861 180.351 2.76027 181.115C4.05689 183.384 5.8024 185.364 7.89014 186.935C9.97788 188.505 12.364 189.634 14.9027 190.252C18.2323 191.048 21.7161 190.921 24.9792 189.886C25.7805 189.622 26.5678 189.318 27.3378 188.974C28.1329 188.657 28.9653 188.443 29.8147 188.338C30.6704 188.242 31.5035 188.293 32.3367 188.281H34.9768V188.45C34.9768 199.709 34.9956 210.789 35.0331 221.691C35.0331 224.416 35.0331 227.126 35.0331 229.82C35.0331 231.164 35.0331 232.507 35.0331 233.851C34.9952 235.165 35.4566 236.445 36.3246 237.433C37.1925 238.422 38.4025 239.044 39.7111 239.176C41.0114 239.227 42.3568 239.176 43.6516 239.204H51.5326H111.164H156.035C156.548 239.221 157.061 239.21 157.572 239.17C158.568 238.99 159.475 238.483 160.15 237.729C160.841 236.999 161.379 236.138 161.732 235.196C161.913 234.733 162.051 234.255 162.143 233.766C162.22 233.277 162.252 232.781 162.239 232.286C162.239 231.284 162.239 230.293 162.239 229.302V223.436C162.239 219.575 162.239 215.803 162.239 212.122C162.239 204.775 162.239 197.806 162.239 191.254L162.329 191.344H158.09C156.718 191.285 155.351 191.541 154.093 192.092C151.605 193.035 148.935 193.398 146.285 193.156C143.877 192.956 141.536 192.263 139.406 191.123C137.276 189.982 135.403 188.418 133.901 186.525C132.549 184.827 131.525 182.891 130.883 180.817C130.309 178.913 130.05 176.928 130.118 174.94C130.348 171.467 131.307 168.082 132.932 165.004C135.747 159.448 139.536 156.121 142.407 154.68C143.49 154.112 144.651 153.706 145.852 153.475C146.155 153.417 146.461 153.375 146.769 153.352L147.073 153.301Z"
    fill="#263238" />
  <path
    d="M300.174 154.86C297.431 154.857 294.719 155.432 292.214 156.549C291.366 156.929 290.47 157.192 289.551 157.331V117.267C289.552 116.566 289.414 115.872 289.146 115.224C288.878 114.576 288.485 113.988 287.99 113.492C287.494 112.996 286.905 112.603 286.258 112.335C285.61 112.068 284.915 111.93 284.214 111.931H242.524V116.659C242.528 117.752 242.74 118.833 243.149 119.846C244.001 121.941 244.439 124.181 244.438 126.443C244.44 129.094 243.847 131.712 242.702 134.104C241.557 136.495 239.89 138.599 237.824 140.26C235.757 141.92 233.344 143.096 230.762 143.699C228.18 144.302 225.496 144.318 222.907 143.745C220.319 143.172 217.892 142.025 215.806 140.388C213.72 138.752 212.028 136.668 210.855 134.29C209.683 131.912 209.059 129.302 209.03 126.65C209.002 123.999 209.569 121.376 210.69 118.973C211.251 117.81 211.547 116.537 211.557 115.246V111.931L169.337 111.796C167.598 111.796 165.93 112.487 164.7 113.716C163.47 114.946 162.779 116.614 162.779 118.354L162.74 155.507H159.857C159.531 155.507 159.199 155.507 158.872 155.473C155.736 153.19 152.043 151.794 148.18 151.433C144.318 151.072 140.43 151.76 136.925 153.423C133.421 155.086 130.429 157.663 128.266 160.884C126.103 164.104 124.849 167.848 124.635 171.721C124.421 175.594 125.255 179.454 127.05 182.893C128.845 186.332 131.534 189.223 134.834 191.262C138.134 193.301 141.923 194.413 145.802 194.48C149.681 194.546 153.505 193.566 156.874 191.642C157.447 191.516 158.032 191.452 158.619 191.45H162.317V232.922C162.317 234.661 163.008 236.329 164.238 237.559C165.468 238.789 167.136 239.48 168.876 239.48H284.214C284.916 239.48 285.61 239.341 286.258 239.073C286.906 238.804 287.494 238.411 287.99 237.915C288.486 237.418 288.879 236.83 289.146 236.181C289.414 235.533 289.552 234.839 289.551 234.137V191.918C290.266 192.098 290.961 192.352 291.623 192.678C295.33 194.488 299.515 195.08 303.579 194.366C308.461 193.488 312.839 190.818 315.855 186.881C318.872 182.944 320.309 178.022 319.887 173.08C319.464 168.138 317.211 163.532 313.57 160.163C309.929 156.795 305.162 154.908 300.202 154.871L300.174 154.86Z"
    fill="#F5F5F5" />
  <path
    d="M300.174 154.86L301.429 154.916C301.946 154.927 302.462 154.975 302.971 155.063L303.957 155.226C304.338 155.279 304.715 155.364 305.082 155.479L306.332 155.823C306.766 155.969 307.21 156.16 307.683 156.341C307.914 156.436 308.162 156.521 308.404 156.628L309.124 157.005C309.645 157.253 310.149 157.535 310.633 157.849C313.307 159.523 315.544 161.808 317.161 164.516C318.778 167.224 319.728 170.278 319.933 173.426C319.933 173.91 320 174.394 320 174.889C320 175.385 319.949 175.874 319.921 176.381C319.921 176.629 319.921 176.888 319.865 177.135C319.809 177.383 319.792 177.642 319.752 177.895L319.634 178.666C319.572 178.914 319.516 179.173 319.454 179.426C318.382 183.878 315.827 187.833 312.209 190.64C310.205 192.175 307.931 193.321 305.505 194.018C304.885 194.209 304.238 194.305 303.596 194.457C302.955 194.609 302.285 194.654 301.62 194.693C300.267 194.797 298.907 194.757 297.562 194.575C296.177 194.391 294.816 194.059 293.503 193.584C292.152 193.128 290.93 192.34 289.529 192.025L289.641 191.935C289.641 198.42 289.641 205.295 289.641 212.56C289.641 216.186 289.641 219.905 289.641 223.718C289.641 225.62 289.641 227.551 289.641 229.499V233.918C289.641 234.166 289.641 234.425 289.613 234.672C289.589 234.926 289.547 235.178 289.489 235.427C289.247 236.431 288.725 237.347 287.984 238.067C287.242 238.788 286.312 239.283 285.301 239.497C284.79 239.589 284.272 239.629 283.753 239.615H239.653H181.108H169.484C168.822 239.64 168.16 239.595 167.508 239.48C166.854 239.339 166.223 239.108 165.633 238.793C164.452 238.136 163.494 237.143 162.88 235.939C162.574 235.339 162.363 234.696 162.256 234.031C162.166 233.369 162.132 232.7 162.154 232.032V191.456L162.301 191.597H159.632C159.176 191.597 158.703 191.597 158.253 191.597C157.793 191.621 157.336 191.681 156.885 191.777H156.925C154.232 193.32 151.239 194.266 148.149 194.552C143.305 194.999 138.453 193.806 134.369 191.164C130.286 188.522 127.208 184.585 125.631 179.984C124.878 177.769 124.478 175.449 124.443 173.11C124.447 170.782 124.8 168.466 125.491 166.243C126.196 164.039 127.251 161.964 128.615 160.095C129.3 159.167 130.053 158.29 130.867 157.472L132.144 156.312C132.572 155.935 133.056 155.614 133.507 155.265C135.371 153.939 137.427 152.905 139.603 152.197C141.783 151.545 144.044 151.208 146.319 151.195C150.857 151.225 155.271 152.683 158.934 155.361L158.861 155.333C160.133 155.395 161.434 155.333 162.717 155.367L162.571 155.507C162.571 147.57 162.58 139.738 162.599 132.011C162.599 128.141 162.599 124.306 162.599 120.504V119.08C162.599 118.607 162.599 118.129 162.638 117.645C162.796 116.198 163.42 114.842 164.417 113.781C165.413 112.72 166.727 112.011 168.161 111.762C169.095 111.656 170.036 111.622 170.975 111.661H173.762H179.312L190.256 111.7L211.529 111.768H211.658V114.875C211.687 115.877 211.546 116.876 211.242 117.83C211.083 118.302 210.895 118.762 210.679 119.21C210.476 119.649 210.302 120.099 210.116 120.555C209.014 123.708 208.834 127.109 209.597 130.361C210.36 133.612 212.034 136.578 214.422 138.912C215.737 140.197 217.238 141.275 218.875 142.11C222.1 143.751 225.757 144.342 229.334 143.798C232.799 143.279 236.029 141.736 238.612 139.368C239.868 138.22 240.947 136.892 241.815 135.428C242.683 134 243.332 132.449 243.74 130.829C244.582 127.667 244.51 124.331 243.532 121.208C243.318 120.442 242.969 119.728 242.738 118.956C242.522 118.183 242.414 117.384 242.417 116.581V111.801H242.524H273.035H283.201C283.744 111.787 284.287 111.8 284.828 111.841C285.367 111.906 285.894 112.048 286.393 112.263C287.36 112.692 288.181 113.393 288.756 114.281C289.331 115.168 289.634 116.204 289.63 117.262C289.63 119.272 289.63 121.202 289.63 123.133C289.63 138.332 289.63 149.912 289.596 157.292L289.551 157.253C291.431 157.01 292.844 156.099 294.178 155.733C295.267 155.385 296.384 155.132 297.517 154.978C298.182 154.892 298.85 154.84 299.521 154.821C299.965 154.821 300.179 154.821 300.179 154.821H299.521C297.711 154.892 295.919 155.21 294.195 155.766C292.872 156.132 291.459 157.055 289.562 157.309H289.523V157.269C289.523 149.889 289.523 138.321 289.484 123.111C289.484 121.208 289.484 119.251 289.484 117.239C289.488 116.214 289.193 115.209 288.635 114.348C288.077 113.487 287.281 112.807 286.342 112.393C285.858 112.182 285.346 112.044 284.823 111.982C284.299 111.931 283.753 111.948 283.213 111.948H273.035H242.524L242.631 111.846V116.519C242.626 117.303 242.732 118.084 242.946 118.838C243.154 119.587 243.509 120.313 243.74 121.09C244.733 124.252 244.809 127.631 243.959 130.834C243.546 132.475 242.89 134.044 242.012 135.49C241.135 136.972 240.042 138.315 238.769 139.475C236.156 141.881 232.881 143.45 229.368 143.979C225.74 144.529 222.031 143.929 218.763 142.262C217.107 141.414 215.588 140.321 214.259 139.019C212.91 137.693 211.78 136.162 210.91 134.482C209.784 132.331 209.116 129.97 208.949 127.547C208.781 125.125 209.117 122.694 209.936 120.409C210.105 119.947 210.285 119.485 210.499 119.041C210.715 118.603 210.903 118.152 211.062 117.69C211.357 116.76 211.494 115.788 211.467 114.813V111.841L211.596 111.97L190.323 111.908L179.38 111.875H173.829H171.004C170.077 111.834 169.15 111.864 168.228 111.965C166.857 112.205 165.6 112.883 164.647 113.898C163.694 114.913 163.096 116.21 162.942 117.594C162.903 118.05 162.897 118.523 162.903 119.001V120.426C162.903 124.231 162.903 128.066 162.903 131.932C162.903 139.655 162.903 147.489 162.903 155.434V155.575H162.757C161.467 155.575 160.195 155.609 158.878 155.541H158.839L158.799 155.513C155.184 152.876 150.833 151.439 146.358 151.404C144.114 151.421 141.884 151.754 139.733 152.394C137.567 153.112 135.526 154.16 133.681 155.502C133.236 155.851 132.764 156.16 132.336 156.538L131.08 157.663C130.282 158.471 129.544 159.336 128.874 160.253C127.517 162.092 126.464 164.137 125.755 166.31C125.08 168.498 124.732 170.775 124.725 173.065C124.779 178.649 126.999 183.993 130.917 187.972C133.15 190.207 135.847 191.925 138.816 193.004C141.786 194.084 144.956 194.499 148.103 194.22C151.149 193.949 154.102 193.027 156.761 191.518V191.518C157.226 191.417 157.699 191.355 158.174 191.332C158.658 191.332 159.109 191.332 159.57 191.332H162.385V232.06C162.357 232.713 162.389 233.367 162.481 234.014C162.58 234.652 162.782 235.269 163.077 235.843C163.684 236.994 164.621 237.937 165.768 238.551C166.334 238.851 166.938 239.072 167.564 239.21C168.198 239.32 168.841 239.365 169.484 239.345H181.114H239.659H283.781C284.284 239.36 284.788 239.325 285.284 239.238C286.254 239.034 287.147 238.558 287.857 237.866C288.568 237.175 289.067 236.295 289.298 235.331C289.408 234.855 289.459 234.367 289.45 233.879V223.701C289.45 219.892 289.45 216.173 289.45 212.544C289.45 205.289 289.45 198.414 289.45 191.918V191.828H289.562C291.004 192.16 292.225 192.954 293.548 193.398C294.851 193.87 296.2 194.202 297.573 194.389C298.907 194.569 300.256 194.608 301.598 194.507C302.257 194.468 302.91 194.378 303.557 194.276C304.204 194.175 304.835 194.029 305.448 193.843C308.833 192.882 311.901 191.037 314.338 188.499C316.774 185.96 318.491 182.819 319.313 179.398C319.375 179.145 319.437 178.892 319.493 178.638L319.612 177.878L319.73 177.124C319.769 176.871 319.764 176.617 319.781 176.37C319.807 175.867 319.835 175.371 319.865 174.884C319.865 174.399 319.82 173.915 319.803 173.431C319.601 170.3 318.659 167.261 317.057 164.564C315.454 161.866 313.235 159.586 310.582 157.911C310.101 157.596 309.599 157.314 309.079 157.067L308.364 156.69C308.122 156.583 307.88 156.493 307.644 156.397C307.177 156.217 306.732 156.025 306.304 155.879L305.054 155.53C304.687 155.41 304.31 155.322 303.928 155.265L302.943 155.102C302.434 155.009 301.918 154.956 301.401 154.944L300.174 154.86Z"
    fill="#263238" />
  <path d="M159.576 162.251C159.576 162.251 161.473 161.277 163.145 161.643C164.817 162.009 170.885 165.967 170.885 165.967L175.777 165.055L178.682 178.88L159.576 186.795V162.251Z" fill="#FFD9CD" />
  <path
    d="M145.503 167.059C145.503 167.059 149.877 166.496 151.458 165.713C153.04 164.931 156.818 161.57 157.606 161.632C158.394 161.694 161.265 162.24 161.265 162.24L160.105 165.713C160.105 165.713 165.83 169.187 167.536 170.465C169.241 171.742 174.601 177.467 174.854 178.869C175.107 180.271 174.674 181.915 174.004 182.461C173.334 183.007 170.896 181.898 170.896 181.898C170.99 182.329 170.988 182.776 170.891 183.207C170.794 183.638 170.603 184.042 170.334 184.392C169.422 185.613 167.294 185.185 167.294 185.185C167.294 185.185 167.108 187.195 166.134 187.561C165.16 187.927 162.965 186.829 162.965 186.829C162.965 186.829 162.306 188.518 161.512 188.715C160.719 188.912 158.461 187.589 158.461 187.589C158.461 187.589 148.717 180.586 146.527 179.55C144.337 178.515 143.662 178.453 143.662 178.453L145.503 167.059Z"
    fill="#FFBE9D" />
  <path
    d="M162.954 186.857C162.914 186.857 162.886 186.688 162.785 186.429C162.644 186.092 162.479 185.767 162.289 185.455C161.98 185.029 161.728 184.563 161.541 184.07C161.968 184.399 162.313 184.823 162.548 185.309C162.746 185.639 162.892 185.998 162.982 186.373C163.032 186.671 162.987 186.862 162.954 186.857Z"
    fill="#EB996E" />
  <path
    d="M167.001 185.675C166.547 185.091 166.135 184.476 165.768 183.834C165.104 182.821 164.389 182.145 164.44 182.078C165.096 182.461 165.64 183.01 166.016 183.671C166.467 184.272 166.801 184.951 167.001 185.675V185.675Z"
    fill="#EB996E" />
  <path
    d="M170.908 182.157C170.823 182.157 170.553 181.126 169.878 179.989C169.202 178.852 168.431 178.092 168.493 178.03C169.157 178.515 169.715 179.132 170.13 179.842C170.546 180.552 170.81 181.34 170.908 182.157V182.157Z"
    fill="#EB996E" />
  <path d="M168.054 174.557C168.439 175.612 168.49 176.76 168.2 177.845C168.099 177.303 168.062 176.751 168.088 176.201C168.017 175.656 168.005 175.105 168.054 174.557Z" fill="#EB996E" />
  <path
    d="M153.879 169.074C153.879 169.074 155.399 164.205 155.945 163.591C156.491 162.977 161.574 161.643 161.574 161.643L163.156 165.725L162.03 166.918L159.593 166.76C159.593 166.76 158.079 170.78 153.879 169.074Z"
    fill="#FFD9CD" />
  <path
    d="M144.535 178.711C144.535 178.711 143.837 179.246 144.535 180.524C145.233 181.802 147.118 180.89 147.726 180.524C147.726 180.524 146.814 182.658 147.968 183.339C148.757 183.747 149.647 183.915 150.53 183.823C150.53 183.823 150.468 185.101 152.112 185.956C153.755 186.812 154.183 185.956 154.183 185.956C154.183 185.956 154.363 188.084 156.249 188.27C158.135 188.456 158.805 187.803 158.805 187.803L157.955 186.542C157.955 186.542 159.053 184.29 158.203 183.339C157.909 183.045 157.557 182.817 157.168 182.67C156.78 182.522 156.365 182.459 155.951 182.483C155.951 182.483 156.328 180.507 155.242 179.955C154.999 179.804 154.727 179.707 154.444 179.67C154.16 179.633 153.872 179.657 153.599 179.741C153.326 179.825 153.074 179.966 152.86 180.156C152.646 180.345 152.476 180.578 152.359 180.839C152.359 180.839 152.235 178.672 150.671 178.723C149.757 178.733 148.883 179.099 148.233 179.742L144.535 178.711Z"
    fill="#FFD9CD" />
  <path
    d="M152.354 180.828C152.219 181.412 151.973 181.965 151.628 182.455C151.366 182.991 151.005 183.472 150.564 183.874C150.76 183.315 151.033 182.787 151.374 182.303C151.632 181.769 151.962 181.273 152.354 180.828V180.828Z"
    fill="#DF8169" />
  <path d="M155.984 182.748C155.838 183.365 155.555 183.942 155.157 184.437C154.839 184.985 154.404 185.458 153.885 185.821C154.558 184.781 155.258 183.758 155.984 182.753V182.748Z" fill="#DF8169" />
  <path d="M118.263 205.727H109.025L106.661 239.322H115.926C117.503 234.205 121.443 207.545 121.443 207.545L118.263 205.727Z" fill="#263238" />
  <path
    d="M65.9494 205.727C65.9494 205.727 60.033 219.592 60.624 225.204C61.2151 230.816 64.5364 239.322 64.5364 239.322H110.291C111.258 235.494 112.01 231.615 112.543 227.703C113.534 220.768 116.191 205.749 116.191 205.749L65.9494 205.727Z"
    fill="#263238" />
  <path
    d="M126.408 71.9235C124.86 69.9701 122.952 68.0955 122.558 65.6355C122.192 63.3838 123.183 60.9069 122.169 58.8804C120.92 56.3528 117.339 55.863 115.786 53.5156C115.037 52.3898 114.857 50.9374 114.097 49.7947C112.836 47.8469 110.235 47.2221 107.905 47.3515C105.574 47.481 103.356 48.2016 101.031 48.2804C97.8451 48.3479 94.6195 47.1545 91.529 47.9145C88.1176 48.7532 85.8997 51.6298 83.586 54.4051L80.5687 57.6081C79.9598 58.1564 79.2979 58.6429 78.5928 59.0605C77.3544 59.7754 75.9583 60.2426 74.8775 61.1827C72.5639 63.1924 72.5526 67.2737 74.8775 69.2946C73.6402 69.6549 72.5513 70.4029 71.771 71.4284C70.9907 72.454 70.5602 73.7029 70.5429 74.9914C70.5429 76.4044 71.1059 77.7554 71.4324 79.1233C71.7589 80.4913 71.9953 82.0056 71.3479 83.2722C70.7006 84.5388 69.023 85.3437 67.824 84.595C68.0055 85.5199 68.3907 86.3928 68.9515 87.1503C69.5124 87.9079 70.2348 88.531 71.0665 88.9746C70.3604 89.6266 69.4324 89.985 68.4714 89.9767C70.7569 96.1689 77.6077 99.6647 84.1771 100.014C90.7465 100.363 97.1583 98.1673 103.373 96.0057L121.291 92.2509C122.862 91.9694 123.599 90.1118 123.65 88.513C123.701 86.9143 123.38 85.2424 124.021 83.7788C124.894 81.7748 127.32 80.8065 128.232 78.8137C129.245 76.5282 127.951 73.8881 126.408 71.9235Z"
    fill="#263238" />
  <path
    d="M83.7718 86.0925C82.6797 82.0338 81.6045 77.9469 81.2273 73.7587C80.8502 69.5705 81.2273 65.2472 82.8598 61.3742C83.1132 60.8113 85.2129 56.8708 85.8434 56.9777C86.2937 57.0453 84.9371 60.7212 85.1453 61.1265C87.1381 64.9882 87.4984 69.5311 86.9242 73.8431C86.3314 78.027 85.2741 82.1317 83.7718 86.0813"
    fill="#263238" />
  <path
    d="M84.1828 70.0548C84.3798 59.5111 90.6846 50.842 101.217 51.3374L102.185 51.4387C106.899 51.9299 111.254 54.1787 114.384 57.7372C117.514 61.2957 119.188 65.9027 119.073 70.6403C118.848 79.7766 118.51 89.87 117.914 94.7225C116.726 104.771 106.497 105.277 106.497 105.277L106.222 121.873L82.2744 105.283L84.1828 70.0548Z"
    fill="#FFBE9D" />
  <path d="M106.48 105.277C101.836 104.774 97.4332 102.951 93.792 100.025C93.792 100.025 96.1507 108.525 106.283 108.677L106.48 105.277Z" fill="#EB996E" />
  <path
    d="M115.572 78.4424C115.535 78.8173 115.353 79.163 115.065 79.4058C114.777 79.6487 114.405 79.7696 114.029 79.7428C113.845 79.7386 113.663 79.6973 113.495 79.6214C113.327 79.5454 113.176 79.4365 113.051 79.3009C112.926 79.1654 112.83 79.0061 112.768 78.8325C112.705 78.6589 112.679 78.4745 112.69 78.2904C112.725 77.9155 112.906 77.5694 113.193 77.3255C113.48 77.0816 113.851 76.9593 114.226 76.9844C114.411 76.9902 114.593 77.0327 114.761 77.1094C114.929 77.1861 115.08 77.2955 115.205 77.4312C115.33 77.567 115.427 77.7263 115.49 77.8999C115.553 78.0735 115.581 78.258 115.572 78.4424V78.4424Z"
    fill="#263238" />
  <path
    d="M116.467 74.5919C116.27 74.7608 115.268 73.8376 113.72 73.68C112.172 73.5224 110.956 74.1754 110.809 73.9671C110.736 73.877 110.956 73.5561 111.485 73.2465C112.204 72.8568 113.025 72.6958 113.838 72.7849C114.643 72.866 115.401 73.2034 116 73.7475C116.439 74.1754 116.563 74.5188 116.467 74.5919Z"
    fill="#263238" />
  <path
    d="M101.594 78.4424C101.558 78.8169 101.378 79.1625 101.09 79.4054C100.803 79.6484 100.433 79.7695 100.057 79.7428C99.8727 79.7385 99.6909 79.6973 99.5226 79.6214C99.3542 79.5456 99.2028 79.4367 99.0774 79.3012C98.9519 79.1658 98.8549 79.0065 98.7921 78.8329C98.7293 78.6593 98.7021 78.4748 98.7119 78.2904C98.7477 77.9155 98.9283 77.5694 99.2152 77.3255C99.5022 77.0816 99.873 76.9593 100.249 76.9844C100.433 76.9902 100.615 77.0327 100.783 77.1094C100.951 77.1861 101.102 77.2955 101.227 77.4312C101.352 77.567 101.449 77.7263 101.512 77.8999C101.575 78.0735 101.603 78.258 101.594 78.4424Z"
    fill="#263238" />
  <path
    d="M101.256 73.612C101.059 73.7809 100.052 72.8633 98.5037 72.7057C96.9557 72.5481 95.7454 73.2011 95.599 72.9928C95.5258 72.8971 95.7397 72.5818 96.2745 72.2722C96.9926 71.8798 97.8144 71.7186 98.6276 71.8106C99.4314 71.8924 100.188 72.2276 100.789 72.7676C101.223 73.1898 101.352 73.5445 101.256 73.612Z"
    fill="#263238" />
  <path
    d="M105.535 86.087C105.535 85.997 106.514 85.935 108.09 85.8956C108.49 85.8956 108.873 85.8618 108.969 85.5973C109.044 85.1925 108.995 84.7745 108.828 84.3982C108.558 83.4 108.274 82.3567 107.978 81.2683C106.807 76.8156 106.002 73.1734 106.182 73.1284C106.362 73.0833 107.46 76.6523 108.625 81.1051C108.907 82.2009 109.173 83.248 109.425 84.2462C109.628 84.7474 109.644 85.3049 109.47 85.8168C109.398 85.9505 109.297 86.0662 109.174 86.155C109.051 86.2437 108.91 86.3033 108.76 86.3291C108.534 86.3591 108.305 86.3591 108.079 86.3291C106.52 86.2728 105.535 86.1771 105.535 86.087Z"
    fill="#263238" />
  <path
    d="M100.885 86.6779C101.138 86.6779 100.964 88.3667 102.275 89.7065C103.587 91.0463 105.394 91.0575 105.383 91.2939C105.383 91.4009 104.949 91.5754 104.189 91.5191C103.206 91.4265 102.285 90.9923 101.589 90.2919C100.922 89.6156 100.543 88.708 100.53 87.7587C100.542 87.0495 100.772 86.6554 100.885 86.6779Z"
    fill="#263238" />
  <path
    d="M101.831 67.3357C101.634 67.741 100.114 67.3807 98.2729 67.4088C96.4321 67.437 94.8953 67.7748 94.7152 67.3694C94.6307 67.178 94.9234 66.8065 95.5596 66.4687C96.4018 66.0532 97.3276 65.8348 98.2668 65.8299C99.206 65.825 100.134 66.0339 100.981 66.4406C101.594 66.7784 101.921 67.1443 101.831 67.3357Z"
    fill="#263238" />
  <path
    d="M116.371 69.3847C116.062 69.7056 115.031 69.2271 113.754 69.0751C112.476 68.9231 111.367 69.0751 111.153 68.6698C111.063 68.4784 111.271 68.1463 111.778 67.8648C112.456 67.5335 113.217 67.4102 113.965 67.5104C114.714 67.6106 115.415 67.9297 115.983 68.4277C116.399 68.8499 116.506 69.2271 116.371 69.3847Z"
    fill="#263238" />
  <path d="M84.2165 77.5922C84.0532 77.5021 77.5176 74.8169 77.011 81.7184C76.5043 88.62 83.541 87.6855 83.5804 87.511C83.6198 87.3365 84.2165 77.5922 84.2165 77.5922Z" fill="#FFBE9D" />
  <path
    d="M81.6495 84.7414C81.6495 84.7133 81.5256 84.8146 81.3173 84.8934C81.0217 84.9926 80.6993 84.9745 80.4167 84.8428C79.7074 84.5275 79.1782 83.3228 79.2345 82.0731C79.2611 81.4829 79.4188 80.906 79.6961 80.3843C79.7771 80.1736 79.9081 79.9857 80.0777 79.8366C80.2473 79.6876 80.4506 79.5819 80.67 79.5287C80.8104 79.5023 80.9556 79.5262 81.0802 79.5962C81.2047 79.6662 81.3007 79.7778 81.3511 79.9115C81.4299 80.1085 81.3793 80.2436 81.413 80.2605C81.4468 80.2774 81.5707 80.1535 81.5369 79.8665C81.5105 79.6913 81.4251 79.5304 81.2948 79.4105C81.1145 79.2538 80.8804 79.173 80.6418 79.1853C80.3541 79.2203 80.0802 79.3289 79.8465 79.5004C79.6129 79.672 79.4273 79.9008 79.3077 80.1648C78.9719 80.7414 78.7788 81.3899 78.7448 82.0563C78.6885 83.4523 79.3077 84.809 80.2816 85.1693C80.4647 85.2386 80.6611 85.2655 80.8561 85.248C81.0511 85.2304 81.2396 85.1689 81.4074 85.0679C81.627 84.9047 81.672 84.7527 81.6495 84.7414Z"
    fill="#EB996E" />
  <path
    d="M115.324 58.9143C116.484 58.3514 113.36 54.5347 110.697 53.1105C106.666 50.9601 100.401 49.3952 96.5054 50.2339C91.8106 51.2416 87.8363 53.2907 85.2468 57.3325C82.6573 61.3743 81.4808 66.2099 81.3063 71.0061C81.25 72.4697 81.3063 74.0009 82.0043 75.29C82.8712 76.8775 84.6614 77.9583 84.4418 80.058C84.3894 80.4368 84.4122 80.8221 84.5088 81.192C84.6054 81.562 84.7739 81.9093 85.0047 82.214C86.1813 83.6383 87.8194 82.473 88.6019 81.2571C90.2907 78.6451 90.6678 75.4307 91 72.3402C91.2364 70.1448 91.4728 67.8987 91 65.7427C90.7354 64.5718 90.2625 63.4459 90.0655 62.2638C89.9296 61.6768 89.9226 61.0673 90.0451 60.4774C90.1675 59.8875 90.4165 59.3312 90.7748 58.8468C90.9555 58.6407 91.1553 58.4522 91.3715 58.2839C92.389 57.5057 93.5952 57.0122 94.8664 56.854C96.1375 56.6957 97.4279 56.8783 98.6052 57.3832C102.405 59.01 108.912 61.4926 110.736 60.2879C113.354 58.5484 114.029 57.3494 114.029 57.3494L115.324 58.9143Z"
    fill="#263238" />
  <path
    d="M96.9219 49.3164C100.801 48.2919 105.118 48.6353 108.552 50.7068C110.37 51.8327 111.975 53.4821 112.419 55.5649C112.864 57.6478 111.828 60.1022 109.807 60.7777L109.667 60.8565C106.655 61.6559 104.769 61.138 101.898 59.9333C99.4776 58.92 97.3948 57.2537 94.9573 56.2461C92.3609 55.1786 89.5045 54.9119 86.7554 55.4805C89.5925 52.6433 93.0489 50.3409 96.9219 49.3164Z"
    fill="#263238" />
  <path
    d="M98.6726 48.117C98.9092 48.1134 99.1454 48.138 99.3763 48.1902C100.009 48.3017 100.631 48.4693 101.234 48.6912C102.132 49.0249 102.986 49.4652 103.778 50.0029C104.758 50.6572 105.616 51.4784 106.312 52.4291C106.973 53.4059 107.444 54.4981 107.702 55.6491C107.925 56.5732 108.068 57.5149 108.13 58.4637C108.186 59.2743 108.186 59.933 108.181 60.3833C108.189 60.619 108.172 60.8549 108.13 61.087C108.083 60.8554 108.063 60.6194 108.068 60.3833C108.04 59.933 108.006 59.2574 107.922 58.4806C107.831 57.5449 107.671 56.6173 107.443 55.7054C107.175 54.592 106.71 53.5357 106.07 52.5867C105.396 51.6615 104.568 50.8597 103.621 50.2168C102.853 49.6777 102.025 49.2282 101.155 48.877C100.341 48.5814 99.5126 48.3278 98.6726 48.117Z"
    fill="#455A64" />
  <path
    d="M105.028 47.7175C105.233 47.7489 105.433 47.8037 105.625 47.8808C105.858 47.951 106.085 48.0376 106.306 48.1397L107.167 48.5732C108.776 49.5627 110.029 51.037 110.747 52.7839C110.955 53.2768 111.124 53.785 111.254 54.3038C111.365 54.7893 111.44 55.2822 111.479 55.7787C111.519 56.226 111.528 56.6755 111.507 57.1241C111.479 57.5154 111.427 57.9046 111.35 58.2894C111.288 58.6071 111.201 58.9195 111.091 59.2238C111.018 59.4547 110.926 59.6788 110.815 59.8937C110.732 60.0941 110.624 60.2833 110.494 60.4567C110.778 59.7521 110.997 59.0229 111.147 58.2781C111.206 57.9052 111.246 57.5294 111.265 57.1523C111.273 56.7144 111.256 56.2766 111.215 55.8406C111.166 55.3595 111.087 54.8819 110.978 54.4108C110.843 53.9107 110.676 53.4199 110.477 52.9415C109.779 51.2476 108.589 49.8023 107.06 48.7927L106.233 48.3255C106.021 48.2134 105.803 48.1138 105.58 48.0271C105.382 47.951 105.196 47.8467 105.028 47.7175V47.7175Z"
    fill="#455A64" />
  <path
    d="M109.531 120.206C109.531 121.158 114.277 142.009 116.095 147.131C117.914 152.254 123.667 203.616 122.907 207.275C122.147 210.934 120.182 210.787 120.182 210.787C120.182 210.787 73.6953 207.86 68.6964 208.299C63.6976 208.738 61.581 208.592 60.3707 202.884C59.1604 197.176 60.4045 167.515 59.3461 160.343C58.2878 153.172 58.2766 149.698 57.8656 139.048C57.511 129.81 59.6107 122.407 64.0016 117.059C68.3925 111.712 78.1143 106.313 78.1143 106.313L81.565 101.281L105.962 114.189L106.525 111.25L108.006 115.821L109.531 120.206Z"
    fill="#455A64" />
  <g opacity="0.3">
    <path opacity="0.3"
      d="M120.019 183.767C119.608 182.731 118.291 182.466 117.204 182.348C106.863 181.222 96.1057 178.616 88.5511 171.467C85.6014 168.652 83.2708 165.275 81.0248 161.897C76.116 154.478 71.5056 146.867 66.8952 139.256L63.3149 140.601C65.516 151.342 67.6777 159.116 71.2523 167.92C74.8269 176.725 77.6078 185.27 86.671 188.152C92.5311 190.015 103.66 188.586 109.791 188.107C112.347 187.981 114.883 187.585 117.356 186.925C118.115 186.739 118.82 186.381 119.417 185.878C119.709 185.621 119.921 185.285 120.027 184.911C120.134 184.536 120.131 184.139 120.019 183.767V183.767Z"
      fill="black" />
  </g>
  <path
    d="M62.037 137.786C62.3016 138.265 82.9893 182.455 92.227 184.273C101.465 186.092 130.174 186.525 135.775 185.45C141.376 184.375 146.859 183.406 146.859 183.406C146.859 183.406 150.918 173.769 147.214 165.561L139.502 165.803C139.502 165.803 118.06 164.644 115.031 163.816C112.003 162.989 109.402 160.152 106.661 160.304L90.3355 122.345C90.3355 122.345 79.7355 112.5 72.1641 115.528C64.5927 118.557 59.8134 133.846 62.037 137.786Z"
    fill="#455A64" />
  <path
    d="M140.099 184.949C140.121 184.696 140.172 184.447 140.251 184.206C140.374 183.733 140.526 183.046 140.684 182.196C140.842 181.346 140.994 180.321 141.095 179.179C141.193 177.939 141.22 176.695 141.174 175.452C141.073 173.195 140.722 170.956 140.127 168.776C139.896 167.937 139.688 167.267 139.524 166.806C139.433 166.57 139.361 166.327 139.31 166.079C139.441 166.297 139.548 166.527 139.631 166.766C139.896 167.403 140.127 168.053 140.324 168.714C140.98 170.9 141.358 173.16 141.45 175.441C141.494 176.695 141.461 177.951 141.348 179.201C141.248 180.221 141.088 181.234 140.87 182.235C140.73 182.911 140.553 183.578 140.341 184.234C140.281 184.479 140.2 184.718 140.099 184.949V184.949Z"
    fill="#263238" />
  <path
    d="M90.3355 122.356C90.3355 122.356 90.4424 122.582 90.6451 123.026L91.512 125.008L94.8389 132.607C97.6873 139.199 101.78 148.685 106.779 160.264L106.666 160.197C107.953 160.235 109.205 160.624 110.286 161.323C111.412 161.942 112.498 162.662 113.691 163.208C114.923 163.734 116.238 164.039 117.576 164.109C118.932 164.272 120.317 164.391 121.725 164.514C127.354 164.976 133.315 165.347 139.524 165.691L147.237 165.443H147.332L147.372 165.528C148.544 168.324 149.06 171.351 148.88 174.377C148.745 177.497 148.107 180.575 146.989 183.491V183.564H146.91L142.007 184.47L136.637 185.461C134.863 185.782 133.068 185.97 131.266 186.024C127.697 186.182 124.185 186.198 120.728 186.182C117.272 186.165 113.883 186.08 110.562 185.956C107.24 185.833 103.998 185.669 100.829 185.427C99.2467 185.315 97.6873 185.163 96.1449 184.994C94.6281 184.847 93.1234 184.595 91.6415 184.239C90.9364 183.959 90.2748 183.58 89.6768 183.114C89.083 182.663 88.5189 182.174 87.988 181.65C86.9686 180.632 86.0117 179.553 85.1227 178.419C81.9411 174.258 79.0376 169.891 76.4311 165.347C71.5842 157.061 68.0828 150.12 65.6791 145.324C64.4857 142.92 63.5793 141.046 62.9714 139.768C62.3634 138.49 62.0651 137.815 62.0651 137.815C62.0651 137.815 62.1551 137.978 62.3128 138.304C62.4704 138.631 62.7181 139.115 63.0277 139.745L65.7804 145.273C68.2179 150.053 71.7418 156.977 76.6112 165.241C79.2088 169.762 82.101 174.108 85.2691 178.25C86.1527 179.374 87.1039 180.444 88.1175 181.453C88.6334 181.969 89.1825 182.45 89.7613 182.894C90.3395 183.348 90.9804 183.716 91.664 183.986C93.1373 184.332 94.6326 184.576 96.1393 184.718C97.6705 184.887 99.2298 185.033 100.812 185.146C103.97 185.382 107.218 185.551 110.533 185.669C113.849 185.788 117.244 185.866 120.666 185.883C124.089 185.9 127.63 185.883 131.187 185.72C132.976 185.664 134.758 185.476 136.518 185.157L141.883 184.166L146.792 183.26L146.679 183.35C147.784 180.468 148.417 177.427 148.554 174.343C148.719 171.359 148.201 168.377 147.04 165.623L147.175 165.708L139.462 165.95C133.27 165.595 127.292 165.224 121.657 164.751C120.25 164.627 118.842 164.503 117.503 164.34C116.816 164.261 116.14 164.177 115.47 164.047C114.803 163.923 114.155 163.709 113.545 163.411C112.329 162.848 111.237 162.122 110.122 161.508C109.08 160.835 107.873 160.459 106.632 160.422H106.554L106.52 160.349C101.56 148.747 97.5128 139.25 94.6982 132.652L91.4613 125.036L90.6226 123.043C90.4424 122.587 90.3355 122.356 90.3355 122.356Z"
    fill="#263238" />
  <path
    d="M88.1907 119.373C88.1907 119.373 87.9036 119.108 87.3857 118.63C86.6574 117.96 85.8655 117.362 85.0214 116.845C83.771 116.078 82.4176 115.492 81.0021 115.106C77.5153 114.129 73.7886 114.503 70.5653 116.153C69.2519 116.808 68.0403 117.65 66.9682 118.652C66.24 119.334 65.5818 120.086 65.0036 120.898C64.8054 121.204 64.5912 121.499 64.3618 121.782C64.3941 121.693 64.4376 121.608 64.4913 121.529C64.587 121.371 64.7052 121.124 64.9079 120.831C65.4617 119.996 66.1054 119.224 66.8275 118.528C69.2185 116.194 72.3322 114.741 75.6575 114.409C78.9828 114.076 82.3224 114.884 85.1283 116.699C85.9759 117.235 86.7597 117.866 87.4645 118.579C87.6621 118.768 87.85 118.968 88.0274 119.176C88.0896 119.235 88.1444 119.301 88.1907 119.373V119.373Z"
    fill="#263238" />
  <path
    d="M106.599 160.343C106.347 161.441 105.999 162.515 105.557 163.552C105.206 164.621 104.765 165.658 104.24 166.653C104.491 165.557 104.839 164.485 105.281 163.45C105.632 162.379 106.072 161.34 106.599 160.343V160.343Z"
    fill="#263238" />
  <path
    d="M144.079 167.622C144.079 167.622 144.157 167.582 144.292 167.622C144.475 167.701 144.621 167.846 144.703 168.027C144.78 168.16 144.821 168.312 144.821 168.466C144.821 168.62 144.78 168.772 144.703 168.905C144.601 169.065 144.455 169.193 144.282 169.273C144.11 169.352 143.918 169.381 143.73 169.356C143.541 169.316 143.368 169.219 143.236 169.078C143.105 168.937 143.019 168.759 142.992 168.567C142.964 168.417 142.976 168.262 143.025 168.117C143.074 167.972 143.16 167.842 143.274 167.74C143.35 167.672 143.439 167.621 143.536 167.59C143.633 167.559 143.735 167.549 143.837 167.56C143.972 167.56 144.039 167.605 144.034 167.622C144.028 167.639 143.707 167.622 143.426 167.886C143.352 167.972 143.3 168.073 143.272 168.183C143.245 168.292 143.243 168.407 143.268 168.517C143.291 168.651 143.352 168.775 143.444 168.875C143.536 168.975 143.654 169.046 143.786 169.08C143.921 169.095 144.058 169.073 144.183 169.018C144.308 168.962 144.415 168.875 144.495 168.764C144.555 168.67 144.591 168.562 144.6 168.45C144.608 168.338 144.59 168.226 144.546 168.123C144.377 167.717 144.067 167.661 144.079 167.622Z"
    fill="#263238" />
  <path
    d="M106.548 115.658C106.352 115.579 106.164 115.483 105.985 115.371L104.443 114.487L104.555 114.442C104.251 115.979 103.953 118.242 103.429 120.955L103.39 121.135L103.238 121.04C100.986 119.61 98.2504 117.977 95.3569 116.226C93.1953 114.932 91.1744 113.626 89.3167 112.5C87.459 111.374 85.7308 110.406 84.2953 109.601L80.8784 107.698L79.9495 107.18C79.841 107.12 79.7358 107.054 79.6343 106.983C79.7546 107.017 79.8701 107.066 79.9777 107.13L80.929 107.602C81.7565 108.019 82.9387 108.633 84.3967 109.421C85.8547 110.209 87.5716 111.154 89.4631 112.235L95.5202 115.951C98.4193 117.701 101.149 119.328 103.401 120.797L103.21 120.876C103.745 118.185 104.077 115.917 104.426 114.386V114.284L104.516 114.335L106.019 115.275C106.205 115.388 106.382 115.516 106.548 115.658V115.658Z"
    fill="#263238" />
  <g opacity="0.3">
    <path opacity="0.3" d="M83.0793 108.801L95.8129 118.292C98.6275 120.381 101.482 122.503 104.82 123.567L104.623 114.706L103.322 120.898L83.0793 108.801Z" fill="black" />
  </g>
  <path
    d="M214.18 64.4815C213.058 64.6328 211.92 64.3619 210.987 63.7213C210.054 63.0808 209.391 62.1163 209.129 61.015C208.867 59.9138 209.023 58.7543 209.567 57.7617C210.112 56.7691 211.005 56.0142 212.075 55.6435C211.367 54.9422 210.897 54.036 210.732 53.053C210.567 52.0701 210.716 51.0602 211.157 50.1662C211.597 49.2723 212.308 48.5396 213.188 48.0718C214.068 47.6041 215.073 47.4249 216.061 47.5598C216.082 46.5774 216.358 45.6174 216.861 44.7736C217.365 43.9298 218.078 43.2309 218.932 42.7454C219.787 42.2599 220.752 42.0042 221.735 42.0035C222.717 42.0027 223.683 42.2569 224.538 42.7411C225.628 41.8159 226.997 41.2827 228.425 41.2266C229.854 41.1705 231.26 41.5947 232.419 42.4315C233.373 42.2357 234.364 42.3515 235.247 42.7617C236.13 43.1719 236.858 43.8549 237.323 44.7099C237.788 45.5649 237.967 46.5469 237.832 47.5109C237.697 48.475 237.256 49.3703 236.574 50.0648"
    fill="#263238" />
  <path
    d="M213.544 65.1346C213.837 60.2769 215.948 55.7074 219.457 52.3352C222.966 48.963 227.616 47.0351 232.481 46.9351H233.483C244.308 47.346 250.005 56.7695 249.296 67.5721L249.938 106.133L223.638 115.556L223.407 101.669C223.407 101.669 212.981 100.267 212.644 89.8473C212.492 84.871 212.981 74.5018 213.544 65.1346Z"
    fill="#FFD9CD" />
  <path d="M223.322 101.657C228.141 101.558 232.829 100.079 236.833 97.396C236.833 97.396 233.782 104.939 223.396 104.213L223.322 101.657Z" fill="#DF8169" />
  <path
    d="M216.466 74.5301C216.47 74.9165 216.625 75.286 216.897 75.5603C217.169 75.8345 217.538 75.992 217.924 75.9993C218.113 76.0107 218.303 75.9839 218.482 75.9206C218.661 75.8572 218.826 75.7586 218.966 75.6305C219.106 75.5024 219.219 75.3474 219.298 75.1749C219.378 75.0023 219.421 74.8156 219.427 74.6258C219.423 74.2394 219.268 73.8699 218.996 73.5956C218.724 73.3213 218.355 73.1638 217.969 73.1565C217.78 73.1459 217.59 73.1732 217.411 73.2369C217.233 73.3005 217.069 73.3992 216.929 73.5272C216.789 73.6551 216.676 73.8097 216.596 73.982C216.517 74.1542 216.472 74.3405 216.466 74.5301V74.5301Z"
    fill="#263238" />
  <path
    d="M215.869 70.1727C216.055 70.3641 217.164 69.5084 218.757 69.4803C220.35 69.4521 221.543 70.2234 221.712 70.0432C221.791 69.9532 221.6 69.6098 221.082 69.2495C220.381 68.7838 219.553 68.546 218.712 68.5683C217.882 68.5844 217.078 68.8621 216.415 69.3621C215.948 69.7336 215.79 70.0883 215.869 70.1727Z"
    fill="#263238" />
  <path
    d="M231.012 74.53C231.016 74.9168 231.172 75.2866 231.445 75.5601C231.719 75.8336 232.089 75.9892 232.476 75.9936C232.665 76.005 232.854 75.9784 233.033 75.9154C233.211 75.8524 233.376 75.7543 233.516 75.6268C233.656 75.4993 233.769 75.345 233.848 75.1731C233.928 75.0011 233.972 74.815 233.979 74.6257C233.973 74.2388 233.817 73.8693 233.544 73.5952C233.271 73.321 232.902 73.1637 232.515 73.1565C232.326 73.1466 232.137 73.1745 231.958 73.2384C231.78 73.3024 231.616 73.4011 231.476 73.5289C231.336 73.6567 231.223 73.811 231.144 73.9829C231.064 74.1547 231.019 74.3407 231.012 74.53V74.53Z"
    fill="#263238" />
  <path
    d="M231.586 70.1502C231.772 70.3416 232.881 69.4859 234.474 69.4577C236.067 69.4296 237.289 70.2008 237.429 70.0207C237.514 69.9306 237.317 69.5872 236.799 69.227C236.103 68.764 235.282 68.5262 234.446 68.5458C233.616 68.5618 232.812 68.8396 232.149 69.3395C231.631 69.7111 231.491 70.0657 231.586 70.1502Z"
    fill="#263238" />
  <path
    d="M226.03 82.1068C226.03 82.0168 225.039 81.8648 223.429 81.6959C223.018 81.6621 222.63 81.5889 222.557 81.3131C222.515 80.8921 222.602 80.4684 222.804 80.0972C223.17 79.1008 223.547 78.0594 223.93 76.9673C225.518 72.5145 226.655 68.8554 226.475 68.7935C226.295 68.7316 224.865 72.2893 223.277 76.7421C222.902 77.8379 222.538 78.8869 222.185 79.8889C221.94 80.3865 221.878 80.9546 222.011 81.4932C222.075 81.6322 222.169 81.7549 222.287 81.8524C222.405 81.9498 222.543 82.0195 222.692 82.0562C222.918 82.1123 223.151 82.1388 223.384 82.135C225.022 82.2138 226.002 82.2025 226.03 82.1068Z"
    fill="#263238" />
  <path
    d="M230.989 64.7238C231.209 65.1235 232.566 64.6562 234.249 64.5718C235.932 64.4873 237.356 64.7294 237.503 64.3072C237.565 64.1045 237.261 63.7443 236.647 63.4347C235.856 63.0602 234.981 62.8954 234.108 62.9562C233.243 63.0025 232.405 63.2784 231.682 63.7555C231.13 64.1383 230.894 64.5324 230.989 64.7238Z"
    fill="#263238" />
  <path
    d="M215.576 64.5209C215.92 64.8812 217.226 64.4759 218.813 64.4252C220.401 64.3745 221.746 64.611 222.045 64.2225C222.18 64.0368 221.96 63.6596 221.363 63.35C220.544 62.9502 219.638 62.7624 218.727 62.8037C217.816 62.845 216.93 63.1141 216.151 63.5864C215.599 63.9749 215.425 64.352 215.576 64.5209Z"
    fill="#263238" />
  <path
    d="M214.451 60.3494C214.451 60.3494 217.057 53.7856 220.164 52.2038C223.925 50.2898 225.642 54.4217 229.244 53.3297C232.847 52.2376 236.433 50.408 240.188 53.1326C244.303 56.1105 242.44 58.3003 242.789 62.9051C244.185 81.5775 247.709 86.7903 248.497 77.9692C248.587 77.0009 251.249 76.179 251.559 72.0978C251.97 66.8006 252.037 60.3832 250.782 56.6566C249.724 53.5154 247.877 51.365 244.59 49.0232C239.411 45.3304 232.402 45.3923 227.657 45.9665C222.911 46.5407 213.848 52.2207 214.451 60.3494Z"
    fill="#263238" />
  <path
    d="M247.832 77.7048C247.836 77.3228 247.918 76.9457 248.072 76.5963C248.226 76.2469 248.45 75.9325 248.73 75.6723C249.009 75.4122 249.339 75.2117 249.699 75.083C250.058 74.9543 250.44 74.9002 250.822 74.9239C252.764 75.0702 254.942 76.1229 254.897 80.131C254.813 87.2408 247.692 85.6928 247.68 85.4901C247.669 85.2874 247.771 80.677 247.832 77.7048Z"
    fill="#FFD9CD" />
  <path
    d="M249.262 82.833C249.262 82.833 249.386 82.9175 249.594 83.0188C249.89 83.1384 250.221 83.1384 250.518 83.0188C251.272 82.7542 251.919 81.5664 251.964 80.2886C251.992 79.6786 251.88 79.0703 251.638 78.5097C251.575 78.2867 251.458 78.0825 251.298 77.9147C251.138 77.747 250.94 77.6208 250.72 77.5471C250.578 77.5084 250.426 77.5203 250.292 77.5809C250.157 77.6415 250.048 77.747 249.983 77.8792C249.887 78.0763 249.932 78.2226 249.893 78.2339C249.853 78.2452 249.741 78.11 249.803 77.8173C249.845 77.6425 249.947 77.4875 250.09 77.3782C250.186 77.3042 250.297 77.2506 250.415 77.2206C250.533 77.1906 250.656 77.1849 250.777 77.2037C251.068 77.2656 251.339 77.4017 251.563 77.599C251.787 77.7962 251.956 78.0478 252.054 78.3296C252.349 78.9492 252.488 79.6313 252.46 80.3167C252.398 81.7466 251.649 83.0807 250.619 83.3678C250.428 83.4192 250.228 83.4277 250.033 83.3927C249.839 83.3577 249.654 83.28 249.493 83.1652C249.273 83.0019 249.234 82.8443 249.262 82.833Z"
    fill="#DF8169" />
  <path
    d="M247.393 63.9471C246.537 64.6711 245.514 65.1686 244.415 65.3939C243.29 65.529 242.023 64.9154 241.809 63.8177C241.719 63.3223 241.809 62.7481 241.494 62.3709C241.179 61.9938 240.368 62.0838 239.805 62.157C238.768 62.2605 237.727 62.0035 236.858 61.4293C235.988 60.8551 235.343 59.9988 235.031 59.0046C234.525 59.804 233.292 59.7927 232.487 59.2973C231.682 58.8019 231.147 57.9688 230.511 57.2651C229.875 56.5615 228.98 55.9422 228.045 56.0942C227.522 56.1787 227.038 56.5052 226.509 56.4658C225.574 56.4039 225.096 55.3399 224.938 54.3998C224.78 53.4597 224.645 52.3958 223.846 51.9117C223.047 51.4275 222.157 51.7484 221.301 51.9117C220.446 52.0749 219.331 51.8779 219.095 51.0447C219.054 50.8204 219.058 50.5899 219.109 50.3674C219.159 50.1449 219.254 49.9349 219.387 49.75C219.946 48.8782 220.782 48.2207 221.761 47.8845C222.74 47.5482 223.804 47.553 224.78 47.898C225.106 46.7082 225.777 45.6416 226.708 44.8331C227.64 44.0245 228.79 43.5103 230.014 43.3555C231.237 43.2007 232.48 43.4121 233.583 43.9631C234.687 44.5142 235.602 45.38 236.214 46.4512C236.955 45.7529 237.854 45.2435 238.834 44.9663C239.814 44.6891 240.847 44.6522 241.845 44.8588C242.842 45.0653 243.775 45.5093 244.565 46.153C245.354 46.7966 245.977 47.6211 246.38 48.5566C247.245 48.3103 248.164 48.3238 249.021 48.5954C249.879 48.867 250.638 49.3847 251.203 50.0841C251.769 50.7836 252.117 51.6339 252.203 52.5294C252.289 53.4248 252.11 54.3258 251.688 55.1204C252.978 55.824 254.098 57.0737 254.154 58.543C254.21 60.0122 252.809 61.504 251.379 61.1494C251.688 61.723 251.764 62.3934 251.593 63.0219C251.421 63.6504 251.014 64.1888 250.457 64.5259C249.899 64.8629 249.233 64.9726 248.597 64.8324C247.961 64.6922 247.403 64.3128 247.039 63.7726"
    fill="#263238" />
  <path
    d="M224.313 49.9692C224.304 50.012 224.304 50.056 224.313 50.0987C224.313 50.1832 224.313 50.3126 224.364 50.4759C224.475 50.9563 224.665 51.4148 224.927 51.8325C225.33 52.4981 225.881 53.0623 226.537 53.4819C227.401 54.0528 228.43 54.3238 229.464 54.2531L229.34 54.0955C229.138 54.7466 229.203 55.4512 229.52 56.0545C229.851 56.6877 230.274 57.2682 230.775 57.7771C231.016 58.0724 231.287 58.3405 231.586 58.5764C231.923 58.799 232.31 58.9344 232.712 58.9705C233.129 59.0208 233.552 58.9687 233.944 58.8186C234.337 58.6685 234.687 58.425 234.964 58.1092L234.699 58.036C234.813 58.7726 235.079 59.4772 235.481 60.1045C235.884 60.7318 236.413 61.2679 237.035 61.6782C237.72 62.1643 238.543 62.4151 239.383 62.3931C240.171 62.3375 240.944 62.1471 241.668 61.8302L241.477 61.7514C241.863 62.6034 242.458 63.3447 243.205 63.9074C243.547 64.195 243.949 64.402 244.382 64.5131C244.814 64.6242 245.266 64.6365 245.704 64.5491C246.448 64.3737 247.123 63.9842 247.647 63.429C248.172 62.8737 248.522 62.177 248.654 61.4249L248.497 61.5037C249.252 61.8879 250.118 61.9973 250.945 61.8133C251.564 61.6878 252.143 61.4155 252.634 61.0196C252.942 60.7718 253.205 60.4728 253.411 60.1358C253.483 60.0191 253.542 59.8944 253.585 59.7642C253.317 60.2095 252.97 60.6024 252.561 60.9239C252.078 61.2907 251.514 61.5377 250.917 61.6444C250.131 61.8015 249.314 61.6843 248.603 61.3123L248.468 61.2391V61.3911C248.331 62.0945 247.991 62.7427 247.491 63.2565C246.992 63.7702 246.353 64.1275 245.654 64.2846C245.258 64.3597 244.851 64.3456 244.461 64.2434C244.072 64.1411 243.71 63.9533 243.402 63.6935C242.698 63.1571 242.141 62.4525 241.781 61.6444L241.724 61.515L241.589 61.5656C240.895 61.8637 240.154 62.0407 239.4 62.0891C238.624 62.1099 237.863 61.8767 237.232 61.4249C236.647 61.0375 236.149 60.5327 235.769 59.9425C235.389 59.3524 235.136 58.6897 235.026 57.9966L234.975 57.6589L234.755 57.9235C234.508 58.2034 234.196 58.4192 233.847 58.5526C233.498 58.6859 233.122 58.7327 232.751 58.689C232.394 58.6581 232.05 58.5402 231.749 58.3457C231.468 58.1238 231.212 57.8729 230.984 57.597C230.498 57.11 230.086 56.5542 229.762 55.9476C229.614 55.6807 229.52 55.3867 229.488 55.0831C229.455 54.7795 229.483 54.4724 229.571 54.18L229.627 54.0055H229.447C228.459 54.0845 227.471 53.8416 226.632 53.313C225.991 52.9176 225.445 52.3851 225.034 51.7537C224.691 51.2057 224.447 50.6017 224.313 49.9692V49.9692Z"
    fill="#455A64" />
  <path
    d="M231.535 82.6585C231.282 82.6866 231.575 84.3472 230.353 85.8052C229.132 87.2632 227.313 87.3814 227.342 87.6179C227.342 87.7248 227.798 87.8712 228.552 87.7586C229.537 87.5978 230.433 87.0956 231.085 86.34C231.701 85.6199 232.017 84.6911 231.969 83.7449C231.907 83.0131 231.631 82.6191 231.535 82.6585Z"
    fill="#263238" />
  <path d="M173.486 163.501C174.387 163.141 204.138 159.561 204.138 159.561L216.207 149.338L215.081 178.926L177.094 182.585L173.486 163.501Z" fill="#7ED2FF" />
  <path opacity="0.3" d="M210.87 153.864C210.51 154.044 207.526 156.679 207.526 156.679L208.438 179.46L210.87 153.864Z" fill="black" />
  <path
    d="M261.557 207.438H211.309C211.309 207.438 213.966 221.618 214.951 228.148C215.504 231.924 216.315 235.657 217.378 239.322H262.891C262.891 239.322 266.268 231.087 266.882 225.812C267.495 220.537 261.557 207.438 261.557 207.438Z"
    fill="#263238" />
  <path d="M207.566 209.149C207.566 209.149 206.159 225.311 207.566 239.322H224.972V226.414L207.566 209.149Z" fill="#263238" />
  <path d="M217.237 129.906L222.653 118.084L223.322 110.766C223.322 110.766 233.709 104.236 238.634 101.759C242.398 99.9688 246.262 98.3994 250.208 97.0586V103.971L217.237 129.906Z" fill="#EBEBEB" />
  <path
    d="M262.497 190.494C262.497 190.494 265.441 150.965 265.638 148.026C265.638 148.026 267.377 126.905 263.628 118.866C259.879 110.828 251.486 103.752 251.486 103.752L250.709 99.5298L234.322 109.865L226.745 116.451C224.142 119.233 221.752 122.206 219.596 125.346C217.445 128.324 215.053 132.152 213.966 136.965C213.578 138.727 209.069 159.769 208.934 174.433C208.934 174.433 208.241 187.234 207.498 194.479C206.586 203.452 205.19 223.904 205.494 236.018L258.652 234.397C271.779 232.393 269.471 231.087 269.471 231.087L262.497 190.494Z"
    fill="#7ED2FF" />
  <path
    d="M250.208 103.971L249.842 104.14L248.755 104.59C248.294 104.816 247.731 105.108 247.067 105.452C246.402 105.795 245.676 106.251 244.894 106.808C240.546 109.874 236.622 113.501 233.224 117.594L233.196 117.634H233.151L228.051 118.574L228.163 118.444C228.085 120.814 228 123.297 227.91 125.869V125.926L227.865 125.971C225.155 128.508 222.649 131.256 220.372 134.189C219.425 135.419 218.568 136.715 217.806 138.068L217.524 138.569L217.316 139.092C217.166 139.438 217.037 139.791 216.927 140.151C216.702 140.871 216.477 141.586 216.291 142.307C215.509 145.178 214.856 147.981 214.248 150.649C213.043 155.992 212.035 160.822 211.197 164.875C209.508 172.992 208.59 178.03 208.59 178.03C208.614 177.721 208.653 177.413 208.709 177.107C208.799 176.505 208.951 175.615 209.153 174.473C209.57 172.193 210.189 168.9 210.994 164.835C211.799 160.771 212.79 155.941 213.989 150.593C214.586 147.919 215.233 145.116 216.015 142.234C216.201 141.507 216.426 140.787 216.657 140.061C216.766 139.693 216.895 139.332 217.046 138.98L217.265 138.417L217.547 137.905C218.313 136.529 219.18 135.212 220.142 133.964C222.438 131.035 224.962 128.293 227.691 125.762L227.646 125.864C227.736 123.291 227.826 120.797 227.91 118.439V118.332H228.017L233.117 117.408L233.044 117.453C236.466 113.353 240.429 109.738 244.826 106.707C245.614 106.144 246.386 105.756 247.027 105.373C247.669 104.99 248.266 104.754 248.716 104.54L249.814 104.118L250.208 103.971Z"
    fill="#263238" />
  <path
    d="M232.363 135.208L233.005 187.949L224.972 239.322H246.144C246.144 239.322 255.77 200.317 258.01 192.12C260.183 184.16 263.448 144.097 263.735 142.132C263.848 141.361 266.145 127.496 259.384 120.994"
    fill="#7ED2FF" />
  <path
    d="M259.384 120.994C259.384 120.994 259.541 121.14 259.828 121.433C260.249 121.879 260.637 122.355 260.988 122.857C262.291 124.822 263.189 127.026 263.628 129.342C264.337 133.009 264.473 136.763 264.034 140.471C263.713 142.627 263.555 144.941 263.324 147.401C263.093 149.861 262.863 152.467 262.615 155.186C262.108 160.647 261.54 166.631 260.853 173.048C260.498 176.251 260.132 179.573 259.676 182.984C259.284 186.505 258.661 189.997 257.813 193.437C254.272 207.511 250.382 223.036 246.29 239.339V239.451H224.803V239.288C227.775 220.34 230.522 202.85 232.864 187.921C232.695 171.95 232.554 158.767 232.453 149.568C232.414 144.975 232.38 141.383 232.357 138.923C232.357 137.707 232.357 136.773 232.357 136.109C232.357 135.444 232.357 135.157 232.357 135.157C232.357 135.157 232.357 135.478 232.391 136.109C232.425 136.739 232.419 137.685 232.442 138.923C232.476 141.378 232.532 144.975 232.605 149.568C232.723 158.767 232.903 171.95 233.117 187.921C230.787 202.855 228.051 220.346 225.107 239.299L224.966 239.131H246.138L245.997 239.238L257.549 193.342C258.397 189.913 259.021 186.432 259.417 182.922C259.873 179.516 260.245 176.195 260.605 172.992C261.303 166.58 261.883 160.607 262.407 155.141C262.662 152.409 262.904 149.814 263.133 147.356C263.375 144.907 263.544 142.565 263.865 140.421C264.314 136.73 264.196 132.992 263.516 129.337C263.09 127.024 262.212 124.818 260.932 122.846C260.592 122.341 260.215 121.861 259.806 121.41C259.524 121.157 259.384 120.994 259.384 120.994Z"
    fill="#263238" />
  <path
    d="M243.565 193.139C243.005 193.037 242.456 192.878 241.927 192.667C240.931 192.329 239.574 191.811 238.105 191.158C236.636 190.505 235.341 189.846 234.423 189.334C233.91 189.085 233.424 188.786 232.971 188.439C233.504 188.638 234.022 188.877 234.519 189.154C235.459 189.615 236.771 190.24 238.223 190.893C239.676 191.546 241.038 192.087 242 192.475C242.537 192.659 243.06 192.881 243.565 193.139V193.139Z"
    fill="#263238" />
  <path
    d="M207.313 196.635C207.306 196.59 207.306 196.545 207.313 196.5C207.313 196.387 207.313 196.258 207.313 196.095C207.313 195.718 207.358 195.2 207.397 194.541C207.482 193.173 207.605 191.231 207.757 188.839C208.084 184.025 208.545 177.377 209.198 170.048C209.851 162.719 210.595 156.082 211.208 151.297C211.512 148.904 211.771 146.968 211.968 145.634C212.064 144.986 212.143 144.474 212.199 144.097C212.227 143.939 212.25 143.81 212.266 143.703C212.271 143.656 212.282 143.611 212.3 143.568C212.3 143.568 212.3 143.613 212.3 143.703C212.3 143.793 212.3 143.945 212.261 144.108C212.221 144.485 212.16 144.997 212.086 145.65C211.923 147.013 211.698 148.949 211.416 151.325C210.854 156.115 210.144 162.741 209.491 170.07C208.838 177.4 208.365 184.048 207.971 188.855C207.78 191.242 207.622 193.179 207.515 194.552C207.459 195.205 207.408 195.723 207.375 196.1C207.375 196.264 207.346 196.393 207.335 196.5C207.336 196.546 207.328 196.592 207.313 196.635V196.635Z"
    fill="#263238" />
  <path
    d="M250.208 114.341C249.667 112.886 249 111.481 248.215 110.141C247.344 108.855 246.367 107.644 245.294 106.521C245.693 106.756 246.055 107.048 246.369 107.388C247.166 108.168 247.869 109.039 248.463 109.984C249.058 110.927 249.538 111.938 249.893 112.995C250.063 113.426 250.169 113.879 250.208 114.341Z"
    fill="#263238" />
  <path
    d="M212.835 179.871C212.891 179.99 212.908 180.124 212.886 180.254C212.849 180.617 212.686 180.956 212.424 181.211C212.229 181.407 211.982 181.544 211.712 181.606C211.442 181.668 211.16 181.652 210.899 181.56C210.587 181.453 210.313 181.257 210.11 180.997C209.896 180.712 209.785 180.362 209.795 180.006C209.795 179.564 209.937 179.134 210.2 178.779C210.33 178.61 210.501 178.476 210.696 178.39C210.899 178.317 211.045 178.278 211.214 178.227H211.253C211.615 178.216 211.971 178.318 212.272 178.52C212.498 178.686 212.664 178.921 212.745 179.19C212.832 179.408 212.863 179.644 212.835 179.877C212.796 179.877 212.767 179.629 212.604 179.246C212.514 179.017 212.357 178.821 212.154 178.683C211.881 178.525 211.568 178.45 211.253 178.469H211.293C211.141 178.526 210.944 178.582 210.803 178.638C210.654 178.712 210.525 178.82 210.426 178.953C210.208 179.262 210.09 179.629 210.088 180.006C210.083 180.289 210.167 180.567 210.329 180.799C210.49 181.032 210.721 181.207 210.989 181.301C211.206 181.384 211.442 181.406 211.67 181.363C211.899 181.32 212.111 181.215 212.283 181.059C212.53 180.844 212.701 180.556 212.773 180.237C212.824 180.006 212.807 179.877 212.835 179.871Z"
    fill="#263238" />
  <path
    d="M212.047 198.521C212.103 198.641 212.12 198.774 212.097 198.904C212.063 199.268 211.899 199.608 211.636 199.861C211.441 200.058 211.194 200.196 210.924 200.258C210.654 200.319 210.371 200.303 210.11 200.21C209.8 200.101 209.526 199.906 209.322 199.647C209.108 199.362 208.997 199.013 209.007 198.656C209.008 198.215 209.15 197.785 209.412 197.429C209.542 197.26 209.713 197.127 209.908 197.041C210.11 196.968 210.257 196.928 210.426 196.878H210.465C210.827 196.866 211.183 196.968 211.484 197.17C211.71 197.337 211.875 197.572 211.957 197.84C212.044 198.058 212.075 198.294 212.047 198.527C212.013 198.527 211.979 198.279 211.816 197.896C211.728 197.666 211.571 197.469 211.366 197.334C211.093 197.175 210.78 197.101 210.465 197.12H210.504C210.352 197.176 210.155 197.232 210.02 197.289C209.869 197.36 209.737 197.469 209.637 197.604C209.42 197.912 209.302 198.279 209.3 198.656C209.294 198.94 209.379 199.217 209.54 199.45C209.702 199.682 209.933 199.858 210.2 199.951C210.417 200.035 210.653 200.056 210.882 200.014C211.111 199.971 211.323 199.865 211.495 199.709C211.741 199.494 211.913 199.206 211.985 198.887C212.036 198.662 212.019 198.527 212.047 198.521Z"
    fill="#263238" />
  <path
    d="M257.003 117.876C256.974 117.926 256.276 117.476 255.038 117.003C254.307 116.727 253.554 116.514 252.786 116.367C251.858 116.194 250.915 116.111 249.972 116.119C249.025 116.139 248.083 116.248 247.157 116.446C246.403 116.616 245.665 116.849 244.95 117.144C243.729 117.65 243.042 118.118 243.008 118.067C243.148 117.931 243.305 117.814 243.475 117.718C243.654 117.586 243.842 117.468 244.038 117.363C244.299 117.213 244.568 117.076 244.843 116.952C245.568 116.624 246.322 116.366 247.095 116.181C248.981 115.727 250.945 115.7 252.842 116.102C253.613 116.269 254.367 116.507 255.094 116.812C255.373 116.926 255.646 117.055 255.91 117.2C256.118 117.296 256.318 117.409 256.507 117.538C256.687 117.628 256.853 117.741 257.003 117.876V117.876Z"
    fill="#263238" />
  <g opacity="0.3">
    <path opacity="0.3"
      d="M210.623 167.211C212.914 163.873 213.758 160.726 214.985 156.864C216.804 151.128 217.31 144.649 220.17 139.351C221.859 136.233 223.829 133.035 226.756 131.031C229.683 129.027 230.032 126.601 229.976 119.896C232.02 119.896 234.176 118.343 234.429 118.067C235.623 116.724 236.481 115.117 236.934 113.378C235.504 114.937 233.117 117.515 233.117 117.515C233.117 117.515 227.944 118.478 228.017 118.444C227.893 121.022 227.888 123.291 227.758 125.869C227.758 125.869 217.834 136.402 217.062 138.518C216.291 140.635 210.623 167.211 210.623 167.211Z"
      fill="black" />
  </g>
  <g opacity="0.3">
    <path opacity="0.3" d="M247.472 232.956C260.054 209.149 263.96 177.845 263.234 148.026C263.234 148.026 259.626 184.273 258.404 190.494C257.183 196.714 247.472 232.956 247.472 232.956Z"
      fill="black" />
  </g>
  <path
    d="M249.392 100.138C249.308 100.223 249.213 100.297 249.11 100.357L248.271 100.92L245.142 102.969L234.834 109.64L230.382 112.455L228.963 113.58C228.513 113.911 228.088 114.274 227.691 114.667C226.908 115.421 226.216 116.153 225.591 116.817L225.478 116.936L225.416 116.789L223.795 113.018C223.621 112.595 223.48 112.252 223.367 111.987C223.31 111.871 223.266 111.748 223.238 111.621C223.313 111.728 223.376 111.843 223.424 111.965C223.548 112.218 223.705 112.528 223.902 112.967L225.591 116.682L225.416 116.654C226.03 115.979 226.717 115.236 227.499 114.47C227.898 114.063 228.327 113.687 228.783 113.344L230.196 112.218L234.643 109.364L245.018 102.783L248.181 100.813L249.048 100.295C249.157 100.231 249.272 100.178 249.392 100.138V100.138Z"
    fill="#263238" />
  <path
    d="M18.149 18.6783C18.0815 18.7177 15.689 14.5633 12.8012 9.40685C9.91337 4.2504 7.6335 0.0396836 7.70105 0.000278392C7.7686 -0.0391268 10.1611 4.10968 13.0489 9.27175C15.9367 14.4338 18.2166 18.6389 18.149 18.6783Z"
    fill="#263238" />
  <path
    d="M26.2326 0.777107C26.3114 0.777107 26.1988 3.95767 25.9793 7.87567C25.7598 11.7937 25.5233 14.963 25.4501 14.9573C25.377 14.9517 25.4839 11.7768 25.7035 7.85878C25.923 3.94078 26.1538 0.771478 26.2326 0.777107Z"
    fill="#263238" />
  <path
    d="M12.3678 23.0802C12.3396 23.1534 9.64319 22.309 6.33879 21.1888C3.03438 20.0685 0.377348 19.1115 0.405495 19.0384C0.433642 18.9652 3.12445 19.8096 6.42886 20.9242C9.73326 22.0388 12.3903 23.007 12.3678 23.0802Z"
    fill="#263238" />
  <path
    d="M52.82 31.0626C51.2067 27.3805 48.6343 24.1992 45.3714 21.851C42.1086 19.5027 38.2751 18.0737 34.2714 17.7131C30.2676 17.3525 26.2404 18.0735 22.6106 19.801C18.9807 21.5285 15.8812 24.1989 13.6359 27.5334C11.3906 30.8679 10.0819 34.7441 9.84642 38.7572C9.61093 42.7703 10.4573 46.773 12.2972 50.3472C14.1371 53.9214 16.903 56.936 20.3059 59.0761C23.7089 61.2163 27.6241 62.4034 31.6425 62.5135L33.8943 67.7037L51.908 59.8227C51.908 59.8227 50.7428 56.8673 49.6563 54.2497C52.2648 51.0494 53.9403 47.1917 54.4984 43.101C55.0566 39.0102 54.4758 34.8447 52.82 31.0626V31.0626Z"
    fill="#7ED2FF" />
  <path
    d="M49.2397 60.9881C49.2397 60.9881 49.1834 60.9037 49.0934 60.7461C49.0033 60.5885 48.8569 60.3464 48.6824 60.0368C48.3222 59.4063 47.7986 58.4775 47.14 57.2728C45.8396 54.8578 43.9988 51.3282 41.9892 46.8529C41.4825 45.7271 40.9646 44.5562 40.4467 43.3177C40.1878 42.6985 39.9289 42.068 39.6586 41.4263C39.3536 40.7779 39.1486 40.087 39.0507 39.3772C39.0138 38.9943 39.0698 38.6081 39.2139 38.2514C39.2816 38.0692 39.3852 37.9026 39.5187 37.7614C39.6522 37.6202 39.8127 37.5073 39.9908 37.4295C40.1768 37.3697 40.3735 37.3504 40.5677 37.3727C40.7618 37.395 40.949 37.4585 41.1166 37.5589C41.4603 37.7569 41.7412 38.0475 41.9273 38.3977C42.1002 38.7611 42.1866 39.1596 42.1798 39.562C42.173 39.9644 42.073 40.3597 41.8879 40.717C41.5315 41.4569 40.9529 42.0671 40.2328 42.4621C39.4982 42.8738 38.6571 43.0562 37.8179 42.9856C36.9597 42.908 36.1424 42.5835 35.4648 42.0511C34.7682 41.523 34.2132 40.8306 33.8492 40.0358C33.6521 39.6367 33.5264 39.2061 33.4777 38.7636C33.4076 38.3052 33.512 37.8371 33.7704 37.452C33.9135 37.2639 34.1095 37.1228 34.3333 37.0467C34.5566 36.9738 34.7942 36.9565 35.0257 36.996C35.4889 37.0707 35.9144 37.2963 36.236 37.6378C36.556 37.9707 36.8236 38.3503 37.0298 38.7636C37.24 39.1677 37.428 39.583 37.5927 40.0077C37.9528 40.8636 38.1825 41.7688 38.2738 42.6929C38.3785 43.6379 38.2167 44.5934 37.8066 45.4512C37.5951 45.8728 37.3112 46.2539 36.9678 46.5771C36.62 46.9048 36.2023 47.1492 35.7463 47.292C35.2884 47.4241 34.8051 47.4415 34.3389 47.3427C33.8796 47.2373 33.4442 47.0463 33.0555 46.7798C32.2968 46.2654 31.6274 45.6302 31.0739 44.8996C30.7925 44.5505 30.511 44.1846 30.2746 43.8187C30.0088 43.4639 29.7734 43.0873 29.5709 42.6929C29.3639 42.2828 29.2873 41.8192 29.3514 41.3644C29.3902 41.1358 29.4828 40.9197 29.6216 40.7339C29.7612 40.5515 29.9604 40.424 30.1845 40.3736C30.4136 40.3331 30.6496 40.3646 30.86 40.4637C31.0653 40.5513 31.2553 40.671 31.423 40.8183C31.7514 41.1012 32.036 41.4313 32.2674 41.7978C33.2847 43.1799 33.7991 44.8682 33.7254 46.5827C33.6505 47.3899 33.3715 48.1648 32.9147 48.8345C32.47 49.5028 31.8169 50.0054 31.0571 50.2643C30.309 50.4848 29.5054 50.4165 28.8053 50.0729C28.1186 49.7635 27.5486 49.2428 27.1785 48.5868C26.9973 48.2684 26.877 47.919 26.8238 47.5566C26.7649 47.1905 26.8324 46.8153 27.0152 46.4927C27.1149 46.3325 27.2667 46.2115 27.445 46.15C27.6234 46.0885 27.8175 46.0902 27.9947 46.1549C28.3231 46.2826 28.6109 46.4966 28.8279 46.7741C29.2242 47.2966 29.5585 47.8633 29.8242 48.4629L30.6686 50.1517C32.8584 54.5482 34.5641 58.1341 35.7012 60.6335C36.2642 61.8832 36.692 62.8852 36.9735 63.527C37.1086 63.8591 37.2155 64.0899 37.2887 64.2869L37.39 64.5459L37.2718 64.2925C37.1986 64.118 37.0861 63.8703 36.9453 63.5382C36.6526 62.8796 36.2191 61.9057 35.6393 60.6616C34.5135 58.1678 32.7684 54.5932 30.5729 50.208C30.2971 49.6451 30.01 49.0821 29.7229 48.5192C29.4645 47.9183 29.1337 47.3511 28.7378 46.8304C28.5341 46.5764 28.2657 46.382 27.9609 46.2675C27.8101 46.2133 27.6454 46.2123 27.4939 46.2645C27.3424 46.3167 27.2132 46.419 27.1278 46.5546C26.9578 46.8694 26.9021 47.2335 26.9702 47.5847C27.0241 47.9312 27.1405 48.265 27.3136 48.5699C27.6707 49.2009 28.2213 49.7002 28.8841 49.9941C29.5547 50.3229 30.3244 50.3872 31.0402 50.1742C31.771 49.927 32.3975 49.4413 32.819 48.795C33.2638 48.1399 33.535 47.3826 33.6071 46.594C33.6777 44.9355 33.1879 43.3016 32.2167 41.9554C31.9927 41.6001 31.7176 41.2795 31.4004 41.0041C31.2539 40.8579 31.0773 40.7454 30.8828 40.6744C30.6884 40.6035 30.4808 40.5757 30.2746 40.5931C30.0777 40.6438 29.9015 40.7545 29.7704 40.9099C29.6393 41.0652 29.5597 41.2575 29.5428 41.4601C29.4828 41.8827 29.5556 42.3134 29.7511 42.6929C29.9464 43.0876 30.1762 43.4644 30.4378 43.8187C30.6912 44.1846 30.9557 44.5449 31.2372 44.8883C31.7789 45.5906 32.4288 46.2025 33.1624 46.7009C33.5393 46.9454 33.9568 47.1208 34.3952 47.2188C34.8353 47.3101 35.2909 47.2947 35.7238 47.1738C36.1548 47.0244 36.551 46.7893 36.8887 46.4826C37.2264 46.1759 37.4984 45.804 37.6884 45.3893C38.0844 44.5573 38.2385 43.6308 38.1331 42.7154C38.0462 41.8087 37.8222 40.9204 37.4688 40.0809C37.1711 39.2355 36.7187 38.4528 36.1347 37.7729C35.8356 37.4551 35.4397 37.2453 35.0088 37.1762C34.8031 37.1298 34.5885 37.1422 34.3894 37.2118C34.1904 37.2815 34.0149 37.4057 33.883 37.5702C33.6475 37.9225 33.553 38.3505 33.6184 38.7692C33.6682 39.1933 33.788 39.6061 33.973 39.9908C34.3389 40.7688 34.8921 41.4438 35.583 41.9554C36.2318 42.4661 37.0131 42.7806 37.8347 42.8618C38.6442 42.9307 39.4557 42.7563 40.1653 42.3607C40.8616 41.9787 41.4207 41.3881 41.764 40.672C41.9389 40.3348 42.0339 39.962 42.0417 39.5823C42.0495 39.2026 41.9699 38.8262 41.809 38.4822C41.6334 38.1557 41.3702 37.8848 41.0491 37.6997C40.8982 37.6044 40.7279 37.5439 40.5507 37.5225C40.3736 37.5011 40.1938 37.5193 40.0246 37.5758C39.7009 37.7207 39.4479 37.9879 39.3209 38.3189C39.1897 38.6494 39.1376 39.0061 39.1689 39.3603C39.2643 40.0567 39.4655 40.7344 39.7656 41.37L40.5424 43.2671C41.0603 44.498 41.5707 45.6745 42.0736 46.7966C44.072 51.3001 45.8959 54.8128 47.1794 57.239C47.8268 58.4493 48.339 59.3782 48.6937 60.0143L49.0877 60.7348C49.1947 60.8981 49.2397 60.9881 49.2397 60.9881Z"
    fill="white" />
  <path
    d="M33.4213 60.9374C33.3304 60.955 33.2381 60.9644 33.1455 60.9655C32.9653 60.9655 32.6951 60.9993 32.3517 60.9993C31.3786 61.0136 30.4058 60.9552 29.4414 60.8248C28.0083 60.64 26.5987 60.3041 25.2363 59.8228C20.4801 58.1601 16.4828 54.8383 13.9777 50.4668C13.4925 49.6243 13.0692 48.7475 12.7111 47.8436C12.5816 47.5227 12.5028 47.2807 12.4409 47.1005C12.4085 47.0142 12.3822 46.9258 12.3621 46.8359C12.4052 46.9178 12.4428 47.0024 12.4746 47.0893C12.5422 47.2525 12.6323 47.5058 12.773 47.8211C13.1514 48.7118 13.5877 49.5768 14.079 50.4106C14.8072 51.6484 15.6578 52.8101 16.6178 53.8782C18.609 56.0779 21.0349 57.8405 23.7422 59.0546C26.4494 60.2687 29.3792 60.9079 32.3461 60.9317C32.6895 60.9317 32.9597 60.9317 33.1398 60.9317L33.4213 60.9374Z"
    fill="#263238" />
  <path
    d="M11.5234 42.5181C11.6671 42.8788 11.76 43.2577 11.7993 43.6439C11.8911 44.0233 11.9309 44.4134 11.9175 44.8036C11.7738 44.4429 11.681 44.064 11.6417 43.6777C11.5467 43.2989 11.5068 42.9083 11.5234 42.5181V42.5181Z"
    fill="#263238" />
  <path
    d="M52.6343 36.8383C52.6094 36.7625 52.5887 36.6855 52.5723 36.6075C52.5386 36.4386 52.4879 36.219 52.426 35.9432C52.3978 35.7968 52.3641 35.6336 52.3247 35.4591C52.2852 35.2846 52.2233 35.0988 52.167 34.8962C52.0492 34.4273 51.9063 33.965 51.7392 33.5113L51.4577 32.7289C51.3564 32.4587 51.2213 32.1659 51.0975 31.9014C50.861 31.3384 50.5345 30.7474 50.208 30.1281C48.7072 27.4797 46.6642 25.1778 44.2128 23.373C43.6499 22.9789 43.087 22.5792 42.5578 22.2809C42.2932 22.1233 42.0399 21.9544 41.7866 21.8249L41.0435 21.4477C40.5763 21.1944 40.1259 21.0312 39.7431 20.8848C39.5461 20.806 39.366 20.7215 39.1802 20.6596L38.713 20.502L38.0656 20.2768C37.9887 20.2568 37.9149 20.2265 37.8461 20.1868C37.9245 20.2012 38.0017 20.2219 38.0769 20.2487L38.7299 20.4401L39.2027 20.5864C39.3772 20.6484 39.5574 20.7215 39.7657 20.8004C40.1541 20.9636 40.6101 21.1212 41.0829 21.3633L41.8316 21.7292C42.0906 21.8587 42.3439 22.0275 42.6197 22.1795C43.2014 22.5137 43.7651 22.8783 44.3085 23.2716C46.7895 25.0738 48.8487 27.3942 50.3431 30.0718C50.6683 30.6549 50.9633 31.2543 51.2269 31.8676C51.3452 32.1547 51.4803 32.4305 51.5816 32.7007L51.8574 33.4888C52.0165 33.9393 52.1518 34.3977 52.2627 34.8624C52.3134 35.0707 52.3697 35.2564 52.4091 35.4253C52.4485 35.5942 52.471 35.7631 52.4935 35.9094C52.5423 36.1909 52.5817 36.4161 52.6118 36.585C52.6267 36.6686 52.6342 36.7533 52.6343 36.8383V36.8383Z"
    fill="#263238" />
  <g opacity="0.2">
    <path opacity="0.2"
      d="M24.983 25.6304C24.2456 24.9211 23.0184 24.7128 21.7349 24.8704C19.9002 25.1205 18.2378 26.0832 17.1076 27.55C13.73 31.8058 12.4522 35.7069 13.0939 41.3643C13.3078 43.2783 14.2704 46.183 15.8241 47.4721C16.2074 47.8044 16.6554 48.0536 17.1399 48.2038C17.6244 48.354 18.1348 48.402 18.6388 48.3447C21.2564 48.0013 22.1121 44.9333 21.8869 42.462C21.673 40.1597 20.9243 37.7897 21.6617 35.5999C22.2753 33.7929 23.7896 32.47 24.8423 30.8826C25.895 29.2951 26.3566 26.9758 24.983 25.6304Z"
      fill="white" />
  </g>
  <g opacity="0.2">
    <path opacity="0.2"
      d="M32.8754 21.2397C31.5412 20.2546 29.4021 20.5417 28.507 21.5324C28.1483 21.9534 27.8896 22.4502 27.7502 22.9854C27.6108 23.5206 27.5943 24.0805 27.702 24.6229C27.8556 25.272 28.1979 25.8611 28.6858 26.3159C29.1736 26.7708 29.7853 27.0709 30.4435 27.1786C31.106 27.2561 31.776 27.1226 32.3581 26.7972C32.9403 26.4717 33.405 25.9709 33.686 25.366C34.2151 24.1444 33.9449 22.0278 32.8754 21.2397Z"
      fill="white" />
  </g>
  <path
    d="M43.5204 75.9563C44.0866 76.0527 44.6362 76.2289 45.1529 76.4798C45.3302 76.5749 45.527 76.6279 45.7281 76.6347C45.9292 76.6416 46.1292 76.6021 46.3125 76.5192L49.9378 74.9262C50.1377 74.8392 50.3132 74.7043 50.4486 74.5335C50.5841 74.3627 50.6755 74.1611 50.7146 73.9466C50.8012 73.3635 51.0901 72.8295 51.5309 72.438L43.5204 75.9563Z"
    fill="#263238" />
  <path
    d="M35.1608 67.5799C35.1945 67.653 38.5384 72.9502 39.7937 74.9711C40.0461 75.3859 40.3983 75.7309 40.8181 75.9747C41.2379 76.2185 41.7121 76.3535 42.1974 76.3672C42.5845 76.3739 42.9685 76.2971 43.3233 76.142L51.255 72.6575C51.255 72.6575 53.3266 71.7512 53.0789 69.8991C52.8087 67.9514 50.7596 60.7346 50.7596 60.7346L35.1608 67.5799Z"
    fill="#E0E0E0" />
  <path
    d="M52.8808 68.1001L39.0827 74.2146C38.8666 74.3103 38.7691 74.5631 38.8649 74.7791L38.8854 74.8254C38.9811 75.0414 39.2338 75.1389 39.4499 75.0432L53.2479 68.9287C53.464 68.833 53.5615 68.5803 53.4658 68.3643L53.4452 68.318C53.3495 68.1019 53.0968 68.0044 52.8808 68.1001Z"
    fill="#E0E0E0" />
  <path
    d="M53.2478 68.9196C53.3439 68.8648 53.4191 68.7797 53.4617 68.6776C53.4842 68.6156 53.4918 68.5491 53.484 68.4836C53.4762 68.4181 53.4531 68.3554 53.4167 68.3004C53.3776 68.2227 53.3138 68.1602 53.2354 68.1225C53.157 68.0848 53.0683 68.0741 52.9832 68.0921C52.2289 68.4074 51.1256 68.9253 49.7633 69.5276L39.1182 74.2731C39.064 74.2961 39.0165 74.3324 38.9801 74.3786C38.9437 74.4249 38.9195 74.4796 38.91 74.5377C38.8961 74.595 38.8961 74.6548 38.91 74.7122C38.93 74.7687 38.9585 74.8218 38.9944 74.8698C39.0334 74.914 39.0823 74.9482 39.1371 74.9697C39.1919 74.9913 39.251 74.9995 39.3096 74.9937C39.4357 74.9557 39.5581 74.9067 39.6755 74.8473L41.1729 74.183L43.9876 72.9333L48.7838 70.828L52.0263 69.415L52.9101 69.0378L53.1409 68.9478C53.1915 68.9478 53.2197 68.914 53.2197 68.9478L53.1465 68.9872L52.9213 69.0941L52.0488 69.4994L48.8288 70.9518L44.0439 73.0853L41.2292 74.3463L39.7318 75.0105L39.5404 75.095C39.4723 75.1278 39.4005 75.1524 39.3265 75.1682C39.2438 75.1769 39.1603 75.1656 39.0828 75.1353C39.0054 75.1049 38.9365 75.0563 38.8818 74.9937C38.8314 74.932 38.7931 74.8613 38.7692 74.7854C38.7468 74.7062 38.7468 74.6225 38.7692 74.5433C38.7818 74.4607 38.8153 74.3827 38.8665 74.3166C38.9178 74.2506 38.985 74.1988 39.062 74.1662L49.7239 69.46C51.0918 68.869 52.1839 68.3736 52.972 68.064C53.0687 68.0459 53.1687 68.0604 53.2563 68.1052C53.3439 68.15 53.4142 68.2226 53.4561 68.3117C53.4927 68.372 53.5148 68.44 53.5207 68.5104C53.5265 68.5807 53.516 68.6514 53.4899 68.717C53.466 68.7658 53.4321 68.8091 53.3904 68.844C53.3487 68.8789 53.3001 68.9047 53.2478 68.9196V68.9196Z"
    fill="#263238" />
  <path
    d="M52.3836 66.1852L38.0039 72.5574C37.7879 72.6531 37.6904 72.9058 37.7861 73.1219L37.8067 73.1682C37.9024 73.3842 38.1551 73.4817 38.3711 73.386L52.7508 67.0138C52.9668 66.9181 53.0643 66.6654 52.9686 66.4493L52.9481 66.403C52.8523 66.187 52.5996 66.0895 52.3836 66.1852Z"
    fill="#E0E0E0" />
  <path
    d="M52.758 67.0059C52.8576 66.95 52.9336 66.86 52.972 66.7526C52.9921 66.6877 52.9975 66.6192 52.9877 66.552C52.978 66.4848 52.9534 66.4206 52.9157 66.3641C52.8681 66.2859 52.7955 66.2261 52.7097 66.1944C52.6238 66.1628 52.5298 66.1611 52.4428 66.1896L49.1046 67.6927L38.043 72.6183C37.9866 72.6427 37.9376 72.6816 37.901 72.731C37.8645 72.7804 37.8416 72.8387 37.8348 72.8998C37.8183 72.9568 37.8183 73.0173 37.8348 73.0743C37.8537 73.1353 37.8864 73.1912 37.9304 73.2375C37.9748 73.2797 38.0287 73.3104 38.0875 73.3271C38.1464 73.3437 38.2084 73.3458 38.2682 73.3332C38.3808 73.2938 38.5272 73.2206 38.651 73.17L40.2047 72.4776L43.1488 71.1828L48.1308 68.9874L51.5083 67.5238L52.4259 67.1353L52.668 67.034L52.7524 67.0059L52.6736 67.0509L52.4428 67.1579L51.5309 67.5744L48.1871 69.0831L43.222 71.3067L40.2835 72.6127L38.7298 73.2994C38.5891 73.3557 38.4821 73.4177 38.3189 73.4739C38.2355 73.4931 38.1487 73.4913 38.0661 73.4687C37.9836 73.4461 37.908 73.4034 37.846 73.3445C37.7874 73.2838 37.7431 73.2107 37.7165 73.1306C37.6825 73.0508 37.6708 72.9632 37.6828 72.8772C37.6942 72.7914 37.7277 72.7099 37.78 72.6409C37.8323 72.5718 37.9016 72.5175 37.9811 72.4832L49.054 67.597C50.4782 66.9777 51.6209 66.4711 52.4315 66.1333C52.5304 66.105 52.6358 66.11 52.7315 66.1477C52.8271 66.1854 52.9077 66.2535 52.9607 66.3416C53.0002 66.4038 53.0248 66.4742 53.0326 66.5474C53.0404 66.6207 53.0312 66.6947 53.0057 66.7638C52.986 66.8206 52.9533 66.872 52.9104 66.914C52.8674 66.956 52.8152 66.9874 52.758 67.0059Z"
    fill="#263238" />
  <path
    d="M51.7942 64.319L37.0388 70.8577C36.8228 70.9534 36.7253 71.2061 36.821 71.4222L36.8416 71.4685C36.9373 71.6845 37.19 71.782 37.406 71.6863L52.1614 65.1476C52.3774 65.0519 52.4749 64.7992 52.3792 64.5831L52.3587 64.5368C52.263 64.3208 52.0102 64.2233 51.7942 64.319Z"
    fill="#E0E0E0" />
  <path
    d="M52.1613 65.1369C52.2197 65.1078 52.2708 65.0659 52.3108 65.0143C52.3507 64.9626 52.3785 64.9027 52.3921 64.8388C52.4056 64.7749 52.4045 64.7088 52.3889 64.6454C52.3733 64.582 52.3436 64.523 52.302 64.4727C52.2514 64.3952 52.1755 64.3377 52.0872 64.31C51.9989 64.2823 51.9037 64.2861 51.8179 64.3207L48.3896 65.8631L37.0691 70.9295C37.0112 70.9533 36.961 70.9928 36.9242 71.0435C36.8875 71.0942 36.8655 71.1541 36.8608 71.2166C36.8418 71.277 36.8418 71.3419 36.8608 71.4024C36.8832 71.4614 36.9177 71.5151 36.9621 71.56C37.009 71.6014 37.0658 71.6299 37.127 71.6428C37.1882 71.6556 37.2516 71.6523 37.3112 71.6332C37.435 71.5881 37.5757 71.5206 37.7108 71.4586L39.3039 70.755L42.31 69.4265L47.4101 67.1747L50.8553 65.6717L51.7954 65.272L52.0431 65.1707L52.1275 65.1369C52.1275 65.1369 52.0994 65.1369 52.0487 65.182L51.8066 65.3002L50.8778 65.7224L47.489 67.2873L42.4226 69.5391L39.4165 70.8788L37.8234 71.5825L37.4125 71.7626C37.3288 71.7906 37.2391 71.7954 37.1529 71.7766C37.0667 71.7577 36.9872 71.716 36.9227 71.6557C36.8607 71.5977 36.8126 71.5265 36.782 71.4474C36.7461 71.3661 36.7325 71.2767 36.7426 71.1884C36.7511 71.101 36.7826 71.0174 36.8341 70.9461C36.8855 70.8749 36.955 70.8187 37.0353 70.7831L48.3615 65.7787L51.8066 64.2813C51.9066 64.2396 52.0181 64.2348 52.1212 64.2678C52.2244 64.3008 52.3124 64.3694 52.3696 64.4614C52.4108 64.5237 52.4377 64.5944 52.4485 64.6684C52.4592 64.7424 52.4534 64.8178 52.4315 64.8892C52.4117 64.9504 52.3764 65.0053 52.3291 65.0487C52.2817 65.0921 52.2239 65.1225 52.1613 65.1369V65.1369Z"
    fill="#263238" />
  <path
    d="M51.3074 62.3992L35.955 69.2024C35.739 69.2981 35.6414 69.5509 35.7372 69.7669L35.7577 69.8132C35.8534 70.0292 36.1061 70.1267 36.3222 70.031L51.6745 63.2278C51.8906 63.132 51.9881 62.8793 51.8924 62.6633L51.8718 62.617C51.7761 62.401 51.5234 62.3034 51.3074 62.3992Z"
    fill="#E0E0E0" />
  <path
    d="M51.6773 63.223C51.7314 63.1959 51.7793 63.1579 51.8181 63.1114C51.8568 63.0649 51.8856 63.0109 51.9024 62.9528C51.9177 62.8818 51.9176 62.8084 51.9021 62.7375C51.8865 62.6666 51.8559 62.5999 51.8124 62.5418C51.7515 62.4655 51.6657 62.4129 51.57 62.3934C51.4743 62.3738 51.3748 62.3885 51.2888 62.4349L47.7368 64.0336L35.9771 69.2632C35.9172 69.2897 35.8656 69.3319 35.8279 69.3855C35.7902 69.4391 35.7679 69.5019 35.7632 69.5672C35.7622 69.6334 35.7758 69.699 35.8031 69.7593C35.8303 69.8196 35.8705 69.8732 35.9208 69.9162C35.9724 69.9556 36.0338 69.9802 36.0983 69.9871C36.1628 69.9941 36.228 69.9832 36.2867 69.9556L36.7089 69.7699L38.3583 69.0437L41.4826 67.6645L46.7685 65.334L50.3431 63.7747L51.317 63.3581L51.5703 63.2568L51.6604 63.223L51.5759 63.268L51.3283 63.3862L50.3656 63.8309L46.8135 65.4297L41.5333 67.7827L38.4146 69.1732L36.7652 69.905L36.343 70.0907C36.2603 70.1275 36.1693 70.1416 36.0793 70.1317C35.9893 70.1218 35.9036 70.0883 35.8308 70.0345C35.7609 69.9777 35.7066 69.9041 35.6731 69.8205C35.6411 69.7601 35.622 69.6936 35.617 69.6254C35.6119 69.5572 35.621 69.4887 35.6438 69.4241C35.6665 69.3596 35.7024 69.3005 35.7491 69.2505C35.7958 69.2006 35.8524 69.1608 35.9152 69.1338L47.6805 63.9435L51.2494 62.3842C51.3444 62.3381 51.4524 62.3263 51.5551 62.351C51.6578 62.3756 51.7487 62.4351 51.8124 62.5193C51.858 62.5817 51.8892 62.6535 51.9038 62.7294C51.9184 62.8053 51.916 62.8835 51.8968 62.9584C51.8683 63.0508 51.8086 63.1304 51.7279 63.1836C51.7129 63.1989 51.6958 63.2122 51.6773 63.223V63.223Z"
    fill="#263238" />
  <path
    d="M31.0176 63.5716C31.0851 63.718 32.9315 67.0393 33.8829 68.7506C34.0575 69.0608 34.3002 69.3273 34.5927 69.5302C34.8852 69.733 35.22 69.8668 35.5717 69.9215L36.6131 70.0904L51.9417 63.3352L52.5047 62.4683C52.702 62.1694 52.828 61.8292 52.8729 61.4739C52.9178 61.1186 52.8804 60.7578 52.7636 60.4192L50.8553 54.8406L31.0176 63.5716Z"
    fill="#7ED2FF" />
  <g opacity="0.3">
    <path opacity="0.3"
      d="M39.9513 74.7688C41.5863 74.405 43.1733 73.8514 44.6799 73.1194C45.9859 72.5564 47.2863 71.9935 48.6936 71.3574C49.7238 70.8789 50.6582 70.4061 51.6771 69.905C52.0941 69.7249 52.4668 69.4559 52.7692 69.1169L39.9513 74.7688Z"
      fill="black" />
  </g>
  <g opacity="0.3">
    <path opacity="0.3"
      d="M38.6173 73.2206C40.3652 72.7988 42.0634 72.1931 43.6837 71.4136C45.0966 70.7887 46.4983 70.2145 48.0126 69.5165C49.1385 68.9986 50.1349 68.4919 51.2326 67.9572C51.6819 67.7646 52.0863 67.4809 52.4204 67.124L38.6173 73.2206Z"
      fill="black" />
  </g>
  <g opacity="0.3">
    <path opacity="0.3"
      d="M37.8403 71.4476C39.5894 71.03 41.2881 70.4241 42.9067 69.6406C44.314 69.0157 45.7214 68.4472 47.2357 67.7435C48.3615 67.2312 49.3579 66.7246 50.4556 66.1898C50.9025 65.993 51.3062 65.7099 51.6434 65.3567L37.8403 71.4476Z"
      fill="black" />
  </g>
  <g opacity="0.3">
    <path opacity="0.3"
      d="M37.0635 69.6798C38.8111 69.2571 40.5092 68.6514 42.1299 67.8728C43.5372 67.2479 44.9445 66.6737 46.4588 65.9757C47.5847 65.4578 48.581 64.9512 49.6788 64.4164C50.128 64.2238 50.5325 63.9401 50.8665 63.5833L37.0635 69.6798Z"
      fill="black" />
  </g>
  <path opacity="0.3"
    d="M31.0176 63.5716C31.0851 63.718 32.9315 67.0393 33.8829 68.7506C34.0575 69.0608 34.3002 69.3273 34.5927 69.5302C34.8852 69.733 35.22 69.8668 35.5717 69.9215L36.6131 70.0904L51.9417 63.3352L52.5047 62.4683C52.702 62.1694 52.828 61.8292 52.8729 61.4739C52.9178 61.1186 52.8804 60.7578 52.7636 60.4192L50.8553 54.8406L31.0176 63.5716Z"
    fill="black" />
  <path
    d="M52.7074 61.3483C52.7074 61.3821 48.6374 63.2116 43.5766 65.4352C38.5159 67.6588 34.4065 69.4264 34.3896 69.3757C34.3727 69.325 38.4596 67.5124 43.5203 65.2888C48.5811 63.0652 52.6905 61.3089 52.7074 61.3483Z"
    fill="#263238" />
  <path
    d="M50.6977 54.807C50.6977 54.852 46.2899 56.8561 40.8013 59.3104C35.3128 61.7648 30.8543 63.6844 30.8375 63.645C30.8206 63.6056 35.2452 61.6016 40.7338 59.1416C46.2224 56.6816 50.6808 54.7676 50.6977 54.807Z"
    fill="#263238" />
  <path
    d="M197.473 74.1754L190.442 73.3535C186.481 77.3784 181.157 79.7762 175.518 80.0753C169.879 80.3744 164.332 78.5534 159.968 74.9701C155.603 71.3868 152.737 66.3005 151.932 60.7111C151.128 55.1217 152.443 49.4335 155.62 44.7647C158.796 40.0959 163.605 36.7842 169.099 35.4807C174.594 34.1773 180.377 34.9762 185.312 37.7206C190.248 40.4649 193.978 44.9562 195.77 50.3114C197.562 55.6666 197.286 61.4983 194.996 66.6603V66.6603L197.473 74.1754Z"
    fill="white" />
  <path
    d="M197.473 74.1752C197.473 74.1752 197.411 74.0063 197.298 73.6798L196.808 72.2387L194.94 66.6714H195.063C195.057 66.6776 195.05 66.6826 195.041 66.6861C195.033 66.6895 195.024 66.6912 195.016 66.6912C195.007 66.6912 194.998 66.6895 194.99 66.6861C194.981 66.6826 194.974 66.6776 194.968 66.6714C194.959 66.659 194.954 66.6443 194.954 66.6291C194.954 66.614 194.959 66.5993 194.968 66.5869C196.481 63.139 197.11 59.3678 196.797 55.6154C196.699 54.4579 196.511 53.3098 196.234 52.1815C195.922 50.979 195.521 49.8011 195.035 48.6576C193.102 44.1424 189.739 40.3871 185.463 37.9688C181.188 35.5505 176.237 34.603 171.371 35.2718C166.505 35.9407 161.993 38.1889 158.529 41.671C155.065 45.1531 152.84 49.6764 152.196 54.5458C151.753 58.0026 152.108 61.5149 153.232 64.8137C154.299 67.9135 156.043 70.7366 158.338 73.0775C162.403 77.2627 167.936 79.7032 173.768 79.8833H174.73C175.046 79.8995 175.362 79.8901 175.676 79.8552L177.517 79.6919C178.671 79.506 179.813 79.2561 180.939 78.9432C184.526 77.8659 187.786 75.9096 190.425 73.252C190.433 73.2471 190.443 73.2445 190.453 73.2445C190.463 73.2445 190.473 73.2471 190.481 73.252L195.688 73.8994L197.039 74.0739L197.506 74.1358L197.067 74.0964L195.728 73.9557L190.464 73.3927H190.521C187.874 76.092 184.588 78.0787 180.968 79.1684C179.833 79.4915 178.681 79.749 177.517 79.9396L175.659 80.1141C175.342 80.1508 175.022 80.1621 174.702 80.1479H173.728C169.125 80.0228 164.669 78.5025 160.95 75.7883C157.23 73.0741 154.423 69.294 152.9 64.9488C151.756 61.6078 151.394 58.0488 151.842 54.5458C152.318 50.8712 153.69 47.3702 155.838 44.3511C156.089 43.9671 156.367 43.6021 156.671 43.2591L157.544 42.2007L158.507 41.2325C158.818 40.905 159.151 40.5984 159.503 40.3149L160.544 39.4536C160.882 39.1609 161.282 38.9414 161.642 38.6824C162.002 38.4235 162.38 38.1702 162.768 37.9506L163.939 37.3201C167.011 35.7139 170.414 34.841 173.88 34.7701C177.02 34.7117 180.137 35.3026 183.038 36.5057C185.938 37.7088 188.558 39.4982 190.734 41.7617C192.638 43.7429 194.164 46.0551 195.238 48.5844C195.728 49.7398 196.129 50.9311 196.437 52.1477C196.716 53.2888 196.904 54.4502 197 55.621C197.285 59.4069 196.612 63.2036 195.041 66.6601L194.923 66.5869C194.937 66.575 194.955 66.5685 194.973 66.5685C194.992 66.5685 195.01 66.575 195.024 66.5869C195.026 66.5981 195.026 66.6095 195.024 66.6207C195.806 69.0807 196.414 70.9721 196.825 72.25C197.022 72.8749 197.174 73.3759 197.276 73.6855C197.377 73.9951 197.473 74.1752 197.473 74.1752Z"
    fill="#263238" />
  <path d="M163.973 57.997L166.675 55.0078L172.405 59.6126L180.917 49.8345L183.703 52.5478L172.276 65.1181L163.973 57.997Z" fill="#263238" />
  <path
    d="M135.528 76.1003L139.992 75.5374C140.006 75.5317 140.022 75.5317 140.037 75.5374C142.3 77.8152 145.096 79.4926 148.171 80.418C149.136 80.6847 150.115 80.8989 151.104 81.0597L152.686 81.2004C152.956 81.2231 153.227 81.2231 153.496 81.2004H154.324C156.678 81.1293 158.998 80.6256 161.169 79.7143C161.732 79.4666 162.34 79.1908 162.909 78.8812L162.385 78.6729C159.609 77.5156 157.093 75.8118 154.988 73.6628C152.71 71.3396 150.98 68.5376 149.922 65.4609C148.806 62.1953 148.45 58.7183 148.88 55.2944C149.354 51.6907 150.707 48.2591 152.821 45.3023C153.071 44.928 153.345 44.5707 153.643 44.2328L154.498 43.197L154.864 42.8254H154.234C151.576 42.7738 148.936 43.2705 146.479 44.2845C144.022 45.2986 141.8 46.8083 139.952 48.7193C138.325 50.3856 137.016 52.3354 136.091 54.4725C135.672 55.4529 135.328 56.4634 135.06 57.4954C134.048 61.6193 134.43 65.9623 136.147 69.8461C136.153 69.8572 136.157 69.8699 136.157 69.8827C136.157 69.8956 136.153 69.9082 136.147 69.9193L134.554 74.6536C134.374 75.2165 134.233 75.6049 134.132 75.892C134.03 76.1791 133.985 76.3142 133.985 76.3142L134.385 76.2579L135.528 76.1003Z"
    fill="#F5F5F5" />
  <path
    d="M135.528 76.1004C135.528 76.1004 135.398 76.1285 135.139 76.1679L133.974 76.3368H133.918V76.2805C134.357 74.9633 135.077 72.7791 136.04 69.8687V69.835C136.04 69.835 136.04 69.8744 136.04 69.835L136.001 69.7449L135.922 69.5591L135.77 69.182C135.663 68.9286 135.573 68.6641 135.471 68.3938C135.286 67.8309 135.117 67.268 134.965 66.7051C134.642 65.4316 134.454 64.1279 134.402 62.8152C134.337 61.3443 134.443 59.8709 134.717 58.4243C134.869 57.6473 135.068 56.8803 135.314 56.1276C135.557 55.3384 135.86 54.5687 136.22 53.8252C137.755 50.5229 140.195 47.7237 143.257 45.7528C146.688 43.5439 150.727 42.4705 154.802 42.6848H155.123L154.898 42.91L154.532 43.2815C151.839 46.2952 149.995 49.9711 149.19 53.9322C148.191 59.0338 149.023 64.3244 151.541 68.8727C154.058 73.4209 158.1 76.9352 162.954 78.7968L163.23 78.8981L162.971 79.022C161.989 79.5355 160.971 79.9776 159.925 80.3449C158.926 80.6787 157.902 80.9328 156.863 81.1048C154.955 81.4026 153.014 81.4292 151.098 81.1836V81.1836C150.445 81.0485 149.809 80.9416 149.19 80.8065C148.588 80.6656 147.994 80.4909 147.411 80.283C146.345 79.9096 145.312 79.4444 144.326 78.8925C142.748 78.012 141.304 76.9107 140.037 75.6219C140.037 75.5712 139.907 75.6219 139.823 75.6219L139.558 75.65L139.057 75.712L138.145 75.8189L136.715 75.9822L135.843 76.0779C135.64 76.0779 135.539 76.0779 135.539 76.0779L135.837 76.0272L136.71 75.9034L138.134 75.712L139.046 75.5937L139.547 75.5262L139.812 75.4924H139.947C139.974 75.4855 140.003 75.4855 140.031 75.4924C140.049 75.4855 140.069 75.4855 140.087 75.4924H140.116C141.388 76.7572 142.832 77.8373 144.405 78.7011C146.5 79.8591 148.79 80.6224 151.16 80.9528V80.9528C152.082 81.0554 153.008 81.1062 153.936 81.1048C154.92 81.0968 155.903 81.0122 156.874 80.8515C157.9 80.6787 158.911 80.4246 159.897 80.0916C160.926 79.7225 161.929 79.2823 162.897 78.7743V78.9995C157.989 77.1299 153.898 73.5885 151.344 68.999C148.791 64.4094 147.938 59.066 148.937 53.9096C149.748 49.8986 151.615 46.1769 154.346 43.1295V43.1295L154.718 42.758L154.814 43.0057C151.018 42.795 147.245 43.7197 143.977 45.6616C140.708 47.6036 138.092 50.475 136.462 53.9096C136.106 54.6367 135.805 55.3894 135.561 56.1614C135.314 56.8986 135.113 57.6506 134.959 58.4131C134.431 61.1275 134.5 63.9244 135.162 66.6094C135.308 67.1723 135.471 67.769 135.652 68.2982C135.747 68.5627 135.837 68.8273 135.939 69.0806L136.091 69.4578L136.169 69.6379L136.203 69.728C136.221 69.7565 136.227 69.7902 136.222 69.8232C136.217 69.8562 136.2 69.8863 136.175 69.9081V69.8744C135.179 72.7847 134.441 74.9745 133.974 76.258L133.94 76.2186L135.111 76.0779L135.528 76.1004Z"
    fill="#263238" />
  <path
    d="M307.896 31.1431H301.708C300.486 31.1431 299.495 32.1341 299.495 33.3565V67.1855C299.495 68.408 300.486 69.399 301.708 69.399H307.896C309.118 69.399 310.109 68.408 310.109 67.1855V33.3565C310.109 32.1341 309.118 31.1431 307.896 31.1431Z"
    fill="#455A64" />
  <path
    d="M274.564 53.6606H268.526C267.262 53.6606 266.237 54.6851 266.237 55.9487V68.7422C266.237 70.0058 267.262 71.0303 268.526 71.0303H274.564C275.828 71.0303 276.852 70.0058 276.852 68.7422V55.9487C276.852 54.6851 275.828 53.6606 274.564 53.6606Z"
    fill="#455A64" />
  <path
    d="M290.805 44.2151H285.084C283.733 44.2151 282.637 45.3108 282.637 46.6624V68.5783C282.637 69.9299 283.733 71.0256 285.084 71.0256H290.805C292.156 71.0256 293.252 69.9299 293.252 68.5783V46.6624C293.252 45.3108 292.156 44.2151 290.805 44.2151Z"
    fill="#455A64" />
  <path
    d="M306.185 18.5037C306.113 18.6258 306.028 18.7393 305.931 18.8419L305.14 19.7721L302.156 23.2042L291.735 34.9381L291.62 35.0724L291.471 34.973L284.955 30.7201L285.234 30.6803L284.985 30.9738C279.618 37.266 274.763 42.9664 271.212 47.1347L271.117 47.2391L271.008 47.1546L265.83 43.3096L264.457 42.2451C264.287 42.1309 264.131 41.9992 263.989 41.8522C264.164 41.948 264.33 42.0578 264.487 42.1805L265.929 43.1753L271.187 46.9158H270.988L284.667 30.6753L284.915 30.3819L285.04 30.2376L285.194 30.3421L291.7 34.6098L291.436 34.6447L301.957 23.0102L305.041 19.6527L305.881 18.7673C305.971 18.6676 306.073 18.5791 306.185 18.5037Z"
    fill="#263238" />
  <path
    d="M306.518 26.5819C306.401 25.7733 306.352 24.9563 306.374 24.1396C306.334 22.6473 306.309 20.5383 306.309 18.2204L306.553 18.4293L306.344 18.4641C304.006 18.8471 301.867 19.1754 300.35 19.3893C299.53 19.5472 298.698 19.6337 297.863 19.648C298.664 19.3966 299.484 19.2103 300.315 19.0909C301.842 18.8024 303.951 18.4293 306.284 18.0463L306.498 18.0115L306.742 17.9717V18.2204C306.742 20.5383 306.742 22.6274 306.677 24.1396C306.698 24.9568 306.645 25.7743 306.518 26.5819Z"
    fill="#263238" />
</svg>