<svg width="432" height="382" viewBox="0 0 432 382" fill="none" xmlns="http://www.w3.org/2000/svg">
  <path fill-rule="evenodd" clip-rule="evenodd"
    d="M33 116H219C230.046 116 239 124.954 239 136V208C239 219.046 230.046 228 219 228H113.5L73 255V228H33C21.9543 228 13 219.046 13 208V136C13 124.954 21.9543 116 33 116Z" fill="#FAFAFA" />
  <path
    d="M113.5 228V227.5H113.349L113.223 227.584L113.5 228ZM73 255H72.5V255.934L73.2774 255.416L73 255ZM73 228H73.5V227.5H73V228ZM219 115.5H33V116.5H219V115.5ZM239.5 136C239.5 124.678 230.322 115.5 219 115.5V116.5C229.77 116.5 238.5 125.23 238.5 136H239.5ZM239.5 208V136H238.5V208H239.5ZM219 228.5C230.322 228.5 239.5 219.322 239.5 208H238.5C238.5 218.77 229.77 227.5 219 227.5V228.5ZM113.5 228.5H219V227.5H113.5V228.5ZM113.223 227.584L72.7226 254.584L73.2774 255.416L113.777 228.416L113.223 227.584ZM73.5 255V228H72.5V255H73.5ZM33 228.5H73V227.5H33V228.5ZM12.5 208C12.5 219.322 21.6782 228.5 33 228.5V227.5C22.2304 227.5 13.5 218.77 13.5 208H12.5ZM12.5 136V208H13.5V136H12.5ZM33 115.5C21.6782 115.5 12.5 124.678 12.5 136H13.5C13.5 125.23 22.2304 116.5 33 116.5V115.5Z"
    fill="black" />
  <path
    d="M379.619 1.36086L296.586 19.7538C293.192 20.5054 291.051 23.8653 291.803 27.2583L309.107 105.379C309.859 108.772 313.219 110.913 316.612 110.162L399.646 91.7688C403.039 91.0172 405.18 87.6573 404.428 84.2643L387.124 6.14359C386.372 2.75057 383.012 0.609268 379.619 1.36086Z"
    fill="#EBEBEB" />
  <path
    d="M367.089 65.8315C366.887 65.9167 366.675 65.9789 366.459 66.0169L364.605 66.471L357.822 68.065L334.913 73.2732H334.727L334.663 73.0879L333.282 69.3809C329.269 58.603 325.683 48.9928 323.347 42.691L323.505 42.7836L317.388 44.0903L315.757 44.4147C315.568 44.4606 315.376 44.4916 315.183 44.5074C315.361 44.4297 315.547 44.3737 315.739 44.3406L317.351 43.9421L323.44 42.5056H323.56L323.607 42.6261L333.727 69.2975L335.107 73.0045L334.857 72.8747L357.794 67.8055L364.642 66.3412L366.496 65.9613C366.691 65.9084 366.889 65.8651 367.089 65.8315Z"
    fill="#FAFAFA" />
  <path
    d="M332.429 66.5915C332.429 66.5915 332.484 66.5915 332.586 66.5359L333.059 66.4061L334.912 65.9613L341.798 64.358L365.569 58.9459L365.402 59.1683C365.217 55.0073 365.004 50.5033 364.79 45.8419C364.679 43.4509 364.577 41.097 364.475 38.845L364.744 39.0489L336.683 45.2673L328.342 47.0559L326.09 47.5192L325.515 47.6305H325.312L325.506 47.5656L326.081 47.4173L328.305 46.8798L336.59 44.9522L364.614 38.5948L364.874 38.5392V38.7987C364.976 41.0414 365.087 43.4323 365.198 45.7955C365.402 50.4292 365.606 54.9517 365.791 59.122V59.2981H365.615L341.807 64.5526L334.922 66.091L333.068 66.471L332.586 66.5637L332.429 66.5915Z"
    fill="#FAFAFA" />
  <path
    d="M344.847 79.992C344.847 79.992 344.745 79.714 344.495 79.2692C344.158 78.6537 343.631 78.1631 342.994 77.8698C342.587 77.6909 342.147 77.601 341.703 77.6063C341.259 77.6115 340.821 77.7118 340.419 77.9002C340.016 78.0887 339.659 78.361 339.371 78.699C339.082 79.0369 338.87 79.4326 338.747 79.8595C338.624 80.2864 338.594 80.7347 338.659 81.1741C338.724 81.6136 338.882 82.0341 339.123 82.4074C339.363 82.7807 339.681 83.0982 340.055 83.3385C340.428 83.5789 340.849 83.7365 341.289 83.8009C341.802 83.8652 342.324 83.8034 342.808 83.6209C343.293 83.4385 343.725 83.1408 344.069 82.7537C344.539 82.208 344.822 81.5258 344.875 80.8075C344.875 80.2978 344.875 80.0105 344.875 80.0013C344.999 80.2544 345.057 80.5352 345.042 80.8168C345.055 81.5927 344.793 82.3482 344.3 82.9483C343.933 83.4026 343.456 83.7559 342.915 83.9747C342.373 84.1936 341.785 84.271 341.205 84.1994C340.487 84.1134 339.814 83.8068 339.277 83.3219C338.741 82.8369 338.369 82.1976 338.211 81.4919C338.053 80.7863 338.119 80.0492 338.398 79.3821C338.677 78.7151 339.156 78.1511 339.769 77.7678C340.262 77.4575 340.826 77.2776 341.408 77.2452C341.99 77.2128 342.571 77.3288 343.096 77.5825C343.796 77.9192 344.356 78.4894 344.68 79.195C344.802 79.4426 344.859 79.7166 344.847 79.992Z"
    fill="#FAFAFA" />
  <path
    d="M365.625 75.3583C365.625 75.3583 365.523 75.0803 365.272 74.6262C364.917 74.0026 364.371 73.509 363.715 73.2176C363.236 73.0117 362.713 72.9269 362.192 72.9705C361.672 73.0141 361.17 73.1849 360.731 73.4678C360.199 73.8132 359.786 74.3133 359.547 74.9007C359.308 75.4881 359.254 76.1347 359.393 76.7534C359.533 77.3722 359.858 77.9334 360.326 78.3617C360.794 78.7899 361.382 79.0645 362.01 79.1487C362.524 79.2154 363.046 79.1548 363.531 78.9722C364.016 78.7896 364.448 78.4906 364.79 78.1015C365.262 77.5601 365.545 76.8805 365.597 76.1646C365.597 75.6549 365.597 75.3583 365.597 75.3583C365.722 75.6077 365.78 75.8859 365.764 76.1646C365.776 76.9432 365.514 77.7013 365.022 78.3054C364.653 78.757 364.176 79.1083 363.635 79.3269C363.094 79.5456 362.506 79.6245 361.927 79.5565C361.209 79.4705 360.535 79.1639 359.999 78.6789C359.463 78.194 359.09 77.5547 358.933 76.849C358.775 76.1434 358.84 75.4062 359.119 74.7392C359.398 74.0722 359.877 73.5082 360.49 73.1249C360.984 72.8155 361.547 72.6355 362.129 72.6015C362.71 72.5675 363.291 72.6806 363.817 72.9303C364.52 73.268 365.081 73.8422 365.402 74.5521C365.545 74.7971 365.621 75.0749 365.625 75.3583V75.3583Z"
    fill="#FAFAFA" />
  <path
    d="M371.38 33.9147C371.786 35.7337 371.643 37.6321 370.97 39.37C370.297 41.1079 369.124 42.6073 367.599 43.6786C366.074 44.7498 364.266 45.345 362.402 45.3887C360.539 45.4324 358.705 44.9228 357.131 43.9243C355.558 42.9258 354.316 41.4831 353.562 39.7787C352.808 38.0743 352.576 36.1847 352.896 34.3487C353.216 32.5127 354.073 30.8127 355.359 29.4637C356.645 28.1147 358.302 27.1771 360.12 26.7696C361.329 26.4988 362.579 26.4688 363.799 26.6814C365.019 26.894 366.185 27.3449 367.231 28.0085C368.277 28.6721 369.181 29.5353 369.893 30.5487C370.605 31.5621 371.111 32.7059 371.38 33.9147V33.9147Z"
    fill="#FAFAFA" />
  <path
    d="M366.403 31.4219C366.187 32.0362 365.901 32.6238 365.551 33.1734C364.967 34.2206 364.142 35.6571 363.206 37.2325L362.196 38.9099L362.085 39.086L361.909 38.9933C360.506 38.2954 359.161 37.4866 357.887 36.5745C359.343 37.1515 360.755 37.8329 362.113 38.6133L361.825 38.6967L362.817 37.0101C363.744 35.4346 364.67 34.0167 365.282 33.0066C365.596 32.4383 365.972 31.9068 366.403 31.4219V31.4219Z"
    fill="#E0E0E0" />
  <path d="M46.601 129.483C44.8865 123.431 37 124.015 37 124.015L37.2131 128.232C41.7634 127.444 44.627 132.773 44.627 132.773L46.601 129.483Z" fill="#E0E0E0" />
  <path d="M165.107 70.2335C174.235 73.0137 179.935 62.4675 179.935 62.4675L174.374 59.3073C171.659 65.7945 162.549 65.0067 162.549 65.0067L165.107 70.2335Z" fill="#E0E0E0" />
  <path d="M240.877 126.746C239.116 121.714 232.49 122.622 232.49 122.622L232.889 126.181C236.698 125.254 239.376 129.637 239.376 129.637L240.877 126.746Z" fill="#E0E0E0" />
  <path d="M136.184 8.828C134.414 3.79582 127.788 4.70402 127.788 4.70402L128.186 8.25342C131.995 7.32668 134.673 11.7194 134.673 11.7194L136.184 8.828Z" fill="#E0E0E0" />
  <path d="M57.0872 73.2455C55.3264 68.204 48.7466 69.1215 48.7466 69.1215L49.1451 72.6709C52.954 71.7441 55.6322 76.1276 55.6322 76.1276L57.0872 73.2455Z" fill="#EBEBEB" />
  <path d="M40.4706 26.1765C35.2067 27.0476 34.9102 33.7294 34.9102 33.7294L38.4781 33.9518C38.2464 30.041 43.0098 28.169 43.0098 28.169L40.4706 26.1765Z" fill="#EBEBEB" />
  <path d="M2.56706 182.786C11.6954 185.566 17.3948 175.019 17.3948 175.019L11.8344 171.859C9.11908 178.346 0 177.559 0 177.559L2.56706 182.786Z" fill="#EBEBEB" />
  <path d="M262.618 70.8174C263.239 66.5915 258.198 64.7751 258.198 64.7751L257.169 67.4441C260.199 68.2133 260.477 72.3002 260.477 72.3002L262.618 70.8174Z" fill="#E0E0E0" />
  <path d="M232.277 24.3879C228.719 26.7511 230.73 31.7184 230.73 31.7184L233.408 30.699C231.953 27.9188 234.817 24.9903 234.817 24.9903L232.277 24.3879Z" fill="#EBEBEB" />
  <path d="M386.699 118.998L374.374 155.299L410.822 162.536L412.916 124.207L386.699 118.998Z" fill="#F5F5F5" />
  <path
    d="M408.885 129.026C408.822 129.4 408.679 129.757 408.468 130.073C407.974 130.972 407.349 131.794 406.615 132.51C405.533 133.6 404.213 134.425 402.759 134.92C400.961 135.493 399.045 135.589 397.199 135.198C395.336 134.879 393.585 134.092 392.111 132.909C390.933 131.921 390.032 130.643 389.498 129.202C389.137 128.242 388.925 127.232 388.868 126.208C388.81 125.836 388.842 125.454 388.96 125.096C389.132 126.437 389.462 127.753 389.943 129.016C390.506 130.352 391.387 131.529 392.51 132.445C393.916 133.528 395.568 134.247 397.319 134.54C399.058 134.91 400.861 134.84 402.565 134.336C403.943 133.895 405.208 133.158 406.272 132.177C407.253 131.223 408.129 130.166 408.885 129.026V129.026Z"
    fill="white" />
  <path
    d="M387.477 214.007C387.477 214.007 398.728 207.168 401.258 209.179C404.918 212.08 406.132 216.973 406.132 216.973C406.132 216.973 412.073 194.314 417.744 195.176C420.997 195.667 419.403 198.206 417.948 201.385C416.595 204.341 414.287 215.175 414.287 215.175C414.287 215.175 425.028 202.423 428.188 202.655C430.635 202.831 430.969 204.981 427.475 208.428C423.981 211.876 418.106 222.709 418.106 222.709C418.106 222.709 425.64 215.694 428.745 215.648C431.228 215.648 432.831 217.343 429.671 220.133C426.511 222.922 421.553 225.035 418.986 230.123C415.789 236.342 408.977 251.837 408.977 251.837L385.142 243.394C385.142 243.394 381.259 227.584 381.11 223.738C381.11 223.738 381.435 215.62 381.388 214.174C381.342 212.728 385.179 212.321 386.337 215.101C387.496 217.881 386.977 220.791 387.449 222.635C387.922 224.479 388.756 226.194 390.109 227.019C391.462 227.843 394.891 227.945 395.771 226.88C396.906 225.119 397.645 223.133 397.94 221.06C398.058 219.492 398.037 217.916 397.875 216.352C397.875 216.352 387.95 220.355 387.477 214.007Z"
    fill="#FFBE9D" />
  <path
    d="M119.651 287.794L103.081 281.594C103.081 281.594 86.2143 271.715 83.0912 275.227C82.6507 275.006 82.168 274.882 81.6755 274.863C81.183 274.844 80.6921 274.93 80.2358 275.116C79.7794 275.302 79.368 275.584 79.0294 275.942C78.6907 276.3 78.4325 276.726 78.2722 277.192C77.4196 279.259 80.2554 282.252 80.2554 282.252C80.2554 282.252 79.3286 283.179 80.7651 286.172C82.2015 289.166 98.1228 298.702 98.1228 298.702C98.1228 298.702 118.937 310.054 127.352 315.485L141.893 295.773L139.882 295.013C139.882 295.013 138.677 285.171 134.655 282.549C130.262 279.694 124.98 271.965 123.812 268.935C122.644 265.904 117.056 267.313 117.992 273.569C118.928 279.824 123.812 281.483 123.349 285.672C122.885 289.861 119.651 287.794 119.651 287.794Z"
    fill="#FFBE9D" />
  <path
    d="M94.2118 290.092C91.7341 288.986 89.3262 287.73 87.0018 286.33C84.5996 285.073 82.2726 283.677 80.0327 282.15C82.5005 283.258 84.899 284.515 87.2149 285.913C89.6256 287.17 91.9618 288.566 94.2118 290.092V290.092Z"
    fill="#EB996E" />
  <path
    d="M102.293 285.44C101.274 285.117 100.28 284.72 99.3179 284.254C97.4644 283.466 95.0179 282.335 92.3396 280.964C89.6613 279.592 87.2796 278.184 85.6208 277.127C84.796 276.58 84.138 276.126 83.7024 275.783C83.4593 275.628 83.2381 275.441 83.0444 275.227C84.0015 275.711 84.9298 276.249 85.8246 276.84C87.5206 277.841 89.893 279.166 92.5713 280.547C95.2495 281.928 97.7054 283.095 99.4847 283.967C100.458 284.383 101.397 284.875 102.293 285.44V285.44Z"
    fill="#EB996E" />
  <path
    d="M105.75 294.568C105.243 294.339 104.753 294.072 104.285 293.771L100.374 291.436V291.38C99.5471 289.536 98.6189 287.739 97.5943 285.996C97.0227 284.978 96.3149 284.043 95.4906 283.216C95.0514 282.818 94.4919 282.578 93.9009 282.535C93.31 282.491 92.7214 282.646 92.2285 282.975C92.0218 283.091 91.8443 283.253 91.7095 283.448C91.7136 283.485 91.7136 283.522 91.7095 283.559L91.7744 283.763C91.8207 283.902 91.8671 284.041 91.9227 284.18C92.1173 284.727 92.3397 285.273 92.5528 285.811L93.8225 288.906C94.6473 290.861 95.3979 292.669 96.0652 294.244V294.198L99.4014 298.099L100.328 299.184C100.523 299.434 100.625 299.573 100.606 299.591C100.472 299.496 100.35 299.384 100.245 299.258L99.318 298.238L95.8705 294.439C95.1848 292.891 94.397 291.093 93.5537 289.119C93.1367 288.128 92.7104 287.099 92.2563 286.033C92.0431 285.496 91.8207 284.949 91.6168 284.384C91.5612 284.245 91.5149 284.106 91.4686 283.957L91.3944 283.735C91.3789 283.624 91.3789 283.512 91.3944 283.401C91.4554 283.209 91.5714 283.038 91.728 282.91C91.8523 282.8 91.9856 282.701 92.1265 282.614C92.7167 282.229 93.4161 282.047 94.119 282.095C94.8083 282.154 95.4592 282.437 95.9725 282.901C96.8339 283.767 97.57 284.75 98.1596 285.82C99.1966 287.584 100.125 289.41 100.94 291.288L100.866 291.214L104.693 293.679C105.065 293.951 105.418 294.248 105.75 294.568V294.568Z"
    fill="#EB996E" />
  <path
    d="M122.431 294.726C121.739 294.63 121.059 294.462 120.401 294.225C118.809 293.739 117.162 293.45 115.499 293.364C113.851 293.303 112.218 293.701 110.782 294.513C110.212 294.901 109.664 295.322 109.142 295.773C109.47 295.129 109.974 294.593 110.597 294.225C112.054 293.276 113.771 292.807 115.508 292.882C117.217 292.956 118.902 293.3 120.503 293.901C121.18 294.089 121.828 294.366 122.431 294.726V294.726Z"
    fill="#EB996E" />
  <path
    d="M121.143 290.361C121.254 290.435 120.837 291.158 120.438 292.075C120.04 292.993 119.78 293.781 119.651 293.762C119.521 293.743 119.567 292.835 119.994 291.909C120.42 290.982 121.041 290.268 121.143 290.361Z"
    fill="#EB996E" />
  <path
    d="M216.624 211.588C217.764 203.785 226.818 192.59 234.899 192.581C232.644 189.206 231.426 185.244 231.396 181.184C231.367 177.125 232.526 173.145 234.732 169.737C237.837 165.103 242.841 161.675 244.926 156.522C247.327 150.702 245.483 144.113 245.714 137.839C246.048 128.646 250.83 120.231 255.491 112.261C259.754 104.949 264.953 96.9328 273.349 95.1349C278.66 94.0043 284.174 95.6817 289.16 97.8039C313.014 107.998 331.567 129.378 337.943 154.112C339.463 160.025 340.482 166.429 344.606 171.007C348.98 175.854 356.654 178.486 357.942 184.815C358.869 189.365 355.968 193.934 356.403 198.549C356.765 202.414 364.012 213.692 365.671 217.214C368.553 223.284 367.524 229.836 364.577 235.887C361.63 241.939 354.198 247.815 347.581 249.464L273.618 224.822C266.668 228.779 259.717 244.108 251.747 245.044C243.777 245.98 234.01 249.464 226.327 241.049C218.32 232.236 215.475 219.401 216.624 211.588Z"
    fill="#263238" />
  <path
    d="M339.287 138.033C338.463 144.224 340.159 154.455 343.541 159.738C345.812 163.287 349.602 165.604 353.337 167.633C357.071 169.663 360.992 171.609 363.818 174.741C366.645 177.874 368.174 182.582 366.283 186.335C372.946 188.819 375.931 197.307 373.484 203.869C371.037 210.43 364.337 214.851 357.34 216.157L326.795 206.955L320.104 168.032L337.712 138.006"
    fill="#263238" />
  <path
    d="M342.994 177.716C343.199 177.785 343.398 177.872 343.587 177.976C344.158 178.233 344.715 178.521 345.255 178.838C347.262 180.033 349.066 181.537 350.603 183.295C352.942 185.936 354.672 189.059 355.672 192.442C356.974 196.665 357.003 201.177 355.755 205.416L355.644 205.138C357.465 206.158 359.134 207.428 360.602 208.91C364.284 212.559 366.628 217.342 367.256 222.487C367.714 226.701 366.959 230.958 365.078 234.757C363.836 237.295 362.136 239.582 360.065 241.504C359.504 242.017 358.913 242.497 358.295 242.94C358.087 243.109 357.863 243.258 357.627 243.385C357.813 243.195 358.015 243.022 358.23 242.866C358.823 242.395 359.392 241.894 359.935 241.365C361.932 239.417 363.567 237.129 364.763 234.609C366.558 230.879 367.271 226.721 366.82 222.607C366.173 217.573 363.868 212.897 360.269 209.318C358.83 207.862 357.196 206.614 355.412 205.611L355.246 205.518L355.301 205.333C356.546 201.18 356.546 196.753 355.301 192.6C354.777 190.817 354.056 189.098 353.151 187.475C352.355 186.077 351.424 184.761 350.371 183.545C348.877 181.787 347.128 180.262 345.181 179.023C344.505 178.569 343.921 178.319 343.559 178.096C343.358 177.99 343.169 177.863 342.994 177.716Z"
    fill="#455A64" />
  <path
    d="M252.758 218.076C252.758 218.076 239.135 222.218 234.353 229.196C230.97 234.108 196.357 309.053 196.357 309.053L143.839 293.141L125.054 317.95L183.503 350.386C188.832 353.34 194.83 354.877 200.923 354.849C207.016 354.822 213 353.23 218.302 350.228C224.28 346.845 229.153 341.805 232.333 335.715L247.16 307.246L252.758 218.076Z"
    fill="#12B0EE" />
  <path
    d="M238.81 381.246L247.012 345.891L240.803 320.22C236.799 307.005 233.389 285.477 237.717 268.129L252.248 218.261L268.225 210.921L304.775 204.629C306.175 205.101 342.994 215.499 342.994 215.499C345.417 216.005 347.804 216.671 350.139 217.492L354.356 244.793L341.669 289.786L336.108 334.622L348.249 381.246H238.81Z"
    fill="#12B0EE" />
  <path d="M259.94 214.73L270.532 209.985L318.306 210.643L329.612 217.204C329.612 217.204 290.142 260.761 280.235 262.207C255.325 265.83 259.94 214.73 259.94 214.73Z" fill="#FFBE9D" />
  <path
    d="M349.102 217.149C349.102 217.149 356.256 218.761 362.391 231.847C368.526 244.932 378.442 281.353 378.442 281.353L382.677 242.755L417.217 246.554L410.535 338.792C410.535 338.792 398.311 356.521 377.867 354.89C357.424 353.259 331.457 288.619 331.457 288.619L349.102 217.149Z"
    fill="#12B0EE" />
  <path
    d="M373.048 328.441C373.038 328.367 373.038 328.292 373.048 328.218C373.048 328.042 373.048 327.829 373.048 327.569C373.048 326.949 373.141 326.114 373.206 325.058C373.336 322.88 373.595 319.729 373.956 315.837C374.67 308.062 375.995 297.349 377.608 285.551C379.22 273.754 380.592 263.05 381.398 255.293C381.797 251.41 382.112 248.269 382.325 246.091C382.427 245.034 382.51 244.237 382.566 243.589C382.566 243.329 382.621 243.116 382.649 242.94C382.64 242.866 382.64 242.791 382.649 242.718C382.659 242.791 382.659 242.866 382.649 242.94V243.598C382.649 244.21 382.557 245.053 382.501 246.109C382.362 248.287 382.102 251.438 381.741 255.321C381.027 263.096 379.711 273.81 378.09 285.616C376.468 297.423 375.106 308.108 374.299 315.874C373.901 319.757 373.586 322.899 373.373 325.067C373.271 326.124 373.187 326.921 373.132 327.569C373.132 327.838 373.076 328.051 373.058 328.218C373.062 328.292 373.059 328.367 373.048 328.441Z"
    fill="#263238" />
  <path
    d="M196.968 328.885C196.803 328.675 196.672 328.441 196.579 328.19C196.274 327.542 196.008 326.877 195.782 326.198C194.225 321.714 193.761 316.922 194.429 312.223C194.523 311.515 194.656 310.812 194.827 310.119C194.867 309.856 194.952 309.602 195.078 309.368C195.152 309.368 194.939 310.48 194.763 312.26C194.285 316.915 194.742 321.619 196.106 326.096C196.625 327.81 197.042 328.848 196.968 328.885Z"
    fill="#263238" />
  <path
    d="M202.779 329.738C202.544 329.538 202.339 329.308 202.167 329.052C201.796 328.589 201.296 327.894 200.721 327.004C197.748 322.331 195.904 317.029 195.337 311.518C195.247 310.687 195.201 309.852 195.198 309.016C195.16 308.708 195.16 308.397 195.198 308.089C195.281 308.089 195.337 309.387 195.624 311.463C196.371 316.885 198.188 322.105 200.972 326.819C202.074 328.626 202.844 329.692 202.779 329.738Z"
    fill="#263238" />
  <path
    d="M243.667 247.323C243.631 247.578 243.572 247.83 243.49 248.074L242.897 250.196C242.369 252.05 241.618 254.719 240.701 257.972C238.196 266.493 236.358 275.197 235.205 284.004C234.009 292.822 234.772 301.796 237.439 310.286C238.366 313.548 239.292 316.152 239.978 317.95C240.275 318.812 240.525 319.507 240.701 320.016C240.795 320.258 240.872 320.506 240.933 320.758C240.805 320.533 240.696 320.297 240.608 320.054C240.414 319.544 240.136 318.867 239.802 318.015C239.107 316.235 238.134 313.641 237.115 310.378C235.888 306.559 235.034 302.63 234.566 298.646C234.05 293.757 234.106 288.824 234.733 283.948C235.879 275.131 237.764 266.426 240.367 257.925C241.294 254.645 242.147 252.003 242.721 250.187L243.398 248.093C243.464 247.829 243.554 247.571 243.667 247.323V247.323Z"
    fill="#263238" />
  <path
    d="M340.214 308.099C340.214 308.099 340.168 308.025 340.094 307.876L339.769 307.191C339.473 306.551 339.074 305.661 338.565 304.531C338.055 303.4 337.397 301.973 336.711 300.314C336.025 298.655 335.284 296.737 334.441 294.643C333.597 292.548 332.847 290.176 331.948 287.673L330.724 283.726C330.52 283.049 330.307 282.363 330.094 281.668C329.881 280.973 329.723 280.241 329.529 279.518C327.797 273.249 326.719 266.817 326.313 260.325C325.83 253.814 326.505 247.269 328.306 240.994C329.735 235.825 332.357 231.064 335.96 227.093C338.38 224.427 341.311 222.274 344.579 220.763C345.465 220.361 346.379 220.024 347.313 219.753L348.045 219.549L348.295 219.494C348.295 219.494 348.221 219.54 348.064 219.595L347.341 219.846C346.424 220.156 345.526 220.521 344.653 220.939C341.448 222.494 338.579 224.664 336.211 227.324C332.691 231.271 330.131 235.978 328.732 241.077C326.968 247.309 326.313 253.802 326.795 260.261C327.219 266.735 328.299 273.151 330.02 279.407C330.215 280.13 330.391 280.843 330.576 281.548L331.197 283.605C331.605 284.958 332.003 286.274 332.392 287.544C333.319 290.055 334.033 292.409 334.83 294.522L337.026 300.212C337.703 301.88 338.324 303.289 338.805 304.457C339.287 305.624 339.658 306.505 339.927 307.153L340.205 307.858C340.219 307.937 340.222 308.018 340.214 308.099V308.099Z"
    fill="#263238" />
  <g opacity="0.3">
    <path opacity="0.3"
      d="M327.091 266.322C322.569 287.683 322.513 309.656 330.288 330.053C330.733 331.239 332.522 335.447 333.791 335.512C335.395 335.586 336.155 333.593 336.433 332.009C336.998 328.756 337.359 323.408 337.915 320.156C338.638 316.087 339.602 306.662 339.602 306.662C339.602 306.662 335.895 298.118 334.227 293.53C331.178 285.023 328.602 276.905 327.184 266.998"
      fill="black" />
  </g>
  <path
    d="M323.403 349.07C323.299 349.268 323.178 349.457 323.041 349.635L321.929 351.183C321.688 351.516 321.41 351.887 321.123 352.295C320.836 352.702 320.437 353.092 320.057 353.537C319.211 354.566 318.308 355.547 317.351 356.474L315.692 358.096C315.109 358.661 314.441 359.171 313.783 359.746C312.364 360.938 310.886 362.057 309.354 363.1C302.287 367.886 294.237 371.024 285.796 372.284C283.953 372.555 282.097 372.728 280.236 372.803C279.364 372.803 278.521 372.905 277.715 372.887L275.398 372.822C274.065 372.777 272.735 372.662 271.413 372.479C270.829 372.414 270.292 372.368 269.791 372.284L268.438 372.016L266.585 371.626C266.366 371.594 266.152 371.538 265.945 371.46C266.167 371.461 266.387 371.486 266.603 371.534L268.457 371.83L269.81 372.053C270.301 372.127 270.848 372.155 271.432 372.21C272.745 372.366 274.066 372.456 275.389 372.479H277.696C278.503 372.479 279.327 372.405 280.199 372.368C281.922 372.368 283.757 372.043 285.685 371.803C289.847 371.124 293.929 370.028 297.871 368.531C301.784 366.961 305.531 365.005 309.057 362.693C310.589 361.669 312.068 360.568 313.487 359.394C314.145 358.837 314.812 358.337 315.396 357.79L317.073 356.196C318.167 355.214 319.01 354.176 319.807 353.323C320.196 352.888 320.576 352.489 320.891 352.109C321.207 351.729 321.485 351.359 321.735 351.025L322.912 349.542C323.058 349.368 323.223 349.21 323.403 349.07Z"
    fill="#263238" />
  <path
    d="M315.859 334.937C315.866 335.278 315.825 335.618 315.739 335.947C315.579 336.862 315.362 337.765 315.09 338.653C314.216 341.602 312.924 344.411 311.253 346.994C309.589 349.574 307.56 351.899 305.229 353.898C304.531 354.505 303.798 355.072 303.033 355.594C302.763 355.806 302.467 355.983 302.153 356.122C302.106 356.048 303.293 355.195 305.007 353.648C309.498 349.533 312.858 344.335 314.766 338.551C315.498 336.346 315.776 334.918 315.859 334.937Z"
    fill="#263238" />
  <path
    d="M299.039 89.2594C305.538 89.3048 311.914 91.0364 317.543 94.2849C323.171 97.5334 327.86 102.187 331.151 107.792C334.442 113.396 336.221 119.758 336.315 126.257C336.409 132.755 334.815 139.166 331.688 144.864C329.557 148.728 326.508 152.389 322.31 153.732C322.951 142.614 321.186 131.487 317.133 121.114C313.08 110.74 306.835 101.363 298.826 93.6243"
    fill="#12B0EE" />
  <path
    d="M314.173 92.5771C312.254 88.5828 314.312 83.5877 317.731 80.7797C321.151 77.9717 325.618 76.8318 329.927 75.8032C334.236 74.7745 338.703 73.7087 342.197 70.9934C341.697 77.9347 339.973 85.0705 335.478 90.39C330.984 95.7094 323.199 98.6657 316.786 95.9504"
    fill="#12B0EE" />
  <path
    d="M318.621 97.1552C315.674 98.397 312.134 97.6185 309.52 95.8114C306.956 93.8725 304.876 91.3667 303.441 88.4902C301.462 85.0837 300.139 81.3369 299.539 77.4435C298.952 73.5235 299.638 69.5187 301.495 66.0168C306.564 71.4197 312.152 75.9607 315.053 82.7815C316.758 86.7943 316.554 93.2165 314.728 97.1737"
    fill="#12B0EE" />
  <path
    d="M332.994 119.629C333.118 120.049 333.202 120.48 333.245 120.917C333.319 121.334 333.393 121.843 333.439 122.446C333.486 123.048 333.569 123.725 333.587 124.475C333.669 126.249 333.638 128.025 333.495 129.795C333.304 131.96 332.96 134.109 332.466 136.226C331.956 138.338 331.294 140.41 330.483 142.426C329.82 144.072 329.049 145.673 328.175 147.217C327.823 147.885 327.443 148.459 327.128 148.969C326.813 149.479 326.516 149.896 326.266 150.248C326.032 150.619 325.762 150.967 325.46 151.286C325.638 150.885 325.855 150.503 326.109 150.146C326.331 149.785 326.609 149.349 326.896 148.83C327.184 148.311 327.545 147.727 327.879 147.051C328.694 145.496 329.427 143.9 330.075 142.269C331.648 138.258 332.649 134.047 333.05 129.758C333.213 128.005 333.278 126.245 333.245 124.485C333.245 123.734 333.189 123.057 333.17 122.464C333.152 121.871 333.096 121.352 333.059 120.935C332.992 120.503 332.971 120.065 332.994 119.629V119.629Z"
    fill="#263238" />
  <path
    d="M330.103 94.8198C329.782 95.1183 329.438 95.391 329.075 95.6354C328.037 96.2449 326.907 96.683 325.729 96.9328C321.785 97.618 317.735 97.3866 313.895 96.2563H313.756V96.1173C313.691 95.8392 313.626 95.5427 313.561 95.2461C313.073 92.9813 312.969 90.6504 313.255 88.3512C313.465 86.4556 314.133 84.6395 315.201 83.0596C315.948 82.0125 316.893 81.1216 317.982 80.4369C318.382 80.1971 318.8 79.9894 319.233 79.816C318.876 80.1077 318.494 80.3682 318.093 80.5944C317.082 81.3197 316.209 82.2206 315.517 83.2542C314.514 84.7807 313.879 86.5192 313.663 88.3327C313.414 90.5823 313.53 92.8574 314.006 95.07C314.071 95.3666 314.136 95.6539 314.191 95.9319L314.024 95.7558C317.797 96.8632 321.766 97.1383 325.655 96.5621C326.812 96.35 327.933 95.9723 328.982 95.4407C329.334 95.1961 329.709 94.9881 330.103 94.8198V94.8198Z"
    fill="#263238" />
  <path
    d="M333.894 82.7723C333.894 82.8557 332.541 83.0503 330.418 83.699C329.176 84.0674 327.96 84.5162 326.776 85.0428C325.333 85.7014 323.939 86.4633 322.606 87.3225C321.306 88.1902 320.067 89.147 318.899 90.1861C317.947 91.0572 317.05 91.9857 316.211 92.9663C314.784 94.6623 314.071 95.8392 313.987 95.7466C314.103 95.4418 314.255 95.1524 314.441 94.8847C314.895 94.1224 315.4 93.3917 315.952 92.6976C316.759 91.661 317.646 90.6882 318.602 89.7876C319.782 88.6885 321.05 87.6874 322.393 86.7943C323.738 85.9651 325.144 85.2402 326.6 84.6257C327.803 84.1117 329.042 83.6874 330.307 83.3561C331.163 83.1298 332.033 82.9596 332.911 82.8464C333.233 82.7748 333.564 82.7498 333.894 82.7723Z"
    fill="#263238" />
  <path
    d="M318.426 97.044C318.426 97.044 318.426 97.1366 318.426 97.322C318.372 97.584 318.288 97.8389 318.176 98.0819C317.762 98.9972 317.124 99.7939 316.322 100.399C315.137 101.33 313.659 101.81 312.152 101.752C311.236 101.664 310.35 101.376 309.558 100.909C308.765 100.441 308.085 99.8055 307.565 99.0462C307.045 98.2868 306.699 97.4226 306.55 96.5145C306.401 95.6065 306.453 94.6767 306.703 93.7911C307.2 92.3651 308.184 91.1604 309.483 90.39C310.325 89.8779 311.279 89.5789 312.263 89.5189C312.531 89.4951 312.801 89.4951 313.069 89.5189C313.162 89.5257 313.253 89.5476 313.338 89.5837C312.988 89.6271 312.635 89.6519 312.282 89.6579C311.332 89.7957 310.426 90.1474 309.631 90.6865C308.444 91.4447 307.557 92.591 307.12 93.9301C306.895 94.7529 306.851 95.6146 306.992 96.4558C307.133 97.2971 307.454 98.0978 307.934 98.8027C308.414 99.5076 309.042 100.1 309.773 100.539C310.505 100.977 311.323 101.252 312.171 101.344C313.579 101.409 314.967 100.994 316.109 100.167C316.878 99.6072 317.511 98.882 317.963 98.0448C318.287 97.4054 318.38 97.0254 318.426 97.044Z"
    fill="#263238" />
  <path
    d="M307.194 97.2757C307.148 97.2757 306.87 96.766 307.306 96.0431C307.568 95.6443 307.956 95.3444 308.409 95.1905C308.943 95.0141 309.508 94.954 310.067 95.0144C311.459 95.0406 312.817 95.4442 313.997 96.1821C313.941 96.3211 312.236 95.6446 310.03 95.4963C309.594 95.4061 309.143 95.4267 308.717 95.5562C308.291 95.6858 307.905 95.9201 307.593 96.2377C307.38 96.5473 307.243 96.903 307.194 97.2757Z"
    fill="#263238" />
  <path
    d="M301.495 66.0168C300.787 67.2426 300.307 68.5864 300.077 69.9833C299.873 71.5188 299.801 73.0691 299.864 74.6169C299.848 76.5003 300.012 78.381 300.355 80.233C301.088 83.5754 302.429 86.7545 304.312 89.6115C305.063 90.6865 305.73 91.5299 306.166 92.0952C306.425 92.3728 306.669 92.6635 306.898 92.9663C305.787 92.063 304.832 90.9828 304.071 89.7691C302.065 86.9198 300.653 83.6955 299.92 80.2886C299.568 78.4068 299.413 76.4937 299.456 74.5799C299.421 73.0286 299.529 71.4774 299.781 69.9462C299.963 68.8993 300.32 67.8905 300.837 66.9621C300.999 66.6107 301.222 66.2907 301.495 66.0168V66.0168Z"
    fill="#263238" />
  <path
    d="M306.295 77.008C306.798 77.4765 307.238 78.0093 307.602 78.5927C308.548 79.9495 309.37 81.3886 310.058 82.8928C310.748 84.3815 311.295 85.9332 311.689 87.5264C311.899 88.1824 312.005 88.8672 312.004 89.556C311.855 89.556 311.225 86.5256 309.622 83.0688C308.019 79.6121 306.165 77.1007 306.295 77.008Z"
    fill="#263238" />
  <path
    d="M304.729 82.7723C304.831 82.6982 306.388 84.2736 308.436 86.1085C309.724 87.1615 310.917 88.3243 312.004 89.5838C310.6 88.6859 309.293 87.6455 308.102 86.4792C306.797 85.4213 305.66 84.1714 304.729 82.7723V82.7723Z"
    fill="#263238" />
  <path
    d="M328.982 104.532L328.852 104.662L328.444 105.005C327.938 105.426 327.409 105.819 326.859 106.182C325.053 107.393 323.088 108.35 321.021 109.027C318.957 109.709 316.808 110.102 314.636 110.194C313.981 110.233 313.325 110.233 312.671 110.194H312.134H311.948H312.671C313.134 110.194 313.802 110.194 314.627 110.139C316.782 110.004 318.911 109.6 320.965 108.934C323.013 108.251 324.968 107.317 326.785 106.154C327.48 105.7 328.027 105.31 328.398 105.032C328.546 104.921 328.685 104.81 328.824 104.717C328.963 104.625 328.982 104.523 328.982 104.532Z"
    fill="#FAFAFA" />
  <path
    d="M334.44 115.745C334.44 115.745 334.44 115.745 334.31 115.875L333.893 116.218C333.541 116.515 332.967 116.922 332.309 117.386C330.499 118.593 328.552 119.579 326.507 120.324C324.457 121.058 322.326 121.541 320.159 121.76C319.334 121.843 318.658 121.88 318.195 121.88H317.657H317.472C317.533 121.869 317.596 121.869 317.657 121.88H318.195C318.658 121.88 319.325 121.797 320.15 121.704C322.296 121.443 324.407 120.942 326.442 120.212C328.472 119.473 330.415 118.513 332.235 117.349C332.93 116.895 333.476 116.515 333.847 116.227L334.283 115.922C334.385 115.773 334.44 115.736 334.44 115.745Z"
    fill="#FAFAFA" />
  <path
    d="M332.93 132.102C332.803 132.207 332.67 132.303 332.531 132.39C332.164 132.639 331.784 132.868 331.391 133.075C328.805 134.478 325.918 135.235 322.977 135.281C322.411 135.281 321.957 135.281 321.642 135.281C321.479 135.28 321.317 135.258 321.16 135.216C321.324 135.202 321.488 135.202 321.651 135.216C321.957 135.216 322.411 135.216 322.967 135.216C324.42 135.153 325.861 134.935 327.267 134.567C328.672 134.203 330.033 133.687 331.326 133.029C331.827 132.779 332.253 132.556 332.494 132.399C332.63 132.286 332.775 132.187 332.93 132.102Z"
    fill="#FAFAFA" />
  <path
    d="M336.071 129.6C335.674 129.777 335.252 129.892 334.82 129.943C334.399 130.049 333.966 130.099 333.532 130.091C333.93 129.915 334.351 129.799 334.783 129.748C335.203 129.637 335.637 129.587 336.071 129.6V129.6Z"
    fill="#FAFAFA" />
  <path
    d="M326.878 148.839C326.181 148.99 325.464 149.024 324.756 148.941C324.045 148.924 323.342 148.783 322.68 148.524C322.68 148.469 323.606 148.663 324.774 148.747C325.942 148.83 326.869 148.774 326.878 148.839Z"
    fill="#FAFAFA" />
  <path
    d="M309.289 100.38C308.915 100.7 308.501 100.968 308.056 101.177C307.64 101.441 307.191 101.65 306.722 101.798C307.098 101.482 307.512 101.214 307.954 101.001C308.37 100.738 308.819 100.529 309.289 100.38V100.38Z"
    fill="#FAFAFA" />
  <path
    d="M304.683 90.6495C303.712 91.0493 302.782 91.5395 301.903 92.1137C301.083 92.7436 300.32 93.4444 299.623 94.2081C299.76 93.9325 299.938 93.6794 300.151 93.4575C300.638 92.8952 301.189 92.3914 301.792 91.9562C302.402 91.5262 303.061 91.1715 303.756 90.8997C304.048 90.7632 304.362 90.6785 304.683 90.6495V90.6495Z"
    fill="#FAFAFA" />
  <path
    d="M313.032 101.418C313.15 100.496 313.166 99.5636 313.079 98.638C312.93 97.7099 312.675 96.802 312.319 95.9319C312.495 96.1527 312.636 96.3998 312.736 96.664C313.007 97.2837 313.188 97.9391 313.273 98.6101C313.369 99.2833 313.369 99.9666 313.273 100.64C313.234 100.91 313.153 101.173 313.032 101.418V101.418Z"
    fill="#FAFAFA" />
  <path
    d="M341.706 71.1973C341.393 71.5772 341.056 71.9363 340.696 72.2723C339.709 73.198 338.635 74.0266 337.489 74.7467C335.784 75.8033 334.003 76.7325 332.161 77.5269C330.094 78.4537 327.777 79.3804 325.442 80.4647C323.22 81.4818 321.149 82.8009 319.288 84.3848C317.797 85.7059 316.573 87.3009 315.683 89.0833C315.093 90.2907 314.72 91.5925 314.581 92.9293C314.497 93.856 314.581 94.412 314.581 94.412C314.581 94.412 314.581 94.2823 314.581 94.0321C314.552 93.665 314.552 93.2963 314.581 92.9293C314.686 91.5741 315.044 90.2507 315.637 89.0277C316.516 87.2142 317.744 85.5922 319.251 84.255C321.096 82.6413 323.162 81.2995 325.386 80.2701C327.731 79.1394 330.02 78.2405 332.114 77.3323C333.949 76.557 335.727 75.6527 337.434 74.6262C338.578 73.9237 339.657 73.1204 340.659 72.226C341.011 71.9016 341.28 71.6422 341.447 71.4568C341.613 71.2715 341.706 71.1973 341.706 71.1973Z"
    fill="#FAFAFA" />
  <path
    d="M339.204 82.1976C339.165 82.2686 339.122 82.3367 339.074 82.4015L338.694 82.9854C338.36 83.4951 337.841 84.1994 337.156 85.0427C333.591 89.4603 329.047 92.9883 323.885 95.348C322.893 95.7929 322.078 96.1265 321.512 96.3211L320.854 96.5528C320.777 96.5838 320.696 96.6055 320.613 96.6177L320.836 96.5157L321.484 96.2562C322.05 96.0338 322.847 95.6909 323.829 95.2276C328.933 92.809 333.446 89.3045 337.054 84.9593C337.739 84.1253 338.277 83.4302 338.629 82.939L339.046 82.383C339.139 82.2533 339.194 82.1884 339.204 82.1976Z"
    fill="#FAFAFA" />
  <path
    d="M300.521 69.1678C301.491 69.5809 302.421 70.0803 303.302 70.6598C305.461 72.0524 307.379 73.7864 308.982 75.7939C310.58 77.8102 311.833 80.0774 312.689 82.5035C313.052 83.4989 313.322 84.5258 313.496 85.571C313.468 85.5052 313.446 85.437 313.431 85.3671C313.375 85.1725 313.32 84.9779 313.264 84.7555C313.071 84.0077 312.835 83.2713 312.56 82.5498C310.782 77.733 307.517 73.6074 303.237 70.771C302.609 70.3419 301.96 69.9459 301.291 69.5848L300.735 69.2883C300.577 69.2141 300.512 69.1771 300.521 69.1678Z"
    fill="#FAFAFA" />
  <path
    d="M254.028 104.022C254.389 108.934 251.145 113.29 247.874 116.997C244.603 120.704 240.97 124.522 240.266 129.396C239.015 138.033 247.466 146.078 245.724 154.603C244.797 159.191 241.035 162.87 240.368 167.504C239.719 171.98 242.119 176.363 245.094 179.774C248.069 183.184 251.516 182.684 254.148 186.363C257.199 190.522 261.088 193.995 265.565 196.557C275.037 201.747 286.417 194.24 290.986 192.85"
    fill="#263238" />
  <path
    d="M325.72 124.151C330.094 122.251 330.437 106.543 319.474 104.782C315.072 104.059 311.411 101.909 307.713 99.4257C304.442 97.22 303.469 91.6318 300.698 88.8238C297.279 85.3587 293 82.8657 288.3 81.6006C283.599 80.3355 278.647 80.3439 273.951 81.625C269.255 82.9061 264.984 85.4137 261.578 88.8904C258.171 92.3671 255.75 96.6878 254.565 101.409C252.971 107.748 254.065 115.254 259.06 119.471C264.861 124.364 273.47 123.271 280.903 121.751C288.335 120.231 296.759 118.73 302.968 123.094C306.675 125.726 308.862 130.017 311.151 133.974C313.44 137.932 316.313 141.991 320.641 143.483C320.641 143.483 323.94 151.23 321.244 156.614C318.547 161.999 324.413 152.815 324.413 152.815C324.413 152.815 335.08 133.835 325.72 124.151"
    fill="#263238" />
  <path
    d="M270.199 234.043C270.134 223.849 270.199 195.12 270.199 195.167C270.199 195.213 253.963 192.433 250.636 171.238C248.986 160.692 249.561 143.436 250.478 129.285C251.312 116.57 259.745 100.992 272.432 102.41L311.967 112.428C313.828 112.619 315.548 113.506 316.782 114.912C318.016 116.318 318.673 118.139 318.621 120.008V120.008L316.221 218.242L270.199 234.043Z"
    fill="#FFBE9D" />
  <path
    d="M257.206 141.398C257.191 142.111 257.456 142.802 257.945 143.322C258.434 143.841 259.107 144.149 259.82 144.178C260.163 144.203 260.509 144.159 260.836 144.049C261.163 143.939 261.464 143.766 261.723 143.538C261.982 143.31 262.193 143.033 262.343 142.723C262.494 142.413 262.581 142.075 262.6 141.731C262.617 141.017 262.353 140.325 261.864 139.805C261.375 139.284 260.7 138.978 259.986 138.951C259.643 138.927 259.298 138.972 258.972 139.082C258.645 139.192 258.344 139.366 258.086 139.594C257.827 139.821 257.616 140.098 257.465 140.408C257.314 140.717 257.226 141.054 257.206 141.398V141.398Z"
    fill="#263238" />
  <path
    d="M254.204 138.284C254.547 138.636 256.604 137.116 259.533 137.135C262.461 137.153 264.592 138.617 264.917 138.256C265.074 138.098 264.732 137.459 263.796 136.782C262.534 135.897 261.027 135.428 259.486 135.439C257.966 135.432 256.483 135.909 255.251 136.801C254.352 137.45 254.028 138.126 254.204 138.284Z"
    fill="#263238" />
  <path
    d="M284.048 141.959C284.033 142.672 284.299 143.363 284.787 143.883C285.276 144.403 285.949 144.71 286.662 144.739C287.006 144.764 287.351 144.721 287.678 144.611C288.005 144.501 288.306 144.327 288.565 144.099C288.824 143.872 289.035 143.594 289.186 143.284C289.336 142.974 289.423 142.637 289.442 142.293C289.46 141.579 289.195 140.887 288.706 140.366C288.217 139.846 287.542 139.539 286.829 139.512C286.485 139.489 286.14 139.533 285.814 139.644C285.488 139.754 285.186 139.928 284.928 140.155C284.669 140.383 284.458 140.66 284.307 140.969C284.156 141.279 284.068 141.615 284.048 141.959V141.959Z"
    fill="#263238" />
  <path
    d="M281.046 138.845C281.389 139.197 283.446 137.678 286.375 137.696C289.303 137.715 291.435 139.179 291.759 138.817C291.917 138.66 291.574 138.02 290.638 137.344C289.376 136.459 287.87 135.989 286.328 136C284.808 135.994 283.325 136.471 282.093 137.362C281.194 138.011 280.87 138.688 281.046 138.845Z"
    fill="#263238" />
  <path
    d="M272.293 160.562C272.293 160.396 270.486 160.081 267.548 159.691C266.798 159.617 266.093 159.469 265.964 158.959C265.905 158.186 266.083 157.414 266.473 156.744C267.178 154.94 267.916 153.047 268.688 151.063C271.774 142.973 274.008 136.319 273.683 136.236C273.359 136.152 270.588 142.575 267.511 150.665C266.761 152.657 266.056 154.557 265.38 156.374C264.905 157.275 264.764 158.316 264.981 159.311C265.088 159.576 265.256 159.813 265.469 160.003C265.683 160.192 265.938 160.33 266.214 160.405C266.624 160.52 267.048 160.579 267.474 160.581C270.44 160.711 272.284 160.729 272.293 160.562Z"
    fill="#263238" />
  <path d="M270.199 195.167C280.177 195.343 290.007 192.744 298.594 187.66C298.363 187.66 290.782 202.395 270.468 200.171L270.199 195.167Z" fill="#EB996E" />
  <path
    d="M273.136 169.005C272.784 167.207 274.906 166.623 276.463 165.65C278.02 164.677 278.91 163.398 280.374 164.51C281.196 165.167 281.819 166.04 282.172 167.031C282.458 167.683 282.561 168.401 282.469 169.107C282.275 169.948 281.817 170.704 281.162 171.266C280.294 172.123 279.191 172.7 277.993 172.925C277.395 173.035 276.781 173.021 276.189 172.882C275.597 172.743 275.041 172.483 274.554 172.119C274.072 171.748 273.696 171.255 273.465 170.692C273.234 170.129 273.156 169.515 273.238 168.912"
    fill="#EB996E" />
  <path
    d="M280.903 162.601C280.43 162.601 280.421 165.752 277.696 167.995C274.972 170.238 271.599 169.848 271.571 170.33C271.524 170.534 272.321 170.951 273.749 170.988C275.608 171.022 277.42 170.398 278.864 169.227C280.246 168.098 281.136 166.477 281.348 164.705C281.468 163.398 281.116 162.583 280.903 162.601Z"
    fill="#263238" />
  <path
    d="M254.611 128.182C255.13 128.85 257.141 128.182 259.569 128.182C261.997 128.182 264.036 128.646 264.518 127.951C264.722 127.608 264.398 126.95 263.508 126.31C262.312 125.541 260.907 125.159 259.486 125.217C258.061 125.236 256.678 125.699 255.529 126.542C254.667 127.163 254.389 127.839 254.611 128.182Z"
    fill="#263238" />
  <path
    d="M281.073 127.971C281.592 128.639 283.603 127.971 286.031 127.971C288.459 127.971 290.498 128.435 290.98 127.74C291.184 127.397 290.86 126.739 289.97 126.099C288.774 125.33 287.369 124.948 285.948 125.006C284.523 125.025 283.14 125.488 281.991 126.331C281.129 126.952 280.851 127.628 281.073 127.971Z"
    fill="#263238" />
  <path
    d="M320.938 183.351C315.109 184.528 314.59 181.562 310.234 177.512C308.068 175.462 306.411 172.933 305.394 170.129C304.377 167.325 304.029 164.322 304.377 161.359C305.035 156.16 307.843 150.86 306.045 145.939C303.654 139.451 294.526 137.422 292.098 130.916C290.689 127.144 291.959 122.724 290.365 119.017C288.863 115.542 285.193 113.531 281.635 112.242C278.076 110.954 274.221 110.065 271.246 107.739C268.271 105.412 266.39 101.02 268.318 97.7576C284.155 99.6528 299.711 103.43 314.654 109.008C318.111 110.306 321.744 111.853 323.792 114.93C325.951 118.183 325.849 122.344 325.645 126.282C324.768 145.318 323.882 164.35 322.986 183.379"
    fill="#263238" />
  <path
    d="M334.449 176.234C334.449 176.234 334.533 176.159 334.681 175.974C334.892 175.701 335.087 175.417 335.265 175.121C335.942 173.977 336.412 172.722 336.655 171.415C337.053 169.33 336.939 167.18 336.321 165.15C335.509 162.424 333.76 160.074 331.382 158.514C328.87 156.744 325.599 155.512 323.514 152.685C322.988 151.98 322.615 151.174 322.417 150.317C322.22 149.461 322.202 148.573 322.365 147.709C322.793 145.818 323.414 143.977 324.218 142.213C325.05 140.201 325.456 138.037 325.409 135.86C325.363 133.683 324.866 131.539 323.949 129.563C322.985 127.449 321.507 125.611 319.649 124.216C317.701 122.869 315.491 121.95 313.162 121.519C310.864 121 308.575 120.694 306.452 120.055C304.355 119.51 302.425 118.453 300.836 116.978C299.426 115.449 298.568 113.491 298.399 111.418C298.202 109.344 297.868 107.285 297.398 105.255C296.451 101.45 294.472 97.9805 291.68 95.2276C289.202 92.8575 286.059 91.2993 282.672 90.7608C279.854 90.2948 276.961 90.743 274.415 92.0397C272.523 92.9971 270.896 94.4074 269.68 96.1451C268.913 97.2331 268.351 98.4515 268.021 99.7408C267.895 100.184 267.826 100.642 267.817 101.103C268.216 99.3944 268.95 97.7817 269.976 96.3583C271.19 94.7209 272.779 93.3987 274.61 92.503C277.055 91.3394 279.803 90.97 282.469 91.4466C285.704 91.9998 288.694 93.5256 291.041 95.8207C293.703 98.4895 295.579 101.84 296.462 105.505C296.9 107.51 297.209 109.54 297.389 111.585C297.577 113.849 298.517 115.985 300.058 117.655C301.748 119.247 303.809 120.391 306.054 120.982C308.287 121.649 310.576 121.955 312.828 122.464C315.036 122.866 317.133 123.732 318.982 125.004C320.721 126.297 322.105 128.009 323.004 129.98C323.876 131.846 324.353 133.872 324.406 135.93C324.458 137.989 324.085 140.037 323.31 141.944C322.493 143.767 321.872 145.671 321.456 147.625C321.284 148.594 321.314 149.588 321.544 150.545C321.774 151.501 322.198 152.4 322.791 153.186C325.098 156.235 328.472 157.412 330.909 159.108C333.2 160.556 334.904 162.769 335.719 165.354C336.358 167.301 336.523 169.372 336.201 171.396C335.917 173.102 335.323 174.741 334.449 176.234V176.234Z"
    fill="#455A64" />
  <path
    d="M306.851 155.178C302.042 166.339 301.17 178.802 304.377 190.524C305.304 193.99 306.657 197.586 305.841 201.089C304.915 204.879 301.782 207.622 299.465 210.754C297.468 213.462 296.066 216.561 295.35 219.849C294.634 223.137 294.622 226.538 295.313 229.831C296.004 233.124 297.384 236.234 299.361 238.956C301.339 241.678 303.869 243.952 306.787 245.627C307.398 242.143 310.642 239.771 313.839 238.214C317.036 236.657 320.567 235.572 323.004 233.015C325.442 230.457 326.137 225.749 323.301 223.627C331.456 221.495 336.081 211.802 334.366 203.554C332.652 195.306 325.933 188.726 318.297 185.195"
    fill="#263238" />
  <path
    d="M315.572 237.472C314.108 238.278 312.699 238.992 312.514 240.642C312.301 242.588 314.163 245.998 314.831 247.824C315.49 249.631 315.613 251.589 315.185 253.464C314.758 255.339 313.797 257.051 312.42 258.393C311.042 259.735 309.307 260.651 307.421 261.03C305.535 261.409 303.581 261.235 301.792 260.529C304.405 260.724 306.62 258.175 306.851 255.571C307.083 252.967 305.814 250.446 304.257 248.334C302.7 246.221 300.818 244.358 299.502 242.097C296.815 237.463 292.821 224.971 295.897 217.955"
    fill="#263238" />
  <path
    d="M322.986 223.988C323.139 223.831 323.306 223.688 323.486 223.562C323.829 223.302 324.32 222.913 324.941 222.385C326.699 220.919 328.296 219.269 329.705 217.464C331.815 214.805 333.351 211.738 334.218 208.456C335.273 204.435 335.066 200.187 333.625 196.288C332.836 194.297 331.7 192.461 330.27 190.867C328.908 189.3 327.425 187.938 326.026 186.604C324.674 185.369 323.404 184.047 322.226 182.647C321.204 181.407 320.365 180.028 319.733 178.55C318.724 176.43 318.431 174.04 318.899 171.739C319.049 171.124 319.279 170.532 319.585 169.978C319.683 169.782 319.805 169.599 319.946 169.431C319.577 170.181 319.285 170.967 319.075 171.776C318.68 174.03 319.004 176.352 320.002 178.411C320.64 179.849 321.476 181.19 322.485 182.396C323.673 183.766 324.941 185.063 326.285 186.279C327.684 187.595 329.186 188.967 330.585 190.561C332.055 192.193 333.22 194.077 334.023 196.121C335.503 200.112 335.707 204.465 334.607 208.577C333.703 211.905 332.108 215.005 329.927 217.677C328.486 219.485 326.837 221.118 325.015 222.542C324.376 223.043 323.857 223.414 323.496 223.655C323.336 223.781 323.166 223.893 322.986 223.988V223.988Z"
    fill="#455A64" />
  <path
    d="M56.6328 334.668C58.9682 337.606 63.12 336.327 64.9086 334.335C66.6972 332.342 67.3737 329.571 67.9575 326.921C69.2827 320.897 70.608 314.576 68.9677 308.636C68.5496 306.827 67.6387 305.168 66.3357 303.845C65.6819 303.197 64.8698 302.733 63.9804 302.497C63.0909 302.261 62.1552 302.262 61.2665 302.501C59.1999 303.196 58.0136 305.337 57.1981 307.357C54.7742 313.328 53.7105 319.764 54.0843 326.198C54.2604 329.191 54.8164 332.305 56.6606 334.668"
    fill="#12B0EE" />
  <g opacity="0.2">
    <path opacity="0.2"
      d="M56.6328 334.668C58.9682 337.606 63.12 336.327 64.9086 334.335C66.6972 332.342 67.3737 329.571 67.9575 326.921C69.2827 320.897 70.608 314.576 68.9677 308.636C68.5496 306.827 67.6387 305.168 66.3357 303.845C65.6819 303.197 64.8698 302.733 63.9804 302.497C63.0909 302.261 62.1552 302.262 61.2665 302.501C59.1999 303.196 58.0136 305.337 57.1981 307.357C54.7742 313.328 53.7105 319.764 54.0843 326.198C54.2604 329.191 54.8164 332.305 56.6606 334.668"
      fill="black" />
  </g>
  <path
    d="M65.6778 349.718C69.1744 347.796 73.1968 347.048 77.1508 347.587C79.273 347.8 81.4972 348.291 83.0263 349.774C84.5554 351.257 84.9909 354.009 83.4433 355.473C82.4266 356.25 81.173 356.653 79.8939 356.613C76.8357 356.762 73.4068 356.437 71.0899 358.467C69.7647 359.607 68.9492 361.404 67.3088 362.025C66.4889 362.273 65.6106 362.246 64.8076 361.948C64.0046 361.65 63.3209 361.098 62.8605 360.376C61.9711 358.893 61.6826 357.125 62.0542 355.436C62.176 354.268 62.5664 353.144 63.1951 352.152C63.8237 351.16 64.6735 350.327 65.6778 349.718V349.718Z"
    fill="#12B0EE" />
  <path
    d="M51.0164 339.478C53.185 336.559 53.3703 332.49 52.11 329.089C50.7335 325.709 48.4501 322.774 45.5116 320.61C42.1557 317.972 38.3142 316.02 34.2054 314.864C32.6096 314.335 30.9188 314.155 29.2474 314.336C28.4112 314.441 27.6135 314.75 26.9238 315.235C26.2341 315.719 25.6733 316.365 25.2902 317.116C24.2801 319.377 25.5497 321.963 26.8749 324.048C29.2116 327.737 31.8362 331.235 34.7244 334.511C37.0412 337.143 39.6732 339.719 43.0187 340.757C46.3642 341.795 49.7653 341.443 51.3593 339.061"
    fill="#12B0EE" />
  <path
    d="M59.4134 380.996C59.5023 380.535 59.5396 380.065 59.5246 379.596C59.5246 378.568 59.5987 377.289 59.6543 375.76C59.7262 373.874 59.8963 371.993 60.164 370.125C60.5154 367.845 61.0547 365.598 61.7766 363.406C62.4762 361.214 63.4841 359.133 64.7699 357.225C65.8095 355.658 67.187 354.344 68.8012 353.379C69.8932 352.749 71.079 352.299 72.3135 352.044C72.7793 351.996 73.2389 351.899 73.6851 351.757C73.2147 351.721 72.7416 351.743 72.2765 351.822C70.9782 351.997 69.7223 352.405 68.5695 353.027C66.8672 353.962 65.4073 355.282 64.3066 356.882C62.9602 358.814 61.9136 360.939 61.202 363.184C60.4787 365.425 59.9546 367.726 59.6358 370.06C59.3892 371.95 59.2592 373.854 59.2466 375.76C59.2466 377.381 59.2466 378.697 59.3022 379.606C59.2937 380.071 59.331 380.537 59.4134 380.996V380.996Z"
    fill="#263238" />
  <path
    d="M59.4964 378.049C59.523 377.833 59.523 377.615 59.4964 377.4C59.4964 376.918 59.4316 376.306 59.376 375.546C59.274 373.934 59.1257 371.608 59.0331 368.735C58.8106 362.98 58.8107 355.028 59.2184 346.252C59.6262 337.476 60.4139 329.571 61.2202 323.862C61.4055 322.435 61.6001 321.147 61.7947 320.016C61.9894 318.886 62.1191 317.922 62.2766 317.125C62.4342 316.328 62.5176 315.781 62.601 315.272C62.6485 315.062 62.6733 314.847 62.6751 314.632C62.5803 314.828 62.5147 315.038 62.4805 315.253L62.0542 317.106C61.8689 317.885 61.6835 318.858 61.4797 319.979C61.2758 321.101 61.0255 322.389 60.8124 323.816C59.6898 331.248 58.9659 338.734 58.6438 346.243C58.2361 355.038 58.3009 363.008 58.6438 368.772C58.7921 371.654 58.996 373.98 59.1721 375.583C59.2647 376.334 59.3389 376.936 59.4038 377.437C59.4079 377.644 59.4391 377.85 59.4964 378.049V378.049Z"
    fill="#263238" />
  <path
    d="M58.5697 362.72C58.574 362.072 58.5275 361.425 58.4307 360.784C58.2091 359.036 57.8998 357.301 57.5039 355.585C56.9176 353.037 56.1874 350.525 55.3168 348.06C54.2737 345.03 53.0164 342.079 51.5543 339.228C49.0031 333.972 45.5174 329.224 41.2675 325.216C40.5285 324.532 39.7486 323.895 38.9321 323.306C38.5707 323.038 38.2556 322.778 37.9405 322.565L37.0138 322.028C36.4765 321.67 35.909 321.36 35.3179 321.101C37.2915 322.456 39.1766 323.935 40.9617 325.531C45.1002 329.571 48.5194 334.288 51.0724 339.478C52.5231 342.307 53.7832 345.229 54.8442 348.226C55.8543 351.007 56.5772 353.518 57.1332 355.64C57.6893 357.762 58.06 359.56 58.2268 360.784C58.2922 361.437 58.4068 362.084 58.5697 362.72V362.72Z"
    fill="#263238" />
  <path d="M122.533 80.2423C118.289 80.6964 117.779 86.0251 117.779 86.0251L120.624 86.368C120.624 83.2264 124.507 81.9475 124.507 81.9475L122.533 80.2423Z" fill="#12B0EE" />
  <path d="M162.086 23.7299C164.681 30.3375 173.448 28.7992 173.448 28.7992L172.734 24.1006C167.72 25.4907 163.949 19.8191 163.949 19.8191L162.086 23.7299Z" fill="#12B0EE" />
  <path d="M58.7542 128C54.5004 128.445 54 133.783 54 133.783L56.8358 134.116C56.8358 130.984 60.7281 129.705 60.7281 129.705L58.7542 128Z" fill="#12B0EE" />
  <path d="M80.7744 44.8317C81.386 40.6058 76.3446 38.7894 76.3446 38.7894L75.3159 41.4584C78.3556 42.2368 78.6244 46.3237 78.6244 46.3237L80.7744 44.8317Z" fill="#12B0EE" />
  <path d="M8.14586 109.712C7.37667 116.339 16.1621 117.942 16.1621 117.942L17.7098 113.605C12.4366 113.132 11.6767 106.923 11.6767 106.923L8.14586 109.712Z" fill="#12B0EE" />
  <path d="M216.819 77.7308C221.082 77.9718 222.454 72.7913 222.454 72.7913L219.673 71.9943C219.173 75.0896 215.123 75.7013 215.123 75.7013L216.819 77.7308Z" fill="#12B0EE" />
  <path
    d="M51.2939 150.75V151.297C51.2939 152.049 51.196 152.723 51 153.32C50.804 153.917 50.5238 154.425 50.1592 154.845C49.7992 155.264 49.3662 155.585 48.8604 155.809C48.3545 156.027 47.7939 156.137 47.1787 156.137C46.568 156.137 46.0098 156.027 45.5039 155.809C45.0026 155.585 44.5674 155.264 44.1982 154.845C43.8291 154.425 43.542 153.917 43.3369 153.32C43.1364 152.723 43.0361 152.049 43.0361 151.297V150.75C43.0361 149.998 43.1364 149.326 43.3369 148.733C43.5374 148.136 43.82 147.628 44.1846 147.209C44.5537 146.785 44.9889 146.464 45.4902 146.245C45.9961 146.022 46.5544 145.91 47.165 145.91C47.7803 145.91 48.3408 146.022 48.8467 146.245C49.3525 146.464 49.7878 146.785 50.1523 147.209C50.5169 147.628 50.7972 148.136 50.9932 148.733C51.1937 149.326 51.2939 149.998 51.2939 150.75ZM49.5781 151.297V150.736C49.5781 150.18 49.5234 149.69 49.4141 149.267C49.3092 148.838 49.152 148.48 48.9424 148.193C48.7373 147.902 48.4844 147.683 48.1836 147.537C47.8828 147.387 47.5433 147.312 47.165 147.312C46.7868 147.312 46.4495 147.387 46.1533 147.537C45.8571 147.683 45.6042 147.902 45.3945 148.193C45.1895 148.48 45.0322 148.838 44.9229 149.267C44.8135 149.69 44.7588 150.18 44.7588 150.736V151.297C44.7588 151.853 44.8135 152.345 44.9229 152.773C45.0322 153.202 45.1917 153.564 45.4014 153.86C45.6156 154.152 45.8708 154.373 46.167 154.523C46.4632 154.669 46.8005 154.742 47.1787 154.742C47.5615 154.742 47.901 154.669 48.1973 154.523C48.4935 154.373 48.7441 154.152 48.9492 153.86C49.1543 153.564 49.3092 153.202 49.4141 152.773C49.5234 152.345 49.5781 151.853 49.5781 151.297Z"
    fill="black" />
  <path
    d="M54.4795 150.183V156H52.832V148.604H54.3838L54.4795 150.183ZM54.1855 152.028L53.6523 152.021C53.6569 151.497 53.7298 151.017 53.8711 150.579C54.0169 150.142 54.2174 149.766 54.4727 149.451C54.7324 149.137 55.0423 148.895 55.4023 148.727C55.7624 148.553 56.1634 148.467 56.6055 148.467C56.9609 148.467 57.2822 148.517 57.5693 148.617C57.861 148.713 58.1094 148.87 58.3145 149.089C58.5241 149.308 58.6836 149.592 58.793 149.943C58.9023 150.29 58.957 150.716 58.957 151.222V156H57.3027V151.215C57.3027 150.859 57.2503 150.579 57.1455 150.374C57.0452 150.164 56.8971 150.016 56.7012 149.93C56.5098 149.839 56.2705 149.793 55.9834 149.793C55.7008 149.793 55.4479 149.852 55.2246 149.971C55.0013 150.089 54.8122 150.251 54.6572 150.456C54.5068 150.661 54.3906 150.898 54.3086 151.167C54.2266 151.436 54.1855 151.723 54.1855 152.028Z"
    fill="black" />
  <path d="M62.4023 145.5V156H60.748V145.5H62.4023Z" fill="black" />
  <path
    d="M66.3535 155.193L68.3633 148.604H70.127L67.1602 157.128C67.0918 157.31 67.0029 157.508 66.8936 157.723C66.7842 157.937 66.6406 158.14 66.4629 158.331C66.2897 158.527 66.0732 158.684 65.8135 158.803C65.5537 158.926 65.2393 158.987 64.8701 158.987C64.7243 158.987 64.583 158.974 64.4463 158.946C64.3141 158.924 64.1888 158.898 64.0703 158.871L64.0635 157.613C64.109 157.618 64.1637 157.622 64.2275 157.627C64.2959 157.632 64.3506 157.634 64.3916 157.634C64.665 157.634 64.8929 157.6 65.0752 157.531C65.2575 157.467 65.4056 157.363 65.5195 157.217C65.638 157.071 65.7383 156.875 65.8203 156.629L66.3535 155.193ZM65.2188 148.604L66.9756 154.141L67.2695 155.877L66.1279 156.171L63.4414 148.604H65.2188Z"
    fill="black" />
  <path
    d="M76.7852 156H75.1377V147.893C75.1377 147.341 75.2402 146.879 75.4453 146.505C75.6549 146.127 75.9535 145.842 76.3408 145.65C76.7282 145.454 77.1862 145.356 77.7148 145.356C77.8789 145.356 78.0407 145.368 78.2002 145.391C78.3597 145.409 78.5146 145.438 78.665 145.479L78.624 146.751C78.5329 146.728 78.4326 146.712 78.3232 146.703C78.2184 146.694 78.1045 146.689 77.9814 146.689C77.7308 146.689 77.5143 146.737 77.332 146.833C77.1543 146.924 77.0176 147.059 76.9219 147.236C76.8307 147.414 76.7852 147.633 76.7852 147.893V156ZM78.3096 148.604V149.807H74.0029V148.604H78.3096Z"
    fill="black" />
  <path
    d="M79.1914 152.384V152.227C79.1914 151.693 79.2689 151.199 79.4238 150.743C79.5788 150.283 79.8021 149.884 80.0938 149.547C80.39 149.205 80.75 148.941 81.1738 148.754C81.6022 148.562 82.0853 148.467 82.623 148.467C83.1654 148.467 83.6484 148.562 84.0723 148.754C84.5007 148.941 84.863 149.205 85.1592 149.547C85.4554 149.884 85.681 150.283 85.8359 150.743C85.9909 151.199 86.0684 151.693 86.0684 152.227V152.384C86.0684 152.917 85.9909 153.411 85.8359 153.867C85.681 154.323 85.4554 154.722 85.1592 155.063C84.863 155.401 84.5029 155.665 84.0791 155.856C83.6553 156.043 83.1745 156.137 82.6367 156.137C82.0944 156.137 81.609 156.043 81.1807 155.856C80.7568 155.665 80.3968 155.401 80.1006 155.063C79.8044 154.722 79.5788 154.323 79.4238 153.867C79.2689 153.411 79.1914 152.917 79.1914 152.384ZM80.8389 152.227V152.384C80.8389 152.716 80.873 153.031 80.9414 153.327C81.0098 153.623 81.1169 153.883 81.2627 154.106C81.4085 154.33 81.5954 154.505 81.8232 154.633C82.0511 154.76 82.3223 154.824 82.6367 154.824C82.9421 154.824 83.2064 154.76 83.4297 154.633C83.6576 154.505 83.8444 154.33 83.9902 154.106C84.1361 153.883 84.2432 153.623 84.3115 153.327C84.3844 153.031 84.4209 152.716 84.4209 152.384V152.227C84.4209 151.898 84.3844 151.589 84.3115 151.297C84.2432 151.001 84.1338 150.739 83.9834 150.511C83.8376 150.283 83.6507 150.105 83.4229 149.978C83.1995 149.845 82.9329 149.779 82.623 149.779C82.3132 149.779 82.0443 149.845 81.8164 149.978C81.5931 150.105 81.4085 150.283 81.2627 150.511C81.1169 150.739 81.0098 151.001 80.9414 151.297C80.873 151.589 80.8389 151.898 80.8389 152.227Z"
    fill="black" />
  <path
    d="M89.1035 150.012V156H87.4561V148.604H89.0283L89.1035 150.012ZM91.3662 148.556L91.3525 150.087C91.2523 150.069 91.1429 150.055 91.0244 150.046C90.9105 150.037 90.7965 150.032 90.6826 150.032C90.4001 150.032 90.1517 150.073 89.9375 150.155C89.7233 150.233 89.5433 150.347 89.3975 150.497C89.2562 150.643 89.1468 150.821 89.0693 151.03C88.9919 151.24 88.9463 151.475 88.9326 151.734L88.5566 151.762C88.5566 151.297 88.6022 150.866 88.6934 150.47C88.7845 150.073 88.9212 149.725 89.1035 149.424C89.2904 149.123 89.5228 148.888 89.8008 148.72C90.0833 148.551 90.4092 148.467 90.7783 148.467C90.8786 148.467 90.9857 148.476 91.0996 148.494C91.2181 148.512 91.307 148.533 91.3662 148.556Z"
    fill="black" />
  <path
    d="M98.0312 155.193L100.041 148.604H101.805L98.8379 157.128C98.7695 157.31 98.6807 157.508 98.5713 157.723C98.4619 157.937 98.3184 158.14 98.1406 158.331C97.9674 158.527 97.751 158.684 97.4912 158.803C97.2314 158.926 96.917 158.987 96.5479 158.987C96.402 158.987 96.2607 158.974 96.124 158.946C95.9919 158.924 95.8665 158.898 95.748 158.871L95.7412 157.613C95.7868 157.618 95.8415 157.622 95.9053 157.627C95.9736 157.632 96.0283 157.634 96.0693 157.634C96.3428 157.634 96.5706 157.6 96.7529 157.531C96.9352 157.467 97.0833 157.363 97.1973 157.217C97.3158 157.071 97.416 156.875 97.498 156.629L98.0312 155.193ZM96.8965 148.604L98.6533 154.141L98.9473 155.877L97.8057 156.171L95.1191 148.604H96.8965Z"
    fill="black" />
  <path
    d="M102.324 152.384V152.227C102.324 151.693 102.402 151.199 102.557 150.743C102.712 150.283 102.935 149.884 103.227 149.547C103.523 149.205 103.883 148.941 104.307 148.754C104.735 148.562 105.218 148.467 105.756 148.467C106.298 148.467 106.781 148.562 107.205 148.754C107.633 148.941 107.996 149.205 108.292 149.547C108.588 149.884 108.814 150.283 108.969 150.743C109.124 151.199 109.201 151.693 109.201 152.227V152.384C109.201 152.917 109.124 153.411 108.969 153.867C108.814 154.323 108.588 154.722 108.292 155.063C107.996 155.401 107.636 155.665 107.212 155.856C106.788 156.043 106.307 156.137 105.77 156.137C105.227 156.137 104.742 156.043 104.313 155.856C103.89 155.665 103.53 155.401 103.233 155.063C102.937 154.722 102.712 154.323 102.557 153.867C102.402 153.411 102.324 152.917 102.324 152.384ZM103.972 152.227V152.384C103.972 152.716 104.006 153.031 104.074 153.327C104.143 153.623 104.25 153.883 104.396 154.106C104.541 154.33 104.728 154.505 104.956 154.633C105.184 154.76 105.455 154.824 105.77 154.824C106.075 154.824 106.339 154.76 106.562 154.633C106.79 154.505 106.977 154.33 107.123 154.106C107.269 153.883 107.376 153.623 107.444 153.327C107.517 153.031 107.554 152.716 107.554 152.384V152.227C107.554 151.898 107.517 151.589 107.444 151.297C107.376 151.001 107.267 150.739 107.116 150.511C106.97 150.283 106.784 150.105 106.556 149.978C106.332 149.845 106.066 149.779 105.756 149.779C105.446 149.779 105.177 149.845 104.949 149.978C104.726 150.105 104.541 150.283 104.396 150.511C104.25 150.739 104.143 151.001 104.074 151.297C104.006 151.589 103.972 151.898 103.972 152.227Z"
    fill="black" />
  <path
    d="M115.032 154.257V148.604H116.687V156H115.128L115.032 154.257ZM115.265 152.719L115.818 152.705C115.818 153.202 115.764 153.66 115.654 154.079C115.545 154.494 115.376 154.856 115.148 155.166C114.921 155.471 114.629 155.711 114.273 155.884C113.918 156.052 113.492 156.137 112.995 156.137C112.635 156.137 112.305 156.084 112.004 155.979C111.703 155.875 111.443 155.713 111.225 155.494C111.01 155.275 110.844 154.991 110.726 154.64C110.607 154.289 110.548 153.869 110.548 153.382V148.604H112.195V153.396C112.195 153.664 112.227 153.89 112.291 154.072C112.355 154.25 112.441 154.394 112.551 154.503C112.66 154.612 112.788 154.69 112.934 154.735C113.079 154.781 113.234 154.804 113.398 154.804C113.868 154.804 114.237 154.713 114.506 154.53C114.779 154.343 114.973 154.093 115.087 153.778C115.205 153.464 115.265 153.111 115.265 152.719Z"
    fill="black" />
  <path
    d="M119.92 154.414L119.913 155.59C119.913 156.055 119.797 156.533 119.564 157.025C119.332 157.518 119.024 157.923 118.642 158.242L117.76 157.729C117.887 157.524 118.004 157.317 118.108 157.107C118.213 156.898 118.298 156.674 118.361 156.438C118.425 156.201 118.457 155.938 118.457 155.651V154.414H119.92Z"
    fill="black" />
  <path d="M127.193 146.047V156H124.965V146.047H127.193ZM131.11 150.244V151.967H126.571V150.244H131.11ZM131.548 146.047V147.776H126.571V146.047H131.548Z" fill="black" />
  <path d="M139.129 154.277V156H134.104V154.277H139.129ZM134.863 146.047V156H132.635V146.047H134.863Z" fill="black" />
  <path
    d="M144.495 147.94L141.925 156H139.546L143.23 146.047H144.734L144.495 147.94ZM146.628 156L144.051 147.94L143.784 146.047H145.309L149.007 156H146.628ZM146.519 152.295V154.018H141.33V152.295H146.519Z"
    fill="black" />
  <path d="M153.635 146.047V156H151.413V146.047H153.635ZM156.663 146.047V147.776H148.446V146.047H156.663Z" fill="black" />
  <path
    d="M162.754 150.114H163.841C164.151 150.114 164.406 150.06 164.606 149.95C164.812 149.841 164.962 149.686 165.058 149.485C165.158 149.285 165.208 149.05 165.208 148.781C165.208 148.549 165.162 148.341 165.071 148.159C164.98 147.977 164.841 147.833 164.654 147.729C164.472 147.619 164.235 147.564 163.943 147.564C163.734 147.564 163.533 147.608 163.342 147.694C163.155 147.776 163.002 147.897 162.884 148.057C162.765 148.212 162.706 148.398 162.706 148.617H160.566C160.566 148.061 160.717 147.58 161.018 147.175C161.323 146.769 161.726 146.457 162.228 146.238C162.733 146.015 163.285 145.903 163.882 145.903C164.57 145.903 165.174 146.013 165.693 146.231C166.217 146.446 166.623 146.765 166.91 147.188C167.202 147.608 167.348 148.127 167.348 148.747C167.348 149.071 167.27 149.383 167.115 149.684C166.965 149.98 166.748 150.244 166.466 150.477C166.188 150.704 165.855 150.887 165.468 151.023C165.085 151.156 164.659 151.222 164.189 151.222H162.754V150.114ZM162.754 151.721V150.634H164.189C164.709 150.634 165.174 150.693 165.584 150.812C165.994 150.93 166.343 151.101 166.63 151.324C166.917 151.548 167.136 151.819 167.286 152.138C167.437 152.457 167.512 152.812 167.512 153.204C167.512 153.669 167.421 154.084 167.238 154.448C167.056 154.813 166.801 155.12 166.473 155.371C166.145 155.622 165.759 155.813 165.317 155.945C164.875 156.073 164.397 156.137 163.882 156.137C163.467 156.137 163.055 156.08 162.645 155.966C162.234 155.852 161.863 155.679 161.53 155.446C161.198 155.209 160.931 154.911 160.73 154.551C160.53 154.186 160.43 153.753 160.43 153.252H162.569C162.569 153.484 162.629 153.694 162.747 153.881C162.87 154.063 163.036 154.209 163.246 154.318C163.46 154.423 163.693 154.476 163.943 154.476C164.244 154.476 164.499 154.421 164.709 154.312C164.923 154.198 165.085 154.043 165.194 153.847C165.308 153.651 165.365 153.425 165.365 153.17C165.365 152.824 165.304 152.546 165.181 152.336C165.062 152.122 164.889 151.967 164.661 151.871C164.433 151.771 164.16 151.721 163.841 151.721H162.754Z"
    fill="black" />
  <path
    d="M175.578 150.135V151.905C175.578 152.634 175.496 153.266 175.332 153.799C175.173 154.332 174.94 154.772 174.635 155.118C174.334 155.465 173.974 155.722 173.555 155.891C173.14 156.055 172.68 156.137 172.174 156.137C171.768 156.137 171.39 156.084 171.039 155.979C170.688 155.875 170.371 155.713 170.089 155.494C169.811 155.271 169.572 154.993 169.371 154.66C169.171 154.327 169.016 153.931 168.906 153.471C168.801 153.01 168.749 152.489 168.749 151.905V150.135C168.749 149.396 168.829 148.763 168.988 148.234C169.152 147.706 169.387 147.268 169.692 146.922C169.998 146.576 170.358 146.32 170.772 146.156C171.192 145.992 171.654 145.91 172.16 145.91C172.566 145.91 172.942 145.963 173.288 146.067C173.639 146.172 173.956 146.334 174.238 146.553C174.521 146.771 174.76 147.047 174.956 147.38C175.157 147.713 175.309 148.109 175.414 148.569C175.523 149.025 175.578 149.547 175.578 150.135ZM173.445 152.172V149.854C173.445 149.513 173.425 149.216 173.384 148.966C173.347 148.711 173.293 148.494 173.22 148.316C173.151 148.139 173.065 147.995 172.96 147.886C172.855 147.776 172.734 147.697 172.598 147.646C172.465 147.592 172.32 147.564 172.16 147.564C171.96 147.564 171.78 147.605 171.62 147.688C171.461 147.77 171.326 147.899 171.217 148.077C171.107 148.25 171.023 148.485 170.964 148.781C170.909 149.073 170.882 149.431 170.882 149.854V152.172C170.882 152.514 170.9 152.812 170.937 153.067C170.978 153.323 171.032 153.541 171.101 153.724C171.174 153.901 171.262 154.047 171.367 154.161C171.472 154.271 171.593 154.35 171.729 154.4C171.866 154.451 172.014 154.476 172.174 154.476C172.374 154.476 172.552 154.437 172.707 154.359C172.862 154.277 172.994 154.147 173.104 153.97C173.217 153.787 173.302 153.548 173.356 153.252C173.416 152.956 173.445 152.596 173.445 152.172Z"
    fill="black" />
  <path
    d="M176.843 148.487V147.961C176.843 147.583 176.925 147.239 177.089 146.929C177.253 146.619 177.497 146.37 177.82 146.184C178.148 145.997 178.549 145.903 179.023 145.903C179.516 145.903 179.924 145.997 180.247 146.184C180.571 146.37 180.812 146.619 180.972 146.929C181.136 147.239 181.218 147.583 181.218 147.961V148.487C181.218 148.856 181.136 149.196 180.972 149.506C180.812 149.816 180.571 150.064 180.247 150.251C179.928 150.438 179.527 150.531 179.044 150.531C178.561 150.531 178.155 150.438 177.827 150.251C177.504 150.064 177.257 149.816 177.089 149.506C176.925 149.196 176.843 148.856 176.843 148.487ZM178.237 147.961V148.487C178.237 148.638 178.267 148.779 178.326 148.911C178.385 149.043 178.474 149.15 178.593 149.232C178.711 149.314 178.859 149.355 179.037 149.355C179.219 149.355 179.368 149.314 179.481 149.232C179.595 149.15 179.68 149.043 179.734 148.911C179.794 148.779 179.823 148.638 179.823 148.487V147.961C179.823 147.806 179.794 147.662 179.734 147.53C179.68 147.394 179.593 147.284 179.475 147.202C179.356 147.12 179.206 147.079 179.023 147.079C178.85 147.079 178.704 147.12 178.586 147.202C178.472 147.284 178.385 147.394 178.326 147.53C178.267 147.662 178.237 147.806 178.237 147.961ZM181.587 154.086V153.56C181.587 153.186 181.669 152.844 181.833 152.534C182.002 152.224 182.248 151.976 182.571 151.789C182.899 151.602 183.303 151.509 183.781 151.509C184.269 151.509 184.674 151.602 184.998 151.789C185.322 151.976 185.563 152.224 185.723 152.534C185.887 152.844 185.969 153.186 185.969 153.56V154.086C185.969 154.46 185.887 154.801 185.723 155.111C185.563 155.421 185.322 155.67 184.998 155.856C184.679 156.043 184.28 156.137 183.802 156.137C183.314 156.137 182.906 156.043 182.578 155.856C182.25 155.67 182.002 155.421 181.833 155.111C181.669 154.801 181.587 154.46 181.587 154.086ZM182.988 153.56V154.086C182.988 154.241 183.022 154.384 183.091 154.517C183.159 154.649 183.255 154.756 183.378 154.838C183.501 154.92 183.64 154.961 183.795 154.961C184.009 154.961 184.171 154.92 184.28 154.838C184.394 154.756 184.472 154.649 184.513 154.517C184.554 154.384 184.574 154.241 184.574 154.086V153.56C184.574 153.405 184.545 153.261 184.485 153.129C184.431 152.997 184.344 152.89 184.226 152.808C184.107 152.726 183.959 152.685 183.781 152.685C183.604 152.685 183.455 152.726 183.337 152.808C183.218 152.89 183.13 152.997 183.07 153.129C183.016 153.261 182.988 153.405 182.988 153.56ZM184.314 147.476L179.454 155.255L178.436 154.729L183.296 146.949L184.314 147.476Z"
    fill="black" />
  <path
    d="M199.189 150.805V151.249C199.189 152.006 199.085 152.685 198.875 153.286C198.67 153.888 198.376 154.4 197.993 154.824C197.615 155.248 197.164 155.574 196.64 155.802C196.12 156.025 195.544 156.137 194.91 156.137C194.277 156.137 193.698 156.025 193.174 155.802C192.65 155.574 192.194 155.248 191.807 154.824C191.424 154.4 191.128 153.888 190.918 153.286C190.708 152.685 190.604 152.006 190.604 151.249V150.805C190.604 150.048 190.708 149.369 190.918 148.768C191.128 148.161 191.422 147.646 191.8 147.223C192.183 146.799 192.636 146.475 193.16 146.252C193.684 146.024 194.263 145.91 194.896 145.91C195.53 145.91 196.109 146.024 196.633 146.252C197.157 146.475 197.608 146.799 197.986 147.223C198.369 147.646 198.665 148.161 198.875 148.768C199.085 149.369 199.189 150.048 199.189 150.805ZM196.94 151.249V150.791C196.94 150.285 196.895 149.839 196.804 149.451C196.713 149.059 196.58 148.731 196.407 148.467C196.234 148.202 196.02 148.004 195.765 147.872C195.509 147.735 195.22 147.667 194.896 147.667C194.559 147.667 194.265 147.735 194.015 147.872C193.764 148.004 193.552 148.202 193.379 148.467C193.21 148.731 193.08 149.059 192.989 149.451C192.903 149.839 192.859 150.285 192.859 150.791V151.249C192.859 151.75 192.903 152.197 192.989 152.589C193.08 152.976 193.213 153.304 193.386 153.573C193.559 153.842 193.771 154.045 194.021 154.182C194.277 154.318 194.573 154.387 194.91 154.387C195.234 154.387 195.521 154.318 195.771 154.182C196.027 154.045 196.241 153.842 196.414 153.573C196.587 153.304 196.717 152.976 196.804 152.589C196.895 152.197 196.94 151.75 196.94 151.249Z"
    fill="black" />
  <path
    d="M203.106 156H200.96V147.975C200.96 147.405 201.072 146.926 201.295 146.539C201.523 146.152 201.844 145.858 202.259 145.657C202.674 145.457 203.163 145.356 203.729 145.356C203.924 145.356 204.107 145.37 204.275 145.397C204.449 145.42 204.617 145.452 204.781 145.493V147.086C204.695 147.063 204.606 147.047 204.515 147.038C204.424 147.029 204.314 147.024 204.187 147.024C203.959 147.024 203.763 147.061 203.599 147.134C203.439 147.202 203.316 147.309 203.229 147.455C203.147 147.596 203.106 147.77 203.106 147.975V156ZM204.569 148.604V150.101H199.88V148.604H204.569Z"
    fill="black" />
  <path
    d="M208.151 156H206.005V147.975C206.005 147.405 206.117 146.926 206.34 146.539C206.568 146.152 206.889 145.858 207.304 145.657C207.718 145.457 208.208 145.356 208.773 145.356C208.969 145.356 209.152 145.37 209.32 145.397C209.493 145.42 209.662 145.452 209.826 145.493V147.086C209.74 147.063 209.651 147.047 209.56 147.038C209.468 147.029 209.359 147.024 209.231 147.024C209.004 147.024 208.808 147.061 208.644 147.134C208.484 147.202 208.361 147.309 208.274 147.455C208.192 147.596 208.151 147.77 208.151 147.975V156ZM209.614 148.604V150.101H204.925V148.604H209.614Z"
    fill="black" />
  <path
    d="M212.937 146.047L212.677 152.903H210.92L210.66 146.047H212.937ZM210.599 155.029C210.599 154.724 210.708 154.466 210.927 154.257C211.146 154.047 211.435 153.942 211.795 153.942C212.15 153.942 212.435 154.047 212.649 154.257C212.868 154.466 212.978 154.724 212.978 155.029C212.978 155.339 212.868 155.599 212.649 155.809C212.435 156.014 212.15 156.116 211.795 156.116C211.435 156.116 211.146 156.014 210.927 155.809C210.708 155.599 210.599 155.339 210.599 155.029Z"
    fill="black" />
  <path
    d="M88.1602 171.013V164.047H89.8691V171.013C89.8691 171.674 89.7279 172.236 89.4453 172.701C89.1628 173.166 88.7777 173.521 88.29 173.768C87.8024 174.014 87.2487 174.137 86.6289 174.137C85.9954 174.137 85.4326 174.03 84.9404 173.815C84.4528 173.601 84.07 173.273 83.792 172.831C83.514 172.389 83.375 171.828 83.375 171.149H85.0977C85.0977 171.541 85.1592 171.858 85.2822 172.1C85.4098 172.337 85.5876 172.51 85.8154 172.619C86.0479 172.724 86.319 172.776 86.6289 172.776C86.9251 172.776 87.1872 172.71 87.415 172.578C87.6475 172.441 87.8298 172.243 87.9619 171.983C88.0941 171.719 88.1602 171.396 88.1602 171.013Z"
    fill="black" />
  <path
    d="M96.1309 172.257V166.604H97.7852V174H96.2266L96.1309 172.257ZM96.3633 170.719L96.917 170.705C96.917 171.202 96.8623 171.66 96.7529 172.079C96.6436 172.494 96.4749 172.856 96.2471 173.166C96.0192 173.471 95.7275 173.711 95.3721 173.884C95.0166 174.052 94.5905 174.137 94.0938 174.137C93.7337 174.137 93.4033 174.084 93.1025 173.979C92.8018 173.875 92.542 173.713 92.3232 173.494C92.109 173.275 91.9427 172.991 91.8242 172.64C91.7057 172.289 91.6465 171.869 91.6465 171.382V166.604H93.2939V171.396C93.2939 171.664 93.3258 171.89 93.3896 172.072C93.4535 172.25 93.54 172.394 93.6494 172.503C93.7588 172.612 93.8864 172.69 94.0322 172.735C94.1781 172.781 94.333 172.804 94.4971 172.804C94.9665 172.804 95.3356 172.713 95.6045 172.53C95.8779 172.343 96.0716 172.093 96.1855 171.778C96.304 171.464 96.3633 171.111 96.3633 170.719Z"
    fill="black" />
  <path
    d="M103.623 171.997C103.623 171.833 103.582 171.685 103.5 171.553C103.418 171.416 103.261 171.293 103.028 171.184C102.8 171.074 102.463 170.974 102.017 170.883C101.625 170.796 101.265 170.694 100.937 170.575C100.613 170.452 100.335 170.304 100.103 170.131C99.8701 169.958 99.6901 169.753 99.5625 169.516C99.4349 169.279 99.3711 169.005 99.3711 168.695C99.3711 168.395 99.4372 168.11 99.5693 167.841C99.7015 167.572 99.8906 167.335 100.137 167.13C100.383 166.925 100.681 166.763 101.032 166.645C101.388 166.526 101.784 166.467 102.222 166.467C102.841 166.467 103.372 166.572 103.814 166.781C104.261 166.986 104.603 167.267 104.84 167.622C105.077 167.973 105.195 168.369 105.195 168.812H103.548C103.548 168.616 103.498 168.433 103.397 168.265C103.302 168.091 103.156 167.952 102.96 167.848C102.764 167.738 102.518 167.684 102.222 167.684C101.939 167.684 101.704 167.729 101.518 167.82C101.335 167.907 101.199 168.021 101.107 168.162C101.021 168.303 100.978 168.458 100.978 168.627C100.978 168.75 101 168.862 101.046 168.962C101.096 169.058 101.178 169.146 101.292 169.229C101.406 169.306 101.561 169.379 101.757 169.447C101.957 169.516 102.208 169.582 102.509 169.646C103.074 169.764 103.559 169.917 103.965 170.104C104.375 170.286 104.689 170.523 104.908 170.814C105.127 171.102 105.236 171.466 105.236 171.908C105.236 172.236 105.166 172.537 105.024 172.811C104.888 173.079 104.687 173.314 104.423 173.515C104.159 173.711 103.842 173.863 103.473 173.973C103.108 174.082 102.698 174.137 102.242 174.137C101.572 174.137 101.005 174.018 100.54 173.781C100.075 173.54 99.722 173.232 99.4805 172.858C99.2435 172.48 99.125 172.088 99.125 171.683H100.718C100.736 171.988 100.82 172.232 100.971 172.414C101.126 172.592 101.317 172.722 101.545 172.804C101.777 172.881 102.017 172.92 102.263 172.92C102.559 172.92 102.807 172.881 103.008 172.804C103.208 172.722 103.361 172.612 103.466 172.476C103.571 172.334 103.623 172.175 103.623 171.997Z"
    fill="black" />
  <path
    d="M110.069 166.604V167.807H105.899V166.604H110.069ZM107.103 164.792H108.75V171.956C108.75 172.184 108.782 172.359 108.846 172.482C108.914 172.601 109.007 172.681 109.126 172.722C109.244 172.763 109.383 172.783 109.543 172.783C109.657 172.783 109.766 172.776 109.871 172.763C109.976 172.749 110.06 172.735 110.124 172.722L110.131 173.979C109.994 174.021 109.835 174.057 109.652 174.089C109.475 174.121 109.27 174.137 109.037 174.137C108.659 174.137 108.324 174.071 108.032 173.938C107.741 173.802 107.513 173.581 107.349 173.275C107.185 172.97 107.103 172.564 107.103 172.059V164.792Z"
    fill="black" />
  <path
    d="M117.056 174H115.408V165.893C115.408 165.341 115.511 164.879 115.716 164.505C115.925 164.127 116.224 163.842 116.611 163.65C116.999 163.454 117.457 163.356 117.985 163.356C118.149 163.356 118.311 163.368 118.471 163.391C118.63 163.409 118.785 163.438 118.936 163.479L118.895 164.751C118.803 164.728 118.703 164.712 118.594 164.703C118.489 164.694 118.375 164.689 118.252 164.689C118.001 164.689 117.785 164.737 117.603 164.833C117.425 164.924 117.288 165.059 117.192 165.236C117.101 165.414 117.056 165.633 117.056 165.893V174ZM118.58 166.604V167.807H114.273V166.604H118.58Z"
    fill="black" />
  <path
    d="M119.462 170.384V170.227C119.462 169.693 119.539 169.199 119.694 168.743C119.849 168.283 120.073 167.884 120.364 167.547C120.66 167.205 121.021 166.941 121.444 166.754C121.873 166.562 122.356 166.467 122.894 166.467C123.436 166.467 123.919 166.562 124.343 166.754C124.771 166.941 125.133 167.205 125.43 167.547C125.726 167.884 125.951 168.283 126.106 168.743C126.261 169.199 126.339 169.693 126.339 170.227V170.384C126.339 170.917 126.261 171.411 126.106 171.867C125.951 172.323 125.726 172.722 125.43 173.063C125.133 173.401 124.773 173.665 124.35 173.856C123.926 174.043 123.445 174.137 122.907 174.137C122.365 174.137 121.88 174.043 121.451 173.856C121.027 173.665 120.667 173.401 120.371 173.063C120.075 172.722 119.849 172.323 119.694 171.867C119.539 171.411 119.462 170.917 119.462 170.384ZM121.109 170.227V170.384C121.109 170.716 121.144 171.031 121.212 171.327C121.28 171.623 121.387 171.883 121.533 172.106C121.679 172.33 121.866 172.505 122.094 172.633C122.322 172.76 122.593 172.824 122.907 172.824C123.213 172.824 123.477 172.76 123.7 172.633C123.928 172.505 124.115 172.33 124.261 172.106C124.407 171.883 124.514 171.623 124.582 171.327C124.655 171.031 124.691 170.716 124.691 170.384V170.227C124.691 169.898 124.655 169.589 124.582 169.297C124.514 169.001 124.404 168.739 124.254 168.511C124.108 168.283 123.921 168.105 123.693 167.978C123.47 167.845 123.203 167.779 122.894 167.779C122.584 167.779 122.315 167.845 122.087 167.978C121.864 168.105 121.679 168.283 121.533 168.511C121.387 168.739 121.28 169.001 121.212 169.297C121.144 169.589 121.109 169.898 121.109 170.227Z"
    fill="black" />
  <path
    d="M129.374 168.012V174H127.727V166.604H129.299L129.374 168.012ZM131.637 166.556L131.623 168.087C131.523 168.069 131.413 168.055 131.295 168.046C131.181 168.037 131.067 168.032 130.953 168.032C130.671 168.032 130.422 168.073 130.208 168.155C129.994 168.233 129.814 168.347 129.668 168.497C129.527 168.643 129.417 168.821 129.34 169.03C129.262 169.24 129.217 169.475 129.203 169.734L128.827 169.762C128.827 169.297 128.873 168.866 128.964 168.47C129.055 168.073 129.192 167.725 129.374 167.424C129.561 167.123 129.793 166.888 130.071 166.72C130.354 166.551 130.68 166.467 131.049 166.467C131.149 166.467 131.256 166.476 131.37 166.494C131.489 166.512 131.577 166.533 131.637 166.556Z"
    fill="black" />
  <path
    d="M139.546 166.604V167.807H135.376V166.604H139.546ZM136.579 164.792H138.227V171.956C138.227 172.184 138.258 172.359 138.322 172.482C138.391 172.601 138.484 172.681 138.603 172.722C138.721 172.763 138.86 172.783 139.02 172.783C139.133 172.783 139.243 172.776 139.348 172.763C139.452 172.749 139.537 172.735 139.601 172.722L139.607 173.979C139.471 174.021 139.311 174.057 139.129 174.089C138.951 174.121 138.746 174.137 138.514 174.137C138.135 174.137 137.8 174.071 137.509 173.938C137.217 173.802 136.989 173.581 136.825 173.275C136.661 172.97 136.579 172.564 136.579 172.059V164.792Z"
    fill="black" />
  <path
    d="M140.339 170.384V170.227C140.339 169.693 140.416 169.199 140.571 168.743C140.726 168.283 140.95 167.884 141.241 167.547C141.537 167.205 141.897 166.941 142.321 166.754C142.75 166.562 143.233 166.467 143.771 166.467C144.313 166.467 144.796 166.562 145.22 166.754C145.648 166.941 146.01 167.205 146.307 167.547C146.603 167.884 146.828 168.283 146.983 168.743C147.138 169.199 147.216 169.693 147.216 170.227V170.384C147.216 170.917 147.138 171.411 146.983 171.867C146.828 172.323 146.603 172.722 146.307 173.063C146.01 173.401 145.65 173.665 145.227 173.856C144.803 174.043 144.322 174.137 143.784 174.137C143.242 174.137 142.757 174.043 142.328 173.856C141.904 173.665 141.544 173.401 141.248 173.063C140.952 172.722 140.726 172.323 140.571 171.867C140.416 171.411 140.339 170.917 140.339 170.384ZM141.986 170.227V170.384C141.986 170.716 142.021 171.031 142.089 171.327C142.157 171.623 142.264 171.883 142.41 172.106C142.556 172.33 142.743 172.505 142.971 172.633C143.199 172.76 143.47 172.824 143.784 172.824C144.09 172.824 144.354 172.76 144.577 172.633C144.805 172.505 144.992 172.33 145.138 172.106C145.284 171.883 145.391 171.623 145.459 171.327C145.532 171.031 145.568 170.716 145.568 170.384V170.227C145.568 169.898 145.532 169.589 145.459 169.297C145.391 169.001 145.281 168.739 145.131 168.511C144.985 168.283 144.798 168.105 144.57 167.978C144.347 167.845 144.08 167.779 143.771 167.779C143.461 167.779 143.192 167.845 142.964 167.978C142.741 168.105 142.556 168.283 142.41 168.511C142.264 168.739 142.157 169.001 142.089 169.297C142.021 169.589 141.986 169.898 141.986 170.227Z"
    fill="black" />
  <path
    d="M153.108 172.469V163.5H154.763V174H153.266L153.108 172.469ZM148.296 170.384V170.24C148.296 169.68 148.362 169.169 148.494 168.709C148.626 168.244 148.818 167.845 149.068 167.513C149.319 167.175 149.624 166.918 149.984 166.74C150.344 166.558 150.75 166.467 151.201 166.467C151.648 166.467 152.04 166.553 152.377 166.727C152.714 166.9 153.001 167.148 153.238 167.472C153.475 167.791 153.664 168.174 153.806 168.62C153.947 169.062 154.047 169.554 154.106 170.097V170.555C154.047 171.083 153.947 171.566 153.806 172.004C153.664 172.441 153.475 172.82 153.238 173.139C153.001 173.458 152.712 173.704 152.37 173.877C152.033 174.05 151.639 174.137 151.188 174.137C150.741 174.137 150.338 174.043 149.978 173.856C149.622 173.67 149.319 173.408 149.068 173.07C148.818 172.733 148.626 172.337 148.494 171.881C148.362 171.421 148.296 170.922 148.296 170.384ZM149.943 170.24V170.384C149.943 170.721 149.973 171.035 150.032 171.327C150.096 171.619 150.194 171.876 150.326 172.1C150.458 172.318 150.629 172.492 150.839 172.619C151.053 172.742 151.308 172.804 151.604 172.804C151.978 172.804 152.286 172.722 152.527 172.558C152.769 172.394 152.958 172.173 153.095 171.895C153.236 171.612 153.332 171.298 153.382 170.951V169.714C153.354 169.445 153.298 169.194 153.211 168.962C153.129 168.729 153.017 168.527 152.876 168.354C152.735 168.176 152.559 168.039 152.35 167.943C152.145 167.843 151.901 167.793 151.618 167.793C151.317 167.793 151.062 167.857 150.853 167.984C150.643 168.112 150.47 168.287 150.333 168.511C150.201 168.734 150.103 168.994 150.039 169.29C149.975 169.586 149.943 169.903 149.943 170.24Z"
    fill="black" />
  <path
    d="M160.655 172.517V168.989C160.655 168.725 160.607 168.497 160.512 168.306C160.416 168.114 160.27 167.966 160.074 167.861C159.883 167.757 159.641 167.704 159.35 167.704C159.081 167.704 158.848 167.75 158.652 167.841C158.456 167.932 158.304 168.055 158.194 168.21C158.085 168.365 158.03 168.54 158.03 168.736H156.39C156.39 168.445 156.46 168.162 156.602 167.889C156.743 167.615 156.948 167.371 157.217 167.157C157.486 166.943 157.807 166.774 158.181 166.651C158.554 166.528 158.974 166.467 159.438 166.467C159.994 166.467 160.487 166.56 160.915 166.747C161.348 166.934 161.688 167.216 161.934 167.595C162.184 167.968 162.31 168.438 162.31 169.003V172.291C162.31 172.628 162.332 172.931 162.378 173.2C162.428 173.465 162.499 173.695 162.59 173.891V174H160.901C160.824 173.822 160.762 173.597 160.717 173.323C160.676 173.045 160.655 172.776 160.655 172.517ZM160.895 169.502L160.908 170.521H159.726C159.42 170.521 159.151 170.55 158.919 170.609C158.687 170.664 158.493 170.746 158.338 170.855C158.183 170.965 158.067 171.097 157.989 171.252C157.912 171.407 157.873 171.582 157.873 171.778C157.873 171.974 157.919 172.154 158.01 172.318C158.101 172.478 158.233 172.603 158.406 172.694C158.584 172.785 158.798 172.831 159.049 172.831C159.386 172.831 159.68 172.763 159.931 172.626C160.186 172.485 160.386 172.314 160.532 172.113C160.678 171.908 160.756 171.715 160.765 171.532L161.298 172.264C161.243 172.451 161.15 172.651 161.018 172.865C160.885 173.079 160.712 173.285 160.498 173.48C160.288 173.672 160.035 173.829 159.739 173.952C159.448 174.075 159.11 174.137 158.728 174.137C158.244 174.137 157.814 174.041 157.436 173.85C157.057 173.654 156.761 173.392 156.547 173.063C156.333 172.731 156.226 172.355 156.226 171.936C156.226 171.544 156.299 171.197 156.444 170.896C156.595 170.591 156.813 170.336 157.101 170.131C157.392 169.926 157.748 169.771 158.167 169.666C158.586 169.557 159.065 169.502 159.603 169.502H160.895Z"
    fill="black" />
  <path
    d="M166.069 173.193L168.079 166.604H169.843L166.876 175.128C166.808 175.31 166.719 175.508 166.609 175.723C166.5 175.937 166.356 176.14 166.179 176.331C166.006 176.527 165.789 176.684 165.529 176.803C165.27 176.926 164.955 176.987 164.586 176.987C164.44 176.987 164.299 176.974 164.162 176.946C164.03 176.924 163.905 176.898 163.786 176.871L163.779 175.613C163.825 175.618 163.88 175.622 163.943 175.627C164.012 175.632 164.066 175.634 164.107 175.634C164.381 175.634 164.609 175.6 164.791 175.531C164.973 175.467 165.121 175.363 165.235 175.217C165.354 175.071 165.454 174.875 165.536 174.629L166.069 173.193ZM164.935 166.604L166.691 172.141L166.985 173.877L165.844 174.171L163.157 166.604H164.935Z"
    fill="black" />
  <path
    d="M169.966 173.18C169.966 172.924 170.052 172.71 170.226 172.537C170.399 172.359 170.633 172.271 170.93 172.271C171.23 172.271 171.465 172.359 171.634 172.537C171.807 172.71 171.894 172.924 171.894 173.18C171.894 173.435 171.807 173.649 171.634 173.822C171.465 173.995 171.23 174.082 170.93 174.082C170.633 174.082 170.399 173.995 170.226 173.822C170.052 173.649 169.966 173.435 169.966 173.18Z"
    fill="black" />
  <rect x="86" y="188" width="80" height="29" rx="8" fill="#12B0EE" />
  <path
    d="M103.038 203.769H100.475L100.461 202.196H102.539C102.913 202.196 103.211 202.155 103.435 202.073C103.658 201.987 103.82 201.861 103.92 201.697C104.025 201.533 104.077 201.328 104.077 201.082C104.077 200.799 104.025 200.572 103.92 200.398C103.815 200.225 103.649 200.1 103.421 200.022C103.198 199.94 102.908 199.899 102.553 199.899H101.377V208H98.9775V198.047H102.553C103.168 198.047 103.717 198.104 104.2 198.218C104.683 198.327 105.093 198.496 105.431 198.724C105.772 198.951 106.032 199.239 106.21 199.585C106.388 199.927 106.477 200.33 106.477 200.795C106.477 201.201 106.39 201.581 106.217 201.937C106.044 202.292 105.754 202.581 105.349 202.805C104.948 203.023 104.398 203.137 103.701 203.146L103.038 203.769ZM102.942 208H99.8936L100.714 206.154H102.942C103.271 206.154 103.533 206.104 103.729 206.004C103.929 205.899 104.073 205.762 104.159 205.594C104.25 205.421 104.296 205.229 104.296 205.02C104.296 204.764 104.253 204.543 104.166 204.356C104.084 204.17 103.952 204.026 103.77 203.926C103.587 203.821 103.343 203.769 103.038 203.769H101.021L101.035 202.196H103.448L104.009 202.825C104.674 202.798 105.201 202.891 105.588 203.105C105.98 203.32 106.26 203.602 106.429 203.953C106.597 204.304 106.682 204.671 106.682 205.054C106.682 205.705 106.54 206.25 106.258 206.688C105.98 207.125 105.563 207.453 105.007 207.672C104.451 207.891 103.763 208 102.942 208Z"
    fill="white" />
  <path
    d="M112.226 206.202V200.604H114.536V208H112.376L112.226 206.202ZM112.444 204.698L113.046 204.685C113.046 205.181 112.987 205.642 112.868 206.065C112.75 206.485 112.574 206.849 112.342 207.159C112.114 207.469 111.831 207.711 111.494 207.884C111.161 208.052 110.776 208.137 110.339 208.137C109.974 208.137 109.639 208.087 109.334 207.986C109.033 207.882 108.773 207.72 108.555 207.501C108.336 207.278 108.165 206.993 108.042 206.646C107.924 206.296 107.864 205.876 107.864 205.389V200.604H110.168V205.402C110.168 205.566 110.188 205.708 110.229 205.826C110.271 205.945 110.33 206.045 110.407 206.127C110.485 206.204 110.58 206.264 110.694 206.305C110.813 206.341 110.947 206.359 111.098 206.359C111.444 206.359 111.715 206.286 111.911 206.141C112.107 205.995 112.244 205.797 112.321 205.546C112.403 205.295 112.444 205.013 112.444 204.698Z"
    fill="white" />
  <path
    d="M118.077 207.132L119.991 200.604H122.466L119.492 209.101C119.428 209.287 119.344 209.488 119.239 209.702C119.134 209.921 118.991 210.128 118.809 210.324C118.626 210.52 118.392 210.68 118.104 210.803C117.822 210.926 117.471 210.987 117.052 210.987C116.828 210.987 116.664 210.976 116.56 210.953C116.459 210.935 116.304 210.901 116.095 210.851V209.203C116.154 209.203 116.204 209.203 116.245 209.203C116.291 209.203 116.341 209.203 116.396 209.203C116.642 209.203 116.838 209.178 116.983 209.128C117.134 209.078 117.248 209.005 117.325 208.909C117.407 208.813 117.471 208.697 117.517 208.561L118.077 207.132ZM117.592 200.604L119.048 205.778L119.301 208.219H117.756L115.124 200.604H117.592Z"
    fill="white" />
  <path d="M134.976 198.047V208H132.583L129.062 201.807V208H126.663V198.047H129.062L132.583 204.24V198.047H134.976Z" fill="white" />
  <path
    d="M136.097 204.377V204.233C136.097 203.691 136.174 203.192 136.329 202.736C136.484 202.276 136.712 201.877 137.013 201.54C137.313 201.203 137.685 200.941 138.127 200.754C138.569 200.562 139.079 200.467 139.658 200.467C140.242 200.467 140.754 200.562 141.196 200.754C141.643 200.941 142.017 201.203 142.317 201.54C142.618 201.877 142.846 202.276 143.001 202.736C143.156 203.192 143.233 203.691 143.233 204.233V204.377C143.233 204.915 143.156 205.414 143.001 205.874C142.846 206.33 142.618 206.729 142.317 207.07C142.017 207.408 141.645 207.67 141.203 207.856C140.761 208.043 140.251 208.137 139.672 208.137C139.093 208.137 138.58 208.043 138.134 207.856C137.687 207.67 137.313 207.408 137.013 207.07C136.712 206.729 136.484 206.33 136.329 205.874C136.174 205.414 136.097 204.915 136.097 204.377ZM138.4 204.233V204.377C138.4 204.655 138.421 204.915 138.462 205.156C138.503 205.398 138.571 205.61 138.667 205.792C138.763 205.97 138.893 206.109 139.057 206.209C139.221 206.309 139.426 206.359 139.672 206.359C139.913 206.359 140.114 206.309 140.273 206.209C140.438 206.109 140.567 205.97 140.663 205.792C140.759 205.61 140.827 205.398 140.868 205.156C140.909 204.915 140.93 204.655 140.93 204.377V204.233C140.93 203.965 140.909 203.712 140.868 203.475C140.827 203.233 140.759 203.021 140.663 202.839C140.567 202.652 140.438 202.506 140.273 202.401C140.109 202.297 139.904 202.244 139.658 202.244C139.417 202.244 139.214 202.297 139.05 202.401C138.89 202.506 138.763 202.652 138.667 202.839C138.571 203.021 138.503 203.233 138.462 203.475C138.421 203.712 138.4 203.965 138.4 204.233Z"
    fill="white" />
  <path
    d="M146.508 205.799L147.875 200.604H149.317L148.805 203.208L147.451 208H146.296L146.508 205.799ZM145.968 200.604L146.815 205.758L146.911 208H145.51L143.76 200.604H145.968ZM150.534 205.648L151.389 200.604H153.597L151.86 208H150.459L150.534 205.648ZM149.481 200.604L150.862 205.785L151.074 208H149.905L148.579 203.222L148.087 200.604H149.481Z"
    fill="white" />
</svg>