<svg width="44" height="57" viewBox="0 0 44 57" fill="none" xmlns="http://www.w3.org/2000/svg">
  <path d="M27.6362 17.5677H11.2283L1.58496 33.5491H8.68781L3.22427 55.4146L27.759 27.63H20.5376L27.6362 17.5677Z" fill="#FFAFDA" />
  <path
    d="M43.2746 10.9959C43.0184 10.4278 42.4527 10.0624 41.8296 10.0624H37.6664L43.0019 2.49898C43.3433 2.01515 43.3865 1.38136 43.114 0.855557C42.8415 0.330088 42.2988 0 41.7066 0H25.2987C24.7433 0 24.2284 0.290566 23.9413 0.76616L14.7599 15.9824H11.2283C10.6729 15.9824 10.158 16.2729 9.87089 16.7485L0.227874 32.7301C-0.0674797 33.2198 -0.0762746 33.8304 0.204718 34.3285C0.48571 34.8266 1.01329 35.1344 1.58508 35.1344H6.65796L1.68638 55.0305C1.50926 55.7395 1.83979 56.4776 2.48661 56.8179C2.72029 56.9408 2.973 57 3.22371 57C3.66713 57 4.10365 56.8139 4.41259 56.4641L28.9473 28.6795C29.3599 28.2123 29.4603 27.5467 29.2039 26.9785C28.9478 26.4104 28.3821 26.045 27.759 26.045H23.5959L28.9314 18.4816C29.2725 17.9977 29.3158 17.364 29.0433 16.8384C28.7707 16.3128 28.228 15.9827 27.6359 15.9827H18.4626L26.1935 3.17051H38.6482L33.3127 10.7339C32.9714 11.2178 32.9282 11.8515 33.2006 12.3773C33.4731 12.903 34.0159 13.233 34.608 13.233H38.3149L33.3968 18.8027C32.8174 19.4589 32.8795 20.4607 33.5358 21.0402C33.8373 21.3064 34.2116 21.4371 34.5844 21.4371C35.0234 21.4371 35.4599 21.2559 35.7733 20.9012L43.0177 12.6971C43.4304 12.2296 43.531 11.564 43.2746 10.9959ZM19.2424 26.7163C18.9013 27.2001 18.858 27.8339 19.1305 28.3595C19.403 28.8851 19.9458 29.2152 20.5379 29.2152H24.2448L6.3379 49.494L10.2261 33.9335C10.3444 33.46 10.2378 32.9582 9.93758 32.5735C9.63699 32.1887 9.17621 31.9639 8.68814 31.9639H4.3931L12.1233 19.1529H24.5779L19.2424 26.7163Z"
    fill="#D0408E" />
</svg>