<svg width="34" height="65" viewBox="0 0 34 65" fill="none" xmlns="http://www.w3.org/2000/svg">
  <path d="M2 11V6L6 5V1H27.5V6H32V63H27.5V11H2Z" fill="#7ED2FF" />
  <path
    d="M32.0935 4.03482H29.2013V1.32652C29.2013 0.593837 28.6074 0 27.8747 0H5.54506C4.81238 0 4.21854 0.593837 4.21854 1.32652V4.03482H1.32652C0.594058 4.03482 0 4.62888 0 5.36133V63.2213C0 63.9538 0.594058 64.5478 1.32652 64.5478H13.3131H20.1069H32.0935C32.826 64.5478 33.42 63.9538 33.42 63.2213V5.36133C33.42 4.62888 32.8262 4.03482 32.0935 4.03482ZM18.7806 61.8948H14.6399V52.7688H18.7806V61.8948ZM30.767 61.8948H21.4334V51.4423C21.4334 50.7098 20.8393 50.1158 20.1069 50.1158H13.3131C12.5807 50.1158 11.9866 50.7098 11.9866 51.4423V61.8948H2.65303V6.68785H30.767V61.8948ZM26.5484 2.65303V4.03482H6.87179V2.65303H26.5484Z"
    fill="#0757A0" />
  <path
    d="M8.8082 12.9133C8.07575 12.9133 7.48169 13.5074 7.48169 14.2398V16.1443C7.48169 16.8767 8.07575 17.4708 8.8082 17.4708C9.54066 17.4708 10.1347 16.8767 10.1347 16.1443V14.2398C10.1347 13.5072 9.54066 12.9133 8.8082 12.9133Z"
    fill="#0757A0" />
  <path
    d="M14.076 12.9133C13.3436 12.9133 12.7495 13.5074 12.7495 14.2398V16.1443C12.7495 16.8767 13.3436 17.4708 14.076 17.4708C14.8085 17.4708 15.4025 16.8767 15.4025 16.1443V14.2398C15.4025 13.5072 14.8085 12.9133 14.076 12.9133Z"
    fill="#0757A0" />
  <path
    d="M19.3441 12.9133C18.6116 12.9133 18.0176 13.5074 18.0176 14.2398V16.1443C18.0176 16.8767 18.6116 17.4708 19.3441 17.4708C20.0766 17.4708 20.6706 16.8767 20.6706 16.1443V14.2398C20.6706 13.5072 20.0766 12.9133 19.3441 12.9133Z"
    fill="#0757A0" />
  <path
    d="M24.6122 12.9133C23.8797 12.9133 23.2856 13.5074 23.2856 14.2398V16.1443C23.2856 16.8767 23.8797 17.4708 24.6122 17.4708C25.3446 17.4708 25.9387 16.8767 25.9387 16.1443V14.2398C25.9387 13.5072 25.3446 12.9133 24.6122 12.9133Z"
    fill="#0757A0" />
  <path
    d="M8.8082 19.4668C8.07575 19.4668 7.48169 20.0609 7.48169 20.7933V22.6977C7.48169 23.4302 8.07575 24.0243 8.8082 24.0243C9.54066 24.0243 10.1347 23.4302 10.1347 22.6977V20.7933C10.1347 20.0606 9.54066 19.4668 8.8082 19.4668Z"
    fill="#0757A0" />
  <path
    d="M14.076 19.4668C13.3436 19.4668 12.7495 20.0609 12.7495 20.7933V22.6977C12.7495 23.4302 13.3436 24.0243 14.076 24.0243C14.8085 24.0243 15.4025 23.4302 15.4025 22.6977V20.7933C15.4025 20.0606 14.8085 19.4668 14.076 19.4668Z"
    fill="#0757A0" />
  <path
    d="M19.3441 19.4668C18.6116 19.4668 18.0176 20.0609 18.0176 20.7933V22.6977C18.0176 23.4302 18.6116 24.0243 19.3441 24.0243C20.0766 24.0243 20.6706 23.4302 20.6706 22.6977V20.7933C20.6706 20.0606 20.0766 19.4668 19.3441 19.4668Z"
    fill="#0757A0" />
  <path
    d="M24.6122 19.4668C23.8797 19.4668 23.2856 20.0609 23.2856 20.7933V22.6977C23.2856 23.4302 23.8797 24.0243 24.6122 24.0243C25.3446 24.0243 25.9387 23.4302 25.9387 22.6977V20.7933C25.9387 20.0606 25.3446 19.4668 24.6122 19.4668Z"
    fill="#0757A0" />
  <path
    d="M8.8082 26.0203C8.07575 26.0203 7.48169 26.6143 7.48169 27.3468V29.2512C7.48169 29.9837 8.07575 30.5777 8.8082 30.5777C9.54066 30.5777 10.1347 29.9837 10.1347 29.2512V27.3468C10.1347 26.6141 9.54066 26.0203 8.8082 26.0203Z"
    fill="#0757A0" />
  <path
    d="M14.076 26.0203C13.3436 26.0203 12.7495 26.6143 12.7495 27.3468V29.2512C12.7495 29.9837 13.3436 30.5777 14.076 30.5777C14.8085 30.5777 15.4025 29.9837 15.4025 29.2512V27.3468C15.4025 26.6141 14.8085 26.0203 14.076 26.0203Z"
    fill="#0757A0" />
  <path
    d="M19.3441 26.0203C18.6116 26.0203 18.0176 26.6143 18.0176 27.3468V29.2512C18.0176 29.9837 18.6116 30.5777 19.3441 30.5777C20.0766 30.5777 20.6706 29.9837 20.6706 29.2512V27.3468C20.6706 26.6141 20.0766 26.0203 19.3441 26.0203Z"
    fill="#0757A0" />
  <path
    d="M24.6122 26.0203C23.8797 26.0203 23.2856 26.6143 23.2856 27.3468V29.2512C23.2856 29.9837 23.8797 30.5777 24.6122 30.5777C25.3446 30.5777 25.9387 29.9837 25.9387 29.2512V27.3468C25.9387 26.6141 25.3446 26.0203 24.6122 26.0203Z"
    fill="#0757A0" />
  <path
    d="M8.8082 32.5735C8.07575 32.5735 7.48169 33.1675 7.48169 33.9V35.8044C7.48169 36.5369 8.07575 37.131 8.8082 37.131C9.54066 37.131 10.1347 36.5369 10.1347 35.8044V33.9C10.1347 33.1675 9.54066 32.5735 8.8082 32.5735Z"
    fill="#0757A0" />
  <path
    d="M14.076 32.5735C13.3436 32.5735 12.7495 33.1675 12.7495 33.9V35.8044C12.7495 36.5369 13.3436 37.131 14.076 37.131C14.8085 37.131 15.4025 36.5369 15.4025 35.8044V33.9C15.4025 33.1675 14.8085 32.5735 14.076 32.5735Z"
    fill="#0757A0" />
  <path
    d="M19.3441 32.5735C18.6116 32.5735 18.0176 33.1675 18.0176 33.9V35.8044C18.0176 36.5369 18.6116 37.131 19.3441 37.131C20.0766 37.131 20.6706 36.5369 20.6706 35.8044V33.9C20.6706 33.1675 20.0766 32.5735 19.3441 32.5735Z"
    fill="#0757A0" />
  <path
    d="M24.6122 32.5735C23.8797 32.5735 23.2856 33.1675 23.2856 33.9V35.8044C23.2856 36.5369 23.8797 37.131 24.6122 37.131C25.3446 37.131 25.9387 36.5369 25.9387 35.8044V33.9C25.9387 33.1675 25.3446 32.5735 24.6122 32.5735Z"
    fill="#0757A0" />
  <path
    d="M8.8082 39.1274C8.07575 39.1274 7.48169 39.7215 7.48169 40.454V42.3584C7.48169 43.0908 8.07575 43.6849 8.8082 43.6849C9.54066 43.6849 10.1347 43.0908 10.1347 42.3584V40.454C10.1347 39.7213 9.54066 39.1274 8.8082 39.1274Z"
    fill="#0757A0" />
  <path
    d="M14.076 39.1274C13.3436 39.1274 12.7495 39.7215 12.7495 40.454V42.3584C12.7495 43.0908 13.3436 43.6849 14.076 43.6849C14.8085 43.6849 15.4025 43.0908 15.4025 42.3584V40.454C15.4025 39.7213 14.8085 39.1274 14.076 39.1274Z"
    fill="#0757A0" />
  <path
    d="M19.3441 39.1274C18.6116 39.1274 18.0176 39.7215 18.0176 40.454V42.3584C18.0176 43.0908 18.6116 43.6849 19.3441 43.6849C20.0766 43.6849 20.6706 43.0908 20.6706 42.3584V40.454C20.6706 39.7213 20.0766 39.1274 19.3441 39.1274Z"
    fill="#0757A0" />
  <path
    d="M24.6122 39.1274C23.8797 39.1274 23.2856 39.7215 23.2856 40.454V42.3584C23.2856 43.0908 23.8797 43.6849 24.6122 43.6849C25.3446 43.6849 25.9387 43.0908 25.9387 42.3584V40.454C25.9387 39.7213 25.3446 39.1274 24.6122 39.1274Z"
    fill="#0757A0" />
</svg>