<svg width="52" height="52" viewBox="0 0 52 52" fill="none" xmlns="http://www.w3.org/2000/svg">
  <path d="M42.7671 16.4668C41.6693 6.22768 21.3063 -4.30534 5.72443 13.1187" stroke="#7ED2FF" stroke-width="5" />
  <path d="M45.7058 36.5264C43.8504 46.6556 22.7612 55.6468 8.51678 37.1133" stroke="#7ED2FF" stroke-width="5" />
  <path
    d="M17.7734 13.8502H7.46485C10.019 9.92487 13.7732 6.93007 18.168 5.31219C22.5628 3.69431 27.3627 3.53998 31.8524 4.87222C36.342 6.20445 40.2809 8.9519 43.0819 12.705C45.8829 16.4581 47.396 21.016 47.3957 25.6991H51.3453C51.3508 20.4174 49.727 15.2626 46.6956 10.9375C43.6641 6.61245 39.3724 3.32764 34.4057 1.53099C29.439 -0.265663 24.039 -0.486707 18.9421 0.897997C13.8451 2.2827 9.29933 5.20576 5.92449 9.26859V2.00125H1.97485V17.7998H17.7734V13.8502Z"
    fill="#0757A0" />
  <path
    d="M33.5719 37.5481H43.8805C41.3264 41.4734 37.5721 44.4682 33.1773 46.0861C28.7826 47.704 23.9826 47.8583 19.493 46.5261C15.0034 45.1939 11.0645 42.4464 8.26348 38.6933C5.46248 34.9402 3.94935 30.3823 3.94965 25.6992H1.3614e-05C-0.00542425 30.9809 1.6183 36.1357 4.64978 40.4608C7.68127 44.7859 11.973 48.0707 16.9397 49.8673C21.9064 51.664 27.3063 51.885 32.4033 50.5003C37.5002 49.1156 42.046 46.1925 45.4209 42.1297V49.3971H49.3705V33.5985H33.5719V37.5481Z"
    fill="#0757A0" />
</svg>