<svg width="23" height="23" viewBox="0 0 23 23" fill="none" xmlns="http://www.w3.org/2000/svg">
  <circle cx="11.5" cy="11.5" r="11.5" fill="#FFCAE3" />
  <path
    d="M9.3111 7.4832L9.31058 9.36686C10.7237 9.49827 11.9737 10.2006 12.8271 11.2403C12.6047 11.5031 12.4203 11.7992 12.2826 12.12C11.6089 11.1519 10.5393 10.4792 9.31033 10.3382L9.30984 12.1729C9.30978 12.3682 9.19202 12.5444 9.01153 12.6191C8.95182 12.6438 8.88913 12.6559 8.82692 12.6559C8.7012 12.6559 8.57758 12.6067 8.48519 12.5142L6.14137 10.1688C5.9528 9.98007 5.95289 9.67421 6.14156 9.48558L8.48661 7.1414C8.62482 7.00326 8.83265 6.96204 9.01304 7.03682C9.19353 7.11161 9.31116 7.28781 9.3111 7.4832Z"
    fill="white" />
  <path
    d="M11.8375 8.85219V8.54357C11.8375 8.32179 11.8917 8.12006 12 7.93836C12.1084 7.75666 12.2679 7.61104 12.4786 7.50149C12.6893 7.39193 12.9481 7.33716 13.2551 7.33716C13.5711 7.33716 13.8345 7.39193 14.0452 7.50149C14.2589 7.61104 14.4184 7.75666 14.5237 7.93836C14.6321 8.12006 14.6863 8.32179 14.6863 8.54357V8.85219C14.6863 9.06862 14.6321 9.26769 14.5237 9.44938C14.4184 9.63108 14.2604 9.7767 14.0497 9.88626C13.839 9.99581 13.5787 10.0506 13.2687 10.0506C12.9556 10.0506 12.6923 9.99581 12.4786 9.88626C12.2679 9.7767 12.1084 9.63108 12 9.44938C11.8917 9.26769 11.8375 9.06862 11.8375 8.85219ZM12.6998 8.54357V8.85219C12.6998 8.94571 12.7194 9.03522 12.7585 9.12073C12.8006 9.20356 12.8638 9.27169 12.9481 9.32513C13.0354 9.3759 13.1407 9.40129 13.2641 9.40129C13.3936 9.40129 13.4989 9.3759 13.5802 9.32513C13.6614 9.27169 13.7216 9.20356 13.7608 9.12073C13.7999 9.03522 13.8195 8.94571 13.8195 8.85219V8.54357C13.8195 8.44471 13.7984 8.35386 13.7562 8.27103C13.7171 8.18552 13.6554 8.11739 13.5711 8.06662C13.4899 8.01318 13.3845 7.98646 13.2551 7.98646C13.1347 7.98646 13.0324 8.01318 12.9481 8.06662C12.8638 8.11739 12.8006 8.18552 12.7585 8.27103C12.7194 8.35386 12.6998 8.44471 12.6998 8.54357ZM13.6422 13.511V13.2024C13.6422 12.9833 13.6964 12.7829 13.8047 12.6012C13.9161 12.4195 14.0771 12.2739 14.2878 12.1643C14.5015 12.0548 14.7634 12 15.0734 12C15.3864 12 15.6482 12.0548 15.8589 12.1643C16.0696 12.2739 16.2291 12.4195 16.3375 12.6012C16.4458 12.7829 16.5 12.9833 16.5 13.2024V13.511C16.5 13.7301 16.4458 13.9305 16.3375 14.1122C16.2321 14.2939 16.0741 14.4395 15.8634 14.5491C15.6527 14.6587 15.3924 14.7134 15.0824 14.7134C14.7694 14.7134 14.506 14.6587 14.2923 14.5491C14.0786 14.4395 13.9161 14.2939 13.8047 14.1122C13.6964 13.9305 13.6422 13.7301 13.6422 13.511ZM14.509 13.2024V13.511C14.509 13.6072 14.5331 13.6981 14.5813 13.7836C14.6294 13.8691 14.6956 13.9372 14.7799 13.988C14.8672 14.0387 14.968 14.0641 15.0824 14.0641C15.2269 14.0641 15.3397 14.0387 15.421 13.988C15.5023 13.9372 15.5579 13.8691 15.588 13.7836C15.6211 13.6981 15.6377 13.6072 15.6377 13.511V13.2024C15.6377 13.1062 15.6166 13.0167 15.5745 12.9339C15.5324 12.8484 15.4691 12.7802 15.3849 12.7295C15.3036 12.676 15.1998 12.6493 15.0734 12.6493C14.947 12.6493 14.8416 12.676 14.7573 12.7295C14.6761 12.7802 14.6144 12.8484 14.5722 12.9339C14.5301 13.0167 14.509 13.1062 14.509 13.2024ZM16.7314 8.25499L11.8376 14.5001L11.2056 14.2035L16.0994 7.9584L16.7314 8.25499Z"
    fill="white" />
</svg>