<svg width="23" height="23" viewBox="0 0 23 23" fill="none" xmlns="http://www.w3.org/2000/svg">
  <circle cx="11.5" cy="11.5" r="11.5" fill="#FFE9B0" />
  <path
    d="M10.725 9.66272L10.7256 7.5436C10.7256 7.32378 10.5933 7.12556 10.3902 7.04143C10.1872 6.95729 9.95337 7.00367 9.79786 7.15907L7.15928 9.79627C6.947 10.0085 6.94689 10.3526 7.15906 10.5649L9.79627 13.2035C9.90022 13.3076 10.0393 13.3628 10.1808 13.3628C10.2508 13.3628 10.3213 13.3493 10.3885 13.3215C10.5916 13.2374 10.7241 13.0393 10.7241 12.8195L10.7247 10.7555C13.0795 11.0255 14.9144 13.0306 14.9144 15.4565C14.9144 15.7567 15.1577 16 15.4579 16C15.758 16 16.0014 15.7567 16.0014 15.4565C16.0014 12.4308 13.6801 9.93747 10.725 9.66272Z"
    fill="white" />
</svg>