<svg width="200" height="100" viewBox="0 0 200 100" fill="none" xmlns="http://www.w3.org/2000/svg">
  <path
    d="M95.6041 73.8011C95.6041 72.2445 95.6041 70.6878 95.6041 69.1311C95.6041 67.9819 96.0537 67.5192 97.1941 67.5141C99.8064 67.5016 102.419 67.494 105.028 67.5141C107.485 67.5342 109.153 69.0859 109.231 71.5378C109.309 73.9143 109.268 76.2933 109.251 78.6723C109.251 79.6254 108.748 80.1384 107.972 80.1409C107.196 80.1434 106.716 79.5952 106.716 78.6572C106.704 76.3939 106.716 74.1305 106.716 71.8672C106.716 70.5671 106.191 70.049 104.903 70.044C102.906 70.044 100.912 70.0666 98.9172 70.044C98.342 70.044 98.1636 70.1949 98.1762 70.7783C98.2063 73.361 98.1762 75.9462 98.1762 78.5289C98.1762 79.2834 97.9928 79.9498 97.1187 80.1132C96.2446 80.2767 95.6267 79.7084 95.6116 78.7326C95.589 77.0879 95.6116 75.4433 95.6116 73.8011H95.6041Z"
    fill="white" />
  <path
    d="M43.3332 63.0178C43.3457 62.6909 43.1121 62.5702 42.866 62.4645C42.0684 61.7596 41.0438 61.3659 39.9799 61.3555C37.0134 61.3756 34.0495 61.3354 31.083 61.3681C28.7294 61.3958 27.0289 63.1008 27.0163 65.4446C26.9887 69.853 27.0013 74.2589 27.0163 78.6648C27.0163 79.6154 27.481 80.1284 28.2723 80.136C29.0635 80.1435 29.5156 79.633 29.5282 78.6673C29.5432 77.3747 29.5583 76.0796 29.5282 74.7895C29.5106 74.2061 29.6312 73.9471 30.2817 73.9622C32.1581 74.0049 34.0495 73.9923 35.9183 73.9622C36.1498 73.9541 36.3799 74.0026 36.5886 74.1033C36.7974 74.2041 36.9785 74.3541 37.1164 74.5406C38.5959 76.2531 40.108 77.9305 41.6101 79.6154C41.6396 79.6931 41.6878 79.7622 41.7505 79.8166C41.8132 79.871 41.8883 79.909 41.9693 79.9273C42.5847 80.3573 43.1498 80.2165 43.5743 79.6758C43.9988 79.1351 43.9209 78.524 43.4613 77.9984C42.5143 76.9221 41.5649 75.8432 40.6305 74.7619C40.4421 74.5431 40.1105 74.3746 40.1909 73.9898C42.8409 73.7258 44.0666 72.3804 44.0792 69.7147C44.0792 68.573 44.044 67.4287 44.0917 66.2895C44.166 65.148 43.9021 64.0099 43.3332 63.0178ZM41.5573 69.7298C41.5297 70.8841 40.9469 71.4298 39.7764 71.4423C38.1915 71.4574 36.609 71.4423 35.024 71.4423C33.4391 71.4423 31.7964 71.4247 30.1838 71.4423C29.6814 71.4423 29.5081 71.2915 29.5156 70.791C29.5382 69.0885 29.5005 67.386 29.5357 65.6835C29.5608 64.406 30.1185 63.8879 31.4045 63.8854C34.1625 63.8854 36.9205 63.8854 39.6785 63.8854C40.9645 63.8854 41.5196 64.3884 41.5573 65.6709C41.595 67.0415 41.59 68.3818 41.5573 69.7298Z"
    fill="white" />
  <path
    d="M172.454 71.3969C172.371 69.2392 170.803 67.592 168.661 67.5342C166.315 67.4713 163.966 67.4814 161.628 67.5342C160.736 67.5441 159.877 67.8747 159.209 68.4656C158.54 69.0565 158.106 69.8684 157.985 70.7531C157.707 72.7898 157.707 74.855 157.985 76.8917C158.099 77.7611 158.517 78.562 159.164 79.1526C159.812 79.7432 160.647 80.0853 161.522 80.1182C164.602 80.1811 167.684 80.1434 170.766 80.1459C170.986 80.1587 171.206 80.1106 171.402 80.0068C171.597 79.903 171.76 79.7476 171.873 79.5574C172.418 78.6672 171.801 77.6437 170.673 77.6361C167.827 77.616 164.978 77.6361 162.133 77.6361C160.967 77.6361 160.419 77.0904 160.374 76.0141C160.354 75.5111 160.505 75.3502 161.015 75.3602C162.688 75.3879 164.361 75.3602 166.038 75.3602C167.716 75.3602 169.324 75.3602 170.969 75.3602C172.039 75.3602 172.441 74.9478 172.459 73.8639C172.474 73.0416 172.484 72.2192 172.454 71.3969ZM169.942 72.6116C169.799 72.9787 169.507 72.8379 169.274 72.8404C167.895 72.8555 166.511 72.8404 165.139 72.8404C163.818 72.8404 162.499 72.8127 161.181 72.8404C160.595 72.858 160.359 72.7297 160.362 72.086C160.362 70.5042 160.796 70.0314 162.371 70.0289C164.308 70.0289 166.242 70.0289 168.178 70.0289C168.491 70.0151 168.802 70.0812 169.082 70.2211C169.363 70.3609 169.603 70.5699 169.78 70.8283C169.957 71.0866 170.065 71.3859 170.095 71.6979C170.125 72.0099 170.075 72.3243 169.949 72.6116H169.942Z"
    fill="white" />
  <path
    d="M73.0104 72.6946C73.0036 72.6842 72.9948 72.6752 72.9844 72.6684C72.974 72.6615 72.9623 72.6569 72.9501 72.6548C72.9378 72.6526 72.9252 72.6531 72.9131 72.656C72.9011 72.659 72.8897 72.6644 72.8798 72.672C72.0183 72.3979 71.1341 72.5588 70.26 72.5412C68.675 72.511 67.0875 72.5538 65.5026 72.5085C64.8018 72.4884 64.1989 72.1162 64.1261 71.3794C64.0482 70.5922 64.6837 70.2779 65.3443 70.122C65.6325 70.0694 65.9259 70.0508 66.2184 70.0666C69.0392 70.0666 71.86 70.0666 74.6808 70.0666C75.5624 70.0666 76.0673 69.5863 76.0598 68.8092C76.0523 68.0322 75.6378 67.5519 74.8767 67.5519C71.5887 67.5393 68.2932 67.4563 65.0103 67.6223C62.5889 67.7455 61.0039 70.3005 61.7675 72.4632C62.3527 74.1129 63.8724 75.0862 66.0376 75.1214C68.0044 75.1516 69.9736 75.1214 71.9429 75.1214C73.0757 75.1214 73.7615 75.6243 73.7564 76.3612C73.7514 77.098 73.0029 77.6186 71.9379 77.6362C71.7621 77.6362 71.5862 77.6362 71.4104 77.6362C68.6198 77.6362 65.8291 77.6362 63.0385 77.6362C61.8328 77.6362 61.3581 78.5013 61.9031 79.5927L62.0488 79.7687C62.1259 79.8959 62.238 79.9982 62.3716 80.0633C62.5053 80.1284 62.6548 80.1536 62.8024 80.1359C66.1431 80.1359 69.4838 80.1987 72.822 80.0755C74.7687 80.0051 76.3386 78.1643 76.3386 76.3184C76.311 74.5203 74.8642 72.9385 73.0104 72.6946ZM67.286 72.7726H67.3211H67.07H67.286Z"
    fill="white" />
  <path
    d="M60.3079 71.4774C60.2451 69.3449 58.6501 67.6047 56.5653 67.5418C54.1891 67.4714 51.8079 67.4689 49.4342 67.5418C47.3192 67.6072 45.7318 69.3172 45.6891 71.4573C45.6564 73.0416 45.6438 74.6285 45.6891 76.2128C45.7343 77.6462 46.3245 78.8131 47.6232 79.5449C48.057 79.9064 48.6011 80.1087 49.1654 80.1183C52.3253 80.1384 55.4843 80.1468 58.6426 80.1434C58.9251 80.1666 59.2058 80.0805 59.4268 79.9027C59.6479 79.7249 59.7924 79.4691 59.8306 79.1878C59.9512 78.5717 59.8131 78.0285 59.1173 77.8022C58.4718 77.5708 57.7936 77.6563 57.1329 77.6487C54.7266 77.6186 52.3203 77.6286 49.914 77.6487C49.1152 77.6487 48.5551 77.3419 48.2762 76.5825C47.9371 75.6545 48.1306 75.3779 49.1102 75.3779C52.3404 75.3779 55.5681 75.3779 58.7958 75.3779C59.8432 75.3779 60.2878 74.9227 60.3029 73.869C60.323 73.0769 60.3305 72.2696 60.3079 71.4774ZM57.8086 72.5286C57.7082 72.9184 57.4444 72.843 57.1983 72.8455C55.7941 72.8455 54.39 72.8455 52.9834 72.8455C51.5768 72.8455 50.1727 72.8304 48.7686 72.8455C48.3064 72.8455 48.1783 72.6996 48.1632 72.2445C48.113 70.6274 48.648 70.0314 50.233 70.0314C52.1352 70.0314 54.0375 70.0314 55.9398 70.0314C57.3741 70.0591 58.1728 71.1379 57.8086 72.5286Z"
    fill="white" />
  <path
    d="M125.347 71.3166C125.289 69.3702 123.784 67.6349 121.918 67.5696C118.693 67.4589 115.46 67.5042 112.232 67.4966C111.62 67.4966 111.135 67.7707 110.964 68.3919C110.911 68.5297 110.886 68.6766 110.89 68.8241C110.895 68.9717 110.928 69.1169 110.989 69.2513C111.05 69.3856 111.138 69.5065 111.246 69.6068C111.354 69.7071 111.481 69.7848 111.62 69.8354L111.677 69.8857H111.755C112.072 70.102 112.433 70.029 112.78 70.029C115.794 70.029 118.814 70.029 121.84 70.029C122.147 70.2352 122.518 70.4037 122.639 70.7709C122.792 71.2286 123.249 71.7441 122.543 72.1565C119.841 72.0987 117.138 72.0761 114.435 72.1565C113.574 72.1959 112.754 72.5326 112.112 73.1093C111.471 73.6861 111.05 74.4673 110.919 75.3201C110.904 75.4333 110.891 75.5465 110.876 75.6596C110.469 77.8953 112.25 80.0706 114.596 80.1209C116.887 80.1662 119.178 80.1611 121.468 80.1209C122.48 80.1264 123.452 79.7337 124.177 79.0276C124.902 78.3214 125.32 77.3583 125.342 76.3462C125.404 74.6789 125.404 72.999 125.347 71.3166ZM119.944 69.7826H120.486C120.366 69.7826 120.235 69.7826 120.097 69.7826H119.944ZM122.747 76.6354C122.526 77.3898 121.926 77.6413 121.18 77.6413C119.218 77.6413 117.256 77.6413 115.294 77.6413C114.566 77.6413 113.873 77.6187 113.496 76.8491C113.119 76.0796 113.388 75.4383 113.918 74.8574C114.353 74.6877 114.818 74.6115 115.284 74.6336C117.763 74.6336 120.24 74.6336 122.719 74.6185C122.97 75.2657 122.98 75.9816 122.747 76.6354Z"
    fill="white" />
  <path
    d="M94.1949 71.2514C94.1622 70.2669 93.7529 69.3327 93.0516 68.6419C92.3504 67.951 91.4108 67.5564 90.4271 67.5395C87.5804 67.4741 84.7337 67.4741 81.8869 67.5395C80.8775 67.5747 79.921 68.0001 79.2184 68.7265C78.5158 69.453 78.1218 70.4237 78.1192 71.4349C78.0865 73.0494 78.0815 74.6664 78.1192 76.2835C78.1159 76.8732 78.2573 77.4548 78.531 77.977C78.8048 78.4993 79.2024 78.9462 79.6891 79.2786C80.3874 79.9475 81.2489 80.1487 82.1783 80.1487C84.8685 80.1487 87.5561 80.1487 90.2438 80.1487C90.9521 80.1487 91.6429 80.038 92.2156 79.5653C92.81 79.2685 93.3101 78.8117 93.6597 78.2463C94.0094 77.6808 94.1947 77.029 94.1949 76.3639C94.2577 74.6589 94.2577 72.9514 94.1949 71.2514ZM80.6159 71.8021C80.631 70.6553 81.2213 70.0644 82.3566 70.0593C84.9103 70.0493 87.4632 70.0493 90.0152 70.0593C91.1053 70.0593 91.6856 70.6478 91.6981 71.7493C91.7132 73.1576 91.7182 74.5684 91.6981 75.9766C91.6831 77.0278 91.1053 77.5962 90.0453 77.6113C88.7543 77.6289 87.4632 77.6113 86.1721 77.6113C84.881 77.6113 83.6603 77.5937 82.3893 77.6113C81.1183 77.6289 80.631 76.9222 80.631 75.8509C80.6025 74.5047 80.5975 73.155 80.6159 71.8021ZM79.8624 78.6951L79.88 78.6775L79.8624 78.6951Z"
    fill="white" />
  <path
    d="M155.376 77.6236C155.124 77.606 154.848 77.6236 154.584 77.6236C151.913 77.6236 149.244 77.6236 146.577 77.6236C145.584 77.6236 144.869 77.2087 144.833 76.3662C144.756 74.5003 144.557 72.6217 144.964 70.7633L145.466 70.2427C145.883 70.1118 146.318 70.0498 146.755 70.0591C149.518 70.0742 152.281 70.0591 155.044 70.0591C156.071 70.0591 156.669 69.5562 156.649 68.7238C156.629 68.002 156.044 67.5192 155.109 67.5142C152.172 67.5142 149.235 67.5142 146.298 67.5142C145.366 67.5142 144.492 67.7254 143.806 68.4245C143.515 68.5708 143.281 68.8108 143.143 69.106C142.606 69.6594 142.3 70.3968 142.286 71.1682C142.251 72.9587 142.224 74.7517 142.286 76.5372C142.349 78.3227 143.947 80.0328 145.723 80.0881C148.948 80.1862 152.176 80.1485 155.401 80.1309C156.169 80.1309 156.579 79.6279 156.569 78.8735C156.559 78.119 156.139 77.6815 155.376 77.6236ZM143.52 69.526C143.52 69.526 143.517 69.5159 143.52 69.5134V69.526Z"
    fill="white" />
  <path
    d="M140.666 77.6413V73.2304C140.699 72.8213 140.706 72.4106 140.689 72.0006C140.588 70.9696 140.568 69.9133 139.83 69.0533C139.091 68.1932 138.265 67.5821 137.147 67.5595C134.1 67.4941 131.053 67.4061 128.007 67.5997C127.308 67.7557 127.095 68.2561 127.095 68.8999C127.095 72.206 127.095 75.513 127.095 78.8207C127.078 79.0405 127.121 79.2607 127.218 79.4584C127.315 79.6561 127.463 79.8241 127.647 79.9449C127.71 80.1511 127.869 80.0957 128.012 80.0832C128.159 80.141 128.318 80.1602 128.474 80.1391C128.631 80.118 128.779 80.0572 128.906 79.9625C129.551 79.711 129.604 79.1728 129.604 78.5944C129.604 75.9866 129.619 73.3812 129.592 70.7759C129.592 70.2 129.747 70.0215 130.325 70.0416C132.314 70.0768 134.305 70.0768 136.296 70.0416C136.616 70.0147 136.938 70.0666 137.233 70.1929C137.529 70.3191 137.789 70.5158 137.991 70.7659L138.242 71.4524C138.224 73.9437 138.215 76.4325 138.215 78.9188C138.215 79.6204 138.571 79.965 139.262 80.0203C139.868 80.0706 140.365 79.965 140.558 79.296C140.837 78.7629 140.661 78.1946 140.666 77.6413Z"
    fill="white" />
  <path
    d="M111.694 19H80.7835C80.3791 19 79.9913 19.1608 79.7054 19.4471C79.4194 19.7334 79.2588 20.1216 79.2588 20.5265V51.4735C79.2588 51.8784 79.4194 52.2666 79.7054 52.5529C79.9913 52.8392 80.3791 53 80.7835 53H111.694C112.098 53 112.486 52.8392 112.772 52.5529C113.058 52.2666 113.219 51.8784 113.219 51.4735V20.5265C113.219 20.1216 113.058 19.7334 112.772 19.4471C112.486 19.1608 112.098 19 111.694 19V19ZM83.2777 47.8472C83.2195 47.919 83.1468 47.9776 83.0642 48.0192C82.9817 48.0608 82.8914 48.0843 82.7991 48.0884C82.7068 48.0924 82.6147 48.0768 82.5289 48.0426C82.4431 48.0083 82.3655 47.9563 82.3013 47.8898C82.2371 47.8234 82.1877 47.744 82.1563 47.657C82.125 47.5701 82.1124 47.4774 82.1195 47.3852C82.1265 47.293 82.153 47.2033 82.1972 47.1222C82.2415 47.041 82.3024 46.9701 82.376 46.9142C93.6641 36.0201 93.1768 24.784 93.1592 24.6683C93.1493 24.4949 93.2085 24.3247 93.3239 24.195C93.4393 24.0653 93.6014 23.9868 93.7746 23.9768C93.9479 23.9668 94.1179 24.0261 94.2475 24.1416C94.377 24.2572 94.4554 24.4195 94.4654 24.5929C94.493 25.0657 95.0306 36.513 83.2777 47.8472ZM110.222 47.8321C110.101 47.9564 109.936 48.0277 109.763 48.0305C109.59 48.0334 109.423 47.9674 109.298 47.8472C97.5549 36.513 98.0975 25.0657 98.1201 24.5854C98.1301 24.4119 98.2085 24.2496 98.338 24.1341C98.4676 24.0185 98.6377 23.9592 98.8109 23.9692C98.9841 23.9792 99.1462 24.0577 99.2616 24.1874C99.377 24.3171 99.4363 24.4874 99.4263 24.6608C99.4263 24.774 98.9239 36.0126 110.21 46.9067C110.271 46.9662 110.321 47.0374 110.355 47.1162C110.39 47.195 110.408 47.2798 110.41 47.3657C110.412 47.4517 110.396 47.5371 110.365 47.6172C110.334 47.6972 110.287 47.7702 110.227 47.8321H110.222Z"
    fill="white" />
</svg>