<?xml version="1.0" encoding="UTF-8"?>
<svg width="34px" height="34px" viewBox="0 0 34 34" version="1.1" xmlns="http://www.w3.org/2000/svg" xmlns:xlink="http://www.w3.org/1999/xlink">
    <title>sadicon</title>
    <g id="designs" stroke="none" stroke-width="1" fill="none" fill-rule="evenodd" opacity="0.400000006">
        <g id="acc-setup-03.1" transform="translate(-164.000000, -185.000000)" fill="#24272C" fill-rule="nonzero">
            <g id="noun_Sad_329905-(1)" transform="translate(164.000000, 185.000000)">
                <path d="M17,34 C7.626163,34 0,26.3738997 0,16.9998603 C0,7.62610032 7.626163,0 17,0 C26.373837,0 34,7.62610032 34,16.9998603 C34,26.3738997 26.373837,34 17,34 Z M17,1.67668017 C8.55085972,1.67668017 1.67669395,8.55078944 1.67669395,16.9998603 C1.67669395,25.4492106 8.55085972,32.3233198 17,32.3233198 C25.4491403,32.3233198 32.323306,25.4492106 32.323306,16.9998603 C32.323306,8.55078944 25.4494197,1.67668017 17,1.67668017 Z" id="Shape"></path>
                <path d="M23,28 L21.1876098,28 C21.1876098,26.2619678 19.5331997,24.848315 17.5,24.848315 C15.4668003,24.848315 13.8123902,26.2622759 13.8123902,28 L12,28 C12,25.2429302 14.4672671,23 17.5,23 C20.5327329,23 23,25.2426221 23,28 Z" id="Path"></path>
                <polygon id="Path" points="6.72166825 20 6 18.6629867 8.92564856 17.0001274 6 15.3372681 6.72166825 14 12 17.0001274"></polygon>
                <polygon id="Path" points="27.27858 20 22 17.0001274 27.27858 14 28 15.3372681 25.0745997 17.0001274 28 18.6629867"></polygon>
            </g>
        </g>
    </g>
</svg>