<svg width="10" height="10" viewBox="0 0 10 10" fill="none" xmlns="http://www.w3.org/2000/svg">
  <path
    d="M9.54333 6.3896L9.48032 6.36304L7.53664 5.72601L7.30088 4.89882C7.29934 4.89335 7.29797 4.88784 7.29621 4.88241L6.27991 1.3167C6.18896 1.02837 6.09148 0.791837 5.98486 0.592683C5.55943 -0.200138 4.41045 -0.197715 3.99538 0.600929C3.89153 0.800551 3.79835 1.03753 3.71735 1.31362L3.61915 1.65817C3.61897 1.65877 3.61882 1.65936 3.61864 1.65997L3.15648 3.28146C3.15591 3.28334 3.1554 3.28524 3.15486 3.28713L2.51621 5.52784L0.474151 6.38166L0.428155 6.40431C-0.100161 6.70622 -0.149165 7.44973 0.334816 7.81863L0.406281 7.86249L4.53475 9.85486C4.81371 10.043 5.17832 10.0489 5.46347 9.86872L9.57932 7.87387L9.63563 7.84088C10.1597 7.47605 10.1093 6.68498 9.54333 6.3896ZM6.54688 6.69626C6.54675 6.69634 6.54661 6.69644 6.54647 6.69651C6.36767 6.81313 6.12653 6.90497 5.81244 6.96183C5.58179 7.00355 5.31176 7.02641 4.99814 7.02641C4.68463 7.02641 4.41465 7.00355 4.18407 6.96189C3.80249 6.89283 3.52868 6.77207 3.34331 6.618C3.31507 6.59446 3.28876 6.57019 3.2646 6.54516C3.2264 6.50566 3.19964 6.45619 3.18554 6.402C3.17005 6.342 3.17003 6.27611 3.18792 6.21135L3.33325 5.70145C3.7919 5.95538 4.40455 6.09724 5.06072 6.09724C5.65546 6.09724 6.21839 5.95254 6.66434 5.70579L6.80934 6.21456C6.81128 6.22157 6.81296 6.22862 6.81448 6.2357C6.83837 6.35102 6.80698 6.46729 6.73204 6.54478C6.68108 6.59758 6.62112 6.64717 6.55169 6.69302C6.55007 6.69407 6.54852 6.69518 6.54688 6.69626ZM4.99838 2.39505C5.24297 2.39505 5.42982 2.36665 5.69205 2.29449L5.93458 3.14545C5.62138 3.25686 5.29355 3.32422 4.99834 3.32422C4.65785 3.32422 4.3402 3.26796 4.056 3.16563L4.30196 2.30272C4.53014 2.36527 4.74158 2.39505 4.99838 2.39505ZM4.99834 4.15792C5.38015 4.15792 5.78165 4.07943 6.16349 3.94858L6.42673 4.87215C6.10167 5.10671 5.60539 5.26352 5.0607 5.26352C4.42709 5.26352 3.86936 5.09838 3.57142 4.86576L3.82702 3.96898C4.18723 4.09179 4.58199 4.15792 4.99834 4.15792ZM5.25045 0.986652C5.32377 1.12363 5.39457 1.29204 5.46121 1.49317C5.27506 1.54347 5.15103 1.56133 4.9984 1.56133C4.82328 1.56133 4.68647 1.54288 4.53131 1.50105C4.59334 1.29761 4.66205 1.12527 4.73469 0.985655C4.8399 0.783161 5.14092 0.782535 5.25045 0.986652ZM5.07564 9.1303L5.01941 9.1632C5.01332 9.16744 4.92834 9.11914 4.92834 9.11914L0.833387 7.14295C0.833289 7.1399 0.834012 7.13683 0.835555 7.13415L2.35525 6.49871C2.36629 6.5686 2.38363 6.63727 2.40689 6.7039C2.40699 6.70417 2.40707 6.70445 2.40717 6.70472C2.41019 6.71338 2.41342 6.72197 2.41666 6.73057C2.41842 6.73524 2.42013 6.73991 2.42195 6.74456C2.42463 6.7514 2.4274 6.7582 2.43021 6.76498C2.43291 6.77153 2.43566 6.77805 2.43847 6.78454C2.44086 6.79003 2.44328 6.79552 2.44576 6.80098C2.44947 6.8092 2.45334 6.81737 2.45724 6.82552C2.45912 6.82941 2.46095 6.83331 2.46289 6.8372C2.46851 6.84855 2.47431 6.85983 2.48031 6.87101C2.48072 6.87177 2.48109 6.87253 2.4815 6.87327C2.50242 6.91206 2.5257 6.9497 2.55115 6.98608C2.55117 6.9861 2.55117 6.98612 2.55119 6.98614C2.55968 6.99827 2.56845 7.01025 2.57746 7.02209C2.57748 7.02213 2.57752 7.02215 2.57754 7.02219C2.60459 7.05777 2.63375 7.09205 2.66525 7.12462C2.69843 7.15891 2.73351 7.19201 2.77011 7.22416C3.07378 7.49152 3.49642 7.6839 4.04997 7.78318C4.33164 7.83375 4.64713 7.86023 4.99799 7.86023C5.34896 7.86023 5.66453 7.83377 5.94628 7.7832C6.43915 7.69482 6.82821 7.53254 7.12213 7.30921C7.19797 7.25165 7.26774 7.1902 7.33108 7.12474C7.39906 7.05443 7.45662 6.9766 7.50365 6.89352C7.50408 6.89277 7.50449 6.89203 7.50492 6.89129C7.51613 6.8714 7.52672 6.85119 7.5367 6.83071C7.53735 6.82939 7.53799 6.82804 7.53863 6.82671C7.54834 6.8066 7.55748 6.78624 7.566 6.76563C7.5667 6.76393 7.56736 6.76223 7.56807 6.76053C7.57641 6.74007 7.58422 6.71941 7.59139 6.69855C7.59199 6.69677 7.59256 6.69497 7.59317 6.69319C7.60026 6.67222 7.60682 6.65106 7.61272 6.62973C7.61283 6.6293 7.61299 6.62887 7.61311 6.62844L9.1655 7.13722C9.16683 7.1406 9.16702 7.14435 9.16601 7.14783L5.07564 9.1303Z"
    fill="#FF7152" />
</svg>