<svg width="66" height="66" viewBox="0 0 66 66" fill="none" xmlns="http://www.w3.org/2000/svg">
  <path d="M34.7917 12.2258V3.73999H56.8549L60.6735 5.01287L64.4922 12.2258L63.2193 49.9879L60.6735 53.8065H51.3391C54.0546 51.4305 54.7334 48.8564 54.7334 47.8664V12.2258H34.7917Z" fill="#FFAFDA" />
  <path
    d="M58.3319 2.71199V2.51849C58.3319 1.55275 57.5492 0.77002 56.5834 0.77002C55.6601 0.77002 54.9059 1.48612 54.8414 2.39299H51.4709C51.4064 1.48612 50.6522 0.77002 49.7289 0.77002C48.8055 0.77002 48.0513 1.48612 47.9868 2.39299H44.6163C44.5518 1.48612 43.7976 0.77002 42.8743 0.77002C41.9509 0.77002 41.1967 1.48612 41.1322 2.39299H37.7617C37.6972 1.48612 36.9431 0.77002 36.0197 0.77002C35.0963 0.77002 34.3421 1.48612 34.2776 2.39299H30.907C30.8425 1.48612 30.0883 0.77002 29.1649 0.77002C28.2415 0.77002 27.4873 1.48612 27.4228 2.39299H24.0524C23.9879 1.48612 23.2337 0.77002 22.3103 0.77002C21.3869 0.77002 20.6327 1.48612 20.5682 2.39299H17.1972C17.1327 1.48612 16.3785 0.77002 15.4551 0.77002C14.5317 0.77002 13.7776 1.48612 13.7131 2.39299H10.3424C10.2779 1.48612 9.52373 0.77002 8.60034 0.77002C7.6346 0.77002 6.85187 1.55275 6.85187 2.51849V2.71218C2.91004 3.77428 0 7.37846 0 11.651V49.3039C0 52.836 2.87352 55.7095 6.40543 55.7095H18.5969C20.7108 61.3882 26.1859 65.445 32.5919 65.445C38.9979 65.445 44.4729 61.3884 46.5869 55.7095H58.7784C62.3103 55.7095 65.1838 52.836 65.1838 49.3039V11.651C65.1836 7.37846 62.2736 3.77428 58.3319 2.71199ZM3.49694 11.651C3.49694 9.25924 4.96236 7.20362 7.04226 6.33366C7.33115 6.90152 7.9196 7.29143 8.60034 7.29143C9.44718 7.29143 10.153 6.68937 10.314 5.89013H13.7412C13.9023 6.68957 14.6081 7.29143 15.4549 7.29143C16.3018 7.29143 17.0076 6.68937 17.1686 5.89013H20.5958C20.7569 6.68957 21.4627 7.29143 22.3095 7.29143C23.1564 7.29143 23.8622 6.68937 24.0232 5.89013H27.4504C27.6115 6.68957 28.3173 7.29143 29.1641 7.29143C30.011 7.29143 30.7168 6.68937 30.8778 5.89013H34.3052C34.4663 6.68957 35.1721 7.29143 36.0189 7.29143C36.8657 7.29143 37.5715 6.68937 37.7326 5.89013H41.1598C41.3208 6.68957 42.0266 7.29143 42.8735 7.29143C43.7203 7.29143 44.4261 6.68937 44.5872 5.89013H48.0144C48.1754 6.68957 48.8812 7.29143 49.7281 7.29143C50.5749 7.29143 51.2807 6.68937 51.4418 5.89013H54.869C55.03 6.68957 55.7358 7.29143 56.5827 7.29143C57.2634 7.29143 57.8519 6.90152 58.1408 6.33366C60.2207 7.20362 61.6861 9.25904 61.6861 11.651V11.8738H3.49694V11.651ZM32.5917 61.9481C26.2887 61.9481 21.1608 56.8202 21.1608 50.5171C21.1608 44.2141 26.2887 39.0862 32.5917 39.0862C38.8947 39.0862 44.0226 44.2141 44.0226 50.5171C44.0226 56.82 38.8947 61.9481 32.5917 61.9481ZM61.6867 49.3041C61.6867 50.9078 60.3821 52.2128 58.7782 52.2128H47.4207C47.484 51.6558 47.5198 51.0908 47.5198 50.5171C47.5198 42.2859 40.8231 35.5893 32.5919 35.5893C24.3607 35.5893 17.664 42.2859 17.664 50.5171C17.664 51.0906 17.6998 51.6558 17.7631 52.2128H6.40543C4.80169 52.2128 3.49694 50.908 3.49694 49.3041V15.3707H61.6867V49.3041Z"
    fill="#D0408E" />
  <path
    d="M12.8705 40.6405H19.9559C20.9216 40.6405 21.7043 39.8578 21.7043 38.892C21.7043 37.9263 20.9214 37.1436 19.9559 37.1436H12.8705C11.9047 37.1436 11.122 37.9263 11.122 38.892C11.122 39.8576 11.9047 40.6405 12.8705 40.6405Z"
    fill="#D0408E" />
  <path
    d="M45.2277 40.6405H52.3131C53.2788 40.6405 54.0616 39.8578 54.0616 38.892C54.0616 37.9263 53.2788 37.1436 52.3131 37.1436H45.2277C44.262 37.1436 43.4792 37.9263 43.4792 38.892C43.4792 39.8576 44.262 40.6405 45.2277 40.6405Z"
    fill="#D0408E" />
  <path
    d="M45.2277 24.6251H52.3131C53.2788 24.6251 54.0616 23.8424 54.0616 22.8766C54.0616 21.9109 53.2788 21.1282 52.3131 21.1282H45.2277C44.262 21.1282 43.4792 21.9109 43.4792 22.8766C43.4792 23.8424 44.262 24.6251 45.2277 24.6251Z"
    fill="#D0408E" />
  <path
    d="M12.8705 32.7523H19.9559C20.9216 32.7523 21.7043 31.9696 21.7043 31.0038C21.7043 30.0381 20.9214 29.2554 19.9559 29.2554H12.8705C11.9047 29.2554 11.122 30.0381 11.122 31.0038C11.122 31.9694 11.9047 32.7523 12.8705 32.7523Z"
    fill="#D0408E" />
  <path
    d="M45.2277 32.7523H52.3131C53.2788 32.7523 54.0616 31.9696 54.0616 31.0038C54.0616 30.0381 53.2788 29.2554 52.3131 29.2554H45.2277C44.262 29.2554 43.4792 30.0381 43.4792 31.0038C43.4792 31.9694 44.262 32.7523 45.2277 32.7523Z"
    fill="#D0408E" />
  <path
    d="M29.0488 32.7523H36.1342C37.1 32.7523 37.8827 31.9696 37.8827 31.0038C37.8827 30.0381 37.1 29.2554 36.1342 29.2554H29.0488C28.0831 29.2554 27.3004 30.0381 27.3004 31.0038C27.3004 31.9694 28.0831 32.7523 29.0488 32.7523Z"
    fill="#D0408E" />
  <path
    d="M29.0488 24.6251H36.1342C37.1 24.6251 37.8827 23.8424 37.8827 22.8766C37.8827 21.9109 37.1 21.1282 36.1342 21.1282H29.0488C28.0831 21.1282 27.3004 21.9109 27.3004 22.8766C27.3004 23.8424 28.0831 24.6251 29.0488 24.6251Z"
    fill="#D0408E" />
  <path
    d="M13.0043 24.6251H20.0897C21.0554 24.6251 21.8381 23.8424 21.8381 22.8766C21.8381 21.9109 21.0554 21.1282 20.0897 21.1282H13.0043C12.0385 21.1282 11.2558 21.9109 11.2558 22.8766C11.2558 23.8424 12.0385 24.6251 13.0043 24.6251Z"
    fill="#D0408E" />
  <path
    d="M37.2456 50.5174H33.7577V44.789C33.7577 43.8233 32.975 43.0405 32.0093 43.0405C31.0435 43.0405 30.2608 43.8233 30.2608 44.789V52.2659C30.2608 53.2316 31.0435 54.0143 32.0093 54.0143H37.2456C38.2113 54.0143 38.994 53.2316 38.994 52.2659C38.994 51.3001 38.2113 50.5174 37.2456 50.5174Z"
    fill="#D0408E" />
</svg>