<svg width="78" height="96" viewBox="0 0 78 96" fill="none" xmlns="http://www.w3.org/2000/svg">
  <path
    d="M39 95.3912C39 95.3912 78 78.2505 78 53.6575C78 29.0645 78 11.9239 78 11.9239C78 11.9239 75.6421 12.2607 71.9545 12.2607C63.7928 12.2607 49.0965 10.6093 39 0C28.9035 10.6093 14.2102 12.2607 6.04235 12.2607C2.3548 12.2607 0 11.9239 0 11.9239C0 11.9239 0 29.0645 0 53.6575C0 78.2505 39 95.3912 39 95.3912ZM5.96195 18.2226C5.98881 18.2226 6.01568 18.2226 6.04546 18.2226C13.9002 18.2226 27.8126 16.7947 39.0031 8.03077C50.1937 16.7949 64.1029 18.2226 71.9608 18.2226C71.9876 18.2226 72.0145 18.2226 72.0443 18.2226V53.6575C72.0443 69.3465 50.0595 83.3808 39.0002 88.8121C27.9319 83.3987 5.96214 69.3971 5.96214 53.6575V18.2226H5.96195Z"
    fill="url(#secure_gradient)" />
  <path d="M61.5867 31.8576L56.6561 28.5068L35.7594 59.2794L22.8399 50.11L19.3879 54.9689L37.2738 67.662L61.5867 31.8576Z" fill="#12B0EE" />
  <defs>
    <linearGradient id="secure_gradient" x1="39" y1="0" x2="39" y2="95.3912" gradientUnits="userSpaceOnUse">
      <stop stop-color="#D0408E" />
      <stop offset="1" stop-color="#FF53B0" />
    </linearGradient>
  </defs>
</svg>