<svg width="56" height="62" viewBox="0 0 56 62" fill="none" xmlns="http://www.w3.org/2000/svg">
  <path
    d="M28 61.9998C26.9589 62.0086 25.9358 61.7314 25.0439 61.199L13.899 54.7378C9.72676 52.4248 6.2444 49.061 3.80389 44.9864C1.36338 40.9117 0.0512125 36.2707 0 31.5323V13.8778C0.000493743 12.6882 0.368511 11.5272 1.05455 10.551C1.74059 9.57486 2.71174 8.83038 3.83738 8.41771L25.9803 0.354916C27.2845 -0.118305 28.7155 -0.118305 30.0197 0.354916L52.1626 8.41771C53.2883 8.83038 54.2594 9.57486 54.9454 10.551C55.6315 11.5272 55.9995 12.6882 56 13.8778V31.5323C55.9488 36.2707 54.6366 40.9117 52.1961 44.9864C49.7556 49.061 46.2732 52.4248 42.101 54.7378L30.9561 61.199C30.0642 61.7314 29.0411 62.0086 28 61.9998ZM28 4.55922C27.8543 4.53293 27.705 4.53293 27.5593 4.55922L5.41639 12.6584C5.16697 12.75 4.95295 12.917 4.80466 13.1359C4.65636 13.3548 4.58132 13.6143 4.59016 13.8778V31.5323C4.64341 35.475 5.74625 39.3338 7.78711 42.7184C9.82797 46.1029 12.7344 48.8931 16.2125 50.8065L27.3574 57.2859C27.5545 57.3926 27.7754 57.4486 28 57.4486C28.2246 57.4486 28.4455 57.3926 28.6426 57.2859L39.7875 50.8065C43.2656 48.8931 46.172 46.1029 48.2129 42.7184C50.2537 39.3338 51.3566 35.475 51.4098 31.5323V13.8778C51.411 13.6205 51.3324 13.369 51.1846 13.1574C51.0368 12.9458 50.827 12.7843 50.5836 12.6948L28.4407 4.63202C28.2995 4.5813 28.1501 4.55662 28 4.55922Z"
    fill="#24272C" />
  <path
    d="M25.9668 39.9985C25.4347 39.995 24.9197 39.8052 24.5063 39.4606L16.8075 32.7829C16.3484 32.3869 16.0611 31.8195 16.0087 31.2055C15.9563 30.5916 16.1431 29.9813 16.528 29.509C16.913 29.0368 17.4645 28.7411 18.0613 28.6872C18.6581 28.6333 19.2513 28.8255 19.7103 29.2215L25.7504 34.4524L36.0637 22.7664C36.4653 22.3089 37.0272 22.0343 37.6257 22.003C38.2242 21.9717 38.8103 22.1863 39.255 22.5995C39.6997 23.0127 39.9667 23.5908 39.9971 24.2065C40.0275 24.8222 39.8189 25.4252 39.4173 25.8827L27.7337 39.238C27.51 39.4885 27.2363 39.6862 26.9313 39.8175C26.6263 39.9488 26.2972 40.0105 25.9668 39.9985Z"
    fill="#24272C" />
</svg>