<?xml version="1.0" encoding="UTF-8"?>
<svg width="14px" height="17px" viewBox="0 0 14 17" version="1.1" xmlns="http://www.w3.org/2000/svg" xmlns:xlink="http://www.w3.org/1999/xlink">
    <title>Shield</title>
    <g id="designs" stroke="none" stroke-width="1" fill="none" fill-rule="evenodd">
        <g id="acc-setup-03" transform="translate(-308.000000, -460.000000)" fill="#1BB954" fill-rule="nonzero">
            <g id="Group-6" transform="translate(78.000000, 460.000000)">
                <g id="Group" transform="translate(230.000000, 0.000000)">
                    <path d="M7,17 C6.95530769,17 6.91007692,16.9941562 6.86646154,16.9835312 C3.72238462,16.1909062 0,11.591875 0,8.5 L0,1.97996875 C0,1.68671875 0.241230769,1.44871875 0.538461538,1.44871875 C1.54538462,1.44871875 3.03907692,1.0444375 4.92961538,0.5323125 C5.53323077,0.3686875 6.17776923,0.1944375 6.86376923,0.01753125 C6.95423077,-0.00584375 7.049,-0.00478125 7.13838462,0.0180625 C7.76892308,0.18328125 8.36553846,0.346375 8.92823077,0.5004375 C10.8672308,1.03009375 12.3980769,1.44871875 13.4615385,1.44871875 C13.7593077,1.44871875 14,1.68671875 14,1.97996875 L14,8.5 C14,11.7045 10.9264615,16.2057812 7.10984615,16.9888437 C7.07323077,16.9962812 7.03661538,17 7,17 Z M1.07692308,2.48465625 L1.07692308,8.5 C1.07692308,11.120125 4.319,15.149125 7.01346154,15.9220937 C10.1548462,15.1895 12.9230769,11.2024687 12.9230769,8.5 L12.9230769,2.48571875 C11.7906923,2.3853125 10.3718462,1.9975 8.64069231,1.523625 C8.12269231,1.38178125 7.57507692,1.2325 6.99892308,1.0805625 C6.36838462,1.2441875 5.77338462,1.40515625 5.215,1.5565625 C3.53715385,2.0113125 2.16030769,2.38425 1.07692308,2.48465625 Z" id="Shape"></path>
                    <path d="M6.46153846,11.15625 C6.31884615,11.15625 6.18207692,11.1004688 6.08084615,11.0005938 L3.927,8.87559375 C3.71646154,8.667875 3.71646154,8.332125 3.927,8.12440625 C4.13753846,7.9166875 4.47784615,7.9166875 4.68838462,8.12440625 L6.43515385,9.84778125 L9.82530769,6.02490625 C10.0218462,5.803375 10.3616154,5.78159375 10.5850769,5.97496875 C10.8090769,6.16834375 10.8316923,6.5035625 10.6362308,6.7245625 L6.867,10.9745625 C6.769,11.0855938 6.629,11.1509375 6.47984615,11.1557188 C6.47338462,11.15625 6.46746154,11.15625 6.46153846,11.15625 Z" id="Path"></path>
                </g>
            </g>
        </g>
    </g>
</svg>