<svg width="55" height="48" viewBox="0 0 55 48" fill="none" xmlns="http://www.w3.org/2000/svg">
  <path
    d="M1.50024 15.5L13.5002 14.5L49.5002 15.5H53.0002V18L49.5002 21.5H44.0002L40.0002 19.5L37.5002 21.5H31.5002L27.0002 19.5L20.5002 21.5L16.0002 19.5L14.5002 15.5L12.0002 19.5C11.1669 20.5 8.60024 22.3 5.00024 21.5C1.40024 20.7 1.16691 17.1667 1.50024 15.5Z"
    fill="#7ED2FF" />
  <path
    d="M38.891 26.0281H31.4528C29.4171 26.0281 27.7617 27.6835 27.7617 29.7192V35.4236C27.7617 37.4594 29.4171 39.1148 31.4528 39.1148H38.891C40.9267 39.1148 42.5821 37.4594 42.5821 35.4236V29.7192C42.5821 27.6835 40.9267 26.0281 38.891 26.0281ZM39.8977 35.4236C39.8977 35.9829 39.4391 36.4303 38.891 36.4303H31.4528C30.8936 36.4303 30.4462 35.9717 30.4462 35.4236V29.7192C30.4462 29.1599 30.9048 28.7125 31.4528 28.7125H38.891C39.4503 28.7125 39.8977 29.1711 39.8977 29.7192V35.4236Z"
    fill="#0757A0" />
  <path
    d="M54.7404 15.6593C54.7404 15.4244 54.6844 15.2007 54.5614 14.9994L46.4186 0.682297C46.1837 0.268445 45.7363 0 45.2553 0H9.47386C8.9929 0 8.54549 0.25726 8.3106 0.682297L0.178963 14.9994C0.0671112 15.2007 0 15.4244 0 15.6593C0 18.8694 1.93504 21.621 4.69778 22.8402V46.4521C4.69778 47.1904 5.30179 47.7944 6.04001 47.7944H13.4558C13.467 47.7944 13.4782 47.7944 13.4894 47.7944H23.8916C23.9028 47.7944 23.914 47.7944 23.9251 47.7944H48.6892C49.4274 47.7944 50.0314 47.1904 50.0314 46.4521V23.008C50.0314 22.952 50.0314 22.9073 50.0202 22.8625C52.7941 21.6434 54.7404 18.8806 54.7404 15.6593ZM10.2568 2.69563H44.4724L50.8367 13.892H3.90364L10.2568 2.69563ZM38.9581 16.5653C38.533 18.9813 36.419 20.8157 33.88 20.8157C31.3409 20.8157 29.2269 18.9813 28.8019 16.5653H38.9581ZM25.9497 16.5653C25.5246 18.9813 23.4106 20.8157 20.8716 20.8157C18.3325 20.8157 16.2185 18.9813 15.7823 16.5653H25.9497ZM2.77393 16.5653H12.9413C12.5162 18.9813 10.3911 20.8157 7.85201 20.8157C5.31297 20.8268 3.19897 18.9813 2.77393 16.5653ZM22.5494 45.1099H14.8316V30.6251C14.8316 29.5737 15.6817 28.7124 16.7442 28.7124H20.6479C21.6993 28.7124 22.5605 29.5625 22.5605 30.6251V45.1099H22.5494ZM47.347 45.1099H25.2338V30.6251C25.2338 28.0972 23.1757 26.028 20.6367 26.028H16.7331C14.2052 26.028 12.1359 28.086 12.1359 30.6251V45.1211H7.38223V23.5001C7.53883 23.5113 7.69542 23.5113 7.85201 23.5113C10.5588 23.5113 12.9525 22.1355 14.3618 20.0439C15.7711 22.1355 18.1648 23.5113 20.8716 23.5113C23.5784 23.5113 25.9609 22.1355 27.3814 20.0439C28.7907 22.1355 31.1843 23.5113 33.88 23.5113C36.5868 23.5113 38.9692 22.1355 40.3786 20.0439C41.7879 22.1355 44.1815 23.5113 46.8884 23.5113C47.045 23.5113 47.1904 23.5001 47.347 23.5001V45.1099ZM46.8884 20.8268C44.3493 20.8268 42.2353 18.9925 41.8103 16.5765H51.9776C51.5414 18.9813 49.4274 20.8268 46.8884 20.8268Z"
    fill="#0757A0" />
</svg>