<svg width="67" height="64" viewBox="0 0 67 64" fill="none" xmlns="http://www.w3.org/2000/svg">
  <g filter="url(#filter0_d_1503_193)">
    <path fill-rule="evenodd" clip-rule="evenodd"
      d="M35.1347 44.4123C34.1406 43.7663 32.8594 43.7663 31.8653 44.4123L27.4893 47.256C25.8001 48.3537 23.5306 47.5077 22.9722 45.5721L21.701 41.1657C21.3552 39.967 20.3035 39.1075 19.06 39.007L14.1263 38.6087C12.004 38.4373 10.7308 36.1712 11.6882 34.2694L13.5277 30.6154C14.1287 29.4216 13.8674 27.9742 12.887 27.0658L9.79504 24.2011C8.20485 22.7277 8.65427 20.106 10.6444 19.2464L14.8261 17.4401C16.0202 16.9244 16.7459 15.6979 16.6231 14.403L16.2231 10.1832C16.0279 8.12371 17.9267 6.48932 19.9342 6.98893L24.9914 8.24748C26.1585 8.53795 27.3863 8.10326 28.1107 7.14313L31.1052 3.1742C32.3054 1.58333 34.6946 1.58334 35.8949 3.17421L38.8893 7.14313C39.6137 8.10326 40.8415 8.53795 42.0086 8.24748L47.0658 6.98893C49.0733 6.48932 50.9721 8.12372 50.7769 10.1832L50.3769 14.403C50.2541 15.6979 50.9798 16.9244 52.1739 17.4401L56.3556 19.2464C58.3457 20.106 58.7952 22.7277 57.205 24.2011L54.113 27.0658C53.1326 27.9742 52.8713 29.4216 53.4723 30.6154L55.3118 34.2694C56.2692 36.1712 54.9959 38.4373 52.8737 38.6087L47.94 39.007C46.6965 39.1075 45.6448 39.967 45.299 41.1657L44.0278 45.5721C43.4694 47.5077 41.1999 48.3537 39.5107 47.256L35.1347 44.4123Z"
      fill="#12B0EE" />
  </g>
  <path fill-rule="evenodd" clip-rule="evenodd"
    d="M38.3804 19.6506L31.5478 26.2124L28.9476 23.7178C28.044 22.8504 26.5794 22.8512 25.6764 23.7195C24.7737 24.5878 24.7746 25.9944 25.6786 26.8615L29.9138 30.9254C30.3653 31.3588 30.9569 31.5753 31.5484 31.5753C32.1402 31.5753 32.7323 31.3585 33.1838 30.9248L41.651 22.7932C42.5546 21.9258 42.5546 20.5189 41.6513 19.6509C40.7483 18.7832 39.2837 18.7829 38.3804 19.6506Z"
    fill="white" />
  <defs>
    <filter id="filter0_d_1503_193" x="0.833298" y="1.98108" width="65.3334" height="61.7612" filterUnits="userSpaceOnUse" color-interpolation-filters="sRGB">
      <feFlood flood-opacity="0" result="BackgroundImageFix" />
      <feColorMatrix in="SourceAlpha" type="matrix" values="0 0 0 0 0 0 0 0 0 0 0 0 0 0 0 0 0 0 127 0" result="hardAlpha" />
      <feOffset dy="8" />
      <feGaussianBlur stdDeviation="4" />
      <feColorMatrix type="matrix" values="0 0 0 0 0.196078 0 0 0 0 0.772549 0 0 0 0 1 0 0 0 0.1 0" />
      <feBlend mode="normal" in2="BackgroundImageFix" result="effect1_dropShadow_1503_193" />
      <feBlend mode="normal" in="SourceGraphic" in2="effect1_dropShadow_1503_193" result="shape" />
    </filter>
  </defs>
</svg>