<svg width="18" height="24" viewBox="0 0 18 24" fill="none" xmlns="http://www.w3.org/2000/svg">
  <path
    d="M17.2416 9.04962L13.2537 3.06764L13.9874 1.08356C14.0925 0.799605 14.0291 0.480736 13.8237 0.258433C13.6182 0.0362113 13.3053 -0.052031 13.0139 0.0303932L9.21823 1.10393C8.76554 1.09997 7.35068 1.15492 5.79746 1.86643C4.09088 2.64825 1.87884 4.39395 1.03278 8.27047C-0.0858467 13.3957 0.948011 17.3538 1.64789 19.2296H1.37751C0.988577 19.2296 0.655244 19.5079 0.58591 19.8906L0.0129007 23.052C-0.0296044 23.2866 0.0340723 23.5281 0.186961 23.7111C0.33985 23.8941 0.566032 24 0.804496 24H15.1496C15.4111 24 15.6564 23.8729 15.807 23.6592C15.9578 23.4456 15.9951 23.1719 15.9074 22.9257L14.7811 19.7642C14.6669 19.4436 14.3635 19.2297 14.0232 19.2297H13.2453L13.9796 18.4954C14.2472 18.2277 14.2921 17.8095 14.0872 17.4912C13.2621 16.2086 11.3921 13.1164 10.4889 10.9735C10.667 11.0004 10.8533 11.0117 11.0461 11.0018C11.5413 10.9758 12.0096 10.8079 12.4275 10.5099L13.7525 11.3933C14.2784 11.7439 14.9305 11.852 15.5411 11.6897C16.152 11.5274 16.6644 11.1102 16.9471 10.5449L17.2917 9.85576C17.4209 9.59742 17.4018 9.28978 17.2416 9.04962ZM13.456 20.8385L14.009 22.391H1.76789L2.04926 20.8385H13.456ZM15.5082 9.82522C15.4036 10.0343 15.2253 10.1087 15.1284 10.1345C15.0312 10.1602 14.8396 10.1841 14.6451 10.0544L12.8033 8.82643C12.4699 8.60413 12.0236 8.66118 11.7569 8.96009C11.3943 9.36615 11.0154 9.48227 10.528 9.33609C10.081 9.20203 9.73653 8.90037 9.73653 8.90037C9.48789 8.67443 9.12522 8.62691 8.82672 8.78085C8.52829 8.93487 8.35682 9.25803 8.39682 9.59144C8.64635 11.6741 11.3642 16.1785 12.3867 17.8128L10.97 19.2295H3.38534C2.84361 17.9621 1.43965 13.9522 2.6049 8.6135C3.935 2.51968 9.06057 2.70433 9.27455 2.71403C9.36385 2.7192 9.45354 2.70934 9.53969 2.68494L11.9298 2.00898L11.6026 2.89375C11.5133 3.1352 11.5449 3.40478 11.6878 3.619L15.6441 9.55354L15.5082 9.82522Z"
    fill="#12B0EE" />
  <path
    d="M10.5853 4.47607C10.141 4.47607 9.78084 4.83632 9.78084 5.28052C9.78084 5.72472 10.1411 6.08496 10.5853 6.08496H11.3032C11.7475 6.08496 12.1076 5.72472 12.1076 5.28052C12.1076 4.83632 11.7474 4.47607 11.3032 4.47607H10.5853Z"
    fill="#12B0EE" />
</svg>