<svg xmlns="http://www.w3.org/2000/svg" xmlns:xlink="http://www.w3.org/1999/xlink" width="67" height="64" viewBox="0 0 67 64">
    <defs>
        <filter id="s5gnrun7ca" width="147.9%" height="152.5%" x="-23.9%" y="-11.8%" filterUnits="objectBoundingBox">
            <feOffset dy="8" in="SourceAlpha" result="shadowOffsetOuter1"/>
            <feGaussianBlur in="shadowOffsetOuter1" result="shadowBlurOuter1" stdDeviation="4"/>
            <feColorMatrix in="shadowBlurOuter1" values="0 0 0 0 0.196078431 0 0 0 0 0.77254902 0 0 0 0 1 0 0 0 0.1 0"/>
        </filter>
        <path id="uvwcol3g6b" d="M25.865 44.412l-4.376 2.844c-1.389.903-3.247.508-4.15-.88-.161-.249-.285-.52-.367-.804l-1.271-4.406c-.346-1.199-1.397-2.059-2.641-2.159l-4.934-.398c-1.651-.134-2.882-1.58-2.748-3.232.03-.386.136-.762.31-1.108l1.84-3.654c.6-1.193.34-2.64-.641-3.55l-3.092-2.864c-1.215-1.126-1.288-3.024-.162-4.24.284-.306.628-.55 1.011-.715l4.182-1.806c1.194-.516 1.92-1.742 1.797-3.037l-.4-4.22c-.156-1.65 1.054-3.113 2.704-3.27.337-.031.678-.006 1.007.076l5.057 1.258c1.168.29 2.395-.144 3.12-1.104l2.994-3.969c.998-1.322 2.88-1.586 4.202-.588.222.168.42.366.588.588l2.994 3.97c.725.96 1.952 1.394 3.12 1.103l5.057-1.258c1.608-.4 3.235.579 3.635 2.187.082.329.108.67.076 1.007l-.4 4.22c-.123 1.295.603 2.521 1.797 3.037l4.182 1.806c1.52.657 2.221 2.423 1.564 3.944-.165.383-.409.727-.715 1.011l-3.092 2.865c-.98.908-1.242 2.356-.64 3.55l1.839 3.653c.745 1.48.15 3.284-1.33 4.029-.347.174-.723.28-1.108.31l-4.934.399c-1.244.1-2.295.96-2.641 2.159l-1.271 4.406c-.46 1.592-2.122 2.51-3.714 2.051-.285-.082-.555-.206-.803-.367l-4.376-2.844c-.994-.646-2.276-.646-3.27 0z"/>
    </defs>
    <g fill="none" fill-rule="evenodd">
        <g>
            <g>
                <g>
                    <g transform="translate(-147 -104) translate(24 80) translate(129 24)">
                        <use fill="#000" filter="url(#s5gnrun7ca)" xlink:href="#uvwcol3g6b"/>
                        <use fill="#12B0EE" xlink:href="#uvwcol3g6b"/>
                    </g>
                    <path fill="#FFF" d="M32.38 19.65l-6.832 6.562-2.6-2.494c-.904-.868-2.369-.867-3.272.002-.902.868-.901 2.274.003 3.142l4.235 4.063c.451.434 1.043.65 1.634.65.592 0 1.184-.217 1.636-.65l8.467-8.132c.904-.867.904-2.274 0-3.142-.903-.868-2.367-.868-3.27 0z" transform="translate(-147 -104) translate(24 80) translate(129 24)"/>
                </g>
            </g>
        </g>
    </g>
</svg>
