<svg xmlns="http://www.w3.org/2000/svg" xmlns:xlink="http://www.w3.org/1999/xlink" viewBox="0 0 3710 3710"><defs><clipPath id="clip-path"><path d="M2047.73,3033l-283.85,155.09s-133-116.42-119.57-257.18c27.38-287.21-226.08-291.14-332-308.67-159.72-26.43-288.95-119.38-154.4-264.09s-170.06-309.34-434.16-314.85c-175.83-3.68-315.74-473.74,162.46-507.6,334.69-23.7,447.84,283.06,541.8,424.39s321.35,33,344.86,255.56c20.08,190.07-40.82,369.93,110.88,425.27S2110.35,2810.27,2047.73,3033Z" style="fill:none"/></clipPath><linearGradient id="linear-gradient" x1="6851.86" y1="-898.18" x2="6207.92" y2="931.97" gradientTransform="matrix(-0.88, 0.48, 0.48, 0.88, 7085.91, -841.89)" gradientUnits="userSpaceOnUse"><stop offset="0" stop-color="#aa80f9"/><stop offset="1" stop-color="#6165d7"/></linearGradient><linearGradient id="linear-gradient-2" x1="-4399.35" y1="200.06" x2="-3721.03" y2="1982.4" gradientTransform="translate(5567.76 329.17) rotate(-0.65)" xlink:href="#linear-gradient"/><clipPath id="clip-path-2"><path d="M1507,2157.48,1745,2110.93s71.43-160.54-12.14-207.49-39.74-202.13-26.65-287.2c35.51-230.81-235.23-220.68-215.07-520.21,5.36-79.66,44.25-230.45-23.68-296.83-77.39-75.63-142.34-7.15-191.14-69.75-76.28-97.83-208.23-137.17-294.9-43.19-85.55,92.76-2.62,287.68,225.48,450.89,149,134.57,148.83,173,130,266-13.17,65.1-92,232.87-1.06,304.83s159,148.49,117.09,220.91C1389.21,2039.06,1507,2157.48,1507,2157.48Z" style="fill:none"/></clipPath><linearGradient id="linear-gradient-3" x1="1113.72" y1="-240.85" x2="2026.9" y2="1262.47" gradientTransform="translate(-262.18 1394.29) rotate(-6.68)" gradientUnits="userSpaceOnUse"><stop offset="0" stop-color="#e38ddd"/><stop offset="1" stop-color="#9571f6"/></linearGradient><clipPath id="clip-path-3"><path d="M1483.42,2285.66l381.89-47.26c16.61-53.93,34.62-151.84-47.84-165.22-114.65-18.61-136.23-203.85-112.36-273,29.55-85.64,94.06-286.29-82.63-317.71-147.09-26.16-248.42-14.35-276.12-187.19s-139.06-269.73-304.68-240c-174.29,31.27-340.61-173.06-476.79-82.42-237.28,157.93,28.58,515,344.39,590.71s151.71,199.88,158,343.22c8.56,195.71,281.93,121.91,363,189.76C1493.85,2149.69,1491.59,2233.54,1483.42,2285.66Z" style="fill:none"/></clipPath><clipPath id="clip-path-4"><rect x="1871.01" y="1864.45" width="1282.48" height="1231.05" style="fill:none"/></clipPath><clipPath id="clip-path-5"><path d="M1991.77,3511.17l192.56,105.2s90.22-79,81.12-174.47c-18.58-194.83,153.36-197.5,225.21-209.39,108.35-17.93,196-81,104.74-179.16s115.37-209.86,294.53-213.6c175.32-3.66,270-317.43-110.21-344.34-227-16.08-303.81,192-367.56,287.9s-218,22.41-233.94,173.37c-13.62,128.94,27.69,251-75.22,288.5S1949.29,3360.09,1991.77,3511.17Z" style="fill:none"/></clipPath><linearGradient id="linear-gradient-4" x1="6895.77" y1="127.66" x2="6458.92" y2="1369.22" gradientTransform="translate(-3044.91 -841.89) rotate(28.65)" xlink:href="#linear-gradient"/><linearGradient id="linear-gradient-5" x1="-4130.39" y1="1470.55" x2="-3670.22" y2="2679.67" gradientTransform="matrix(-1, -0.01, -0.01, 1, -1526.76, 329.17)" xlink:href="#linear-gradient"/><clipPath id="clip-path-6"><path d="M2358.57,2917.24l-161.41-31.57s-48.46-108.91,8.23-140.77,27-137.12,18.08-194.83c-24.09-156.58,159.58-149.71,145.91-352.91-3.64-54-30-156.33,16.06-201.36,52.5-51.31,96.56-4.86,129.67-47.32,51.75-66.37,141.26-93.06,200.06-29.3,58,62.93,1.77,195.16-153,305.88-101.07,91.29-101,117.39-88.21,180.43,8.93,44.17,62.41,158,.72,206.8s-107.84,100.73-79.43,149.86C2438.5,2836.91,2358.57,2917.24,2358.57,2917.24Z" style="fill:none"/></clipPath><linearGradient id="linear-gradient-6" x1="1377.98" y1="921.59" x2="1997.47" y2="1941.43" gradientTransform="matrix(-0.99, -0.12, -0.12, 0.99, 4303.18, 1394.29)" xlink:href="#linear-gradient-3"/><clipPath id="clip-path-7"><path d="M2374.59,3004.2l-259.07-32.06c-11.27-36.58-23.49-103,32.46-112.09,77.77-12.62,92.41-138.28,76.22-185.22-20-58.1-63.81-194.22,56.05-215.54,99.79-17.74,168.53-9.73,187.32-127s94.34-183,206.7-162.83c118.23,21.22,231.06-117.4,323.45-55.91,161,107.14-19.39,349.38-233.64,400.73s-102.91,135.6-107.17,232.85c-5.81,132.76-191.25,82.7-246.27,128.72C2367.51,2912,2369.05,2968.84,2374.59,3004.2Z" style="fill:none"/></clipPath><linearGradient id="linear-gradient-7" x1="1749.22" y1="2471.73" x2="-389.39" y2="5325.85" gradientUnits="userSpaceOnUse"><stop offset="0" stop-color="#ffc444"/><stop offset="1" stop-color="#f36f56"/></linearGradient><linearGradient id="linear-gradient-8" x1="1045.85" y1="3105.35" x2="3056.53" y2="3105.35" gradientUnits="userSpaceOnUse"><stop offset="0.49" stop-color="#ebeff2"/><stop offset="1" stop-color="#fff"/></linearGradient><clipPath id="clip-path-8"><path d="M2638.75,2082.9l-604.54,187.2s16.92-657.28,15.56-640.11S1205.52,1082.8,879,1194.17s-660.65,853.6-182.25,1203.91,597.9-21.83,511.58,665.43l1028-70,420.53-546Z" style="fill:none"/></clipPath><linearGradient id="linear-gradient-9" x1="638.94" y1="981.56" x2="576.64" y2="1229.12" gradientTransform="matrix(-0.4, -0.92, -0.92, 0.4, 3664.42, 2400.71)" gradientUnits="userSpaceOnUse"><stop offset="0" stop-color="#ab316d"/><stop offset="1" stop-color="#792d3d"/></linearGradient><linearGradient id="linear-gradient-10" x1="-2554.93" y1="781.22" x2="-1937.15" y2="781.22" gradientTransform="matrix(-0.76, -0.65, -0.65, 0.76, 859.7, 356.39)" gradientUnits="userSpaceOnUse"><stop offset="0" stop-color="#ff9085"/><stop offset="1" stop-color="#fb6fbb"/></linearGradient><linearGradient id="linear-gradient-11" x1="-2554.93" y1="787.91" x2="-1936.05" y2="787.91" xlink:href="#linear-gradient-10"/><linearGradient id="linear-gradient-12" x1="-2369.63" y1="2614.31" x2="-1683.88" y2="2614.31" gradientTransform="matrix(-1, 0, 0, 1, -421.1, 0)" xlink:href="#linear-gradient-10"/><linearGradient id="linear-gradient-13" x1="-1086.97" y1="1804.23" x2="227.24" y2="1804.23" gradientTransform="matrix(-0.95, 0.31, 0.31, 0.95, 175.15, 278.62)" gradientUnits="userSpaceOnUse"><stop offset="0" stop-color="#311944"/><stop offset="1" stop-color="#6b3976"/></linearGradient><linearGradient id="linear-gradient-14" x1="-1019.32" y1="1941.99" x2="294.94" y2="1941.99" gradientTransform="matrix(-0.94, 0.33, 0.33, 0.94, 203.57, 290.52)" xlink:href="#linear-gradient-13"/><linearGradient id="linear-gradient-15" x1="-2091.47" y1="2419.21" x2="-2104.82" y2="1988.66" gradientTransform="matrix(-1, 0, 0, 1, -421.1, 0)" xlink:href="#linear-gradient-9"/><linearGradient id="linear-gradient-16" x1="-2180.81" y1="2110.34" x2="-2058.99" y2="1711.51" gradientTransform="matrix(-1, 0, 0, 1, -421.1, 0)" xlink:href="#linear-gradient-9"/><linearGradient id="linear-gradient-17" x1="-2369.63" y1="2762.41" x2="-1683.88" y2="2762.41" gradientTransform="matrix(-1, 0, 0, 1, -421.1, 0)" xlink:href="#linear-gradient-10"/><clipPath id="clip-path-9"><path d="M2678.77,865.26V685.35H2008.82V1267.3h129.11c20.83,195.87,187.5,350.91,390,350.91,216.63,0,389.42-186.17,390.91-392.06C2920.05,1064,2820.71,925,2678.77,865.26Z" style="fill:none"/></clipPath><linearGradient id="linear-gradient-18" x1="2363.04" y1="956.67" x2="2374.5" y2="858.73" xlink:href="#linear-gradient-7"/><linearGradient id="linear-gradient-19" x1="2234.54" y1="1257.11" x2="2277.01" y2="894.17" gradientTransform="matrix(1, 0, 0, 1, 0, 0)" xlink:href="#linear-gradient"/><linearGradient id="linear-gradient-20" x1="1906.77" y1="769.13" x2="1956.01" y2="858.84" gradientTransform="translate(3252.35 -1046.86) rotate(90)" gradientUnits="userSpaceOnUse"><stop offset="0" stop-color="#311944"/><stop offset="1" stop-color="#893976"/></linearGradient><linearGradient id="linear-gradient-21" x1="1926.23" y1="860.13" x2="1990.91" y2="860.13" gradientTransform="translate(3253.86 -1047.64) rotate(90)" xlink:href="#linear-gradient-20"/><linearGradient id="linear-gradient-22" x1="6793.85" y1="1904.54" x2="6837.52" y2="1814.16" gradientTransform="matrix(0.99, 0.12, -0.12, 0.99, -3963.49, -162.68)" xlink:href="#linear-gradient-7"/><linearGradient id="linear-gradient-23" x1="6568.39" y1="1107.91" x2="6674.14" y2="1107.91" gradientTransform="matrix(0.96, 0.27, -0.27, 0.96, -3883.4, -308.92)" gradientUnits="userSpaceOnUse"><stop offset="0" stop-color="#444b8c"/><stop offset="1" stop-color="#26264f"/></linearGradient><linearGradient id="linear-gradient-24" x1="6536.19" y1="1479.87" x2="6580.78" y2="1387.57" gradientTransform="translate(-3894.61 -227.18) rotate(11.41)" xlink:href="#linear-gradient-7"/><linearGradient id="linear-gradient-25" x1="-3881.42" y1="2328.48" x2="-4163.47" y2="1692.66" gradientTransform="matrix(-1, 0, 0, 1, -1690.55, 0)" xlink:href="#linear-gradient-9"/><linearGradient id="linear-gradient-26" x1="-3881.42" y1="2328.48" x2="-4163.47" y2="1692.66" gradientTransform="matrix(-1, 0, 0, 1, -1690.55, 0)" xlink:href="#linear-gradient-9"/><linearGradient id="linear-gradient-27" x1="-4361.06" y1="1759.86" x2="-4643.11" y2="1124.05" gradientTransform="matrix(-0.99, -0.12, -0.12, 0.99, -1773.56, 108.12)" xlink:href="#linear-gradient-9"/><linearGradient id="linear-gradient-28" x1="-4425.28" y1="1614.33" x2="-4098.39" y2="1261.63" gradientTransform="matrix(-1, 0, 0, 1, -1690.55, 0)" xlink:href="#linear-gradient"/><linearGradient id="linear-gradient-29" x1="-4403.61" y1="1634.41" x2="-4076.72" y2="1281.71" gradientTransform="matrix(-1, 0, 0, 1, -1690.55, 0)" xlink:href="#linear-gradient"/><linearGradient id="linear-gradient-30" x1="-3785.03" y1="3052.16" x2="-3773.51" y2="2745.3" gradientTransform="matrix(-0.92, 0.4, 0.4, 0.92, -2090.16, -184.89)" xlink:href="#linear-gradient-7"/><linearGradient id="linear-gradient-31" x1="6482.02" y1="2615.48" x2="6395.76" y2="2396.39" gradientTransform="matrix(0.99, -0.12, 0.12, 0.99, -4162.24, -818.26)" xlink:href="#linear-gradient-13"/><linearGradient id="linear-gradient-32" x1="-5036.25" y1="2101.36" x2="-5040.22" y2="2420.94" gradientTransform="matrix(-1, 0.05, 0.05, 1, -2658.68, -941.77)" xlink:href="#linear-gradient-7"/><linearGradient id="linear-gradient-33" x1="6455.67" y1="2625.97" x2="6369.32" y2="2406.66" gradientTransform="matrix(0.99, -0.12, 0.12, 0.99, -4162.24, -818.26)" xlink:href="#linear-gradient-13"/><linearGradient id="linear-gradient-34" x1="-4375.1" y1="1411.28" x2="-4327.78" y2="1006.96" gradientTransform="matrix(-1, 0, 0, 1, -1690.55, 0)" xlink:href="#linear-gradient"/><linearGradient id="linear-gradient-35" x1="2318.66" y1="1300.09" x2="2460.06" y2="1300.09" xlink:href="#linear-gradient-7"/><linearGradient id="linear-gradient-36" x1="2601.44" y1="1020.74" x2="2606.26" y2="979.56" gradientTransform="matrix(0.93, -0.37, 0.37, 0.93, -415.93, 909.72)" xlink:href="#linear-gradient-7"/><linearGradient id="linear-gradient-37" x1="1026.68" y1="1083.49" x2="2106.17" y2="1083.49" gradientTransform="matrix(1, 0, 0, 1, 0, 0)" xlink:href="#linear-gradient-20"/><linearGradient id="linear-gradient-38" x1="1046.13" y1="1083.49" x2="2125.6" y2="1083.49" gradientTransform="matrix(1, 0, 0, 1, 0, 0)" xlink:href="#linear-gradient-10"/><linearGradient id="linear-gradient-39" x1="1046.13" y1="1079.84" x2="1866.1" y2="1079.84" gradientTransform="matrix(1, 0, 0, 1, 0, 0)" xlink:href="#linear-gradient-10"/></defs><title>support</title><g style="isolation:isolate"><g id="Background"><rect width="3710" height="3710" style="fill:#fff"/></g><g id="Illustration"><g id="Acknowledgment_received" data-name="Acknowledgment received"><path d="M1699.46,455.24c-361.18,6.38-920,143.71-1080.85,496.62-56.18,123.26-52.38,304.46-44.77,666.87,2.23,106.52,5.94,261.78,32,454.41,54.08,400.17,90.9,672.59,230.24,831.22,349.14,397.47,1610.35,386,2148.92-329.59,293.79-390.35,339-945.64,70.35-1404.56C2759.57,665,2183,446.7,1699.46,455.24Z" style="fill:#f4f7fa"/><g style="clip-path:url(#clip-path)"><path d="M2047.73,3033l-283.85,155.09s-133-116.42-119.57-257.18c27.38-287.21-226.08-291.14-332-308.67-159.72-26.43-270.84-112.63-176.39-259.52,106.87-166.2-148.07-313.91-412.17-319.42-258.43-5.4-398-467.92,162.46-507.6,334.69-23.7,447.84,283.06,541.8,424.39s321.35,33,344.86,255.56c20.08,190.07-40.82,369.93,110.88,425.27S2110.35,2810.27,2047.73,3033Z" style="fill:url(#linear-gradient)"/><g style="opacity:0.5;mix-blend-mode:soft-light"><path d="M1939.27,3126.43l-6.49,2.14c-1.32-4-135.46-405.64-388.5-763.69C1311.18,2035,926.52,1675.73,417.83,1837.27l-2.07-6.5c226.45-71.92,447.55-48.39,657.18,69.93,167.45,94.51,327.94,249.4,477,460.35C1803.53,2719.93,1937.94,3122.4,1939.27,3126.43Z" style="fill:#beb8f2"/><path d="M1158.4,1953.92l-6.36,2.51c-83.49-211.38-312.49-451.32-314.79-453.72l4.92-4.73C844.49,1500.39,1074.42,1741.3,1158.4,1953.92Z" style="fill:#beb8f2"/><path d="M1016.56,1878.92c-270.38-15.47-425.9,147.8-427.44,149.45l-5-4.65c1.56-1.68,159.12-167.28,432.82-151.62Z" style="fill:#beb8f2"/><path d="M1697,2608c-221.35-245.91-643.46-105.27-647.45-103.56l-3.1-6.08c3.77-2,432.31-143,655.63,105.07Z" style="fill:#beb8f2"/><path d="M1633.4,2487.25l-6.54,2c-61.38-202,67.2-434.33,68.51-436.66l6,3.35C1700,2058.22,1572.87,2288.06,1633.4,2487.25Z" style="fill:#beb8f2"/><path d="M1910.28,3065.83c-68.71-105.24-273.28-106.53-275.34-106.54v-6.82c8.55,0,210.32,1.28,281.06,109.63Z" style="fill:#beb8f2"/><path d="M1879.8,2970.3l-6.46,2.22c-32.29-94,45.33-260.76,70.84-315.56,3.6-7.74,6.72-14.43,7-15.73l6.65,1.54c-.43,1.84-2.48,6.29-7.5,17.07C1925.15,2714,1848.4,2878.91,1879.8,2970.3Z" style="fill:#beb8f2"/></g></g><path d="M1452.93,1928.86c-36.63,63.36-10.35,129.28,16.14,174,7,.33,11,2.3,18,4.2,63.09,17.08,93.64,10.93,158.48,18,14,1.52,56.28-6.5,73.36-10.89l31.71-8.69s65.81-155-17.76-202-39.74-202.13-26.65-287.2c8-52.24-5-78.7-5.15-98.37-1.36-208.21,64.43-266.42,22.4-333.85-46.41-74.44-139.87-24.81-194.62-103.12-61.83-88.44,15.83-211.09-61.38-281.7-13.24-12.11-27.17-24.18-49.75-32.1-55.73-19.55-103.44,11-141.39-37.65-76.29-97.83-208.23-137.17-294.9-43.19-85.55,92.76-2.62,287.68,225.48,450.89,149,134.57,148.83,173,130,266-13.17,65.09-92,232.86-1.06,304.82S1494.8,1856.44,1452.93,1928.86Z" style="fill:url(#linear-gradient-2)"/><g style="clip-path:url(#clip-path-2)"><g style="opacity:0.5;mix-blend-mode:soft-light"><path d="M1611.44,2126.08l4.79-.36c-1.73-26.48-3.83-53.16-6.24-79.3-17.86-193.51-54.56-378.11-109.09-548.69-46.21-144.52-105.84-281-177.22-405.7C1266.27,991.76,1201,898.57,1129.61,815c-50.17-58.72-102.8-112.11-156.43-158.67-9.34-8.12-19.4-15.92-29.12-23.47-13-10.06-26.36-20.46-38.17-31.67l-3.47,3.15c12,11.37,25.47,21.84,38.51,32,9.68,7.51,19.69,15.28,28.94,23.31,53.45,46.42,105.93,99.64,155.95,158.21,71.19,83.33,136.33,176.31,193.61,276.34,71.24,124.42,130.74,260.65,176.86,404.9,54.45,170.28,91.09,354.6,108.91,547.81C1607.61,2073,1609.71,2099.63,1611.44,2126.08Z" style="fill:#fcfdfe"/><path d="M1399.44,1249.31l4.47-1.72c-75.55-176.62,23-493.28,24-496.46l-4.61-1.18C1422.32,753.15,1323.29,1071.27,1399.44,1249.31Z" style="fill:#fcfdfe"/><path d="M1563.76,1761.46l4.64-1.22c-36.09-125.9-279.49-231.81-281.94-232.87l-2.09,4.05C1286.8,1532.47,1528.23,1637.54,1563.76,1761.46Z" style="fill:#fcfdfe"/><path d="M1577.55,1834.66l4.79-.45c-7.45-85,31.41-205.61,109.44-339.5,3.92-6.73,3.92-6.73,3.86-7.57l-4.79.39,2.39-.19-2.27-.65c-.21.47-1.69,3-3.41,6C1609.1,1627.3,1570,1748.76,1577.55,1834.66Z" style="fill:#fcfdfe"/><path d="M1607.54,2077.81l4.47-1.7c-36.78-87-180.14-126.61-181.59-127l-1.42,4.28C1430.42,1953.77,1571.59,1992.76,1607.54,2077.81Z" style="fill:#fcfdfe"/><path d="M1618.66,2126.72c23.11-73.23,69.5-143.11,141.82-213.63l-3.45-3c-72.87,71.06-119.64,141.55-143,215.49Z" style="fill:#fcfdfe"/><path d="M1167,867.7l4.36-2c-47.95-95.92-74.15-207.45-82.75-244.1-2.09-8.87-2.83-12-3.3-13l-4.44,1.77c.34.8,1.53,5.87,3,12.3C1092.52,659.45,1118.8,771.34,1167,867.7Z" style="fill:#fcfdfe"/><path d="M1270,1012.49l3.58-3c-71.77-73.14-286.73-79.61-295.85-79.85l-.23,4.45C979.72,934.11,1199.58,940.71,1270,1012.49Z" style="fill:#fcfdfe"/></g></g><path d="M1614.87,2610.9c16.14-4-13-86.26,22.14-200,8.76-28.41,45.84-186.71,166.69-205.08l70.38-10.7c14.13-55.27,17.21-110-56.61-122-114.65-18.61-136.23-203.85-112.36-273,29.55-85.64,94.06-286.29-82.62-317.71-147.1-26.16-248.43-14.35-276.13-187.19s-139.06-269.73-304.68-240c-174.29,31.27-340.61-173.06-476.79-82.42-237.28,157.93,28.58,515,344.39,590.71s151.71,199.88,158,343.22a247.63,247.63,0,0,0,12.67,57.23c50.74,144.52,208.63,152.13,333.53,260.79C1583.79,2373,1587.68,2617.6,1614.87,2610.9Z" style="fill:url(#linear-gradient-3)"/><g style="clip-path:url(#clip-path-3)"><g style="opacity:0.5;mix-blend-mode:soft-light"><path d="M1657,2206.55l8-2.52C1486.18,1656.6,1026.11,1201.19,464.28,1015.52l-2.92,7.47C1020.83,1207.88,1479,1661.39,1657,2206.55Z" style="fill:#fcfdfe"/><path d="M1532.36,1916.68l8.28-1c-23.74-225.18,161.39-425.06,163.27-427l-6.15-5.17C1695.87,1485.48,1508.25,1687.94,1532.36,1916.68Z" style="fill:#fcfdfe"/><path d="M1621.17,2106.76l6.9-4.59c-135.7-187.23-576.88-163.29-581.32-163l.3,7.89C1051.44,1946.76,1488.06,1923.09,1621.17,2106.76Z" style="fill:#fcfdfe"/><path d="M1186.89,1464l7.27-4c-93.65-157-6.05-426.41-5.16-429.11l-7.93-2.2C1180.17,1031.44,1091.51,1304.08,1186.89,1464Z" style="fill:#fcfdfe"/><path d="M894.92,1231.16l3.64-7.19c-197.11-85.86-478.47,8.22-481.29,9.18l2.63,7.43C422.68,1239.63,700.88,1146.64,894.92,1231.16Z" style="fill:#fcfdfe"/></g></g><g style="clip-path:url(#clip-path-4)"><g style="clip-path:url(#clip-path-5)"><path d="M1991.77,3511.17l192.56,105.2s90.22-79,81.12-174.47c-18.58-194.83,153.36-197.5,225.21-209.39,108.35-17.93,183.73-76.41,119.66-176.06-72.5-112.75,100.45-213,279.61-216.7,175.32-3.66,270-317.43-110.21-344.34-227-16.08-303.81,192-367.56,287.9s-218,22.41-233.94,173.37c-13.62,128.94,27.69,251-75.22,288.5S1949.29,3360.09,1991.77,3511.17Z" style="fill:url(#linear-gradient-4)"/><g style="opacity:0.5;mix-blend-mode:soft-light"><path d="M2065.35,3574.57l4.4,1.45c.9-2.72,91.9-275.18,263.55-518.08,158.14-223.77,419.09-467.52,764.18-357.92l1.4-4.42c-153.62-48.78-303.61-32.82-445.82,47.44-113.6,64.12-222.47,169.19-323.6,312.3C2157.43,3298.81,2066.25,3571.84,2065.35,3574.57Z" style="fill:#beb8f2"/><path d="M2595.08,2779.15l4.31,1.7c56.64-143.4,212-306.17,213.56-307.8l-3.34-3.21C2808,2471.48,2652.06,2634.91,2595.08,2779.15Z" style="fill:#beb8f2"/><path d="M2691.3,2728.27c183.43-10.5,288.93,100.27,290,101.39l3.39-3.16c-1.06-1.14-108-113.48-293.63-102.86Z" style="fill:#beb8f2"/><path d="M2229.73,3222.85C2379.9,3056,2666.25,3151.44,2669,3152.6l2.1-4.12c-2.55-1.4-293.27-97-444.77,71.28Z" style="fill:#beb8f2"/><path d="M2272.85,3141l4.43,1.35c41.64-137-45.59-294.65-46.47-296.22l-4,2.26C2227.65,2849.91,2313.91,3005.83,2272.85,3141Z" style="fill:#beb8f2"/><path d="M2085,3533.46c46.62-71.39,185.4-72.27,186.79-72.27v-4.63c-5.8,0-142.68.87-190.67,74.37Z" style="fill:#beb8f2"/><path d="M2105.69,3468.65l4.38,1.51c21.91-63.76-30.75-176.9-48.06-214.07-2.44-5.26-4.55-9.79-4.77-10.67l-4.51,1c.29,1.25,1.68,4.27,5.09,11.58C2074.92,3294.8,2127,3406.66,2105.69,3468.65Z" style="fill:#beb8f2"/></g></g><path d="M2395.28,2762.15c24.85,43,7,87.7-11,118-4.77.22-7.45,1.56-12.19,2.85-42.8,11.59-63.53,7.41-107.52,12.18-9.47,1-38.17-4.42-49.76-7.39l-21.51-5.9s-44.65-105.17,12-137,27-137.12,18.08-194.83c-5.45-35.44,3.41-53.39,3.5-66.73.92-141.25-43.71-180.74-15.2-226.48,31.48-50.51,94.88-16.84,132-70,41.94-60-10.74-143.2,41.64-191.1,9-8.22,18.43-16.41,33.75-21.78,37.81-13.26,70.17,7.48,95.92-25.54,51.75-66.37,141.26-93.06,200.06-29.3,58,62.93,1.77,195.16-153,305.88-101.07,91.29-101,117.39-88.21,180.43,8.93,44.17,62.41,158,.72,206.8S2366.87,2713,2395.28,2762.15Z" style="fill:url(#linear-gradient-5)"/><g style="clip-path:url(#clip-path-6)"><g style="opacity:0.5;mix-blend-mode:soft-light"><path d="M2287.74,2895.94l-3.25-.24c1.18-18,2.6-36.07,4.24-53.8,12.11-131.27,37-256.51,74-372.22,31.35-98,71.8-190.65,120.23-275.23,38.95-68,83.24-131.24,131.66-187.92a1020.08,1020.08,0,0,1,106.11-107.64c6.34-5.51,13.16-10.8,19.76-15.93,8.79-6.82,17.88-13.87,25.9-21.48l2.35,2.14c-8.13,7.71-17.28,14.81-26.13,21.68-6.56,5.1-13.35,10.37-19.63,15.81a1019,1019,0,0,0-105.8,107.33c-48.29,56.53-92.48,119.61-131.34,187.47-48.33,84.41-88.69,176.82-120,274.68-36.93,115.52-61.79,240.55-73.88,371.63C2290.34,2859.93,2288.92,2878,2287.74,2895.94Z" style="fill:#fcfdfe"/><path d="M2431.56,2301.15l-3-1.17c51.25-119.82-15.62-334.64-16.3-336.79l3.13-.8C2416,1964.55,2483.22,2180.36,2431.56,2301.15Z" style="fill:#fcfdfe"/><path d="M2320.09,2648.59l-3.15-.83c24.49-85.41,189.6-157.26,191.27-158l1.42,2.75C2508,2493.24,2344.19,2564.52,2320.09,2648.59Z" style="fill:#fcfdfe"/><path d="M2310.73,2698.24l-3.24-.3c5.05-57.69-21.32-139.49-74.25-230.31-2.66-4.57-2.66-4.57-2.62-5.14l3.25.27-1.62-.14,1.54-.44c.14.33,1.15,2.05,2.31,4.05C2289.33,2557.57,2315.84,2640,2310.73,2698.24Z" style="fill:#fcfdfe"/><path d="M2290.39,2863.19l-3-1.15c25-59,122.22-85.89,123.19-86.16l1,2.91C2410.55,2779.05,2314.77,2805.5,2290.39,2863.19Z" style="fill:#fcfdfe"/><path d="M2282.85,2896.37c-15.68-49.68-47.16-97.08-96.21-144.92l2.34-2.06c49.43,48.2,81.16,96,97,146.19Z" style="fill:#fcfdfe"/><path d="M2589.27,2042.26l-3-1.32c32.53-65.07,50.3-140.73,56.14-165.59,1.42-6,1.92-8.14,2.23-8.84l3,1.2c-.23.54-1,4-2.07,8.34C2639.78,1901,2621.94,1976.9,2589.27,2042.26Z" style="fill:#fcfdfe"/><path d="M2519.37,2140.49l-2.43-2.06c48.69-49.62,194.52-54,200.7-54.17l.16,3C2716.3,2087.32,2567.15,2091.8,2519.37,2140.49Z" style="fill:#fcfdfe"/></g></g><path d="M2285.42,3224.84c-11-2.69,8.79-58.52-15-135.67-6-19.28-31.1-126.66-113.09-139.13l-47.74-7.26c-9.59-37.49-11.68-74.6,38.41-82.73,77.77-12.62,92.41-138.28,76.22-185.23-20-58.09-63.81-194.21,56.05-215.53,99.79-17.74,168.53-9.73,187.32-127s94.34-183,206.7-162.83c118.23,21.22,231.06-117.4,323.45-55.91,161,107.14-19.39,349.38-233.64,400.73s-102.91,135.6-107.17,232.85a167.89,167.89,0,0,1-8.59,38.82c-34.43,98-141.54,103.2-226.27,176.92C2306.5,3063.43,2303.86,3229.39,2285.42,3224.84Z" style="fill:url(#linear-gradient-6)"/><g style="clip-path:url(#clip-path-7)"><g style="opacity:0.5;mix-blend-mode:soft-light"><path d="M2256.86,2950.53l-5.4-1.71c121.26-371.37,433.36-680.32,814.51-806.27l2,5.07C2688.41,2273,2377.61,2580.7,2256.86,2950.53Z" style="fill:#fcfdfe"/><path d="M2341.39,2753.89l-5.62-.67c16.11-152.77-109.48-288.36-110.76-289.71l4.17-3.51C2230.47,2461.37,2357.75,2598.71,2341.39,2753.89Z" style="fill:#fcfdfe"/><path d="M2281.14,2882.84l-4.68-3.12c92.06-127,391.35-110.78,394.37-110.6l-.21,5.35C2667.64,2774.3,2371.44,2758.23,2281.14,2882.84Z" style="fill:#fcfdfe"/><path d="M2575.75,2446.82l-4.93-2.73c63.54-106.55,4.11-289.28,3.5-291.11l5.38-1.49C2580.32,2153.34,2640.46,2338.31,2575.75,2446.82Z" style="fill:#fcfdfe"/><path d="M2773.82,2288.84l-2.46-4.88c133.72-58.25,324.59,5.57,326.5,6.23l-1.78,5C3094.19,2294.58,2905.46,2231.5,2773.82,2288.84Z" style="fill:#fcfdfe"/></g></g></g><path d="M3056.53,3090.53l-2010.68-17.38v51.42c0,14,8.77,25.83,20.64,27.94l568.57,101.27a78.76,78.76,0,0,0,20.39.95l1379.23-115.46c12.32-1,21.85-12.94,21.85-27.28Z" style="fill:#bfc8d6"/><path d="M2316.6,3008.12l-1278,94.07c-22.86,1.68-41.46-16.2-41.46-40V2110.58c0-23.76,18.6-43,41.46-43h1278c18.84,0,34.07,17.4,34.07,38.88v860.28C2350.67,2988.2,2335.44,3006.73,2316.6,3008.12Z" style="fill:#bfc8d6"/><path d="M2337,3008.12,1059,3102.19c-22.87,1.68-41.46-16.2-41.46-40V2110.58c0-23.76,18.59-43,41.46-43H2337c18.84,0,34.08,17.4,34.08,38.88v860.28C2371.05,2988.2,2355.81,3006.73,2337,3008.12Z" style="fill:#fff"/><path d="M2297.16,2947.46l-1190.28,81.72c-18.61,1.28-33.73-13.4-33.73-32.79V2163.21c0-19.39,15.12-35.18,33.73-35.26l1190.28-5.13c15.54-.07,28.12,14.2,28.12,31.86v758.87C2325.28,2931.22,2312.7,2946.4,2297.16,2947.46Z" style="fill:url(#linear-gradient-7)"/><path d="M1743.13,2093.6c0,8.84-6.58,16-14.7,16.05s-14.73-7.13-14.73-16,6.6-16.05,14.73-16.05S1743.13,2084.75,1743.13,2093.6Z" style="fill:#fff"/><path d="M1059,3102.19l1271.48-93.6,6.47-.47c8.65-.64,16.51-4.91,22.51-11.4-91.5-5-148.33-37.47-185-71-73.62-67.38-60.85-133.83-140.24-178.13-99-55.25-176.88,14.76-252-54.32-45.55-41.88-23.19-73.11-79.24-135.69-62.09-69.32-102.51-46-164.9-108.41-78.9-78.88-39.44-140.26-107.4-196.89-82.44-68.71-171.35-5.12-249.83-71-33.85-28.42-52.42-69.74-62.12-113.68H1059c-22.87,0-41.46,19.25-41.46,43v951.65C1017.56,3086,1036.15,3103.87,1059,3102.19Z" style="fill:#fff;opacity:0.48;mix-blend-mode:soft-light"/><path d="M2397.19,3002.9l-1351.34,99,589.21,104.94a78.76,78.76,0,0,0,20.39.95l1401.08-117.28-637.85-87A103,103,0,0,0,2397.19,3002.9Z" style="fill:url(#linear-gradient-8)"/><polygon points="1243.03 3102.77 2368.06 3019.1 2716.25 3066.19 1600.91 3155.63 1243.03 3102.77" style="fill:#d8dee8"/><g style="clip-path:url(#clip-path-8)"><path d="M2400.74,2273.83s18.9-22.6,54.35-23.67,83.77-22.1,104.51-24c5-.44,7.49-1.88,7.92-3.71.87-3.76-22.16-9.24-42.59-9.92-36.22-1.21-57.35,12.69-62.24,5.55-5.46-8,17.92-29.79,13.64-34.68-3.32-3.78-19.22,8.37-36.23,15.78-12.08,5.26-59.32,61.75-59.32,61.75Z" style="fill:url(#linear-gradient-9)"/><path d="M2401.9,2232.81l26.37,53.22a706.06,706.06,0,0,1-66,195.6c-42.65,83.19-139.85,272.82-311,290-130.52,13.12-240-80.34-281.48-116.1-38.33-33.07-72.72-62.24-89.42-108.77-26.34-73.39.25-163.87,64.05-249.08,31.4-41.95,96.75-32.92,115.31,16.08,29.29,77.31,78.68,131,135.42,141.5,63.8,11.8,134.85-31.42,165.09-49.77,45-27.3,56.44-48.3,112.37-91.54A781,781,0,0,1,2401.9,2232.81Z" style="fill:url(#linear-gradient-10)"/><g style="opacity:0.30000000000000004;mix-blend-mode:multiply"><path d="M1882.31,2630.59c48.88-11,67.33-56.4,134.34-60.47,84.73-5.15,121.14,63.43,175.34,45.35,44.24-14.77,51.58-71,82.43-143.39,23.92-56.15,65.41-130,142.75-208.43l11.1,22.38a706.06,706.06,0,0,1-66,195.6c-42.65,83.19-139.85,272.82-311,290-130.52,13.12-240-80.34-281.48-116.1-38.33-33.07-72.72-62.24-89.42-108.77a171.28,171.28,0,0,1-9-40.09C1772.36,2622.1,1838.43,2640.46,1882.31,2630.59Z" style="fill:url(#linear-gradient-11)"/></g><path d="M1263,2955.66c-1-50.56-3.74-329.53,131.32-530.14,31-46,85.74-127.34,190.9-181.17a450.28,450.28,0,0,1,103.35-37.69l90,13.37a547.21,547.21,0,0,1,102.13,125.24c21.81,36.76,57.89,97.59,66.25,176.12,9.73,91.52-26.64,127.59-56.52,270.12a1133,1133,0,0,0-23.1,184.82L1556,3003.08a1461.92,1461.92,0,0,0-48.64-328.3,1259.8,1259.8,0,0,0-37.69,333.16c-12.61,5-83.58,31.57-152-4.86A166.06,166.06,0,0,1,1263,2955.66Z" style="fill:url(#linear-gradient-12)"/><path d="M1761.91,2035.71c48.25-75.23,72.37-112.84,73.4-151.14,2.24-83.68-61.64-156.68-120.76-191.44-83-48.79-175.68-33.49-234.35-23.81-75.38,12.44-74.4,30.83-112.57,27.38-105.47-9.54-117.14-150.34-235.89-222.42-131-79.53-299.64-19.09-341.66-2.13-223.93,90.34-276.47,327.07-281.44,351.41-46.07,225.53,80.67,437.88,234.33,533.71,43.94,27.4,156.35,97.5,246.68,57.27,87-38.75,79.64-146.91,199.45-204.3,16.74-8,67.46-32.32,132.94-29,74,3.79,96.93,39.27,175,40.72,63.27,1.18,110.65-21,120.08-25.55C1676.4,2167.74,1705.72,2123.33,1761.91,2035.71Z" style="fill:url(#linear-gradient-13)"/><g style="opacity:0.30000000000000004;mix-blend-mode:multiply"><path d="M496,1893.38c51,219.52,101.15,287.43,145,289.43,61.34,2.8,95.58-124.07,189.4-125.48,84.39-1.27,109,100.58,185.88,97.82,97.23-3.49,105.75-167.93,213.67-195.71,128.44-33,218.67,173.56,370.63,162.25,46-3.42,102.65-27.27,165.15-103.52l-5.74,9.39c-54.34,88.78-82.72,133.8-141.42,163.75-9.34,4.76-56.24,27.91-119.52,28.06-78,.19-101.76-34.8-175.78-37-65.54-2-115.74,23.38-132.3,31.75C1072.42,2274,1082,2382,995.88,2422.54c-89.47,42.12-203.33-25.6-247.83-52.07C604.3,2285,481.43,2099.61,496,1893.38Z" style="fill:url(#linear-gradient-14)"/></g><path d="M1763.69,2071.31s2.52,65,0,108.6c-1.85,31.93,25.76,50.12,25.76,50.12s15.16,26-66.83,30.32-161.79,0-161.79,0,80.17-53.32,98.48-67.49,28.15-120.11,16.42-187.2Z" style="fill:url(#linear-gradient-15)"/><path d="M1784.68,1861.64s41.73,100.62,41.51,161.42-42.73,95.69-75,80.67-80.82-78.24-80.82-78.24-6.53,17-31.26,0-43.1-112.61,5-85.49c0,0-7.61-26.79,4.24-65.65S1770.61,1793.54,1784.68,1861.64Z" style="fill:url(#linear-gradient-16)"/><g style="opacity:0.30000000000000004;mix-blend-mode:multiply"><path d="M1438.09,2826.52c36.17-56.76-19-106,4.45-195.8,20-76.66,85.1-136.5,109-126.83,33.06,13.36-31.91,151.59,33.37,215.83,43.34,42.64,99.82,9.14,158,46.72,38.35,24.79,76.89,80.18,79.9,213.71L1556,3003.08a1461.92,1461.92,0,0,0-48.64-328.3,1259.8,1259.8,0,0,0-37.69,333.16c-12.61,5-83.58,31.57-152-4.86-3.82-2-7.43-4.18-10.88-6.39,1.75-29.45,9.31-63.1,31.12-92.3C1373.42,2857,1411.92,2867.58,1438.09,2826.52Z" style="fill:url(#linear-gradient-17)"/></g><path d="M1715.83,2076.06c-58.41,0-80.41-83.7-80.64-84.61a4.07,4.07,0,0,1,7.88-2c.23.91,23.92,90.88,85.69,77a4.07,4.07,0,0,1,1.78,7.94A67.26,67.26,0,0,1,1715.83,2076.06Z" style="fill:#fff"/><ellipse cx="1747.08" cy="2067.94" rx="21.01" ry="11.52" transform="translate(-464.18 506.21) rotate(-14.58)" style="fill:#fff"/><ellipse cx="1631.9" cy="1977.74" rx="19.62" ry="31.42" transform="matrix(0.97, -0.25, 0.25, 0.97, -445.19, 474.33)" style="fill:#fff"/><path d="M1622,1961.09l-1.41-3.38c-.86-2.2-2.08-5.42-3.48-9.57a224.9,224.9,0,0,1-8.65-35.08,173.29,173.29,0,0,1-1.06-51.12,122.35,122.35,0,0,1,7.17-28.15,112.3,112.3,0,0,1,35.14-47.92l5.83-4.52,6.08-4,3-2,3.12-1.75,6.2-3.42c2.21-1.19,4.18-2,6.27-3,2.21-.83,4.37-1.78,6.54-2.47a91.1,91.1,0,0,1,37.25-4.45,52.07,52.07,0,0,1,5.49.68,46.23,46.23,0,0,1,5.26,1c1.68.44,3.34.75,4.91,1.26l4.53,1.57a35.93,35.93,0,0,1,4.13,1.79c1.29.65,2.61,1.15,3.76,1.85,2.26,1.46,4.46,2.62,6.22,4l4.63,3.76c1.26,1.18,2.23,2.3,3.07,3.16l2.51,2.66a2.16,2.16,0,0,1-3.12,3l-.21-.2-2.35-2.44c-.79-.78-1.68-1.81-2.86-2.89l-4.31-3.42c-1.63-1.26-3.68-2.29-5.77-3.63-1.06-.64-2.29-1.08-3.5-1.67a33.56,33.56,0,0,0-3.84-1.63l-4.23-1.41c-1.46-.46-3-.73-4.6-1.13a39.91,39.91,0,0,0-4.87-.88,47.62,47.62,0,0,0-5.23-.6,85.16,85.16,0,0,0-23,1.29,83.93,83.93,0,0,0-12.15,3.27c-2,.67-4,1.56-6,2.33-2,1-4.22,1.94-6,3l-5.94,3.37-3,1.71-2.88,1.94-5.8,3.91c-1.84,1.45-3.68,2.92-5.53,4.39a106.25,106.25,0,0,0-32.86,45.75,115.79,115.79,0,0,0-6.52,26.8,166.47,166.47,0,0,0,1.54,49.08,217.54,217.54,0,0,0,8.71,33.85c1.4,4,2.6,7.06,3.44,9.14l1.33,3.11.07.15a3.8,3.8,0,0,1-7,3Z" style="fill:#fff"/></g><path d="M3045.73,1348.49l-65.93-19.41a489.62,489.62,0,0,0,6.33-133.62l65.29-15.81c17.84-4.32,28.95-22.69,24.85-41.07l-10.94-49c-4.13-18.5-22-30.14-40-26l-64.27,14.93a505.51,505.51,0,0,0-62.33-123l47.75-45c13.7-12.91,14.4-35,1.54-49.48l-34.38-38.61c-13-14.59-34.81-16-48.7-3l-47.66,44.41a514.21,514.21,0,0,0-119.4-78.9l18.91-63.81c5.57-18.83-5.18-39.38-24.08-45.93l-50.59-17.53c-19.15-6.64-39.29,3.39-44.93,22.43l-19.11,64.5a520.43,520.43,0,0,0-146.74-9.3l-17-68.46c-5-20.12-25.35-33.39-45.55-29.59l-54,10.16c-20.43,3.84-32.86,23.44-27.72,43.74l17.8,70.17a516.38,516.38,0,0,0-131.83,67.07l-53.4-55.31c-15.14-15.68-40.06-17.26-55.65-3.46l-41.58,36.82c-15.69,13.89-15.93,37.88-.55,53.51l55.51,56.4A494.2,494.2,0,0,0,2001.05,1041l-79.67-23.45c-21.45-6.32-43.69,4.76-49.61,24.76L1856,1095.46c-5.93,20,6.77,41.16,28.28,47.25l82,23.2a489.85,489.85,0,0,0,.92,143.41L1883,1328.89c-21.49,5-34.39,25.33-28.75,45.37l14.94,53.13c5.6,19.91,27.46,31.83,48.77,26.67l85.52-20.7a507.61,507.61,0,0,0,74,119.84l-63.21,58.91c-15.42,14.36-15.64,37.48-.53,51.58l40,37.28c14.95,13.94,39.35,13.6,54.53-.7l63-59.32a516.42,516.42,0,0,0,122,65.44l-23.68,79.9c-5.63,19,5.86,38.19,25.61,42.78l52.19,12.13c19.5,4.53,39.78-7.07,45.36-25.89l23.41-79a519.67,519.67,0,0,0,135.64-1.61l19.42,76.59c4.64,18.3,23.77,28.74,42.69,23.35l50-14.25c18.71-5.33,30.2-24.34,25.7-42.5l-18.61-75.16a515.5,515.5,0,0,0,116.17-65.1l52.4,53.26c12.87,13.07,34.29,12.77,47.86-.62l36-35.5c13.49-13.31,14.17-34.69,1.49-47.82l-50.45-52.25a494.54,494.54,0,0,0,69.9-112.22l67.92,19.2c17.51,5,36-5.6,41.29-23.57l14.15-47.76C3073,1372.34,3063.18,1353.63,3045.73,1348.49Zm-650,235.18c-197.13-50.52-315.47-250.2-258-444.34s266.14-299.22,459.73-236.71c187,60.38,290.2,255.68,236.18,438S2586.18,1632.49,2395.75,1583.67Z" style="fill:#97a6b7"/><polygon points="2433.9 653.81 2387.44 638.28 2358.79 675.57 2433.9 653.81" style="fill:#97a6b7"/><polygon points="2893.53 811.1 2947.49 827.67 2935.66 867.59 2893.53 811.1" style="fill:#97a6b7"/><polygon points="3042.73 1064.77 3096.03 1082.93 3073.59 1109.14 3042.73 1064.77" style="fill:#97a6b7"/><polygon points="3050.23 1350.44 3103.43 1370.9 3077.8 1392.06 3050.23 1350.44" style="fill:#97a6b7"/><polygon points="2848.84 1697.44 2899.47 1720.65 2918.73 1679.41 2848.84 1697.44" style="fill:#97a6b7"/><polygon points="2588.85 1832.25 2633.77 1854.95 2647.93 1821 2588.85 1832.25" style="fill:#97a6b7"/><polygon points="2326.55 1846.09 2286.18 1825.91 2339 1782.3 2326.55 1846.09" style="fill:#97a6b7"/><polygon points="2109.25 1731.84 2062.65 1706.88 2114.7 1671.84 2109.25 1731.84" style="fill:#97a6b7"/><polygon points="2093.72 760.17 2145.03 777.13 2113.34 808.82 2093.72 760.17" style="fill:#97a6b7"/><polygon points="1870.34 1135.87 1915.74 1156.94 1923.47 1116.98 1870.34 1135.87" style="fill:#97a6b7"/><polygon points="1888.08 1450.37 1932.24 1471.66 1945.12 1442.03 1888.08 1450.37" style="fill:#97a6b7"/><path d="M3097.7,1368.54,3031.23,1349a493.6,493.6,0,0,0,6.37-134.71l65.83-15.93c18-4.36,29.19-22.88,25.05-41.41l-11-49.44c-4.16-18.65-22.19-30.39-40.31-26.18l-64.81,15a509.35,509.35,0,0,0-62.85-124L2997.63,927c13.81-13,14.51-35.32,1.55-49.88l-34.67-38.92c-13.1-14.72-35.1-16.11-49.11-3.06l-48.05,44.77A518.45,518.45,0,0,0,2747,800.38L2766,736.05c5.62-19-5.22-39.7-24.28-46.31l-51-17.67c-19.3-6.69-39.61,3.42-45.29,22.61l-19.27,65a524.64,524.64,0,0,0-148-9.39l-17.1-69c-5-20.28-25.56-33.65-45.93-29.83l-54.47,10.24c-20.6,3.88-33.13,23.64-27.94,44.1l17.94,70.74a520.74,520.74,0,0,0-132.91,67.61L2164,788.4c-15.26-15.81-40.39-17.4-56.1-3.49L2065.92,822c-15.82,14-16.06,38.18-.55,53.94l56,56.87a498.38,498.38,0,0,0-77,125.62L1964,1034.81c-21.62-6.36-44,4.81-50,25l-15.89,53.62c-6,20.17,6.83,41.5,28.52,47.63l82.72,23.4a493.31,493.31,0,0,0,.94,144.58l-85,19.73c-21.66,5-34.67,25.53-29,45.74l15.06,53.56c5.65,20.07,27.69,32.09,49.18,26.89l86.22-20.87a511.88,511.88,0,0,0,74.66,120.83l-63.74,59.38c-15.54,14.48-15.77,37.79-.53,52l40.31,37.59c15.06,14.05,39.67,13.71,55-.71l63.48-59.79a520.76,520.76,0,0,0,123,66l-23.86,80.56c-5.69,19.18,5.9,38.5,25.81,43.13l52.63,12.22c19.66,4.57,40.11-7.12,45.73-26.1l23.61-79.68a523.79,523.79,0,0,0,136.75-1.62l19.59,77.22c4.68,18.45,24,29,43,23.54l50.46-14.37c18.87-5.37,30.45-24.53,25.91-42.84l-18.77-75.78A519.73,519.73,0,0,0,2837,1660l52.84,53.69c13,13.18,34.57,12.88,48.25-.62l36.29-35.78c13.6-13.42,14.27-35,1.49-48.21L2925,1576.39a498.51,498.51,0,0,0,70.48-113.14l68.48,19.37c17.65,5,36.27-5.66,41.63-23.76l14.27-48.16C3125.17,1392.59,3115.3,1373.72,3097.7,1368.54Zm-655.35,237.08c-198.76-50.95-318.09-252.25-260.11-448S2450.57,856,2645.76,919c188.55,60.89,292.62,257.78,238.15,441.63S2634.36,1654.84,2442.35,1605.62Z" style="fill:#d8dee8"/><g style="clip-path:url(#clip-path-9)"><path d="M2329.09,924.56l20.52-14s2.72-26.5,14.11-35.6,42.26-18.88,45.72-4-12.53,62-32.1,67.23-39.62,17.58-39.62,17.58Z" style="fill:url(#linear-gradient-18)"/><path d="M2418,976.32s-60.29-14.29-107.29,31.75-102.27,119.7-107.2,109.1S2292.15,987.71,2351.09,953c-7.43-22.29-23.52-46.31-23.52-46.31s-272.68,77-265.49,203.81,79.35,145.24,98.9,145.24,68.27,24.15,205-40.24S2418,976.32,2418,976.32Z" style="fill:url(#linear-gradient-19)"/><rect x="2341.48" y="877.57" width="101.63" height="64.67" rx="4.42" transform="translate(267.86 2337.41) rotate(-54.72)" style="fill:url(#linear-gradient-20)"/><rect x="2342.99" y="878.63" width="101.63" height="64.67" rx="4.42" transform="translate(267.63 2339.1) rotate(-54.72)" style="fill:url(#linear-gradient-21)"/><rect x="2351.84" y="883.42" width="85" height="53.59" rx="4.42" transform="matrix(0.58, -0.82, 0.82, 0.58, 268.47, 2339.22)" style="fill:#fff"/><rect x="2418.42" y="864.58" width="3.7" height="14.78" rx="1.5" transform="translate(310.65 2344.22) rotate(-54.72)" style="fill:#fff"/><path d="M2557.28,2501.56l-4,45.52c1.14,2.2,14.67,8.79,25.42,3.14l10.27-44.75Z" style="fill:url(#linear-gradient-22)"/><path d="M2254.4,2501.79c6.52,7.21,8,20.47,2.34,27s-14,1.6-37.74,2.31c-25.47.76-32.12,6.78-49.43,2-7-1.93-19.35-6.62-19.11-11.61.16-3.51,6.45-5.33,27.45-12.36,29.81-10,29.68-10.53,36-11.58C2229.82,2494.92,2245.78,2492.28,2254.4,2501.79Z" style="fill:url(#linear-gradient-23)"/><path d="M2238.08,2460.25l-12.78,42.49c1,2.28,14,9.89,25.1,5.07l19-41.25Z" style="fill:url(#linear-gradient-24)"/><path d="M2351.59,1529.51a3980.09,3980.09,0,0,1-35,477.87,3981.18,3981.18,0,0,1-90.83,465.24l48.9,13.16c41.35-38.56,93.52-99.27,118.69-185,15.63-53.24,10.42-80.6,20.33-146.09,15.78-104.26,47.74-158.89,80.77-243,29.69-75.56,64.78-186.44,83.59-334.65Z" style="fill:url(#linear-gradient-25)"/><path d="M2339.45,2215.31c16.36-45.19,36.27-59.1,45.16-106.45,7.76-41.3-2.89-54.72-3.22-96.78-.67-83.83,41-111.59,54.84-180.65,7.52-37.44-41.66-132-86.76-213.64q1.58-45.18,2.12-88.28L2578.08,1577c-18.81,148.21-53.9,259.09-83.59,334.65-33,84.07-65,138.7-80.77,243-9.91,65.49-4.7,92.85-20.33,146.09-25.17,85.77-77.34,146.48-118.69,185l-4.62-1.25c41.69-54.33,54.63-100.48,56.47-137C2328.44,2309.87,2319,2271.77,2339.45,2215.31Z" style="opacity:0.30000000000000004;mix-blend-mode:multiply;fill:url(#linear-gradient-26)"/><path d="M2508.56,1546.29q15,272.46,24.4,555,7,211.95,10.37,418.49l50,6.16a581.65,581.65,0,0,0,52.1-134.44c17.78-71.29,13.66-113.63,21.45-187.51,8.75-82.87,21.46-100.93,44-205.46,45.69-212.16,68.53-318.24,17.57-384.22C2711.83,1592.86,2660,1539.12,2508.56,1546.29Z" style="fill:url(#linear-gradient-27)"/><path d="M2739.14,1004.7a856.75,856.75,0,0,0-183.49-30.65c-114-6.44-171-9.29-204.44,16.91-103.77,81.26-5.43,371.71-42.41,524.33-31.11,128.41-32.25,130.65-32.25,130.65-7.36,14.35-19.28,34.3-14.52,58.06,3.74,18.69,17.88,40.17,37.1,46.78,39.93,13.74,62.82-50.11,129-69.36,69.22-20.12,146.66,19.86,244.58,70.4,62.32,32.17,83.6,52.69,105.44,42.51,42.05-19.61,30.5-127.09,25.8-171C2785.34,1449,2764.35,1244.79,2739.14,1004.7Z" style="fill:url(#linear-gradient-28)"/><path d="M2331.39,1689.49c11.26-19.52,10.78-49,35.48-62.91,14.4-8.11,25.63-4.32,45.16-4.84,58.25-1.55,69.4-38.19,109.69-40.32,62.39-3.3,92.37,81.59,127.42,69.36,22.88-8,37.62-53.76,25.81-88.72-16.46-48.73-72.88-42.06-146.78-108.07-31.62-28.23-77-79.19-64.52-101.61,13.08-23.55,75.15,11,121-24.2,26.74-20.54,23.32-45.92,45.16-91.94,11.84-24.93,55.18-89.76,119.63-133.47,20.73,198.19,38.52,370.46,54.57,520.59,4.7,43.88,16.25,151.36-25.8,171-21.84,10.18-43.12-10.34-105.44-42.51-97.92-50.54-175.36-90.52-244.58-70.4-66.21,19.25-89.1,83.1-129,69.36-12.48-4.29-22.75-14.87-29.49-26.86C2305.25,1717.51,2322.9,1704.19,2331.39,1689.49Z" style="opacity:0.30000000000000004;mix-blend-mode:multiply;fill:url(#linear-gradient-29)"/><path d="M2526.92,887.31c-.07,8.66-7.92,52.07,21.14,73.12,29.33,21.23,66.22,20.08,77.21,22.8,25.49,6.32,28.77,6.15,29.33,8.68,2.75,12.34-66.75,54.39-138.56,44.25-43.94-6.2-83.92-31.27-81.47-44.44s29.86-6.14,42.94-30.11c9.11-16.67,15.41-40.35,3.35-60C2492.54,879.77,2515.24,909.19,2526.92,887.31Z" style="fill:url(#linear-gradient-30)"/><path d="M2433.92,885.5c-12.39-12.9-16-37.6-5.61-54.74,9-14.75,25.41-18.68,35.25-21,28.51-6.82,66.45.86,82.35,25.94,9.42,14.87-2.9,49.6-4.74,55.8-2.08,7-7,9.93-11.26,15.55-5.87,7.79-15,20.16-29.92,40.8a121.1,121.1,0,0,0-8.94-18.83c-1.58-2.68-7.88-13.14-16.51-21.4C2457.26,891,2445.67,897.73,2433.92,885.5Z" style="fill:url(#linear-gradient-31)"/><path d="M2522.54,929.25s-15.25,33.48-53.4,35.57c-34.15,1.88-48.27-73.52-28.57-92.26,6.58-6.25,20.77-10.22,32.93-8.34,7.18,1.11,9.88,3.71,21.65,5.29,10.85,1.47,13.68-.06,17.18,2.23,4.38,2.87,8.28,10.72,4.32,33.73,5.67-7.32,13.13-10.77,18.95-8.83a11.7,11.7,0,0,1,5,3.85C2546.42,908.6,2539.83,920.64,2522.54,929.25Z" style="fill:url(#linear-gradient-32)"/><path d="M2513.32,867c-1.49,1.42,4.24,6.91,5.65,15.5,2.74,16.66-11.79,38.81-28.88,42.6-10.11,2.24-13.66-3.58-30.78-3.33a77.77,77.77,0,0,0-24.49,4.39c-3.1,19,4.1,36.73,17.41,43.75,14.32,7.56,30.54,0,37.32-3.2,4.54-2.12,19.08-8.89,25.32-23.72,6.5-15.46-2.64-23.21,5.64-34.13,4.17-5.51,10.18-8.4,15.13-18.69a47.43,47.43,0,0,0,2.66-6.85C2528.44,875.12,2515.47,865,2513.32,867Z" style="fill:url(#linear-gradient-33)"/><path d="M2650.75,1054c17.41-26.4,52-52.3,83.88-50,93,6.71,207.64,257.23,129,356.46-60,75.75-245.36,79.42-414.53-51.61v-43.55c83.25,14.56,152.26,24.22,203.24,30.64,31.79,4,63.46,7.62,69.35-4.84,8.92-18.84-54.75-45.79-79-116.13C2639.34,1165.26,2618.05,1103.58,2650.75,1054Z" style="fill:url(#linear-gradient-34)"/><path d="M2388.92,1274.54c-.76.13-42.72-26.93-36.77-11s18.1,21.55,18.1,21.55-22.13,7.43-37,25.75-19.07,29.23-9.41,30.71,89.44-35.7,110-35.06,25-.35,25-.35l1.24-29.22S2407.93,1271.38,2388.92,1274.54Z" style="fill:url(#linear-gradient-35)"/><path d="M2353.67,906.49s7.26-.2,10.89,4,21.38-8.07,28.18-21.72-1.58-28-7.63-25-36.89,14.3-32.46,41.3Z" style="fill:url(#linear-gradient-36)"/></g><path d="M2099.82,1435.25a8.54,8.54,0,0,1-2.26.27l-272.23-4.16-112.21-1.75-92.24-1.4-507.43-11.27c-48.47-.74-87.42-40.19-86.76-88L1034,812.58c.66-45.32,37.2-80.46,82.52-81.12,2-.08,4,.36,6,.48l6.18.71h.08l698.51,47.76c43.22,2.22,78,39.91,77.89,84.45l-.89,409.54,198.07,144.73C2108.72,1423.76,2106.58,1433.54,2099.82,1435.25Z" style="fill:url(#linear-gradient-37)"/><path d="M2121.81,1419.06,1923.75,1274.3l.9-409.64c.1-44.53-34.69-82.42-77.91-84.67L1142,731.56c-48.1-2.51-87.82,33.74-88.49,81l-7.35,516.33c-.68,47.86,38.26,87.3,86.74,88l599.65,12.69,112.22,1.72,272.25,4.19C2125.46,1435.67,2128.81,1424.18,2121.81,1419.06Z" style="fill:url(#linear-gradient-38)"/><path d="M1492,1280.37c-18.84,1-36.37-5.89-46.12-18.12L1282,1056.73c-15.36-19.26-7.08-45.64,18.46-58.92s58.65-8.42,74,10.83l113.59,142.66L1638,912.78c13.45-21.41,45.77-31.23,72.16-21.95S1747,925,1733.58,946.37l-193.69,308.5c-8.87,14.12-26.51,23.84-46.05,25.38Z" style="fill:#fff"/><path d="M1866.1,1428.21l-733.21-11.27c-48.47-.74-87.41-40.19-86.75-88l7.34-516.32c.67-45.32,37.2-80.46,82.52-81.12.9.58,1.75,1.21,2.61,1.87,41.7,30.55,77.54,78.94,87.37,155.63,27.21,211.83,134.1,204,242.93,217.66,54.68,6.84,104.47,19.08,154,50.53,49,31.13,97.91,81.08,151.08,163.24,34,52.47,62.23,85.94,91.65,107.51Z" style="opacity:0.2;mix-blend-mode:multiply;fill:url(#linear-gradient-39)"/></g></g></g></svg>