<svg width="82" height="58" viewBox="0 0 82 58" fill="none" xmlns="http://www.w3.org/2000/svg">
  <path
    d="M56 1.68C59.8029 1.68215 63.5245 2.78165 66.718 4.84656C69.9115 6.91146 72.4413 9.85404 74.0039 13.3212C75.5664 16.7883 76.0952 20.6326 75.5269 24.3929C74.9586 28.1531 73.3173 31.6695 70.8 34.52L78 41.6C72.719 42.7456 67.2142 42.2537 62.22 40.19C59.5035 41.0936 56.6231 41.396 53.7781 41.0765C50.9332 40.757 48.1916 39.8232 45.7432 38.3396C43.2948 36.856 41.198 34.8581 39.5979 32.4841C37.9978 30.1102 36.9327 27.4169 36.4762 24.5907C36.0198 21.7645 36.1828 18.8729 36.9542 16.1159C37.7255 13.359 39.0867 10.8025 40.9436 8.62355C42.8004 6.44458 45.1086 4.6951 47.7083 3.4962C50.308 2.29729 53.1372 1.6776 56 1.68Z"
    fill="#7ED2FF" />
  <path
    d="M72.42 43.96C68.9126 43.9743 65.4344 43.3227 62.17 42.04C60.1697 42.6484 58.0907 42.9584 56 42.96C51.1573 42.96 46.4568 41.3235 42.6611 38.3162C38.8654 35.309 36.1973 31.1073 35.0896 26.393C33.982 21.6787 34.4999 16.7285 36.5592 12.3456C38.6186 7.96261 42.0986 4.40414 46.4345 2.24756C50.7705 0.0909836 55.7079 -0.537153 60.4457 0.465075C65.1835 1.4673 69.4436 4.04108 72.5348 7.76879C75.626 11.4965 77.3668 16.1594 77.4749 21.0008C77.5829 25.8422 76.0518 30.5781 73.13 34.44L81.39 42.53L78.47 43.31C76.4859 43.7641 74.4552 43.9823 72.42 43.96ZM62.32 38.38L62.92 38.64C66.5334 40.1377 70.4512 40.7546 74.35 40.44L68.43 34.64L69.51 33.42C72.4194 30.1476 74.0401 25.9291 74.0701 21.5504C74.1001 17.1717 72.5373 12.9314 69.6729 9.61942C66.8085 6.30745 62.8378 4.14966 58.5005 3.54803C54.1633 2.94639 49.7552 3.94193 46.0974 6.34919C42.4397 8.75646 39.7818 12.4113 38.6188 16.6328C37.4558 20.8543 37.867 25.3547 39.7759 29.2955C41.6848 33.2363 44.9612 36.3489 48.9946 38.0533C53.0281 39.7577 57.5436 39.9378 61.7 38.56L62.32 38.38Z"
    fill="#0757A0" />
  <path
    d="M29.13 8.24C24.6791 8.23572 20.3217 9.5174 16.5819 11.9309C12.8422 14.3444 9.8793 17.7869 8.04968 21.8444C6.22006 25.9019 5.60161 30.4015 6.2687 34.8022C6.9358 39.2028 8.86004 43.3171 11.81 46.65L3.35999 54.96C9.5349 56.2955 15.97 55.72 21.81 53.31C24.9891 54.386 28.3644 54.7566 31.7012 54.3961C35.038 54.0356 38.2562 52.9527 41.1322 51.2225C44.0081 49.4924 46.4726 47.1566 48.3545 44.3776C50.2363 41.5985 51.4903 38.443 52.0291 35.1303C52.568 31.8176 52.3788 28.4273 51.4748 25.1951C50.5708 21.9629 48.9736 18.9664 46.7944 16.4139C44.6151 13.8615 41.906 11.8143 38.8555 10.4148C35.8049 9.01535 32.4862 8.29708 29.13 8.31V8.24Z"
    fill="white" />
  <path
    d="M29.13 8.24005C27.8198 8.24314 26.5121 8.35351 25.22 8.57005C30.5965 9.48852 35.4749 12.2791 38.9921 16.448C42.5093 20.617 44.4385 25.8956 44.4385 31.3501C44.4385 36.8045 42.5093 42.0831 38.9921 46.2521C35.4749 50.421 30.5965 53.2116 25.22 54.1301C28.373 54.6687 31.6034 54.5469 34.7069 53.7724C37.8104 52.9979 40.7193 51.5877 43.2496 49.6308C45.7798 47.6739 47.8763 45.2131 49.4063 42.4041C50.9363 39.5951 51.8665 36.4991 52.138 33.312C52.4096 30.1249 52.0166 26.9161 50.9838 23.8888C49.9511 20.8614 48.3012 18.0814 46.1385 15.7247C43.9758 13.368 41.3474 11.4859 38.4197 10.1975C35.4919 8.90917 32.3287 8.24262 29.13 8.24005Z"
    fill="#7ED2FF" />
  <path
    d="M9.9 57.36C7.54393 57.3912 5.19296 57.1326 2.9 56.59L0 55.82L9.48 46.53C5.87901 41.8532 4.06798 36.0435 4.37364 30.1489C4.6793 24.2543 7.08153 18.6631 11.1469 14.3838C15.2123 10.1045 20.6732 7.41908 26.5444 6.81189C32.4156 6.2047 38.3105 7.71577 43.1656 11.0725C48.0207 14.4292 51.5163 19.4105 53.0218 25.1178C54.5273 30.8251 53.9436 36.8825 51.3759 42.1972C48.8082 47.512 44.4257 51.7341 39.0189 54.1019C33.6122 56.4697 27.5372 56.8272 21.89 55.11C18.0723 56.6141 14.0032 57.3777 9.9 57.36ZM7 53.77C11.8117 54.249 16.6674 53.5381 21.14 51.7L21.74 51.44L22.36 51.65C27.2937 53.3043 32.6604 53.1088 37.4606 51.0998C42.2608 49.0908 46.167 45.4054 48.4515 40.7301C50.7361 36.0548 51.2432 30.7084 49.8783 25.6869C48.5135 20.6655 45.3699 16.3114 41.033 13.4358C36.6961 10.5601 31.4618 9.35906 26.3051 10.0563C21.1484 10.7536 16.421 13.3016 13.0036 17.2257C9.58611 21.1498 7.71166 26.1824 7.72941 31.386C7.74715 36.5896 9.65587 41.6093 13.1 45.51L14.18 46.74L7 53.77Z"
    fill="#0757A0" />
  <path
    d="M21.93 31.25C21.9241 31.6957 21.7865 32.1296 21.5346 32.4973C21.2827 32.865 20.9277 33.15 20.5143 33.3165C20.1008 33.4829 19.6474 33.5234 19.211 33.4329C18.7746 33.3423 18.3747 33.1247 18.0616 32.8075C17.7486 32.4903 17.5363 32.0876 17.4515 31.65C17.3667 31.2125 17.4131 30.7596 17.585 30.3484C17.7569 29.9372 18.0466 29.5859 18.4176 29.3389C18.7886 29.0919 19.2243 28.9601 19.67 28.96C19.9693 28.96 20.2657 29.0194 20.5418 29.1349C20.818 29.2503 21.0685 29.4195 21.2788 29.6325C21.489 29.8456 21.6548 30.0983 21.7666 30.3759C21.8784 30.6536 21.934 30.9507 21.93 31.25Z"
    fill="#0757A0" />
  <path
    d="M31.61 31.25C31.6041 31.6957 31.4665 32.1296 31.2146 32.4973C30.9627 32.865 30.6077 33.15 30.1943 33.3165C29.7808 33.4829 29.3274 33.5234 28.891 33.4329C28.4546 33.3423 28.0547 33.1247 27.7416 32.8075C27.4286 32.4903 27.2163 32.0876 27.1315 31.65C27.0467 31.2125 27.0932 30.7596 27.2651 30.3484C27.437 29.9372 27.7266 29.5859 28.0976 29.3389C28.4686 29.0919 28.9043 28.9601 29.35 28.96C29.6493 28.96 29.9457 29.0194 30.2219 29.1349C30.498 29.2503 30.7485 29.4195 30.9588 29.6325C31.169 29.8456 31.3349 30.0983 31.4467 30.3759C31.5585 30.6536 31.614 30.9507 31.61 31.25Z"
    fill="#0757A0" />
  <path
    d="M40.58 31.25C40.5741 31.6957 40.4365 32.1296 40.1846 32.4973C39.9327 32.865 39.5777 33.15 39.1643 33.3165C38.7508 33.4829 38.2974 33.5234 37.861 33.4329C37.4246 33.3423 37.0247 33.1247 36.7116 32.8075C36.3986 32.4903 36.1863 32.0876 36.1015 31.65C36.0167 31.2125 36.0632 30.7596 36.2351 30.3484C36.407 29.9372 36.6966 29.5859 37.0676 29.3389C37.4386 29.0919 37.8743 28.9601 38.32 28.96C38.6193 28.96 38.9157 29.0194 39.1919 29.1349C39.468 29.2503 39.7185 29.4195 39.9288 29.6325C40.139 29.8456 40.3049 30.0983 40.4167 30.3759C40.5285 30.6536 40.584 30.9507 40.58 31.25Z"
    fill="#0757A0" />
</svg>