<?xml version="1.0" encoding="UTF-8"?>
<svg width="14px" height="13px" viewBox="0 0 14 13" version="1.1" xmlns="http://www.w3.org/2000/svg" xmlns:xlink="http://www.w3.org/1999/xlink">
    <title>Shape</title>
    <g id="Replan-Desktop" stroke="none" stroke-width="1" fill="none" fill-rule="evenodd">
        <g id="LMS-response" transform="translate(-452.000000, -627.000000)" fill="#24272C">
            <g id="Group-11" transform="translate(414.000000, 113.000000)">
                <g id="Group-9" transform="translate(32.000000, 23.000000)">
                    <g id="Group-17" transform="translate(6.000000, 478.000000)">
                        <path d="M0,22.94 L0,25.6 L2.66,25.6 L10.36,17.83 L7.7,15.17 L0,22.94 L0,22.94 Z M12.39,15.8 C12.67,15.52 12.67,15.1 12.39,14.82 L10.78,13.21 C10.5,12.93 10.08,12.93 9.8,13.21 L8.54,14.47 L11.2,17.13 L12.39,15.8 L12.39,15.8 Z M6.3,24.2 L4.9,25.6 L14,25.6 L14,24.2 L6.3,24.2 L6.3,24.2 Z" id="Shape"></path>
                    </g>
                </g>
            </g>
        </g>
    </g>
</svg>