<svg width="10" height="8" viewBox="0 0 10 8" fill="none" xmlns="http://www.w3.org/2000/svg">
  <path
    d="M9.77341 0.923264C9.61631 0.991338 9.45479 1.0488 9.28975 1.09546C9.48514 0.879542 9.63411 0.625491 9.72505 0.347488C9.74544 0.285178 9.7243 0.21697 9.67188 0.176206C9.61952 0.135423 9.54678 0.130537 9.48915 0.163916C9.13866 0.367031 8.76053 0.513007 8.36405 0.598353C7.96466 0.217028 7.42221 0 6.86143 0C5.67772 0 4.71469 0.940974 4.71469 2.09756C4.71469 2.18865 4.72059 2.27925 4.73227 2.36858C3.26341 2.24257 1.89782 1.53711 0.960086 0.413139C0.926668 0.373081 0.875184 0.351477 0.822469 0.355618C0.769735 0.359645 0.722332 0.388711 0.695692 0.433387C0.505497 0.752268 0.40495 1.11699 0.40495 1.48809C0.40495 1.99352 0.589618 2.47305 0.915848 2.84777C0.816649 2.8142 0.720399 2.77225 0.628524 2.72243C0.579208 2.69559 0.519012 2.69601 0.470008 2.72346C0.420985 2.75092 0.390243 2.8014 0.388934 2.85659C0.3887 2.86588 0.3887 2.87518 0.3887 2.8846C0.3887 3.63903 0.804247 4.31826 1.43958 4.68846C1.38499 4.68314 1.33046 4.67541 1.27626 4.66529C1.22038 4.65485 1.16294 4.67399 1.12526 4.71564C1.08753 4.75724 1.07503 4.81524 1.09243 4.8682C1.32759 5.5856 1.93304 6.11326 2.66497 6.27414C2.0579 6.64568 1.36368 6.84028 0.634911 6.84028C0.48284 6.84028 0.329911 6.83156 0.180243 6.81425C0.105887 6.8056 0.0347936 6.84851 0.00946155 6.91761C-0.0158705 6.98673 0.010985 7.0638 0.0742272 7.10342C1.01046 7.68997 2.093 8 3.20477 8C5.39038 8 6.75764 6.99294 7.51973 6.14811C8.47007 5.09467 9.01508 3.70033 9.01508 2.32263C9.01508 2.26507 9.01419 2.20696 9.01237 2.14902C9.38731 1.873 9.7101 1.53895 9.97278 1.15501C10.0127 1.0967 10.0084 1.01962 9.96214 0.965956C9.91602 0.912195 9.83907 0.894828 9.77341 0.923264Z"
    fill="#20C9FF" />
</svg>