<svg width="32" height="32" viewBox="0 0 32 32" fill="none" xmlns="http://www.w3.org/2000/svg">
  <rect width="32" height="32" rx="6" fill="#1DA1F2" />
  <path
    d="M27.92 9.1912C27.0764 9.57467 26.167 9.82665 25.2248 9.94717C26.1889 9.3665 26.934 8.4462 27.2846 7.33964C26.3752 7.88744 25.3672 8.2709 24.3045 8.49002C23.439 7.5478 22.2229 7 20.8424 7C18.2677 7 16.1642 9.10356 16.1642 11.7001C16.1642 12.0726 16.208 12.4342 16.2847 12.7738C12.3844 12.5766 8.9113 10.7031 6.59958 7.86553C6.19421 8.55576 5.96413 9.3665 5.96413 10.2211C5.96413 11.8535 6.78583 13.2997 8.05673 14.1214C7.27885 14.1214 6.55576 13.9023 5.92031 13.5736V13.6065C5.92031 15.8853 7.5418 17.7917 9.68918 18.219C8.99975 18.4076 8.27596 18.4339 7.57467 18.2957C7.87224 19.2296 8.45502 20.0469 9.24109 20.6325C10.0272 21.2181 10.977 21.5427 11.9571 21.5606C10.2957 22.8758 8.23641 23.5867 6.11751 23.5765C5.74501 23.5765 5.3725 23.5546 5 23.5107C7.08164 24.8474 9.55771 25.6252 12.2091 25.6252C20.8424 25.6252 25.5864 18.46 25.5864 12.2479C25.5864 12.0398 25.5864 11.8426 25.5754 11.6344C26.4957 10.977 27.2846 10.1444 27.92 9.1912V9.1912Z"
    fill="white" />
</svg>