<svg width="16" height="16" viewBox="0 0 16 16" fill="none" xmlns="http://www.w3.org/2000/svg">
<path fill-rule="evenodd" clip-rule="evenodd" d="M5.79015 3.57771C6.5272 2.10361 8.63081 2.10361 9.36786 3.57771L13.7108 12.2636C14.3757 13.5934 13.4087 15.158 11.9219 15.158H3.23606C1.7493 15.158 0.782313 13.5934 1.44721 12.2636L5.79015 3.57771Z" fill="#E02020"/>
<path d="M8.25579 10.9674H6.96672L6.78411 5.54792H8.4384L8.25579 10.9674ZM7.61126 11.816C7.87265 11.816 8.08212 11.893 8.23967 12.0469C8.40081 12.2009 8.48137 12.3979 8.48137 12.6378C8.48137 12.8741 8.40081 13.0692 8.23967 13.2232C8.08212 13.3772 7.87265 13.4542 7.61126 13.4542C7.35344 13.4542 7.14397 13.3772 6.98284 13.2232C6.82529 13.0692 6.74651 12.8741 6.74651 12.6378C6.74651 12.4014 6.82529 12.2063 6.98284 12.0523C7.14397 11.8948 7.35344 11.816 7.61126 11.816Z" fill="white"/>
</svg>
