<svg width="13" height="14" viewBox="0 0 13 14" fill="none" xmlns="http://www.w3.org/2000/svg">
  <path fill-rule="evenodd" clip-rule="evenodd"
    d="M4.79015 1.57771C5.5272 0.103611 7.63081 0.103612 8.36786 1.57771L12.7108 10.2636C13.3757 11.5934 12.4087 13.158 10.9219 13.158H2.23606C0.749301 13.158 -0.217687 11.5934 0.447214 10.2636L4.79015 1.57771Z"
    fill="#E02020" />
  <path
    d="M7.25551 8.96729H5.96645L5.78383 3.54785H7.43813L7.25551 8.96729ZM6.61098 9.81592C6.87237 9.81592 7.08185 9.8929 7.2394 10.0469C7.40053 10.2008 7.4811 10.3978 7.4811 10.6377C7.4811 10.874 7.40053 11.0692 7.2394 11.2231C7.08185 11.3771 6.87237 11.4541 6.61098 11.4541C6.35317 11.4541 6.1437 11.3771 5.98256 11.2231C5.82501 11.0692 5.74623 10.874 5.74623 10.6377C5.74623 10.4014 5.82501 10.2062 5.98256 10.0522C6.1437 9.89469 6.35317 9.81592 6.61098 9.81592Z"
    fill="white" />
</svg>