<svg width="363" height="398" viewBox="0 0 363 398" fill="none" xmlns="http://www.w3.org/2000/svg">
  <path
    d="M22.6337 151.725L15.4364 144.58L22.5816 137.382L18.4403 133.284L11.3038 140.482L4.10654 133.336L0 137.469L7.19729 144.614L0.060773 151.812L4.19336 155.918L11.3386 148.721L18.5358 155.857L22.6337 151.725Z"
    fill="#F5F5F5" />
  <path
    d="M184.03 18.4403L176.833 11.3038L183.978 4.10653L179.837 0L172.7 7.19729L165.503 0.0520925L161.396 4.19335L168.594 11.3299L161.448 18.5272L165.59 22.6337L172.726 15.4364L179.924 22.5816L184.03 18.4403Z"
    fill="#F5F5F5" />
  <path
    d="M358.441 156.448L351.243 149.303L358.38 142.105L354.247 138.007L347.102 145.205L339.913 138.059L335.807 142.192L343.004 149.337L335.859 156.535L339.992 160.632L347.137 153.444L354.334 160.58L358.441 156.448Z"
    fill="#E0E0E0" />
  <path
    d="M340.026 160.667L335.876 156.552L342.996 149.372L335.772 142.183L339.887 138.033L347.067 145.161L354.213 137.964L358.362 142.079L351.313 149.302L358.51 156.448L354.386 160.598L347.137 153.47L340.026 160.667ZM335.92 156.535L340.026 160.606L347.163 153.409L354.343 160.537L358.415 156.43L351.217 149.285L358.345 142.097L354.239 138.025L347.093 145.222L339.905 138.103L335.833 142.183L343.03 149.329L335.92 156.535Z"
    fill="#E0E0E0" />
  <path
    d="M151.638 311.498L144.441 304.352L151.586 297.155L147.453 293.057L140.308 300.255L133.111 293.109L129.004 297.242L136.202 304.387L129.065 311.584L133.198 315.682L140.343 308.485L147.531 315.63L151.638 311.498Z"
    fill="#F5F5F5" />
  <path
    d="M19.0394 287.145L14.1254 282.274L18.996 277.369L16.1744 274.565L11.3038 279.479L6.39855 274.608L3.60298 277.421L8.50825 282.292L3.63771 287.206L6.45932 290.001L11.3299 285.096L16.2351 289.967L19.0394 287.145Z"
    fill="#E0E0E0" />
  <path
    d="M6.45934 290.036L3.61167 287.171L8.47354 282.274L3.55959 277.404L6.37252 274.565L11.2604 279.418L16.1917 274.539L19.0307 277.352L14.1775 282.248L19.0654 287.171L16.2525 290.001L11.3646 285.139L6.45934 290.036ZM3.67245 287.171L6.45934 289.94L11.3299 285.027L16.2178 289.88L19.0047 287.171L14.0994 282.3L18.9613 277.412L16.1917 274.6L11.3212 279.505L6.42461 274.652L3.65509 277.439L8.56904 282.309L3.67245 287.171Z"
    fill="#E0E0E0" />
  <path d="M27.4782 234.211V191.67L57.6825 161.284H99.972L129.925 191.141V233.404L100.302 263.027H57.8648L27.4782 234.211Z" fill="white" />
  <path
    d="M27.4782 234.211C27.4782 234.211 27.6692 234.368 28.0165 234.698L29.5792 236.156L35.5957 241.817L57.9429 262.948L57.8648 262.862H100.258L100.12 262.914L129.725 233.274L129.664 233.421C129.664 220.103 129.664 205.856 129.664 191.167L129.733 191.332L129.204 190.793L99.8504 161.431L100.007 161.501H57.7172L57.8561 161.448L27.6084 191.722V191.618C27.6084 204.953 27.5563 215.58 27.5389 222.873C27.5389 226.519 27.5389 229.332 27.4955 231.251C27.4955 232.197 27.4955 232.926 27.4955 233.421C27.4955 233.916 27.4955 234.168 27.4955 234.168C27.4955 234.168 27.4955 233.925 27.4955 233.439C27.4955 232.953 27.4955 232.223 27.4955 231.286C27.4955 229.367 27.4955 226.563 27.4955 222.916C27.4955 215.597 27.4955 204.953 27.4261 191.601V191.54V191.497L57.5957 161.11L57.6478 161.049H57.7346H100.024H100.111L100.18 161.119L129.534 190.463L130.072 191.002L130.133 191.062V191.158C130.133 205.848 130.133 220.095 130.133 233.413V233.508L130.072 233.569L100.406 263.166L100.345 263.226H100.267L57.8648 263.174H57.804L57.7606 263.131L35.4829 241.869L29.5358 236.165L28.0078 234.689L27.4782 234.211Z"
    fill="#E0E0E0" />
  <path d="M32.7568 232.162V193.493L60.2003 165.911H98.6176L125.775 193.059V231.451L98.8607 258.364H60.3478L32.7568 232.162Z" fill="#EBEBEB" />
  <path
    d="M32.7568 232.162C32.7568 232.162 32.9304 232.31 33.2517 232.614L34.6755 233.934L40.1451 239.073L60.4694 258.26H60.3739L98.8868 258.208L98.7478 258.269L125.662 231.355L125.601 231.503C125.601 219.4 125.601 206.455 125.601 193.111L125.67 193.276L125.184 192.79L98.5134 166.119L98.6697 166.18H60.2523L60.3913 166.128L32.861 193.598V193.493C32.861 205.648 32.8089 215.259 32.7915 221.9C32.7915 225.217 32.7915 227.778 32.7915 229.523C32.7915 230.391 32.7915 231.034 32.7915 231.494C32.7915 231.954 32.7915 232.162 32.7915 232.162C32.7915 232.162 32.7915 231.945 32.7915 231.511C32.7915 231.077 32.7915 230.4 32.7915 229.549C32.7915 227.813 32.7915 225.26 32.7481 221.953C32.7481 215.294 32.7481 205.622 32.6786 193.493V193.407V193.363L60.0874 165.746L60.1482 165.685H60.2263H98.6437H98.7392L98.7999 165.746L125.479 192.408L125.957 192.894L126.026 192.964V193.051C126.026 206.395 126.026 219.339 126.026 231.442V231.537L125.966 231.598L99.0517 258.512L98.9909 258.564H98.9128L60.3478 258.521H60.2871L60.2437 258.477L40.0062 239.151L34.5973 233.942L33.2169 232.605C32.9044 232.327 32.7568 232.162 32.7568 232.162Z"
    fill="#E0E0E0" />
  <path d="M107.977 202.566H52.7772V219.721H107.977V202.566Z" fill="white" />
  <path d="M291.408 71.86V47.4118L308.771 29.9959H333.02L350.167 47.134V71.3738L333.133 88.3556H308.824L291.408 71.86Z" fill="white" />
  <path
    d="M291.408 71.86C291.408 71.86 291.521 71.9468 291.729 72.1378L292.597 73.006L296.07 76.2357L308.902 88.3296H308.798H333.107L332.968 88.3817L349.941 71.3738L349.88 71.5301C349.88 63.89 349.88 55.7204 349.88 47.2903L349.941 47.4552L349.637 47.1514C343.829 41.3258 338.177 35.6826 332.812 30.3085L332.959 30.3693L308.771 30.1869L308.91 30.1348L291.547 47.4986L291.59 47.3944C291.59 55.0258 291.538 61.1118 291.521 65.3139C291.521 67.3975 291.521 69.0124 291.521 70.1323C291.521 70.6619 291.521 71.0786 291.521 71.3738C291.528 71.5184 291.528 71.6633 291.521 71.8079C291.521 71.8079 291.521 71.669 291.521 71.3912C291.521 71.1134 291.521 70.688 291.521 70.1584C291.521 69.0471 291.521 67.4409 291.477 65.366C291.477 61.1552 291.477 55.0432 291.408 47.3944V47.3337H291.451L308.745 29.8831L308.798 29.8223H308.884H333.133H333.081L333.142 29.8917L349.976 46.6825L350.28 46.9864L350.349 47.0472V47.1427C350.349 55.5728 350.349 63.7424 350.349 71.3825V71.4693L350.288 71.5388L333.28 88.5119L333.22 88.5727H333.142L308.832 88.5206H308.771H308.728L295.966 76.2878L292.562 73.0147L291.694 72.1465C291.594 72.0558 291.498 71.9602 291.408 71.86Z"
    fill="#E0E0E0" />
  <path d="M294.412 70.6706V48.4884L310.152 32.6613H332.213L347.779 48.2366V70.2626L332.343 85.699H310.239L294.412 70.6706Z" fill="#EBEBEB" />
  <path
    d="M294.412 70.6706C294.515 70.7458 294.613 70.827 294.707 70.9137L295.532 71.6777L298.683 74.6122L310.343 85.5861H310.239L332.325 85.534L332.187 85.5948L347.614 70.1237L347.545 70.2712C347.545 63.3257 347.545 55.9114 347.545 48.254L347.614 48.4189L347.336 48.1411L332.039 32.7915L332.195 32.861H310.152L310.291 32.8002L294.524 48.5926L294.568 48.4884C294.568 55.4339 294.507 60.9469 294.49 64.7669C294.49 66.6596 294.49 68.1268 294.49 69.1079C294.49 69.5941 294.49 69.9761 294.49 70.2452C294.49 70.5143 294.49 70.6359 294.49 70.6359C294.49 70.6359 294.49 70.5057 294.49 70.2539C294.49 70.0021 294.49 69.6201 294.49 69.1339C294.49 68.1268 294.49 66.6683 294.446 64.793C294.446 60.9643 294.446 55.4165 294.377 48.4623V48.4189V48.3755L310.082 32.5137L310.143 32.4616H310.221H332.265H332.352L332.412 32.5224L347.718 47.8199L347.996 48.0977L348.057 48.1585V70.3667L347.988 70.4275L332.534 85.8552L332.473 85.9073H332.395H310.308H310.247H310.204L298.605 74.7945C297.277 73.5096 296.244 72.5025 295.523 71.8166L294.742 71.0353L294.412 70.6706Z"
    fill="#E0E0E0" />
  <path d="M337.561 53.6888H305.898V63.5254H337.561V53.6888Z" fill="white" />
  <path d="M220.398 271.596V223.237L254.718 188.744H302.764L336.718 222.699V270.675L303.059 304.335H254.944L220.398 271.596Z" fill="white" />
  <path
    d="M220.398 271.596L221.015 272.16C221.423 272.533 222.013 273.089 222.751 273.818L229.584 280.251L254.97 304.266L254.866 304.222L303.024 304.179L302.885 304.231L336.554 270.554L336.484 270.71C336.484 255.569 336.484 239.386 336.484 222.699L336.554 222.855L335.946 222.256C324.442 210.77 313.251 199.545 302.607 188.892L302.764 188.961H254.718L254.857 188.909L220.503 223.368L220.546 223.264C220.546 238.413 220.494 250.49 220.477 258.799C220.477 262.94 220.477 266.143 220.477 268.349C220.477 269.425 220.477 270.241 220.477 270.806C220.477 271.37 220.477 271.674 220.477 271.674C220.477 271.674 220.477 271.405 220.477 270.849C220.477 270.293 220.477 269.477 220.477 268.401C220.477 266.23 220.477 263.035 220.433 258.851C220.433 250.542 220.433 238.448 220.364 223.255V223.194V223.151L254.649 188.623L254.709 188.562H254.787H302.833H302.929L302.989 188.631L336.345 221.979L336.953 222.578L337.014 222.647V270.84L336.944 270.91L303.198 304.535L303.146 304.587H303.059L254.944 304.535H254.883L254.84 304.491L229.523 280.347L222.76 273.87L221.024 272.195L220.398 271.596Z"
    fill="#E0E0E0" />
  <path d="M227.639 269.304V225.373L258.816 194.032H302.468L333.324 224.878V268.496L302.738 299.083H258.981L227.639 269.304Z" fill="#E0E0E0" />
  <path
    d="M227.639 269.304L228.204 269.816L229.818 271.318L236.017 277.161L259.085 298.97H258.981L302.738 298.918L302.599 298.978C311.914 289.654 322.237 279.314 333.168 268.383L333.098 268.531V224.878L333.159 225.043L332.612 224.488L302.312 194.188L302.468 194.249H258.816L258.955 194.197L227.743 225.503L227.787 225.399C227.787 239.16 227.735 250.134 227.717 257.679C227.717 261.438 227.717 264.346 227.717 266.36C227.717 267.339 227.717 268.085 227.717 268.6C227.717 269.104 227.717 269.364 227.717 269.364C227.717 269.364 227.717 269.121 227.717 268.618C227.717 268.114 227.717 267.368 227.717 266.395C227.717 264.416 227.717 261.516 227.674 257.757C227.674 250.203 227.674 239.212 227.604 225.434V225.373L227.648 225.33L258.79 193.953L258.851 193.893H258.929H302.581H302.677L302.738 193.953L333.046 224.253L333.593 224.8L333.662 224.861V224.957C333.662 240.124 333.662 254.822 333.662 268.574V268.67L333.593 268.731L302.998 299.3L302.937 299.352H302.859L259.102 299.308H259.042L258.998 299.265L235.844 277.239L229.766 271.353L228.16 269.807L227.639 269.304Z"
    fill="#E0E0E0" />
  <path d="M311.836 235.679H249.118V255.169H311.836V235.679Z" fill="white" />
  <path
    d="M362.295 384.469C362.295 384.591 281.189 384.695 181.156 384.695C81.1236 384.695 0 384.591 0 384.469C0 384.347 81.0889 384.243 181.156 384.243C281.224 384.243 362.295 384.339 362.295 384.469Z"
    fill="#263238" />
  <path
    d="M235.991 55.9114L243.024 53.6975C248.158 55.6587 253.841 55.6283 258.954 53.6123C264.068 51.5963 268.243 47.7406 270.658 42.803C273.073 37.8654 273.553 32.2031 272.005 26.929C270.457 21.6549 266.993 17.1505 262.292 14.3012C257.592 11.4519 251.996 10.4638 246.604 11.5312C241.212 12.5985 236.414 15.644 233.154 20.0691C229.893 24.4942 228.406 29.9788 228.984 35.4449C229.562 40.911 232.164 45.9631 236.278 49.6084L235.991 55.9114Z"
    fill="white" />
  <path
    d="M235.991 55.9114C235.979 55.7815 235.979 55.6507 235.991 55.5207C235.991 55.2342 235.991 54.8349 235.991 54.3226C235.991 53.2287 236.069 51.6399 236.139 49.591C236.141 49.5672 236.152 49.5451 236.17 49.529C236.187 49.5129 236.21 49.5041 236.234 49.5042H236.278L236.182 49.6518C233.436 47.2507 231.33 44.2046 230.053 40.7876C229.221 38.5628 228.76 36.2163 228.69 33.842C228.6 31.124 229.015 28.4128 229.914 25.846C230.944 22.88 232.587 20.1642 234.737 17.8755C236.886 15.5868 239.494 13.7766 242.39 12.5627C245.611 11.2575 249.09 10.7138 252.556 10.9739C256.189 11.2465 259.695 12.4223 262.757 14.3946C266.597 16.8398 269.59 20.4068 271.333 24.6116C273.076 28.8164 273.483 33.4555 272.499 37.8995C271.515 42.3435 269.187 46.3772 265.833 49.4534C262.478 52.5295 258.258 54.4993 253.746 55.0953C250.102 55.576 246.396 55.1281 242.971 53.793H243.032L237.762 55.3645L236.425 55.7551L235.991 55.8767L236.46 55.7117L237.806 55.269L243.015 53.5326C243.024 53.5285 243.035 53.5264 243.045 53.5264C243.056 53.5264 243.066 53.5285 243.076 53.5326C248.126 55.4279 253.698 55.3876 258.721 53.4196C263.743 51.4516 267.859 47.695 270.277 42.8732C272.695 38.0515 273.243 32.5057 271.816 27.3038C270.39 22.1019 267.089 17.6119 262.549 14.6985C259.544 12.763 256.103 11.6082 252.539 11.3386C249.142 11.0862 245.733 11.6149 242.572 12.884C237.363 15.0652 233.191 19.1657 230.92 24.337C228.65 29.5083 228.454 35.3545 230.374 40.666C231.624 44.0498 233.677 47.0796 236.356 49.4955C236.372 49.5132 236.381 49.5364 236.381 49.5606C236.381 49.5848 236.372 49.608 236.356 49.6257C236.339 49.6366 236.319 49.6423 236.299 49.6423C236.279 49.6423 236.26 49.6366 236.243 49.6257L236.373 49.5476L236.113 54.2098C236.113 54.7307 236.061 55.1387 236.043 55.4339C236.026 55.7291 235.991 55.9114 235.991 55.9114Z"
    fill="#263238" />
  <path
    d="M260.596 39.4939L254.57 33.5121L260.552 27.4869L257.088 24.0489L251.106 30.0741L245.081 24.0923L241.652 27.5563L247.677 33.5382L241.695 39.5634L245.159 43.0014L251.141 36.9762L257.166 42.9493L260.596 39.4939Z"
    fill="#455A64" />
  <path d="M17.0599 95.7266V40.258L56.415 0.668549H111.519L150.475 39.6155V94.6847L111.858 133.293H56.6146L17.0599 95.7266Z" fill="white" />
  <path
    d="M17.0599 95.7266C17.0599 95.7266 17.303 95.9349 17.7632 96.3603L19.7947 98.2703L27.6084 105.65L56.7188 133.206H56.6146L111.858 133.163L111.727 133.215L150.318 94.5892L150.249 94.7455V39.6329L150.31 39.7891L149.615 39.0946L111.363 0.833484L111.519 0.902939H56.415L56.5539 0.850846C41.5776 15.8445 28.2769 29.1885 17.1554 40.3621V40.2579C17.1554 57.6217 17.0947 71.5128 17.0773 81.0107C17.0773 85.7684 17.0773 89.4409 17.0773 91.9326C17.0773 93.1741 17.0773 94.1117 17.0773 94.7542C17.0773 95.3966 17.0773 95.7266 17.0773 95.7266C17.0773 95.7266 17.0773 95.4053 17.0773 94.7715C17.0773 94.1378 17.0773 93.1914 17.0773 91.9673C17.0773 89.4756 17.0773 85.8118 17.0773 81.0542C17.0773 71.5041 17.0773 57.6565 16.9992 40.2493V40.1798L56.3368 0.581708L56.3889 0.520935H56.4757H111.58H111.675L111.736 0.59039L149.936 38.782L150.631 39.4766L150.7 39.5373V39.6329C150.7 58.7764 150.7 77.3383 150.7 94.7021V94.7889L150.631 94.8584L112.005 133.449L111.953 133.51H111.866L56.6146 133.501H56.5625L27.4782 105.719L19.7166 98.2964L17.7198 96.369L17.0599 95.7266Z"
    fill="#263238" />
  <path d="M23.9013 93.096V42.6976L59.662 6.74588H109.73L145.118 42.1333V92.167L110.034 127.242H59.853L23.9013 93.096Z" fill="#FF725E" />
  <path
    d="M23.9013 93.096L24.535 93.6777L26.3843 95.414L33.5034 102.116L59.9485 127.146H59.853L110.034 127.103L109.904 127.155L144.962 92.0628L144.901 92.2191C144.901 76.4441 144.901 59.5752 144.901 42.1853L144.962 42.3503L144.336 41.7165L109.609 6.98895L109.765 7.05841H59.6967L59.8356 6.99764L24.0054 42.8018V42.6976C24.0054 58.4899 24.0054 71.0787 24.0054 79.7258C24.0054 84.0668 24.0054 87.3833 24.0054 89.6493C24.0054 90.7779 24.0054 91.6287 24.0054 92.2538C24.0054 92.8789 24.0054 93.122 24.0054 93.122C24.0054 93.122 24.0054 92.8355 24.0054 92.2538C24.0054 91.6721 24.0054 90.8126 24.0054 89.7013C24.0054 87.4354 24.0054 84.1015 24.0054 79.7953C24.0054 71.1134 23.962 58.5247 23.9273 42.7149V42.6542L59.662 6.66772L59.7141 6.61563H59.8009H109.869H109.956L110.026 6.68509L144.753 41.4127L145.387 42.0464L145.456 42.1159V42.2027C145.456 59.5665 145.456 76.4615 145.456 92.2365V92.3233L145.396 92.3927L110.173 127.424L110.121 127.485H110.034L59.853 127.433H59.7922L33.3993 102.255L26.3582 95.5095L24.5437 93.7732L23.9013 93.096Z"
    fill="#263238" />
  <path
    d="M103.714 32.5137C103.294 32.2875 102.819 32.1838 102.343 32.2145C101.867 32.2452 101.41 32.4091 101.023 32.6874C100.439 33.2647 99.9632 33.9407 99.616 34.6842C98.2183 37.2367 96.9247 39.8933 95.5442 42.4371C95.3543 42.7845 95.0463 43.0524 94.676 43.1925C92.3993 43.9167 90.3882 45.2995 88.8971 47.1662C87.4059 49.0329 86.5014 51.2997 86.298 53.6802C86.2814 53.7936 86.2366 53.9011 86.1678 53.9927C86.1253 54.0512 86.0686 54.0979 86.003 54.1284C85.9374 54.1589 85.8652 54.1721 85.793 54.1669C85.7209 54.1617 85.6513 54.1382 85.5908 54.0986C85.5303 54.059 85.4809 54.0046 85.4472 53.9406C85.3838 53.836 85.3507 53.7157 85.3517 53.5934C85.5616 51.0661 86.5048 48.6551 88.0656 46.6563C89.6264 44.6575 91.7368 43.158 94.1378 42.3416C94.4013 42.2602 94.6319 42.0966 94.7959 41.8748C94.9599 41.653 95.0487 41.3846 95.0494 41.1088C95.0494 39.3724 95.0494 37.584 95.0494 35.8215C95.0494 30.8902 95.0494 25.9589 95.0494 21.0189C95.0498 20.3262 94.8735 19.6449 94.5371 19.0394C94.2075 18.5448 93.7187 18.1778 93.1517 17.9994C92.5848 17.8209 91.9738 17.8417 91.4203 18.0584C90.8683 18.2272 90.3879 18.5746 90.0548 19.046C89.7216 19.5175 89.5546 20.0862 89.5798 20.6629C89.5798 25.9647 89.5798 31.2635 89.5798 36.5595C89.5844 36.6491 89.5844 36.739 89.5798 36.8286C89.5744 36.9107 89.5454 36.9895 89.4962 37.0554C89.447 37.1213 89.3797 37.1716 89.3026 37.2001C89.2254 37.2285 89.1416 37.234 89.0614 37.2159C88.9811 37.1977 88.9079 37.1567 88.8505 37.0978C88.7696 37.0256 88.7069 36.9352 88.6677 36.8341C88.6284 36.733 88.6137 36.624 88.6248 36.5161V33.1909C88.6248 28.2509 88.6248 23.3196 88.6248 18.3883C88.6114 17.7766 88.441 17.1787 88.1299 16.6519C87.7923 16.1634 87.3035 15.7994 86.7388 15.6159C86.1741 15.4323 85.5647 15.4395 85.0044 15.6361C84.4491 15.8017 83.9649 16.1478 83.6284 16.6195C83.2919 17.0913 83.1223 17.6617 83.1465 18.2407C83.1465 23.1431 83.1465 28.0628 83.1465 32.9999V36.9762C83.0815 37.0843 83.0027 37.1836 82.9121 37.2714C82.8722 37.316 82.8233 37.3516 82.7687 37.376C82.7141 37.4004 82.655 37.413 82.5952 37.413C82.5354 37.413 82.4763 37.4004 82.4217 37.376C82.3671 37.3516 82.3182 37.316 82.2783 37.2714C82.2194 37.2123 82.18 37.1365 82.1655 37.0544V33.2951C82.1655 29.4056 82.1655 25.4814 82.1655 21.6266C82.1972 21.1551 82.1001 20.6837 81.8845 20.2631C81.6688 19.8425 81.3428 19.4885 80.9413 19.2391C80.5238 18.962 80.0383 18.805 79.5376 18.7851C79.037 18.7652 78.5405 18.8832 78.1023 19.1262C77.6295 19.3669 77.2395 19.7435 76.9827 20.2077C76.7258 20.6719 76.6138 21.2024 76.6611 21.7308C76.6611 25.6203 76.6611 29.5445 76.6611 33.3993V36.0733C76.6611 36.6724 76.6611 37.2801 76.6611 37.8705C76.6428 38.1422 76.5497 38.4037 76.392 38.6258C76.3691 38.6307 76.3454 38.6307 76.3225 38.6258C76.2634 38.633 76.2035 38.628 76.1464 38.6111C76.0894 38.5942 76.0364 38.5657 75.9908 38.5274C75.9452 38.4891 75.9079 38.4419 75.8814 38.3886C75.8548 38.3353 75.8395 38.2772 75.8363 38.2177L75.6888 25.1949C75.6957 24.8485 75.6334 24.5042 75.5056 24.1822C75.3779 23.8601 75.1871 23.5668 74.9446 23.3194C74.702 23.072 74.4125 22.8755 74.0931 22.7414C73.7736 22.6072 73.4306 22.5382 73.0842 22.5382C72.7276 22.5286 72.3729 22.5941 72.0432 22.7304C71.7136 22.8668 71.4163 23.071 71.1707 23.3297C70.925 23.5884 70.7366 23.8959 70.6175 24.2322C70.4985 24.5685 70.4515 24.9261 70.4796 25.2817V31.0725V43.3487C70.4796 46.561 70.4796 49.7733 70.4796 52.9856C70.4257 54.8942 70.9079 56.7796 71.8717 58.4279C72.8355 60.0761 74.2421 61.421 75.9318 62.31C79.7953 64.4544 83.98 64.6975 88.2515 64.0464C92.3146 63.456 95.2404 61.3463 96.725 57.4134C98.9909 51.3882 101.326 45.3803 103.54 39.329C104.105 37.7836 104.461 37.2367 104.955 35.6566C105.188 35.0731 105.188 34.4231 104.958 33.839C104.727 33.255 104.282 32.781 103.714 32.5137Z"
    fill="white" />
  <path opacity="0.3" d="M24.5003 93.695L113.976 11.3299L125.254 22.5903L36.9241 105.589L24.5003 93.695Z" fill="white" />
  <path opacity="0.3" d="M39.329 108.029L128.805 25.6637L131.869 29.2667L43.5397 112.274L39.329 108.029Z" fill="white" />
  <path
    d="M84.553 354.516C84.553 354.516 80.1686 324.399 80.5333 306.87C80.8979 289.341 80.5333 269.625 80.5333 269.625H82.5562C82.5562 269.625 81.1844 304.413 82.669 325.397C84.1536 346.381 88.0778 354.516 88.0778 354.516H84.6051"
    fill="#263238" />
  <path
    d="M97.6019 235.731C97.2883 234.662 96.6439 233.719 95.7613 233.039C94.4851 232.223 92.8095 232.562 91.377 233.039C85.2996 235.192 79.8648 246.566 77.3991 252.548L85.4993 279.843C100.12 266.334 102.655 248.519 97.6019 235.731Z"
    fill="#455A64" />
  <path
    d="M95.2925 234.142C95.2696 234.266 95.2287 234.386 95.1709 234.498C95.0667 234.758 94.9365 235.088 94.7802 235.496C94.4243 236.365 93.9121 237.597 93.3304 239.151C92.1323 242.251 90.6216 246.583 89.2586 251.462C87.8955 256.342 86.9752 260.847 86.4022 264.112C86.107 265.753 85.8987 267.072 85.7598 267.993C85.6903 268.427 85.6295 268.774 85.5861 269.052C85.5717 269.176 85.5425 269.299 85.4993 269.416C85.484 269.293 85.484 269.167 85.4993 269.043C85.4993 268.765 85.5688 268.409 85.6122 267.975C85.7077 267.055 85.89 265.718 86.1504 264.077C87.5206 255.506 89.8504 247.115 93.096 239.065C93.7211 237.519 94.2506 236.286 94.6413 235.444L95.0928 234.472C95.1513 234.357 95.218 234.247 95.2925 234.142Z"
    fill="#263238" />
  <path
    d="M81.905 286.416C74.3084 282.222 69.8372 274.33 69.4205 265.666C69.1253 259.589 70.9832 253.668 73.0929 247.981C73.2226 247.466 73.5302 247.014 73.9611 246.705C74.3044 246.578 74.6743 246.541 75.0358 246.598C75.3974 246.654 75.7386 246.801 76.0274 247.026C81.5491 250.169 84.8916 256.151 86.6714 262.245C87.9426 266.288 88.3652 270.55 87.9129 274.765C87.2219 279.194 85.1175 283.28 81.9137 286.416"
    fill="#455A64" />
  <path
    d="M81.905 286.416C81.8843 286.295 81.8843 286.172 81.905 286.051C81.905 285.773 81.905 285.426 81.905 285C81.905 284.132 81.905 282.778 81.7921 281.154C81.5754 276.928 81.1029 272.718 80.377 268.548C79.5088 263.66 78.5191 259.285 77.7724 256.125C77.3991 254.57 77.0952 253.303 76.9042 252.374C76.8174 251.957 76.7393 251.627 76.6785 251.358C76.6177 251.089 76.6004 250.994 76.6177 250.994C76.6727 251.104 76.7135 251.22 76.7393 251.341L77.0345 252.339C77.2862 253.207 77.6248 254.492 78.0329 256.064C78.849 259.215 79.9082 263.591 80.7503 268.496C81.4816 272.677 81.9225 276.904 82.07 281.146C82.07 282.778 82.07 284.098 82.07 285.009C82.07 285.426 82.07 285.773 82.0265 286.051C81.9961 286.176 81.9554 286.298 81.905 286.416Z"
    fill="#263238" />
  <g opacity="0.3">
    <path
      d="M81.905 286.416C74.3084 282.222 69.8372 274.33 69.4205 265.666C69.1253 259.589 70.9832 253.668 73.0929 247.981C73.2226 247.466 73.5302 247.014 73.9611 246.705C74.3044 246.578 74.6743 246.541 75.0358 246.598C75.3974 246.654 75.7386 246.801 76.0274 247.026C81.5491 250.169 84.8916 256.151 86.6714 262.245C87.9426 266.288 88.3652 270.55 87.9129 274.765C87.2219 279.194 85.1175 283.28 81.9137 286.416"
      fill="black" />
  </g>
  <path
    d="M90.4654 332.508C97.9405 334.149 104.087 339.453 111.302 341.98C116.068 343.716 121.46 344.28 125.271 347.614C124.351 345.305 122.189 343.768 120.062 342.457C114.131 338.747 107.8 335.721 101.187 333.437C97.7929 332.273 94.1118 331.292 90.6564 332.256"
    fill="#455A64" />
  <path d="M79.6651 339.167C70.306 339.011 60.4521 331.049 51.1364 330.572C60.8861 327.429 74.8466 329.999 79.6651 339.167Z" fill="#455A64" />
  <path
    d="M83.3202 316.689C88.1444 315.112 93.2859 314.763 98.2791 315.674C103.248 316.589 108.133 317.916 112.882 319.641C112.404 316.394 109.774 313.955 107.3 311.828C105.492 310.144 103.53 308.636 101.439 307.322C99.3301 306.009 96.8912 305.322 94.4069 305.342C92.917 305.438 91.4617 305.834 90.1281 306.505C88.7945 307.176 87.6099 308.109 86.6453 309.249C84.7532 311.313 83.5857 313.937 83.3202 316.724"
    fill="#455A64" />
  <path d="M64.1158 306.384C58.2295 301.357 49.3045 301.852 41.5429 302.043C53.9848 307.972 65.7187 315.285 76.5222 323.843C76.8522 318.348 71.5562 312.739 64.1158 306.384Z" fill="#455A64" />
  <g opacity="0.3">
    <path d="M64.1158 306.384C58.2295 301.357 49.3045 301.852 41.5429 302.043C53.9848 307.972 65.7187 315.285 76.5222 323.843C76.8522 318.348 71.5562 312.739 64.1158 306.384Z" fill="black" />
  </g>
  <path
    d="M85.9681 299.447C88.8415 297.452 91.8695 295.69 95.0233 294.177C98.1228 292.771 101.023 290.531 104.018 288.907C107.899 286.806 111.258 283.881 114.827 281.276C118.395 278.671 122.302 276.319 126.66 275.624C123.069 274.989 119.379 275.203 115.886 276.249C112.408 277.311 109.018 278.641 105.745 280.225C101.153 282.3 96.4819 284.419 92.7226 287.779C88.9634 291.139 85.5688 294.455 85.9681 299.482"
    fill="#455A64" />
  <path
    d="M111.128 339.167C111.024 339.138 110.924 339.094 110.833 339.037L110.017 338.611C109.305 338.238 108.281 337.682 107.022 337.04C106.397 336.71 105.693 336.363 104.938 336.007C104.183 335.651 103.367 335.269 102.507 334.895C100.646 334.061 98.7178 333.387 96.7424 332.881C94.785 332.341 92.7247 332.29 90.7432 332.734C89.8785 332.925 89.0284 333.177 88.1994 333.489C87.4845 333.776 86.7984 334.131 86.1505 334.548C85.1953 335.143 84.3201 335.858 83.5459 336.675C83.0076 337.257 82.7472 337.613 82.7211 337.595C82.7602 337.494 82.816 337.4 82.8861 337.318C83.0076 337.144 83.1899 336.901 83.4504 336.588C84.1932 335.727 85.0522 334.973 86.0029 334.348C86.6582 333.914 87.3529 333.542 88.0778 333.237C88.9223 332.899 89.7935 332.632 90.6824 332.438C92.7092 331.964 94.8227 332.006 96.8292 332.56C98.8222 333.069 100.766 333.755 102.637 334.609C103.506 334.991 104.322 335.373 105.068 335.755C105.815 336.137 106.518 336.484 107.143 336.831C108.402 337.5 109.401 338.09 110.086 338.498L110.876 338.976C110.967 339.03 111.052 339.094 111.128 339.167Z"
    fill="#263238" />
  <path
    d="M72.6848 334.531C72.8867 334.552 73.0835 334.608 73.2665 334.696C73.7889 334.887 74.2992 335.111 74.7945 335.364C78.0922 337.029 80.8142 339.645 82.6082 342.874C82.8827 343.356 83.1263 343.855 83.3375 344.367C83.434 344.549 83.4986 344.746 83.5285 344.949C83.4764 344.949 83.1292 344.176 82.4086 342.996C81.4708 341.448 80.3355 340.03 79.0313 338.776C77.7272 337.527 76.2683 336.45 74.6904 335.573C73.4923 334.921 72.6241 334.583 72.6848 334.531Z"
    fill="#263238" />
  <path
    d="M51.9785 305.915C52.1152 305.943 52.2489 305.984 52.3779 306.037L53.5065 306.436L55.2429 307.087C55.9288 307.348 56.6754 307.721 57.5262 308.094C61.9055 310.128 65.9933 312.739 69.6809 315.856C71.6978 317.592 73.5948 319.463 75.3588 321.456C76.7947 323.084 78.1423 324.788 79.3959 326.561C80.4638 328.071 81.2712 329.33 81.8269 330.207L82.4693 331.206C82.5521 331.319 82.622 331.441 82.6777 331.57C82.5772 331.475 82.4897 331.367 82.4172 331.249C82.2523 331.032 82.0092 330.702 81.7227 330.277C81.1323 329.408 80.2902 328.193 79.2049 326.7C78.1197 325.206 76.748 323.487 75.1331 321.655C73.3641 319.689 71.4705 317.839 69.4638 316.116C65.7883 313.011 61.7332 310.386 57.396 308.303C56.5278 307.912 55.8246 307.521 55.1387 307.252L53.4023 306.549L52.3084 306.089C52.1919 306.044 52.0811 305.986 51.9785 305.915Z"
    fill="#263238" />
  <path
    d="M97.3588 311.48C97.1071 311.47 96.857 311.435 96.6121 311.376L95.7439 311.22C95.414 311.159 95.0233 311.159 94.5979 311.116C92.3763 310.913 90.1433 311.353 88.1646 312.383C87.0804 312.947 86.0927 313.679 85.2388 314.554C84.5226 315.253 83.8903 316.034 83.3549 316.88C82.8716 317.666 82.4423 318.484 82.07 319.329C82.1008 319.078 82.1651 318.833 82.261 318.599C82.4905 317.957 82.7813 317.337 83.1292 316.75C83.6484 315.871 84.2755 315.06 84.9958 314.337C85.8594 313.426 86.8687 312.666 87.9823 312.088C90.0134 311.031 92.3149 310.608 94.5892 310.873C94.9796 310.908 95.3678 310.963 95.7526 311.037L96.6208 311.255C96.8759 311.296 97.1242 311.372 97.3588 311.48Z"
    fill="#263238" />
  <path
    d="M106.761 282.283C106.653 282.371 106.533 282.444 106.405 282.5L105.363 283.073C104.495 283.559 103.15 284.28 101.561 285.218C99.972 286.155 98.088 287.327 96.1433 288.742C93.972 290.25 91.9383 291.947 90.066 293.813C89.1025 294.766 88.2704 295.843 87.5916 297.016C86.9752 298.197 86.3935 299.334 85.8553 300.428C84.8851 302.352 84.0157 304.326 83.2507 306.341C82.7478 307.703 82.3274 309.095 81.9918 310.508C81.7487 311.515 81.6619 312.079 81.6272 312.071C81.6116 311.932 81.6116 311.792 81.6272 311.654C81.6709 311.26 81.7346 310.869 81.8182 310.482C82.1243 309.051 82.5334 307.643 83.0423 306.271C83.7756 304.233 84.625 302.239 85.5861 300.298C86.1157 299.195 86.6974 298.058 87.3225 296.877C88.018 295.675 88.8673 294.569 89.8489 293.587C91.7181 291.712 93.7521 290.01 95.9263 288.499C97.9231 287.093 99.7984 285.947 101.405 285.027C103.011 284.106 104.339 283.429 105.259 282.969L106.336 282.457C106.471 282.384 106.614 282.325 106.761 282.283Z"
    fill="#263238" />
  <path
    d="M80.5246 310.612C80.4384 310.358 80.3773 310.097 80.3423 309.831C80.2294 309.249 80.0905 308.528 79.9342 307.669C79.4951 305.295 78.9152 302.95 78.1978 300.645C77.4417 298.351 76.5488 296.104 75.5238 293.917L74.6122 291.911C74.4856 291.67 74.3838 291.417 74.3083 291.156C74.4771 291.368 74.6172 291.602 74.7251 291.851C74.9769 292.311 75.3241 292.979 75.7409 293.813C76.8308 295.983 77.7566 298.232 78.5104 300.541C79.2504 302.856 79.8135 305.225 80.1947 307.625C80.3423 308.546 80.4464 309.292 80.5072 309.805C80.542 310.072 80.5478 310.343 80.5246 310.612Z"
    fill="#263238" />
  <path
    d="M79.8474 289.324C79.5496 285.783 78.5145 282.344 76.8087 279.227C74.5027 274.941 71.2875 271.211 67.3882 268.299C63.4889 265.386 58.9999 263.362 54.2358 262.367L75.1679 293.561L77.8679 299.126C79.6737 296.105 80.0818 292.866 79.8474 289.324Z"
    fill="#455A64" />
  <path d="M109.869 350.792H61.2074V359.413H109.869V350.792Z" fill="#12B0EE" />
  <path d="M64.8364 357.703L68.9863 384.469H101.283L106.232 357.703H64.8364Z" fill="#12B0EE" />
  <path
    d="M109.835 359.43C109.835 359.526 98.8608 359.595 85.3257 359.595C71.7906 359.595 60.8167 359.526 60.8167 359.43C60.8167 359.335 71.7906 359.257 85.3257 359.257C98.8608 359.257 109.835 359.335 109.835 359.43Z"
    fill="#263238" />
  <path d="M245.576 357.199V383.783H284.454H327.333V357.199H245.576Z" fill="#C17560" />
  <path d="M242.147 349.767V357.199H330.198V349.767H284.454H242.147Z" fill="#6F4439" />
  <path d="M286.173 383.783H327.333V357.199H330.198V349.767H284.454L285.938 357.433L286.173 383.783Z" fill="#6F4439" />
  <path d="M273.592 361.488H257.01V365.49H273.592V361.488Z" fill="#6F4439" />
  <path d="M276.162 370.491H254.874V378.939H276.162V370.491Z" fill="white" />
  <path d="M258.156 323.218V349.802H297.034H339.913V323.218H258.156Z" fill="#C17560" />
  <path d="M254.727 315.786V323.218H342.778V315.786H297.034H254.727Z" fill="#6F4439" />
  <path d="M298.744 349.802H339.913V323.218H342.778V315.786L298.926 316.047L299.03 323.722L298.744 349.802Z" fill="#6F4439" />
  <path d="M286.173 327.507H269.59V331.509H286.173V327.507Z" fill="#6F4439" />
  <path d="M288.742 336.51H267.454V344.958H288.742V336.51Z" fill="white" />
  <path
    d="M340.521 323.201C340.521 323.331 321.343 323.427 297.702 323.427C274.061 323.427 254.874 323.331 254.874 323.201C254.874 323.071 274.044 322.975 297.702 322.975C321.36 322.975 340.521 323.079 340.521 323.201Z"
    fill="#263238" />
  <path
    d="M298.926 316.047C299.048 316.047 299.152 323.618 299.152 332.959C299.152 342.301 299.048 349.863 298.926 349.863C298.805 349.863 298.701 342.292 298.701 332.959C298.701 323.626 298.805 316.047 298.926 316.047Z"
    fill="#263238" />
  <path
    d="M339.262 349.915C339.262 350.037 317.558 350.141 290.8 350.141C264.042 350.141 242.329 350.037 242.329 349.915C242.329 349.793 264.034 349.689 290.8 349.689C317.566 349.689 339.262 349.785 339.262 349.915Z"
    fill="#263238" />
  <path
    d="M328.931 357.208C328.931 357.329 309.614 357.433 285.782 357.433C261.95 357.433 242.633 357.329 242.633 357.208C242.633 357.086 261.95 356.982 285.782 356.982C309.614 356.982 328.931 357.078 328.931 357.208Z"
    fill="#263238" />
  <path
    d="M285.938 383.939C285.808 383.939 285.712 376.395 285.712 367.079C285.712 357.763 285.808 350.219 285.938 350.219C286.068 350.219 286.164 357.763 286.164 367.079C286.164 376.395 286.06 383.939 285.938 383.939Z"
    fill="#263238" />
  <path
    d="M167.361 60.5215C169.445 46.0835 173.438 28.1728 194.092 29.6487C194.092 29.6487 212.845 31.6716 214.46 45.2761C216.023 58.4552 223.472 68.5175 216.752 80.6374C212.88 87.583 214.556 89.5103 223.628 96.5253C229.888 101.37 226.103 130.584 223.689 137.417L158.575 133.076C152.723 127.355 155.007 120.183 157.585 112.839C159.99 105.997 162.178 99.1993 160.563 92.3233C159.812 89.2368 159.788 86.018 160.493 82.9208C162.16 75.3328 166.692 65.201 167.361 60.5215Z"
    fill="#263238" />
  <path
    d="M211.977 72.216C213.132 66.7638 212.915 59.2539 212.585 51.8743C212.142 41.647 205.049 35.4742 196.836 35.4829L195.542 34.2588L181.599 39.8759C180.624 39.9299 179.705 40.3479 179.023 41.0473C178.341 41.7466 177.947 42.6764 177.918 43.6526L179.576 90.5348L168.759 93.5474L177.232 106.032L192.434 112.83L200.248 105.98L208.93 99.2601L209.65 93.5648L201.116 91.1425V84.197C201.116 84.197 209.668 83.1465 211.977 72.216Z"
    fill="#FFBF9D" />
  <path
    d="M195.039 58.6896C195.023 59.0596 194.864 59.4089 194.595 59.6634C194.325 59.9179 193.968 60.0575 193.598 60.0527C193.417 60.0585 193.237 60.028 193.068 59.9631C192.899 59.8982 192.745 59.8001 192.615 59.6747C192.484 59.5493 192.381 59.399 192.309 59.2328C192.238 59.0666 192.201 58.8878 192.2 58.707C192.213 58.3362 192.372 57.9856 192.642 57.7307C192.911 57.4757 193.27 57.3369 193.641 57.3439C193.822 57.3381 194.002 57.3686 194.171 57.4335C194.339 57.4984 194.493 57.5965 194.624 57.7219C194.754 57.8473 194.858 57.9976 194.929 58.1638C195 58.33 195.038 58.5088 195.039 58.6896Z"
    fill="#263238" />
  <path
    d="M208.86 59.1671C208.844 59.5363 208.685 59.8848 208.416 60.1378C208.146 60.3909 207.789 60.5286 207.419 60.5215C207.238 60.5273 207.058 60.4968 206.889 60.4319C206.721 60.367 206.567 60.2689 206.436 60.1435C206.306 60.0181 206.202 59.8678 206.131 59.7016C206.06 59.5354 206.022 59.3566 206.021 59.1758C206.037 58.8058 206.196 58.4565 206.465 58.202C206.735 57.9475 207.092 57.8079 207.462 57.8127C207.644 57.8069 207.825 57.8376 207.994 57.9031C208.164 57.9686 208.318 58.0674 208.448 58.1937C208.579 58.3201 208.682 58.4714 208.753 58.6386C208.824 58.8058 208.86 58.9855 208.86 59.1671Z"
    fill="#263238" />
  <path
    d="M211.126 54.7914C210.944 54.9651 209.911 54.1229 208.383 54.0448C206.855 53.9667 205.7 54.6786 205.544 54.4876C205.388 54.2966 205.665 54.0795 206.169 53.7409C206.854 53.3228 207.651 53.123 208.452 53.1679C209.251 53.2138 210.013 53.5186 210.623 54.0361C211.074 54.3747 211.222 54.7133 211.126 54.7914Z"
    fill="#263238" />
  <path
    d="M196.367 54.9477C196.167 55.104 195.221 54.1577 193.71 53.9319C192.2 53.7062 190.984 54.2792 190.845 54.0709C190.706 53.8625 191.002 53.6802 191.54 53.4023C192.264 53.049 193.08 52.9278 193.875 53.0551C194.661 53.1718 195.388 53.5369 195.95 54.0969C196.358 54.4963 196.463 54.8783 196.367 54.9477Z"
    fill="#263238" />
  <path
    d="M200.977 66.0605C201.793 65.846 202.634 65.7352 203.478 65.7306C203.868 65.7306 204.242 65.6525 204.346 65.392C204.398 64.993 204.329 64.5873 204.146 64.2287C203.825 63.265 203.495 62.2579 203.139 61.1987C201.75 56.8577 200.769 53.385 200.942 53.3068C201.116 53.2287 202.384 56.7015 203.773 61.0077C204.103 62.0669 204.424 63.074 204.728 64.0463C204.944 64.5292 204.987 65.0721 204.849 65.583C204.786 65.7175 204.693 65.8359 204.577 65.9292C204.461 66.0224 204.326 66.0881 204.181 66.1213C203.961 66.1651 203.737 66.1855 203.512 66.1821C202.665 66.246 201.814 66.2052 200.977 66.0605Z"
    fill="#263238" />
  <path d="M201.116 84.1623C195.908 83.9841 190.852 82.3609 186.513 79.474C186.513 79.474 189.986 87.2877 201.116 86.8537V84.1623Z" fill="#FF9A6C" />
  <path
    d="M199.579 68.8474C199.053 68.4808 198.412 68.3146 197.773 68.3786C197.433 68.4075 197.103 68.5074 196.804 68.6719C196.505 68.8364 196.244 69.0618 196.037 69.3336C195.843 69.5792 195.734 69.8806 195.724 70.1932C195.715 70.5059 195.806 70.8132 195.985 71.07C196.247 71.3771 196.587 71.6072 196.969 71.7356C197.351 71.8641 197.762 71.8861 198.156 71.7993C198.525 71.7478 198.876 71.6071 199.179 71.3892C199.481 71.1714 199.726 70.883 199.892 70.5491C200.032 70.2702 200.078 69.9529 200.022 69.6457C199.965 69.3386 199.81 69.0582 199.579 68.8474Z"
    fill="#FF9A6C" />
  <path
    d="M197.305 50.5113C197.096 50.902 195.62 50.5113 193.832 50.4158C192.043 50.3203 190.524 50.6241 190.359 50.2161C190.281 50.0251 190.594 49.6778 191.227 49.3479C192.074 48.9827 192.993 48.8133 193.914 48.8524C194.836 48.8915 195.736 49.138 196.549 49.5736C197.122 49.9556 197.4 50.3289 197.305 50.5113Z"
    fill="#263238" />
  <path
    d="M210.762 49.0006C210.466 49.3566 209.277 49.0006 207.862 49.0006C206.447 49.0006 205.257 49.2958 204.962 48.9398C204.832 48.7662 205.014 48.4102 205.535 48.0717C206.242 47.6478 207.055 47.434 207.879 47.4552C208.701 47.4393 209.509 47.6625 210.206 48.0977C210.718 48.4797 210.892 48.8357 210.762 49.0006Z"
    fill="#263238" />
  <path
    d="M178.196 63.0479C178.196 63.0479 183.726 63.9161 192.2 46.0401C195.013 40.1104 198.06 34.2588 198.06 34.2588L195.577 33.5121C195.577 33.5121 180.167 37.8531 179.95 38.0441C179.733 38.2351 176.06 46.0141 176.06 46.0141L178.196 63.0479Z"
    fill="#263238" />
  <path
    d="M179.012 62.1363C178.942 60.9295 178.778 59.3407 178.5 59.3494C176.303 59.3494 172.422 58.8806 172.11 64.3936C171.684 71.9295 179.342 70.8008 179.368 70.5838C179.394 70.3667 179.177 64.9753 179.012 62.1363Z"
    fill="#FFBF9D" />
  <path
    d="M177.223 67.5972C177.223 67.5972 177.085 67.6841 176.859 67.7709C176.544 67.8997 176.192 67.8997 175.878 67.7709C175.096 67.4323 174.497 66.13 174.541 64.7756C174.557 64.1291 174.717 63.4943 175.01 62.9177C175.096 62.6861 175.236 62.4786 175.419 62.3124C175.601 62.1463 175.821 62.0263 176.06 61.9627C176.205 61.9305 176.357 61.947 176.492 62.0098C176.627 62.0726 176.738 62.1781 176.807 62.31C176.894 62.5183 176.807 62.6746 176.876 62.6833C176.946 62.692 177.041 62.5704 176.998 62.2579C176.972 62.0655 176.876 61.8893 176.729 61.763C176.53 61.5962 176.275 61.5122 176.017 61.5286C175.703 61.573 175.406 61.6968 175.154 61.8883C174.902 62.0797 174.703 62.3325 174.575 62.6225C174.221 63.2584 174.025 63.9699 174.002 64.6975C174.002 66.2168 174.662 67.6841 175.739 68.0574C175.937 68.1291 176.148 68.1546 176.357 68.132C176.566 68.1094 176.768 68.0394 176.946 67.9271C177.197 67.7796 177.25 67.6146 177.223 67.5972Z"
    fill="#FF9A6C" />
  <path
    d="M201.003 70.9311C200.942 71.1221 199.562 70.9311 197.912 70.5578C196.263 70.1844 194.969 69.6896 195.013 69.4899C195.056 69.2902 196.436 69.4899 198.095 69.8545C199.753 70.2192 201.055 70.7401 201.003 70.9311Z"
    fill="#263238" />
  <path
    d="M187.225 373.209V374.328C187.225 374.328 205.978 382.194 206.125 385.78L168.654 385.016L169.418 372.557C172.44 374.033 184.126 363.485 187.39 363.493C190.029 363.502 187.225 373.209 187.225 373.209Z"
    fill="#263238" />
  <path d="M168.594 385.181L168.776 382.177L204.832 383.87C204.832 383.87 206.273 384.738 206.065 385.945L168.594 385.181Z" fill="#455A64" />
  <path
    d="M187.294 374.276C187.294 374.459 186.366 374.519 185.454 375.092C184.542 375.665 184.047 376.421 183.882 376.343C183.718 376.265 184.004 375.214 185.124 374.546C186.244 373.877 187.338 374.111 187.294 374.276Z"
    fill="white" />
  <path
    d="M191.184 375.978C191.227 376.16 190.429 376.456 189.786 377.211C189.144 377.966 188.918 378.791 188.77 378.782C188.623 378.774 188.501 377.732 189.309 376.803C190.116 375.874 191.184 375.804 191.184 375.978Z"
    fill="white" />
  <path
    d="M193.302 380.727C193.129 380.727 192.894 379.859 193.389 378.852C193.884 377.845 194.744 377.48 194.813 377.636C194.882 377.793 194.344 378.313 193.945 379.13C193.545 379.946 193.502 380.718 193.302 380.727Z"
    fill="white" />
  <path
    d="M162.577 360.837C162.577 360.837 173.308 366.289 177.796 366.576C177.796 366.576 176.06 372.349 176.164 372.653L180.505 394.931C180.623 395.56 180.505 396.21 180.173 396.758C179.842 397.306 179.32 397.712 178.708 397.9C178.232 398.034 177.728 398.033 177.252 397.897C176.777 397.76 176.349 397.494 176.017 397.127C172.544 393.177 159.617 378.591 159.929 376.803L160.433 372.045C160.537 371.055 161.362 367.531 161.362 367.314L162.577 360.837Z"
    fill="#263238" />
  <path
    d="M178.213 397.961L160.059 375.119L159.964 376.16C159.756 377.28 160.216 377.775 160.702 378.548C162.126 380.849 166.18 386.075 175.93 397.101C176.21 397.421 176.565 397.668 176.963 397.819C177.362 397.971 177.791 398.022 178.213 397.969V397.961Z"
    fill="#455A64" />
  <path
    d="M173.429 386.691C173.568 386.778 174.254 385.537 175.817 384.955C176.775 384.677 177.776 384.583 178.769 384.677C178.769 384.617 178.491 384.399 177.901 384.261C177.135 384.105 176.34 384.168 175.609 384.443C174.878 384.708 174.239 385.178 173.768 385.797C173.438 386.309 173.334 386.665 173.429 386.691Z"
    fill="white" />
  <path
    d="M174.923 390.147C175.036 390.268 175.921 389.539 177.258 389.279C178.087 389.205 178.919 389.179 179.75 389.201C179.837 389.079 178.665 388.445 177.145 388.749C175.626 389.053 174.801 390.069 174.923 390.147Z"
    fill="white" />
  <path
    d="M170.469 382.168C170.573 382.298 171.928 381.178 173.942 380.614C175.956 380.05 177.736 380.276 177.762 380.111C177.788 379.946 175.965 379.468 173.785 380.111C171.606 380.753 170.356 382.09 170.469 382.168Z"
    fill="white" />
  <path
    d="M230.704 191.366C230.704 191.366 237.979 215.936 225.642 247.338C213.305 278.741 206.421 303.849 205.952 310.612C205.483 317.375 204.728 324.373 198.242 345.791C193.511 361.418 190.012 370.778 190.012 370.778C185.098 373.46 179.88 374.181 175.131 371.576C175.131 371.576 175.591 334.244 182.702 309.162C189.812 284.08 194.691 244.786 192.252 230.6C189.812 216.414 195.091 208.339 195.091 208.339L230.704 191.366Z"
    fill="#263238" />
  <path
    d="M200.639 213.375C200.639 213.375 231.025 191.774 230.878 191.826C229.219 185.61 224.392 173.134 221.727 167.517C221.727 167.517 209.885 176.876 199.076 179.038C188.267 181.2 164.183 171.146 164.183 171.146L159.339 185.437C156.89 192.156 151.707 210.97 155.371 230.001C158.844 248.155 174.298 290.774 177.258 299.899C179.585 307.139 172.006 314.953 168.993 323.539C165.364 334.001 160.216 368.216 160.216 368.216L176.043 371.924C176.043 371.924 198.798 324.625 203.547 313.026C207.966 302.225 201.298 223.871 200.361 213.245L200.639 213.375Z"
    fill="#263238" />
  <path
    d="M210.953 197.062C210.953 197.062 210.874 197.14 210.753 197.305C210.631 197.47 210.44 197.73 210.197 198.043L208.062 200.951L200.152 211.96V212.012C200.534 216.136 200.682 220.919 200.942 226.25C201.203 231.581 201.498 237.441 201.811 243.744C202.123 250.047 202.523 256.767 202.905 263.825C203.287 270.884 203.712 278.263 204.441 285.843C205.197 292.154 205.874 298.353 205.309 304.318C205.179 305.792 204.974 307.258 204.693 308.711C204.44 310.139 204.08 311.547 203.616 312.921C202.583 315.595 201.376 318.191 200.239 320.735C195.638 330.815 191.323 339.835 187.729 347.397C184.134 354.959 181.208 361.08 179.177 365.325L176.859 370.205C176.607 370.752 176.416 371.177 176.268 371.481C176.121 371.785 176.086 371.915 176.086 371.915C176.086 371.915 176.173 371.776 176.312 371.498C176.451 371.22 176.677 370.786 176.954 370.248L179.351 365.403L188.032 347.536C191.661 339.974 196.011 330.988 200.639 320.909C201.785 318.382 202.983 315.813 204.042 313.095C204.519 311.705 204.888 310.28 205.144 308.832C205.43 307.365 205.642 305.884 205.778 304.396C206.343 298.379 205.665 292.137 204.91 285.834C204.181 278.272 203.807 270.884 203.365 263.834C202.922 256.784 202.592 250.056 202.236 243.753C201.88 237.45 201.594 231.598 201.316 226.267C201.038 220.937 200.847 216.153 200.448 212.029V212.116C203.79 207.367 206.429 203.616 208.261 201.038L210.31 198.086L210.831 197.322L210.953 197.062Z"
    fill="#455A64" />
  <path
    d="M241.469 144.597C241.215 143.411 241.035 142.211 240.931 141.003C240.923 138.057 241.371 135.129 242.26 132.321C243.169 129.477 243.726 126.532 243.918 123.552C243.941 122.644 243.868 121.736 243.701 120.843C243.662 120.509 243.562 120.186 243.406 119.888C243.293 119.888 243.623 121.295 243.466 123.535C243.148 126.459 242.537 129.344 241.643 132.147C240.732 135.003 240.338 137.999 240.48 140.994C240.554 141.903 240.744 142.798 241.044 143.659C241.12 143.998 241.265 144.317 241.469 144.597Z"
    fill="#263238" />
  <path
    d="M254.623 104.626C254.623 104.626 260.361 131.322 260.353 148.035C260.353 153.409 255.699 159.894 247.234 158.453C238.769 157.012 218.393 129.586 218.393 129.586L223.55 95.7266C223.55 95.7266 227.683 96.0825 230.938 101.708C234.194 107.334 243.788 125.453 243.788 125.453L243.327 103.471L254.623 104.626Z"
    fill="#455A64" />
  <path
    d="M225.425 144.597C225.425 144.597 226.762 133.128 226.762 124.707C226.762 121.399 225.512 95.9262 225.226 95.9262C224.939 95.9262 203.304 91.6287 203.304 91.6287C203.304 91.6287 202.54 98.9302 192.599 99.3816C183.648 99.7984 177.77 91.0557 177.77 90.7779C177.77 90.5001 159.052 93.9555 156.179 94.5198C153.305 95.0841 149.954 98.5395 147.392 101.135L144.232 120.027C147.601 120.522 153.001 122.033 156.977 120.826L163.723 155.354L161.726 164.904C161.48 166.042 161.509 167.223 161.811 168.348C162.113 169.473 162.679 170.51 163.463 171.372C182.502 182.563 208.652 181.538 222.708 170.886C224.444 169.853 225.807 166.171 225.668 164.157L225.425 144.597Z"
    fill="#12B0EE" />
  <path
    d="M155.102 101.378C155.439 102.188 155.695 103.028 155.866 103.888C156.373 105.933 156.761 108.005 157.029 110.095C157.305 112.183 157.464 114.284 157.507 116.389C157.567 117.259 157.535 118.132 157.411 118.994C157.276 118.132 157.201 117.262 157.186 116.389C157.081 114.783 156.899 112.569 156.587 110.13C156.274 107.69 155.866 105.511 155.553 103.94C155.337 103.099 155.187 102.243 155.102 101.378Z"
    fill="#263238" />
  <path
    d="M127.867 106.041C126.676 105.27 125.799 104.1 125.393 102.742C125.045 101.691 122.536 90.5001 122.649 87.3138C122.665 85.5492 123.059 83.8085 123.804 82.2088C123.804 82.2088 125.071 68.7085 126.868 66.6856C128.666 64.6627 129.404 65.9129 129.925 66.2081C129.925 66.2081 131.513 59.0716 134.786 59.1671L136.471 59.7488C136.471 59.7488 137.139 56.6146 139.301 56.823C140.004 56.8925 141.037 57.0748 141.037 60.1308C141.037 60.1308 143.572 57.7259 145.257 62.3534C146.941 66.9808 145.578 82.2088 145.995 83.3635C146.444 85.1112 146.798 86.882 147.054 88.6682C147.054 88.6682 149.797 83.8497 153.279 82.5909C156.76 81.332 158.028 82.1133 158.028 83.459C158.028 84.8047 154.972 85.6816 152.645 89.9184C150.318 94.1551 147.792 99.3643 145.465 102.16C143.138 104.955 135.411 107.456 127.867 106.041Z"
    fill="#FFBF9D" />
  <path
    d="M128.24 100.701C128.24 100.701 127.606 107.647 129.829 111.788C132.052 115.929 135.238 119.81 140.325 120.47C144.007 120.831 147.721 120.653 151.351 119.94C151.351 119.94 156.005 117.336 155.059 110.607C154.112 103.879 151.039 100.84 149.033 100.736L144.597 101.474L128.24 100.701Z"
    fill="#FFBF9D" />
  <path
    d="M146.906 110.59C145.868 109.674 144.883 108.7 143.954 107.673C142.906 106.771 141.906 105.815 140.959 104.808C142.194 105.472 143.314 106.331 144.276 107.352C145.319 108.284 146.207 109.378 146.906 110.59Z"
    fill="#FF9A6C" />
  <path
    d="M141.55 79.0573C140.778 79.1181 140.003 79.1181 139.232 79.0573C137.381 79.0664 135.533 79.2056 133.701 79.4741C131.87 79.7502 130.059 80.1535 128.284 80.6809C127.559 80.948 126.816 81.1627 126.061 81.3233C126.726 80.916 127.441 80.5978 128.188 80.377C131.737 79.1462 135.489 78.6126 139.24 78.8056C140.017 78.7925 140.793 78.8771 141.55 79.0573Z"
    fill="#FF9A6C" />
  <path
    d="M128.457 80.1513C128.322 79.4537 128.27 78.7427 128.301 78.0329C128.301 76.7219 128.301 74.9161 128.492 72.9279C128.683 70.9398 128.9 69.1426 129.134 67.8577C129.216 67.1516 129.382 66.4578 129.629 65.7914C129.635 66.4988 129.574 67.2052 129.447 67.9011C129.299 69.1947 129.1 70.9832 128.935 72.9627C128.77 74.9421 128.683 76.7393 128.622 78.0416C128.632 78.7484 128.576 79.4545 128.457 80.1513Z"
    fill="#FF9A6C" />
  <path
    d="M133.927 78.9965C133.847 78.7553 133.803 78.5038 133.797 78.2499C133.745 77.7637 133.692 77.0518 133.658 76.1836C133.498 71.6159 133.995 67.0489 135.134 62.6225C135.351 61.7543 135.55 61.0945 135.707 60.6343C135.767 60.3857 135.861 60.1463 135.984 59.9224C135.861 60.8556 135.681 61.7804 135.446 62.692C135.09 64.4283 134.665 66.7638 134.378 69.3944C134.092 72.025 134.022 74.4385 134.014 76.1749C134.038 77.1164 134.009 78.0584 133.927 78.9965Z"
    fill="#FF9A6C" />
  <path
    d="M139.77 77.2949C139.664 74.4264 139.713 71.5543 139.917 68.6911C139.965 65.823 140.168 62.9596 140.525 60.1134C140.62 62.9821 140.568 65.8538 140.369 68.7172C140.316 71.5848 140.116 74.4478 139.77 77.2949Z"
    fill="#FF9A6C" />
  <path
    d="M147.514 98.4527C147.4 99.1085 147.155 99.7345 146.793 100.293C145.984 101.681 144.871 102.869 143.538 103.766C142.207 104.677 140.743 105.374 139.197 105.832C138.575 106.063 137.923 106.197 137.261 106.232C137.2 106.067 140.23 105.476 143.26 103.401C144.544 102.52 145.644 101.396 146.498 100.094C147.167 99.1212 147.445 98.418 147.514 98.4527Z"
    fill="#FF9A6C" />
  <path
    d="M133.753 97.5324C133.77 97.3018 133.825 97.0757 133.918 96.8639C134.137 96.2525 134.429 95.6696 134.786 95.1275C135.978 93.3755 137.701 92.0518 139.7 91.3509C141.455 90.7382 143.336 90.577 145.17 90.8821L145.005 90.9428C145.664 90.0638 146.39 89.2366 147.175 88.4685C146.621 89.4169 145.988 90.3171 145.283 91.1599L145.222 91.2467H145.118C143.343 91.0194 141.539 91.2066 139.848 91.7937C137.934 92.4719 136.263 93.7014 135.047 95.3272C134.127 96.6121 133.831 97.5671 133.753 97.5324Z"
    fill="#FF9A6C" />
  <path
    d="M133.024 107.056C132.469 107.261 131.872 107.321 131.288 107.23C129.862 107.128 128.506 106.576 127.414 105.654C126.322 104.732 125.55 103.487 125.21 102.099C125.022 101.54 124.986 100.94 125.106 100.363C125.184 100.363 125.202 101.014 125.523 101.995C125.919 103.278 126.674 104.422 127.698 105.291C128.723 106.16 129.974 106.718 131.305 106.9C132.355 107.065 133.015 106.978 133.024 107.056Z"
    fill="#FF9A6C" />
  <path
    d="M215.623 149.32C215.315 149.684 214.975 150.021 214.608 150.327C213.939 150.961 212.932 151.829 211.638 152.853C210.345 153.878 208.747 155.015 206.916 156.196C202.923 158.74 198.645 160.806 194.171 162.351C192.104 163.055 190.212 163.602 188.605 163.975C186.999 164.348 185.697 164.609 184.785 164.739C184.317 164.838 183.84 164.893 183.362 164.904C183.815 164.754 184.279 164.64 184.751 164.565C185.619 164.383 186.947 164.079 188.536 163.697C190.125 163.315 192.009 162.716 194.032 161.961C196.054 161.205 198.268 160.32 200.526 159.243C202.636 158.213 204.693 157.077 206.69 155.84C208.522 154.694 210.163 153.583 211.439 152.593C212.715 151.603 213.792 150.787 214.495 150.197C214.847 149.875 215.224 149.581 215.623 149.32Z"
    fill="#263238" />
  <path
    d="M226.424 106.318C226.703 108.37 226.828 110.439 226.797 112.509C226.928 114.571 226.902 116.64 226.719 118.699C226.449 116.65 226.324 114.584 226.346 112.517C226.225 110.452 226.251 108.38 226.424 106.318Z"
    fill="#263238" />
  <path d="M225.816 148.686V115.799L249.162 92.358H281.858L304.96 115.452V148.087L282.057 170.981H249.283L225.816 148.686Z" fill="white" />
  <path
    d="M225.816 148.686L226.241 149.068L227.448 150.197C228.525 151.195 230.053 152.662 232.11 154.538L249.387 170.851L249.283 170.808L282.04 170.764L281.901 170.816L304.787 147.905L304.726 148.061C304.726 137.764 304.726 126.756 304.726 115.4L304.787 115.556L304.378 115.148L281.684 92.4795L281.84 92.549H249.162L249.301 92.4882L225.92 115.929L225.964 115.825C225.964 126.122 225.912 134.326 225.894 139.978C225.894 142.8 225.894 144.97 225.851 146.464V148.139C225.851 148.521 225.851 148.712 225.851 148.712C225.851 148.712 225.851 148.53 225.851 148.157V146.49C225.851 145.014 225.851 142.843 225.851 140.03C225.851 134.37 225.807 126.139 225.781 115.825V115.756L225.825 115.712L249.136 92.2191L249.188 92.1583H249.274H281.953H282.049L282.109 92.2278L304.804 114.905L305.212 115.322L305.281 115.382V115.478C305.281 126.834 305.281 137.842 305.281 148.139V148.226L305.221 148.295L282.3 171.172L282.248 171.233H282.162L249.405 171.181H249.344H249.301L232.084 154.685L227.5 150.275L226.198 149.129C225.938 148.825 225.816 148.686 225.816 148.686Z"
    fill="#263238" />
  <path d="M229.879 147.132V117.249L251.089 95.9262H280.781L301.765 116.91V146.585L280.929 167.422H251.202L229.879 147.132Z" fill="#FF725E" />
  <path
    d="M229.879 147.132C229.879 147.132 230.018 147.245 230.261 147.471L231.372 148.495L235.601 152.463L251.297 167.274H251.202L280.989 167.187L280.851 167.248L301.635 146.411L301.574 146.568C301.574 137.209 301.574 127.207 301.574 116.893L301.635 117.049L301.262 116.676L280.625 96.0825L280.781 96.1433H251.089L251.228 96.0825L229.983 117.353L230.027 117.249C230.027 126.599 229.975 134.057 229.957 139.197C229.957 141.749 229.957 143.729 229.914 145.083C229.914 145.743 229.914 146.255 229.914 146.611C229.914 146.967 229.914 147.132 229.914 147.132C229.914 147.132 229.914 146.967 229.914 146.628C229.914 146.29 229.914 145.76 229.914 145.118C229.914 143.763 229.914 141.793 229.914 139.24C229.914 134.092 229.87 126.617 229.844 117.249V117.188L229.888 117.145L251.063 95.7873L251.115 95.7266H251.202H280.894H280.981L281.05 95.7873L301.661 116.398L302.034 116.771L302.104 116.832V116.928C302.104 127.242 302.104 137.243 302.104 146.602V146.689L302.043 146.75L281.206 167.543L281.146 167.595H280.989L251.228 167.552H251.167H251.124L235.496 152.602L231.329 148.591L230.261 147.549L229.879 147.132Z"
    fill="#263238" />
  <path
    d="M247.217 119.697C250.646 119.697 252.426 121.755 252.426 125.349V126.052H249.083V125.123C249.083 123.517 248.441 122.91 247.347 122.91C246.253 122.91 245.611 123.517 245.611 125.123C245.611 129.742 252.513 130.61 252.513 137.035C252.513 140.629 250.716 142.678 247.252 142.678C243.788 142.678 241.99 140.629 241.99 137.035V135.655H245.324V137.252C245.324 138.858 246.027 139.44 247.156 139.44C248.285 139.44 248.988 138.858 248.988 137.252C248.988 132.633 242.086 131.765 242.086 125.349C242.016 121.755 243.779 119.697 247.217 119.697Z"
    fill="white" />
  <path d="M253.442 119.958H264.355V123.161H260.656V142.426H257.132V123.161H253.442V119.958Z" fill="white" />
  <path
    d="M265.605 125.349C265.605 121.755 267.498 119.697 270.962 119.697C274.426 119.697 276.327 121.755 276.327 125.349V137.035C276.327 140.629 274.426 142.678 270.962 142.678C267.498 142.678 265.605 140.629 265.605 137.035V125.349ZM269.13 137.252C269.13 138.858 269.842 139.475 270.962 139.475C272.082 139.475 272.794 138.858 272.794 137.252V125.097C272.794 123.491 272.082 122.884 270.962 122.884C269.842 122.884 269.13 123.491 269.13 125.097V137.252Z"
    fill="white" />
  <path
    d="M289.064 125.505V128.431C289.064 132.026 287.327 133.979 283.802 133.979H282.135V142.426H278.602V119.958H283.811C287.327 119.958 289.064 121.911 289.064 125.505ZM282.118 123.161V130.775H283.785C284.905 130.775 285.521 130.254 285.521 128.657V125.28C285.521 123.674 284.914 123.161 283.785 123.161H282.118Z"
    fill="white" />
  <path
    d="M254.944 92.3233C254.944 92.002 257.279 87.5656 258.859 87.4354H260.309C260.309 87.4354 261.733 85.534 263.608 86.0202C263.608 86.0202 264.902 84.1883 267.489 85.5774C267.489 85.5774 269.295 85.2302 270.094 86.1157C271.179 87.2444 275.207 90.7779 275.52 92.4188C275.832 94.0596 275.52 97.9665 274.574 98.2183C273.627 98.47 273.323 98.2877 273.323 98.2877C273.196 99.2019 272.902 100.085 272.455 100.892C271.327 102.281 269.486 100.719 269.486 100.719C269.089 101.278 268.492 101.663 267.819 101.795C266.083 101.934 265.892 99.017 265.892 99.017L265.761 94.9191C265.761 94.9191 265.431 96.8726 264.025 96.9073C263.044 96.9073 262.454 95.7526 262.454 95.7526L260.665 92.3493L254.944 92.3233Z"
    fill="#FFBF9D" />
  <path
    d="M260.613 87.5916C260.526 87.7392 262.506 88.6161 263.947 90.7171C265.388 92.8181 265.562 94.9625 265.727 94.9365C265.848 94.4755 265.848 93.9911 265.727 93.53C265.51 92.4101 265.061 91.3482 264.407 90.4132C263.761 89.4747 262.92 88.6869 261.941 88.1039C261.16 87.6611 260.639 87.5308 260.613 87.5916Z"
    fill="#FF9A6C" />
  <path
    d="M266.63 87.5395C266.578 87.6177 267.255 88.0865 268.001 89.1283C268.948 90.5068 269.544 92.0951 269.738 93.7558C269.913 95.4326 269.913 97.1231 269.738 98.8C269.622 99.5027 269.59 100.217 269.642 100.927C269.892 100.257 270.05 99.5559 270.111 98.8434C270.415 97.1237 270.468 95.369 270.267 93.6342C270.063 91.8887 269.381 90.2334 268.297 88.8505C267.871 88.2694 267.295 87.816 266.63 87.5395Z"
    fill="#FF9A6C" />
  <path
    d="M272.308 90.5435C272.238 90.5956 272.499 90.9863 272.768 91.6634C273.116 92.5515 273.321 93.4892 273.375 94.4416C273.426 95.4047 273.426 96.3697 273.375 97.3327C273.332 98.088 273.332 98.5569 273.375 98.5655C273.419 98.5742 273.575 98.1228 273.714 97.3761C273.895 96.3946 273.963 95.3953 273.914 94.3982C273.858 93.3856 273.586 92.3967 273.115 91.4985C272.716 90.8126 272.308 90.5001 272.308 90.5435Z"
    fill="#FF9A6C" />
  <path opacity="0.3" d="M232.84 149.867L288.716 104.183L297.502 112.969L241.921 158.427L232.84 149.867Z" fill="white" />
  <path
    d="M46.4147 85.7511V69.3369H50.5463C51.4043 69.3369 52.0447 69.5047 52.4675 69.8405C52.8903 70.1762 53.1669 70.6674 53.2975 71.314C53.4343 71.9607 53.5027 72.7503 53.5027 73.6829C53.5027 74.6466 53.4032 75.4052 53.2042 75.9585C53.0115 76.5057 52.6136 76.8725 52.0105 77.059C52.2965 77.1087 52.5359 77.2269 52.7286 77.4134C52.9213 77.5937 53.0768 77.8611 53.1949 78.2155C53.3131 78.5636 53.397 79.0144 53.4467 79.5678C53.5027 80.1149 53.5307 80.7864 53.5307 81.5822C53.5307 81.6444 53.5307 81.8185 53.5307 82.1045C53.5307 82.3905 53.5307 82.7294 53.5307 83.1211C53.5369 83.5066 53.5431 83.892 53.5493 84.2775C53.5555 84.663 53.5649 84.9925 53.5773 85.2661C53.5897 85.5397 53.6053 85.7013 53.6239 85.7511H51.1245C51.1058 85.72 51.0903 85.5614 51.0779 85.2754C51.0716 84.9832 51.0623 84.6133 51.0499 84.1656C51.0437 83.718 51.0374 83.2361 51.0312 82.72C51.0312 82.204 51.0312 81.6973 51.0312 81.1999C51.0312 80.6962 51.0312 80.2517 51.0312 79.8662C51.0312 79.375 50.9939 79.0051 50.9193 78.7564C50.8509 78.5015 50.7204 78.3243 50.5276 78.2248C50.3411 78.1253 50.0706 78.0662 49.7162 78.0476L48.9142 78.001V85.7511H46.4147ZM48.9235 76.0611H49.9214C50.2261 76.0611 50.4561 75.9927 50.6115 75.8559C50.7732 75.7191 50.882 75.4673 50.938 75.1005C51.0001 74.7337 51.0312 74.2052 51.0312 73.515V73.4124C51.0312 72.8342 51.0032 72.3897 50.9473 72.0788C50.8913 71.7679 50.7732 71.5534 50.5929 71.4353C50.4188 71.3171 50.1452 71.2581 49.7722 71.2581H48.9235V76.0611Z"
    fill="white" />
  <path d="M55.6664 85.7511V69.3369H61.1689V71.4912H58.1658V76.2663H61.0196V78.374H58.1658V83.5967H61.2808V85.7511H55.6664Z" fill="white" />
  <path
    d="M66.1211 85.9376C65.4372 85.9376 64.8652 85.8319 64.4051 85.6205C63.9512 85.4029 63.5906 85.0889 63.3232 84.6786C63.0621 84.262 62.8756 83.7584 62.7637 83.1677C62.6517 82.5708 62.5958 81.8931 62.5958 81.1346V79.6704H64.9646V81.3211C64.9646 82.204 65.0393 82.8382 65.1885 83.2237C65.3377 83.6091 65.633 83.8019 66.0745 83.8019C66.3729 83.8019 66.5967 83.7335 66.746 83.5967C66.9014 83.4537 67.004 83.2299 67.0537 82.9252C67.1097 82.6143 67.1377 82.2102 67.1377 81.7128C67.1377 81.0973 67.0071 80.5346 66.746 80.0248C66.491 79.5149 66.1025 78.9864 65.5802 78.4393L64.3678 77.1896C64.032 76.8414 63.7274 76.4715 63.4538 76.0798C63.1864 75.6881 62.9719 75.2528 62.8103 74.7741C62.6548 74.2891 62.5771 73.7482 62.5771 73.1513C62.5771 72.2871 62.6828 71.5565 62.8942 70.9596C63.1056 70.3628 63.4631 69.912 63.9667 69.6073C64.4704 69.2965 65.1605 69.141 66.0372 69.141C66.6962 69.141 67.2371 69.2436 67.6599 69.4488C68.0889 69.6477 68.4216 69.9431 68.6578 70.3348C68.9003 70.7203 69.0713 71.1928 69.1708 71.7524C69.2703 72.3057 69.32 72.9399 69.32 73.6549V74.6715H67.0164V73.4964C67.0164 72.999 66.9884 72.5855 66.9325 72.256C66.8827 71.9265 66.7864 71.6809 66.6434 71.5192C66.5004 71.3513 66.2921 71.2674 66.0185 71.2674C65.7574 71.2674 65.546 71.3265 65.3843 71.4446C65.2227 71.5565 65.1045 71.7337 65.0299 71.9762C64.9615 72.2125 64.9273 72.5202 64.9273 72.8995C64.9273 73.2415 64.9709 73.5368 65.0579 73.7855C65.145 74.0342 65.2786 74.2736 65.4589 74.5036C65.6392 74.7337 65.8631 74.9917 66.1304 75.2777L67.4827 76.7419C68.1294 77.4383 68.633 78.1626 68.9936 78.9149C69.3542 79.6673 69.5345 80.5066 69.5345 81.433C69.5345 82.4154 69.4288 83.2423 69.2174 83.9138C69.006 84.5791 68.6516 85.0827 68.1542 85.4247C67.6568 85.7666 66.9791 85.9376 66.1211 85.9376Z"
    fill="white" />
  <path d="M72.1552 85.7511V71.5006H70.234V69.3369H76.4919V71.5006H74.6453V85.7511H72.1552Z" fill="white" />
  <path
    d="M77.9002 85.7511V69.3369H82.0317C82.8897 69.3369 83.5301 69.5047 83.9529 69.8405C84.3757 70.1762 84.6524 70.6674 84.7829 71.314C84.9197 71.9607 84.9881 72.7503 84.9881 73.6829C84.9881 74.6466 84.8886 75.4052 84.6897 75.9585C84.4969 76.5057 84.099 76.8725 83.4959 77.059C83.7819 77.1087 84.0213 77.2269 84.214 77.4134C84.4068 77.5937 84.5622 77.8611 84.6803 78.2155C84.7985 78.5636 84.8824 79.0144 84.9322 79.5678C84.9881 80.1149 85.0161 80.7864 85.0161 81.5822C85.0161 81.6444 85.0161 81.8185 85.0161 82.1045C85.0161 82.3905 85.0161 82.7294 85.0161 83.1211C85.0223 83.5066 85.0285 83.892 85.0347 84.2775C85.041 84.663 85.0503 84.9925 85.0627 85.2661C85.0752 85.5397 85.0907 85.7013 85.1094 85.7511H82.6099C82.5913 85.72 82.5757 85.5614 82.5633 85.2754C82.5571 84.9832 82.5477 84.6133 82.5353 84.1656C82.5291 83.718 82.5229 83.2361 82.5167 82.72C82.5167 82.204 82.5167 81.6973 82.5167 81.1999C82.5167 80.6962 82.5167 80.2517 82.5167 79.8662C82.5167 79.375 82.4793 79.0051 82.4047 78.7564C82.3363 78.5015 82.2058 78.3243 82.013 78.2248C81.8265 78.1253 81.556 78.0662 81.2017 78.0476L80.3996 78.001V85.7511H77.9002ZM80.4089 76.0611H81.4068C81.7115 76.0611 81.9415 75.9927 82.097 75.8559C82.2586 75.7191 82.3674 75.4673 82.4234 75.1005C82.4856 74.7337 82.5167 74.2052 82.5167 73.515V73.4124C82.5167 72.8342 82.4887 72.3897 82.4327 72.0788C82.3768 71.7679 82.2586 71.5534 82.0783 71.4353C81.9042 71.3171 81.6307 71.2581 81.2576 71.2581H80.4089V76.0611Z"
    fill="white" />
  <path d="M87.2078 85.7511V69.3369H89.7072V85.7511H87.2078Z" fill="white" />
  <path
    d="M95.5921 85.9376C94.7962 85.9376 94.1341 85.7542 93.6056 85.3874C93.0771 85.0205 92.6792 84.4858 92.4118 83.7832C92.1507 83.0744 92.0201 82.2195 92.0201 81.2185V74.0653C92.0201 73.313 92.0823 72.6353 92.2066 72.0322C92.331 71.4291 92.533 70.913 92.8128 70.484C93.0926 70.055 93.4657 69.7255 93.932 69.4954C94.3983 69.2654 94.9734 69.1503 95.6573 69.1503C96.2791 69.1503 96.8076 69.2529 97.2428 69.4581C97.6842 69.6571 98.0418 69.9462 98.3153 70.3255C98.5951 70.7047 98.7972 71.1648 98.9215 71.7057C99.0521 72.2404 99.1174 72.8435 99.1174 73.515V75.772H96.7019V73.6736C96.7019 72.8653 96.6335 72.2715 96.4967 71.8923C96.3599 71.5068 96.0863 71.314 95.676 71.314C95.2221 71.314 94.9175 71.5223 94.762 71.9389C94.6128 72.3493 94.5382 72.9244 94.5382 73.6643V81.3304C94.5382 81.9024 94.5693 82.3719 94.6315 82.7387C94.6998 83.0993 94.8118 83.3667 94.9672 83.5408C95.1226 83.7086 95.3402 83.7926 95.62 83.7926C96.0428 83.7926 96.3288 83.5936 96.4781 83.1957C96.6273 82.7978 96.7019 82.1667 96.7019 81.3025V78.9522H99.1547V81.2745C99.1547 82.3128 99.0334 83.1801 98.791 83.8765C98.5485 84.5666 98.163 85.0827 97.6345 85.4247C97.1122 85.7666 96.4314 85.9376 95.5921 85.9376Z"
    fill="white" />
  <path d="M102.13 85.7511V71.5006H100.209V69.3369H106.466V71.5006H104.62V85.7511H102.13Z" fill="white" />
  <path d="M107.875 85.7511V69.3369H113.377V71.4912H110.374V76.2663H113.228V78.374H110.374V83.5967H113.489V85.7511H107.875Z" fill="white" />
  <path
    d="M115.336 85.7511V69.3369H119.02C119.853 69.3369 120.521 69.5047 121.025 69.8405C121.528 70.17 121.892 70.6488 122.116 71.2767C122.346 71.9047 122.461 72.6632 122.461 73.5523L122.47 80.9574C122.47 82.033 122.352 82.9283 122.116 83.6433C121.886 84.3521 121.513 84.8806 120.997 85.2288C120.481 85.577 119.794 85.7511 118.936 85.7511H115.336ZM117.835 83.8112H118.656C118.948 83.8112 119.191 83.7521 119.383 83.634C119.582 83.5159 119.728 83.3076 119.822 83.0092C119.921 82.7045 119.971 82.2755 119.971 81.7221L119.962 73.6176C119.962 72.7783 119.859 72.1752 119.654 71.8083C119.449 71.4415 119.088 71.2581 118.572 71.2581H117.835V83.8112Z"
    fill="white" />
  <path d="M59.3316 110.06L61.6725 93.6462H64.974L67.4641 110.06H65.1325L64.7408 107.132H62.0922L61.7378 110.06H59.3316ZM62.3346 105.127H64.4797L63.3792 96.8824H63.3419L62.3346 105.127Z"
    fill="white" />
  <path
    d="M72.3231 110.247C71.5272 110.247 70.8651 110.063 70.3366 109.697C69.8081 109.33 69.4102 108.795 69.1428 108.093C68.8817 107.384 68.7511 106.529 68.7511 105.528V98.3746C68.7511 97.6223 68.8133 96.9446 68.9376 96.3415C69.062 95.7384 69.264 95.2223 69.5438 94.7933C69.8236 94.3643 70.1967 94.0348 70.663 93.8047C71.1293 93.5747 71.7044 93.4596 72.3883 93.4596C73.0101 93.4596 73.5386 93.5622 73.9738 93.7674C74.4152 93.9664 74.7728 94.2555 75.0463 94.6348C75.3261 95.014 75.5282 95.4741 75.6525 96.015C75.7831 96.5497 75.8484 97.1528 75.8484 97.8243V100.081H73.4329V97.9829C73.4329 97.1746 73.3645 96.5808 73.2277 96.2016C73.0909 95.8161 72.8174 95.6233 72.407 95.6233C71.9531 95.6233 71.6485 95.8316 71.493 96.2482C71.3438 96.6586 71.2692 97.2337 71.2692 97.9736V105.64C71.2692 106.212 71.3003 106.681 71.3625 107.048C71.4308 107.409 71.5428 107.676 71.6982 107.85C71.8536 108.018 72.0713 108.102 72.351 108.102C72.7738 108.102 73.0598 107.903 73.2091 107.505C73.3583 107.107 73.4329 106.476 73.4329 105.612V103.262H75.8857V105.584C75.8857 106.622 75.7644 107.489 75.522 108.186C75.2795 108.876 74.894 109.392 74.3655 109.734C73.8432 110.076 73.1624 110.247 72.3231 110.247Z"
    fill="white" />
  <path
    d="M81.3695 110.247C80.5737 110.247 79.9115 110.063 79.383 109.697C78.8545 109.33 78.4566 108.795 78.1893 108.093C77.9281 107.384 77.7976 106.529 77.7976 105.528V98.3746C77.7976 97.6223 77.8597 96.9446 77.9841 96.3415C78.1084 95.7384 78.3105 95.2223 78.5903 94.7933C78.8701 94.3643 79.2431 94.0348 79.7094 93.8047C80.1758 93.5747 80.7509 93.4596 81.4348 93.4596C82.0566 93.4596 82.585 93.5622 83.0203 93.7674C83.4617 93.9664 83.8192 94.2555 84.0928 94.6348C84.3726 95.014 84.5746 95.4741 84.699 96.015C84.8296 96.5497 84.8948 97.1528 84.8948 97.8243V100.081H82.4793V97.9829C82.4793 97.1746 82.411 96.5808 82.2742 96.2016C82.1374 95.8161 81.8638 95.6233 81.4535 95.6233C80.9996 95.6233 80.6949 95.8316 80.5395 96.2482C80.3903 96.6586 80.3157 97.2337 80.3157 97.9736V105.64C80.3157 106.212 80.3467 106.681 80.4089 107.048C80.4773 107.409 80.5892 107.676 80.7447 107.85C80.9001 108.018 81.1177 108.102 81.3975 108.102C81.8203 108.102 82.1063 107.903 82.2555 107.505C82.4047 107.107 82.4793 106.476 82.4793 105.612V103.262H84.9322V105.584C84.9322 106.622 84.8109 107.489 84.5684 108.186C84.3259 108.876 83.9405 109.392 83.412 109.734C82.8897 110.076 82.2089 110.247 81.3695 110.247Z"
    fill="white" />
  <path d="M87.0492 110.06V93.6462H92.5517V95.8005H89.5486V100.576H92.4025V102.683H89.5486V107.906H92.6636V110.06H87.0492Z" fill="white" />
  <path
    d="M97.5039 110.247C96.82 110.247 96.248 110.141 95.7879 109.93C95.334 109.712 94.9734 109.398 94.7061 108.988C94.4449 108.571 94.2584 108.068 94.1465 107.477C94.0346 106.88 93.9786 106.202 93.9786 105.444V103.98H96.3475V105.63C96.3475 106.513 96.4221 107.147 96.5713 107.533C96.7205 107.918 97.0159 108.111 97.4573 108.111C97.7557 108.111 97.9796 108.043 98.1288 107.906C98.2842 107.763 98.3868 107.539 98.4366 107.235C98.4925 106.924 98.5205 106.52 98.5205 106.022C98.5205 105.407 98.3899 104.844 98.1288 104.334C97.8739 103.824 97.4853 103.296 96.963 102.749L95.7506 101.499C95.4149 101.151 95.1102 100.781 94.8366 100.389C94.5693 99.9973 94.3548 99.5621 94.1931 99.0834C94.0377 98.5984 93.96 98.0575 93.96 97.4606C93.96 96.5964 94.0657 95.8658 94.2771 95.2689C94.4884 94.6721 94.846 94.2213 95.3496 93.9166C95.8532 93.6058 96.5433 93.4503 97.42 93.4503C98.0791 93.4503 98.62 93.5529 99.0428 93.7581C99.4718 93.957 99.8044 94.2524 100.041 94.6441C100.283 95.0296 100.454 95.5021 100.554 96.0617C100.653 96.615 100.703 97.2492 100.703 97.9642V98.9808H98.3993V97.8057C98.3993 97.3083 98.3713 96.8948 98.3153 96.5653C98.2656 96.2358 98.1692 95.9902 98.0262 95.8285C97.8832 95.6606 97.6749 95.5767 97.4013 95.5767C97.1402 95.5767 96.9288 95.6358 96.7672 95.7539C96.6055 95.8658 96.4874 96.043 96.4128 96.2855C96.3444 96.5218 96.3102 96.8295 96.3102 97.2088C96.3102 97.5508 96.3537 97.8461 96.4407 98.0948C96.5278 98.3435 96.6615 98.5829 96.8418 98.8129C97.0221 99.043 97.2459 99.301 97.5133 99.587L98.8656 101.051C99.5122 101.748 100.016 102.472 100.376 103.224C100.737 103.977 100.917 104.816 100.917 105.742C100.917 106.725 100.812 107.552 100.6 108.223C100.389 108.888 100.034 109.392 99.5371 109.734C99.0397 110.076 98.362 110.247 97.5039 110.247Z"
    fill="white" />
  <path
    d="M105.674 110.247C104.99 110.247 104.418 110.141 103.958 109.93C103.504 109.712 103.143 109.398 102.876 108.988C102.615 108.571 102.428 108.068 102.316 107.477C102.204 106.88 102.148 106.202 102.148 105.444V103.98H104.517V105.63C104.517 106.513 104.592 107.147 104.741 107.533C104.89 107.918 105.186 108.111 105.627 108.111C105.926 108.111 106.149 108.043 106.299 107.906C106.454 107.763 106.557 107.539 106.606 107.235C106.662 106.924 106.69 106.52 106.69 106.022C106.69 105.407 106.56 104.844 106.299 104.334C106.044 103.824 105.655 103.296 105.133 102.749L103.92 101.499C103.585 101.151 103.28 100.781 103.006 100.389C102.739 99.9973 102.525 99.5621 102.363 99.0834C102.207 98.5984 102.13 98.0575 102.13 97.4606C102.13 96.5964 102.235 95.8658 102.447 95.2689C102.658 94.6721 103.016 94.2213 103.519 93.9166C104.023 93.6058 104.713 93.4503 105.59 93.4503C106.249 93.4503 106.79 93.5529 107.213 93.7581C107.642 93.957 107.974 94.2524 108.21 94.6441C108.453 95.0296 108.624 95.5021 108.723 96.0617C108.823 96.615 108.873 97.2492 108.873 97.9642V98.9808H106.569V97.8057C106.569 97.3083 106.541 96.8948 106.485 96.5653C106.435 96.2358 106.339 95.9902 106.196 95.8285C106.053 95.6606 105.845 95.5767 105.571 95.5767C105.31 95.5767 105.099 95.6358 104.937 95.7539C104.775 95.8658 104.657 96.043 104.583 96.2855C104.514 96.5218 104.48 96.8295 104.48 97.2088C104.48 97.5508 104.523 97.8461 104.611 98.0948C104.698 98.3435 104.831 98.5829 105.012 98.8129C105.192 99.043 105.416 99.301 105.683 99.587L107.035 101.051C107.682 101.748 108.186 102.472 108.546 103.224C108.907 103.977 109.087 104.816 109.087 105.742C109.087 106.725 108.981 107.552 108.77 108.223C108.559 108.888 108.204 109.392 107.707 109.734C107.209 110.076 106.532 110.247 105.674 110.247Z"
    fill="white" />
</svg>