<svg width="598" height="361" viewBox="0 0 598 361" fill="none" xmlns="http://www.w3.org/2000/svg">
  <path fill-rule="evenodd" clip-rule="evenodd"
    d="M292.056 106.246C291.354 106.246 290.652 106.115 289.994 105.895L279.242 102.165C277.091 101.419 275.468 99.5756 275.073 97.3375L272.922 86.1906C272.483 83.9525 273.273 81.6266 274.985 80.1345L283.586 72.7179C285.298 71.2258 287.712 70.743 289.862 71.4891L300.614 75.2193C302.764 75.9654 304.344 77.8085 304.783 80.0467L306.933 91.1935C307.328 93.4317 306.538 95.7576 304.827 97.2497L296.225 104.666C295.04 105.72 293.548 106.246 292.056 106.246ZM281.875 95.6698L291.925 99.1368L299.956 92.159L297.937 81.7582L287.887 78.2474L279.856 85.2251L281.875 95.6698Z"
    fill="#F5F5F5" />
  <path fill-rule="evenodd" clip-rule="evenodd"
    d="M417.436 73.815C416.734 73.815 416.032 73.6833 415.33 73.4639L409.888 71.5768C407.782 70.8308 406.158 68.9876 405.719 66.7495L404.666 61.0883C404.227 58.8501 405.017 56.5681 406.728 55.076L411.073 51.3019C412.785 49.8098 415.198 49.3709 417.349 50.117L422.79 52.004C424.941 52.7062 426.521 54.5933 426.96 56.7875L428.057 62.4487C428.495 64.6869 427.662 67.0128 425.95 68.461L421.606 72.2351C420.421 73.2445 418.929 73.815 417.436 73.815ZM412.565 65.0379L417.305 66.7056L421.079 63.4142L420.113 58.499L415.418 56.8753L411.6 60.1228L412.565 65.0379Z"
    fill="#F5F5F5" />
  <path fill-rule="evenodd" clip-rule="evenodd"
    d="M567.743 156.495C566.339 156.495 565.023 155.88 564.101 154.783L561.073 150.965C560.02 149.693 559.756 147.937 560.371 146.401L562.126 141.837C562.741 140.301 564.101 139.204 565.725 138.941L570.596 138.195C572.22 137.931 573.843 138.59 574.897 139.862L577.969 143.68C578.978 144.997 579.241 146.708 578.671 148.244L576.872 152.808C576.257 154.344 574.897 155.485 573.273 155.705L568.402 156.451C568.197 156.48 567.978 156.495 567.743 156.495ZM571.298 141.662C571.24 141.662 571.181 141.662 571.123 141.662L566.251 142.408C565.856 142.452 565.549 142.715 565.418 143.11L563.618 147.674C563.487 148.025 563.53 148.464 563.794 148.771L566.866 152.589C567.085 152.896 567.524 153.028 567.875 152.984L572.746 152.238C573.141 152.194 573.448 151.931 573.58 151.536L575.379 146.972C575.511 146.621 575.467 146.182 575.204 145.875L572.132 142.057C571.913 141.793 571.605 141.662 571.298 141.662Z"
    fill="#E0E0E0" />
  <path fill-rule="evenodd" clip-rule="evenodd"
    d="M20.9333 194.675C19.134 194.675 17.4224 193.841 16.2814 192.437L9.08424 183.44C7.76768 181.817 7.4166 179.535 8.20653 177.604L12.3756 166.852C13.1217 164.877 14.921 163.473 16.9836 163.121L28.3937 161.41C30.4564 161.059 32.6067 161.893 33.9233 163.56L41.1205 172.513C42.437 174.181 42.7881 176.419 41.9982 178.394L37.8291 189.145C37.083 191.12 35.2837 192.525 33.2211 192.832L21.811 194.587C21.5184 194.646 21.2258 194.675 20.9333 194.675ZM13.9555 179.71L21.021 188.487L32.1679 186.776L36.2492 176.287L29.1837 167.466L18.0368 169.178L13.9555 179.71Z"
    fill="#E0E0E0" />
  <path fill-rule="evenodd" clip-rule="evenodd"
    d="M50.0731 115.989H43.2708C41.6032 115.989 40.1111 115.111 39.2773 113.663L35.8542 107.782C35.0643 106.378 35.0643 104.622 35.8542 103.174L39.2773 97.2936C40.1111 95.8893 41.6032 95.0116 43.2708 95.0116H50.0731C51.6968 95.0116 53.2328 95.8893 54.0666 97.2936L57.4458 103.174C58.2796 104.622 58.2796 106.378 57.4458 107.782L54.0666 113.663C53.2328 115.111 51.6968 115.989 50.0731 115.989ZM43.2708 98.5224C42.8759 98.5224 42.5248 98.6979 42.3054 99.049L38.9262 104.93C38.7068 105.281 38.7068 105.72 38.9262 106.027L42.3054 111.907C42.5248 112.258 42.8759 112.478 43.2708 112.478H50.0731C50.468 112.478 50.8191 112.258 51.0385 111.907L54.4177 106.027C54.5932 105.72 54.5932 105.281 54.4177 104.93L51.0385 99.049C50.8191 98.6979 50.468 98.5224 50.0731 98.5224H43.2708Z"
    fill="#EBEBEB" />
  <path d="M158.689 61.7904L147.103 55.4271L118.797 17.3786L111.644 7.81157L109.362 4.7396L113.751 0L136.351 13.8239L152.589 41.2521L165.842 49.5903L158.689 61.7904Z" fill="#EBEBEB" />
  <path d="M136.615 75.9653L131.173 61.1321L107.036 37.4341L98.2152 12.4195L103.789 9.12811L145.392 56.6997L149.21 69.2948L136.615 75.9653Z" fill="#EBEBEB" />
  <path
    d="M171.723 51.9601C171.723 51.9601 218.724 77.7208 228.203 86.4539C237.683 95.1432 259.801 131.392 257.563 136.044C255.324 140.652 253.613 141.267 248.478 136.834C243.388 132.358 226.931 107.475 222.498 103.481C218.066 99.444 162.99 67.1444 162.99 67.1444L171.723 51.9601Z"
    fill="#E0E0E0" />
  <path
    d="M136.132 62.4926C128.189 60.43 123.405 52.3112 125.468 44.368C127.531 36.4248 135.649 31.6413 143.636 33.7039C151.58 35.7665 156.363 43.8853 154.301 51.8724C152.194 59.8156 144.075 64.5991 136.132 62.4926Z"
    fill="#EBEBEB" />
  <path
    d="M136.132 62.4926C136.132 62.4487 137.405 62.8876 139.775 62.8876C140.959 62.9314 142.364 62.712 143.987 62.2732C145.567 61.7904 147.323 60.9566 148.947 59.6839C150.57 58.3674 152.15 56.612 153.16 54.3738C154.169 52.1357 154.783 49.5026 154.476 46.7378C154.344 45.3773 153.993 43.973 153.467 42.6565C153.203 41.9543 152.852 41.3399 152.501 40.6816C152.106 40.0672 151.711 39.409 151.229 38.8823C149.385 36.5125 146.621 34.7571 143.549 33.9233C140.477 33.1334 137.229 33.3528 134.464 34.4938C133.762 34.7571 133.104 35.1082 132.446 35.4593C131.831 35.8542 131.217 36.2492 130.646 36.732C129.549 37.6097 128.54 38.6629 127.794 39.8039C126.17 42.0421 125.424 44.6752 125.205 47.0889C125.029 49.5464 125.512 51.8724 126.302 53.8033C127.092 55.7343 128.233 57.2703 129.374 58.4552C130.559 59.6401 131.744 60.5178 132.753 61.0883C134.859 62.1854 136.176 62.4487 136.132 62.4926C136.132 62.5219 136.059 62.5072 135.913 62.4487C135.708 62.4195 135.474 62.3609 135.21 62.2732C134.903 62.1854 134.552 62.0976 134.113 61.8782C133.718 61.7027 133.192 61.5271 132.709 61.2199C131.612 60.6933 130.427 59.8595 129.198 58.6746C128.013 57.4458 126.828 55.8659 125.995 53.8911C125.205 51.9601 124.678 49.5903 124.854 47.0889C125.029 44.5874 125.819 41.9104 127.443 39.5845C128.233 38.3996 129.242 37.3025 130.383 36.3809C130.954 35.8981 131.612 35.5032 132.226 35.0643C132.885 34.7132 133.587 34.3622 134.289 34.0988C137.141 32.9139 140.521 32.6945 143.68 33.4844C146.84 34.3183 149.649 36.1614 151.58 38.5751C152.106 39.1456 152.501 39.8039 152.896 40.4622C153.247 41.1205 153.642 41.7788 153.862 42.4809C154.432 43.8414 154.783 45.2896 154.871 46.6939C155.178 49.5464 154.564 52.2673 153.511 54.5055C152.457 56.8314 150.834 58.6307 149.166 59.9472C147.454 61.2638 145.699 62.0537 144.031 62.4926C142.408 62.9753 140.959 63.107 139.775 63.0631C139.16 63.0631 138.634 63.0192 138.195 62.9314C137.712 62.9314 137.361 62.8437 137.054 62.7559C136.761 62.6974 136.527 62.6389 136.351 62.5804C136.205 62.5511 136.132 62.5219 136.132 62.4926Z"
    fill="#E0E0E0" />
  <path
    d="M137.756 56.2609C133.28 55.076 130.559 50.468 131.744 45.9917C132.928 41.5154 137.493 38.7946 141.969 39.9795C146.489 41.1205 149.166 45.7284 148.025 50.2047C146.84 54.7249 142.232 57.4019 137.756 56.2609Z"
    fill="#E0E0E0" />
  <path
    d="M137.756 56.2609C137.756 56.1731 138.502 56.4364 139.818 56.4364C141.091 56.3925 143.11 56.0415 144.953 54.5932C145.875 53.8472 146.752 52.8378 147.323 51.609C147.849 50.3364 148.2 48.8882 148.025 47.3522C147.981 46.5622 147.762 45.8162 147.454 45.0701C147.147 44.3241 146.752 43.578 146.226 42.9637C145.172 41.6471 143.636 40.6377 141.925 40.1989C140.213 39.76 138.414 39.8917 136.834 40.5061C136.088 40.8133 135.342 41.2521 134.728 41.7349C134.113 42.2615 133.543 42.832 133.148 43.4903C132.226 44.7191 131.787 46.1673 131.7 47.5277C131.568 48.932 131.831 50.2047 132.27 51.3018C133.192 53.4961 134.772 54.7688 135.869 55.3832C137.054 56.0415 137.8 56.1731 137.756 56.2609C137.756 56.2609 137.01 56.1731 135.781 55.5587C134.596 54.9443 132.972 53.6717 131.963 51.4335C131.524 50.2925 131.217 48.9759 131.305 47.5277C131.392 46.0795 131.831 44.5435 132.797 43.227C133.236 42.5687 133.806 41.9543 134.464 41.4277C135.123 40.8572 135.869 40.4183 136.703 40.1111C138.326 39.4089 140.213 39.2773 142.057 39.76C143.856 40.2428 145.48 41.296 146.577 42.6565C147.103 43.3586 147.542 44.1047 147.849 44.8946C148.2 45.6845 148.376 46.4745 148.464 47.3083C148.595 48.932 148.244 50.468 147.63 51.7846C147.016 53.0573 146.138 54.1105 145.172 54.8565C143.198 56.3486 141.135 56.6558 139.818 56.612C138.458 56.5242 137.756 56.2609 137.756 56.2609Z"
    fill="#E0E0E0" />
  <path
    d="M156.495 59.6839L162.551 49.1076C164.35 45.9917 168.3 44.9385 171.416 46.6939L171.986 47.045C175.102 48.8004 176.155 52.7939 174.356 55.8659L168.3 66.4861C166.501 69.5581 162.551 70.6552 159.435 68.8559L158.865 68.5487C155.793 66.7494 154.695 62.7998 156.495 59.6839Z"
    fill="#EBEBEB" />
  <path
    d="M156.495 59.6839C156.539 59.6839 155.968 60.4739 155.749 62.1415C155.661 62.9753 155.749 64.0286 156.144 65.1257C156.363 65.6523 156.67 66.2228 157.065 66.7495C157.46 67.2761 157.987 67.7588 158.601 68.1538C159.216 68.5488 159.918 68.9437 160.664 69.207C161.41 69.4704 162.244 69.5581 163.078 69.5142C164.789 69.3826 166.588 68.5049 167.729 66.925C169.748 63.5897 171.899 59.7278 174.181 55.7782C175.278 53.8472 175.278 51.3896 174.224 49.5903C173.698 48.6687 172.952 47.9227 172.118 47.3961C171.24 46.8256 170.363 46.3428 169.441 46.1673C167.51 45.8162 165.623 46.3428 164.262 47.3961C162.902 48.4493 162.288 50.0731 161.498 51.3457C159.962 53.8911 158.733 55.9537 157.855 57.4458C157.446 58.148 157.109 58.7038 156.846 59.1134C156.612 59.4938 156.495 59.6839 156.495 59.6839C156.466 59.6839 156.568 59.4791 156.802 59.0695C157.036 58.66 157.343 58.0894 157.724 57.358C158.557 55.8659 159.742 53.7594 161.191 51.1702C161.571 50.5266 161.966 49.839 162.375 49.1076C162.77 48.4054 163.341 47.7033 164.043 47.1328C165.447 45.9479 167.466 45.3774 169.485 45.7723C170.538 45.9479 171.46 46.4745 172.337 47.0011C173.259 47.5716 174.049 48.4054 174.576 49.3709C175.717 51.3019 175.76 53.935 174.576 55.9976C172.25 59.9911 170.143 63.7653 168.081 67.1883C166.852 68.856 164.921 69.7775 163.121 69.9092C162.2 69.9531 161.322 69.8214 160.532 69.5142C159.742 69.2509 159.04 68.8121 158.426 68.4171C157.767 67.9783 157.241 67.4516 156.846 66.925C156.407 66.3545 156.144 65.784 155.924 65.2135C155.529 64.0286 155.485 62.9753 155.573 62.1415C155.705 61.2638 155.968 60.6494 156.144 60.2544C156.349 59.8741 156.466 59.6839 156.495 59.6839Z"
    fill="#E0E0E0" />
  <path
    d="M154.739 77.3258C154.739 77.3258 177.691 136.878 180.939 141.925C184.186 146.928 206.041 167.247 209.596 172.996C213.151 178.745 212.317 180.368 207.358 181.817C202.443 183.265 170.275 155.573 163.209 144.777C156.144 134.026 138.326 83.4697 138.326 83.4697L154.739 77.3258Z"
    fill="#E0E0E0" />
  <path
    d="M156.802 73.4639L157.021 74.0783C158.294 77.4136 156.583 81.1877 153.247 82.4165L141.793 86.7172C138.458 87.946 134.728 86.2784 133.455 82.8992L133.236 82.2848C131.963 78.9495 133.674 75.2193 137.01 73.9466L148.464 69.6898C151.799 68.4171 155.529 70.1286 156.802 73.4639Z"
    fill="#EBEBEB" />
  <path
    d="M148.464 69.6898C148.464 69.6605 148.669 69.5727 149.078 69.4265C149.517 69.2948 150.175 69.1631 151.009 69.1631C151.887 69.207 152.94 69.4265 153.993 69.997C154.52 70.3042 155.047 70.6991 155.529 71.1819C156.012 71.7085 156.451 72.279 156.758 72.9812C157.065 73.6833 157.373 74.4294 157.504 75.2632C157.68 76.097 157.636 76.9747 157.46 77.8963C157.065 79.6517 155.837 81.3632 153.993 82.3287C150.263 83.8208 146.182 85.269 141.881 86.9367C139.643 87.7705 137.054 87.2878 135.342 85.8834C134.464 85.1813 133.806 84.2597 133.367 83.2503C132.972 82.3287 132.621 81.2755 132.621 80.2661C132.533 78.2035 133.455 76.2726 134.815 75.0877C135.518 74.4733 136.308 74.0344 137.098 73.7272C137.858 73.4639 138.59 73.2006 139.292 72.9373C142.1 71.9279 144.339 71.0941 145.962 70.5236C146.723 70.231 147.337 70.0116 147.806 69.8653C148.244 69.719 148.464 69.6605 148.464 69.6898C148.464 69.6898 148.259 69.7775 147.849 69.9531C147.381 70.1286 146.782 70.3627 146.05 70.6552C144.426 71.3135 142.188 72.1473 139.423 73.2445C138.019 73.815 136.351 74.1661 135.079 75.351C133.806 76.492 132.972 78.2913 133.016 80.2222C133.06 81.1877 133.367 82.1532 133.762 83.0748C134.157 83.9964 134.815 84.8741 135.605 85.5323C137.229 86.8489 139.643 87.2878 141.705 86.4978C146.006 84.8741 150.131 83.382 153.818 81.9338C155.529 81.0561 156.714 79.4762 157.065 77.8085C157.285 76.9747 157.285 76.097 157.197 75.3071C157.065 74.561 156.758 73.815 156.451 73.1128C156.188 72.4545 155.793 71.884 155.31 71.4013C154.871 70.9186 154.388 70.5236 153.862 70.2164C152.852 69.6459 151.843 69.3826 151.009 69.3387C149.341 69.2948 148.464 69.7337 148.464 69.6898Z"
    fill="#E0E0E0" />
  <path d="M597.629 360.737C597.629 360.868 463.823 361 298.815 361C133.762 361 0 360.868 0 360.737C0 360.649 133.762 360.517 298.815 360.517C463.823 360.517 597.629 360.649 597.629 360.737Z"
    fill="#263238" />
  <path d="M46.65 260.327C46.9133 259.625 74.2538 170.187 74.2538 170.187L73.5517 159.084L80.705 147.323L89.6137 150.263L88.3849 163.473L82.0654 173.083L54.5494 262.873L46.65 260.327Z"
    fill="#E0E0E0" />
  <path
    d="M46.65 260.327C46.65 260.327 46.8255 260.386 47.1766 260.503C47.5277 260.62 48.0397 260.781 48.7126 260.986C50.0292 261.38 52.004 261.995 54.5494 262.785L54.4616 262.873C58.894 248.259 69.207 214.555 81.846 172.996L81.8899 172.952C83.9086 169.88 86.0151 166.632 88.2093 163.341L88.1655 163.429C88.5604 159.216 88.9554 154.783 89.3942 150.219L89.5259 150.482C89.2918 150.395 89.0432 150.307 88.7798 150.219C86.059 149.312 83.3527 148.42 80.6611 147.542L80.9244 147.454C78.4668 151.448 76.097 155.398 73.7711 159.216L73.815 159.084C74.0198 162.887 74.2392 166.588 74.4733 170.187V170.231V170.275C66.4861 196.255 59.5523 218.724 54.6371 234.742C52.1357 242.773 50.1608 249.136 48.8004 253.525C48.1421 255.719 47.5716 257.431 47.2205 258.572C47.045 259.157 46.9133 259.596 46.8255 259.888C46.7085 260.181 46.65 260.327 46.65 260.327C46.65 260.327 46.6939 260.196 46.7817 259.932C46.8694 259.61 47.0011 259.172 47.1766 258.616C47.5277 257.475 48.0105 255.763 48.6687 253.613C49.9853 249.224 51.9162 242.817 54.3299 234.83C59.2451 218.768 66.0912 196.211 74.0344 170.143V170.231C73.8003 166.603 73.5663 162.902 73.3322 159.128V159.04L73.3761 158.996C75.702 155.134 78.1157 151.229 80.5294 147.191L80.6172 147.059L80.7927 147.103C83.4844 148.01 86.2052 148.903 88.9554 149.78C89.1894 149.868 89.4235 149.956 89.6575 150.044L89.8331 150.088V150.263C89.4381 154.783 88.9993 159.26 88.6043 163.473V163.56L88.5604 163.604C86.41 166.896 84.2597 170.143 82.2848 173.171V173.127C69.5142 214.643 59.1134 248.347 54.5932 262.916V263.004L54.5055 262.96C51.9601 262.127 49.9853 261.468 48.6248 261.029C47.9812 260.795 47.4985 260.62 47.1766 260.503C46.8255 260.386 46.65 260.327 46.65 260.327Z"
    fill="#263238" />
  <path
    d="M39.4089 257.782C39.2773 256.553 40.4622 255.588 41.6471 255.983L61.3955 262.478C62.5804 262.873 62.9753 264.365 62.1415 265.286L58.0163 269.938L58.2796 291.047L41.5593 351.916C41.5593 351.916 37.9168 363.984 22.162 359.903C8.11876 356.304 10.6202 343.621 10.6202 343.621L27.7794 281.304L40.0672 264.672L39.4089 257.782Z"
    fill="#12B0EE" />
  <path
    d="M58.1479 270.684C58.1041 270.772 53.9788 269.587 48.932 267.963C43.8852 266.383 39.8039 264.979 39.8478 264.847C39.8917 264.716 44.0169 265.945 49.0637 267.524C54.1105 269.148 58.1918 270.553 58.1479 270.684Z"
    fill="#263238" />
  <path
    d="M58.2796 291.047C58.2796 291.091 57.8407 291.003 57.0508 290.827C56.2609 290.652 55.1199 290.389 53.7155 290.038C50.9508 289.335 47.1327 288.282 42.9636 286.966C38.7507 285.605 35.0204 284.289 32.3434 283.235C31.0268 282.709 29.9297 282.27 29.1837 281.963C28.4815 281.612 28.0427 281.436 28.0865 281.392C28.0865 281.392 28.5254 281.524 29.2714 281.787C30.1199 282.08 31.1878 282.46 32.4751 282.928C35.1521 283.894 38.9262 285.21 43.0953 286.527C47.2644 287.843 51.0385 288.94 53.8033 289.73C55.1199 290.111 56.217 290.418 57.0947 290.652C57.8407 290.871 58.2796 291.003 58.2796 291.047Z"
    fill="#263238" />
  <g opacity="0.3">
    <path
      d="M16.7641 345.377L16.3692 345.245C14.8332 344.806 13.9555 343.183 14.3943 341.647L29.8419 289.555C30.2808 288.019 31.9046 287.141 33.4405 287.624L33.8355 287.712C35.3715 288.194 36.2492 289.774 35.8103 291.31L20.4066 343.402C19.9239 344.938 18.3001 345.816 16.7641 345.377Z"
      fill="black" />
  </g>
  <g opacity="0.3">
    <path
      d="M25.5412 348.273L25.1023 348.142C23.5664 347.659 22.6886 346.079 23.1714 344.543L38.5751 292.451C39.014 290.915 40.6377 290.038 42.1737 290.476L42.6126 290.608C44.1485 291.047 45.0262 292.671 44.5435 294.207L29.1398 346.298C28.7009 347.834 27.0772 348.712 25.5412 348.273Z"
      fill="black" />
  </g>
  <g opacity="0.3">
    <path
      d="M34.8449 350.994L34.4061 350.862C32.8701 350.424 31.9924 348.8 32.4751 347.264L47.8788 295.216C48.3177 293.68 49.9414 292.802 51.4774 293.241L51.9163 293.373C53.4522 293.812 54.3299 295.435 53.8472 296.971L38.4435 349.063C37.9608 350.599 36.3809 351.477 34.8449 350.994Z"
      fill="black" />
  </g>
  <path
    d="M81.9776 173.039C81.9337 173.171 80.1783 172.645 78.0719 171.942C75.9654 171.196 74.2977 170.494 74.3416 170.362C74.3855 170.275 76.097 170.757 78.2474 171.504C80.3539 172.206 82.0215 172.908 81.9776 173.039Z"
    fill="#263238" />
  <path
    d="M89.6137 150.263C89.6137 150.263 89.5259 150.702 89.3065 151.492C89.0432 152.34 88.7067 153.452 88.2971 154.827C87.3755 157.767 86.1467 161.717 84.7863 166.237L84.6985 166.457L84.4791 166.369C83.1625 165.901 81.8167 165.433 80.4417 164.965C79.0081 164.467 77.6184 163.984 76.2726 163.516L76.0531 163.429L76.1409 163.209C77.4136 158.733 78.5107 154.739 79.3445 151.843C79.7541 150.468 80.0759 149.356 80.31 148.508C80.5733 147.718 80.705 147.323 80.705 147.323C80.7489 147.323 80.6611 147.762 80.4855 148.552C80.2515 149.4 79.9589 150.526 79.6078 151.931C78.8179 154.827 77.7647 158.821 76.5798 163.341L76.4042 163.078C77.75 163.546 79.1397 164.028 80.5733 164.526C81.9776 165.023 83.3235 165.491 84.6108 165.93L84.3474 166.106C85.7957 161.585 87.0683 157.68 88.0338 154.739C88.5019 153.394 88.8676 152.296 89.1309 151.448C89.4381 150.658 89.5698 150.263 89.6137 150.263Z"
    fill="#263238" />
  <path fill-rule="evenodd" clip-rule="evenodd"
    d="M348.493 60.9566C347.791 60.9566 347.088 60.8688 346.43 60.6055L335.678 56.9192C333.528 56.1731 331.904 54.3299 331.509 52.0918L329.359 40.9011C328.92 38.6629 329.71 36.3809 331.421 34.8888L340.023 27.4283C341.734 25.9801 344.148 25.4973 346.298 26.2434L357.05 29.9736C359.201 30.7197 360.781 32.5628 361.219 34.801L363.37 45.9479C363.765 48.186 362.975 50.5119 361.263 51.9601L352.662 59.4206C351.477 60.43 349.985 60.9566 348.493 60.9566ZM338.311 50.3803L348.361 53.8472L356.392 46.9133L354.373 36.4686L344.324 33.0017L336.293 39.9356L338.311 50.3803Z"
    fill="#E0E0E0" />
  <path
    d="M338.311 50.3802C338.311 50.3802 338.253 50.1462 338.136 49.6781C338.019 49.1807 337.872 48.4932 337.697 47.6155C337.302 45.7723 336.775 43.1831 336.161 39.9794C336.117 39.9355 336.161 39.8478 336.205 39.8039C338.487 37.8291 341.208 35.4593 344.192 32.8261C344.28 32.7823 344.324 32.7823 344.411 32.7823C347.527 33.8794 350.906 35.0204 354.461 36.2492C354.329 36.1175 354.637 36.4686 354.593 36.4247V36.4686H354.637V36.5125V36.6003L354.681 36.7758L354.724 37.1269L354.856 37.7852C354.944 38.2533 355.032 38.7068 355.119 39.1456C355.295 40.0526 355.47 40.9449 355.646 41.8226C355.968 43.5488 356.29 45.231 356.611 46.8694C356.611 46.9572 356.568 47.045 356.524 47.0888C353.496 49.6781 350.775 52.004 348.449 53.9788C348.405 54.0227 348.361 54.0666 348.317 54.0227C345.245 52.9256 342.744 52.0479 340.944 51.3896C340.125 51.097 339.467 50.8483 338.97 50.6435C338.531 50.4973 338.311 50.4095 338.311 50.3802C338.341 50.3802 338.589 50.4534 339.057 50.5997C339.555 50.7752 340.228 50.9946 341.076 51.2579C342.875 51.8284 345.333 52.7062 348.405 53.7155L348.229 53.7594C350.555 51.7407 353.232 49.3709 356.26 46.7378L356.173 46.9572C355.851 45.3188 355.529 43.6365 355.207 41.9104C355.032 41.0327 354.856 40.1403 354.681 39.2334C354.593 38.7945 354.505 38.3411 354.417 37.8729L354.286 37.2147L354.242 36.8636L354.198 36.688L354.154 36.6003V36.5564V36.5125C354.11 36.4686 354.461 36.8636 354.286 36.688C350.775 35.4593 347.396 34.2744 344.28 33.2211L344.499 33.1772C341.471 35.7665 338.706 38.0924 336.424 40.0672L336.468 39.9355C337.039 43.0953 337.521 45.6845 337.872 47.5277C338.019 48.4054 338.136 49.1076 338.224 49.6342C338.282 50.1316 338.311 50.3802 338.311 50.3802Z"
    fill="#263238" />
  <path
    d="M348.493 60.9566C348.493 60.9566 348.888 60.9566 349.59 60.8249C350.292 60.6932 351.301 60.3861 352.398 59.5522C354.461 57.709 357.445 55.1198 361.132 51.9162C362.009 51.1263 362.755 50.0291 363.063 48.8003C363.238 48.1421 363.326 47.4838 363.282 46.8255C363.238 46.1233 363.063 45.4651 362.931 44.7629C362.36 41.9104 361.79 38.8823 361.176 35.7225C361 34.9326 360.912 34.1427 360.517 33.3966C360.21 32.6945 359.727 31.9923 359.113 31.4657C358.499 30.8952 357.796 30.4563 357.006 30.193C356.187 29.9004 355.353 29.6079 354.505 29.3153C352.837 28.7594 351.155 28.1743 349.458 27.5599C348.58 27.2673 347.703 26.9747 346.825 26.6822C345.991 26.3311 345.114 26.1117 344.192 26.1117C343.314 26.1117 342.393 26.3311 341.603 26.6822C340.769 27.0771 340.111 27.6477 339.452 28.262C338.077 29.4616 336.717 30.6319 335.371 31.7729C334.025 32.9139 332.723 34.0403 331.465 35.152C330.236 36.2492 329.534 37.829 329.446 39.4089C329.403 40.1988 329.578 40.9449 329.71 41.7348C329.856 42.4955 330.002 43.2562 330.149 44.0168C330.441 45.5382 330.719 47.001 330.982 48.4054C331.246 49.8097 331.509 51.214 331.772 52.4867C332.123 53.7594 332.826 54.8565 333.747 55.6026C334.186 55.9829 334.669 56.3047 335.195 56.568C335.722 56.7875 336.249 56.963 336.775 57.1385C337.829 57.4896 338.809 57.8407 339.716 58.1918C341.559 58.8062 343.139 59.3767 344.411 59.8594C345.728 60.2983 346.693 60.7371 347.396 60.8249C348.098 60.9566 348.493 60.9566 348.493 60.9566C348.493 60.9566 348.098 61.0443 347.396 60.9127C346.649 60.8249 345.684 60.4299 344.367 59.9911C343.051 59.5522 341.471 59.0256 339.628 58.4112C338.721 58.0894 337.741 57.7529 336.688 57.4018C336.161 57.2263 335.634 57.0508 335.064 56.8313C334.508 56.5973 333.996 56.2755 333.528 55.8659C332.562 55.032 331.772 53.891 331.421 52.5745C331.114 51.2579 330.895 49.8975 330.587 48.4931C330.324 47.0596 330.046 45.5967 329.754 44.1046C329.607 43.3439 329.461 42.5833 329.315 41.8226C329.139 41.0327 328.964 40.2427 329.008 39.365C329.095 37.6974 329.841 36.0297 331.158 34.8448C332.445 33.7331 333.747 32.5921 335.064 31.4218C336.41 30.2808 337.77 29.1105 339.145 27.911C339.496 27.6038 339.803 27.2966 340.198 27.0333C340.579 26.7407 340.988 26.492 341.427 26.2872C342.261 25.8922 343.226 25.6728 344.192 25.6728C345.157 25.6289 346.167 25.9361 347.001 26.2433C347.878 26.5359 348.741 26.8431 349.59 27.1649C351.316 27.7501 353.013 28.3352 354.681 28.9203C355.5 29.2129 356.319 29.4908 357.138 29.7541C357.972 30.0613 358.762 30.5441 359.42 31.1146C360.035 31.729 360.561 32.4311 360.912 33.2211C361.307 34.011 361.439 34.8448 361.57 35.6348C362.185 38.8384 362.755 41.8226 363.282 44.6751C363.414 45.3773 363.589 46.0795 363.633 46.7816C363.677 47.4838 363.589 48.2298 363.414 48.8881C363.063 50.2047 362.273 51.3457 361.307 52.1356C357.621 55.2954 354.593 57.8846 352.486 59.6839C351.389 60.5177 350.292 60.8249 349.59 60.9127C348.888 61.0443 348.493 60.9566 348.493 60.9566Z"
    fill="#263238" />
  <path fill-rule="evenodd" clip-rule="evenodd"
    d="M273.668 42.7003C272.308 42.7003 270.947 42.0859 270.07 40.9887L266.998 37.1707C265.988 35.8542 265.725 34.0988 266.296 32.5628L268.095 27.9987C268.665 26.5066 270.07 25.3656 271.694 25.1462L276.521 24.4001C278.145 24.1368 279.812 24.7951 280.822 26.0678L283.894 29.8858C284.947 31.1585 285.21 32.9139 284.596 34.4498L282.84 39.0139C282.226 40.5499 280.866 41.647 279.242 41.9103L274.371 42.6564C274.136 42.6856 273.902 42.7003 273.668 42.7003ZM277.223 27.8232C277.165 27.8232 277.106 27.8378 277.048 27.8671L272.22 28.6131C271.825 28.657 271.518 28.9203 271.342 29.2714L269.587 33.8793C269.455 34.2304 269.499 34.6254 269.763 34.9765L272.791 38.7945C273.054 39.1017 273.449 39.2333 273.844 39.1895L278.671 38.4434C279.066 38.3995 279.417 38.0923 279.549 37.7412L281.348 33.1772C281.48 32.8261 281.392 32.3872 281.173 32.08L278.101 28.262C277.881 27.9987 277.574 27.8232 277.223 27.8232Z"
    fill="#E0E0E0" />
  <path
    d="M277.223 27.8232C277.223 27.8232 277.355 27.7793 277.618 27.8671C277.75 27.911 277.881 27.9548 278.013 28.0865C278.189 28.2182 278.276 28.3498 278.452 28.5254C279.066 29.3153 279.9 30.3247 280.953 31.5534C281.07 31.6997 281.202 31.8606 281.348 32.0362C281.48 32.2556 281.568 32.475 281.568 32.7383C281.612 33.0017 281.48 33.265 281.392 33.4844C281.334 33.6892 281.261 33.9086 281.173 34.1427C280.822 35.0496 280.456 36.0151 280.076 37.0391C279.959 37.2732 279.856 37.5218 279.768 37.7851C279.637 38.0923 279.417 38.3995 279.11 38.5312C278.759 38.7067 278.496 38.6628 278.189 38.7506C277.925 38.7799 277.647 38.8238 277.355 38.8823C276.17 39.0578 274.985 39.2334 273.668 39.4089C273.317 39.4089 272.922 39.2772 272.659 38.97C272.483 38.736 272.293 38.4873 272.088 38.224C271.708 37.7559 271.328 37.2878 270.947 36.8197C270.596 36.3808 270.245 35.9273 269.894 35.4592L269.631 35.152C269.543 35.0204 269.411 34.8887 269.368 34.7132C269.236 34.406 269.28 34.0549 269.411 33.7477C269.792 32.753 270.172 31.8021 270.552 30.8952C270.728 30.4563 270.889 30.0175 271.035 29.5786C271.123 29.4031 271.211 29.1836 271.342 28.9642C271.474 28.7448 271.694 28.6131 271.913 28.5254C273.581 28.2182 274.897 28.0865 275.819 27.9549C276.696 27.8671 277.223 27.7793 277.223 27.8232C277.223 27.8671 277.091 27.8671 276.872 27.911C276.579 27.9695 276.228 28.0426 275.819 28.1304C274.941 28.3059 273.581 28.5254 272.045 28.8326C271.869 28.8764 271.737 29.0081 271.606 29.1398C271.518 29.2714 271.474 29.4908 271.386 29.7103C271.211 30.1491 271.05 30.588 270.904 31.0268C270.552 31.9338 270.172 32.8993 269.763 33.9232C269.719 34.1427 269.675 34.3621 269.763 34.5815C269.85 34.7571 270.026 34.9765 270.201 35.1959C270.582 35.6348 270.947 36.0882 271.299 36.5564C271.679 37.0245 272.059 37.4926 272.44 37.9607C272.644 38.1947 272.835 38.4288 273.01 38.6628C273.186 38.8384 273.449 38.97 273.668 38.97C274.897 38.7945 276.097 38.619 277.267 38.4434C277.56 38.3849 277.852 38.341 278.145 38.3118C278.408 38.224 278.715 38.224 278.935 38.1362C279.11 38.0485 279.286 37.8729 279.373 37.6535C279.461 37.3902 279.564 37.1269 279.681 36.8636C280.061 35.8688 280.441 34.918 280.822 34.011C280.909 33.777 280.997 33.5575 281.085 33.3527C281.173 33.1333 281.217 32.9578 281.217 32.7383C281.217 32.5628 281.173 32.3873 281.085 32.2117C280.939 32.0654 280.807 31.9045 280.69 31.729C279.725 30.5002 278.935 29.4469 278.32 28.657C277.837 27.8232 277.223 27.8671 277.223 27.8232Z"
    fill="#263238" />
  <path
    d="M273.668 42.7003C273.668 42.7003 273.873 42.6711 274.283 42.6126C274.692 42.5248 275.248 42.4224 275.95 42.3054C276.682 42.1883 277.56 42.0421 278.584 41.8665C279.11 41.7787 279.681 41.7348 280.207 41.4715C280.734 41.2521 281.261 40.9449 281.699 40.4622C282.138 40.0233 282.489 39.4528 282.753 38.7507C282.987 38.0777 283.25 37.3902 283.543 36.6881C284.025 35.196 284.991 33.7039 284.64 32.0362C284.508 31.2024 284.113 30.4125 283.499 29.7542C282.943 29.0228 282.358 28.2913 281.743 27.5599C281.451 27.1796 281.158 26.8139 280.866 26.4628C280.558 26.0678 280.251 25.7167 279.856 25.4534C279.11 24.8829 278.189 24.5757 277.223 24.5757C276.74 24.5757 276.258 24.6635 275.775 24.7513C275.277 24.8098 274.795 24.8829 274.327 24.9707C273.361 25.117 272.41 25.2633 271.474 25.4095C270.553 25.5851 269.763 26.0678 269.192 26.6822C268.87 27.004 268.622 27.3551 268.446 27.7355C268.271 28.1304 268.095 28.5693 267.963 28.9642C267.641 29.7834 267.32 30.5734 266.998 31.3341C266.734 32.124 266.34 32.8261 266.252 33.5722C265.988 35.0643 266.559 36.4686 267.437 37.4341C268.256 38.4581 268.987 39.3943 269.631 40.2428C269.982 40.6377 270.245 41.0327 270.553 41.3399C270.874 41.6617 271.196 41.9104 271.518 42.0859C272.835 42.7442 273.712 42.6564 273.668 42.7003C273.668 42.7003 273.624 42.715 273.537 42.7442C273.42 42.7442 273.273 42.7296 273.098 42.7003C272.703 42.6564 272.089 42.5687 271.43 42.2176C271.123 42.0421 270.772 41.8226 270.421 41.5154C270.07 41.2082 269.763 40.7694 269.455 40.3744C268.782 39.5552 268.022 38.6336 267.173 37.6096C266.296 36.6881 265.593 35.1521 265.857 33.5283C265.988 32.6945 266.34 31.9484 266.647 31.2024C266.939 30.4125 267.247 29.6225 267.568 28.8326C267.7 28.3937 267.832 27.9988 268.051 27.5599C268.256 27.1503 268.519 26.77 268.841 26.4189C269.499 25.7167 270.377 25.1901 271.342 24.9707C272.308 24.7952 273.273 24.6635 274.239 24.488C274.736 24.4294 275.219 24.3563 275.687 24.2685C276.17 24.2246 276.696 24.093 277.223 24.093C278.276 24.093 279.33 24.4441 280.163 25.1023C280.558 25.3657 280.909 25.8045 281.217 26.1556C281.509 26.5359 281.802 26.9163 282.094 27.2966C282.709 28.028 283.294 28.7595 283.85 29.4909C284.464 30.1492 284.903 31.0707 285.035 31.9484C285.21 32.87 285.079 33.7916 284.771 34.5816C284.479 35.3422 284.186 36.0883 283.894 36.8197C283.601 37.5219 283.323 38.2094 283.06 38.8823C282.797 39.5845 282.402 40.1989 281.919 40.6816C280.953 41.691 279.681 42.042 278.627 42.1298C277.603 42.2761 276.711 42.3931 275.95 42.4809C275.248 42.6126 274.678 42.6564 274.283 42.7003C273.873 42.7296 273.668 42.7296 273.668 42.7003Z"
    fill="#263238" />
  <path
    d="M359.201 31.2462C359.288 31.334 358.323 32.6506 356.919 34.1427C355.558 35.6348 354.242 36.6441 354.154 36.5564C354.066 36.4686 355.251 35.3276 356.611 33.8355C357.972 32.3434 359.069 31.1585 359.201 31.2462Z"
    fill="#263238" />
  <path
    d="M342.744 26.1995C342.832 26.1556 343.446 27.6038 343.885 29.5347C344.367 31.4218 344.499 33.0017 344.367 33.0017C344.236 33.0456 343.929 31.5096 343.446 29.6225C343.007 27.7354 342.612 26.2433 342.744 26.1995Z"
    fill="#263238" />
  <path
    d="M336.205 39.76C336.117 39.8916 334.669 39.365 332.826 38.7945C330.982 38.224 329.446 37.829 329.49 37.6974C329.49 37.5657 331.07 37.7851 332.957 38.3556C334.801 38.97 336.249 39.6722 336.205 39.76Z"
    fill="#263238" />
  <path
    d="M334.318 54.9882C334.23 54.9443 335.02 53.8033 336.117 52.4867C337.214 51.2141 338.136 50.2047 338.267 50.2925C338.355 50.3802 337.565 51.4774 336.468 52.7939C335.371 54.1105 334.406 55.076 334.318 54.9882Z"
    fill="#263238" />
  <path
    d="M349.107 59.8155C348.975 59.8155 348.712 58.5428 348.493 56.963C348.273 55.3831 348.185 54.1104 348.317 54.0666C348.449 54.0666 348.712 55.3392 348.932 56.9191C349.151 58.499 349.239 59.7716 349.107 59.8155Z"
    fill="#263238" />
  <path
    d="M361.57 48.5809C361.527 48.6687 360.386 48.3615 358.981 47.791C357.621 47.2644 356.524 46.7378 356.568 46.65C356.611 46.5183 357.796 46.8694 359.157 47.396C360.561 47.9227 361.614 48.4493 361.57 48.5809Z"
    fill="#263238" />
  <path
    d="M540.798 88.341C543.607 79.1251 548.566 70.3041 556.114 64.3796C556.904 63.7652 557.606 55.1198 558.571 55.3832C559.932 55.7781 560.502 65.5645 560.502 67.0127C560.283 76.3164 556.992 85.3129 552.34 93.3878C547.732 101.463 541.763 108.704 535.839 115.857C536.629 106.29 537.945 97.513 540.798 88.341Z"
    fill="#263238" />
  <path
    d="M458.425 170.319C460.795 164.175 472.468 133.455 472.425 133.455C472.425 133.455 452.281 123.01 459.215 101.682C462.55 91.3691 471.152 70.743 479.139 52.1795C487.697 32.1679 510.21 22.162 530.792 29.1398L532.855 29.7981C554.49 38.5751 559.142 61.8343 549.838 83.2064L506.831 182.826L469.177 171.196L458.425 170.319Z"
    fill="#FFBF9D" />
  <path d="M472.425 133.455C472.425 133.455 485.502 138.765 502.793 134.596C502.793 134.596 490.856 148.113 470.318 139.072L472.425 133.455Z" fill="#FF9A6C" />
  <path
    d="M483.176 70.9625C484.8 71.6207 485.634 73.4639 485.064 75.0438C484.449 76.6236 482.65 77.3697 481.026 76.7114C479.359 76.0531 478.525 74.2538 479.139 72.674C479.71 71.0941 481.509 70.3042 483.176 70.9625Z"
    fill="#263238" />
  <path
    d="M482.387 61.2199C483.659 60.7811 485.59 60.6494 487.653 61.3077C489.672 61.966 491.164 63.3264 491.954 64.4235C492.743 65.5207 492.875 66.3545 492.656 66.4861C492.173 66.7494 490.33 64.2919 487.038 63.1947C483.791 62.0976 480.938 63.0192 480.675 62.4926C480.543 62.2732 481.158 61.6588 482.387 61.2199Z"
    fill="#263238" />
  <path
    d="M511.79 82.4604C513.413 83.1186 514.247 84.9618 513.677 86.5417C513.062 88.1216 511.263 88.8676 509.595 88.2093C507.972 87.551 507.138 85.7518 507.708 84.1719C508.323 82.592 510.122 81.846 511.79 82.4604Z"
    fill="#263238" />
  <path
    d="M513.896 73.3322C515.125 72.8934 517.1 72.7178 519.119 73.42C521.181 74.0783 522.673 75.3948 523.463 76.5358C524.253 77.633 524.385 78.4668 524.121 78.5985C523.639 78.8618 521.839 76.3603 518.548 75.3071C515.301 74.2099 512.404 75.1315 512.185 74.6049C512.053 74.3855 512.623 73.7711 513.896 73.3322Z"
    fill="#263238" />
  <path
    d="M486.643 93.9144C486.248 93.7389 485.81 93.5633 485.327 93.2123C484.844 92.9051 484.361 92.2468 484.361 91.5446C484.361 90.1403 485.239 89.2626 485.897 88.4288C487.331 86.6441 488.838 84.7863 490.418 82.8553C496.869 74.956 502.354 68.8121 502.705 69.0315C503.013 69.2948 498.01 75.8776 491.559 83.7769C489.95 85.7079 488.414 87.5364 486.951 89.2626C486.205 90.0964 485.59 90.8863 485.546 91.5446C485.502 92.159 486.249 92.5979 487.038 92.9928C490.198 94.4849 492.085 95.5382 492.041 95.7137C491.954 95.8893 489.891 95.1871 486.643 93.9144Z"
    fill="#263238" />
  <path
    d="M500.555 103.701C499.941 105.149 498.492 106.904 496.123 107.826C493.709 108.748 491.295 108.484 489.715 107.914C488.179 107.299 487.433 106.553 487.565 106.334C487.741 105.851 491.383 107.519 495.245 106.027C499.151 104.535 500.336 101.024 500.862 101.199C501.126 101.287 501.213 102.296 500.555 103.701Z"
    fill="#263238" />
  <path
    d="M519.382 60.43C520.962 60.3422 523.2 60.6494 525.394 61.7026C527.588 62.712 529.3 64.2041 530.265 65.4768C531.187 66.7494 531.45 67.7588 531.099 68.066C530.353 68.7243 527.632 66.53 523.902 64.8624C520.26 63.1069 516.837 62.4487 516.837 61.4393C516.837 60.9566 517.758 60.5177 519.382 60.43Z"
    fill="#263238" />
  <path
    d="M487.346 50.5558C488.531 50.1169 490.374 50.0292 492.261 50.5558C494.148 51.1263 495.596 52.2673 496.342 53.3206C497.088 54.3299 497.22 55.2076 496.825 55.5148C496.079 56.0853 493.972 54.681 491.251 53.935C488.531 53.0572 486.029 53.0572 485.678 52.1357C485.546 51.6529 486.117 50.9946 487.346 50.5558Z"
    fill="#263238" />
  <path d="M542.773 98.3468C543.212 98.3029 558.835 98.9612 553.481 113.312C548.083 127.662 534.786 119.324 534.917 118.885C535.049 118.49 542.773 98.3468 542.773 98.3468Z" fill="#FFBF9D" />
  <path
    d="M541.324 115.111C541.412 115.067 541.544 115.374 541.895 115.725C542.202 116.076 542.86 116.471 543.738 116.471C545.45 116.471 547.644 114.54 548.653 111.951C549.18 110.679 549.399 109.318 549.312 108.133C549.268 106.904 548.873 105.939 548.127 105.5C547.425 105.061 546.722 105.325 546.415 105.632C546.064 105.983 546.064 106.29 545.976 106.29C545.889 106.29 545.757 105.939 546.064 105.368C546.24 105.105 546.547 104.842 546.986 104.71C547.425 104.535 547.995 104.579 548.522 104.842C549.575 105.325 550.189 106.729 550.277 108.045C550.409 109.406 550.233 110.898 549.663 112.39C548.478 115.243 545.976 117.393 543.694 117.217C542.597 117.086 541.851 116.471 541.544 115.989C541.237 115.462 541.281 115.111 541.324 115.111Z"
    fill="#FF9A6C" />
  <path
    d="M497.483 32.0362C495.64 29.8419 505.47 25.0146 512.141 24.6196C522.234 24.0491 536.278 26.6822 543.343 31.9484C551.857 38.3118 557.957 46.1234 559.405 56.6558C560.897 67.1444 558.791 77.9841 554.709 87.7705C553.481 90.7547 551.945 93.8266 549.355 95.7576C546.152 98.1274 541.544 98.654 540.052 103.086C539.481 104.71 538.428 106.158 536.892 106.904C533.206 108.66 531.011 104.842 530.529 101.638C529.519 94.836 531.758 87.9899 533.952 81.4949C535.488 76.843 537.112 72.1034 540.052 68.2415C541.676 66.0912 543.65 64.2919 545.143 62.0976C546.635 59.9033 547.644 57.0947 546.898 54.5493C546.766 54.1544 546.503 53.5839 546.152 52.9256C543.475 47.8349 538.209 44.5874 532.46 44.4557C523.288 44.1924 507.928 43.1831 505.382 39.0578C501.74 33.1333 501.477 30.1053 501.477 30.1053L497.483 32.0362Z"
    fill="#263238" />
  <path
    d="M545.23 23.2153C546.152 23.6541 567.699 36.9952 567.568 56.4364C567.436 75.8337 563.881 80.6172 563.881 80.6172C563.881 80.6172 564.935 81.8898 565.593 83.5575C566.163 85.0057 562.872 90.0086 560.02 88.341C540.666 70.3919 513.984 60.0789 483.528 50.6436L460.576 42.437C453.861 40.9449 452.15 38.4435 455.441 37.7852C457.986 37.2586 478.832 36.2053 478.832 36.2053L483.308 34.801L497.395 24.8829C497.395 24.8829 496.869 22.6448 499.721 21.8987C502.574 21.1966 527.062 13.9994 545.23 23.2153Z"
    fill="#12B0EE" />
  <path
    d="M496.386 38.9701C504.285 41.9104 515.037 46.65 526.096 53.3644C537.199 59.9472 546.635 66.9688 553.305 72.1473C556.64 74.6927 559.317 76.8869 561.117 78.379C561.951 79.0373 562.653 79.6078 563.223 80.0905C563.706 80.4855 563.969 80.7049 563.969 80.7049C563.969 80.7049 563.662 80.5294 563.179 80.1783C562.594 79.7102 561.877 79.1397 561.029 78.4668C559.186 77.0186 556.509 74.9121 553.13 72.3667C546.415 67.2322 536.98 60.2983 525.877 53.7155C514.862 47.0449 504.154 42.2615 496.254 39.2334C492.305 37.7852 489.101 36.6441 486.819 35.942C485.766 35.6348 484.932 35.3715 484.23 35.152C483.615 34.9326 483.308 34.801 483.308 34.801C483.308 34.801 488.399 36.0736 496.386 38.9701Z"
    fill="#263238" />
  <g opacity="0.3">
    <path
      d="M563.048 40.8132C563.048 40.8132 539.218 28.0865 526.096 29.6225C526.594 29.5347 527.106 29.4616 527.632 29.4031C523.536 29.7542 519.44 30.0906 515.344 30.4124C513.282 30.588 510.912 30.6758 509.464 29.1398C509.464 29.1398 516.924 25.98 528.686 26.0678C540.447 26.1117 557.738 30.3247 563.048 40.8132Z"
      fill="black" />
  </g>
  <path
    d="M562.872 40.506C562.565 40.155 562.126 39.5845 561.468 38.9262C560.239 37.5657 558.352 35.7226 555.675 33.8355C552.998 31.9484 549.531 30.0614 545.45 28.7009C541.368 27.2966 536.629 26.3311 531.626 26.8139C529.168 27.0333 526.755 27.516 524.473 27.9988C522.147 28.4815 519.908 28.8765 517.846 29.447C515.739 30.0175 513.765 30.6758 511.79 30.8513C509.859 31.1146 508.016 30.6319 506.48 30.1052C503.364 29.0081 500.95 27.8232 499.414 26.8577C498.624 26.375 498.054 25.8923 497.703 25.5412C497.395 25.1901 497.395 24.8829 497.395 24.8829C496.956 25.1901 500.336 27.7793 506.567 29.798C508.103 30.3247 509.859 30.7635 511.79 30.5002C513.677 30.3247 515.652 29.6664 517.714 29.0959C519.821 28.5254 522.059 28.1304 524.385 27.6038C526.711 27.121 529.08 26.5944 531.626 26.4189C536.673 25.8923 541.456 26.9016 545.581 28.3498C549.707 29.7542 553.173 31.6851 555.85 33.6161C558.527 35.5031 560.415 37.4341 561.599 38.7945C562.828 40.1989 563.355 41.0766 563.355 41.0766C563.355 41.0766 563.179 40.901 562.872 40.506Z"
    fill="#263238" />
  <g opacity="0.3">
    <path
      d="M566.866 68.8559C556.245 64.3358 549.663 59.9472 540.183 53.4961C538.516 52.3551 534.61 49.2831 533.688 47.4838C532.767 45.6845 532.767 43.7975 533.776 42.0421C535.224 45.4212 539.174 47.7471 542.422 49.9414C546.678 52.8378 551.155 55.2954 555.587 57.9724C559.712 60.5177 562.74 62.8437 567.261 64.4674C567.261 64.4674 567.173 67.671 566.866 68.8559Z"
      fill="black" />
  </g>
  <path
    d="M567.48 54.2861C569.938 56.4803 571.386 57.9285 570.64 60.3861C570.025 62.4487 568.753 64.7746 566.602 64.4674C565.988 64.3797 565.374 64.0286 564.803 63.6775C555.148 58.0309 545.479 52.3697 535.795 46.6939C534.829 46.1234 533.776 45.4651 533.381 44.368C532.811 42.7442 534.259 40.9011 535.927 40.4622C537.638 40.0234 539.394 40.5061 541.061 41.0327C550.54 44.1047 559.186 48.8004 567.48 54.2861Z"
    fill="#12B0EE" />
  <path
    d="M533.469 44.6313C533.337 44.368 533.162 43.9291 533.162 43.3586C533.162 42.2615 533.908 40.4183 535.883 39.5845C537.858 38.8823 540.403 39.3212 542.86 40.2867C545.318 41.2521 548.039 42.3493 550.804 43.6219C556.421 46.1673 561.248 48.9759 564.496 51.3457C566.12 52.5306 567.392 53.54 568.226 54.2861C568.577 54.6079 568.899 54.9004 569.192 55.1638C569.396 55.3686 569.499 55.471 569.499 55.471C569.499 55.5002 569.382 55.4124 569.148 55.2076C568.826 54.9736 568.489 54.7103 568.138 54.4177C567.261 53.7155 565.988 52.7062 564.32 51.5652C561.029 49.2831 556.245 46.5184 550.672 44.0169C547.863 42.7442 545.186 41.6032 542.729 40.6377C540.315 39.6284 537.814 39.2334 535.97 39.8478C534.127 40.5939 533.381 42.3054 533.337 43.3586C533.293 44.4558 533.776 44.9824 533.688 44.9824C533.688 45.0263 533.601 44.8946 533.469 44.6313Z"
    fill="#263238" />
  <path d="M492.963 27.9987L512.755 34.3182L509.2 39.2773L488.004 31.5096L492.963 27.9987Z" fill="white" />
  <path
    d="M497.922 46.4744C487.609 41.3399 479.271 37.083 479.315 36.9952C479.402 36.8636 487.784 40.9449 498.097 46.1234C508.411 51.2579 516.705 55.5148 516.661 55.6026C516.617 55.6903 508.235 51.609 497.922 46.4744Z"
    fill="#263238" />
  <path
    d="M558.484 186.819L538.252 222.366L501.389 278.54L440.783 343.49L359.025 288.984L393.695 186.644L426.784 128.759L443.109 136.834L459.478 143.9L469.309 137.712C469.309 138.941 477.515 165.623 477.515 165.623L521.927 149.122L521.664 162.112L558.484 186.819Z"
    fill="#12B0EE" />
  <path
    d="M473.566 165.403C473.566 165.403 473.522 164.965 473.522 164.131C473.492 163.224 473.478 162.01 473.478 160.488L473.653 160.62C470.274 162.244 465.14 165.228 460.312 169.748L459.961 170.099L459.917 169.616C459.873 169.046 459.83 168.432 459.83 167.817C459.435 161.454 459.171 155.661 458.952 151.492C458.864 149.473 458.82 147.805 458.776 146.577C458.747 146.021 458.732 145.567 458.732 145.216C458.732 144.894 458.732 144.734 458.732 144.734C458.762 144.734 458.791 144.894 458.82 145.216C458.849 145.567 458.893 146.006 458.952 146.533C459.04 147.805 459.127 149.473 459.303 151.492C459.566 155.661 459.917 161.41 460.268 167.773C460.312 168.388 460.356 169.002 460.356 169.573L460.005 169.441C464.92 164.877 470.099 161.937 473.522 160.357L473.741 160.269V160.488C473.712 162.01 473.683 163.224 473.653 164.131C473.61 164.965 473.61 165.403 473.566 165.403Z"
    fill="#263238" />
  <path
    d="M517.583 162.726C517.583 162.726 517.407 162.814 517.056 162.99C516.676 163.165 516.178 163.399 515.564 163.692C514.203 164.306 512.36 165.184 510.078 166.237C505.382 168.344 498.931 171.196 491.866 174.356C488.794 175.716 485.897 176.989 483.176 178.174L482.825 178.35L482.913 177.955C483.747 172.996 483.923 168.651 483.923 165.447L484.098 165.579C482.387 166.413 481.026 167.071 480.017 167.598C479.578 167.803 479.212 167.963 478.92 168.08C478.656 168.197 478.525 168.256 478.525 168.256C478.525 168.227 478.642 168.154 478.876 168.037C479.168 167.861 479.519 167.656 479.929 167.422C480.938 166.939 482.299 166.237 483.966 165.316L484.186 165.228V165.447C484.274 168.651 484.142 173.039 483.308 178.042L483.001 177.779C485.722 176.594 488.618 175.278 491.646 173.961C498.756 170.845 505.207 167.993 509.946 165.93C512.229 164.921 514.116 164.131 515.52 163.516C516.134 163.282 516.632 163.078 517.012 162.902C517.363 162.756 517.553 162.697 517.583 162.726Z"
    fill="#263238" />
  <path
    d="M439.95 354.856H105.632C98.5662 354.856 92.8612 349.151 92.8612 342.085V110.591C92.8612 103.525 98.5662 97.8202 105.632 97.8202H439.95C447.015 97.8202 452.72 103.525 452.72 110.591V342.085C452.72 349.151 447.015 354.856 439.95 354.856Z"
    fill="#455A64" />
  <path d="M453.071 360.737H94.3972C85.7518 360.737 78.774 353.759 78.774 345.114V338.267H468.694V345.114C468.694 353.759 461.717 360.737 453.071 360.737Z" fill="#455A64" />
  <path d="M442.056 325.102H102.516V108.002H442.056V325.102Z" fill="#263238" />
  <path d="M314.745 335.854L310.225 344.148H242.159L237.331 335.854H314.745Z" fill="#263238" />
  <path
    d="M432.884 324.4H112.39C110.766 324.4 109.494 323.127 109.494 321.547V118.227C109.494 116.647 110.766 115.374 112.39 115.374H432.884C434.508 115.374 435.78 116.647 435.78 118.227V321.547C435.78 323.127 434.508 324.4 432.884 324.4Z"
    fill="#EBEBEB" />
  <path d="M435.429 324.707H109.143L109.494 130.997H435.429V324.707Z" fill="#FAFAFA" />
  <path
    d="M136.922 123.449C136.922 124.985 135.693 126.258 134.245 126.258C132.753 126.258 131.524 124.985 131.524 123.449C131.524 121.869 132.753 120.641 134.245 120.641C135.693 120.641 136.922 121.869 136.922 123.449Z"
    fill="#263238" />
  <path
    d="M120.641 123.449C120.641 124.985 119.412 126.258 117.92 126.258C116.471 126.258 115.243 124.985 115.243 123.449C115.243 121.869 116.471 120.641 117.92 120.641C119.412 120.641 120.641 121.869 120.641 123.449Z"
    fill="#263238" />
  <path
    d="M128.979 123.449C128.979 124.985 127.794 126.258 126.302 126.258C124.81 126.258 123.625 124.985 123.625 123.449C123.625 121.869 124.81 120.641 126.302 120.641C127.794 120.641 128.979 121.869 128.979 123.449Z"
    fill="#263238" />
  <path
    d="M449.648 335.854C449.648 335.985 369.777 336.117 271.255 336.117C172.688 336.117 92.8612 335.985 92.8612 335.854C92.8612 335.722 172.688 335.59 271.255 335.59C369.777 335.59 449.648 335.722 449.648 335.854Z"
    fill="#263238" />
  <path fill-rule="evenodd" clip-rule="evenodd"
    d="M237.595 168.168C242.949 164.921 248.654 162.463 254.578 160.796L258.045 143.987L286.439 143.461L290.52 160.137C296.489 161.585 302.282 163.867 307.767 166.896L322.118 157.504L342.524 177.252L333.659 191.91C336.863 197.264 339.365 202.969 341.032 208.894L357.796 212.361L358.323 240.754L341.647 244.836C340.198 250.804 337.916 256.597 334.888 262.083L344.28 276.433L324.575 296.84L309.874 287.975C304.52 291.179 298.815 293.68 292.89 295.348L289.423 312.156L261.029 312.638L256.948 295.962C250.98 294.514 245.187 292.232 239.701 289.204L225.351 298.595L204.944 278.891L213.853 264.189C210.605 258.835 208.148 253.13 206.436 247.206L189.672 243.739L189.145 215.345L205.822 211.264C207.27 205.295 209.552 199.502 212.58 194.017L203.189 179.666L222.937 159.26L237.595 168.168ZM252.691 205.997C241.018 218.066 241.369 237.375 253.481 249.049C265.55 260.722 284.859 260.415 296.533 248.303C308.206 236.19 307.899 216.925 295.787 205.207C283.674 193.534 264.409 193.885 252.691 205.997Z"
    fill="#E0E0E0" />
  <path fill-rule="evenodd" clip-rule="evenodd"
    d="M350.994 178.964C351.389 176.858 352.047 174.839 352.969 172.908L349.458 168.168L355.778 160.752L361.044 163.473C362.755 162.288 364.686 161.322 366.705 160.62L367.583 154.739L377.325 153.993L379.081 159.611C381.187 160.006 383.25 160.708 385.137 161.629L389.876 158.075L397.337 164.438L394.572 169.66C395.757 171.416 396.766 173.303 397.469 175.365L403.305 176.199L404.095 185.986L398.434 187.697C398.039 189.848 397.381 191.866 396.459 193.797L399.97 198.537L393.651 205.953L388.384 203.189C386.673 204.417 384.742 205.383 382.723 206.085L381.846 211.966L372.103 212.712L370.348 207.051C368.241 206.699 366.178 205.997 364.291 205.076L359.552 208.63L352.091 202.267L354.856 197.045C353.671 195.289 352.662 193.402 351.96 191.34L346.123 190.506L345.333 180.719L350.994 178.964ZM364.248 181.948C363.633 188.926 369.733 194.412 376.535 193.227C381.143 192.437 384.742 188.531 385.137 183.879C385.751 176.858 379.651 171.372 372.849 172.557C368.241 173.347 364.642 177.252 364.248 181.948Z"
    fill="#E0E0E0" />
  <path fill-rule="evenodd" clip-rule="evenodd"
    d="M137.229 277.004C137.317 274.414 137.756 271.957 138.458 269.543L133.499 264.628L139.599 254.842L146.182 257.124C147.981 255.412 150.044 253.92 152.282 252.735L152.238 245.757L163.516 243.124L166.544 249.356C169.09 249.444 171.591 249.883 173.961 250.585L178.876 245.626L188.707 251.726L186.425 258.309C188.136 260.152 189.628 262.17 190.813 264.452L197.791 264.365L200.424 275.643L194.148 278.671C194.061 281.217 193.666 283.718 192.92 286.132L197.922 291.003L191.822 300.833L185.196 298.551C183.396 300.263 181.334 301.755 179.096 302.94L179.14 309.918L167.905 312.551L164.833 306.275C162.288 306.231 159.786 305.792 157.416 305.046L152.501 310.049L142.715 303.949L144.997 297.366C143.285 295.523 141.793 293.504 140.564 291.222L133.587 291.266L130.954 280.032L137.229 277.004ZM153.511 280.163C155.09 286.834 161.761 290.959 168.388 289.423C175.058 287.843 179.183 281.173 177.647 274.502C176.068 267.876 169.397 263.706 162.77 265.286C156.1 266.822 151.931 273.493 153.511 280.163Z"
    fill="#E0E0E0" />
  <path fill-rule="evenodd" clip-rule="evenodd"
    d="M157.46 183.221C157.724 181.597 158.25 180.061 158.952 178.613L156.275 175.058L161.059 169.441L165.009 171.504C166.325 170.626 167.773 169.88 169.309 169.353L169.924 164.921L177.296 164.35L178.613 168.607C180.237 168.914 181.773 169.397 183.177 170.099L186.776 167.422L192.349 172.25L190.286 176.199C191.208 177.472 191.954 178.92 192.481 180.456L196.869 181.114L197.484 188.443L193.183 189.804C192.92 191.384 192.393 192.92 191.735 194.368L194.368 197.922L189.584 203.54L185.635 201.477C184.318 202.355 182.87 203.101 181.334 203.628L180.719 208.06L173.347 208.63L172.03 204.374C170.406 204.066 168.914 203.584 167.466 202.881L163.867 205.558L158.294 200.775L160.357 196.825C159.435 195.509 158.689 194.061 158.162 192.525L153.774 191.866L153.203 184.537L157.46 183.221ZM167.422 186.776C167.729 191.12 171.547 194.412 175.892 194.061C180.281 193.709 183.528 189.891 183.177 185.547C182.826 181.202 179.052 177.911 174.663 178.262C170.319 178.613 167.071 182.431 167.422 186.776Z"
    fill="#EBEBEB" />
  <path fill-rule="evenodd" clip-rule="evenodd"
    d="M351.345 262.434C351.609 261.029 352.047 259.713 352.662 258.484L350.336 255.412L354.461 250.585L357.884 252.384C358.981 251.594 360.21 250.98 361.527 250.497L362.097 246.723L368.417 246.24L369.558 249.883C370.918 250.146 372.235 250.585 373.463 251.155L376.535 248.873L381.363 252.998L379.563 256.378C380.353 257.519 381.012 258.747 381.451 260.064L385.269 260.634L385.751 266.954L382.065 268.051C381.846 269.455 381.407 270.772 380.792 272.001L383.074 275.073L378.993 279.9L375.57 278.101C374.473 278.891 373.244 279.505 371.884 279.988L371.357 283.762L365.037 284.245L363.896 280.602C362.536 280.339 361.219 279.9 359.947 279.33L356.875 281.612L352.091 277.486L353.847 274.107C353.101 272.966 352.442 271.737 352.004 270.421L348.186 269.85L347.703 263.531L351.345 262.434ZM359.903 265.506C360.21 269.28 363.458 272.045 367.232 271.781C370.962 271.474 373.771 268.227 373.463 264.452C373.156 260.722 369.909 257.914 366.178 258.221C362.404 258.484 359.596 261.775 359.903 265.506Z"
    fill="#EBEBEB" />
  <path
    d="M273.756 271.957H230.046C218.812 271.957 211.746 259.713 217.364 249.97L239.218 212.141L261.029 174.312C266.691 164.57 280.778 164.57 286.439 174.312L308.25 212.141L330.105 249.97C335.722 259.713 328.7 271.957 317.422 271.957H273.756Z"
    fill="#12B0EE" />
  <path
    d="M320.757 254.315C320.757 254.315 320.86 254.549 321.064 255.017C321.24 255.5 321.547 256.202 321.547 257.211C321.547 258.177 321.328 259.406 320.494 260.634C320.099 261.249 319.572 261.819 318.87 262.258C318.168 262.741 317.29 263.048 316.369 263.092C308.908 263.18 298.156 263.18 284.859 263.18C271.562 263.224 255.763 263.224 238.209 263.268C236.015 263.268 233.791 263.268 231.539 263.268C229.169 263.311 226.931 261.6 226.141 259.362C225.746 258.221 225.658 256.992 225.921 255.807C226.009 255.514 226.097 255.237 226.185 254.973C226.316 254.666 226.448 254.403 226.58 254.139L227.413 252.603C228.554 250.555 229.695 248.478 230.836 246.372C235.4 237.99 240.184 229.3 245.011 220.392C249.883 211.527 254.666 202.838 259.23 194.455C261.541 190.242 263.794 186.117 265.988 182.08C266.559 181.114 267.086 180.105 267.7 179.096C268.271 178.086 269.104 177.209 270.158 176.638C272.132 175.497 274.678 175.409 276.74 176.375C277.75 176.857 278.671 177.56 279.33 178.437C280.032 179.359 280.471 180.324 280.997 181.246C282.021 183.148 283.031 185.006 284.025 186.819C286.015 190.477 287.946 194.017 289.818 197.44C293.592 204.286 297.059 210.693 300.219 216.53C306.582 228.203 311.717 237.639 315.272 244.177C317.027 247.425 318.431 249.97 319.353 251.682C319.821 252.53 320.172 253.189 320.406 253.657C320.64 254.096 320.757 254.315 320.757 254.315C320.757 254.315 320.626 254.096 320.362 253.657C320.099 253.218 319.733 252.574 319.265 251.726C318.3 250.014 316.939 247.513 315.14 244.265C311.541 237.726 306.363 228.335 299.956 216.661C296.752 210.869 293.241 204.461 289.511 197.615C287.609 194.192 285.664 190.652 283.674 186.995C282.679 185.181 281.67 183.338 280.646 181.465C280.12 180.544 279.637 179.534 279.022 178.701C278.408 177.867 277.53 177.209 276.565 176.726C274.634 175.848 272.22 175.936 270.333 177.033C269.412 177.56 268.622 178.393 268.051 179.315C267.481 180.281 266.954 181.29 266.383 182.299C264.189 186.337 261.936 190.462 259.625 194.675C255.061 203.057 250.278 211.746 245.45 220.611C240.579 229.52 235.795 238.209 231.231 246.591C230.09 248.698 228.949 250.775 227.808 252.823C227.282 253.876 226.58 254.842 226.36 255.939C226.097 256.992 226.185 258.177 226.58 259.23C227.282 261.337 229.344 262.873 231.539 262.829C233.791 262.829 236.015 262.829 238.209 262.829C255.763 262.829 271.562 262.873 284.859 262.873C298.156 262.873 308.908 262.916 316.325 262.916C317.246 262.873 318.08 262.565 318.782 262.127C319.441 261.688 320.011 261.161 320.406 260.547C321.196 259.406 321.459 258.177 321.416 257.211C321.416 255.237 320.669 254.359 320.757 254.315Z"
    fill="#263238" />
  <path
    d="M266.647 246.24C266.647 242.378 269.763 239.482 274.151 239.482C278.54 239.482 281.568 242.378 281.568 246.24C281.568 250.058 278.54 253.13 274.151 253.13C269.763 253.13 266.647 250.058 266.647 246.24ZM266.735 206.612H281.568L279.066 235.795H269.148L266.735 206.612Z"
    fill="white" />
  <path
    d="M275.819 169.968C275.775 170.055 274.809 169.485 273.054 169.397C271.299 169.309 268.841 169.88 266.735 171.504C264.628 173.171 263.311 175.322 262.522 176.901C261.732 178.481 261.38 179.535 261.293 179.491C261.249 179.491 261.337 179.227 261.468 178.745C261.644 178.262 261.863 177.56 262.258 176.77C262.96 175.146 264.233 172.908 266.427 171.152C268.665 169.441 271.255 168.914 273.054 169.09C273.976 169.178 274.678 169.397 275.16 169.616C275.599 169.792 275.863 169.968 275.819 169.968Z"
    fill="white" />
  <path
    d="M257.562 186.03C257.475 185.986 257.914 185.02 258.528 183.967C259.186 182.87 259.757 182.036 259.888 182.124C259.976 182.168 259.581 183.089 258.923 184.186C258.265 185.283 257.694 186.073 257.562 186.03Z"
    fill="white" />
  <g opacity="0.3">
    <path d="M300.438 198.625L218.812 247.513L227.633 232.197L295.655 190.286L300.438 198.625Z" fill="white" />
  </g>
  <g opacity="0.3">
    <path d="M307.943 211.615L218.154 265.813C217.276 264.804 216.486 263.224 216.223 262.039L306.363 208.85L307.943 211.615Z" fill="white" />
  </g>
  <path
    d="M535.268 332.124L531.933 333.44L527.237 323.259L514.906 322.644L505.734 330.939L505.163 343.27L513.194 352.135L509.859 353.452C502.398 353.671 495.245 349.678 489.803 343.709C482.606 335.766 481.114 324.619 485.107 315.359L478.7 308.338L476.594 306.056L409.01 231.89C399.443 234.962 388.516 232.416 381.275 224.429C375.877 218.461 370.874 209.069 371.84 201.653L375.175 200.336L383.206 209.245L395.538 209.815L404.666 201.521L405.28 189.189L393.958 181.597L397.205 180.324C405.631 179.14 414.496 181.992 420.596 188.794C427.837 196.738 429.329 207.884 425.336 217.144L491.778 290.081L492.963 291.354L501.345 300.57C510.956 297.498 521.927 300.087 529.124 308.031C535.268 314.789 537.287 323.873 535.268 332.124Z"
    fill="#E0E0E0" />
  <g opacity="0.3">
    <path
      d="M535.268 332.124L531.933 333.44L527.237 323.259L514.906 322.644L505.734 330.939L505.163 343.27L513.194 352.135L509.859 353.452C502.398 353.671 495.245 349.678 489.803 343.709C482.606 335.766 481.114 324.619 485.107 315.359L478.7 308.338L476.594 306.056L409.01 231.89C399.443 234.962 388.516 232.416 381.275 224.429C375.877 218.461 370.874 209.069 371.84 201.653L375.175 200.336L383.206 209.245L395.538 209.815L404.666 201.521L405.28 189.189L393.958 181.597L397.205 180.324C405.631 179.14 414.496 181.992 420.596 188.794C427.837 196.738 429.329 207.884 425.336 217.144L491.778 290.081L492.963 291.354L501.345 300.57C510.956 297.498 521.927 300.087 529.124 308.031C535.268 314.789 537.287 323.873 535.268 332.124Z"
      fill="black" />
  </g>
  <path
    d="M531.933 333.44L523.902 324.531L511.57 323.961L502.398 332.255L501.828 344.587L509.859 353.452C501.477 354.637 492.612 351.784 486.468 345.026C479.271 337.039 477.779 325.936 481.772 316.676L475.365 309.654L473.258 307.328L405.675 233.206C396.108 236.278 385.181 233.689 377.984 225.746C371.84 218.987 369.821 209.903 371.84 201.653L379.871 210.517L392.202 211.132L401.374 202.838L401.945 190.506L393.914 181.641C402.296 180.456 411.161 183.309 417.305 190.067C424.502 198.054 425.994 209.157 422.001 218.417L488.443 291.354L489.628 292.671L498.054 301.887C507.621 298.815 518.592 301.36 525.789 309.347C531.933 316.105 533.952 325.19 531.933 333.44Z"
    fill="#E0E0E0" />
  <path
    d="M525.789 309.347C525.789 309.347 526.184 309.742 526.93 310.62C527.588 311.497 528.642 312.814 529.651 314.745C530.704 316.676 531.714 319.221 532.328 322.381C532.898 325.541 533.03 329.359 532.021 333.44L531.977 333.616L531.889 333.484C529.475 330.851 526.755 327.867 523.814 324.619L523.858 324.663C520.084 324.487 515.959 324.268 511.57 324.092L511.658 324.049C508.805 326.638 505.734 329.446 502.53 332.343L502.574 332.255C502.398 336.073 502.179 340.242 501.959 344.587L501.916 344.455C504.417 347.22 507.182 350.248 509.99 353.32L510.21 353.583L509.903 353.627C505.734 354.198 501.257 353.803 497.044 352.311C492.831 350.775 488.882 348.098 485.81 344.499C482.738 340.944 480.543 336.424 479.753 331.509C478.964 326.594 479.534 321.372 481.597 316.588V316.808C459.084 292.1 433.191 263.706 405.544 233.338L405.763 233.426C401.111 234.918 395.889 235.093 390.93 233.821C385.971 232.592 381.319 229.783 377.808 225.877C374.824 222.63 372.717 218.68 371.664 214.423C370.611 210.21 370.611 205.778 371.62 201.609L371.708 201.17L372.015 201.477C374.707 204.461 377.384 207.431 380.046 210.386L379.915 210.298C384.04 210.503 388.15 210.708 392.246 210.912L392.071 210.956C395.143 208.177 398.185 205.412 401.199 202.662L401.111 202.838C401.316 198.683 401.521 194.573 401.726 190.506L401.769 190.637C399.078 187.653 396.401 184.698 393.738 181.773L393.475 181.465L393.87 181.422C398.829 180.719 403.92 181.422 408.352 183.396C412.828 185.371 416.69 188.531 419.411 192.393C422.132 196.255 423.844 200.731 424.239 205.295C424.678 209.859 423.931 214.467 422.176 218.505L422.132 218.285C455.09 254.534 481.597 283.674 498.097 301.843L498.01 301.799C502.749 300.263 507.27 300.351 511 301.009C514.73 301.711 517.67 303.028 519.865 304.388C522.059 305.705 523.507 307.021 524.473 307.899C525.35 308.864 525.789 309.347 525.789 309.347C525.789 309.347 525.35 308.864 524.429 307.943C523.419 307.109 522.015 305.748 519.821 304.476C517.626 303.159 514.642 301.843 510.956 301.14C507.27 300.526 502.793 300.482 498.054 301.974L498.01 302.018L497.966 301.974C481.421 283.85 454.871 254.71 421.869 218.592L421.781 218.461L421.825 218.373C423.536 214.335 424.283 209.859 423.844 205.339C423.449 200.863 421.781 196.43 419.06 192.612C416.383 188.838 412.565 185.722 408.177 183.791C403.788 181.86 398.785 181.158 393.914 181.86L394.046 181.465C396.708 184.391 399.4 187.361 402.12 190.374L402.164 190.418V190.506C401.96 194.573 401.769 198.683 401.594 202.838V202.925L401.506 203.013C398.493 205.734 395.45 208.499 392.378 211.307L392.29 211.351H392.202C388.136 211.147 384.025 210.942 379.871 210.737H379.783L379.739 210.693C377.047 207.738 374.356 204.769 371.664 201.784L372.059 201.697C371.05 205.822 371.05 210.166 372.103 214.335C373.112 218.461 375.219 222.367 378.115 225.57C381.582 229.432 386.146 232.153 391.061 233.382C395.933 234.654 401.067 234.435 405.631 232.987L405.763 232.943L405.851 233.031C433.498 263.399 459.391 291.793 481.904 316.544L481.992 316.632L481.948 316.764C479.929 321.459 479.359 326.638 480.148 331.421C480.895 336.293 483.089 340.725 486.117 344.28C489.145 347.834 493.007 350.468 497.176 351.96C501.345 353.496 505.734 353.891 509.859 353.276L509.771 353.539C506.918 350.424 504.198 347.439 501.696 344.675L501.652 344.631V344.543C501.872 340.242 502.091 336.073 502.267 332.255V332.167L502.311 332.123C505.558 329.227 508.63 326.418 511.482 323.873L511.526 323.829H511.57C515.959 324.049 520.084 324.224 523.902 324.444H523.946L523.99 324.487C526.93 327.735 529.651 330.719 532.021 333.352L531.845 333.396C532.855 329.359 532.723 325.585 532.196 322.425C531.582 319.265 530.616 316.72 529.563 314.789C528.554 312.858 527.545 311.541 526.886 310.62C526.184 309.786 525.789 309.347 525.789 309.347Z"
    fill="#263238" />
  <path
    d="M418.972 222.674C418.972 222.718 418.885 222.937 418.665 223.332C418.446 223.771 418.139 224.341 417.656 225C416.734 226.36 415.198 228.072 413.223 229.651C411.205 231.144 409.142 232.197 407.606 232.723C406.816 233.031 406.202 233.206 405.719 233.294C405.28 233.382 405.017 233.426 405.017 233.426C405.017 233.338 405.982 233.075 407.474 232.416C408.967 231.802 410.985 230.792 412.916 229.256C414.891 227.764 416.427 226.097 417.393 224.824C418.402 223.508 418.885 222.674 418.972 222.674Z"
    fill="#263238" />
  <path
    d="M491.251 284.859L480.192 287.317C480.192 287.317 466.544 291.53 463.209 292.539C459.873 293.592 450.921 294.207 447.673 293.68C444.47 293.153 444.426 287.053 444.426 287.053C444.426 287.053 440.345 287.712 437.755 285.166C435.122 282.621 438.458 277.618 438.458 277.618C433.542 278.54 430.909 277.837 429.68 273.932C428.496 270.026 431.392 266.559 431.392 266.559C426.257 267.7 423.449 261.512 423.931 259.23C424.458 256.948 453.642 246.767 453.642 246.767L445.347 239.789L467.904 242.598L493.182 254.359L491.251 284.859Z"
    fill="#FFBF9D" />
  <path
    d="M446.708 262.083C446.84 262.434 443.46 263.706 439.247 264.935C434.991 266.164 431.48 266.866 431.392 266.559C431.26 266.208 434.639 264.935 438.896 263.706C443.109 262.478 446.62 261.732 446.708 262.083Z"
    fill="#FF9A6C" />
  <path
    d="M451.009 274.107C451.096 274.414 448.463 275.512 445.04 276.565C441.661 277.574 438.852 278.101 438.721 277.794C438.633 277.442 441.31 276.345 444.689 275.336C448.068 274.327 450.921 273.756 451.009 274.107Z"
    fill="#FF9A6C" />
  <path
    d="M454.871 284.069C454.914 284.464 452.501 284.947 449.648 285.649C446.84 286.395 444.601 287.404 444.426 287.053C444.25 286.79 446.313 285.254 449.341 284.464C452.369 283.718 454.827 283.762 454.871 284.069Z"
    fill="#FF9A6C" />
  <path
    d="M458.074 245.801C458.162 246.152 454.827 247.337 450.745 248.742C446.664 250.146 443.285 251.243 443.153 250.936C443.022 250.629 446.181 249.005 450.35 247.557C454.476 246.152 457.986 245.45 458.074 245.801Z"
    fill="#FF9A6C" />
  <path d="M488.443 252.165L543.124 271.957L539.92 309.479L479.71 285.21L488.443 252.165Z" fill="#FFBF9D" />
  <path
    d="M558.571 186.512C558.571 186.512 565.725 193.841 569.85 207.094C573.975 220.26 593.592 276.477 593.065 294.338C592.582 312.814 580.119 326.023 552.779 318.695C536.497 314.35 517.056 307.328 517.056 307.328L530.88 261.907L541.676 264.628L524.209 231.89L558.571 186.512Z"
    fill="#12B0EE" />
  <path
    d="M546.064 207.972C546.196 208.016 538.604 218.812 529.168 232.021C519.777 245.231 512.053 255.895 511.921 255.807C511.834 255.719 519.382 244.967 528.817 231.758C538.252 218.548 545.976 207.884 546.064 207.972Z"
    fill="#263238" />
  <path
    d="M566.997 270.86C566.953 270.86 566.515 270.596 565.681 270.201C564.803 269.806 563.53 269.324 561.907 268.885C560.283 268.446 558.308 268.051 556.158 267.568C553.963 267.086 551.55 266.559 549.048 265.988C544.001 264.847 539.481 263.838 536.19 263.048C534.61 262.653 533.293 262.346 532.284 262.083C531.363 261.863 530.88 261.732 530.88 261.688C530.88 261.644 531.406 261.732 532.328 261.907C533.337 262.127 534.654 262.39 536.234 262.741C539.569 263.443 544.133 264.409 549.136 265.55C551.681 266.12 554.051 266.647 556.245 267.129C558.396 267.656 560.371 268.095 561.994 268.578C563.618 269.06 564.891 269.631 565.725 270.07C566.164 270.275 566.485 270.45 566.69 270.596C566.895 270.743 566.997 270.83 566.997 270.86Z"
    fill="#263238" />
  <g opacity="0.3">
    <path
      d="M579.987 275.073C579.373 275.38 578.583 275.117 577.925 274.853C566.427 270.158 554.402 266.691 542.158 264.409L541.237 264.014C551.155 264.365 561.117 264.76 570.903 266.12C573.097 266.383 575.292 266.778 577.223 267.788C579.11 268.841 580.733 270.64 580.953 272.835C581.041 273.712 580.821 274.722 579.987 275.073Z"
      fill="black" />
  </g>
  <g opacity="0.3">
    <path
      d="M348.756 119.938C345.465 121.738 341.515 121.825 337.829 121.211C333.265 120.421 328.788 118.534 325.453 115.287C322.118 112.083 319.967 107.519 320.143 102.867C320.231 101.199 320.713 99.3562 322.162 98.5224C323.39 97.8202 324.882 98.0396 326.287 98.259C335.503 99.8389 346.518 97.1619 355.734 98.6979C357.226 105.061 354.461 116.823 348.756 119.938Z"
      fill="black" />
  </g>
  <path
    d="M319.967 115.594C319.967 115.594 314.35 109.011 313.56 105.983C313.033 104.008 313.297 98.3907 313.516 94.836C313.692 92.4223 315.228 90.1842 317.51 89.3942C318.344 89.1309 319.09 89.087 319.616 89.5698C319.616 89.5698 319.967 88.9554 322.162 86.7172C324.356 84.4352 325.409 82.9431 330.236 84.3474C330.236 84.3474 333.791 80.5733 335.81 80.8805C337.872 81.1438 339.891 81.7582 339.891 81.7582C339.891 81.7582 347.659 81.4071 349.283 83.8647C349.985 84.9618 351.389 85.7079 352.793 86.2345C355.251 87.1122 357.27 88.9115 358.367 91.2813C359.815 94.5288 359.903 98.0835 359.903 98.0835L352.004 98.3907C352.004 98.3907 352.53 116.559 350.555 118.051C348.58 119.499 347.791 118.973 347.791 118.973C347.791 118.973 346.298 123.23 340.374 120.07C340.374 120.07 335.459 121.562 333.352 119.543C331.246 117.525 323.522 98.0396 323.522 98.0396L323.741 107.738C323.741 107.738 327.823 113.97 325.848 115.462C323.829 116.91 319.967 115.594 319.967 115.594Z"
    fill="#FFBF9D" />
  <path
    d="M329.841 90.9302C329.841 90.9302 330.017 91.3252 330.28 92.0712C330.573 92.9197 330.924 93.9729 331.334 95.231C332.211 97.908 333.44 101.638 334.713 105.72C336.029 109.845 337.039 113.575 338.267 116.12C338.838 117.393 339.452 118.358 339.891 119.017C340.33 119.675 340.593 120.026 340.549 120.026C340.549 120.055 340.476 119.982 340.33 119.807C340.184 119.66 339.994 119.426 339.76 119.105C339.277 118.49 338.619 117.525 337.96 116.252C336.688 113.707 335.59 109.976 334.274 105.851C333.001 101.77 331.86 98.0396 331.026 95.3187C330.646 94.0314 330.339 92.9636 330.105 92.1151C329.885 91.3691 329.798 90.9302 329.841 90.9302Z"
    fill="#FF9A6C" />
  <path
    d="M339.54 88.6921C339.584 88.6921 339.716 89.087 339.935 89.877C340.198 90.7254 340.52 91.8079 340.901 93.1245C341.647 95.8892 342.7 99.6634 343.797 103.876C344.894 108.089 345.903 111.951 346.562 114.716C346.884 116.033 347.162 117.13 347.396 118.007C347.571 118.753 347.659 119.192 347.615 119.236C347.571 119.236 347.439 118.797 347.22 118.051C346.957 117.174 346.635 116.091 346.255 114.804C345.509 112.039 344.455 108.221 343.358 104.008C342.261 99.795 341.252 95.977 340.549 93.2122C340.228 91.8664 339.964 90.7693 339.76 89.9208C339.584 89.1309 339.496 88.6921 339.54 88.6921Z"
    fill="#FF9A6C" />
</svg>