<svg width="140" height="46" viewBox="0 0 140 46" fill="none" xmlns="http://www.w3.org/2000/svg">
  <path
    d="M55.7656 32.5H57.7344V41.3047L57.5361 43H55.7656V32.5ZM62.417 39.2266V39.3701C62.417 39.9215 62.3577 40.4274 62.2393 40.8877C62.1253 41.348 61.9476 41.7467 61.7061 42.084C61.4645 42.4167 61.1637 42.6764 60.8037 42.8633C60.4482 43.0456 60.029 43.1367 59.5459 43.1367C59.0947 43.1367 58.7028 43.0456 58.3701 42.8633C58.042 42.681 57.7663 42.4235 57.543 42.0908C57.3197 41.7581 57.1396 41.3685 57.0029 40.9219C56.8662 40.4753 56.7637 39.9876 56.6953 39.459V39.1445C56.7637 38.6159 56.8662 38.1283 57.0029 37.6816C57.1396 37.235 57.3197 36.8454 57.543 36.5127C57.7663 36.18 58.042 35.9225 58.3701 35.7402C58.6982 35.5579 59.0856 35.4668 59.5322 35.4668C60.0199 35.4668 60.4437 35.5602 60.8037 35.7471C61.1683 35.9294 61.4691 36.1891 61.7061 36.5264C61.9476 36.859 62.1253 37.2555 62.2393 37.7158C62.3577 38.1715 62.417 38.6751 62.417 39.2266ZM60.4482 39.3701V39.2266C60.4482 38.9258 60.4255 38.6432 60.3799 38.3789C60.3389 38.11 60.266 37.8753 60.1611 37.6748C60.0563 37.4697 59.9128 37.3079 59.7305 37.1895C59.5527 37.071 59.3226 37.0117 59.04 37.0117C58.7712 37.0117 58.5433 37.0573 58.3564 37.1484C58.1696 37.2396 58.0146 37.3672 57.8916 37.5312C57.7731 37.6953 57.6842 37.8913 57.625 38.1191C57.5658 38.3424 57.5293 38.5885 57.5156 38.8574V39.7529C57.5293 40.113 57.5885 40.432 57.6934 40.71C57.8027 40.9834 57.9668 41.1999 58.1855 41.3594C58.4089 41.5143 58.6982 41.5918 59.0537 41.5918C59.3317 41.5918 59.5618 41.5371 59.7441 41.4277C59.9264 41.3184 60.0677 41.1634 60.168 40.9629C60.2728 40.7624 60.3457 40.5277 60.3867 40.2588C60.4277 39.9854 60.4482 39.6891 60.4482 39.3701ZM65.7529 42.166L67.7148 35.6035H69.8271L66.8535 44.1143C66.7897 44.3011 66.7031 44.5016 66.5938 44.7158C66.4889 44.93 66.3454 45.1328 66.1631 45.3242C65.9854 45.5202 65.7598 45.6797 65.4863 45.8027C65.2174 45.9258 64.887 45.9873 64.4951 45.9873C64.3083 45.9873 64.1556 45.9759 64.0371 45.9531C63.9186 45.9303 63.7773 45.8984 63.6133 45.8574V44.415C63.6634 44.415 63.7158 44.415 63.7705 44.415C63.8252 44.4196 63.8776 44.4219 63.9277 44.4219C64.1875 44.4219 64.3994 44.3923 64.5635 44.333C64.7275 44.2738 64.8597 44.1826 64.96 44.0596C65.0602 43.9411 65.14 43.7861 65.1992 43.5947L65.7529 42.166ZM64.9326 35.6035L66.5391 40.9629L66.8193 43.0479L65.4795 43.1914L62.8203 35.6035H64.9326ZM77.5039 43.1367C76.9297 43.1367 76.4147 43.0456 75.959 42.8633C75.5033 42.6764 75.1159 42.4189 74.7969 42.0908C74.4824 41.7627 74.2409 41.3822 74.0723 40.9492C73.9036 40.5117 73.8193 40.0469 73.8193 39.5547V39.2812C73.8193 38.7207 73.8991 38.208 74.0586 37.7432C74.2181 37.2783 74.446 36.875 74.7422 36.5332C75.043 36.1914 75.4076 35.9294 75.8359 35.7471C76.2643 35.5602 76.7474 35.4668 77.2852 35.4668C77.8092 35.4668 78.2741 35.5534 78.6797 35.7266C79.0853 35.8997 79.4248 36.1458 79.6982 36.4648C79.9762 36.7839 80.1859 37.1667 80.3271 37.6133C80.4684 38.0553 80.5391 38.5475 80.5391 39.0898V39.9102H74.6602V38.5977H78.6045V38.4473C78.6045 38.1738 78.5544 37.93 78.4541 37.7158C78.3584 37.4971 78.2126 37.3239 78.0166 37.1963C77.8206 37.0687 77.57 37.0049 77.2646 37.0049C77.0049 37.0049 76.7816 37.0618 76.5947 37.1758C76.4079 37.2897 76.2552 37.4492 76.1367 37.6543C76.0228 37.8594 75.9362 38.1009 75.877 38.3789C75.8223 38.6523 75.7949 38.9531 75.7949 39.2812V39.5547C75.7949 39.8509 75.8359 40.1243 75.918 40.375C76.0046 40.6257 76.1253 40.8421 76.2803 41.0244C76.4398 41.2067 76.6312 41.348 76.8545 41.4482C77.0824 41.5485 77.3398 41.5986 77.627 41.5986C77.9824 41.5986 78.3128 41.5303 78.6182 41.3936C78.9281 41.2523 79.1947 41.0404 79.418 40.7578L80.375 41.7969C80.2201 42.0202 80.0081 42.2344 79.7393 42.4395C79.4749 42.6445 79.1559 42.8132 78.7822 42.9453C78.4085 43.0729 77.9824 43.1367 77.5039 43.1367ZM85.6523 41.332V38.0371C85.6523 37.8001 85.6136 37.5973 85.5361 37.4287C85.4587 37.2555 85.3379 37.1211 85.1738 37.0254C85.0143 36.9297 84.807 36.8818 84.5518 36.8818C84.333 36.8818 84.1439 36.9206 83.9844 36.998C83.8249 37.071 83.7018 37.1781 83.6152 37.3193C83.5286 37.4561 83.4854 37.6178 83.4854 37.8047H81.5166C81.5166 37.4902 81.5895 37.1917 81.7354 36.9092C81.8812 36.6266 82.0931 36.3783 82.3711 36.1641C82.6491 35.9453 82.9795 35.7744 83.3623 35.6514C83.7497 35.5283 84.1826 35.4668 84.6611 35.4668C85.2354 35.4668 85.7458 35.5625 86.1924 35.7539C86.639 35.9453 86.9899 36.2324 87.2451 36.6152C87.5049 36.998 87.6348 37.4766 87.6348 38.0508V41.2158C87.6348 41.6214 87.6598 41.9541 87.71 42.2139C87.7601 42.4691 87.833 42.6924 87.9287 42.8838V43H85.9395C85.8438 42.7995 85.7708 42.5488 85.7207 42.248C85.6751 41.9427 85.6523 41.6374 85.6523 41.332ZM85.9121 38.4951L85.9258 39.6094H84.8252C84.5654 39.6094 84.3398 39.639 84.1484 39.6982C83.957 39.7575 83.7998 39.8418 83.6768 39.9512C83.5537 40.056 83.4626 40.179 83.4033 40.3203C83.3486 40.4616 83.3213 40.6165 83.3213 40.7852C83.3213 40.9538 83.36 41.1064 83.4375 41.2432C83.515 41.3753 83.6266 41.4801 83.7725 41.5576C83.9183 41.6305 84.0892 41.667 84.2852 41.667C84.5814 41.667 84.8389 41.6077 85.0576 41.4893C85.2764 41.3708 85.445 41.2249 85.5635 41.0518C85.6865 40.8786 85.7503 40.7145 85.7549 40.5596L86.2744 41.3936C86.2015 41.5804 86.1012 41.7741 85.9736 41.9746C85.8506 42.1751 85.6934 42.3643 85.502 42.542C85.3105 42.7152 85.0804 42.8587 84.8115 42.9727C84.5426 43.082 84.2236 43.1367 83.8545 43.1367C83.3851 43.1367 82.959 43.0433 82.5762 42.8564C82.1979 42.665 81.8971 42.403 81.6738 42.0703C81.4551 41.7331 81.3457 41.3503 81.3457 40.9219C81.3457 40.5345 81.4186 40.1904 81.5645 39.8896C81.7103 39.5889 81.9245 39.3359 82.207 39.1309C82.4941 38.9212 82.8519 38.764 83.2803 38.6592C83.7087 38.5498 84.2054 38.4951 84.7705 38.4951H85.9121ZM93.1514 40.9561C93.1514 40.8148 93.1104 40.6872 93.0283 40.5732C92.9463 40.4593 92.7936 40.3545 92.5703 40.2588C92.3516 40.1585 92.0348 40.0674 91.6201 39.9854C91.2464 39.9033 90.8978 39.8008 90.5742 39.6777C90.2552 39.5501 89.9772 39.3975 89.7402 39.2197C89.5078 39.042 89.3255 38.8324 89.1934 38.5908C89.0612 38.3447 88.9951 38.0645 88.9951 37.75C88.9951 37.4401 89.0612 37.1484 89.1934 36.875C89.3301 36.6016 89.5238 36.36 89.7744 36.1504C90.0296 35.9362 90.3395 35.7699 90.7041 35.6514C91.0732 35.5283 91.488 35.4668 91.9482 35.4668C92.5908 35.4668 93.1423 35.5693 93.6025 35.7744C94.0674 35.9795 94.4229 36.262 94.6689 36.6221C94.9196 36.9775 95.0449 37.3831 95.0449 37.8389H93.0762C93.0762 37.6475 93.0352 37.4766 92.9531 37.3262C92.8757 37.1712 92.7526 37.0505 92.584 36.9639C92.4199 36.8727 92.2057 36.8271 91.9414 36.8271C91.7227 36.8271 91.5335 36.8659 91.374 36.9434C91.2145 37.0163 91.0915 37.1165 91.0049 37.2441C90.9229 37.3672 90.8818 37.5039 90.8818 37.6543C90.8818 37.7682 90.9046 37.8708 90.9502 37.9619C91.0003 38.0485 91.0801 38.1283 91.1895 38.2012C91.2988 38.2741 91.4401 38.3424 91.6133 38.4062C91.791 38.4655 92.0098 38.5202 92.2695 38.5703C92.8027 38.6797 93.279 38.8232 93.6982 39.001C94.1175 39.1742 94.4502 39.4111 94.6963 39.7119C94.9424 40.0081 95.0654 40.3978 95.0654 40.8809C95.0654 41.209 94.9925 41.5098 94.8467 41.7832C94.7008 42.0566 94.4912 42.2959 94.2178 42.501C93.9443 42.7015 93.6162 42.8587 93.2334 42.9727C92.8551 43.082 92.429 43.1367 91.9551 43.1367C91.2669 43.1367 90.6836 43.0137 90.2051 42.7676C89.7311 42.5215 89.3711 42.2093 89.125 41.8311C88.8835 41.4482 88.7627 41.0563 88.7627 40.6553H90.6289C90.638 40.9242 90.7064 41.1406 90.834 41.3047C90.9661 41.4688 91.1325 41.5872 91.333 41.6602C91.5381 41.7331 91.7591 41.7695 91.9961 41.7695C92.2513 41.7695 92.4632 41.7354 92.6318 41.667C92.8005 41.5941 92.9281 41.4984 93.0146 41.3799C93.1058 41.2568 93.1514 41.1156 93.1514 40.9561ZM98.5381 42.166L100.5 35.6035H102.612L99.6387 44.1143C99.5749 44.3011 99.4883 44.5016 99.3789 44.7158C99.2741 44.93 99.1305 45.1328 98.9482 45.3242C98.7705 45.5202 98.5449 45.6797 98.2715 45.8027C98.0026 45.9258 97.6722 45.9873 97.2803 45.9873C97.0934 45.9873 96.9408 45.9759 96.8223 45.9531C96.7038 45.9303 96.5625 45.8984 96.3984 45.8574V44.415C96.4486 44.415 96.501 44.415 96.5557 44.415C96.6104 44.4196 96.6628 44.4219 96.7129 44.4219C96.9727 44.4219 97.1846 44.3923 97.3486 44.333C97.5127 44.2738 97.6449 44.1826 97.7451 44.0596C97.8454 43.9411 97.9251 43.7861 97.9844 43.5947L98.5381 42.166ZM97.7178 35.6035L99.3242 40.9629L99.6045 43.0479L98.2646 43.1914L95.6055 35.6035H97.7178ZM107.397 40.9561C107.397 40.8148 107.356 40.6872 107.274 40.5732C107.192 40.4593 107.04 40.3545 106.816 40.2588C106.598 40.1585 106.281 40.0674 105.866 39.9854C105.493 39.9033 105.144 39.8008 104.82 39.6777C104.501 39.5501 104.223 39.3975 103.986 39.2197C103.754 39.042 103.572 38.8324 103.439 38.5908C103.307 38.3447 103.241 38.0645 103.241 37.75C103.241 37.4401 103.307 37.1484 103.439 36.875C103.576 36.6016 103.77 36.36 104.021 36.1504C104.276 35.9362 104.586 35.7699 104.95 35.6514C105.319 35.5283 105.734 35.4668 106.194 35.4668C106.837 35.4668 107.388 35.5693 107.849 35.7744C108.313 35.9795 108.669 36.262 108.915 36.6221C109.166 36.9775 109.291 37.3831 109.291 37.8389H107.322C107.322 37.6475 107.281 37.4766 107.199 37.3262C107.122 37.1712 106.999 37.0505 106.83 36.9639C106.666 36.8727 106.452 36.8271 106.188 36.8271C105.969 36.8271 105.78 36.8659 105.62 36.9434C105.461 37.0163 105.338 37.1165 105.251 37.2441C105.169 37.3672 105.128 37.5039 105.128 37.6543C105.128 37.7682 105.151 37.8708 105.196 37.9619C105.246 38.0485 105.326 38.1283 105.436 38.2012C105.545 38.2741 105.686 38.3424 105.859 38.4062C106.037 38.4655 106.256 38.5202 106.516 38.5703C107.049 38.6797 107.525 38.8232 107.944 39.001C108.364 39.1742 108.696 39.4111 108.942 39.7119C109.188 40.0081 109.312 40.3978 109.312 40.8809C109.312 41.209 109.239 41.5098 109.093 41.7832C108.947 42.0566 108.737 42.2959 108.464 42.501C108.19 42.7015 107.862 42.8587 107.479 42.9727C107.101 43.082 106.675 43.1367 106.201 43.1367C105.513 43.1367 104.93 43.0137 104.451 42.7676C103.977 42.5215 103.617 42.2093 103.371 41.8311C103.13 41.4482 103.009 41.0563 103.009 40.6553H104.875C104.884 40.9242 104.952 41.1406 105.08 41.3047C105.212 41.4688 105.379 41.5872 105.579 41.6602C105.784 41.7331 106.005 41.7695 106.242 41.7695C106.497 41.7695 106.709 41.7354 106.878 41.667C107.047 41.5941 107.174 41.4984 107.261 41.3799C107.352 41.2568 107.397 41.1156 107.397 40.9561ZM110.275 39.377V39.2334C110.275 38.6911 110.353 38.1921 110.508 37.7363C110.663 37.276 110.888 36.8773 111.185 36.54C111.481 36.2028 111.845 35.9408 112.278 35.7539C112.711 35.5625 113.208 35.4668 113.769 35.4668C114.329 35.4668 114.828 35.5625 115.266 35.7539C115.703 35.9408 116.07 36.2028 116.366 36.54C116.667 36.8773 116.895 37.276 117.05 37.7363C117.205 38.1921 117.282 38.6911 117.282 39.2334V39.377C117.282 39.9147 117.205 40.4137 117.05 40.874C116.895 41.3298 116.667 41.7285 116.366 42.0703C116.07 42.4076 115.705 42.6696 115.272 42.8564C114.84 43.0433 114.343 43.1367 113.782 43.1367C113.222 43.1367 112.723 43.0433 112.285 42.8564C111.852 42.6696 111.485 42.4076 111.185 42.0703C110.888 41.7285 110.663 41.3298 110.508 40.874C110.353 40.4137 110.275 39.9147 110.275 39.377ZM112.244 39.2334V39.377C112.244 39.6868 112.271 39.9762 112.326 40.2451C112.381 40.514 112.467 40.751 112.586 40.9561C112.709 41.1566 112.868 41.3138 113.064 41.4277C113.26 41.5417 113.5 41.5986 113.782 41.5986C114.056 41.5986 114.29 41.5417 114.486 41.4277C114.682 41.3138 114.84 41.1566 114.958 40.9561C115.076 40.751 115.163 40.514 115.218 40.2451C115.277 39.9762 115.307 39.6868 115.307 39.377V39.2334C115.307 38.9326 115.277 38.6501 115.218 38.3857C115.163 38.1169 115.074 37.8799 114.951 37.6748C114.833 37.4652 114.675 37.3011 114.479 37.1826C114.284 37.0641 114.047 37.0049 113.769 37.0049C113.491 37.0049 113.254 37.0641 113.058 37.1826C112.866 37.3011 112.709 37.4652 112.586 37.6748C112.467 37.8799 112.381 38.1169 112.326 38.3857C112.271 38.6501 112.244 38.9326 112.244 39.2334ZM121.548 41.5986C121.789 41.5986 122.004 41.5531 122.19 41.4619C122.377 41.3662 122.523 41.234 122.628 41.0654C122.737 40.8923 122.794 40.6895 122.799 40.457H124.651C124.647 40.9766 124.508 41.4391 124.234 41.8447C123.961 42.2458 123.594 42.5625 123.134 42.7949C122.674 43.0228 122.159 43.1367 121.589 43.1367C121.015 43.1367 120.513 43.041 120.085 42.8496C119.661 42.6582 119.308 42.3939 119.025 42.0566C118.743 41.7148 118.531 41.3184 118.39 40.8672C118.248 40.4115 118.178 39.9238 118.178 39.4043V39.2061C118.178 38.682 118.248 38.1943 118.39 37.7432C118.531 37.2874 118.743 36.891 119.025 36.5537C119.308 36.2119 119.661 35.9453 120.085 35.7539C120.509 35.5625 121.006 35.4668 121.575 35.4668C122.181 35.4668 122.712 35.583 123.168 35.8154C123.628 36.0479 123.988 36.3805 124.248 36.8135C124.512 37.2419 124.647 37.75 124.651 38.3379H122.799C122.794 38.0918 122.742 37.8685 122.642 37.668C122.546 37.4674 122.405 37.3079 122.218 37.1895C122.035 37.0664 121.81 37.0049 121.541 37.0049C121.254 37.0049 121.019 37.0664 120.837 37.1895C120.655 37.3079 120.513 37.472 120.413 37.6816C120.313 37.8867 120.242 38.1214 120.201 38.3857C120.165 38.6455 120.146 38.9189 120.146 39.2061V39.4043C120.146 39.6914 120.165 39.9671 120.201 40.2314C120.238 40.4958 120.306 40.7305 120.406 40.9355C120.511 41.1406 120.655 41.3024 120.837 41.4209C121.019 41.5394 121.256 41.5986 121.548 41.5986ZM127.871 35.6035V43H125.896V35.6035H127.871ZM125.772 33.6758C125.772 33.3887 125.873 33.1517 126.073 32.9648C126.274 32.778 126.543 32.6846 126.88 32.6846C127.213 32.6846 127.479 32.778 127.68 32.9648C127.885 33.1517 127.987 33.3887 127.987 33.6758C127.987 33.9629 127.885 34.1999 127.68 34.3867C127.479 34.5736 127.213 34.667 126.88 34.667C126.543 34.667 126.274 34.5736 126.073 34.3867C125.873 34.1999 125.772 33.9629 125.772 33.6758ZM133.49 41.332V38.0371C133.49 37.8001 133.451 37.5973 133.374 37.4287C133.297 37.2555 133.176 37.1211 133.012 37.0254C132.852 36.9297 132.645 36.8818 132.39 36.8818C132.171 36.8818 131.982 36.9206 131.822 36.998C131.663 37.071 131.54 37.1781 131.453 37.3193C131.367 37.4561 131.323 37.6178 131.323 37.8047H129.354C129.354 37.4902 129.427 37.1917 129.573 36.9092C129.719 36.6266 129.931 36.3783 130.209 36.1641C130.487 35.9453 130.817 35.7744 131.2 35.6514C131.588 35.5283 132.021 35.4668 132.499 35.4668C133.073 35.4668 133.584 35.5625 134.03 35.7539C134.477 35.9453 134.828 36.2324 135.083 36.6152C135.343 36.998 135.473 37.4766 135.473 38.0508V41.2158C135.473 41.6214 135.498 41.9541 135.548 42.2139C135.598 42.4691 135.671 42.6924 135.767 42.8838V43H133.777C133.682 42.7995 133.609 42.5488 133.559 42.248C133.513 41.9427 133.49 41.6374 133.49 41.332ZM133.75 38.4951L133.764 39.6094H132.663C132.403 39.6094 132.178 39.639 131.986 39.6982C131.795 39.7575 131.638 39.8418 131.515 39.9512C131.392 40.056 131.3 40.179 131.241 40.3203C131.187 40.4616 131.159 40.6165 131.159 40.7852C131.159 40.9538 131.198 41.1064 131.275 41.2432C131.353 41.3753 131.465 41.4801 131.61 41.5576C131.756 41.6305 131.927 41.667 132.123 41.667C132.419 41.667 132.677 41.6077 132.896 41.4893C133.114 41.3708 133.283 41.2249 133.401 41.0518C133.524 40.8786 133.588 40.7145 133.593 40.5596L134.112 41.3936C134.039 41.5804 133.939 41.7741 133.812 41.9746C133.688 42.1751 133.531 42.3643 133.34 42.542C133.148 42.7152 132.918 42.8587 132.649 42.9727C132.381 43.082 132.062 43.1367 131.692 43.1367C131.223 43.1367 130.797 43.0433 130.414 42.8564C130.036 42.665 129.735 42.403 129.512 42.0703C129.293 41.7331 129.184 41.3503 129.184 40.9219C129.184 40.5345 129.257 40.1904 129.402 39.8896C129.548 39.5889 129.762 39.3359 130.045 39.1309C130.332 38.9212 130.69 38.764 131.118 38.6592C131.547 38.5498 132.043 38.4951 132.608 38.4951H133.75ZM139.068 32.5V43H137.093V32.5H139.068Z"
    fill="black" fill-opacity="0.4" />
  <path
    d="M5.45537 32.4417C-1.81846 25.0306 -1.81846 12.9533 5.45537 5.54225C12.7292 -1.73158 24.532 -1.86882 31.9431 5.26777L32.3548 5.54225L33.041 6.22846L30.0217 9.24779L29.3355 8.56158C23.5713 2.79741 14.2389 2.79741 8.4747 8.56158C2.71053 14.3257 2.71053 23.6582 8.4747 29.4224C14.1016 35.0493 23.2968 35.1865 29.061 29.6969L29.3355 29.4224L30.0217 28.7362L33.041 31.7555C32.9038 31.8927 32.6293 32.1672 32.3548 32.4417C24.9437 39.8528 12.8664 39.8528 5.45537 32.4417Z"
    fill="#12B0EE" />
  <path d="M27.9631 11.3064L30.9824 14.3257L16.572 28.8734L9.02368 21.3251L12.1802 18.3057L16.572 22.8347L27.9631 11.3064Z" fill="#12B0EE" />
  <path
    d="M44.8705 27.371C42.8742 27.371 41.2047 26.6997 39.862 25.357C38.537 24.0143 37.8745 22.3537 37.8745 20.375C37.8745 18.3963 38.537 16.7357 39.862 15.393C41.2047 14.0503 42.8742 13.379 44.8705 13.379C46.1602 13.379 47.335 13.6882 48.395 14.3065C49.455 14.9248 50.2588 15.7552 50.8065 16.7975L47.865 18.52C47.6 17.9723 47.1937 17.5395 46.646 17.2215C46.116 16.9035 45.5153 16.7445 44.844 16.7445C43.8193 16.7445 42.9713 17.089 42.3 17.778C41.6287 18.4493 41.293 19.315 41.293 20.375C41.293 21.4173 41.6287 22.283 42.3 22.972C42.9713 23.6433 43.8193 23.979 44.844 23.979C45.533 23.979 46.1425 23.8288 46.6725 23.5285C47.2202 23.2105 47.6265 22.7777 47.8915 22.23L50.8595 23.926C50.2765 24.9683 49.455 25.8075 48.395 26.4435C47.335 27.0618 46.1602 27.371 44.8705 27.371ZM59.5345 13.379C60.9832 13.379 62.1757 13.8648 63.112 14.8365C64.066 15.8082 64.543 17.1508 64.543 18.8645V27H61.1245V19.2885C61.1245 18.4052 60.886 17.7338 60.409 17.2745C59.932 16.7975 59.296 16.559 58.501 16.559C57.6177 16.559 56.911 16.8328 56.381 17.3805C55.851 17.9282 55.586 18.7497 55.586 19.845V27H52.1675V8.45H55.586V15.234C56.4163 13.9973 57.7325 13.379 59.5345 13.379ZM77.0319 13.75H80.4504V27H77.0319V25.4365C76.0073 26.7262 74.5674 27.371 72.7124 27.371C70.9458 27.371 69.4264 26.6997 68.1544 25.357C66.9001 23.9967 66.2729 22.336 66.2729 20.375C66.2729 18.414 66.9001 16.7622 68.1544 15.4195C69.4264 14.0592 70.9458 13.379 72.7124 13.379C74.5674 13.379 76.0073 14.0238 77.0319 15.3135V13.75ZM70.7249 23.078C71.4139 23.767 72.2884 24.1115 73.3484 24.1115C74.4084 24.1115 75.2829 23.767 75.9719 23.078C76.6786 22.3713 77.0319 21.4703 77.0319 20.375C77.0319 19.2797 76.6786 18.3875 75.9719 17.6985C75.2829 16.9918 74.4084 16.6385 73.3484 16.6385C72.2884 16.6385 71.4139 16.9918 70.7249 17.6985C70.0359 18.3875 69.6914 19.2797 69.6914 20.375C69.6914 21.4703 70.0359 22.3713 70.7249 23.078ZM90.6293 17.036H87.6348V22.548C87.6348 23.0073 87.7496 23.343 87.9793 23.555C88.209 23.767 88.5447 23.8907 88.9863 23.926C89.428 23.9437 89.9757 23.9348 90.6293 23.8995V27C88.2797 27.265 86.619 27.0442 85.6473 26.3375C84.6933 25.6308 84.2163 24.3677 84.2163 22.548V17.036H81.9108V13.75H84.2163V11.0735L87.6348 10.04V13.75H90.6293V17.036ZM100 11.365C98.1274 11.2237 97.1911 11.9745 97.1911 13.6175V13.75H100V17.036H97.1911V27H93.7726V17.036H91.8646V13.75H93.7726V13.6175C93.7726 11.7448 94.2938 10.3227 95.3361 9.351C96.3784 8.37933 97.9331 7.95533 100 8.079V11.365ZM101.067 27V7.655H104.485V27H101.067ZM117.446 25.357C116.085 26.6997 114.425 27.371 112.464 27.371C110.503 27.371 108.842 26.6997 107.482 25.357C106.139 23.9967 105.468 22.336 105.468 20.375C105.468 18.414 106.139 16.7622 107.482 15.4195C108.842 14.0592 110.503 13.379 112.464 13.379C114.425 13.379 116.085 14.0592 117.446 15.4195C118.806 16.7622 119.486 18.414 119.486 20.375C119.486 22.336 118.806 23.9967 117.446 25.357ZM109.893 22.9985C110.582 23.6875 111.439 24.032 112.464 24.032C113.488 24.032 114.345 23.6875 115.034 22.9985C115.723 22.3095 116.068 21.435 116.068 20.375C116.068 19.315 115.723 18.4405 115.034 17.7515C114.345 17.0625 113.488 16.718 112.464 16.718C111.439 16.718 110.582 17.0625 109.893 17.7515C109.222 18.4405 108.886 19.315 108.886 20.375C108.886 21.435 109.222 22.3095 109.893 22.9985ZM135.233 13.75H138.864L134.65 27H131.391L128.953 18.9705L126.515 27H123.255L119.042 13.75H122.672L124.925 21.8855L127.336 13.75H130.569L132.981 21.912L135.233 13.75Z"
    fill="#3C4555" />
</svg>