<svg width="201" height="261" viewBox="0 0 201 261" fill="none" xmlns="http://www.w3.org/2000/svg">
  <path
    d="M72.1658 123.731C67.4565 123.731 62.94 121.86 59.61 118.53C56.28 115.2 54.4092 110.683 54.4092 105.974C54.4108 101.266 56.2823 96.7509 59.6122 93.4222C62.942 90.0936 67.4576 88.2236 72.1658 88.2236C76.8741 88.2236 81.3897 90.0936 84.7195 93.4222C88.0494 96.7509 89.9209 101.266 89.9225 105.974C89.9225 110.683 88.0517 115.2 84.7217 118.53C81.3917 121.86 76.8752 123.731 72.1658 123.731Z"
    fill="#EBEBEB" />
  <path
    d="M74.4747 228.94C72.4853 228.94 70.5154 228.548 68.6776 227.787C66.8397 227.026 65.1699 225.909 63.7635 224.502C62.3571 223.095 61.2416 221.425 60.4809 219.587C59.7202 217.749 59.329 215.779 59.3298 213.789C59.3298 209.773 60.9254 205.921 63.7657 203.08C66.6059 200.24 70.458 198.645 74.4747 198.645C76.4635 198.645 78.4329 199.036 80.2704 199.797C82.1078 200.558 83.7774 201.674 85.1837 203.08C86.59 204.487 87.7056 206.156 88.4667 207.994C89.2278 209.831 89.6195 211.801 89.6195 213.789C89.6203 215.779 89.2292 217.749 88.4685 219.587C87.7077 221.425 86.5923 223.095 85.1859 224.502C83.7795 225.909 82.1097 227.026 80.2718 227.787C78.4339 228.548 76.4641 228.94 74.4747 228.94Z"
    fill="#12B0EE" />
  <path fill-rule="evenodd" clip-rule="evenodd"
    d="M82.7805 213.374C82.7198 211.265 81.8442 209.262 80.3377 207.784C78.8311 206.307 76.8107 205.471 74.7009 205.452C72.591 205.433 70.5557 206.232 69.0225 207.681C67.4893 209.131 66.5773 211.118 66.4782 213.226C66.4782 213.343 66.4782 213.461 66.4782 213.579C66.48 215.054 66.8845 216.5 67.648 217.762L66.1812 222.095L70.6992 220.659C71.9372 221.339 73.3305 221.686 74.7428 221.667C76.1551 221.647 77.5382 221.261 78.7569 220.547C79.9755 219.833 80.988 218.815 81.6955 217.593C82.4029 216.37 82.781 214.985 82.7928 213.572L82.7805 213.374ZM74.6232 220.38C73.2833 220.384 71.9721 219.992 70.854 219.254L68.2174 220.096L69.0715 217.571C68.224 216.412 67.7667 215.014 67.7656 213.579C67.7654 213.357 67.7778 213.136 67.8027 212.916C67.9874 211.224 68.7947 209.66 70.0677 208.529C71.3408 207.399 72.9886 206.781 74.6913 206.797C76.3939 206.814 78.0298 207.462 79.281 208.617C80.5323 209.772 81.3097 211.35 81.4622 213.046C81.4622 213.226 81.4622 213.399 81.4622 213.579C81.4507 215.385 80.7253 217.115 79.4442 218.389C78.163 219.663 76.4301 220.379 74.6232 220.38Z"
    fill="white" />
  <path fill-rule="evenodd" clip-rule="evenodd"
    d="M78.3673 215.213C78.1631 215.114 77.179 214.631 76.9995 214.594C76.82 214.557 76.6777 214.495 76.5477 214.693C76.4177 214.891 76.0278 215.312 75.9288 215.466C75.8298 215.621 75.6998 215.615 75.4956 215.516C74.9057 215.285 74.361 214.952 73.8864 214.532C73.4511 214.131 73.0777 213.668 72.7785 213.158C72.6609 212.96 72.7785 212.855 72.8652 212.756C72.9518 212.656 73.0632 212.52 73.1684 212.409L73.2365 212.31C73.2851 212.234 73.3285 212.156 73.3665 212.075C73.3958 212.022 73.4111 211.962 73.4111 211.901C73.4111 211.841 73.3958 211.781 73.3665 211.728C73.317 211.629 72.9147 210.651 72.7476 210.255C72.5805 209.859 72.4196 209.927 72.2958 209.927C72.172 209.927 72.0482 209.927 71.9182 209.927C71.8164 209.93 71.7161 209.953 71.6235 209.995C71.5309 210.038 71.448 210.099 71.3798 210.175C71.156 210.388 70.9788 210.646 70.8595 210.931C70.7402 211.217 70.6814 211.524 70.6866 211.833C70.6883 212.062 70.7217 212.289 70.7856 212.508C70.9419 213.005 71.1849 213.47 71.5036 213.882C71.6026 214.012 72.8837 216.079 74.9138 216.877C76.9438 217.676 76.95 217.404 77.3152 217.373C77.5947 217.321 77.8599 217.209 78.0926 217.046C78.3254 216.882 78.5204 216.671 78.6644 216.426C78.7954 216.13 78.8363 215.803 78.782 215.485C78.6954 215.361 78.5654 215.287 78.3673 215.213Z"
    fill="white" />
  <path
    d="M33.1371 131.827C31.604 131.828 30.0857 131.526 28.6692 130.94C27.2526 130.354 25.9655 129.494 24.8814 128.41C23.7973 127.326 22.9376 126.039 22.3512 124.622C21.7649 123.206 21.4635 121.687 21.4644 120.154C21.4635 118.621 21.7649 117.103 22.3512 115.686C22.9376 114.27 23.7973 112.983 24.8814 111.899C25.9655 110.814 27.2526 109.955 28.6692 109.368C30.0857 108.782 31.604 108.481 33.1371 108.481C36.2329 108.481 39.2019 109.711 41.391 111.9C43.58 114.089 44.8098 117.058 44.8098 120.154C44.8098 123.25 43.58 126.219 41.391 128.408C39.2019 130.597 36.2329 131.827 33.1371 131.827Z"
    fill="#12B0EE" />
  <path
    d="M19.1125 187.585C14.8742 187.585 10.8095 185.901 7.81263 182.904C4.81573 179.907 3.13208 175.843 3.13208 171.604C3.13208 167.366 4.81573 163.301 7.81263 160.305C10.8095 157.308 14.8742 155.624 19.1125 155.624C23.3507 155.624 27.4154 157.308 30.4123 160.305C33.4092 163.301 35.0928 167.366 35.0928 171.604C35.0928 175.843 33.4092 179.907 30.4123 182.904C27.4154 185.901 23.3507 187.585 19.1125 187.585Z"
    fill="#455A64" />
  <path
    d="M58.0605 85.1602C55.5064 85.1602 53.0569 84.1456 51.2508 82.3396C49.4448 80.5335 48.4302 78.084 48.4302 75.5299C48.4318 72.9768 49.4472 70.5289 51.253 68.7242C53.0589 66.9195 55.5074 65.9058 58.0605 65.9058C60.613 65.9058 63.0609 66.9197 64.8658 68.7246C66.6707 70.5295 67.6846 72.9774 67.6846 75.5299C67.6846 78.0829 66.6709 80.5315 64.8662 82.3374C63.0615 84.1432 60.6135 85.1586 58.0605 85.1602Z"
    fill="#455A64" />
  <path fill-rule="evenodd" clip-rule="evenodd"
    d="M40.1921 119.324C40.1402 117.52 39.3914 115.806 38.1028 114.543C36.8142 113.279 35.0862 112.564 33.2816 112.548C31.477 112.531 29.7362 113.215 28.4248 114.454C27.1135 115.694 26.3335 117.394 26.2487 119.197C26.2487 119.297 26.2487 119.398 26.2487 119.498C26.2502 120.76 26.5962 121.997 27.2492 123.077L25.9946 126.782L29.859 125.554C30.9178 126.136 32.1095 126.433 33.3175 126.416C34.5254 126.399 35.7084 126.07 36.7507 125.459C37.793 124.848 38.6591 123.977 39.2641 122.932C39.8692 121.886 40.1926 120.701 40.2027 119.493L40.1921 119.324ZM33.2151 125.316C32.0691 125.319 30.9477 124.984 29.9913 124.353L27.7362 125.073L28.4668 122.913C27.7419 121.922 27.3508 120.726 27.3498 119.498C27.3497 119.309 27.3603 119.12 27.3816 118.932C27.5396 117.484 28.23 116.147 29.3188 115.18C30.4077 114.213 31.8171 113.685 33.2734 113.698C34.7297 113.712 36.1288 114.267 37.1991 115.255C38.2693 116.242 38.9342 117.593 39.0646 119.043C39.0646 119.197 39.0646 119.345 39.0646 119.498C39.0548 121.044 38.4344 122.523 37.3386 123.613C36.2428 124.702 34.7606 125.315 33.2151 125.316Z"
    fill="white" />
  <path fill-rule="evenodd" clip-rule="evenodd"
    d="M36.4178 120.896C36.2431 120.811 35.4014 120.398 35.2479 120.366C35.0944 120.335 34.9726 120.282 34.8615 120.451C34.7503 120.62 34.4168 120.98 34.3321 121.113C34.2474 121.245 34.1362 121.24 33.9616 121.155C33.457 120.957 32.9912 120.672 32.5852 120.313C32.2129 119.971 31.8936 119.575 31.6377 119.138C31.5371 118.969 31.6377 118.879 31.7118 118.794C31.7859 118.709 31.8812 118.593 31.9712 118.498L32.0294 118.413C32.0709 118.348 32.108 118.281 32.1406 118.212C32.1656 118.166 32.1787 118.115 32.1787 118.064C32.1787 118.012 32.1656 117.961 32.1406 117.915C32.0982 117.831 31.7541 116.994 31.6112 116.655C31.4683 116.317 31.3306 116.375 31.2248 116.375C31.1189 116.375 31.013 116.375 30.9018 116.375C30.8147 116.377 30.7289 116.397 30.6497 116.433C30.5706 116.47 30.4996 116.522 30.4413 116.587C30.2499 116.769 30.0984 116.99 29.9963 117.234C29.8943 117.478 29.8439 117.741 29.8484 118.005C29.8499 118.201 29.8784 118.395 29.9331 118.582C30.0667 119.007 30.2747 119.405 30.5472 119.758C30.6319 119.869 31.7276 121.637 33.464 122.32C35.2003 123.003 35.2056 122.77 35.5179 122.743C35.757 122.699 35.9838 122.603 36.1829 122.464C36.3819 122.324 36.5487 122.143 36.6719 121.933C36.7839 121.681 36.8189 121.401 36.7725 121.129C36.6984 121.023 36.5872 120.959 36.4178 120.896Z"
    fill="white" />
  <path fill-rule="evenodd" clip-rule="evenodd"
    d="M85.3488 105.176C85.2631 102.196 84.0258 99.3645 81.8969 97.277C79.7679 95.1895 76.9129 94.0081 73.9314 93.9809C70.9499 93.9538 68.0739 95.083 65.9072 97.1313C63.7406 99.1797 62.452 101.988 62.3119 104.966C62.3119 105.132 62.3119 105.299 62.3119 105.465C62.3144 107.549 62.8859 109.594 63.9649 111.377L61.8921 117.499L68.2767 115.47C70.0261 116.431 71.9949 116.922 73.9907 116.894C75.9865 116.866 77.9409 116.321 79.663 115.312C81.3851 114.303 82.8159 112.865 83.8156 111.137C84.8153 109.409 85.3496 107.452 85.3663 105.456L85.3488 105.176ZM73.8216 115.077C71.9282 115.082 70.0754 114.528 68.4953 113.485L64.7695 114.674L65.9765 111.106C64.7789 109.469 64.1327 107.493 64.1311 105.465C64.1309 105.152 64.1484 104.84 64.1835 104.529C64.4446 102.137 65.5853 99.9275 67.3843 98.3295C69.1832 96.7316 71.5119 95.8594 73.9179 95.8823C76.3239 95.9052 78.6355 96.8215 80.4037 98.4534C82.1719 100.085 83.2705 102.316 83.4859 104.713C83.4859 104.966 83.4859 105.211 83.4859 105.465C83.4698 108.018 82.4447 110.461 80.6343 112.262C78.8239 114.063 76.375 115.074 73.8216 115.077Z"
    fill="white" />
  <path fill-rule="evenodd" clip-rule="evenodd"
    d="M79.1125 107.774C78.8239 107.634 77.4333 106.952 77.1797 106.9C76.926 106.847 76.7249 106.76 76.5412 107.04C76.3575 107.319 75.8065 107.914 75.6666 108.133C75.5267 108.351 75.343 108.343 75.0544 108.203C74.2208 107.876 73.4511 107.405 72.7804 106.812C72.1653 106.246 71.6377 105.592 71.2149 104.871C71.0487 104.591 71.2149 104.442 71.3373 104.302C71.4598 104.162 71.6172 103.97 71.7659 103.812L71.8621 103.672C71.9307 103.566 71.992 103.455 72.0458 103.34C72.0871 103.265 72.1088 103.181 72.1088 103.095C72.1088 103.009 72.0871 102.925 72.0458 102.85C71.9758 102.71 71.4073 101.328 71.1712 100.769C70.935 100.209 70.7076 100.305 70.5327 100.305C70.3578 100.305 70.1829 100.305 69.9992 100.305C69.8552 100.309 69.7135 100.341 69.5827 100.402C69.4518 100.462 69.3347 100.548 69.2383 100.655C68.922 100.957 68.6717 101.321 68.5031 101.724C68.3345 102.128 68.2513 102.562 68.2588 102.999C68.2612 103.322 68.3083 103.642 68.3987 103.952C68.6195 104.654 68.963 105.312 69.4132 105.894C69.5532 106.077 71.3636 108.999 74.2323 110.127C77.1009 111.255 77.1097 110.87 77.6257 110.827C78.0208 110.753 78.3954 110.595 78.7243 110.365C79.0533 110.134 79.3288 109.835 79.5323 109.488C79.7174 109.071 79.7752 108.609 79.6985 108.159C79.576 107.984 79.3924 107.879 79.1125 107.774Z"
    fill="white" />
  <path fill-rule="evenodd" clip-rule="evenodd"
    d="M27.7397 171.221C27.679 169.112 26.8034 167.108 25.2969 165.631C23.7903 164.154 21.77 163.318 19.6601 163.299C17.5502 163.279 15.5149 164.079 13.9817 165.528C12.4485 166.978 11.5366 168.965 11.4375 171.072C11.4375 171.19 11.4375 171.308 11.4375 171.425C11.4392 172.9 11.8437 174.347 12.6072 175.609L11.1404 179.942L15.6585 178.506C16.8964 179.186 18.2897 179.533 19.702 179.513C21.1144 179.494 22.4974 179.108 23.7161 178.394C24.9347 177.68 25.9473 176.662 26.6547 175.439C27.3621 174.217 27.7402 172.832 27.7521 171.419L27.7397 171.221ZM19.5824 178.227C18.2425 178.231 16.9314 177.839 15.8132 177.101L13.1766 177.942L14.0307 175.417C13.1833 174.259 12.726 172.861 12.7248 171.425C12.7247 171.204 12.7371 170.983 12.7619 170.763C12.9467 169.07 13.7539 167.507 15.027 166.376C16.3 165.245 17.9479 164.628 19.6505 164.644C21.3532 164.66 22.989 165.309 24.2403 166.464C25.4915 167.618 26.2689 169.197 26.4214 170.893C26.4214 171.072 26.4214 171.246 26.4214 171.425C26.41 173.232 25.6846 174.961 24.4034 176.235C23.1223 177.51 21.3893 178.226 19.5824 178.227Z"
    fill="white" />
  <path fill-rule="evenodd" clip-rule="evenodd"
    d="M23.3266 173.059C23.1223 172.96 22.1382 172.477 21.9588 172.44C21.7793 172.403 21.6369 172.341 21.5069 172.539C21.377 172.737 20.9871 173.158 20.888 173.313C20.789 173.468 20.659 173.461 20.4548 173.362C19.8649 173.131 19.3202 172.798 18.8456 172.378C18.4103 171.978 18.037 171.515 17.7378 171.004C17.6202 170.806 17.7378 170.701 17.8244 170.602C17.9111 170.503 18.0225 170.367 18.1277 170.255L18.1958 170.156C18.2443 170.081 18.2877 170.002 18.3257 169.921C18.355 169.868 18.3703 169.808 18.3703 169.748C18.3703 169.687 18.355 169.628 18.3257 169.575C18.2762 169.476 17.8739 168.498 17.7068 168.102C17.5397 167.705 17.3788 167.773 17.255 167.773C17.1312 167.773 17.0074 167.773 16.8775 167.773C16.7756 167.776 16.6753 167.799 16.5827 167.842C16.4901 167.884 16.4072 167.945 16.339 168.021C16.1152 168.235 15.9381 168.492 15.8188 168.778C15.6995 169.063 15.6406 169.37 15.6458 169.68C15.6476 169.908 15.6809 170.135 15.7448 170.354C15.9011 170.851 16.1442 171.316 16.4628 171.728C16.5618 171.858 17.843 173.926 19.873 174.724C21.9031 175.522 21.9092 175.25 22.2744 175.219C22.554 175.167 22.8191 175.055 23.0519 174.892C23.2846 174.729 23.4796 174.517 23.6236 174.272C23.7546 173.977 23.7955 173.65 23.7412 173.331C23.6546 173.208 23.5246 173.133 23.3266 173.059Z"
    fill="white" />
  <path fill-rule="evenodd" clip-rule="evenodd"
    d="M64.2687 74.7893C64.2261 73.3077 63.611 71.9002 62.5526 70.8624C61.4943 69.8247 60.075 69.2374 58.5928 69.2239C57.1106 69.2104 55.6808 69.7717 54.6037 70.79C53.5266 71.8083 52.886 73.2044 52.8164 74.685C52.8164 74.7676 52.8164 74.8502 52.8164 74.9328C52.8176 75.9691 53.1017 76.9853 53.6381 77.872L52.6077 80.9155L55.7816 79.9068C56.6513 80.3845 57.6301 80.6285 58.6222 80.6147C59.6144 80.6009 60.586 80.33 61.4421 79.8283C62.2982 79.3267 63.0095 78.6115 63.5065 77.7526C64.0035 76.8938 64.2691 75.9207 64.2774 74.9285L64.2687 74.7893ZM58.5382 79.7112C57.5969 79.7137 56.6758 79.4384 55.8903 78.9198L54.0381 79.5111L54.6381 77.7372C54.0428 76.9233 53.7215 75.9412 53.7207 74.9328C53.7206 74.7774 53.7293 74.6221 53.7468 74.4676C53.8766 73.2785 54.4437 72.1801 55.338 71.3857C56.2323 70.5913 57.3899 70.1577 58.586 70.1691C59.7822 70.1805 60.9313 70.636 61.8104 71.4473C62.6894 72.2585 63.2355 73.3675 63.3426 74.5589C63.3426 74.685 63.3426 74.8067 63.3426 74.9328C63.3346 76.2021 62.825 77.4168 61.925 78.3119C61.025 79.2071 59.8075 79.71 58.5382 79.7112Z"
    fill="white" />
  <path fill-rule="evenodd" clip-rule="evenodd"
    d="M61.1687 76.0805C61.0252 76.0109 60.3339 75.6718 60.2078 75.6457C60.0817 75.6196 59.9817 75.5761 59.8904 75.7153C59.7991 75.8544 59.5252 76.1501 59.4556 76.2588C59.386 76.3675 59.2947 76.3631 59.1512 76.2935C58.7368 76.1311 58.3542 75.8971 58.0208 75.6022C57.715 75.3208 57.4527 74.9955 57.2425 74.637C57.1599 74.4979 57.2425 74.4239 57.3034 74.3544C57.3643 74.2848 57.4425 74.1892 57.5164 74.1109L57.5643 74.0413C57.5984 73.9884 57.6289 73.9332 57.6556 73.8761C57.6761 73.8388 57.6869 73.7969 57.6869 73.7544C57.6869 73.7118 57.6761 73.6699 57.6556 73.6326C57.6208 73.5631 57.3382 72.8761 57.2208 72.5978C57.1034 72.3196 56.9903 72.3674 56.9034 72.3674C56.8164 72.3674 56.7295 72.3674 56.6382 72.3674C56.5666 72.3691 56.4961 72.3854 56.4311 72.4153C56.3661 72.4452 56.3078 72.4881 56.2599 72.5413C56.1027 72.6914 55.9782 72.8724 55.8944 73.0729C55.8106 73.2735 55.7692 73.4892 55.7729 73.7065C55.7742 73.867 55.7976 74.0265 55.8425 74.1805C55.9523 74.5295 56.123 74.8563 56.3468 75.1457C56.4164 75.237 57.3164 76.6892 58.7425 77.2501C60.1686 77.8109 60.173 77.6196 60.4295 77.5979C60.6259 77.5613 60.8122 77.483 60.9757 77.3682C61.1392 77.2535 61.2762 77.1049 61.3774 76.9327C61.4694 76.7253 61.4981 76.4954 61.46 76.2718C61.3991 76.1848 61.3078 76.1327 61.1687 76.0805Z"
    fill="white" />
  <path
    d="M187.705 0.759277H104.609C97.4616 0.759277 91.6675 6.55339 91.6675 13.7008V246.24C91.6675 253.387 97.4616 259.181 104.609 259.181H187.705C194.852 259.181 200.646 253.387 200.646 246.24V13.7008C200.646 6.55339 194.852 0.759277 187.705 0.759277Z"
    fill="#263238" />
  <path
    d="M177.876 0.865234H96.8105C89.1026 0.865234 82.854 7.11379 82.854 14.8218V245.33C82.854 253.038 89.1026 259.287 96.8105 259.287H177.876C185.584 259.287 191.833 253.038 191.833 245.33V14.8218C191.833 7.11379 185.584 0.865234 177.876 0.865234Z"
    fill="#455A64" />
  <path
    d="M175.401 4.98622H160.596C158.61 4.98622 157.001 6.97294 157.007 9.43622V12.6174C157.007 15.0931 155.398 17.0674 153.411 17.0613L124.551 17.0241C122.57 17.0241 120.955 15.025 120.955 12.5617V9.36195C120.955 6.88629 119.346 4.90576 117.359 4.90576H112.148H99.1939C92.7572 4.90576 87.5397 11.0949 87.5459 18.6952L87.6449 240.081C87.6449 247.7 92.8686 253.883 99.2991 253.895L175.512 254C181.943 254 187.16 247.811 187.154 240.211L187.055 18.8252C187.049 11.1816 181.838 4.9986 175.401 4.98622Z"
    fill="#F4F6F9" />
  <path
    d="M175.4 4.98678H175.852C176.299 4.99298 176.745 5.04064 177.183 5.12913C178.918 5.46228 180.545 6.21916 181.917 7.33246C182.915 8.15614 183.794 9.11427 184.529 10.1795C185.404 11.4768 186.064 12.9061 186.485 14.4129C186.726 15.2575 186.896 16.1208 186.993 16.9937C187.086 17.9294 187.125 18.8696 187.11 19.8098C187.11 21.7532 187.11 23.8162 187.11 25.9989C187.11 43.5266 187.16 68.8836 187.191 100.213C187.222 131.542 187.246 168.863 187.277 210.287C187.277 215.465 187.277 220.707 187.277 226.014C187.277 228.663 187.277 231.328 187.277 234.01V238.045C187.319 239.402 187.278 240.76 187.153 242.112C187.01 243.48 186.677 244.821 186.163 246.097C185.669 247.389 184.98 248.598 184.121 249.681C183.262 250.777 182.229 251.724 181.063 252.485C179.88 253.242 178.556 253.752 177.17 253.982C175.784 254.142 174.387 254.194 172.993 254.137H168.815H160.398L126.017 254.094H108.434H99.5523C98.0384 254.11 96.5385 253.804 95.1518 253.196C93.7685 252.578 92.5196 251.695 91.4754 250.597C89.3978 248.376 88.0613 245.564 87.6505 242.551C87.4676 241.069 87.4014 239.575 87.4525 238.082V233.608C87.4525 227.703 87.4525 221.84 87.4525 216.018C87.4525 204.378 87.4525 192.914 87.4525 181.625C87.4525 159.084 87.4525 137.336 87.4525 116.639C87.4525 95.9425 87.4525 76.2363 87.4525 57.8421V18.5658C87.4896 14.45 89.0678 10.3713 92.0077 7.69144C93.4398 6.34543 95.2114 5.41473 97.1323 4.99916C97.6027 4.89538 98.0809 4.83119 98.562 4.80729C99.0447 4.77016 99.5151 4.76397 99.9855 4.77016H102.802H113.682H116.312C116.752 4.77016 117.173 4.77016 117.618 4.77016C118.053 4.81213 118.474 4.94272 118.856 5.15389C119.618 5.59412 120.218 6.26643 120.571 7.07252C120.916 7.85096 121.081 8.69716 121.053 9.54818V12.0238C121.005 12.8254 121.123 13.6283 121.4 14.3819C121.667 15.1197 122.142 15.7645 122.768 16.2386C123.072 16.4731 123.419 16.6456 123.789 16.7462C124.161 16.8395 124.545 16.877 124.928 16.8576L142.257 16.8947H149.907H153.491C154.044 16.8639 154.582 16.6955 155.054 16.4048C155.526 16.1141 155.918 15.7103 156.195 15.2298C156.729 14.3427 156.99 13.3181 156.944 12.2838C156.944 11.2502 156.944 10.2476 156.944 9.27586C156.957 8.32194 157.233 7.39011 157.743 6.58358C158.217 5.82161 158.955 5.26012 159.816 5.00534C160.223 4.92056 160.639 4.88935 161.054 4.91251H164.483H168.351H173.593H175.382H173.593H161.072C160.658 4.88942 160.241 4.92063 159.835 5.00534C158.982 5.28411 158.265 5.87127 157.823 6.65166C157.327 7.44255 157.057 8.35456 157.043 9.28824V12.2838C157.108 13.3701 156.838 14.4502 156.27 15.3784C155.985 15.8731 155.582 16.2897 155.097 16.591C154.612 16.8923 154.06 17.0689 153.491 17.1051H142.27H124.94C124.541 17.123 124.141 17.0855 123.752 16.9937C123.362 16.8801 122.995 16.6977 122.669 16.4553C122.016 15.9581 121.519 15.2835 121.239 14.5119C120.951 13.7392 120.827 12.9152 120.874 12.0919C120.874 11.275 120.874 10.4518 120.874 9.61626C120.907 8.7907 120.748 7.96879 120.41 7.21487C120.077 6.43926 119.507 5.78913 118.782 5.35812C118.416 5.15911 118.014 5.03696 117.6 4.99916C117.185 4.99916 116.74 4.99916 116.306 4.99916H113.676H102.795H99.9793C99.5086 4.98679 99.0376 4.99918 98.5682 5.03629C98.0972 5.05506 97.629 5.11722 97.1694 5.22196C95.2894 5.63137 93.5563 6.54498 92.1562 7.86473C89.2721 10.4951 87.7186 14.5181 87.6876 18.572C87.6567 22.6259 87.6876 26.8592 87.6876 31.1359C87.6876 39.6893 87.6876 48.5749 87.6876 57.7926C87.6876 76.2177 87.7186 95.9054 87.731 116.59C87.7434 137.274 87.731 159.053 87.7681 181.576C87.7681 192.852 87.7681 204.317 87.7681 215.969C87.7681 221.786 87.7681 227.65 87.7681 233.558V237.99C87.717 239.465 87.7812 240.943 87.96 242.409C88.3571 245.347 89.6543 248.091 91.6735 250.263C92.6894 251.329 93.902 252.189 95.2446 252.794C96.5913 253.38 98.0465 253.675 99.5151 253.661H108.397H125.986L160.361 253.71H168.778H172.956C174.331 253.77 175.71 253.72 177.078 253.562C178.423 253.338 179.709 252.845 180.859 252.113C181.996 251.372 183.002 250.448 183.836 249.378C184.682 248.319 185.359 247.135 185.841 245.868C186.343 244.62 186.67 243.307 186.813 241.969C186.932 240.628 186.973 239.28 186.937 237.934C186.937 236.585 186.937 235.24 186.937 233.899V226.007C186.937 220.705 186.937 215.463 186.937 210.281C186.937 168.857 186.937 131.542 186.937 100.213C186.937 68.8836 186.937 43.5204 186.937 25.9928C186.937 23.8018 186.937 21.7387 186.937 19.8036C186.983 18.8652 186.975 17.925 186.912 16.9875C186.819 16.1191 186.653 15.26 186.417 14.419C186.007 12.9202 185.355 11.4985 184.486 10.2104C183.761 9.14485 182.89 8.18646 181.899 7.36341C180.533 6.26661 178.921 5.51887 177.201 5.18483C176.765 5.09517 176.322 5.04135 175.877 5.02391L175.4 4.98678Z"
    fill="#263238" />
  <path d="M113.453 230.841L111.825 254.923L122.217 256.198L127.193 231.608L113.453 230.841Z" fill="#FFBE9D" />
  <path
    d="M111.956 251.742L111.857 252.429C111.857 252.429 99.5278 255.56 99.1069 257.764L122.353 260.759L123.034 252.986C121.206 253.584 119.271 253.783 117.36 253.568C115.448 253.353 113.605 252.731 111.956 251.742Z"
    fill="#12B0EE" />
  <path
    d="M120.36 255.152C120.575 255.25 120.746 255.423 120.842 255.638C120.938 255.854 120.951 256.097 120.88 256.322C120.792 256.54 120.623 256.715 120.408 256.812C120.194 256.909 119.951 256.919 119.729 256.842C119.501 256.739 119.319 256.556 119.218 256.327C119.118 256.099 119.106 255.841 119.184 255.604C119.301 255.392 119.494 255.233 119.723 255.157C119.953 255.081 120.202 255.095 120.422 255.195"
    fill="white" />
  <path d="M122.353 260.759L122.52 258.902L100.178 256.718C100.178 256.718 99.0821 257.033 99.1069 257.776L122.353 260.759Z" fill="white" />
  <path
    d="M111.769 252.484C111.769 252.602 112.32 252.726 112.828 253.159C113.335 253.592 113.577 254.112 113.688 254.081C113.799 254.05 113.688 253.375 113.069 252.843C112.45 252.311 111.757 252.379 111.769 252.484Z"
    fill="#263238" />
  <path
    d="M109.202 253.178C109.158 253.289 109.629 253.543 109.95 254.075C110.272 254.607 110.322 255.127 110.433 255.133C110.545 255.14 110.699 254.514 110.285 253.858C109.87 253.202 109.214 253.072 109.202 253.178Z"
    fill="#263238" />
  <path
    d="M107.438 255.919C107.537 255.956 107.772 255.412 107.555 254.749C107.339 254.087 106.85 253.778 106.788 253.864C106.726 253.951 107.011 254.329 107.178 254.873C107.345 255.418 107.326 255.894 107.438 255.919Z"
    fill="#263238" />
  <path
    d="M155.434 36.9966C155.688 35.3317 157.186 34.0567 158.82 33.6544C160.484 33.3378 162.204 33.5119 163.771 34.1557C165.573 34.7479 167.207 35.7622 168.537 37.1142C169.194 37.7957 169.71 38.6003 170.055 39.4819C170.4 40.3635 170.568 41.3046 170.548 42.2511C170.449 44.0151 169.57 45.7913 170.065 47.4872C170.437 48.7807 171.526 49.7215 172.622 50.5013C173.717 51.2811 174.905 52.0114 175.642 53.1317C176.378 54.2519 176.502 55.9292 175.506 56.8452C174.621 57.6498 173.03 57.7426 172.659 58.8752C172.424 59.5808 172.82 60.3173 173.036 61.029C173.237 61.7889 173.277 62.5826 173.152 63.3587C173.027 64.1348 172.741 64.8761 172.312 65.5347C171.433 66.8347 170.247 67.8976 168.859 68.6293C166.463 69.9785 163.474 70.6098 160.943 69.5329C159.701 68.9698 158.633 68.0852 157.848 66.9706C156.571 65.0816 155.856 62.8688 155.787 60.5896C155.72 58.3238 155.867 56.0568 156.227 53.8187"
    fill="#263238" />
  <path
    d="M154.555 63.9073C155.604 64.2009 156.707 64.2445 157.776 64.0344C158.844 63.8244 159.849 63.3666 160.708 62.6979C161.568 62.0291 162.259 61.1681 162.725 60.1839C163.191 59.1997 163.42 58.1199 163.394 57.0311C163.35 55.0135 162.44 52.9587 163.066 51.04C163.499 49.7218 164.6 48.6944 164.972 47.3266C165.523 45.3275 164.316 43.316 163.165 41.5954C162.486 40.4428 161.636 39.3994 160.646 38.5008C160.145 38.0567 159.553 37.7287 158.911 37.5404C158.269 37.352 157.593 37.308 156.932 37.4115"
    fill="#263238" />
  <path
    d="M135.938 37.6587C136.05 39.1812 135.041 40.5428 134.026 41.6878C133.011 42.8328 131.884 44.0211 131.668 45.5375C131.278 48.2174 133.902 50.7054 133.358 53.3606C133.073 54.7779 131.903 55.9229 131.699 57.3588C131.495 58.7946 132.243 60.1067 133.166 61.1651C134.088 62.2234 135.214 63.1085 136.031 64.2597C136.031 64.2597 137.727 67.051 142.963 65.2623"
    fill="#263238" />
  <path
    d="M159.358 39.98C159.401 38.5936 158.12 37.5043 156.833 37.0216C155.545 36.5388 154.116 36.3222 152.971 35.5547C151.956 34.8677 151.275 33.8032 150.415 32.9305C149.354 31.8546 148.026 31.0804 146.567 30.6875C145.109 30.2945 143.572 30.2969 142.114 30.6946C140.657 31.0922 139.331 31.8706 138.274 32.9499C137.217 34.0292 136.466 35.3705 136.099 36.8359C135.604 38.804 135.938 41.1312 137.492 42.4433C139.293 43.9596 141.966 43.6192 144.3 43.1488C146.633 42.6785 149.22 42.2081 151.145 43.5635C152.308 44.3805 153.002 45.7111 153.689 46.9428C154.376 48.1744 155.285 49.4184 156.628 49.8888C157.971 50.3592 159.797 49.5546 159.847 48.1373"
    fill="#263238" />
  <path
    d="M153.912 40.2648C154.487 40.3267 155.017 40.6023 155.397 41.0368C155.778 41.4713 155.981 42.033 155.967 42.6104L154.587 73.8471C154.531 77.5606 149.14 79.6092 145.186 79.5163C141.2 79.4235 141.07 77.4677 141.02 73.9461C140.94 68.085 140.946 65.9002 140.94 65.9002C140.934 65.9002 135.902 65.0523 134.874 58.4732C134.361 55.1992 134.54 49.8084 134.825 45.476C135.085 41.5273 137.709 36.6936 141.633 37.1207L153.912 40.2648Z"
    fill="#FFBE9D" />
  <path
    d="M135.994 49.8146C135.994 50.0285 136.075 50.2346 136.221 50.3909C136.367 50.5472 136.567 50.6421 136.78 50.6563C136.888 50.6647 136.996 50.6516 137.098 50.6177C137.201 50.5838 137.295 50.5299 137.376 50.459C137.458 50.3881 137.524 50.3017 137.571 50.2048C137.619 50.108 137.647 50.0027 137.653 49.895C137.656 49.6755 137.573 49.4635 137.421 49.3048C137.27 49.1462 137.061 49.0536 136.842 49.0471C136.736 49.0413 136.63 49.0566 136.529 49.0921C136.429 49.1276 136.337 49.1826 136.258 49.254C136.179 49.3253 136.115 49.4116 136.07 49.5078C136.025 49.6041 135.999 49.7083 135.994 49.8146Z"
    fill="#263238" />
  <path
    d="M135.777 47.5617C135.883 47.6732 136.52 47.2028 137.43 47.2028C138.34 47.2028 139.002 47.667 139.101 47.5556C139.2 47.4442 139.039 47.308 138.754 47.0976C138.366 46.8234 137.902 46.6763 137.427 46.6763C136.951 46.6763 136.488 46.8234 136.099 47.0976C135.821 47.3204 135.728 47.5184 135.777 47.5617Z"
    fill="#263238" />
  <path
    d="M144.424 49.9752C144.42 50.1953 144.503 50.408 144.655 50.5676C144.806 50.7273 145.014 50.8212 145.234 50.8293C145.342 50.8377 145.45 50.8246 145.552 50.7907C145.655 50.7568 145.749 50.7028 145.831 50.6319C145.912 50.561 145.978 50.4747 146.026 50.3778C146.073 50.281 146.101 50.1757 146.107 50.068C146.109 49.8483 146.025 49.6365 145.874 49.4772C145.723 49.3179 145.516 49.2235 145.296 49.2139C145.189 49.2055 145.081 49.2186 144.978 49.2525C144.876 49.2864 144.781 49.3403 144.7 49.4112C144.619 49.4821 144.553 49.5685 144.505 49.6653C144.458 49.7622 144.43 49.8675 144.424 49.9752Z"
    fill="#263238" />
  <path
    d="M144.906 48.0203C145.011 48.1317 145.655 47.6552 146.559 47.6614C147.462 47.6675 148.131 48.1193 148.23 48.0079C148.329 47.8965 148.174 47.7604 147.883 47.5499C147.491 47.2782 147.024 47.1334 146.546 47.1353C146.074 47.1338 145.612 47.281 145.228 47.5561C144.95 47.7728 144.857 47.9708 144.906 48.0203Z"
    fill="#263238" />
  <path
    d="M141.602 55.1926C141.125 55.0375 140.629 54.946 140.129 54.9202C139.893 54.9202 139.677 54.8522 139.633 54.6912C139.617 54.4513 139.673 54.2118 139.794 54.0042L140.481 52.2403C141.441 49.7337 142.134 47.6665 142.029 47.6294C141.923 47.5923 141.069 49.5976 140.116 52.1042C139.881 52.7231 139.664 53.342 139.454 53.8805C139.308 54.1601 139.264 54.4818 139.33 54.7903C139.366 54.8711 139.419 54.9434 139.485 55.0021C139.551 55.0608 139.629 55.1046 139.714 55.1307C139.841 55.1649 139.972 55.1836 140.104 55.1864C140.601 55.2487 141.104 55.2508 141.602 55.1926Z"
    fill="#263238" />
  <path d="M140.945 65.9305C144.049 65.9855 147.106 65.1777 149.777 63.5972C149.777 63.5972 147.549 68.1152 140.964 67.484L140.945 65.9305Z" fill="#EB996E" />
  <path
    d="M144.51 45.8099C144.597 46.0574 145.507 45.9398 146.571 46.0698C147.636 46.1998 148.496 46.4969 148.638 46.274C148.7 46.1688 148.552 45.9336 148.205 45.6985C147.745 45.3969 147.218 45.2121 146.67 45.16C146.127 45.089 145.574 45.1528 145.061 45.3457C144.671 45.5004 144.473 45.7046 144.51 45.8099Z"
    fill="#263238" />
  <path
    d="M135.913 45.556C136.093 45.7603 136.805 45.556 137.653 45.556C138.501 45.556 139.231 45.6984 139.398 45.4818C139.466 45.3766 139.355 45.1723 139.039 44.9743C138.608 44.7302 138.117 44.6122 137.622 44.6339C137.13 44.6359 136.649 44.7776 136.235 45.0423C135.932 45.2404 135.833 45.457 135.913 45.556Z"
    fill="#263238" />
  <path
    d="M158.504 61.8961C157.596 62.079 156.657 62.0433 155.765 61.7917C154.873 61.5402 154.054 61.0801 153.375 60.4495C152.696 59.8189 152.176 59.0358 151.86 58.1649C151.543 57.294 151.438 56.3603 151.554 55.4408C151.758 53.8255 152.631 52.1791 152.067 50.6504C151.331 48.6328 148.496 48.0077 147.735 45.9962C147.296 44.8202 147.685 43.4524 147.19 42.2827C146.695 41.1129 145.587 40.5807 144.486 40.1784C143.384 39.7761 142.189 39.5038 141.261 38.7796C140.333 38.0555 139.757 36.7001 140.351 35.6851C145.266 36.2804 150.092 37.4584 154.729 39.1943C155.806 39.5966 156.932 40.0794 157.563 41.0511C158.195 42.0228 158.182 43.3658 158.145 44.5727C157.873 50.4771 157.598 56.3816 157.322 62.286"
    fill="#263238" />
  <path
    d="M161.976 40.5308C162.037 40.6077 162.075 40.6997 162.087 40.7969C162.103 40.9394 162.088 41.0836 162.045 41.22C162.001 41.3565 161.929 41.4823 161.834 41.5891C161.691 41.7681 161.513 41.9155 161.311 42.022C161.108 42.1285 160.886 42.1919 160.658 42.2081C160.07 42.1729 159.498 42.0036 158.987 41.7129C158.396 41.3859 157.741 41.1916 157.068 41.1435C156.289 41.1254 155.51 41.196 154.747 41.354C153.883 41.5417 153.006 41.6556 152.123 41.6944C151.131 41.7324 150.164 41.3789 149.431 40.7103C148.771 40.0105 148.245 39.1968 147.877 38.3089C147.544 37.5151 147.129 36.758 146.639 36.0499C146.208 35.4762 145.619 35.0399 144.944 34.7938C144.27 34.5478 143.539 34.5025 142.839 34.6635C141.888 34.9173 141.069 35.5237 140.549 36.3593C140.371 36.6735 140.212 36.998 140.073 37.331C140.073 37.331 140.073 37.232 140.122 37.0525C140.196 36.787 140.302 36.5314 140.438 36.2912C140.749 35.7296 141.196 35.2549 141.738 34.9106C142.281 34.5662 142.9 34.3633 143.541 34.3202C144.182 34.2771 144.823 34.3953 145.407 34.6639C145.99 34.9325 146.497 35.3431 146.881 35.858C147.403 36.5736 147.843 37.3459 148.193 38.1604C148.546 39.0105 149.049 39.7903 149.678 40.4627C150.353 41.0753 151.243 41.3977 152.154 41.3601C153.019 41.3256 153.88 41.22 154.728 41.0445C155.517 40.8884 156.321 40.8282 157.124 40.865C157.83 40.9193 158.515 41.1308 159.129 41.4839C159.601 41.7724 160.132 41.9502 160.682 42.0038C160.885 41.9983 161.085 41.9522 161.27 41.8682C161.455 41.7842 161.621 41.6641 161.759 41.5149C161.852 41.4249 161.925 41.3171 161.975 41.198C162.025 41.0788 162.051 40.9509 162.05 40.8217C162.007 40.6298 161.957 40.537 161.976 40.5308Z"
    fill="#455A64" />
  <path
    d="M162.719 41.1556C162.632 41.2299 161.623 39.5526 159.624 38.4138C158.391 37.7692 157.062 37.3282 155.688 37.1079C156.096 37.0246 156.517 37.0246 156.926 37.1079C157.933 37.2596 158.902 37.5975 159.785 38.1044C160.669 38.6084 161.448 39.2764 162.081 40.0725C162.364 40.3875 162.581 40.7557 162.719 41.1556Z"
    fill="#455A64" />
  <path
    d="M155.347 36.7672C155.347 36.7672 155.347 36.8414 155.255 36.959C155.139 37.1294 154.997 37.2799 154.834 37.4046C154.522 37.6275 154.168 37.7855 153.794 37.8695C153.42 37.9535 153.033 37.9617 152.655 37.8936C151.554 37.633 150.559 37.0386 149.808 36.1916C148.917 35.3251 148.094 34.211 146.887 33.524C145.735 32.8905 144.386 32.718 143.112 33.0413C142.079 33.3175 141.162 33.9159 140.494 34.7495C140.036 35.3144 139.695 35.9644 139.491 36.6619C139.349 37.1633 139.324 37.448 139.293 37.448C139.262 37.448 139.293 37.3737 139.293 37.2375C139.305 37.0292 139.334 36.8222 139.379 36.6186C139.537 35.882 139.859 35.1904 140.32 34.5948C141.001 33.6871 141.966 33.0334 143.062 32.738C144.414 32.3739 145.854 32.5492 147.079 33.227C148.372 33.9697 149.195 35.1147 150.062 35.9688C150.749 36.781 151.663 37.3694 152.686 37.6584C153.394 37.8046 154.131 37.6763 154.747 37.2994C154.965 37.1426 155.166 36.9643 155.347 36.7672Z"
    fill="#455A64" />
  <path
    d="M155.032 64.7182C155.123 64.7618 155.222 64.7891 155.323 64.7987C155.609 64.8523 155.899 64.8812 156.189 64.8853C157.262 64.9037 158.323 64.6638 159.284 64.1859C160.732 63.473 161.898 62.2937 162.595 60.8376C163.462 59.0561 163.662 57.0227 163.158 55.1065C162.882 54.1635 162.687 53.1986 162.577 52.2223C162.538 51.3261 162.766 50.4387 163.233 49.6724C163.674 48.9436 164.015 48.1588 164.248 47.3391C164.421 46.6085 164.442 45.85 164.31 45.111C164.133 44.0428 163.664 43.0444 162.954 42.2268C162.767 42.0017 162.56 41.7945 162.335 41.6079C162.174 41.4903 162.088 41.4346 162.081 41.447C162.075 41.4594 162.391 41.7255 162.849 42.3073C163.487 43.1303 163.901 44.1049 164.05 45.1357C164.161 45.8389 164.125 46.5576 163.944 47.2462C163.706 48.0336 163.363 48.7852 162.923 49.4805C162.696 49.8876 162.512 50.3169 162.372 50.7617C162.238 51.2362 162.183 51.7299 162.211 52.2223C162.311 53.2221 162.504 54.2105 162.787 55.1745C163.273 57.0042 163.096 58.947 162.286 60.6581C161.642 62.0569 160.554 63.2036 159.191 63.9198C158.266 64.4036 157.245 64.6763 156.202 64.7182C155.447 64.7553 155.038 64.6811 155.032 64.7182Z"
    fill="#455A64" />
  <path
    d="M166.68 35.5977C166.373 35.2969 165.983 35.0943 165.56 35.0159C164.548 34.7364 163.471 34.8196 162.515 35.2511C161.563 35.6913 160.798 36.4543 160.355 37.4049C160.134 37.7781 160.032 38.2101 160.064 38.6428C160.126 38.6428 160.225 38.1848 160.596 37.5349C161.068 36.6874 161.797 36.0125 162.679 35.6084C163.56 35.2043 164.548 35.0921 165.498 35.2882C166.228 35.4244 166.649 35.6534 166.68 35.5977Z"
    fill="#455A64" />
  <path
    d="M161.822 39.7513C161.829 39.607 161.829 39.4624 161.822 39.3181C161.811 38.9149 161.912 38.5167 162.113 38.1669C162.427 37.6124 162.902 37.1658 163.474 36.8857C163.847 36.7001 164.255 36.5984 164.671 36.5877C165.087 36.577 165.5 36.6576 165.882 36.8239C166.814 37.2423 167.573 37.9705 168.029 38.8848C168.555 39.9385 168.786 41.1147 168.698 42.2889C168.605 43.6041 168.398 44.9088 168.079 46.188C167.725 47.5876 167.554 49.0273 167.571 50.4709C167.709 51.9155 168.086 53.3272 168.686 54.6486C169.231 55.8589 169.708 57.0987 170.115 58.3621C170.467 59.4902 170.568 60.6815 170.412 61.8528C170.257 62.8745 169.95 63.8674 169.502 64.7988C168.823 66.1465 168.014 67.4254 167.089 68.6175C166.792 69.0198 166.544 69.3416 166.352 69.6078C166.16 69.8739 166.098 69.9544 166.111 69.9668C166.221 69.8727 166.322 69.7691 166.414 69.6573C166.6 69.4407 166.872 69.125 167.213 68.7104C168.192 67.5403 169.043 66.2683 169.75 64.9164C170.231 63.9683 170.563 62.9517 170.734 61.9023C170.915 60.6841 170.822 59.4408 170.462 58.2631C170.061 56.9992 169.587 55.7594 169.045 54.5496C168.461 53.2678 168.095 51.8978 167.961 50.4957C167.844 47.6115 169.014 44.9255 169.057 42.3446C169.132 41.1086 168.873 39.8753 168.308 38.7734C167.808 37.8015 166.982 37.0367 165.975 36.6134C165.558 36.4402 165.109 36.3614 164.658 36.3828C164.207 36.4042 163.767 36.5253 163.369 36.7372C162.767 37.0477 162.278 37.5391 161.97 38.1421C161.771 38.5223 161.689 38.9532 161.735 39.38C161.747 39.5071 161.776 39.6321 161.822 39.7513Z"
    fill="#455A64" />
  <path
    d="M141.942 57.3963C142.077 57.7901 142.266 58.163 142.505 58.5042C142.625 58.6758 142.781 58.8198 142.961 58.9265C143.142 59.0333 143.343 59.1003 143.551 59.1231C143.775 59.1235 143.995 59.067 144.191 58.9587C144.387 58.8504 144.552 58.694 144.671 58.5042C144.905 58.1243 145.013 57.6803 144.981 57.2354C144.981 56.8331 144.783 56.3565 144.362 56.307C144.195 56.3025 144.029 56.3386 143.879 56.4122L141.787 57.2663"
    fill="#EB996E" />
  <path
    d="M142.777 59.1158C143.154 59.1441 143.532 59.0979 143.891 58.9797C144.259 58.8368 144.561 58.5636 144.739 58.2122C144.869 57.9451 144.923 57.6476 144.896 57.352C144.868 57.0564 144.761 56.7738 144.584 56.5349C144.498 56.4483 144.516 56.4483 144.424 56.4607C144.31 56.4997 144.198 56.5452 144.089 56.5968L143.743 56.733C143.297 56.9125 142.895 57.0734 142.548 57.2034C142.189 57.3772 141.805 57.4922 141.409 57.5438C141.723 57.2951 142.074 57.0968 142.449 56.9558C142.777 56.8011 143.167 56.6154 143.613 56.4173L143.947 56.2688C144.071 56.2075 144.2 56.1537 144.331 56.1079C144.431 56.0715 144.54 56.0715 144.64 56.1079C144.732 56.1456 144.811 56.2077 144.869 56.2874C144.967 56.4067 145.046 56.5403 145.104 56.6835C145.22 56.95 145.274 57.2389 145.263 57.5291C145.252 57.8193 145.177 58.1034 145.042 58.3607C144.815 58.7732 144.435 59.08 143.984 59.2148C143.69 59.3087 143.375 59.3215 143.074 59.252C142.87 59.2087 142.771 59.1406 142.777 59.1158Z"
    fill="#263238" />
  <path d="M166.061 139.384C166.061 139.458 166.092 139.545 166.104 139.619C166.073 139.365 166.048 139.161 166.061 139.384Z" fill="#263238" />
  <path
    d="M172.219 145.022L173.147 153.223L180.655 160.081C180.828 159.802 180.944 159.491 180.994 159.167C181.044 158.842 181.027 158.511 180.946 158.193C180.605 157.339 182.66 159.307 182.66 159.307V164.023C182.66 164.023 183.947 164.537 184.374 163.404C184.802 162.272 185.061 158.261 185.061 158.261L184.443 157.834C184.686 157.59 184.869 157.291 184.976 156.964C185.084 156.636 185.113 156.287 185.061 155.946C185.499 154.86 185.646 153.678 185.489 152.518C185.383 151.486 185.122 150.476 184.715 149.522L178.569 142.658L172.219 145.022Z"
    fill="#FFBE9D" />
  <path
    d="M175.988 152.919C176.599 153.933 177.345 154.86 178.204 155.673C178.994 156.557 179.902 157.327 180.902 157.963C180.958 157.895 179.782 156.843 178.427 155.451C177.071 154.058 176.063 152.857 175.988 152.919Z"
    fill="#EB996E" />
  <path
    d="M181.262 154.417C181.774 155.169 182.372 155.859 183.044 156.472C183.641 157.169 184.318 157.792 185.062 158.329C184.545 157.579 183.945 156.89 183.273 156.274C182.676 155.58 182.001 154.957 181.262 154.417Z"
    fill="#EB996E" />
  <path
    d="M182.277 152.536C182.717 153.125 183.19 153.689 183.694 154.225C184.117 154.826 184.574 155.402 185.062 155.952C184.837 155.231 184.452 154.571 183.935 154.021C183.499 153.409 182.933 152.902 182.277 152.536Z"
    fill="#EB996E" />
  <path
    d="M183.137 150.599C183.457 151.091 183.83 151.546 184.251 151.955C184.87 152.679 185.359 153.304 185.439 153.254C185.244 152.686 184.92 152.171 184.492 151.75C184.141 151.261 183.676 150.866 183.137 150.599Z"
    fill="#EB996E" />
  <path
    d="M127.893 52.3339C126.94 52.0868 126.02 51.7295 125.151 51.2693C124.232 50.9143 123.36 50.451 122.551 49.8892C123.503 50.1362 124.424 50.4935 125.293 50.9537C126.211 51.3087 127.084 51.7721 127.893 52.3339Z"
    fill="#455A64" />
  <path
    d="M119.222 64.9337C118.603 64.9337 117.105 65.8064 115.898 67.4651L115.836 67.5394C114.976 68.6534 114.171 65.466 114.029 64.2839C114.001 64.0993 113.932 63.9234 113.827 63.7693C113.722 63.6152 113.583 63.4869 113.421 63.3941C113.259 63.3012 113.078 63.2461 112.892 63.233C112.706 63.2199 112.519 63.2491 112.346 63.3184L108.366 65.1751L107.203 65.2184C106.923 65.3149 106.689 65.5127 106.549 65.7728C106.408 66.0329 106.369 66.3364 106.441 66.6234L108.347 72.9363L108.385 74.6507L116.356 75.7152L116.48 71.3828C116.598 70.8877 116.759 70.2997 116.969 69.6313C117.162 69.0251 117.459 68.4575 117.848 67.954C118.268 67.3796 118.75 66.8524 119.284 66.382C119.324 66.3476 119.368 66.3165 119.414 66.2892C119.503 66.2423 119.579 66.1743 119.636 66.0911C119.725 65.9989 119.786 65.8839 119.812 65.7591C119.839 65.6342 119.83 65.5044 119.787 65.3842C119.744 65.264 119.668 65.1582 119.569 65.0786C119.469 64.999 119.349 64.9489 119.222 64.9337Z"
    fill="#FFBE9D" />
  <path
    d="M119.067 45.5556C119.067 45.5556 114.413 44.6644 107.722 38.5866C101.032 32.5089 97.7391 24.2835 96.9469 24.3516C96.1547 24.4196 92.6145 22.8971 86.4254 37.4787C80.2362 52.0604 82.9223 55.3283 84.2344 55.2664C85.5465 55.2045 94.4218 52.4565 100.023 52.9331C105.624 53.4096 112.89 56.1143 112.89 56.1143L119.067 45.5556Z"
    fill="#12B0EE" />
  <path
    d="M129.118 53.1319L127.621 56.1769L126.952 57.5386C126.507 58.4344 125.735 59.1259 124.796 59.4711C123.857 59.8163 122.821 59.7892 121.902 59.3953L111.888 56.2265L117.285 42.8765L127.342 47.8773C128.274 48.3389 128.985 49.1517 129.318 50.137C129.651 51.1222 129.579 52.1995 129.118 53.1319Z"
    fill="#263238" />
  <path
    d="M123.536 58.0833L120.553 64.3652L118.956 63.9691L108.88 72.6339L105.835 67.0637C105.835 67.0637 111.857 64.2662 112.921 62.0567C113.986 59.8472 112.674 59.3954 112.674 59.3954L115.453 56.0532L123.536 58.0833Z"
    fill="#263238" />
  <path
    d="M86.9578 37.7271C83.659 45.6245 82.3902 52.5811 84.1232 53.3361C85.8562 54.0912 89.941 48.2487 93.2398 40.3389C96.5386 32.4292 97.8136 25.485 96.0744 24.7237C94.3353 23.9624 90.2566 29.8297 86.9578 37.7271Z"
    fill="#263238" />
  <path d="M130.09 57.4334L127.379 56.6659L128.951 53.46L131.006 54.6545L130.09 57.4334Z" fill="#455A64" />
  <g opacity="0.3">
    <path opacity="0.3" d="M114.499 57.2354L121.852 61.6358L122.7 59.8472L114.499 57.2354Z" fill="black" />
  </g>
  <path
    d="M127.119 54.2393C126.075 53.9877 125.06 53.6268 124.092 53.1624C123.081 52.7981 122.11 52.3293 121.196 51.7637C122.244 52.0089 123.261 52.3701 124.228 52.8406C125.238 53.2039 126.207 53.6727 127.119 54.2393Z"
    fill="#455A64" />
  <path
    d="M126.135 56.2263C125.844 56.2284 125.556 56.1738 125.287 56.0654C125.027 55.9911 124.724 55.9045 124.389 55.7931C124.055 55.6817 123.702 55.5207 123.331 55.366C122.411 55.0272 121.539 54.5694 120.738 54.0044C121.68 54.2582 122.595 54.6066 123.467 55.0442C123.839 55.1989 124.179 55.3722 124.507 55.5022C124.835 55.6321 125.126 55.7312 125.361 55.8302C125.85 56.053 126.147 56.2263 126.135 56.2263Z"
    fill="#455A64" />
  <path d="M94.0752 35.8024C94.0752 35.8024 89.9841 33.4196 87.9417 38.897C85.8993 44.3744 90.1513 45.1666 90.1513 45.1666C91.8914 42.2444 93.2123 39.0922 94.0752 35.8024Z" fill="#FAFAFA" />
  <path
    d="M98.1784 29.1924C98.1698 29.5421 98.1284 29.8902 98.0546 30.2322C97.9432 30.9006 97.7946 31.8723 97.5656 33.0606C97.4171 33.6795 97.2438 34.2984 97.0643 34.9792C96.9777 35.3196 96.8786 35.6786 96.7858 36.0438L96.6373 36.6008C96.5816 36.7927 96.5073 36.9721 96.4454 37.164C96.1731 37.9191 95.8946 38.7113 95.6037 39.5345L95.3809 40.1534C95.3066 40.3638 95.2014 40.5618 95.1147 40.7723L94.5515 42.0101L93.9883 43.2479C93.8893 43.4522 93.8088 43.6626 93.7036 43.8669L93.3818 44.4486L92.1439 46.6458C92.0449 46.8191 91.9521 46.9986 91.8531 47.1657L91.5312 47.6422C91.3208 47.9579 91.1165 48.2611 90.9123 48.5644C90.5162 49.1833 90.1448 49.7032 89.8106 50.2107C89.0679 51.1639 88.4428 51.9189 88.0158 52.4388C87.8066 52.7212 87.5725 52.9842 87.3164 53.2248C87.4972 52.9186 87.7043 52.6287 87.9353 52.3584L89.6373 50.0622L90.7019 48.4035L91.3208 47.4813L91.6364 47.0048C91.7355 46.8377 91.8221 46.6582 91.9211 46.4849C92.2987 45.7855 92.701 45.049 93.1156 44.2939C93.2147 44.102 93.3199 43.9102 93.4251 43.7183C93.5303 43.5265 93.6108 43.316 93.7098 43.0994L94.2668 41.8616L94.83 40.6237C94.9167 40.4195 95.0219 40.2214 95.0962 40.0048L95.319 39.3859L96.1731 37.0402C96.2412 36.8545 96.3154 36.6689 96.3711 36.4832C96.4268 36.2975 96.4763 36.1119 96.5259 35.9324C96.6249 35.5672 96.7239 35.2206 96.8229 34.874L97.3614 32.9801C97.609 31.8166 97.807 30.8635 97.9803 30.1888C98.0231 29.8525 98.0893 29.5195 98.1784 29.1924Z"
    fill="#263238" />
  <path
    d="M110.953 62.1183C110.745 62.2134 110.58 62.3834 110.492 62.5945C110.404 62.8055 110.398 63.0421 110.477 63.2571C110.786 64.1236 111.281 65.4852 111.646 66.3083C111.754 66.5793 111.909 66.8288 112.104 67.0448C112.201 67.1489 112.324 67.2242 112.461 67.2625C112.597 67.3007 112.742 67.3004 112.878 67.2615C113.015 67.1921 113.13 67.087 113.212 66.9573C113.294 66.8276 113.339 66.6782 113.342 66.5249C113.342 66.216 113.286 65.9097 113.175 65.6213C112.915 64.8105 112.463 63.5975 112.08 62.6072C112.04 62.4994 111.979 62.4008 111.9 62.3172C111.821 62.2337 111.726 62.1671 111.621 62.1214C111.516 62.0757 111.402 62.0518 111.287 62.0513C111.173 62.0507 111.059 62.0735 110.953 62.1183Z"
    fill="#FFBE9D" />
  <path
    d="M109.746 63.7158C109.537 63.8122 109.372 63.983 109.282 64.1948C109.193 64.4066 109.186 64.6441 109.263 64.8608C109.572 65.7273 110.067 67.0889 110.439 67.912C110.543 68.1832 110.696 68.4329 110.891 68.6486C110.989 68.7515 111.114 68.8255 111.251 68.8626C111.389 68.8997 111.534 68.8984 111.67 68.859C111.808 68.791 111.923 68.6861 112.004 68.5559C112.085 68.4258 112.128 68.2757 112.128 68.1225C112.133 67.8137 112.079 67.5069 111.967 67.2189C111.701 66.4081 111.256 65.195 110.866 64.2109C110.827 64.1033 110.766 64.0047 110.688 63.9211C110.61 63.8375 110.516 63.7705 110.411 63.7242C110.307 63.678 110.194 63.6534 110.079 63.6519C109.965 63.6505 109.851 63.6722 109.746 63.7158Z"
    fill="#FFBE9D" />
  <path
    d="M108.576 64.7296C108.391 64.8079 108.243 64.9542 108.163 65.1384C108.082 65.3226 108.075 65.5307 108.143 65.7198C108.422 66.4687 108.867 67.6509 109.208 68.3626C109.304 68.5929 109.442 68.8029 109.616 68.9815C109.706 69.0722 109.818 69.1372 109.941 69.1699C110.064 69.2025 110.193 69.2016 110.316 69.1672C110.435 69.1122 110.538 69.0254 110.612 68.9163C110.686 68.8073 110.729 68.68 110.736 68.5483C110.739 68.279 110.689 68.0119 110.588 67.7623C110.353 67.0629 109.969 66.0107 109.591 65.1566C109.553 65.0615 109.497 64.9749 109.425 64.9018C109.353 64.8288 109.268 64.7707 109.173 64.731C109.079 64.6912 108.977 64.6706 108.875 64.6704C108.773 64.6702 108.671 64.6903 108.576 64.7296Z"
    fill="#FFBE9D" />
  <path
    d="M107.073 65.0714C106.885 65.1485 106.735 65.2957 106.654 65.4817C106.573 65.6678 106.568 65.878 106.639 66.0678C106.918 66.8229 107.363 68.005 107.704 68.723C107.8 68.9547 107.941 69.1651 108.118 69.3419C108.208 69.4325 108.32 69.4976 108.443 69.5302C108.566 69.5629 108.695 69.562 108.818 69.5276C108.938 69.4725 109.04 69.3858 109.114 69.2767C109.189 69.1676 109.232 69.0404 109.239 68.9086C109.245 68.6391 109.194 68.3714 109.09 68.1226C108.855 67.4171 108.44 66.3587 108.094 65.4984C108.013 65.308 107.861 65.1568 107.67 65.077C107.479 64.9972 107.265 64.9952 107.073 65.0714Z"
    fill="#FFBE9D" />
  <path
    d="M112.023 67.0821C111.664 66.6274 111.389 66.1116 111.213 65.5596C110.943 65.0485 110.769 64.4928 110.699 63.9194C111.064 64.3685 111.339 64.8832 111.51 65.4358C111.78 65.9485 111.954 66.5065 112.023 67.0821Z"
    fill="#EB996E" />
  <path d="M110.699 68.4068C110.026 67.2865 109.541 66.0634 109.263 64.7861C109.646 65.3186 109.939 65.9103 110.13 66.5377C110.424 67.1238 110.617 67.7559 110.699 68.4068Z" fill="#EB996E" />
  <path
    d="M109.325 68.6052C108.924 68.1729 108.624 67.6572 108.446 67.0951C108.171 66.5749 108.017 65.9995 107.994 65.4116C108.317 65.8934 108.569 66.4186 108.743 66.9713C109.016 67.4847 109.212 68.0352 109.325 68.6052Z"
    fill="#EB996E" />
  <path
    d="M167.379 190.092L163.177 156.367C165.912 149.974 166.89 143.587 166.104 139.619C166.154 140.034 166.172 140.548 166.061 139.384C165.38 132.359 159.315 127.198 159.315 127.198L157.285 118.675L131.29 122.327L132.274 136.593L115.489 195.774L112.438 245.8L126.011 247.391C126.011 247.391 131.333 222.374 132.763 211.921C133.552 206.253 134.002 200.542 134.112 194.82L146.862 175.739C148.372 183.618 150.08 193.335 150.959 198.41C151.352 200.683 152.326 202.815 153.788 204.599L187.153 230.86V215.022C183.978 207.446 167.379 190.092 167.379 190.092Z"
    fill="#263238" />
  <path
    d="M134.651 132.917C134.41 132.469 134.227 131.993 134.106 131.499C133.755 130.334 133.486 129.144 133.302 127.941C133.12 126.734 133.025 125.516 133.017 124.295C132.988 123.79 133.021 123.283 133.116 122.785C133.206 123.281 133.249 123.785 133.246 124.289C133.302 125.217 133.413 126.492 133.624 127.891C133.834 129.29 134.106 130.54 134.329 131.438C134.477 131.921 134.585 132.416 134.651 132.917Z"
    fill="#455A64" />
  <path
    d="M135.852 123.212C135.852 123.212 135.951 123.113 136.186 123.064C136.525 122.997 136.876 123.047 137.182 123.206C137.424 123.319 137.633 123.492 137.788 123.709C137.943 123.926 138.039 124.179 138.067 124.444C138.093 124.766 138.029 125.089 137.883 125.377C137.736 125.666 137.513 125.908 137.238 126.078C136.953 126.237 136.627 126.306 136.302 126.276C135.978 126.246 135.67 126.119 135.419 125.911C135.208 125.755 135.04 125.549 134.932 125.31C134.824 125.072 134.778 124.81 134.8 124.549C134.827 124.214 134.926 123.889 135.091 123.596C135.196 123.386 135.276 123.287 135.295 123.299C135.313 123.311 135.295 123.429 135.202 123.645C135.095 123.938 135.035 124.245 135.022 124.555C135.02 124.774 135.071 124.99 135.17 125.185C135.269 125.38 135.414 125.548 135.592 125.676C135.797 125.84 136.047 125.94 136.309 125.963C136.571 125.986 136.834 125.931 137.065 125.806C137.289 125.664 137.472 125.466 137.594 125.231C137.717 124.996 137.776 124.733 137.764 124.469C137.742 124.252 137.667 124.044 137.546 123.863C137.425 123.682 137.262 123.533 137.071 123.429C136.699 123.226 136.271 123.15 135.852 123.212Z"
    fill="#455A64" />
  <path
    d="M152.921 130.087C152.921 130.087 152.767 130.174 152.463 130.279C152.035 130.416 151.596 130.516 151.151 130.576C150.489 130.667 149.819 130.69 149.152 130.644C148.335 130.58 147.528 130.426 146.745 130.186C145.966 129.929 145.216 129.589 144.51 129.171C143.938 128.825 143.402 128.421 142.913 127.964C142.585 127.658 142.284 127.322 142.016 126.962C141.824 126.708 141.731 126.559 141.75 126.547C141.768 126.535 142.22 127.067 143.068 127.785C143.565 128.205 144.097 128.582 144.659 128.911C145.353 129.303 146.085 129.624 146.844 129.871C147.603 130.106 148.385 130.264 149.177 130.341C149.825 130.403 150.478 130.403 151.126 130.341C152.253 130.242 152.903 130.032 152.921 130.087Z"
    fill="#455A64" />
  <path
    d="M161.271 155.543C161.192 155.685 161.098 155.817 160.992 155.94L160.132 157.035C159.414 158.007 158.374 159.405 157.124 161.169C154.617 164.685 151.232 169.605 147.525 175.058C143.817 180.51 140.494 185.443 138.074 189.052L135.202 193.285C134.868 193.761 134.583 194.145 134.41 194.43C134.323 194.569 134.224 194.699 134.113 194.82C134.182 194.671 134.263 194.528 134.354 194.393L135.097 193.217L137.882 188.922C140.252 185.307 143.551 180.331 147.259 174.878C150.966 169.426 154.382 164.524 156.938 161.033C158.213 159.288 159.284 157.939 160.033 156.955L160.918 155.871C161.029 155.755 161.147 155.646 161.271 155.543Z"
    fill="#455A64" />
  <path
    d="M156.697 79.9679C156.746 79.9679 156.746 79.318 156.92 78.2906C157.149 76.9602 157.61 75.6803 158.281 74.509C158.883 73.3052 159.849 72.3219 161.042 71.6992C161.556 71.4947 162.11 71.408 162.663 71.4454C162.526 71.3662 162.37 71.3236 162.211 71.3216C161.791 71.2849 161.368 71.3441 160.973 71.4949C159.692 72.0839 158.651 73.0927 158.021 74.3543C157.332 75.5592 156.888 76.8886 156.715 78.2658C156.612 78.8279 156.605 79.4037 156.697 79.9679Z"
    fill="#263238" />
  <path
    d="M154.556 69.9477L140.94 72.052L138.526 74.1748C138.526 74.1748 129.972 90.8237 129.805 94.1905C129.632 97.904 131.625 104.297 131.625 104.297L129.669 119.028C129.378 120.717 130.48 122.345 131.216 122.345L154.735 119.189C157.799 118.57 159.068 116.985 158.87 115.215L158.504 111.929L168.537 78.3154C169.156 80.3021 168.203 72.9556 163.722 71.3093C161.828 70.6099 157.44 69.3411 154.556 69.9477Z"
    fill="#12B0EE" />
  <path
    d="M139.776 73.1602C139.776 73.1602 135.592 76.3909 131.625 80.0611C127.657 83.7312 117.092 91.0716 117.092 91.0716L116.356 75.7163L108.378 74.6332C108.378 74.6332 104.485 93.7824 106.955 99.0679C109.424 104.353 112.389 104.582 120.608 101.94C128.827 99.2969 131.21 98.121 131.21 98.121L139.776 73.1602Z"
    fill="#12B0EE" />
  <path
    d="M137.678 75.4434C137.678 75.4434 137.603 75.5176 137.486 75.6785L136.997 76.3965C136.582 77.0154 135.988 77.9314 135.276 79.0764C133.374 82.0344 131.842 85.2146 130.715 88.5458C129.6 91.9105 129.358 95.5028 130.009 98.9869C130.223 100.033 130.553 101.053 130.993 102.026C131.112 102.292 131.244 102.552 131.389 102.806C131.482 102.979 131.538 103.066 131.55 103.059C131.563 103.053 131.389 102.676 131.105 101.982C130.714 101 130.419 99.9827 130.226 98.9436C129.65 95.4956 129.92 91.9594 131.012 88.6386C132.138 85.333 133.633 82.1648 135.468 79.194L137.102 76.4584L137.541 75.7157C137.598 75.6309 137.644 75.5394 137.678 75.4434Z"
    fill="#263238" />
  <path
    d="M161.166 71.3092C161.166 71.3092 156.932 76.8795 156.697 81.9484C156.462 87.0173 164.297 117.555 164.297 117.555L171.167 145.406L179.715 142.249C179.715 142.249 177.728 122.444 177.35 119.968C176.558 114.838 173.179 104.836 172.715 99.0552C172.25 93.2745 170.109 82.1341 169.051 79.5284C167.992 76.9228 167.949 71.1669 161.166 71.3092Z"
    fill="#12B0EE" />
  <path
    d="M157.049 84.7578C157.034 84.8584 157.034 84.9605 157.049 85.0611C157.049 85.2901 157.111 85.5686 157.148 85.909C157.247 86.6455 157.414 87.7038 157.65 89.0036C158.12 91.6216 158.887 95.1927 159.754 99.16C160.62 103.127 161.518 106.667 162.186 109.236C162.52 110.523 162.805 111.557 163.003 112.275C163.096 112.603 163.177 112.894 163.245 113.092C163.313 113.29 163.337 113.376 163.35 113.37C163.349 113.272 163.335 113.174 163.306 113.079L163.121 112.244C162.941 111.47 162.694 110.443 162.403 109.186C161.784 106.556 160.973 102.997 160.063 99.0919C159.154 95.1865 158.392 91.5659 157.872 88.9664C157.625 87.7286 157.421 86.6579 157.254 85.8719C157.192 85.5376 157.136 85.2529 157.093 85.0301C157.091 84.9378 157.076 84.8461 157.049 84.7578Z"
    fill="#263238" />
  <g opacity="0.3">
    <path opacity="0.3"
      d="M156.437 118.737C155.088 117.381 154.809 115.326 154.58 113.433C153.912 107.392 153.241 101.351 152.569 95.3107C152.148 91.5477 151.752 87.599 153.187 84.0836C153.264 83.8103 153.4 83.5574 153.586 83.3433C153.773 83.1292 154.004 82.9593 154.264 82.8458C154.531 82.794 154.806 82.8216 155.057 82.925C155.308 83.0284 155.523 83.2031 155.676 83.4275C156.004 83.8608 156.913 84.4859 157.056 85.0058C158.43 90.3903 159.024 95.6944 160.392 101.098C160.757 102.521 161.227 102.465 160.912 103.901C160.46 105.981 158.51 111.947 158.51 111.947C158.51 111.947 158.789 114.12 158.869 115.388C158.909 116.141 158.69 116.885 158.248 117.496C157.807 118.108 157.17 118.55 156.443 118.749"
      fill="black" />
  </g>
  <path
    d="M157.699 87.7911C157.835 87.928 157.992 88.0429 158.163 88.1315C158.606 88.4089 159.067 88.655 159.544 88.868C160.262 89.2085 161.052 89.3679 161.846 89.3322C162.811 89.2221 163.731 88.8616 164.513 88.2863C165.266 87.7318 166.058 87.2333 166.884 86.7947C167.548 86.449 168.305 86.3253 169.044 86.4419C169.54 86.5235 170 86.7545 170.362 87.1041C170.61 87.3641 170.69 87.5497 170.715 87.5374C170.74 87.525 170.715 87.3207 170.455 87.0237C170.103 86.6101 169.621 86.3286 169.087 86.2253C168.301 86.0637 167.484 86.1705 166.766 86.5285C165.918 86.9589 165.107 87.4577 164.34 88.0201C163.6 88.5678 162.734 88.921 161.821 89.0475C161.071 89.0859 160.322 88.9548 159.63 88.6638C158.442 88.1439 157.73 87.7107 157.699 87.7911Z"
    fill="#FAFAFA" />
  <path
    d="M131.21 87.1161C131.21 87.1161 131.21 87.1965 131.334 87.3451C131.464 87.5553 131.618 87.7504 131.792 87.9268C132.447 88.5775 133.266 89.0393 134.162 89.2637C135.485 89.611 136.872 89.6301 138.204 89.3194C139.8 88.9146 141.368 88.4102 142.901 87.8093C145.693 86.7855 148.718 86.5814 151.622 87.2213C152.815 87.5153 153.982 87.9044 155.112 88.3849C155.048 88.3288 154.975 88.2829 154.896 88.2487C154.684 88.123 154.465 88.0094 154.24 87.9083C153.416 87.522 152.555 87.2193 151.671 87.0047C150.358 86.6788 149.007 86.5331 147.655 86.5714C145.995 86.6258 144.356 86.9434 142.796 87.5122C141.274 88.1066 139.721 88.6149 138.142 89.0347C136.854 89.3452 135.512 89.3452 134.224 89.0347C133.353 88.8374 132.546 88.4221 131.878 87.8278C131.402 87.407 131.21 87.0975 131.21 87.1161Z"
    fill="#FAFAFA" />
  <path
    d="M126.197 84.4175C126.093 84.8216 126.069 85.2422 126.129 85.6553C126.221 86.6887 126.517 87.6935 127 88.6115C127.484 89.5294 128.145 90.3422 128.945 91.0027C129.26 91.296 129.63 91.5233 130.034 91.6712C129.735 91.377 129.421 91.0981 129.093 90.8356C128.36 90.1525 127.747 89.3513 127.28 88.4652C126.816 87.5782 126.502 86.6203 126.351 85.6305C126.259 84.9002 126.259 84.4175 126.197 84.4175Z"
    fill="#FAFAFA" />
  <g opacity="0.3">
    <path opacity="0.3"
      d="M134.924 79.5229C128.499 85.972 122.979 93.1391 120.608 101.94C124.278 100.702 127.75 99.5696 130.04 98.6165C130.04 98.6165 129.353 94.9896 129.768 92.8544C130.282 90.2487 130.276 88.0578 134.924 79.5229Z"
      fill="black" />
  </g>
  <path
    d="M117.21 91.1079C116.742 91.7452 116.314 92.4108 115.929 93.1008C115.636 93.8352 115.384 94.5852 115.174 95.3475C115.066 94.5219 115.229 93.6838 115.638 92.9585C115.944 92.1853 116.496 91.5348 117.21 91.1079Z"
    fill="#263238" />
  <path d="M79.9025 109.459L75.521 146.478L121.827 151.958L126.208 114.939L79.9025 109.459Z" fill="#FAFAFA" />
  <path
    d="M126.197 114.924C126.123 114.928 126.048 114.928 125.974 114.924L125.324 114.856L122.805 114.571L113.323 113.482L79.902 109.589L80.0381 109.484C78.7384 120.5 77.2468 133.132 75.6748 146.495L75.5572 146.346L121.858 151.848L121.734 151.941C123.071 140.801 124.21 131.56 124.965 125.099C125.361 121.874 125.671 119.337 125.881 117.604C125.993 116.737 126.073 116.075 126.129 115.623C126.184 115.171 126.222 114.936 126.222 114.936C126.222 114.936 126.222 115.159 126.153 115.605C126.085 116.05 126.03 116.706 125.937 117.56C125.739 119.293 125.448 121.818 125.083 125.043C124.328 131.523 123.226 140.788 121.957 151.972V152.083H121.84L75.5077 146.587H75.3777V146.451C76.9683 133.089 78.4723 120.457 79.772 109.44V109.316H79.8958L113.398 113.339L122.848 114.491L125.324 114.8L125.943 114.88L126.197 114.924Z"
    fill="#263238" />
  <path d="M81.2214 111.98L77.3914 144.34L120.44 149.435L124.27 117.075L81.2214 111.98Z" fill="#EBEBEB" />
  <path d="M77.3831 144.329L94.7993 125.99L102.629 139.674L109.74 133.696L120.435 149.416L77.3831 144.329Z" fill="#E0E0E0" />
  <path
    d="M108.36 125.1C108.28 125.769 108.003 126.399 107.564 126.911C107.126 127.423 106.545 127.794 105.897 127.976C105.248 128.158 104.559 128.144 103.918 127.936C103.277 127.727 102.713 127.333 102.296 126.804C101.878 126.274 101.627 125.633 101.575 124.961C101.522 124.289 101.669 123.616 101.998 123.028C102.327 122.44 102.823 121.962 103.423 121.656C104.024 121.349 104.701 121.227 105.371 121.306C106.27 121.413 107.09 121.873 107.651 122.584C108.211 123.295 108.466 124.2 108.36 125.1Z"
    fill="#E0E0E0" />
  <path d="M86.8937 159.274L47.575 162.776L50.3748 194.21L89.6936 190.708L86.8937 159.274Z" fill="#FAFAFA" />
  <path
    d="M86.9078 159.269H86.716L86.1651 159.325L84.0299 159.529L75.984 160.272L47.5944 162.853L47.6872 162.748C48.5227 172.099 49.4821 182.825 50.4971 194.176L50.3671 194.071L89.693 190.586L89.6063 190.685C88.7832 181.222 88.1024 173.356 87.6258 167.885C87.3906 165.137 87.2049 162.983 87.0811 161.51C87.0192 160.78 86.9759 160.216 86.9388 159.826C86.9017 159.436 86.9017 159.245 86.9017 159.245L86.9574 159.808C86.9945 160.185 87.0502 160.742 87.1183 161.467C87.2544 162.933 87.4525 165.081 87.7372 167.817C88.2385 173.319 88.975 181.185 89.8229 190.673V190.766H89.7425L50.4228 194.294H50.3052V194.244C49.2964 182.893 48.3433 172.168 47.5139 162.81V162.68H47.6129L76.083 160.204L84.1289 159.517L86.2456 159.337L86.7902 159.294L86.9078 159.269Z"
    fill="#263238" />
  <path d="M85.6639 161.379L49.1069 164.635L51.5543 192.112L88.1112 188.855L85.6639 161.379Z" fill="#EBEBEB" />
  <path d="M51.5679 192.109L62.8136 173.888L71.6764 183.871L76.5287 177.682L88.121 188.854L51.5679 192.109Z" fill="#E0E0E0" />
  <path
    d="M73.8922 170.793C73.9426 171.363 73.8231 171.935 73.5485 172.436C73.274 172.938 72.8569 173.347 72.35 173.611C71.8431 173.876 71.2691 173.984 70.7007 173.922C70.1323 173.86 69.595 173.631 69.1568 173.264C68.7185 172.897 68.399 172.408 68.2387 171.859C68.0784 171.31 68.0845 170.726 68.2562 170.181C68.4278 169.635 68.7574 169.153 69.2032 168.795C69.649 168.437 70.1909 168.219 70.7605 168.169C71.5237 168.102 72.2823 168.341 72.8695 168.833C73.4567 169.325 73.8246 170.03 73.8922 170.793Z"
    fill="#E0E0E0" />
  <path
    d="M61.5939 133.954L61.0658 136.205L59.806 135.909L60.3342 133.658L61.5939 133.954ZM58.4716 146.55L57.9815 148.639L56.7217 148.343L57.2118 146.255L58.4716 146.55ZM59.6086 144.091C59.6752 143.807 59.6853 143.562 59.6391 143.355C59.5928 143.148 59.4857 142.952 59.3177 142.765C59.1496 142.579 58.9155 142.377 58.6154 142.16C57.9783 141.717 57.4248 141.285 56.955 140.864C56.4905 140.445 56.1565 139.98 55.953 139.47C55.7547 138.961 55.7379 138.356 55.9025 137.655C56.0525 137.015 56.3443 136.496 56.7778 136.097C57.2166 135.699 57.7515 135.438 58.3825 135.314C59.0199 135.186 59.7137 135.21 60.4637 135.386C61.0342 135.52 61.5351 135.725 61.9665 136C62.3978 136.275 62.7483 136.611 63.0178 137.006C63.2885 137.396 63.4631 137.839 63.5415 138.337C63.6211 138.829 63.5937 139.361 63.4594 139.933L60.7894 139.307C60.8583 139.013 60.8859 138.753 60.8722 138.527C60.8637 138.301 60.8197 138.109 60.7402 137.949C60.6608 137.789 60.5544 137.66 60.421 137.564C60.2888 137.462 60.1356 137.391 59.9613 137.35C59.6972 137.288 59.4699 137.294 59.2796 137.369C59.0904 137.439 58.9377 137.556 58.8214 137.719C58.7051 137.882 58.6209 138.075 58.5689 138.296C58.5145 138.528 58.5063 138.742 58.5444 138.935C58.5889 139.125 58.694 139.319 58.8597 139.515C59.0265 139.707 59.2661 139.921 59.5784 140.158C60.1985 140.602 60.7423 141.04 61.2096 141.471C61.677 141.901 62.0118 142.374 62.2141 142.89C62.4229 143.401 62.4457 144.005 62.2823 144.702C62.125 145.372 61.8296 145.907 61.3961 146.306C60.9638 146.699 60.4307 146.953 59.7969 147.065C59.163 147.178 58.4685 147.145 57.7131 146.968C57.2061 146.849 56.7168 146.666 56.2452 146.42C55.779 146.174 55.3737 145.859 55.0295 145.473C54.6917 145.084 54.4582 144.618 54.329 144.076C54.1998 143.535 54.218 142.91 54.3838 142.204L57.0539 142.83C56.9728 143.176 56.9473 143.474 56.9774 143.726C57.0074 143.978 57.0774 144.191 57.1874 144.363C57.3038 144.532 57.4472 144.669 57.6175 144.774C57.7891 144.875 57.9752 144.948 58.176 144.995C58.4453 145.058 58.6767 145.058 58.8699 144.995C59.0643 144.926 59.2217 144.813 59.3421 144.657C59.4689 144.496 59.5578 144.307 59.6086 144.091Z"
    fill="#EBEBEB" />
  <path
    d="M8.91214 75.7031L10.9223 79.7163L8.6766 80.8411L6.66645 76.8279L8.91214 75.7031ZM19.91 98.3656L21.7751 102.089L19.5294 103.214L17.6643 99.4904L19.91 98.3656ZM18.5491 93.2854C18.2958 92.7797 18.0062 92.4014 17.6804 92.1506C17.3545 91.8998 16.9505 91.7399 16.4684 91.6709C15.9862 91.6018 15.3864 91.5918 14.6689 91.6407C13.1679 91.7714 11.8059 91.8153 10.583 91.7723C9.3695 91.7246 8.29398 91.4467 7.35642 90.9388C6.42827 90.4261 5.65105 89.5446 5.02475 88.2942C4.45371 87.1541 4.24354 86.0173 4.39424 84.8837C4.55435 83.7455 5.02773 82.6918 5.81439 81.7227C6.60586 80.7398 7.67013 79.9134 9.00718 79.2437C10.0241 78.7344 11.0252 78.4169 12.0106 78.2914C12.996 78.1659 13.9352 78.2302 14.8281 78.4845C15.7165 78.7296 16.528 79.1742 17.2628 79.8182C17.993 80.453 18.6137 81.2807 19.1249 82.3013L14.3652 84.6853C14.1027 84.1612 13.8205 83.739 13.5187 83.4187C13.2263 83.0936 12.9214 82.861 12.6039 82.721C12.2865 82.581 11.9683 82.5219 11.6494 82.5436C11.3259 82.5561 11.0088 82.6402 10.698 82.7958C10.2272 83.0317 9.89655 83.3238 9.70597 83.6723C9.51079 84.0116 9.42787 84.3751 9.45723 84.7629C9.48659 85.1507 9.60028 85.5423 9.7983 85.9377C10.0055 86.3514 10.2581 86.6792 10.5559 86.9211C10.8585 87.149 11.2555 87.3067 11.7468 87.3941C12.2336 87.4723 12.8568 87.4937 13.6164 87.4583C15.0937 87.3508 16.4484 87.3278 17.6806 87.3892C18.9127 87.4506 19.9998 87.7399 20.942 88.2571C21.889 88.7603 22.6733 89.6325 23.295 90.8737C23.8937 92.069 24.1177 93.2334 23.967 94.3669C23.8117 95.4913 23.3314 96.5311 22.5261 97.4865C21.7208 98.4419 20.6449 99.2568 19.2985 99.9312C18.3945 100.384 17.4377 100.719 16.4281 100.938C15.4279 101.151 14.4316 101.184 13.4393 101.037C12.4518 100.876 11.525 100.472 10.659 99.825C9.79297 99.1777 9.04451 98.2243 8.4136 96.9647L13.1733 94.5806C13.4819 95.1966 13.8151 95.6738 14.173 96.0121C14.5309 96.3503 14.8991 96.5799 15.2777 96.7008C15.661 96.8078 16.0451 96.8339 16.43 96.7792C16.8102 96.7153 17.1792 96.5937 17.537 96.4145C18.0172 96.174 18.3619 95.8863 18.5711 95.5515C18.7757 95.2075 18.8703 94.8438 18.855 94.4605C18.8445 94.0632 18.7425 93.6715 18.5491 93.2854Z"
    fill="#EBEBEB" />
  <path
    d="M36.4484 200.179L36.7131 203.214L35.0146 203.362L34.7499 200.327L36.4484 200.179ZM37.7202 217.231L37.9658 220.047L36.2673 220.195L36.0217 217.379L37.7202 217.231ZM38.1321 213.685C38.0988 213.302 38.0107 212.991 37.8678 212.751C37.7249 212.512 37.5099 212.31 37.2229 212.145C36.9359 211.981 36.5599 211.825 36.0949 211.676C35.1149 211.383 34.2445 211.07 33.4835 210.737C32.7297 210.404 32.1204 209.959 31.6558 209.404C31.1983 208.849 30.9284 208.098 30.8459 207.152C30.7707 206.29 30.9224 205.52 31.301 204.842C31.6868 204.164 32.2491 203.617 32.9879 203.203C33.7332 202.78 34.6115 202.525 35.6228 202.437C36.3919 202.37 37.1031 202.42 37.7563 202.587C38.4096 202.754 38.9861 203.03 39.486 203.414C39.9853 203.791 40.3863 204.274 40.6889 204.864C40.9909 205.448 41.1756 206.125 41.2429 206.897L37.6429 207.211C37.6083 206.815 37.5359 206.478 37.4256 206.2C37.3224 205.922 37.1881 205.699 37.0228 205.531C36.8575 205.363 36.6715 205.246 36.4648 205.18C36.2575 205.107 36.0363 205.081 35.8013 205.101C35.4452 205.132 35.1635 205.234 34.9561 205.406C34.748 205.572 34.6048 205.78 34.5263 206.032C34.4478 206.284 34.4216 206.56 34.4477 206.859C34.475 207.172 34.5523 207.442 34.6798 207.669C34.8138 207.889 35.0248 208.087 35.313 208.266C35.6006 208.437 35.9886 208.606 36.4768 208.774C37.4359 209.075 38.2966 209.4 39.0588 209.747C39.821 210.094 40.4347 210.548 40.8999 211.11C41.3716 211.664 41.6484 212.411 41.7303 213.35C41.8091 214.254 41.6592 215.045 41.2806 215.722C40.9014 216.393 40.3382 216.929 39.591 217.331C38.8439 217.732 37.9611 217.977 36.9427 218.066C36.2591 218.126 35.5714 218.098 34.8796 217.983C34.195 217.868 33.558 217.64 32.9686 217.299C32.3856 216.95 31.9019 216.463 31.5173 215.838C31.1327 215.213 30.8988 214.424 30.8157 213.471L34.4157 213.157C34.4564 213.623 34.5473 214.008 34.6885 214.311C34.8298 214.614 35.0047 214.851 35.2134 215.022C35.4285 215.185 35.6644 215.298 35.9209 215.359C36.1769 215.414 36.4401 215.43 36.7108 215.406C37.074 215.375 37.3635 215.279 37.5792 215.12C37.7944 214.954 37.9451 214.749 38.0313 214.503C38.124 214.249 38.1576 213.977 38.1321 213.685Z"
    fill="#EBEBEB" />
</svg>