<svg width="19" height="12" viewBox="0 0 19 12" fill="none" xmlns="http://www.w3.org/2000/svg">
  <path
    d="M17.7711 5.82143C16.0197 2.85783 12.8398 1 9.4126 1C5.9854 1 2.80203 2.85783 1.05409 5.82143C0.981971 5.92788 0.981971 6.07212 1.05409 6.17857C2.80546 9.14217 5.9854 11 9.4126 11C12.8398 11 16.0232 9.14217 17.7711 6.17857C17.8432 6.07212 17.8432 5.92788 17.7711 5.82143ZM9.4126 10.2857C6.30477 10.2857 3.40986 8.64423 1.80271 6C3.40986 3.35577 6.30477 1.71429 9.4126 1.71429C12.5204 1.71429 15.4153 3.35577 17.0225 6C15.4153 8.64423 12.5204 10.2857 9.4126 10.2857Z"
    fill="#12B0EE" stroke="#12B0EE" stroke-width="0.75" />
  <path
    d="M9.4126 2.78571C7.62688 2.78571 6.19831 4.21428 6.19831 5.99999C6.19831 7.78571 7.62688 9.21428 9.4126 9.21428C11.1983 9.21428 12.6269 7.78571 12.6269 5.99999C12.6269 4.21428 11.1983 2.78571 9.4126 2.78571ZM9.4126 8.49999C8.01837 8.49999 6.9126 7.39079 6.9126 5.99999C6.9126 4.60919 8.0218 3.49999 9.4126 3.49999C10.8034 3.49999 11.9126 4.60919 11.9126 5.99999C11.9126 7.39079 10.8068 8.49999 9.4126 8.49999Z"
    fill="#12B0EE" stroke="#12B0EE" stroke-width="0.75" />
</svg>