<svg width="32" height="32" viewBox="0 0 32 32" fill="none" xmlns="http://www.w3.org/2000/svg">
  <path
    d="M3.55556 0H28.4444C29.3874 0 30.2918 0.374602 30.9586 1.0414C31.6254 1.70819 32 2.61256 32 3.55556V28.4444C32 29.3874 31.6254 30.2918 30.9586 30.9586C30.2918 31.6254 29.3874 32 28.4444 32H3.55556C2.61256 32 1.70819 31.6254 1.0414 30.9586C0.374602 30.2918 0 29.3874 0 28.4444V3.55556C0 2.61256 0.374602 1.70819 1.0414 1.0414C1.70819 0.374602 2.61256 0 3.55556 0V0ZM26.6667 3.55556H22.2222C20.572 3.55556 18.9893 4.21111 17.8224 5.378C16.6556 6.5449 16 8.12754 16 9.77778V14.2222H12.4444V19.5556H16V32H21.3333V19.5556H26.6667V14.2222H21.3333V10.6667C21.3333 10.1952 21.5206 9.74299 21.854 9.40959C22.1874 9.07619 22.6396 8.88889 23.1111 8.88889H26.6667V3.55556Z"
    fill="#4267B2" />
</svg>