<svg width="23" height="23" viewBox="0 0 23 23" fill="none" xmlns="http://www.w3.org/2000/svg">
  <circle cx="11.5" cy="11.5" r="11.5" fill="#FFCACA" />
  <path
    d="M10.8 7.38342H10.7999L10.8001 7.38932L10.9274 11.7075C10.9292 12.0266 11.1913 12.2876 11.5108 12.2876C11.8458 12.2876 12.068 12.0126 12.0935 11.7217L12.0939 11.7217L12.0942 11.7091L12.1999 7.38832L12.2 7.38832V7.38342C12.2 7.1874 12.0731 7.039 11.9516 6.95096C11.827 6.86066 11.6644 6.8 11.5108 6.8C11.3585 6.8 11.1921 6.85974 11.0635 6.94798C10.94 7.03268 10.8 7.18107 10.8 7.38342Z"
    fill="white" stroke="white" stroke-width="0.4" />
  <path
    d="M12.0935 14.6498L12.0943 14.641V14.6323V14.3834C12.0943 14.0628 11.8315 13.8 11.5109 13.8C11.1903 13.8 10.9274 14.0628 10.9274 14.3834V14.6323C10.9274 14.9529 11.1903 15.2157 11.5109 15.2157C11.8459 15.2157 12.068 14.9407 12.0935 14.6498Z"
    fill="white" stroke="white" stroke-width="0.4" />
</svg>