<svg width="20" height="20" viewBox="0 0 20 20" fill="none" xmlns="http://www.w3.org/2000/svg">
  <path fill-rule="evenodd" clip-rule="evenodd"
    d="M20 2.22222V9.54445L17.4556 6.98889C17.0222 6.55556 16.3111 6.55556 15.8778 6.98889L12.2222 10.6556L8.56667 7C8.13333 6.56667 7.43333 6.56667 7 7L3.33333 10.6556L0 7.31111V2.22222C0 1 1 0 2.22222 0H17.7778C19 0 20 1 20 2.22222ZM16.6667 9.35556L20 12.7V17.7778C20 19 19 20 17.7778 20H2.22222C1 20 0 19 0 17.7778V10.4667L2.54444 13.0111C2.97778 13.4444 3.67778 13.4444 4.11111 13.0111L7.77778 9.34444L11.4333 13C11.8667 13.4333 12.5667 13.4333 13 13L16.6667 9.35556Z"
    fill="#24272CB3" />
</svg>