<svg width="512" height="512" viewBox="0 0 512 512" fill="none" xmlns="http://www.w3.org/2000/svg">
  <path
    d="M73.504 437.109C-24.5013 337.255 -24.5013 174.529 73.504 74.6745C171.509 -23.3307 330.537 -25.1799 430.391 70.9762L435.939 74.6745L445.184 83.9203L404.503 124.602L395.257 115.356C317.593 37.6914 191.85 37.6914 114.185 115.356C36.5208 193.021 36.5208 318.763 114.185 396.428C190.001 472.243 313.894 474.092 391.559 400.126L395.257 396.428L404.503 387.182L445.184 427.863C443.335 429.713 439.637 433.411 435.939 437.109C336.084 536.964 173.358 536.964 73.504 437.109Z"
    fill="#12B0EE" />
  <path d="M376.763 152.336L417.445 193.018L223.283 389.028L121.58 287.325L164.11 246.643L223.283 307.665L376.763 152.336Z" fill="#12B0EE" />
</svg>