<svg width="514" height="157" viewBox="0 0 514 157" fill="none" xmlns="http://www.w3.org/2000/svg">
  <g clip-path="url(#clip0_3625_178)">
    <rect width="523" height="157" fill="white" />
    <path opacity="0.08"
      d="M265.818 143.787C299.705 143.787 327.176 116.316 327.176 82.4287C327.176 48.5413 299.705 21.0701 265.818 21.0701C231.93 21.0701 204.459 48.5413 204.459 82.4287C204.459 116.316 231.93 143.787 265.818 143.787Z"
      fill="#3B6FA3" />
    <path
      d="M263.351 141.658C297.238 141.658 324.71 114.187 324.71 80.2996C324.71 46.4121 297.238 18.9409 263.351 18.9409C229.463 18.9409 201.992 46.4121 201.992 80.2996C201.992 114.187 229.463 141.658 263.351 141.658Z"
      fill="#F0F7FC" />
    <path opacity="0.31"
      d="M217.114 110.781L229.221 105.633L222.991 90.9771L210.883 96.125L210.578 95.4058C210.059 94.1878 208.653 93.62 207.434 94.1373L205.106 95.1262L204.934 94.721C204.732 94.2469 204.184 94.0252 203.71 94.2272L200.919 95.4132C200.445 95.6151 200.223 96.1632 200.425 96.6373L200.597 97.0425L199.278 97.6029L199.106 97.1977C198.904 96.7235 198.356 96.5018 197.882 96.7038L195.091 97.8898C194.617 98.0918 194.395 98.6398 194.597 99.114L194.77 99.5192L178.368 106.492C177.15 107.011 176.582 108.417 177.099 109.635L178.635 113.249L173.19 115.564L174.147 117.814C160.542 123.67 145.24 130.105 130.399 130.529C124.045 130.71 111.716 128.359 100.532 110.565C97.4766 105.705 94.9987 100.504 92.9777 96.0585C92.6267 95.2863 92.2868 94.4612 91.9272 93.588C90.1957 89.3847 88.2326 84.621 83.6499 82.3094C77.103 79.0076 71.2568 82.7195 66.5596 85.7011C65.9882 86.0644 65.4253 86.4216 64.8699 86.7615C63.3711 87.6777 61.8292 88.6704 60.3365 89.6322C52.4804 94.6927 44.3558 99.9256 35.5404 99.0536C27.5882 98.2667 20.4895 93.0092 16.5522 84.9856C8.67516 68.9334 9.98308 52.6978 20.5498 35.3501C29.8641 20.0591 44.6268 6.5181 57.653 -5.42924C59.6235 -7.23716 61.4844 -8.9441 63.3083 -10.64C67.0153 -14.0859 71.1927 -18.1931 73.8627 -23.325C76.901 -29.1638 77.3887 -35.4361 75.199 -40.5299C73.327 -44.8883 69.3971 -48.6064 63.5226 -51.5806C54.0223 -56.3899 43.9026 -58.4182 33.4442 -57.6066C24.3751 -56.9034 14.7837 -54.0327 4.93615 -49.0744C-12.6702 -40.2097 -28.3984 -26.362 -42.7719 -12.7188L-53 -3.01046L-49.8177 0.343073L-39.5896 -9.36529C-25.4722 -22.7659 -10.0556 -36.35 7.01502 -44.945C16.3231 -49.6311 25.3357 -52.3405 33.8026 -52.9981C43.4051 -53.7432 52.7021 -51.8787 61.4351 -47.4574C66.317 -44.9856 69.519 -42.041 70.9526 -38.7059C72.5684 -34.9472 72.1225 -29.9951 69.7617 -25.4568C67.4315 -20.9789 63.5842 -17.2079 60.1604 -14.0243C58.3476 -12.3395 56.4929 -10.6375 54.5273 -8.83573C41.2757 3.31852 26.2557 17.0947 16.6015 32.9449C11.2417 41.7443 8.16161 50.1165 7.18621 58.5403C6.07658 68.1243 7.83155 77.7058 12.4031 87.0213C13.2898 88.8292 14.3157 90.5165 15.4623 92.0732C20.3245 98.6719 27.353 102.89 35.0859 103.654C45.5049 104.684 54.7145 98.7519 62.8403 93.519C64.3773 92.5288 65.8293 91.5941 67.2813 90.7061C67.8589 90.3527 68.4451 89.9808 69.0387 89.6039C74.0684 86.4105 77.6584 84.4646 81.5686 86.4363C84.6155 87.9721 86.1598 91.7222 87.6537 95.3479C88.0133 96.2211 88.3853 97.1238 88.7707 97.9711C90.8558 102.557 93.4186 107.932 96.6195 113.024C101.945 121.498 113.431 135.637 130.532 135.148C146.239 134.7 161.976 128.084 175.958 122.067L176.923 124.338L182.368 122.022L183.943 125.728C184.462 126.946 185.868 127.514 187.086 126.996L203.488 120.023L203.66 120.429C203.862 120.903 204.41 121.124 204.884 120.922L207.675 119.736C208.149 119.534 208.371 118.986 208.169 118.512L207.997 118.107L209.316 117.547L209.488 117.952C209.69 118.426 210.238 118.648 210.712 118.446L213.503 117.26C213.977 117.058 214.199 116.51 213.997 116.036L213.824 115.63L216.152 114.641C217.37 114.123 217.938 112.717 217.42 111.499L217.115 110.779L217.114 110.781Z"
      fill="#3B6FA3" />
    <path
      d="M210.166 113.435C210.368 113.909 210.916 114.131 211.39 113.929L214.181 112.743C214.655 112.541 214.876 111.993 214.674 111.519L214.502 111.113L216.83 110.124C218.048 109.606 218.615 108.2 218.098 106.982L211.256 90.8888C210.737 89.6707 209.331 89.103 208.113 89.6203L205.785 90.6092L205.613 90.204C205.411 89.7299 204.863 89.5082 204.388 89.7102L201.598 90.8961C201.124 91.0981 200.902 91.6462 201.104 92.1203L201.276 92.5255L199.957 93.0859L199.785 92.6807C199.583 92.2065 199.035 91.9848 198.561 92.1868L195.77 93.3728C195.296 93.5748 195.074 94.1228 195.276 94.597L195.449 95.0022L179.047 101.975C177.829 102.494 177.261 103.9 177.778 105.118L184.621 121.211C185.139 122.429 186.546 122.997 187.764 122.479L204.166 115.506L204.338 115.912C204.54 116.386 205.088 116.607 205.562 116.405L208.353 115.219C208.827 115.017 209.049 114.469 208.847 113.995L208.674 113.59L209.993 113.03L210.166 113.435V113.435Z"
      fill="#EFF1F1" />
    <path opacity="0.14" d="M180.959 113.082L216.996 97.8891L210.159 85.1018L173.822 101.054L177.099 109.639L180.959 113.082Z" fill="#5EC8F2" />
    <path d="M229.889 101.111L223.659 86.4551L211.552 91.6017L217.782 106.258L229.889 101.111Z" fill="#5EC8F2" />
    <path d="M223.983 89.8036L223.053 87.615L220.047 88.8927L220.977 91.0813L223.983 89.8036Z" fill="white" />
    <path d="M225.537 93.4576L224.606 91.269L221.601 92.5468L222.531 94.7354L225.537 93.4576Z" fill="white" />
    <path d="M227.09 97.1114L226.159 94.9229L223.153 96.2006L224.084 98.3892L227.09 97.1114Z" fill="white" />
    <path d="M228.641 100.766L227.711 98.5771L224.705 99.8549L225.636 102.043L228.641 100.766Z" fill="white" />
    <path d="M209.984 113.027L201.268 92.5217L199.949 93.0821L208.666 113.588L209.984 113.027Z" fill="#5EC8F2" />
    <path d="M182.882 117.623L179.152 108.848L173.292 111.34L177.022 120.115L182.882 117.623Z" fill="#5EC8F2" />
    <path
      d="M15.5717 87.854C14.4251 86.2973 13.3992 84.6101 12.5125 82.8022C7.94094 73.4867 6.18597 63.9051 7.2956 54.3212C8.271 45.8973 11.3511 37.5252 16.7109 28.7257C26.365 12.8756 41.3851 -0.900654 54.6367 -13.0549C56.601 -14.8567 58.457 -16.5587 60.2698 -18.2434C63.6936 -21.427 67.5409 -25.1981 69.871 -29.676C72.2319 -34.2143 72.6778 -39.1664 71.062 -42.9251C69.6297 -46.2602 66.4264 -49.2048 61.5445 -51.6765C52.8115 -56.0978 43.5145 -57.9624 33.912 -57.2173C25.4451 -56.5609 16.4325 -53.8515 7.12441 -49.1642C-9.94621 -40.5691 -25.3628 -26.9838 -39.4802 -13.5845L-49.7083 -3.8761L-52.8906 -7.22963L-42.6625 -16.938C-28.289 -30.5824 -12.5608 -44.4301 5.04554 -53.2936C14.8931 -58.2518 24.4844 -61.1226 33.5536 -61.8258C44.0133 -62.6374 54.133 -60.6103 63.632 -55.7998C69.5065 -52.8256 73.4364 -49.1087 75.3084 -44.749C77.4993 -39.6578 77.0129 -33.3854 73.9734 -27.5442C71.3033 -22.4123 67.1247 -18.3063 63.4189 -14.8591C61.595 -13.1633 59.7341 -11.4563 57.7636 -9.64841C44.7386 2.29893 29.9747 15.8399 20.6605 31.1309C10.0937 48.4786 8.78579 64.7143 16.6628 80.7664C20.6001 88.79 27.6988 94.0487 35.651 94.8345C44.4665 95.7064 52.5911 90.4735 60.4472 85.4131C61.9386 84.4524 63.4817 83.4586 64.9805 82.5423C65.536 82.2024 66.1 81.8452 66.6702 81.4819C71.3674 78.4991 77.2136 74.7884 83.7606 78.0902C88.3432 80.4019 90.3063 85.1655 92.0378 89.3688C92.3975 90.242 92.7374 91.0684 93.0884 91.8393C95.1094 96.2853 97.5885 101.486 100.643 106.346C111.825 124.139 124.156 126.49 130.509 126.309C145.75 125.875 161.476 119.101 175.349 113.124L177.358 112.26L179.183 116.507L177.177 117.371C162.921 123.511 146.763 130.471 130.64 130.931C113.541 131.42 102.053 117.281 96.7276 108.808C93.5268 103.715 90.9639 98.3407 88.8789 93.7544C88.4934 92.9071 88.1215 92.0044 87.7619 91.1312C86.268 87.5055 84.7236 83.7554 81.6767 82.2196C77.7666 80.2467 74.1766 82.1925 69.1469 85.3872C68.5533 85.7641 67.9683 86.136 67.3894 86.4894C65.9374 87.3774 64.4854 88.3121 62.9485 89.3023C54.8226 94.5352 45.6131 100.468 35.1941 99.4368C27.4611 98.672 20.4326 94.4539 15.5704 87.8565L15.5717 87.854Z"
      fill="#5EC8F2" />
    <path opacity="0.31"
      d="M561.549 142.027C554.132 142.069 544.455 137.083 539.56 125.853C533.519 111.996 536.661 97.0798 539.695 82.6545C539.927 81.5535 540.158 80.4562 540.384 79.3626L540.557 78.5251C544.011 61.8326 547.582 44.5686 547.64 27.1901C547.674 16.5876 545.562 5.76471 541.69 -3.28354C537.06 -14.104 530.028 -22.0833 521.351 -26.358C513.214 -30.3667 504.077 -30.7571 496.908 -27.4011C490.523 -24.4121 486.195 -18.8935 484.393 -11.4438C481.417 0.86804 483.847 13.7317 486.198 26.1729C486.499 27.7702 486.799 29.354 487.083 30.9217C487.237 31.7715 487.395 32.6274 487.552 33.492C490.841 51.4235 494.566 71.7479 482.603 86.7101C478.941 91.289 474.841 93.6733 470.069 94.0009C457.592 94.8568 443.347 81.3405 431.901 70.4794C427.439 66.2453 423.586 62.59 420.314 60.2156C399.663 45.2349 381.184 40.3838 363.906 45.4258L362.495 42.3691L356.028 45.3544L354.718 42.5144C354.219 41.4343 352.939 40.9626 351.859 41.4614L335.324 49.0934L335.003 48.3963C334.744 47.8372 334.082 47.5933 333.523 47.8507L317.206 55.3829C316.647 55.6416 316.403 56.3041 316.66 56.8633L316.982 57.5603L309.815 60.8683C308.735 61.3671 308.263 62.6467 308.762 63.7267L310.914 68.3869L294.527 75.998C293.209 76.6064 292.635 78.1667 293.242 79.4845C293.85 80.8023 295.411 81.3762 296.729 80.769L313.124 73.1765L315.303 77.8958C315.802 78.9759 317.081 79.4476 318.161 78.9488L325.328 75.6408L325.649 76.3379C325.908 76.897 326.571 77.1409 327.13 76.8835L343.447 69.3513C344.006 69.0926 344.25 68.4301 343.992 67.8709L343.671 67.1739L360.206 59.5419C361.286 59.0431 361.757 57.7635 361.259 56.6835L360.279 54.5615L359.948 53.8423L366.415 50.857L364.837 47.4382C381.338 42.7545 399.097 47.5305 419.03 61.9902C422.185 64.2797 425.989 67.8894 430.394 72.0693C442.152 83.226 456.784 97.1106 470.222 96.1881C475.566 95.8211 480.308 93.0932 484.318 88.0783C496.906 72.3353 493.083 51.4875 489.711 33.0954C489.554 32.2333 489.396 31.3774 489.242 30.5301C488.956 28.9574 488.657 27.3675 488.354 25.7652C486.047 13.5519 483.659 0.924693 486.528 -10.929C488.167 -17.71 492.08 -22.7188 497.841 -25.4171C504.411 -28.4935 512.84 -28.1105 520.386 -24.3924C528.585 -20.3517 535.257 -12.7554 539.678 -2.42145C543.434 6.35833 545.485 16.8709 545.45 27.1827C545.394 44.3408 541.844 61.4939 538.413 78.0805L538.24 78.918C538.014 80.0079 537.784 81.1028 537.552 82.2013C534.444 96.9652 531.231 112.228 537.552 126.727C539.657 131.555 543.056 135.933 547.124 139.055C551.561 142.46 556.554 144.245 561.563 144.216L561.55 142.024L561.549 142.027Z"
      fill="#3B6FA3" />
    <path
      d="M354.999 38.1821L361.539 52.3499C362.037 53.43 361.566 54.7096 360.486 55.2083L318.443 74.6152C317.363 75.114 316.083 74.6423 315.584 73.5622L309.045 59.3944C308.546 58.3143 309.018 57.0347 310.098 56.536L352.141 37.1291C353.221 36.6303 354.5 37.102 354.999 38.1821V38.1821Z"
      fill="#EFF1F1" />
    <path opacity="0.14" d="M359.045 45.2637L309.321 67.6435L305.284 55.2307L322.931 42.069L356.73 32.7979L359.045 45.2637Z" fill="#5EC8F2" />
    <path
      d="M335.284 44.0637L344.273 63.5371C344.532 64.0962 344.286 64.7588 343.727 65.0174L327.41 72.5496C326.851 72.8082 326.189 72.5632 325.93 72.004L316.941 52.5306C316.682 51.9715 316.927 51.3089 317.487 51.0503L333.803 43.5181C334.363 43.2595 335.025 43.5046 335.284 44.0637Z"
      fill="#5EC8F2" />
    <path
      d="M342.261 62.706C342.447 63.1075 342.271 63.5841 341.869 63.7701L327.689 70.3158C327.287 70.5018 326.811 70.3257 326.625 69.9242C326.439 69.5227 326.615 69.0461 327.017 68.8601L341.197 62.3144C341.598 62.1284 342.075 62.3045 342.261 62.706Z"
      fill="#EFF1F1" />
    <path
      d="M340.731 59.3918C340.917 59.7933 340.741 60.2699 340.34 60.4559L326.16 67.0016C325.758 67.1876 325.282 67.0114 325.096 66.61C324.91 66.2085 325.086 65.7319 325.487 65.5459L339.667 59.0002C340.069 58.8142 340.545 58.9903 340.731 59.3918Z"
      fill="#EFF1F1" />
    <path
      d="M339.201 56.0776C339.387 56.4791 339.211 56.9557 338.81 57.1417L324.629 63.6874C324.228 63.8734 323.751 63.6972 323.565 63.2958C323.379 62.8943 323.556 62.4176 323.957 62.2317L338.137 55.686C338.539 55.5 339.015 55.6761 339.201 56.0776Z"
      fill="#EFF1F1" />
    <path
      d="M337.671 52.7636C337.857 53.1651 337.681 53.6417 337.279 53.8277L323.099 60.3734C322.698 60.5594 322.221 60.3833 322.035 59.9818C321.849 59.5803 322.025 59.1037 322.427 58.9177L336.607 52.372C337.008 52.186 337.485 52.3621 337.671 52.7636Z"
      fill="#EFF1F1" />
    <path
      d="M336.143 49.4494C336.329 49.8509 336.152 50.3275 335.751 50.5135L321.571 57.0592C321.169 57.2452 320.693 57.0691 320.507 56.6676C320.321 56.2661 320.497 55.7895 320.898 55.6035L335.079 49.0578C335.48 48.8718 335.957 49.0479 336.143 49.4494Z"
      fill="#EFF1F1" />
    <path
      d="M334.612 46.134C334.798 46.5355 334.622 47.0121 334.221 47.1981L320.041 53.7438C319.639 53.9297 319.162 53.7536 318.976 53.3521C318.791 52.9507 318.967 52.474 319.368 52.2881L333.548 45.7423C333.95 45.5564 334.426 45.7325 334.612 46.134Z"
      fill="#EFF1F1" />
    <path d="M311.213 64.0938L313.415 68.8636L297.01 76.4364C295.693 77.0448 294.132 76.4697 293.524 75.1519C292.915 73.8341 293.491 72.2738 294.808 71.6654L311.213 64.0925V64.0938Z" fill="#5EC8F2" />
    <path d="M356.299 41.0246L360.217 49.5115L366.683 46.5264L362.765 38.0395L356.299 41.0246Z" fill="#5EC8F2" />
    <path
      d="M361.992 41.7879C379.898 35.656 399.067 40.2657 420.595 55.8831C423.867 58.2575 427.719 61.9128 432.181 66.1469C443.627 77.008 457.873 90.5255 470.35 89.6684C475.122 89.3408 479.222 86.9553 482.883 82.3776C494.846 67.4141 491.12 47.091 487.833 29.1595C487.674 28.2962 487.517 27.439 487.364 26.5892C487.079 25.0214 486.78 23.4377 486.478 21.8403C484.128 9.39914 481.697 -3.46448 484.674 -15.7764C486.476 -23.2261 490.803 -28.7447 497.189 -31.7337C504.357 -35.0896 513.495 -34.6992 521.632 -30.6905C530.308 -26.4158 537.34 -18.4365 541.971 -7.61606C545.843 1.43219 547.955 12.2539 547.92 22.8576C547.863 40.2361 544.291 57.5001 540.838 74.1926L540.664 75.0301C540.437 76.1225 540.207 77.2198 539.976 78.322C536.941 92.7473 533.799 107.664 539.84 121.52C544.736 132.751 554.412 137.736 561.83 137.694L561.842 139.886C556.833 139.915 551.839 138.13 547.403 134.725C543.335 131.603 539.935 127.225 537.832 122.397C531.511 107.898 534.723 92.6352 537.832 77.8713C538.063 76.7727 538.293 75.6779 538.519 74.588L538.692 73.7505C542.125 57.1639 545.673 40.0107 545.729 22.8527C545.764 12.5421 543.713 2.02827 539.957 -6.75151C535.536 -17.0843 528.865 -24.6818 520.665 -28.7225C513.119 -32.4406 504.692 -32.8236 498.12 -29.7471C492.359 -27.05 488.446 -22.0401 486.807 -15.2591C483.939 -3.40536 486.327 9.22179 488.633 21.4352C488.936 23.0374 489.237 24.6261 489.521 26.2C489.675 27.0474 489.832 27.9033 489.99 28.7654C493.364 47.1575 497.185 68.0053 484.597 83.7483C480.587 88.7619 475.845 91.4911 470.501 91.8581C457.064 92.7805 442.431 78.8959 430.674 67.7393C426.268 63.5593 422.464 59.9484 419.309 57.6602C398.401 42.4923 379.884 37.9799 362.703 43.8643L361.992 41.7903V41.7879Z"
      fill="#5EC8F2" />
    <path fill-rule="evenodd" clip-rule="evenodd"
      d="M279.861 66.1218C277.6 63.8576 274.911 62.0622 271.949 60.8397C268.987 59.6173 265.81 58.992 262.603 59.0001C249.156 59.0001 238.209 69.8923 238.204 83.281C238.204 87.5599 239.326 91.7361 241.46 95.42L238 108L250.933 104.622C254.511 106.56 258.519 107.576 262.592 107.578H262.603C276.048 107.578 286.994 96.6859 287 83.2972C287.009 80.1068 286.383 76.9463 285.158 73.9983C283.932 71.0503 282.132 68.3732 279.861 66.1218V66.1218ZM262.603 103.48H262.595C258.963 103.481 255.398 102.508 252.273 100.665L251.534 100.226L243.859 102.231L245.906 94.7844L245.425 94.0217C243.394 90.8041 242.319 87.0806 242.324 83.281C242.329 72.1535 251.425 63.1005 262.611 63.1005C265.275 63.0946 267.914 63.6147 270.375 64.6305C272.836 65.6463 275.069 67.1378 276.947 69.0186C278.835 70.8904 280.331 73.1161 281.35 75.5669C282.368 78.0177 282.888 80.6451 282.88 83.2972C282.874 94.4247 273.778 103.48 262.603 103.48ZM273.727 88.3632C273.115 88.0576 270.12 86.5916 269.561 86.3888C269.003 86.1859 268.598 86.0858 268.191 86.6917C267.783 87.2976 266.615 88.6635 266.259 89.0692C265.902 89.4749 265.546 89.5236 264.938 89.2207C264.329 88.9177 262.364 88.2767 260.035 86.2102C258.222 84.6009 256.999 82.6156 256.643 82.007C256.287 81.3984 256.605 81.0711 256.912 80.7682C257.187 80.4977 257.521 80.0596 257.826 79.7052C258.13 79.3509 258.23 79.0994 258.434 78.6936C258.638 78.2879 258.538 77.9336 258.383 77.6307C258.23 77.325 257.01 74.3389 256.502 73.1245C256.01 71.9479 255.507 72.1048 255.132 72.0885C254.744 72.0727 254.355 72.0655 253.966 72.0669C253.657 72.0747 253.353 72.1461 253.073 72.2764C252.793 72.4067 252.543 72.5932 252.339 72.8242C251.779 73.4328 250.205 74.8988 250.205 77.8849C250.205 80.871 252.39 83.757 252.695 84.1627C252.999 84.5684 256.994 90.6948 263.109 93.3238C264.565 93.9486 265.701 94.3219 266.585 94.6032C268.044 95.0657 269.373 94.9981 270.425 94.8439C271.596 94.6708 274.031 93.3779 274.539 91.9606C275.048 90.5433 275.048 89.3289 274.895 89.0746C274.743 88.8204 274.333 88.6662 273.727 88.3632"
      fill="#5EC8F2" />
  </g>
  <defs>
    <clipPath id="clip0_3625_178">
      <rect width="514" height="157" fill="white" />
    </clipPath>
  </defs>
</svg>