<svg version="1.1" id="Layer_1" xmlns="http://www.w3.org/2000/svg" xmlns:xlink="http://www.w3.org/1999/xlink" x="0px" y="0px" viewBox="0 0 119.8 27.6" style="enable-background:new 0 0 119.8 27.6;"
  xml:space="preserve">
  <style type="text/css">
    .st0 {
      fill: #12B0EE;
    }

    .st1 {
      fill: #3C4555;
    }
  </style>
  <title>Artboard</title>
  <g id="Artboard">
    <g id="Group-4">
      <g id="Group-5">
        <path id="Oval" class="st0" d="M4,23.6C-1.3,18.2-1.3,9.4,4,4c5.3-5.3,13.9-5.4,19.3-0.2L23.6,4l0.5,0.5l-2.2,2.2l-0.5-0.5
				C17.2,2,10.4,2,6.2,6.2s-4.2,11,0,15.2c4.1,4.1,10.8,4.2,15,0.2l0.2-0.2l0.5-0.5l2.2,2.2c-0.1,0.1-0.3,0.3-0.5,0.5
				C18.2,29,9.4,29,4,23.6z" />
        <polygon id="Path-3" class="st0" points="20.4,8.2 22.6,10.4 12.1,21 6.6,15.5 8.9,13.3 12.1,16.6 			" />
      </g>
      <path id="easysocial" class="st1" d="M33.2,21.2c1.9,0,3.3-0.7,4.2-2.1l0,0l-2-1.2c-0.5,0.6-1.2,1-2.2,1c-1.5,0-2.4-0.6-2.7-1.8
			l0,0h7.3c0.1-0.4,0.1-0.7,0.1-1c0-1.4-0.5-2.7-1.4-3.6c-0.9-1-2.1-1.5-3.5-1.5c-1.5,0-2.7,0.5-3.7,1.5c-1,1-1.4,2.2-1.4,3.6
			c0,1.5,0.5,2.7,1.5,3.7C30.3,20.8,31.6,21.2,33.2,21.2z M35.4,15.2h-4.9c0.1-0.6,0.4-1.1,0.9-1.4c0.4-0.3,1-0.5,1.7-0.5
			c0.6,0,1.1,0.2,1.5,0.5C34.9,14.1,35.2,14.6,35.4,15.2L35.4,15.2z M43.8,21.2c1.4,0,2.4-0.5,3.2-1.4l0,0V21h2.5v-9.7h-2.5v1.1
			c-0.8-0.9-1.8-1.4-3.2-1.4c-1.3,0-2.4,0.5-3.3,1.5c-0.9,1-1.4,2.2-1.4,3.6c0,1.4,0.5,2.6,1.4,3.6C41.4,20.7,42.5,21.2,43.8,21.2z
			 M44.2,18.9c-0.8,0-1.4-0.3-1.9-0.8c-0.5-0.5-0.8-1.2-0.8-2c0-0.8,0.3-1.5,0.8-2c0.5-0.5,1.1-0.8,1.9-0.8s1.4,0.3,1.9,0.8
			c0.5,0.5,0.8,1.2,0.8,2c0,0.8-0.3,1.5-0.8,2C45.6,18.6,45,18.9,44.2,18.9z M55,21.2c1.1,0,2-0.3,2.8-0.8c0.7-0.5,1.1-1.3,1.1-2.3
			c0-0.7-0.2-1.2-0.5-1.6c-0.3-0.4-0.8-0.8-1.3-0.9c-0.5-0.2-1-0.3-1.5-0.5c-0.5-0.1-0.9-0.3-1.3-0.4s-0.5-0.4-0.5-0.6
			c0-0.2,0.1-0.4,0.3-0.6c0.2-0.1,0.5-0.2,0.8-0.2c0.7,0,1.2,0.3,1.6,1l0,0l2.1-1.2c-0.4-0.7-0.9-1.2-1.5-1.5
			c-0.6-0.4-1.4-0.5-2.2-0.5c-1,0-1.9,0.3-2.6,0.8c-0.7,0.5-1.1,1.3-1.1,2.3c0,0.6,0.2,1.2,0.5,1.6c0.3,0.4,0.8,0.7,1.3,0.9
			c0.5,0.2,1,0.4,1.5,0.5c0.5,0.1,0.9,0.3,1.3,0.4s0.5,0.4,0.5,0.6c0,0.6-0.4,0.8-1.3,0.8c-1,0-1.6-0.4-1.9-1.3l0,0L51,18.9
			C51.7,20.5,53,21.2,55,21.2z M60.5,24.8c1.2,0.1,2.3-0.2,3.1-0.8c0.8-0.6,1.5-1.6,2-3l0,0l3.5-9.7h-2.7l-2.2,6.5l-2.5-6.5h-2.7
			l4,9.4c-0.2,0.7-0.5,1.1-0.9,1.4s-0.9,0.4-1.6,0.4l0,0V24.8z M73.2,21.2c1.1,0,2-0.3,2.8-0.8c0.7-0.5,1.1-1.3,1.1-2.3
			c0-0.7-0.2-1.2-0.5-1.6c-0.3-0.4-0.8-0.8-1.3-0.9c-0.5-0.2-1-0.3-1.5-0.5c-0.5-0.1-0.9-0.3-1.3-0.4s-0.5-0.4-0.5-0.6
			c0-0.2,0.1-0.4,0.3-0.6c0.2-0.1,0.5-0.2,0.8-0.2c0.7,0,1.2,0.3,1.6,1l0,0l2.1-1.2c-0.4-0.7-0.9-1.2-1.5-1.5
			C74.7,11.2,74,11,73.2,11c-1,0-1.9,0.3-2.6,0.8c-0.7,0.5-1.1,1.3-1.1,2.3c0,0.6,0.2,1.2,0.5,1.6c0.3,0.4,0.8,0.7,1.3,0.9
			c0.5,0.2,1,0.4,1.5,0.5c0.5,0.1,0.9,0.3,1.3,0.4s0.5,0.4,0.5,0.6c0,0.6-0.4,0.8-1.3,0.8c-1,0-1.6-0.4-1.9-1.3l0,0l-2.2,1.2
			C69.8,20.5,71.2,21.2,73.2,21.2z M83.2,21.2c1.4,0,2.7-0.5,3.6-1.5c1-1,1.5-2.2,1.5-3.6c0-1.4-0.5-2.6-1.5-3.6S84.6,11,83.2,11
			s-2.6,0.5-3.6,1.5S78,14.7,78,16.1c0,1.4,0.5,2.6,1.5,3.6S81.7,21.2,83.2,21.2z M83.2,18.8c-0.8,0-1.4-0.3-1.9-0.8
			c-0.5-0.5-0.7-1.1-0.7-1.9c0-0.8,0.2-1.4,0.7-1.9c0.5-0.5,1.1-0.8,1.9-0.8c0.8,0,1.4,0.3,1.9,0.8c0.5,0.5,0.8,1.1,0.8,1.9
			c0,0.8-0.3,1.4-0.8,1.9C84.5,18.5,83.9,18.8,83.2,18.8z M94.7,21.2c0.9,0,1.8-0.2,2.6-0.7c0.8-0.5,1.4-1.1,1.8-1.8l0,0l-2.2-1.2
			c-0.2,0.4-0.5,0.7-0.9,0.9c-0.4,0.2-0.8,0.3-1.3,0.3c-0.8,0-1.4-0.2-1.9-0.7c-0.5-0.5-0.7-1.1-0.7-1.9c0-0.8,0.2-1.4,0.7-1.9
			c0.5-0.5,1.1-0.7,1.9-0.7c0.5,0,0.9,0.1,1.3,0.3c0.4,0.2,0.7,0.5,0.9,0.9l0,0l2.2-1.3c-0.4-0.8-1-1.4-1.8-1.8
			c-0.8-0.5-1.6-0.7-2.6-0.7c-1.5,0-2.7,0.5-3.7,1.5c-1,1-1.5,2.2-1.5,3.6c0,1.4,0.5,2.7,1.5,3.6S93.2,21.2,94.7,21.2z M101.6,10.1
			c0.4,0,0.8-0.2,1.1-0.5c0.3-0.3,0.5-0.7,0.5-1.1s-0.2-0.8-0.5-1.1s-0.7-0.5-1.1-0.5c-0.4,0-0.8,0.2-1.1,0.5
			c-0.3,0.3-0.5,0.7-0.5,1.1s0.2,0.8,0.5,1.1C100.9,10,101.2,10.1,101.6,10.1z M102.9,21v-9.7h-2.5V21H102.9z M109.4,21.2
			c1.4,0,2.4-0.5,3.2-1.4l0,0V21h2.5v-9.7h-2.5v1.1c-0.8-0.9-1.8-1.4-3.2-1.4c-1.3,0-2.4,0.5-3.3,1.5c-0.9,1-1.4,2.2-1.4,3.6
			c0,1.4,0.5,2.6,1.4,3.6C107,20.7,108.1,21.2,109.4,21.2z M109.9,18.9c-0.8,0-1.4-0.3-1.9-0.8c-0.5-0.5-0.8-1.2-0.8-2
			c0-0.8,0.3-1.5,0.8-2c0.5-0.5,1.1-0.8,1.9-0.8s1.4,0.3,1.9,0.8c0.5,0.5,0.8,1.2,0.8,2c0,0.8-0.3,1.5-0.8,2
			C111.3,18.6,110.6,18.9,109.9,18.9z M119.8,21V6.8h-2.5V21H119.8z" />
    </g>
  </g>
</svg>