<svg width="50" height="50" viewBox="0 0 50 50" fill="none" xmlns="http://www.w3.org/2000/svg">
  <path
    d="M42.6777 7.32219C37.9557 2.60031 31.6777 0 25 0C18.3223 0 12.0442 2.60031 7.32232 7.32219C2.60044 12.0441 0 18.3222 0 24.9999C0 31.6775 2.60044 37.9561 7.32232 42.6778C12.0441 47.3997 18.3222 50 25 50C31.6778 50 37.9558 47.3997 42.6777 42.6778C47.3996 37.9561 50 31.6779 50 24.9999C50 18.3223 47.3996 12.0441 42.6777 7.32219ZM31.1164 14.8272C33.1802 14.8272 34.8593 16.5063 34.8593 18.5702C34.8593 20.634 33.1802 22.3131 31.1164 22.3131C29.0526 22.3131 27.3734 20.634 27.3734 18.5702C27.3734 16.5063 29.0526 14.8272 31.1164 14.8272ZM18.8835 14.8272C20.9474 14.8272 22.6265 16.5063 22.6265 18.5702C22.6265 20.634 20.9474 22.3131 18.8835 22.3131C16.8195 22.3131 15.1407 20.634 15.1407 18.5702C15.1407 16.5063 16.8195 14.8272 18.8835 14.8272ZM35.5873 35.2212C34.6988 35.6979 33.592 35.3641 33.1151 34.4757C31.6023 31.6572 28.6845 29.8006 25.4997 29.6303C22.2871 29.459 19.1697 31.009 17.3685 33.6753C17.1937 33.934 17.0312 34.2031 16.8849 34.4754C16.4077 35.3643 15.3007 35.6977 14.4125 35.2207C13.5238 34.7438 13.1902 33.6368 13.6672 32.7482C13.8717 32.3676 14.0984 31.9917 14.3421 31.631C16.731 28.095 20.7744 25.9655 25.0191 25.9655C25.2436 25.9655 25.4688 25.9715 25.6943 25.9833C30.1446 26.221 34.2209 28.8132 36.3327 32.7484C36.8098 33.6373 36.476 34.7443 35.5873 35.2212Z"
    fill="#12B0EE" />
</svg>