<svg width="87" height="84" viewBox="0 0 87 84" fill="none" xmlns="http://www.w3.org/2000/svg">
<g id="Group 3">
<g id="Star" filter="url(#filter0_d)">
<path fill-rule="evenodd" clip-rule="evenodd" d="M45.1348 61.4123C44.1408 60.7663 42.8595 60.7663 41.8654 61.4123L33.801 66.6529C32.1118 67.7507 29.8423 66.9046 29.2839 64.969L26.8487 56.5281C26.5029 55.3293 25.4513 54.4698 24.2077 54.3694L14.787 53.6087C12.6647 53.4373 11.3914 51.1712 12.3488 49.2694L16.0935 41.8309C16.6945 40.6371 16.4332 39.1897 15.4528 38.2813L9.1747 32.4646C7.5845 30.9912 8.03393 28.3695 10.024 27.5099L18.2886 23.9401C19.4827 23.4244 20.2084 22.1979 20.0856 20.903L19.2912 12.5228C19.096 10.4633 20.9948 8.82888 23.0023 9.32849L32.4096 11.6696C33.5767 11.9601 34.8045 11.5254 35.5289 10.5653L41.1053 3.17421C42.3055 1.58334 44.6947 1.58334 45.895 3.17421L51.4713 10.5653C52.1957 11.5254 53.4235 11.9601 54.5907 11.6696L63.9979 9.32849C66.0054 8.82888 67.9043 10.4633 67.709 12.5228L66.9147 20.903C66.7919 22.1979 67.5176 23.4244 68.7117 23.9401L76.9762 27.5099C78.9663 28.3695 79.4158 30.9912 77.8256 32.4646L71.5475 38.2813C70.5671 39.1897 70.3058 40.6371 70.9068 41.8309L74.6515 49.2695C75.6088 51.1713 74.3356 53.4373 72.2133 53.6087L62.7926 54.3694C61.549 54.4698 60.4974 55.3293 60.1516 56.5281L57.7164 64.969C57.158 66.9046 54.8885 67.7507 53.1993 66.6529L45.1348 61.4123Z" fill="#12B0EE"/>
</g>
<path id="Shape" fill-rule="evenodd" clip-rule="evenodd" d="M50.2946 27.3569L40.7825 36.492L37.1627 33.019C35.9047 31.8115 33.8658 31.8127 32.6087 33.0215C31.352 34.2303 31.3532 36.1885 32.6117 37.3956L38.5078 43.0532C39.1364 43.6565 39.9599 43.958 40.7834 43.958C41.6073 43.958 42.4316 43.6561 43.0602 43.0524L54.8478 31.7319C56.1058 30.5243 56.1058 28.5657 54.8482 27.3574C53.5911 26.1494 51.5522 26.149 50.2946 27.3569Z" fill="white"/>
</g>
<defs>
<filter id="filter0_d" x="0.212891" y="1.98145" width="86.5744" height="81.1581" filterUnits="userSpaceOnUse" color-interpolation-filters="sRGB">
<feFlood flood-opacity="0" result="BackgroundImageFix"/>
<feColorMatrix in="SourceAlpha" type="matrix" values="0 0 0 0 0 0 0 0 0 0 0 0 0 0 0 0 0 0 127 0" result="hardAlpha"/>
<feOffset dy="8"/>
<feGaussianBlur stdDeviation="4"/>
<feColorMatrix type="matrix" values="0 0 0 0 0.196078 0 0 0 0 0.772549 0 0 0 0 1 0 0 0 0.1 0"/>
<feBlend mode="normal" in2="BackgroundImageFix" result="effect1_dropShadow"/>
<feBlend mode="normal" in="SourceGraphic" in2="effect1_dropShadow" result="shape"/>
</filter>
</defs>
</svg>
