<svg width="432" height="287" viewBox="0 0 432 287" fill="none" xmlns="http://www.w3.org/2000/svg">
<path d="M82.6808 243.044C98.2982 229.346 99.7227 206.975 96.8737 187.313C96.4014 184.036 96.3792 180.523 94.4898 177.807C92.6004 175.091 88.7329 173.519 85.9356 175.231C83.6181 176.648 82.8653 179.615 81.7582 182.117C80.2746 185.455 77.8803 188.307 74.8499 190.347C72.8719 191.668 70.3477 192.62 68.1483 191.705C65.137 190.45 64.3694 186.538 64.0299 183.283L62.1257 164.957C61.7788 161.68 61.4245 158.315 60.0591 155.362C58.6937 152.41 56.1252 149.724 52.9146 149.2C49.7041 148.676 46.0506 150.89 45.7407 154.167C45.6152 155.532 46.0433 156.89 46.1023 158.256C46.1614 159.621 45.689 161.208 44.4417 161.725C43.1943 162.241 41.7625 161.466 40.6775 160.617C36.9356 157.665 34.1678 153.672 31.5551 149.672C28.9423 145.672 26.3886 141.553 22.9197 138.298C19.4508 135.043 14.897 132.637 10.1733 132.888C5.44973 133.139 0.770404 136.579 0.0913851 141.324C-0.587634 146.07 2.63033 150.462 5.9959 153.871C10.9544 158.937 16.62 163.257 22.8164 166.699C23.9309 167.319 25.1413 167.991 25.6653 169.157C26.6174 171.268 24.787 173.659 22.7131 174.618C20.3586 175.703 17.6868 175.74 15.1627 176.323C12.6385 176.906 9.99621 178.338 9.25814 180.855C8.29128 184.354 11.4723 187.557 14.4836 189.55C20.5129 193.544 27.1837 196.472 34.2047 198.207C36.7141 198.82 39.3343 199.314 41.4599 200.798C43.5855 202.281 45.0912 205.086 44.1686 207.521C43.246 209.957 40.3159 211.035 37.74 210.843C35.1642 210.651 32.7581 209.536 30.2487 208.894C25.562 207.691 19.7829 208.643 17.3252 212.85C15.7162 215.618 15.9376 219.198 17.2366 222.142C18.5356 225.087 20.7646 227.493 23.0968 229.685C31.2156 237.354 41.2311 243.155 52.0732 245.62C62.9154 248.085 72.739 248.004 82.666 243.067" fill="#EBEBEB"/>
<path d="M84.5407 257.644C82.6195 248.594 79.8315 239.751 76.2153 231.236C71.7505 220.849 66.6964 210.726 61.0776 200.916C59.6015 198.303 58.1426 195.722 56.7009 193.174C55.2248 190.635 53.8298 188.118 52.2725 185.741C49.2899 181.185 46.0546 176.799 42.5817 172.604C39.2974 168.574 36.0351 164.869 32.9869 161.422C29.9387 157.975 26.9569 154.839 24.1301 152.086C19.7372 147.711 15.0009 143.696 9.9667 140.077C8.18796 138.793 6.77826 137.863 5.81139 137.214L4.71168 136.476C4.58992 136.389 4.46159 136.313 4.32788 136.247C4.43443 136.351 4.55058 136.445 4.67477 136.527L5.74497 137.265C6.68969 137.93 8.07725 138.904 9.82646 140.218C14.7977 143.903 19.4853 147.957 23.8497 152.344C26.6174 155.112 29.5328 158.249 32.5957 161.71C35.6587 165.172 38.8988 168.877 42.1906 172.906C45.6225 177.1 48.8255 181.476 51.7854 186.014C53.328 188.384 54.7377 190.878 56.2138 193.395L60.5388 201.226C66.1531 211.021 71.2119 221.124 75.6913 231.487C79.3265 239.952 82.1608 248.739 84.1569 257.732" fill="#E0E0E0"/>
<path d="M52.1028 185.727C52.2064 185.256 52.2608 184.776 52.2651 184.295C52.3389 183.372 52.398 182.036 52.4497 180.376C52.553 177.062 52.5382 172.486 52.5087 167.437C52.4792 162.389 52.5087 157.843 52.6785 154.514C52.7523 152.861 52.8187 151.525 52.8851 150.602C52.941 150.112 52.941 149.616 52.8851 149.126C52.7479 149.588 52.6613 150.063 52.6268 150.543C52.4939 151.458 52.3537 152.794 52.2282 154.447C51.9625 157.754 51.8445 162.345 51.8814 167.4C51.9183 172.456 51.9699 176.885 51.9994 180.331C51.9994 181.889 51.9994 183.202 51.9994 184.25C51.9759 184.745 52.0106 185.24 52.1028 185.727Z" fill="#E0E0E0"/>
<path d="M9.11792 182.509C9.68255 182.561 10.2508 182.561 10.8155 182.509C11.9078 182.509 13.4873 182.442 15.4357 182.45C19.3401 182.45 24.7354 182.619 30.6768 183.069C36.6182 183.52 41.9765 184.191 45.844 184.774C47.7777 185.047 49.335 185.313 50.4126 185.512C50.9671 185.643 51.5334 185.717 52.1028 185.734C51.5686 185.535 51.0178 185.385 50.4569 185.284C49.3867 185.033 47.8368 184.701 45.9104 184.361C42.0503 183.675 36.6772 182.951 30.7211 182.486C25.6369 182.076 20.5352 181.926 15.4357 182.036C13.4725 182.088 11.893 182.191 10.8007 182.287C10.2344 182.311 9.67125 182.385 9.11792 182.509Z" fill="#E0E0E0"/>
<path d="M75.6101 230.52C75.7085 230.348 75.7853 230.164 75.8389 229.973C75.9939 229.538 76.171 229.007 76.3925 228.364C76.8648 226.977 77.4996 224.94 78.245 222.416C79.7211 217.367 81.6032 210.326 83.5369 202.532C85.4706 194.738 87.2641 187.682 88.6591 182.604C89.3381 180.132 89.9064 178.11 90.3197 176.597C90.5042 175.947 90.6445 175.401 90.77 174.958C90.8329 174.77 90.8701 174.573 90.8807 174.375C90.7863 174.549 90.7096 174.732 90.6519 174.921C90.5042 175.357 90.3197 175.888 90.0983 176.523C89.6259 177.918 88.9912 179.955 88.2458 182.479C86.7696 187.527 84.895 194.568 82.9538 202.37C81.0127 210.171 79.2266 217.212 77.8391 222.298C77.1527 224.77 76.5917 226.8 76.171 228.305L75.7282 229.944C75.6625 230.129 75.6227 230.323 75.6101 230.52Z" fill="#E0E0E0"/>
<path d="M17.6499 218.652C17.8356 218.735 18.0318 218.792 18.233 218.821L19.9158 219.183L26.1229 220.467C31.3705 221.552 38.5888 223.132 46.5673 224.896C54.5458 226.66 61.7936 228.165 67.056 229.147C69.6908 229.634 71.8238 230.003 73.3 230.232L75.0049 230.483C75.2042 230.521 75.4071 230.539 75.6101 230.534C75.4245 230.451 75.2283 230.394 75.027 230.365L73.3443 229.996L67.1371 228.719C61.8969 227.634 54.6712 226.054 46.6928 224.29C38.7143 222.526 31.4739 221.021 26.2041 220.047C23.5766 219.559 21.4436 219.183 19.9601 218.962L18.2551 218.703C18.057 218.657 17.8531 218.639 17.6499 218.652Z" fill="#E0E0E0"/>
<path d="M89.8917 0.0148926L134.22 28.1425L116.108 58.9346L70.6946 29.0503L89.8917 0.0148926Z" fill="#EBEBEB"/>
<path d="M134.22 28.1424C134.168 28.165 134.113 28.1799 134.057 28.1867L133.563 28.2826L131.673 28.6295L124.706 29.8104L101.56 33.6114H101.398L101.346 33.4565C101.228 33.1243 101.103 32.7184 100.977 32.3936C97.8849 23.4631 95.0729 15.4182 93.0579 9.51365C92.0763 6.60567 91.2718 4.23649 90.7035 2.56846C90.4378 1.76397 90.2312 1.09233 90.0835 0.671638C90.0171 0.472361 89.9728 0.302606 89.9286 0.169754C89.9206 0.113451 89.9206 0.0563039 89.9286 0C89.9564 0.0525875 89.9811 0.106812 90.0024 0.162375L90.1943 0.642115C90.3566 1.09971 90.5928 1.72707 90.8807 2.5168C91.4785 4.17744 92.3199 6.53187 93.3532 9.42508C95.4124 15.3296 98.2465 23.3671 101.376 32.3051L101.745 33.3753L101.531 33.2498L124.699 29.5595L131.651 28.5188L133.556 28.2457L134.05 28.1867C134.103 28.1604 134.161 28.1453 134.22 28.1424Z" fill="#E0E0E0"/>
<path d="M70.6946 29.0502C70.6946 28.9469 76.6803 27.3601 84.1274 25.4928C91.5745 23.6255 97.634 22.2084 97.6561 22.3117C97.6782 22.415 91.6704 24.0093 84.2233 25.8692C76.7763 27.7291 70.7168 29.1536 70.6946 29.0502Z" fill="#E0E0E0"/>
<path d="M116.108 58.9344C116.004 58.9344 114.986 52.9561 113.834 45.5459C112.683 38.1358 111.842 32.1132 111.945 32.0984C112.048 32.0837 113.067 38.0767 114.218 45.4869C115.37 52.8971 116.211 58.9123 116.108 58.9344Z" fill="#E0E0E0"/>
<path d="M383.885 84.2573L426.331 77.3564L431.999 106.067L387.929 112.488L383.885 84.2573Z" fill="#F5F5F5"/>
<path d="M426.331 77.3564C426.239 77.5159 426.133 77.6666 426.013 77.8067L425.047 79.0466C424.176 80.1832 422.928 81.6594 421.452 83.5709L409.355 98.502L409.252 98.6275L409.112 98.5536L408.3 98.1034L391.007 88.3831L385.782 85.4309L384.357 84.6116C384.19 84.5174 384.03 84.4114 383.877 84.2943C384.055 84.3625 384.228 84.4439 384.394 84.5378L385.87 85.2759L391.155 88.1543L408.507 97.7492L409.311 98.1994L409.067 98.251L421.26 83.3864L424.951 78.958C425.379 78.466 425.718 78.0674 425.969 77.7624C426.079 77.6182 426.2 77.4825 426.331 77.3564Z" fill="#E0E0E0"/>
<path d="M387.929 112.488C387.841 112.429 390.645 108.171 394.196 102.982C397.746 97.7936 400.683 93.6236 400.772 93.69C400.86 93.7564 398.056 98.0003 394.513 103.196C390.97 108.392 388.018 112.548 387.929 112.488Z" fill="#E0E0E0"/>
<path d="M431.999 106.067C431.933 106.148 428.036 103.041 423.297 99.1293C418.559 95.2176 414.81 91.9923 414.847 91.9037C414.883 91.8151 418.81 94.9224 423.548 98.8341C428.287 102.746 432.066 106.015 431.999 106.067Z" fill="#E0E0E0"/>
<path d="M265.78 48.9263L338.368 29.4709L353.262 78.3899L277.773 97.2843L265.78 48.9263Z" fill="#455A64"/>
<path d="M277.773 97.284C277.677 97.2397 281.678 89.7189 286.696 80.5004C291.715 71.282 295.863 63.8497 295.959 63.894C296.055 63.9383 292.055 71.4592 287.036 80.685C282.017 89.9108 277.869 97.3357 277.773 97.284Z" fill="#263238"/>
<path d="M353.262 78.3898C353.203 78.4784 345.882 73.6957 336.951 67.71C328.021 61.7243 320.802 56.8014 320.861 56.7129C320.921 56.6243 328.242 61.3996 337.165 67.3927C346.088 73.3858 353.322 78.3013 353.262 78.3898Z" fill="#263238"/>
<path d="M265.78 48.9263C265.863 48.9525 265.944 48.9846 266.023 49.0223L266.717 49.347L269.359 50.6239L279.072 55.3696L311.03 71.1642L311.422 71.3561L311.171 71.4225L330.36 41.7007C332.818 37.9292 334.789 34.8662 336.198 32.7332L337.8 30.305L338.228 29.6776C338.273 29.6037 338.325 29.5345 338.383 29.4709C338.347 29.5503 338.305 29.6268 338.258 29.6997L337.866 30.3492L336.324 32.8144L330.589 41.8483L311.481 71.6292L311.392 71.7768L311.237 71.6956L310.846 71.5037L278.932 55.6132L269.278 50.7567L266.665 49.4134L265.986 49.0592C265.912 49.0233 265.843 48.9787 265.78 48.9263Z" fill="#263238"/>
<path d="M15.3767 69.4297L86.6073 76.552L83.3967 125.154L9.77481 116.562L15.3767 69.4297Z" fill="#455A64"/>
<path d="M9.7748 116.562C9.701 116.481 15.79 111.13 23.3699 104.606C30.9499 98.0813 37.157 92.8558 37.2234 92.937C37.2898 93.0182 31.2082 98.3691 23.6209 104.894C16.0336 111.418 9.84123 116.644 9.7748 116.562Z" fill="#263238"/>
<path d="M83.4188 125.153C83.3377 125.22 78.4369 118.511 72.4807 110.149C66.5245 101.786 61.7714 94.9813 61.8526 94.9223C61.9338 94.8632 66.8419 101.565 72.7981 109.927C78.7543 118.289 83.4853 125.094 83.4188 125.153Z" fill="#263238"/>
<path d="M15.3767 69.4297C15.3767 69.4297 15.4431 69.4814 15.5612 69.5995L16.0705 70.1161L18.0042 72.1458L25.0527 79.6445L48.2132 104.48L48.4936 104.783H48.2427L75.337 84.7667L83.5664 78.7072L85.7806 77.0908L86.3711 76.6775C86.4342 76.6248 86.5036 76.5802 86.5777 76.5446C86.5777 76.5446 86.5187 76.6037 86.3932 76.707L85.8249 77.1498L83.6107 78.8326C81.6622 80.3088 78.8871 82.3753 75.492 84.9512L48.4641 105.063L48.3239 105.167L48.2058 105.041L47.9253 104.739L24.846 79.8216L17.8861 72.2417L16.004 70.1604L15.5243 69.6142C15.4702 69.5567 15.4209 69.495 15.3767 69.4297Z" fill="#263238"/>
<path d="M422.087 142.646C422.087 142.646 415.695 138.498 408.064 153.768C400.432 169.039 397.576 177.829 397.576 177.829C397.576 177.829 395.554 181.032 393.347 178.966C391.14 176.899 388.092 171.024 384.387 172.116C380.534 173.253 379.301 177.571 380.091 183.889C380.881 190.206 382.099 204.119 382.202 205.381C382.305 206.643 381.612 208.444 379.884 207.278C378.157 206.112 368.179 195.188 363.278 200.229C358.377 205.27 363.47 222.519 364.016 224.416C364.562 226.313 364.171 227.132 363.278 227.604C362.385 228.077 359.374 224.098 356.407 221.102C353.44 218.105 349.484 215.197 346.9 218.312C344.317 221.427 343.586 234.439 356.111 255.407L362.547 264.744L373.914 264.005C398.152 260.965 407.931 252.403 408.824 248.432C409.717 244.462 404.949 243.148 400.764 242.653C396.579 242.159 391.59 242.247 391.413 241.244C391.236 240.24 391.657 239.45 393.472 238.69C395.288 237.93 412.012 231.309 412.972 224.364C413.931 217.419 399.177 216.245 397.199 215.611C395.221 214.976 396.233 213.3 397.266 212.621C398.299 211.942 410.042 204.326 415.503 201.056C420.965 197.786 423.622 194.162 422.146 190.428C420.729 186.833 414.219 188.051 411.23 187.579C408.241 187.107 409.525 183.549 409.525 183.549C409.525 183.549 414.692 175.881 422.072 160.47C429.453 145.059 422.013 142.557 422.013 142.557" fill="#12B0EE"/>
<path d="M415.23 156.307C415.192 156.42 415.148 156.531 415.098 156.639L414.662 157.599L412.957 161.252C411.481 164.426 409.267 169.009 406.565 174.656C401.133 185.948 393.487 201.484 384.992 218.622C376.497 235.76 368.813 251.281 363.315 262.544C360.577 268.161 358.363 272.722 356.82 275.889C356.082 277.446 355.462 278.671 355.049 279.512L354.576 280.45L354.406 280.767C354.445 280.654 354.489 280.543 354.539 280.435L354.975 279.483L356.68 275.793C358.156 272.619 360.37 268.043 363.071 262.397C368.504 251.097 376.15 235.561 384.652 218.423C393.155 201.285 400.823 185.771 406.322 174.508L412.824 161.156L414.596 157.533L415.061 156.595L415.23 156.307Z" fill="#263238"/>
<path d="M388.32 180.516C388.452 180.748 388.554 180.996 388.623 181.254C388.793 181.756 389.014 182.479 389.28 183.387C389.811 185.195 390.483 187.712 391.169 190.502C391.856 193.292 392.432 195.735 392.889 197.653C393.103 198.502 393.28 199.226 393.421 199.816C393.512 200.075 393.567 200.346 393.583 200.62C393.455 200.387 393.353 200.139 393.28 199.882C393.111 199.388 392.889 198.657 392.631 197.749C392.114 195.934 391.479 193.41 390.793 190.62C390.107 187.83 389.494 185.402 389.022 183.483C388.808 182.634 388.623 181.918 388.476 181.328C388.392 181.064 388.34 180.791 388.32 180.516Z" fill="#263238"/>
<path d="M394.624 200.842C394.624 200.739 399.724 199.13 406.078 197.248C412.433 195.366 417.607 193.919 417.636 194.022C417.666 194.126 412.536 195.735 406.182 197.617C399.827 199.499 394.653 200.945 394.624 200.842Z" fill="#263238"/>
<path d="M380.386 226.571C380.664 226.519 380.946 226.501 381.228 226.519H383.501C385.42 226.519 388.077 226.475 391 226.342C393.922 226.209 396.572 225.995 398.484 225.833L400.757 225.641C401.034 225.61 401.314 225.61 401.591 225.641C401.327 225.735 401.051 225.795 400.772 225.818C400.24 225.907 399.473 226.017 398.513 226.135C396.602 226.371 393.952 226.622 391.022 226.755C388.092 226.888 385.42 226.881 383.501 226.822C382.534 226.822 381.759 226.755 381.22 226.718C380.938 226.699 380.658 226.65 380.386 226.571Z" fill="#263238"/>
<path d="M370.644 209.44C370.82 209.63 370.971 209.84 371.094 210.068C371.367 210.481 371.751 211.094 372.209 211.854C373.139 213.367 374.423 215.47 375.773 217.81C377.124 220.15 378.364 222.238 379.235 223.825L380.246 225.67C380.38 225.891 380.489 226.126 380.571 226.372C380.391 226.184 380.237 225.973 380.113 225.744C379.84 225.331 379.464 224.718 378.999 223.966C378.069 222.452 376.785 220.342 375.441 218.002C374.098 215.662 372.843 213.537 371.98 211.987C371.544 211.212 371.197 210.584 370.969 210.142C370.823 209.927 370.714 209.69 370.644 209.44Z" fill="#263238"/>
<path d="M355.189 230.556C355.404 230.805 355.595 231.075 355.757 231.361L357.233 233.649C358.436 235.583 360.067 238.269 361.854 241.244C363.64 244.218 365.241 246.934 366.378 248.905C366.909 249.849 367.36 250.632 367.714 251.252C367.888 251.533 368.036 251.829 368.157 252.137C367.936 251.888 367.743 251.616 367.581 251.326L366.097 249.045C364.894 247.111 363.256 244.425 361.47 241.443C359.684 238.461 358.089 235.752 356.953 233.782L355.617 231.442C355.444 231.162 355.301 230.866 355.189 230.556Z" fill="#263238"/>
<path d="M367.957 251.532C368.318 251.464 368.683 251.424 369.05 251.414L371.935 251.289C374.371 251.185 377.729 251.03 381.442 250.757C385.154 250.484 388.498 250.152 390.926 249.901L393.797 249.606C394.145 249.544 394.499 249.522 394.852 249.539C394.514 249.639 394.169 249.71 393.819 249.753C393.14 249.864 392.166 250.012 390.955 250.167C388.535 250.492 385.184 250.868 381.471 251.141C377.759 251.414 374.386 251.525 371.943 251.562C370.725 251.562 369.729 251.562 369.05 251.562C368.686 251.594 368.319 251.584 367.957 251.532Z" fill="#263238"/>
<path d="M50.944 243.605C47.4308 244.085 44.3014 246.048 41.7403 248.528C40.3823 249.864 39.0981 251.48 38.8619 253.34C38.6257 255.2 39.8583 257.4 41.7551 257.547C42.898 257.534 43.9991 257.116 44.8623 256.366C47.0765 254.765 49.2907 252.632 52.0363 252.72C53.601 252.772 55.1731 253.577 56.664 253.097C57.3812 252.815 57.9862 252.306 58.3862 251.647C58.7861 250.989 58.959 250.217 58.8782 249.451C58.6657 247.918 57.8731 246.526 56.664 245.561C55.9254 244.817 55.025 244.253 54.0328 243.914C53.0407 243.575 51.9836 243.469 50.944 243.605Z" fill="#12B0EE"/>
<g opacity="0.3">
<path d="M50.944 243.605C47.4308 244.085 44.3014 246.048 41.7403 248.528C40.3823 249.864 39.0981 251.48 38.8619 253.34C38.6257 255.2 39.8583 257.4 41.7551 257.547C42.898 257.534 43.9991 257.116 44.8623 256.366C47.0765 254.765 49.2907 252.632 52.0363 252.72C53.601 252.772 55.1731 253.577 56.664 253.097C57.3812 252.815 57.9862 252.306 58.3862 251.647C58.7861 250.989 58.959 250.217 58.8782 249.451C58.6657 247.918 57.8731 246.526 56.664 245.561C55.9254 244.817 55.025 244.253 54.0328 243.914C53.0407 243.575 51.9836 243.469 50.944 243.605Z" fill="black"/>
</g>
<path d="M48.8626 228.054C48.8626 231.413 45.2757 232.815 42.8917 232.439C40.5078 232.062 38.5076 230.49 36.6256 228.977C32.33 225.508 27.8721 221.84 25.7022 216.762C24.9837 215.266 24.6925 213.601 24.8608 211.95C24.9577 211.128 25.2673 210.346 25.7592 209.681C26.2511 209.015 26.9082 208.49 27.6655 208.156C29.5032 207.485 31.5255 208.326 33.2305 209.278C38.2606 212.093 42.5979 215.997 45.9252 220.703C47.4751 222.918 48.8331 225.375 48.8774 228.084" fill="#12B0EE"/>
<g opacity="0.3">
<path d="M48.8626 228.054C48.8626 231.413 45.2757 232.815 42.8917 232.439C40.5078 232.062 38.5076 230.49 36.6256 228.977C32.33 225.508 27.8721 221.84 25.7022 216.762C24.9837 215.266 24.6925 213.601 24.8608 211.95C24.9577 211.128 25.2673 210.346 25.7592 209.681C26.2511 209.015 26.9082 208.49 27.6655 208.156C29.5032 207.485 31.5255 208.326 33.2305 209.278C38.2606 212.093 42.5979 215.997 45.9252 220.703C47.4751 222.918 48.8331 225.375 48.8774 228.084" fill="white"/>
</g>
<path d="M55.4609 228.246C52.3242 227.42 49.9181 224.682 48.8922 221.604C47.9899 218.473 47.9643 215.154 48.8184 212.009C49.695 208.293 51.2868 204.783 53.5051 201.676C54.3243 200.416 55.404 199.347 56.6714 198.539C57.3111 198.145 58.0374 197.913 58.7872 197.863C59.537 197.812 60.2877 197.946 60.9743 198.251C62.9449 199.263 63.4985 201.779 63.742 203.979C64.1686 207.86 64.2895 211.769 64.1037 215.67C63.9561 218.807 63.5575 222.076 61.8009 224.674C60.0443 227.272 57.4759 228.918 55.0329 228.15" fill="#12B0EE"/>
<path d="M72.8128 261.961C72.4939 261.684 72.2045 261.375 71.9493 261.038L69.7351 258.433C68.6313 257.155 67.4611 255.935 66.2293 254.78C64.7076 253.386 63.0761 252.118 61.3507 250.986C59.6358 249.85 57.77 248.961 55.8078 248.344C54.21 247.843 52.5209 247.705 50.8628 247.938C49.7483 248.111 48.6676 248.457 47.6596 248.964C47.3067 249.192 46.9306 249.383 46.5378 249.532C46.8539 249.252 47.1976 249.005 47.5637 248.794C48.5656 248.201 49.6653 247.791 50.8111 247.584C52.5221 247.292 54.2773 247.398 55.9407 247.894C57.9578 248.498 59.8751 249.396 61.6312 250.558C63.3843 251.706 65.034 253.005 66.5614 254.44C67.7871 255.625 68.9405 256.882 70.0156 258.204C70.9382 259.334 71.6393 260.271 72.1264 260.92C72.3919 261.242 72.622 261.591 72.8128 261.961Z" fill="#263238"/>
<path d="M71.1153 259.946C70.9774 259.808 70.856 259.654 70.7536 259.488L69.8015 258.13C68.9823 256.95 67.7792 255.245 66.2441 253.185C63.1811 249.045 58.738 243.48 53.5494 237.583C48.3608 231.686 43.3862 226.586 39.6369 223.058C38.7143 222.165 37.8581 221.375 37.0905 220.696C36.3229 220.017 35.6882 219.412 35.142 218.947L33.8947 217.847C33.7423 217.727 33.6037 217.591 33.4814 217.441C33.6553 217.527 33.8167 217.636 33.9611 217.766L35.2675 218.792C35.8358 219.234 36.5075 219.81 37.2824 220.482C38.0574 221.153 38.9431 221.914 39.8878 222.792C44.8172 227.352 49.4984 232.174 53.911 237.236C59.0775 243.14 63.5059 248.764 66.5024 252.964C67.9785 255.06 69.1668 256.802 69.9418 258.02L70.8127 259.437C70.9323 259.595 71.0338 259.765 71.1153 259.946Z" fill="#263238"/>
<path d="M63.1885 248.72C62.8254 248.268 62.4972 247.79 62.2069 247.288C61.6164 246.344 60.8193 244.934 59.941 243.14C58.9287 241.034 58.0342 238.873 57.2618 236.668C56.3 233.967 55.5305 231.203 54.9591 228.394C53.8064 223.297 53.5889 218.033 54.317 212.858C54.448 211.965 54.6378 211.083 54.8853 210.215C54.9812 209.832 55.055 209.477 55.1657 209.145L55.4905 208.274C55.6634 207.723 55.8832 207.187 56.1474 206.673C56.2802 206.717 55.2469 208.99 54.6712 212.909C54.059 218.044 54.3236 223.245 55.4536 228.291C56.0121 231.074 56.7517 233.818 57.6678 236.505C58.4127 238.707 59.2674 240.869 60.2289 242.985C61.0555 244.794 61.8009 246.218 62.3323 247.192C62.6644 247.674 62.951 248.185 63.1885 248.72Z" fill="#263238"/>
<path d="M355.13 87.8223H80.1344C74.1954 87.8223 69.3808 92.6368 69.3808 98.5759V273.143C69.3808 279.082 74.1954 283.896 80.1344 283.896H355.13C361.069 283.896 365.883 279.082 365.883 273.143V98.5759C365.883 92.6368 361.069 87.8223 355.13 87.8223Z" fill="#263238"/>
<path d="M56.9814 269.394H378.216V273.416C378.216 276.9 376.832 280.242 374.368 282.706C371.905 285.169 368.563 286.554 365.079 286.554H70.1337C68.4084 286.554 66.7001 286.214 65.1061 285.554C63.5122 284.893 62.064 283.926 60.844 282.706C59.6241 281.486 58.6564 280.037 57.9962 278.444C57.3359 276.85 56.9961 275.141 56.9961 273.416V269.394H56.9814Z" fill="#263238"/>
<path d="M357.093 95.6089H77.3372V261.194H357.093V95.6089Z" fill="#455A64"/>
<path d="M188.401 269.394L192.387 275.734H248.48L252.185 269.394H188.401Z" fill="#455A64"/>
<path d="M349.491 101.218H85.5149C84.182 101.218 83.1015 102.299 83.1015 103.631V258.249C83.1015 259.581 84.182 260.662 85.5149 260.662H349.491C350.824 260.662 351.904 259.581 351.904 258.249V103.631C351.904 102.299 350.824 101.218 349.491 101.218Z" fill="#EBEBEB"/>
<path d="M351.904 112.902H83.1015V260.662H351.904V112.902Z" fill="#FAFAFA"/>
<path d="M105.147 107.374C105.147 107.798 105.021 108.214 104.785 108.567C104.549 108.92 104.214 109.195 103.822 109.358C103.429 109.52 102.997 109.563 102.581 109.48C102.164 109.397 101.781 109.193 101.481 108.892C101.181 108.592 100.976 108.209 100.893 107.793C100.81 107.376 100.853 106.944 101.015 106.552C101.178 106.159 101.453 105.824 101.806 105.588C102.16 105.352 102.575 105.226 103 105.226C103.569 105.226 104.116 105.452 104.518 105.855C104.921 106.258 105.147 106.804 105.147 107.374Z" fill="#455A64"/>
<path d="M92.1353 107.374C92.1353 107.798 92.0094 108.214 91.7734 108.567C91.5374 108.92 91.2019 109.195 90.8095 109.358C90.417 109.52 89.9852 109.563 89.5686 109.48C89.1519 109.397 88.7692 109.193 88.4689 108.892C88.1685 108.592 87.964 108.209 87.8811 107.793C87.7982 107.376 87.8407 106.944 88.0033 106.552C88.1659 106.159 88.4411 105.824 88.7943 105.588C89.1475 105.352 89.5628 105.226 89.9876 105.226C90.5572 105.226 91.1035 105.452 91.5063 105.855C91.9091 106.258 92.1353 106.804 92.1353 107.374Z" fill="#455A64"/>
<path d="M98.3794 107.374C98.3794 107.799 98.2532 108.214 98.0169 108.568C97.7806 108.921 97.4447 109.196 97.0518 109.359C96.6589 109.521 96.2267 109.563 95.8099 109.48C95.3931 109.396 95.0104 109.191 94.7103 108.89C94.4102 108.589 94.2063 108.205 94.1242 107.788C94.0422 107.371 94.0858 106.939 94.2495 106.547C94.4132 106.154 94.6896 105.819 95.0438 105.584C95.3979 105.349 95.8139 105.224 96.239 105.226C96.5207 105.226 96.7996 105.281 97.0598 105.389C97.32 105.498 97.5563 105.656 97.7551 105.855C97.954 106.055 98.1115 106.292 98.2186 106.552C98.3257 106.813 98.3804 107.092 98.3794 107.374Z" fill="#455A64"/>
<path d="M363.337 269.393C363.337 269.497 297.524 269.585 216.366 269.585C135.209 269.585 69.3956 269.497 69.3956 269.393C69.3956 269.29 135.194 269.201 216.381 269.201C297.568 269.201 363.337 269.29 363.337 269.393Z" fill="#455A64"/>
<path d="M136.08 208.193C136.016 206.397 136.077 204.599 136.264 202.812C136.318 201.015 136.506 199.224 136.825 197.454C136.889 199.252 136.828 201.053 136.641 202.842C136.582 204.637 136.395 206.425 136.08 208.193Z" fill="#FAFAFA"/>
<path d="M324.633 193.845C309.532 170.5 293.856 144.306 293.856 144.306C280.216 127.67 269.197 121.854 247.697 120.954L205.871 120.777C197.649 121.242 178.563 117.005 160.849 142.409L160.768 142.284C160.768 142.284 145.084 168.478 129.991 191.83C113.067 218.009 123.193 245.192 141.276 246.779C159.558 248.381 170.894 248.868 176.968 248.993L176.681 260.714L273.655 260.559L272.666 247.428C282.394 247.428 309.325 247.325 313.304 246.831C331.32 244.639 341.557 220.054 324.633 193.845ZM178.341 188.679L177.736 215.884L160.761 215.935L178.341 188.679ZM274.504 217.884L277.153 192.052L293.856 217.958L274.504 217.884Z" fill="#12B0EE"/>
<path d="M246.073 119.729C246.091 119.932 246.091 120.137 246.073 120.341C246.068 120.921 246.026 121.501 245.948 122.076C245.832 122.991 245.657 123.898 245.424 124.792C245.095 125.971 244.676 127.124 244.169 128.238C242.821 131.143 240.833 133.704 238.353 135.73C235.28 138.201 231.514 139.653 227.578 139.885C223.633 140.163 219.709 139.125 216.418 136.933C213.775 135.113 211.635 132.656 210.196 129.788C209.23 127.867 208.59 125.8 208.299 123.67C208.214 123.093 208.168 122.511 208.159 121.928C208.14 121.727 208.14 121.524 208.159 121.323C208.201 121.522 208.225 121.724 208.233 121.928C208.233 122.326 208.329 122.902 208.447 123.648C208.791 125.745 209.463 127.775 210.44 129.663C211.885 132.469 214.008 134.869 216.617 136.645C219.854 138.765 223.697 139.763 227.555 139.486C231.415 139.26 235.109 137.844 238.132 135.435C240.583 133.454 242.561 130.95 243.918 128.106C244.848 126.192 245.483 124.149 245.8 122.046C245.893 121.474 245.957 120.898 245.992 120.319C246.003 120.12 246.03 119.923 246.073 119.729Z" fill="#263238"/>
<path d="M276.851 195.712C276.74 195.712 277.146 184.538 277.751 170.773C278.356 157.008 278.932 145.871 279.006 145.871C279.08 145.871 278.711 157.045 278.105 170.817C277.5 184.59 276.954 195.72 276.851 195.712Z" fill="#263238"/>
<path d="M180.319 145.871C180.353 146.018 180.368 146.17 180.364 146.321V147.598C180.364 148.705 180.4 150.307 180.364 152.292C180.364 156.263 180.26 161.739 179.98 167.791C179.699 173.843 179.293 179.305 178.932 183.291C178.755 185.269 178.592 186.863 178.459 187.97C178.4 188.487 178.349 188.907 178.304 189.232C178.292 189.382 178.268 189.53 178.231 189.675C178.211 189.526 178.211 189.374 178.231 189.225C178.231 188.893 178.282 188.487 178.312 187.955C178.4 186.797 178.518 185.21 178.659 183.269C178.954 179.32 179.315 173.851 179.596 167.814C179.876 161.776 180.017 156.3 180.098 152.314C180.098 150.366 180.157 148.779 180.179 147.62C180.179 147.096 180.179 146.675 180.216 146.343C180.238 146.183 180.273 146.025 180.319 145.871Z" fill="#263238"/>
<path d="M269.086 246.462C269.044 246.282 269.02 246.1 269.012 245.916C269.012 245.524 268.924 244.993 268.857 244.314C268.739 242.89 268.57 240.875 268.356 238.35C267.95 233.236 267.389 226.099 266.739 217.884V217.677H266.946L276.482 217.832L303.51 218.327L311.702 218.519L313.916 218.592H314.492C314.558 218.583 314.625 218.583 314.691 218.592C314.625 218.604 314.558 218.604 314.492 218.592H313.916H311.702L303.51 218.519L276.467 218.201L266.924 218.039L267.108 217.84C267.706 226.054 268.223 233.199 268.584 238.321C268.747 240.845 268.887 242.867 268.976 244.292C269.02 244.971 269.049 245.502 269.071 245.893C269.088 246.082 269.093 246.272 269.086 246.462Z" fill="#263238"/>
<path d="M310.994 213.035C310.994 213.101 309.945 213.035 308.277 213.123C306.1 213.246 303.945 213.625 301.856 214.252C299.773 214.899 297.771 215.786 295.893 216.895C294.454 217.751 293.627 218.371 293.59 218.334C293.553 218.297 293.767 218.142 294.129 217.839C294.645 217.414 295.187 217.022 295.752 216.666C297.611 215.466 299.628 214.531 301.746 213.891C303.86 213.248 306.053 212.897 308.263 212.85C308.933 212.838 309.603 212.862 310.27 212.924C310.515 212.93 310.758 212.967 310.994 213.035Z" fill="#263238"/>
<path d="M182.519 249.2C182.507 249.144 182.507 249.086 182.519 249.03C182.519 248.897 182.519 248.735 182.57 248.535C182.629 248.07 182.711 247.443 182.807 246.631C183.035 244.948 183.36 242.557 183.759 239.59C184.607 233.59 185.774 225.279 187.102 215.876L187.287 216.098L182.12 216.024C171.411 215.95 161.705 216.149 154.679 216.112C151.166 216.112 148.324 216.061 146.361 216.009L144.102 215.935H143.512H143.313C143.379 215.924 143.446 215.924 143.512 215.935H146.361H154.679C161.698 215.898 171.403 215.662 182.128 215.736L187.294 215.81H187.486V216.024C186.113 225.412 184.895 233.737 184.017 239.716C183.567 242.668 183.205 245.067 182.954 246.742C182.821 247.546 182.718 248.174 182.644 248.631C182.644 248.831 182.585 248.993 182.556 249.126C182.526 249.259 182.526 249.2 182.519 249.2Z" fill="#263238"/>
<path d="M160.347 216.223C159.809 215.857 159.313 215.431 158.871 214.954C158 214.12 156.841 212.917 155.646 211.514C154.45 210.112 153.432 208.776 152.767 207.78C152.366 207.262 152.027 206.7 151.756 206.104C152.209 206.573 152.622 207.079 152.989 207.617C153.727 208.569 154.753 209.831 155.941 211.271C157.129 212.71 158.244 213.883 159.07 214.762C159.535 215.213 159.962 215.702 160.347 216.223Z" fill="#263238"/>
<path d="M203.723 153.163C202.597 151.357 201.581 149.484 200.682 147.554C199.671 145.681 198.769 143.752 197.981 141.775C199.108 143.581 200.123 145.454 201.022 147.384C202.037 149.254 202.939 151.184 203.723 153.163Z" fill="#FAFAFA"/>
<path d="M245.239 152.602C244.806 153.17 244.311 153.687 243.763 154.145C241.252 156.474 238.478 158.502 235.497 160.189C234.895 160.562 234.257 160.874 233.593 161.119C234.151 160.684 234.744 160.294 235.364 159.953C236.464 159.259 237.977 158.27 239.586 157.097C241.195 155.923 242.582 154.787 243.579 153.938C244.102 153.457 244.657 153.011 245.239 152.602Z" fill="#FAFAFA"/>
<path d="M265.204 148.993C263.697 147.324 262.288 145.569 260.982 143.738C259.573 141.986 258.264 140.155 257.063 138.254C258.57 139.926 259.982 141.68 261.292 143.509C262.701 145.26 264.007 147.091 265.204 148.993Z" fill="#FAFAFA"/>
<path d="M263.831 174.936C262.451 175.903 261 176.767 259.491 177.519C258.04 178.383 256.525 179.135 254.96 179.77C256.34 178.798 257.793 177.935 259.307 177.187C260.756 176.322 262.268 175.57 263.831 174.936Z" fill="#FAFAFA"/>
<path d="M292.608 177.084C292.468 174.739 292.453 172.389 292.564 170.043C292.551 167.694 292.664 165.346 292.904 163.009C293.044 165.353 293.059 167.704 292.948 170.05C292.965 172.399 292.852 174.747 292.608 177.084Z" fill="#FAFAFA"/>
<path d="M304.543 197.218C302.026 197.561 299.494 197.778 296.956 197.868C292.756 198.118 289.353 198.237 289.346 198.133C291.863 197.79 294.395 197.573 296.933 197.484C301.148 197.233 304.535 197.115 304.543 197.218Z" fill="#FAFAFA"/>
<path d="M323.858 212.156C323.505 209.762 323.283 207.35 323.194 204.931C322.971 202.519 322.88 200.097 322.921 197.676C323.264 200.074 323.484 202.488 323.578 204.909C323.796 207.318 323.889 209.737 323.858 212.156Z" fill="#FAFAFA"/>
<path d="M315.717 230.903C314.018 232.795 312.222 234.599 310.337 236.306C308.547 238.109 306.664 239.819 304.698 241.428C304.624 241.354 307.03 238.933 310.071 236.025C313.112 233.117 315.643 230.829 315.717 230.903Z" fill="#FAFAFA"/>
<path d="M283.597 236.918C283.108 236.801 282.643 236.599 282.224 236.321C280.107 235.137 278.296 233.477 276.932 231.471C276.611 231.08 276.362 230.635 276.194 230.158C277.223 231.483 278.338 232.741 279.53 233.922C280.817 235.011 282.175 236.012 283.597 236.918Z" fill="#FAFAFA"/>
<path d="M199.295 169.954C197.763 171.525 196.139 173.004 194.431 174.382C192.806 175.851 191.098 177.226 189.316 178.501C190.848 176.929 192.472 175.45 194.18 174.072C195.805 172.603 197.513 171.228 199.295 169.954Z" fill="#FAFAFA"/>
<path d="M219.725 180.043C218.093 178.177 217.064 175.862 216.772 173.401C216.883 173.401 217.282 174.973 218.101 176.803C218.92 178.634 219.82 179.984 219.725 180.043Z" fill="#FAFAFA"/>
<path d="M183.869 129.021C183.936 129.11 181.19 131.434 177.729 134.187C174.267 136.94 171.418 139.169 171.352 139.088C171.285 139.007 174.031 136.675 177.492 133.922C180.954 131.169 183.796 128.94 183.869 129.021Z" fill="#FAFAFA"/>
<path d="M169.684 167.843C169.573 167.88 168.732 165.415 167.322 162.544C165.912 159.673 164.488 157.495 164.584 157.429C164.989 157.834 165.339 158.29 165.624 158.787C166.378 159.94 167.061 161.138 167.669 162.374C168.276 163.61 168.801 164.885 169.241 166.19C169.459 166.719 169.608 167.275 169.684 167.843Z" fill="#FAFAFA"/>
<path d="M163.801 184.125C163.223 184.458 162.606 184.718 161.964 184.9C158.902 185.929 155.695 186.458 152.465 186.464C151.797 186.501 151.128 186.453 150.472 186.324C151.13 186.233 151.793 186.189 152.457 186.191C154.054 186.125 155.646 185.969 157.225 185.726C158.797 185.459 160.354 185.109 161.89 184.678C162.511 184.443 163.15 184.258 163.801 184.125Z" fill="#FAFAFA"/>
<path d="M148.236 225.206C146.182 226.724 144.054 228.137 141.859 229.442C138.279 231.656 135.334 233.45 135.275 233.361C137.327 231.838 139.455 230.422 141.652 229.117C143.78 227.704 145.977 226.398 148.236 225.206Z" fill="#FAFAFA"/>
<path d="M168.429 240.107C168.333 240.144 166.842 236.276 165.108 231.472C163.373 226.667 162.037 222.74 162.155 222.703C162.274 222.666 163.742 226.534 165.484 231.339C167.226 236.144 168.532 240.07 168.429 240.107Z" fill="#FAFAFA"/>
<path d="M190.165 209.101C189.256 207.585 188.454 206.006 187.766 204.377C186.964 202.799 186.281 201.164 185.722 199.484C186.631 201.002 187.431 202.583 188.113 204.215C188.916 205.791 189.602 207.424 190.165 209.101Z" fill="#FAFAFA"/>
<path d="M272.297 195.705C272.149 196.278 271.944 196.834 271.684 197.366C271.271 198.377 270.695 199.764 270.097 201.314C269.5 202.864 268.99 204.267 268.621 205.307C268.456 205.876 268.236 206.427 267.964 206.953C268.027 206.364 268.161 205.784 268.363 205.226C268.673 204.171 269.145 202.739 269.751 201.182C270.356 199.624 270.968 198.229 271.448 197.255C271.672 196.708 271.957 196.188 272.297 195.705Z" fill="#FAFAFA"/>
<path d="M203.288 255.68C202.61 255.725 201.929 255.725 201.251 255.68C199.621 255.66 197.992 255.736 196.372 255.909C194.752 256.085 193.143 256.354 191.553 256.713C190.901 256.9 190.238 257.043 189.567 257.141C190.174 256.828 190.819 256.595 191.486 256.448C193.074 256.007 194.696 255.699 196.335 255.525C197.97 255.348 199.617 255.309 201.258 255.407C201.943 255.413 202.625 255.505 203.288 255.68Z" fill="#FAFAFA"/>
<path d="M223.186 257.105C223.083 257.164 221.939 255.09 220.035 252.92C218.13 250.75 216.248 249.311 216.344 249.229C216.815 249.448 217.251 249.737 217.636 250.086C218.619 250.861 219.526 251.729 220.344 252.676C221.174 253.62 221.915 254.638 222.559 255.717C222.831 256.149 223.042 256.615 223.186 257.105Z" fill="#FAFAFA"/>
<path d="M245.166 251.303C243.732 252.394 242.223 253.38 240.649 254.255C239.142 255.236 237.569 256.109 235.94 256.868C237.368 255.775 238.876 254.788 240.449 253.916C241.957 252.933 243.533 252.06 245.166 251.303Z" fill="#FAFAFA"/>
<path d="M268.481 256.071C267.386 256.146 266.287 256.094 265.204 255.916C264.107 255.867 263.019 255.688 261.964 255.385C263.059 255.31 264.158 255.362 265.241 255.54C266.338 255.586 267.426 255.764 268.481 256.071Z" fill="#FAFAFA"/>
<path d="M240.294 69.341C240.145 69.9643 240.181 70.6178 240.399 71.2206C240.617 71.8234 241.007 72.349 241.521 72.7324C242.035 73.1157 242.65 73.34 243.29 73.3774C243.93 73.4148 244.566 73.2637 245.121 72.9428C247.217 71.725 247.336 68.7358 246.76 66.3814C246.184 64.027 245.247 61.5323 246.125 59.2738C246.789 57.5468 248.384 56.388 249.594 54.9931C250.664 53.7778 251.438 52.3307 251.854 50.7657C252.271 49.2006 252.318 47.5604 251.993 45.9739C251.631 44.3957 250.839 42.9484 249.706 41.7918C248.573 40.6352 247.142 39.8143 245.572 39.4199C242.354 38.6818 238.508 39.9144 236.021 37.7519C234.213 36.1872 233.954 33.4711 232.523 31.5595C230.308 28.6073 225.924 28.3563 222.293 29.0649C218.662 29.7734 214.986 31.161 211.347 30.4746C208.307 29.8989 205.723 27.943 202.838 26.7843C199.689 25.5662 196.239 25.3599 192.967 26.1942C189.696 27.0285 186.766 28.8618 184.585 31.439C182.404 34.0162 181.08 37.2091 180.799 40.5735C180.517 43.9379 181.291 47.3065 183.013 50.2104C184.175 52.3488 186.054 54.0085 188.32 54.8971" fill="#263238"/>
<path d="M228.079 137.929C223.212 138.338 218.38 136.801 214.645 133.653C210.909 130.505 208.574 126.005 208.152 121.138C207.65 115.352 207.244 110.481 207.244 110.481C207.244 110.481 192.483 109.233 191.265 94.6271C190.047 80.0208 190.231 48.2176 190.231 48.2176V46.2913C206.639 37.8331 226.441 40.5196 241.822 50.7197L242.007 53.731L244.952 119.301C245.013 123.963 243.308 128.476 240.178 131.932C237.048 135.388 232.725 137.531 228.079 137.929Z" fill="#FFBE9D"/>
<path d="M197.398 71.0386C197.796 70.869 198.133 70.5832 198.366 70.2186C198.599 69.8541 198.716 69.4278 198.702 68.9955C198.689 68.5633 198.545 68.1451 198.29 67.7959C198.035 67.4467 197.68 67.1826 197.273 67.0383C196.793 66.8611 196.264 66.877 195.796 67.0825C195.396 67.2509 195.056 67.5367 194.822 67.9021C194.587 68.2675 194.469 68.6955 194.483 69.1295C194.496 69.5635 194.641 69.9832 194.898 70.3333C195.155 70.6833 195.512 70.9472 195.922 71.0902C196.402 71.265 196.931 71.2465 197.398 71.0386Z" fill="#263238"/>
<path d="M192.15 67.983C192.394 68.2192 193.752 67.0161 195.767 66.8685C197.782 66.7209 199.31 67.6509 199.516 67.3778C199.62 67.2523 199.354 66.8169 198.682 66.374C197.777 65.8091 196.713 65.5514 195.649 65.6391C194.586 65.7269 193.579 66.1554 192.778 66.8611C192.217 67.3999 192.032 67.8797 192.15 67.983Z" fill="#263238"/>
<path d="M216.403 67.5771C216.059 67.8202 215.795 68.1599 215.645 68.5533C215.494 68.9466 215.464 69.3759 215.558 69.7864C215.652 70.197 215.865 70.5705 216.172 70.8594C216.478 71.1484 216.863 71.3398 217.279 71.4094C217.694 71.479 218.121 71.4236 218.505 71.2502C218.889 71.0769 219.212 70.7935 219.435 70.4359C219.657 70.0782 219.769 69.6626 219.754 69.2417C219.74 68.8207 219.601 68.4135 219.355 68.0716C219.027 67.6181 218.533 67.312 217.981 67.2195C217.428 67.127 216.862 67.2554 216.403 67.5771Z" fill="#263238"/>
<path d="M213.599 68.3224C213.842 68.5585 215.2 67.3555 217.215 67.2079C219.23 67.0603 220.758 67.9902 220.964 67.7172C221.06 67.5917 220.802 67.1562 220.13 66.7134C219.225 66.1484 218.161 65.8907 217.097 65.9785C216.034 66.0662 215.027 66.4948 214.226 67.2005C213.665 67.7393 213.48 68.219 213.599 68.3224Z" fill="#263238"/>
<path d="M206.676 85.4972C206.676 85.3422 205.413 85.1873 203.369 85.0544C202.845 85.0544 202.402 84.9511 202.336 84.6558C202.276 84.1221 202.368 83.5822 202.601 83.0985L203.908 78.8989C205.694 72.9132 206.919 67.9977 206.631 67.9165C206.343 67.8354 204.661 72.6033 202.867 78.589C202.446 80.0651 202.04 81.4453 201.649 82.8107C201.352 83.5114 201.303 84.2923 201.509 85.0249C201.599 85.2127 201.731 85.3771 201.895 85.5051C202.058 85.6332 202.25 85.7215 202.454 85.7629C202.75 85.8216 203.053 85.839 203.354 85.8146C205.421 85.7629 206.676 85.6448 206.676 85.4972Z" fill="#263238"/>
<path d="M213.385 87.2613C215.392 85.8663 207.827 90.7302 203.716 90.8188C203.716 90.8188 206.329 94.4131 210.432 92.5753C214.698 90.6638 213.385 87.2613 213.385 87.2613Z" fill="white"/>
<path d="M207.229 110.267C207.229 110.267 216.514 110.377 225.902 103.521C225.902 103.521 222.138 114.356 207.45 114.06L207.229 110.267Z" fill="#EB996E"/>
<path d="M241.815 63.4954C242.132 63.37 252.65 61.916 251.764 74.3598C250.878 86.8035 238.597 81.7847 238.597 81.4304C238.597 81.0761 241.815 63.4954 241.815 63.4954Z" fill="#FFBE9D"/>
<path d="M242.723 77.3341C242.782 77.3341 242.929 77.5039 243.284 77.6958C243.784 77.9478 244.362 78.0006 244.9 77.8434C246.251 77.4596 247.505 75.4447 247.727 73.2084C247.839 72.1448 247.707 71.0696 247.343 70.0642C247.254 69.6662 247.07 69.2957 246.807 68.9845C246.543 68.6734 246.208 68.431 245.83 68.2781C245.585 68.1953 245.319 68.2009 245.077 68.2939C244.836 68.3869 244.635 68.5615 244.509 68.7873C244.317 69.1195 244.383 69.3778 244.317 69.3926C244.25 69.4073 244.058 69.1638 244.199 68.6545C244.292 68.3536 244.484 68.0933 244.745 67.9164C245.105 67.6837 245.542 67.6016 245.963 67.6876C246.467 67.8234 246.927 68.0871 247.3 68.453C247.672 68.8189 247.944 69.2747 248.088 69.7763C248.544 70.8931 248.719 72.1044 248.598 73.3043C248.339 75.8063 246.885 78.0574 245.047 78.4707C244.707 78.5463 244.354 78.543 244.015 78.4611C243.676 78.3792 243.36 78.221 243.092 77.9984C242.723 77.6367 242.678 77.3563 242.723 77.3341Z" fill="#EB996E"/>
<path d="M222.101 60.4547C221.776 60.8976 219.584 59.7978 216.721 59.8274C213.857 59.8569 211.65 60.8385 211.333 60.3883C211.192 60.1816 211.598 59.5838 212.551 58.9933C213.824 58.2685 215.266 57.8917 216.731 57.9008C218.197 57.9099 219.634 58.3045 220.898 59.045C221.843 59.6502 222.241 60.2554 222.101 60.4547Z" fill="#263238"/>
<path d="M199.192 61.3033C199.073 61.8273 197.509 61.9085 195.671 61.9675C193.833 62.0266 192.261 62.0044 192.114 61.4878C191.966 60.9711 193.501 60.0928 195.619 60.0116C197.738 59.9305 199.295 60.8014 199.192 61.3033Z" fill="#263238"/>
<path d="M187.132 54.4173C187.132 54.4173 196.121 58.3586 207.399 52.2032C214.779 48.1586 223.518 45.996 225.518 47.4353C227.518 48.8745 228.205 56.6389 235.763 58.6243C235.763 58.6243 235.763 73.4668 241.667 72.7213C247.572 71.9759 243.01 49.1476 243.01 49.1476L229.12 39.907L213.23 37.5083L195.892 40.0915L186.224 46.461L187.132 54.4173Z" fill="#263238"/>
<path d="M243.63 36.6964C242.516 36.786 241.42 37.0346 240.376 37.4345C239.378 37.9384 238.457 38.5794 237.637 39.3387C237.6 39.3387 237.778 38.9623 238.206 38.4973C238.777 37.8946 239.463 37.4124 240.224 37.079C240.984 36.7456 241.804 36.5679 242.634 36.5562C243.254 36.5414 243.638 36.6374 243.63 36.6964Z" fill="#263238"/>
<path d="M237.327 31.0945C237.509 31.516 237.619 31.9651 237.652 32.423C237.829 33.5134 237.872 34.6215 237.778 35.7221C237.686 36.8285 237.402 37.9102 236.936 38.918C236.77 39.3495 236.519 39.7434 236.198 40.0767C236.326 39.6436 236.489 39.2216 236.685 38.8146C237.071 37.8095 237.319 36.7569 237.423 35.6852C237.517 34.6097 237.517 33.528 237.423 32.4525C237.341 32.0048 237.309 31.5493 237.327 31.0945Z" fill="#263238"/>
<path d="M236.744 37.4418C236.719 37.5737 236.687 37.7042 236.648 37.8329C236.542 38.2177 236.404 38.5929 236.235 38.9548C235.67 40.16 234.849 41.2275 233.829 42.0828C232.81 42.9381 231.616 43.5607 230.331 43.9072C229.04 44.2549 227.684 44.2803 226.382 43.981C224.882 43.6403 223.489 42.9328 222.33 41.9218C221.017 40.7971 220.069 39.3068 219.606 37.641C219.356 36.7406 219.3 35.7969 219.444 34.8733C219.596 33.8948 220.059 32.9914 220.765 32.2975C221.129 31.9298 221.564 31.6406 222.044 31.4477C222.524 31.2547 223.038 31.1621 223.555 31.1756C224.094 31.2156 224.616 31.3787 225.082 31.6526C225.548 31.9264 225.945 32.3036 226.242 32.7551C226.88 33.6628 227.188 34.7623 227.113 35.8697C226.985 36.999 226.554 38.0728 225.865 38.9769C224.404 40.8049 222.461 42.188 220.256 42.9699C217.967 43.8343 215.511 44.1649 213.075 43.9367C210.527 43.7025 208.081 42.8237 205.967 41.383C204.87 40.6385 203.955 39.6574 203.288 38.512C202.956 37.9214 202.731 37.2767 202.624 36.6078C202.529 35.9283 202.564 35.237 202.727 34.5707C202.902 33.8991 203.213 33.2709 203.642 32.7255C204.088 32.1755 204.678 31.7612 205.347 31.5299C206.029 31.3448 206.744 31.315 207.438 31.4428C208.133 31.5705 208.791 31.8525 209.362 32.2679C210.511 33.0681 211.387 34.2016 211.872 35.5154C212.357 36.7973 212.507 38.1818 212.307 39.5379C212.062 40.8514 211.527 42.0938 210.742 43.1751C209.957 44.2564 208.941 45.1493 207.768 45.7893C205.519 47.0265 202.918 47.4661 200.387 47.0366C197.952 46.6977 195.655 45.6998 193.745 44.1508C192.831 43.3842 192.1 42.4235 191.604 41.3387C191.13 40.269 190.954 39.0906 191.095 37.9289C191.238 36.7963 191.776 35.7507 192.615 34.9766C193.021 34.5949 193.503 34.3046 194.03 34.125C194.557 33.9455 195.117 33.8811 195.671 33.936C196.202 34.0254 196.708 34.2253 197.157 34.5228C197.606 34.8203 197.987 35.2088 198.276 35.663C198.838 36.5403 199.097 37.577 199.014 38.6153C198.945 39.5715 198.652 40.498 198.158 41.3198C197.665 42.1417 196.984 42.8359 196.173 43.3463C194.673 44.2154 192.937 44.5874 191.213 44.4091C189.687 44.271 188.208 43.8106 186.873 43.0584C184.364 41.6635 182.88 39.3681 182.725 37.3384C182.628 36.5618 182.687 35.7736 182.897 35.0197C183.107 34.2658 183.465 33.5612 183.951 32.947C184.202 32.6371 184.495 32.3638 184.821 32.1351L185.168 31.921C184.732 32.2226 184.342 32.5855 184.01 32.9986C183.084 34.2188 182.668 35.7512 182.851 37.272C183.028 39.2353 184.489 41.4716 186.954 42.8223C188.265 43.5475 189.713 43.9876 191.206 44.1139C192.878 44.2754 194.56 43.9061 196.011 43.0584C196.78 42.5695 197.424 41.9068 197.891 41.1235C198.357 40.3403 198.634 39.4584 198.697 38.5489C198.755 37.5802 198.496 36.6192 197.959 35.8106C197.697 35.3993 197.353 35.0471 196.948 34.7764C196.542 34.5057 196.085 34.3225 195.605 34.2386C195.096 34.1905 194.584 34.2519 194.101 34.4187C193.619 34.5855 193.177 34.8537 192.807 35.2054C192.02 35.9306 191.522 36.9164 191.405 37.9806C191.272 39.0799 191.44 40.1949 191.892 41.2059C192.365 42.2426 193.066 43.1586 193.944 43.8851C195.806 45.3858 198.041 46.3526 200.409 46.6823C202.869 47.0986 205.397 46.672 207.583 45.4719C208.706 44.8581 209.678 44.0028 210.43 42.9677C211.182 41.9326 211.694 40.7435 211.931 39.4862C212.122 38.195 211.98 36.8763 211.517 35.6556C211.054 34.4196 210.228 33.3521 209.148 32.5927C208.626 32.2034 208.024 31.9352 207.386 31.8075C206.748 31.6799 206.089 31.6959 205.458 31.8546C204.859 32.069 204.332 32.4475 203.937 32.947C203.54 33.4471 203.253 34.0256 203.096 34.6445C202.946 35.2603 202.914 35.8987 203 36.5266C203.103 37.1508 203.312 37.7525 203.62 38.3053C204.257 39.4011 205.132 40.3395 206.181 41.0509C208.243 42.4573 210.627 43.3182 213.111 43.5529C215.492 43.7797 217.893 43.459 220.13 42.6156C222.274 41.86 224.165 40.5235 225.592 38.7555C226.254 37.9003 226.665 36.8783 226.78 35.8033C226.848 34.7882 226.567 33.7805 225.983 32.947C225.715 32.5318 225.355 32.1833 224.932 31.9275C224.509 31.6718 224.033 31.5156 223.54 31.4708C223.065 31.4601 222.592 31.5462 222.15 31.7238C221.708 31.9014 221.308 32.1669 220.972 32.5041C220.306 33.1525 219.868 33.9993 219.725 34.9176C219.586 35.8009 219.633 36.7035 219.865 37.5672C220.309 39.1844 221.223 40.6333 222.492 41.7299C223.616 42.721 224.967 43.4183 226.426 43.7596C227.691 44.0786 229.014 44.0786 230.279 43.7596C231.34 43.4915 232.342 43.0258 233.231 42.3868C234.486 41.5074 235.501 40.3274 236.183 38.9548C236.358 38.5996 236.506 38.2321 236.626 37.8551C236.693 37.5672 236.744 37.4418 236.744 37.4418Z" fill="#455A64"/>
<path d="M251.218 52.0259C251.218 52.0259 251.218 52.0702 251.122 52.1366C251.026 52.2031 250.952 52.299 250.797 52.4097C250.361 52.7375 249.882 53.0033 249.373 53.1995C248.564 53.5117 247.7 53.6573 246.834 53.6275C245.673 53.5949 244.548 53.2256 243.594 52.5647C242.43 51.7604 241.56 50.6 241.114 49.2582C240.831 48.5114 240.77 47.6993 240.936 46.9185C241.025 46.4865 241.26 46.0982 241.601 45.8188C241.789 45.676 242.012 45.5857 242.247 45.5571C242.481 45.5286 242.72 45.5629 242.937 45.6564C243.356 45.8613 243.689 46.2095 243.874 46.6381C244.075 47.0503 244.186 47.5007 244.199 47.9592C244.199 49.3893 243.685 50.7718 242.752 51.8554C241.819 52.9389 240.528 53.6516 239.113 53.8637C238.154 53.9978 237.175 53.8936 236.265 53.5602C235.355 53.2268 234.541 52.6745 233.895 51.9521C233.585 51.598 233.357 51.179 233.23 50.7256C233.102 50.2723 233.077 49.7961 233.157 49.332C233.226 48.8725 233.438 48.4464 233.762 48.1139C234.087 47.7815 234.508 47.5595 234.966 47.4795C235.399 47.4268 235.839 47.486 236.243 47.6514C236.648 47.8167 237.003 48.0828 237.276 48.4242C237.766 49.0571 238.026 49.8379 238.014 50.6384C237.993 51.3537 237.814 52.0556 237.49 52.6936C237.166 53.3316 236.705 53.89 236.139 54.3287C235.229 55.0699 234.07 55.4367 232.899 55.3546C232.028 55.2817 231.192 54.9841 230.471 54.4911C230.019 54.1823 229.626 53.7948 229.312 53.3471C229.198 53.195 229.103 53.0288 229.032 52.8526C229.441 53.4355 229.957 53.9362 230.552 54.3287C231.259 54.7863 232.073 55.0533 232.914 55.1037C234.025 55.1577 235.116 54.7914 235.969 54.0777C236.483 53.6645 236.901 53.1453 237.195 52.5555C237.49 51.9657 237.653 51.3193 237.674 50.6605C237.695 49.9286 237.463 49.2119 237.017 48.6308C236.782 48.3372 236.475 48.1086 236.126 47.9665C235.778 47.8245 235.398 47.7737 235.025 47.819C234.645 47.8966 234.299 48.0904 234.035 48.3734C233.77 48.6563 233.6 49.0146 233.548 49.3984C233.486 49.8114 233.517 50.233 233.639 50.6326C233.76 51.0322 233.969 51.3997 234.25 51.7086C234.854 52.3805 235.615 52.8935 236.464 53.2024C237.314 53.5113 238.226 53.6066 239.121 53.4799C240.446 53.2789 241.655 52.6102 242.53 51.5948C243.404 50.5795 243.886 49.2845 243.889 47.9444C243.901 47.5527 243.812 47.1644 243.631 46.8168C243.451 46.4691 243.183 46.1738 242.855 45.959C242.695 45.8879 242.519 45.8614 242.345 45.8821C242.171 45.9029 242.005 45.9703 241.866 46.0771C241.589 46.3109 241.397 46.6302 241.32 46.9849C241.164 47.7033 241.218 48.4515 241.475 49.1401C241.894 50.4219 242.711 51.5365 243.808 52.3212C244.715 52.9669 245.788 53.3384 246.9 53.3913C247.742 53.4363 248.584 53.3159 249.38 53.0371C250.035 52.7841 250.653 52.4439 251.218 52.0259Z" fill="#455A64"/>
<path d="M196.52 200.325L258.576 201.395L259.277 243.62L195.044 241.45L196.52 200.325Z" fill="#455A64"/>
<path d="M196.52 200.325L228.64 175.608L258.576 201.396" fill="#263238"/>
<path d="M195.044 241.45C194.962 241.376 200.07 236.077 206.432 229.641C212.794 223.205 218.02 217.995 218.093 218.068C218.167 218.142 213.075 223.441 206.705 229.914C200.336 236.387 195.117 241.524 195.044 241.45Z" fill="#263238"/>
<path d="M259.277 243.62C259.196 243.687 254.487 238.254 248.76 231.486C243.033 224.718 238.464 219.175 238.545 219.109C238.626 219.043 243.328 224.467 249.055 231.243C254.783 238.018 259.359 243.554 259.277 243.62Z" fill="#263238"/>
<path d="M258.576 201.395L226.81 225.523L196.52 200.325" fill="#263238"/>
<path d="M199.59 202.709L199.937 184.656H254.318L254.421 204.421L226.817 225.198L199.59 202.709Z" fill="#EBEBEB"/>
<path d="M208.558 192.336L206.712 203H205.826L207.671 192.336H208.558Z" fill="black"/>
<path d="M219.075 192.336L217.229 203H216.373L211.993 193.852L210.403 203H209.517L211.355 192.336H212.212L216.607 201.484L218.196 192.336H219.075Z" fill="black"/>
<path d="M223.375 201.638L228.077 192.343H229.065L223.558 203H222.818L223.375 201.638ZM221.456 192.329L223.257 201.718L223.404 203H222.708L220.525 192.329H221.456Z" fill="black"/>
<path d="M231.761 192.336L229.915 203H229.029L230.875 192.336H231.761Z" fill="black"/>
<path d="M237.818 192.336L235.979 203H235.108L236.954 192.336H237.818ZM241.363 192.336L241.238 193.112H233.277L233.409 192.336H241.363Z" fill="black"/>
<path d="M247.757 202.231L247.625 203H241.802L241.927 202.231H247.757ZM243.919 192.336L242.073 203H241.187L243.033 192.336H243.919ZM247.918 197.119L247.793 197.888H242.681L242.813 197.119H247.918ZM249.441 192.336L249.31 193.112H243.516L243.641 192.336H249.441Z" fill="black"/>
<path d="M195.974 215.529C195.974 215.529 195.044 224.91 197.317 224.866C201.288 224.799 216.507 220.888 217.577 223.818C218.647 226.748 213.687 229.493 213.687 229.493C213.687 229.493 218.544 230.409 216.152 232.94C213.761 235.472 205.605 247.945 200.358 248.203C192.815 248.572 183.094 246.026 183.094 246.026L187.065 218.541L195.974 215.529Z" fill="#FFBE9D"/>
<path d="M215.532 228.106C215.333 228.282 215.116 228.436 214.883 228.564C214.455 228.844 213.82 229.213 213.023 229.649C208.841 231.908 204.335 233.506 199.664 234.387C198.771 234.557 198.04 234.668 197.538 234.719C197.278 234.768 197.013 234.785 196.749 234.771C196.749 234.712 197.848 234.52 199.612 234.121C204.214 233.09 208.675 231.507 212.897 229.405C214.521 228.608 215.532 228.054 215.532 228.106Z" fill="#EB996E"/>
<path d="M215.112 234.726C214.96 234.94 214.782 235.134 214.58 235.302C214.062 235.801 213.518 236.271 212.949 236.712C209.183 239.647 204.72 241.554 199.996 242.247C199.287 242.357 198.572 242.426 197.856 242.454C197.593 242.486 197.328 242.486 197.066 242.454C197.066 242.387 198.18 242.306 199.952 241.989C204.59 241.155 208.978 239.28 212.787 236.505C214.241 235.435 215.067 234.675 215.112 234.726Z" fill="#EB996E"/>
<path d="M258.805 215.315C258.805 215.315 259.654 223.146 256.679 224.172C252.93 225.493 237.49 220.194 236.412 223.117C235.335 226.039 240.309 228.8 240.309 228.8C240.309 228.8 235.445 229.715 237.837 232.246C240.228 234.778 248.384 247.244 253.631 247.502C258.805 247.662 263.983 247.306 269.086 246.439L266.924 217.847L258.805 215.315Z" fill="#FFBE9D"/>
<path d="M238.464 227.434C238.464 227.383 239.475 227.929 241.091 228.733C245.314 230.835 249.774 232.418 254.377 233.45C256.148 233.848 257.255 234.033 257.24 234.099C256.976 234.113 256.711 234.096 256.451 234.047C255.949 233.988 255.218 233.878 254.325 233.715C249.657 232.826 245.152 231.228 240.966 228.977C240.169 228.541 239.534 228.172 239.106 227.892C238.873 227.768 238.657 227.614 238.464 227.434Z" fill="#EB996E"/>
<path d="M239.313 234.055C239.357 234.003 240.169 234.741 241.586 235.797C243.422 237.171 245.402 238.341 247.49 239.288C249.595 240.218 251.803 240.897 254.067 241.31C255.808 241.627 256.901 241.701 256.901 241.768C256.656 241.798 256.408 241.798 256.163 241.768C255.458 241.742 254.756 241.676 254.059 241.568C251.753 241.224 249.504 240.571 247.372 239.627C245.247 238.674 243.251 237.457 241.431 236.003C240.737 235.435 240.198 234.963 239.844 234.608C239.646 234.445 239.467 234.26 239.313 234.055Z" fill="#EB996E"/>
<path d="M103.73 179.416C101.603 179.672 99.4517 179.672 97.3239 179.416C99.4517 179.16 101.603 179.16 103.73 179.416Z" fill="#455A64"/>
<path d="M107.133 169.231C107.389 171.756 107.389 174.3 107.133 176.825C106.877 174.3 106.877 171.756 107.133 169.231Z" fill="#455A64"/>
<path d="M110.727 179.172C112.855 178.916 115.006 178.916 117.134 179.172C115.006 179.428 112.855 179.428 110.727 179.172Z" fill="#455A64"/>
<path d="M107.354 189.358C107.098 186.83 107.098 184.283 107.354 181.756C107.61 184.283 107.61 186.83 107.354 189.358Z" fill="#455A64"/>
<path d="M112.535 184.988C112.447 185.047 111.864 184.383 111.236 183.512C110.803 183.012 110.47 182.433 110.255 181.807C110.343 181.748 110.919 182.405 111.554 183.284C111.986 183.785 112.319 184.363 112.535 184.988Z" fill="#455A64"/>
<path d="M112.203 173.438C112.285 173.504 111.82 174.176 111.17 174.958C110.521 175.741 109.923 176.294 109.842 176.228C109.76 176.161 110.225 175.49 110.875 174.707C111.524 173.925 112.152 173.371 112.203 173.438Z" fill="#455A64"/>
<path d="M104.889 176.382C104.815 176.456 104.254 176.028 103.627 175.423C103 174.818 102.564 174.264 102.638 174.19C102.712 174.117 103.28 174.545 103.9 175.15C104.52 175.755 104.963 176.301 104.889 176.382Z" fill="#455A64"/>
<path d="M104.601 181.468C104.682 181.534 104.276 182.206 103.679 182.944C103.081 183.682 102.542 184.265 102.453 184.199C102.657 183.648 102.971 183.146 103.376 182.722C103.967 181.97 104.52 181.401 104.601 181.468Z" fill="#455A64"/>
<path d="M311.658 143.243C310.242 143.499 308.792 143.499 307.377 143.243C308.792 142.988 310.242 142.988 311.658 143.243Z" fill="#455A64"/>
<path d="M313.938 137.413C314.194 138.851 314.194 140.322 313.938 141.76C313.683 140.322 313.683 138.851 313.938 137.413Z" fill="#455A64"/>
<path d="M316.359 143.103C317.777 142.847 319.229 142.847 320.647 143.103C319.229 143.359 317.777 143.359 316.359 143.103Z" fill="#455A64"/>
<path d="M314.086 148.927C313.83 147.489 313.83 146.017 314.086 144.579C314.342 146.017 314.342 147.489 314.086 148.927Z" fill="#455A64"/>
<path d="M317.548 146.432C317.466 146.498 317.06 146.144 316.64 145.642C316.219 145.14 315.946 144.675 316.027 144.609C316.108 144.543 316.514 144.889 316.935 145.391C317.356 145.893 317.629 146.366 317.548 146.432Z" fill="#455A64"/>
<path d="M317.385 139.819C317.459 139.892 317.164 140.313 316.728 140.756C316.293 141.199 315.88 141.494 315.806 141.413C315.732 141.332 316.02 140.926 316.455 140.483C316.891 140.04 317.274 139.745 317.385 139.819Z" fill="#455A64"/>
<path d="M312.433 141.502C312.366 141.583 311.975 141.369 311.562 141.029C311.149 140.69 310.861 140.335 310.927 140.254C310.994 140.173 311.392 140.387 311.805 140.727C312.219 141.066 312.507 141.443 312.433 141.502Z" fill="#455A64"/>
<path d="M312.219 144.395C312.3 144.469 312.042 144.875 311.643 145.31C311.244 145.746 310.861 146.048 310.787 145.974C310.713 145.901 310.964 145.487 311.363 145.052C311.761 144.616 312.167 144.343 312.219 144.395Z" fill="#455A64"/>
<path d="M341.926 138.262L342.132 138.771C342.504 139.652 343.21 140.35 344.096 140.712L344.642 140.934L344.118 141.148C343.672 141.328 343.268 141.596 342.928 141.936C342.588 142.276 342.32 142.68 342.14 143.126L341.992 143.495L341.771 143.03C341.364 142.188 340.647 141.537 339.771 141.214L339.291 141.044L339.918 140.742C340.705 140.36 341.325 139.704 341.66 138.896L341.926 138.262Z" fill="#455A64"/>
<path d="M135.984 147.554L136.19 148.056C136.372 148.492 136.638 148.889 136.974 149.222C137.31 149.555 137.708 149.818 138.146 149.997L138.7 150.218L138.168 150.432C137.725 150.614 137.322 150.883 136.984 151.222C136.645 151.562 136.378 151.966 136.198 152.41L136.05 152.779L135.829 152.314C135.425 151.473 134.706 150.824 133.829 150.506L133.349 150.329L133.976 150.026C134.76 149.641 135.378 148.986 135.718 148.181L135.984 147.554Z" fill="#455A64"/>
<path d="M109.849 218.142L109.952 218.393C110.138 218.835 110.491 219.185 110.934 219.368L111.207 219.478L110.941 219.582C110.719 219.672 110.517 219.807 110.347 219.977C110.177 220.146 110.043 220.348 109.952 220.571L109.878 220.755L109.768 220.526C109.566 220.106 109.209 219.78 108.771 219.618L108.528 219.53L108.845 219.382C109.236 219.188 109.545 218.861 109.716 218.46L109.849 218.142Z" fill="#455A64"/>
<path d="M288.778 116.407L288.984 116.909C289.166 117.346 289.432 117.742 289.768 118.076C290.104 118.409 290.502 118.672 290.94 118.85L291.494 119.072L290.962 119.286C290.519 119.468 290.116 119.737 289.778 120.076C289.439 120.416 289.172 120.82 288.992 121.264L288.844 121.633L288.623 121.168C288.219 120.327 287.5 119.677 286.623 119.36L286.143 119.183L286.77 118.88C287.555 118.497 288.175 117.841 288.512 117.035L288.778 116.407Z" fill="#455A64"/>
</svg>
