<svg xmlns="http://www.w3.org/2000/svg" xmlns:xlink="http://www.w3.org/1999/xlink" viewBox="0 0 3710 3710"><defs><linearGradient id="linear-gradient" x1="1197.86" y1="1242.52" x2="2093.52" y2="3223.5" gradientUnits="userSpaceOnUse"><stop offset="0" stop-color="#ffc444"/><stop offset="1" stop-color="#f36f56"/></linearGradient><linearGradient id="linear-gradient-2" x1="3039.15" y1="1362.12" x2="1932.05" y2="1824.84" gradientUnits="userSpaceOnUse"><stop offset="0" stop-color="#ff9085"/><stop offset="1" stop-color="#fb6fbb"/></linearGradient><clipPath id="clip-path"><path d="M1525,3234.69c28.1-147.43,46.78-367.26-39.1-596.42-112.62-300.55-306.12-353.09-602.68-784.91-187.51-273-315.62-465.48-253.29-663.58,48.84-155.24,208.78-295.37,365.51-298.39,130.31-2.52,273.66,89.46,355.55,170,66.73,65.62,96.18,127.1,167.82,135.12,73.22,8.21,104.15-49.08,166.93-49.22C1813,1147,1910.2,1382.1,1925.91,1420.1c174.67,422.69,19.75,906.14-50.37,1116.2C1817.56,2710,1714.46,2960.24,1525,3234.69Z" style="fill:url(#linear-gradient)"/></clipPath><clipPath id="clip-path-2"><path d="M1588.16,3072.76c297.57-84.27,658.53-231.76,949.59-492,74.28-66.42,533.15-476.71,352.67-703.23-63.58-79.79-152.79-69.4-239.69-174.93-103-125.06-43.62-219.7-59-408.36-9.17-112.57-36-442-300.08-552-157.81-65.75-393.18-50.17-539.53,33.11-214.67,122.16-195.76,366-155.91,779,35.33,366.07,102.87,438.83,123.26,702.32C1734.6,2452.16,1722.09,2731.08,1588.16,3072.76Z" style="fill:url(#linear-gradient-2)"/></clipPath><linearGradient id="linear-gradient-5" x1="-1004.4" y1="2321.79" x2="-1526.14" y2="2937.11" gradientTransform="translate(2581.42)" gradientUnits="userSpaceOnUse"><stop offset="0" stop-color="#311944"/><stop offset="1" stop-color="#893976"/></linearGradient><linearGradient id="linear-gradient-6" x1="-1068.67" y1="2267.29" x2="-1590.41" y2="2882.61" xlink:href="#linear-gradient-5"/><linearGradient id="linear-gradient-7" x1="1224.47" y1="1884.94" x2="803.32" y2="2381.61" gradientTransform="matrix(-1, 0, 0, 1, 1925.68, 0)" gradientUnits="userSpaceOnUse"><stop offset="0" stop-color="#e38ddd"/><stop offset="1" stop-color="#9571f6"/></linearGradient><linearGradient id="linear-gradient-8" x1="-763.49" y1="1192.72" x2="-281.99" y2="3856" gradientTransform="translate(2581.42)" gradientUnits="userSpaceOnUse"><stop offset="0" stop-color="#aa80f9"/><stop offset="1" stop-color="#6165d7"/></linearGradient><linearGradient id="linear-gradient-9" x1="-928.24" y1="1197.59" x2="-440.74" y2="3894.03" xlink:href="#linear-gradient-8"/><linearGradient id="linear-gradient-10" x1="-508.38" y1="1568.19" x2="-1467.52" y2="2699.35" xlink:href="#linear-gradient-7"/><linearGradient id="linear-gradient-11" x1="-441.21" y1="2119.85" x2="-1365.83" y2="2143.4" gradientTransform="matrix(-1, 0, 0, 1, 1925.68, 0)" xlink:href="#linear-gradient-5"/><clipPath id="clip-path-3"><path d="M2913.63,3003.62c50.62,0,100.36-21.24,147.84-63.12,48.32-42.63,92-104.28,129.89-183.26,79.61-166,123.45-387.44,123.45-623.47s-43.84-457.44-123.45-623.46c-37.86-79-81.57-140.63-129.89-183.26-47.48-41.88-97.22-63.12-147.84-63.12s-100.36,21.24-147.83,63.12c-48.32,42.63-92,104.28-129.9,183.26-79.6,166-123.44,387.44-123.44,623.46s43.84,457.45,123.44,623.47c37.87,79,81.58,140.63,129.9,183.26C2813.27,2982.38,2863,3003.62,2913.63,3003.62Z" style="fill:none"/></clipPath><linearGradient id="linear-gradient-12" x1="-118.91" y1="1276.86" x2="195.47" y2="3015.76" gradientTransform="translate(2581.42)" xlink:href="#linear-gradient"/><linearGradient id="linear-gradient-13" x1="62.37" y1="1500.87" x2="294.33" y2="2783.92" gradientTransform="translate(2581.42)" xlink:href="#linear-gradient"/><linearGradient id="linear-gradient-14" x1="-2368.41" y1="1823" x2="-1897.13" y2="1823" gradientTransform="matrix(-1, 0, 0, 1, -102.95, 0)" gradientUnits="userSpaceOnUse"><stop offset="0" stop-color="#444b8c"/><stop offset="1" stop-color="#26264f"/></linearGradient><linearGradient id="linear-gradient-15" x1="5099.95" y1="1305.41" x2="5120.32" y2="1672.09" gradientTransform="matrix(0.96, 0.29, -0.29, 0.96, -2636.62, -392.26)" xlink:href="#linear-gradient-14"/><linearGradient id="linear-gradient-16" x1="-2146.88" y1="1840.73" x2="-1675.6" y2="1840.73" gradientTransform="matrix(-1, 0, 0, 1, -102.95, 0)" gradientUnits="userSpaceOnUse"><stop offset="0" stop-color="#444b8c"/><stop offset="1" stop-color="#3e4177"/></linearGradient><linearGradient id="linear-gradient-17" x1="1801.71" y1="2384.84" x2="1816.9" y2="2431.3" gradientUnits="userSpaceOnUse"><stop offset="0" stop-color="#311944"/><stop offset="1" stop-color="#a03976"/></linearGradient><linearGradient id="linear-gradient-18" x1="-2116.77" y1="1530.38" x2="-1694.2" y2="2043.82" xlink:href="#linear-gradient-14"/><linearGradient id="linear-gradient-19" x1="2746.95" y1="1515.6" x2="2660.68" y2="1357.86" gradientTransform="translate(-1037.48 429.39) rotate(-23.05)" xlink:href="#linear-gradient-14"/><linearGradient id="linear-gradient-20" x1="2726.22" y1="1121.75" x2="2668.61" y2="1019.82" gradientTransform="matrix(0.99, -0.15, 0.15, 0.99, -733.17, 142.17)" xlink:href="#linear-gradient-17"/><linearGradient id="linear-gradient-21" x1="1525.48" y1="1092.55" x2="2082.59" y2="1092.55" xlink:href="#linear-gradient"/><linearGradient id="linear-gradient-22" x1="1453.25" y1="600.57" x2="821.64" y2="1129.48" gradientTransform="matrix(-0.92, -0.4, -0.4, 0.92, 2341.85, 464.21)" xlink:href="#linear-gradient-14"/><linearGradient id="linear-gradient-23" x1="278.71" y1="1279.88" x2="188.21" y2="952.52" gradientTransform="matrix(-1, 0.03, 0.03, 1, 1706.71, -94.1)" xlink:href="#linear-gradient-17"/><linearGradient id="linear-gradient-24" x1="509.15" y1="776.9" x2="222.23" y2="1015.68" gradientTransform="matrix(-1, 0.03, 0.03, 1, 1706.71, -94.1)" xlink:href="#linear-gradient-17"/><linearGradient id="linear-gradient-25" x1="588.95" y1="1778.52" x2="438.75" y2="1965.32" gradientTransform="translate(2737.94 1634.83) rotate(120.16)" xlink:href="#linear-gradient-17"/><linearGradient id="linear-gradient-26" x1="936.28" y1="1455.37" x2="1439.35" y2="1455.37" xlink:href="#linear-gradient"/><linearGradient id="linear-gradient-27" x1="-2774.6" y1="-403.6" x2="-3754.53" y2="2046.22" gradientTransform="matrix(-1, 0, 0, 1, -258.32, 0)" xlink:href="#linear-gradient-5"/><linearGradient id="linear-gradient-28" x1="-3381.26" y1="534.14" x2="-2931.14" y2="1368.98" gradientTransform="matrix(-1, 0, 0, 1, -258.32, 0)" xlink:href="#linear-gradient-2"/><linearGradient id="linear-gradient-30" x1="-2405.59" y1="187.69" x2="-1984.16" y2="969.32" gradientTransform="matrix(-0.99, -0.15, -0.15, 0.99, 742.79, -10.3)" xlink:href="#linear-gradient-2"/><linearGradient id="linear-gradient-31" x1="-3503.01" y1="580.56" x2="-3058.49" y2="1472.62" gradientTransform="matrix(-1, 0, 0, 1, -258.32, 0)" xlink:href="#linear-gradient-2"/></defs><title>Display</title><g style="isolation:isolate"><g id="Background"><rect width="3710" height="3710" style="fill:#fff"/></g><g id="Illustration"><path d="M2632.43,605.42c96.88,139.2-16.72,364.88,127,469.57,139.94,101.9,311.84-65.14,443.72,22.58,195.63,130.13,159.91,725.58-126.12,1095.54-86,111.26-157.89,154.55-189.72,280.38C2819,2743.68,3059.21,2904.41,3013.49,3038c-102.93,300.89-1686,553.37-2321.15-350.9-296.66-422.33-341-1032.18-76-1495.37C1095.3,354.8,2415,293.08,2632.43,605.42Z" style="fill:#f4f7fa"/><path d="M1525,3234.69c28.1-147.43,46.78-367.26-39.1-596.42-112.62-300.55-306.12-353.09-602.68-784.91-187.51-273-315.62-465.48-253.29-663.58,48.84-155.24,208.78-295.37,365.51-298.39,130.31-2.52,273.66,89.46,355.55,170,66.73,65.62,96.18,127.1,167.82,135.12,73.22,8.21,104.15-49.08,166.93-49.22C1813,1147,1910.2,1382.1,1925.91,1420.1c174.67,422.69,19.75,906.14-50.37,1116.2C1817.56,2710,1714.46,2960.24,1525,3234.69Z" style="fill:url(#linear-gradient)"/><g style="clip-path:url(#clip-path)"><g style="opacity:0.5;mix-blend-mode:soft-light"><path d="M1471.28,3374.12l-5.88-3.84C1576.67,3200,1658.3,3034.11,1708,2877.19c73.36-231.49,74.56-436.74,3.58-610.07-55.59-135.73-152.34-247.74-286.25-402.77-106.89-123.75-193.8-201.81-270.48-270.68-100.11-89.91-179.18-160.93-255.37-291.92-77.32-133-126-285.63-144.65-453.8l7-.77c18.55,167.19,66.91,318.94,143.74,451,75.63,130,154.34,200.73,254,290.23,76.84,69,163.92,147.23,271.1,271.31,66.37,76.84,123.69,143.2,172,208.15,52.92,71.09,89.59,133.55,115.39,196.56,71.63,174.89,70.49,381.75-3.37,614.85C1664.81,3036.84,1582.9,3203.32,1471.28,3374.12Z" style="fill:#fff"/><path d="M1219.6,1786.29a838,838,0,0,1-142.25-12.14c-89.86-15.51-174.85-45.4-252.63-88.85-97.21-54.31-183.34-130-256-225.13l5.58-4.26c72.06,94.31,157.46,169.42,253.82,223.25,77.09,43.07,161.33,72.7,250.4,88.07,136,23.48,242,6.13,263.26,2.11-101.8-291-82.57-533.76-48.38-686.43,37.23-166.25,99.82-264.64,100.45-265.62l5.9,3.81c-.62,1-62.64,98.54-99.57,263.68-34.07,152.36-53.13,395.07,49.57,686.05l1.32,3.74-3.88.86C1346.46,1775.6,1296.71,1786.29,1219.6,1786.29Z" style="fill:#fff"/><path d="M775.61,2148.1l-3.3-6.21c.73-.38,73.74-39,169.54-73.54,160.48-57.9,260.58-60.21,316.31-52,180,26.67,348.65,84.06,370.73,91.74,111-146.71,115.58-448.3,99.84-676-17.18-248.27-61.64-464.6-62.09-466.75l6.88-1.43c.45,2.16,45,219,62.21,467.69,10.11,146.17,8.94,274.63-3.48,381.82-15.57,134.36-49,235.61-99.34,301l-1.55,2-2.41-.86c-1.78-.63-180.37-63.89-371.82-92.25-54.91-8.14-153.76-5.79-312.81,51.58C849,2109.31,776.33,2147.71,775.61,2148.1Z" style="fill:#fff"/><path d="M1735.64,2814.07l-.74-7c-10.14-94.82-46.84-175-109.07-238.21-49.87-50.67-116.17-90.72-197.08-119-138-48.3-272.26-45.55-273.6-45.53l-.17-7c1.35,0,136.87-2.79,276.09,45.92,81.93,28.67,149.14,69.29,199.76,120.73,61.83,62.83,98.9,142,110.25,235.36,24-23.18,129.59-128.39,241.75-290.09,117.17-168.94,265.69-435.88,307.77-748.17l81.68-606,7,.94-81.67,606c-42.29,313.74-191.42,581.78-309.07,751.39C1861,2697.12,1742,2808.21,1740.78,2809.31Z" style="fill:#fff"/></g></g><path d="M1588.16,3072.76c297.57-84.27,658.53-231.76,949.59-492,74.28-66.42,533.15-476.71,352.67-703.23-63.58-79.79-152.79-69.4-239.69-174.93-103-125.06-43.62-219.7-59-408.36-9.17-112.57-36-442-300.08-552-157.81-65.75-393.18-50.17-539.53,33.11-214.67,122.16-195.76,366-155.91,779,35.33,366.07,102.87,438.83,123.26,702.32C1734.6,2452.16,1722.09,2731.08,1588.16,3072.76Z" style="fill:url(#linear-gradient-2)"/><g style="clip-path:url(#clip-path-2)"><g style="opacity:0.5;mix-blend-mode:soft-light"><path d="M355.16,3524.41l-.25-7c213.6-7.38,415.44-40.75,599.9-99.19,125.37-39.72,243.26-91.33,350.39-153.41,185-107.23,341.14-248.95,464-421.22,112-157.17,197.68-341.4,254.53-547.59,125.25-454.29,87.51-914.44,33.8-1220.46C2020.24,863.33,1910,648.46,1729.67,436.88l5.34-4.56c181.11,212.55,291.93,428.54,329.39,642,53.84,306.73,91.65,768-34,1223.54-57.07,207-143.06,392-255.58,549.8-123.4,173.09-280.23,315.48-466.15,423.22-107.57,62.33-225.93,114.15-351.79,154C771.86,3483.53,569.39,3517,355.16,3524.41Z" style="fill:#fff"/><path d="M2111.32,1695.28l-2.61-1.49c-1.28-.73-129.18-74.45-264.91-204.43-125.38-120.07-283.33-314.09-323.84-556.62l6.92-1.15c40.19,240.56,197.1,433.27,321.65,552.57s242.26,190.88,261.07,202c454-571.77,243.43-1014.65,168-1136.89-2.13-3.46-3-4.9-3.4-5.76l6.41-2.88c.23.52,1.56,2.67,3,5,76.17,123.4,289,570.82-170.36,1147.34Z" style="fill:#fff"/><path d="M2028,2293l-1.22-1.08c-.82-.73-83.33-74.58-186.65-206.53-95.33-121.75-228.45-319.35-321.25-569.31l-179.34-483,6.58-2.45,179.35,483.06c92.48,249.11,225.17,446.06,320.19,567.42,96.16,122.8,174.08,195,184.59,204.53,180.7-25.85,338.87-72.43,470.14-138.46,105.25-52.93,193.54-118.42,262.42-194.63,61.27-67.78,95.52-131.69,113.47-173.37,19.45-45.17,24.47-74.68,24.52-75l6.93,1.15c-.2,1.19-20.94,120.31-139.35,251.52-69.44,76.94-158.42,143-264.48,196.41-132.42,66.66-292,113.61-474.29,139.54Z" style="fill:#fff"/></g></g><path d="M1492,3259.85c-67.38-4.31-131-47-158.38-112.75L947.66,2220c-35.14-84.42,4.5-180,89-213.84,85.09-34.12,217.72,6.06,253.77,91.38l396,937.16c37.33,88.36-4.76,185-93.55,215.38C1571,3257.56,1514.25,3261.27,1492,3259.85Z" style="fill:url(#linear-gradient-5)"/><path d="M1036.65,2006.15c85.09-34.12,217.72,6.06,253.77,91.38l362.06,856.89c-60.6-15.57-132.33-14.17-201.18-74.55-114.63-100.5-58.24-229.31-149.09-344-41.53-52.45-118.37-107.66-274.8-124.27L947.66,2220C912.52,2135.57,952.16,2040,1036.65,2006.15Z" style="opacity:0.30000000000000004;mix-blend-mode:multiply;fill:url(#linear-gradient-6)"/><path d="M804.29,1822.17a72.11,72.11,0,0,1,9.87.7l238.6-2.62v620.38l-230.4-3.16a72.9,72.9,0,0,1-18.07,2.3c-81.77,0-148.06-138.26-148.06-308.8S722.52,1822.17,804.29,1822.17Z" style="fill:url(#linear-gradient-7)"/><path d="M1052.76,1820.25c-90.38,206.58-90.38,412.42,0,620.38l1774.82,570.63L2845.91,1270Z" style="fill:url(#linear-gradient-8)"/><path d="M2348.47,2499.44c-168.75-63.93-221.19-308.75-417.1-317-153.73-6.46-200,142.8-350.67,126.7-154.18-16.48-180.08-182.72-352.75-241.31-78.51-26.64-160.64-21.72-240.35.81q-16.07,185,65.16,372l1774.82,570.63-105-591.2C2547.59,2522.14,2430.28,2530.43,2348.47,2499.44Z" style="opacity:0.30000000000000004;mix-blend-mode:multiply;fill:url(#linear-gradient-9)"/><ellipse cx="2913.63" cy="2133.77" rx="431.73" ry="900.39" style="fill:url(#linear-gradient-10)"/><path d="M2913.63,3003.62c50.62,0,100.36-21.24,147.84-63.12,48.32-42.63,92-104.28,129.89-183.26,79.61-166,123.45-387.44,123.45-623.47s-43.84-457.44-123.45-623.46c-37.86-79-81.57-140.63-129.89-183.26-47.48-41.88-97.22-63.12-147.84-63.12s-100.36,21.24-147.83,63.12c-48.32,42.63-92,104.28-129.9,183.26-33.28,69.42-60.31,148.52-80.5,234.33-28.1,119.41,53.11,244.06,53.11,381.4,0,146-79.27,294.21-47.62,419.4,19.51,77.15,44.66,148.5,75,211.8,37.87,79,81.58,140.63,129.9,183.26C2813.27,2982.38,2863,3003.62,2913.63,3003.62Z" style="fill:url(#linear-gradient-11)"/><g style="clip-path:url(#clip-path-3)"><path d="M2949.16,2145.59c0,228.11-151,409.24-334.75,404.62-180.86-4.55-325.43-188-325.43-409.73s144.57-403,325.43-404.7C2798.11,1734,2949.16,1917.47,2949.16,2145.59Z" style="fill:url(#linear-gradient-12)"/><path d="M2920.14,2141.88c0,169.39-73.6,303.89-163.1,300.46-88.13-3.38-158.57-139.58-158.57-304.26s70.44-299.21,158.57-300.51C2846.54,1836.25,2920.14,1972.48,2920.14,2141.88Z" style="opacity:0.30000000000000004;mix-blend-mode:multiply;fill:url(#linear-gradient-13)"/></g><path d="M1659.66,1558.75c157.6,38.26,261.41,99.68,322,143.13,32.85,23.54,48,38.23,56.22,59.63,46.69,122-193.16,306.42-218.72,325.73q-16.76-39-33.5-78.1c24.79-136,66-178.71,100.58-191.4,9.66-3.55,25.87-7.36,25.56-11.93-.75-10.81-91.85,4.6-178.91-27.26-86.81-31.76-174-112.14-158.46-165.28C1577.31,1603.57,1589.22,1575.54,1659.66,1558.75Z" style="fill:url(#linear-gradient-14)"/><path d="M1812.48,2450.35s-14.67,5.23-14.72,16.83,14.86,62.71,31.06,80.87,17.65-8.94,16.65-26.39-5.25-56.51-9.26-64.07S1812.48,2450.35,1812.48,2450.35Z" style="fill:url(#linear-gradient-15)"/><path d="M1859.58,1737.09c28.64-.56,95.73-5.91,113.6,27.26,14.9,27.67-11.21,69.62-27.27,95.42-43.65,70.14-86,77.31-115.86,120.41-11.55,16.68-22,40-25.35,73.26q-9.5-22.14-19-44.3c24.79-136,66-178.71,100.58-191.4,9.66-3.55,25.87-7.36,25.56-11.93-.75-10.81-91.85,4.6-178.91-27.26-79.14-29-158.35-98.24-160-150.54C1698.26,1717.9,1792.57,1738.4,1859.58,1737.09Z" style="opacity:0.30000000000000004;mix-blend-mode:multiply;fill:url(#linear-gradient-16)"/><path d="M1804,2401.05c.87,17.88,2.39,32.83,3.75,43.93,3,24.56,5.82,34.28,9.63,43.13,3.32,7.71,11.63,24.53,15.6,23.37s-.11-19.83-3.25-71.66c-.46-7.53-1.85-31.48-1.85-31.48h0Z" style="fill:url(#linear-gradient-17)"/><path d="M1568.79,1569c90.8,54.75,149.75,117,184,159,40.45,49.63,102,125.11,124.27,237.66,11.88,60,6,113.8-6.14,219a2204.63,2204.63,0,0,1-43,247.6l-20.94,8.41c-18.7-34.37-43.17-88.76-51.94-158.32-14.35-113.8,28.22-150,7.79-230.67-17.7-69.92-69-112.79-171.57-198.52-84.29-70.45-162-112.24-190.85-200.11-4.9-14.92-9.06-33.22-1.07-50C1416.59,1566.93,1482.43,1554.33,1568.79,1569Z" style="fill:url(#linear-gradient-18)"/><path d="M1970.77,636.68l44.55-18.95a12.21,12.21,0,0,1,16.46,7.67l34.88,114.16a12.22,12.22,0,0,1-6.9,14.81l-43.15,18.35a12.22,12.22,0,0,1-16.42-7.52l-36.27-113.57A12.21,12.21,0,0,1,1970.77,636.68Z" style="fill:url(#linear-gradient-19)"/><path d="M2014.21,710.56c-6.17-21.75,5.81-40.62-6.29-62.86a53.43,53.43,0,0,0-13.54-16l-18.13,7.71a11.42,11.42,0,0,0-6.4,14l33.9,106.14a11.41,11.41,0,0,0,15.34,7l35.36-15C2028.09,738.13,2017.84,723.34,2014.21,710.56Z" style="fill:#f4f7fa;opacity:0.30000000000000004;mix-blend-mode:soft-light"/><path d="M2067.46,774.13c-5.28-13-6.18-20-5.88-24,0-.5.21-2.56.35-5.48.21-4.64.18-8.28.13-10.61-.23-12.54-.35-18.81-1.52-24.86-1.31-6.72-3.21-16.49-6.77-16.83-4.78-.46-11.79,13.13-14.77,25.85-3.89,16.56,1,23.1-3.73,34.63-4,9.69-11.86,15.9-18.66,19.84a17.16,17.16,0,0,0,7.28,3.37c3.67.7,5.78-.29,11.41.49a39.17,39.17,0,0,1,4.17.81C2043.45,778.32,2051.22,778.16,2067.46,774.13Z" style="fill:url(#linear-gradient-20)"/><path d="M2069.41,769c-12.55,0-23.53,9-36.07,9-11.48,82.34-32.2,110.5-58.15,136.43-83.75,83.69-194.43,50.23-369.85,122A756.44,756.44,0,0,0,1450,1122.63c35,42.45,106.1,113.33,211.06,129.78,185.5,29.08,366.18-129.18,415.47-299.08C2099.89,872.9,2078.12,809.57,2069.41,769Z" style="fill:#fff"/><path d="M1814,1157.43c12.16-12.63,13.93-24.48,41.29-62.11a205.53,205.53,0,0,1,25.59-28.71c70-66.23,128.27-51.47,177-102.27a147,147,0,0,0,24.73-35.12c-1.72,7.94-3.67,16-6,24.11-49.29,169.91-230,328.16-415.47,299.08-54.44-8.53-99.69-31.73-135.61-58a313.63,313.63,0,0,1,97.28-29.09C1718.44,1153.33,1780.15,1192.56,1814,1157.43Z" style="opacity:0.30000000000000004;mix-blend-mode:multiply;fill:url(#linear-gradient-21)"/><path d="M1348.55,1008c26.93,4.14,67.45,20.81,118.19,4.95,15.28-4.77,69.39-21.68,82.21-70.5,11.29-43-19.38-80.08-23.18-84.55-21.89-25.8-50.79-32.94-83-40.43-41.78-9.7-59.11-3.89-89.54-7-75.28-7.62-83.73-54.83-153.7-77.78-89.42-29.35-121.75,32.63-196.28,6.07-83.67-29.81-68.62-117.08-145.3-162.06C751.51,514.23,532.8,571.06,482.47,713.5c-29.07,82.26-4,198.81,62.85,256.4,38.95,33.57,89.69,47,92.4,81.65,1.94,24.69-26.47,32.31-38.26,69.55-15.19,48,12.68,96.38,17.19,104.19,41.78,72.52,187.2,99.37,306.67,64.83C1138.74,1227.84,1202.11,985.49,1348.55,1008Z" style="fill:url(#linear-gradient-22)"/><path d="M1324,1026.41a1906.73,1906.73,0,0,1,206.74-20.08c166.11-7,161.67.37,192.4-7,28.35-6.75-15.5,79.49-34.09,158.07-19,80.19-8,146.88-3.85,170.57,6.67,38.17,18.19,67.85,41.24,127.22,40,103.12,61.71,125,48.73,154.77-18.93,43.48-88.83,51.86-101.13,53.09-62.27,6.21-80.78-28.13-133.76-26.13-61.56,2.33-68.8,49.9-148.47,93-94,50.9-223.42,60.35-292.75,2.63-26.77-22.29-46.77-55.6-38.56-68.25,11.17-17.21,64.41,19.63,111.59-5.12,31.25-16.41,24.51-41.3,60.3-71.88,43.08-36.8,74.28-19.06,103.63-43,45.79-37.42,22-123.17,4.71-267.59A2420.05,2420.05,0,0,1,1324,1026.41Z" style="fill:#fff"/><path d="M1324,1026.41c-86.59,17.21-104.29,112.64-192.69,144.08-53.56,19-138.07,16.38-273.3-80.85l-46.8,30.72c32.53,100.5,88.95,151.23,116,172.1,154.79,119.21,408.54,77.16,528.57-62.59,37.66-43.85,55.73-89.85,64.84-119.67C1469.08,1062.52,1396.8,1011.94,1324,1026.41Z" style="fill:#fff"/><path d="M1492.47,924.44s-5.73,59.69-27.29,73.94-57.14,14.69-60.91,19.63,113.82,45.36,182.14,8.39l28.34-21.15c-22.82.74-52.16,0-63.94-6.32-8-4.27-21-12.69-33.14-28.93l-.69-32.94Z" style="fill:url(#linear-gradient-23)"/><path d="M1489.74,945.6s14.87,19.23,37.08,10.4c19.89-7.9,6.41-59.47-9.7-64.93-5.38-1.82-15.12-.67-21.53,3.59-4.5,3-16.33,18.58-8.81,35.44-5.12-1.32-9.55.14-10.6,2.69-1.32,3.23,3.1,7.45,4.1,8.4A17,17,0,0,0,1489.74,945.6Z" style="fill:url(#linear-gradient-24)"/><path d="M844.89,1098.26l-10.64-15s31.81-75-4.27-80.89-23.45,12.3-18.15,21.09,3.55,40.31-1,50.53,10.43,39.8,10.43,39.8Z" style="fill:url(#linear-gradient-25)"/><path d="M1239.39,1706.2c19.53-18,.27-44.79,21.38-71.86,19.32-24.78,45.84-15.69,84.37-33.14,46.31-21,77.95-65.82,90.07-102.67,8.64-26.28,5.27-42.15-24.63-165.77-28.47-117.73-35.84-146.42-51.75-148-28.94-2.89-40.9,88.49-95.55,96.61-30.86,4.6-39.19-22.75-80.24-31.58-69.68-15-108.18,50.33-179,58.65-18.11,2.13-40.68.68-67.72-9.65,116.22,83,283.15,80.09,409.3,15.93,16.22,121.54,32,195.6-9.56,229.6-29.35,24-60.55,6.24-103.63,43-35.79,30.58-29.05,55.47-60.3,71.88-47.18,24.75-100.42-12.09-111.59,5.12-7.44,11.47,8.39,39.86,31.35,61.68a123.88,123.88,0,0,1,36.11-14.73C1179.42,1699.52,1216.35,1727.46,1239.39,1706.2Z" style="opacity:0.30000000000000004;mix-blend-mode:multiply;fill:url(#linear-gradient-26)"/><path d="M2687.31,996.23s46-28.56,72.75-73.24c-40.71-46.43-64.63-103.49-64.63-164.3,0-145.81,137.44-268.17,314.49-273.52,181.09-5.48,335.4,112.37,343.31,265.71V751c.09,1.9.17,3.81.22,5.73,0,.27,0,.55,0,.83,0,1.88.07,3.76.07,5.65a239,239,0,0,1-1.39,25.79q-.6,5.44-1.43,10.83-1.68,10.75-4.32,21.2-1.3,5.22-2.86,10.37c-.69,2.28-1.41,4.56-2.16,6.82-17.72,53.1-53.84,99.14-101.95,133.49-1,.73-2.05,1.46-3.09,2.18a335.94,335.94,0,0,1-53.51,30.29l-3.59,1.6q-12.59,5.52-25.79,10.14-5.65,2-11.41,3.77-3.84,1.2-7.72,2.32-5.82,1.68-11.74,3.18c-2.62.67-5.27,1.31-7.92,1.92a390.15,390.15,0,0,1-104.75,9.42c-2.68-.12-5.36-.26-8-.43l-2.32-.17c-1.91-.14-3.8-.27-5.69-.43l-2.52-.24c-1.83-.16-3.67-.33-5.49-.53l-2.35-.26q-2.85-.32-5.68-.67l-2-.26c-2-.27-4-.54-6-.84l-1.54-.23q-3.3-.51-6.59-1.06l-.9-.15q-3.7-.63-7.37-1.34h0a375.06,375.06,0,0,1-59.49-16.51l.07-.06q-16.76-6.23-32.46-13.91C2836.22,1019.32,2771.54,1055.75,2687.31,996.23Z" style="fill:url(#linear-gradient-27)"/><path d="M2671.83,757.69c0,145.81,137.44,270.07,314.49,277.88,185.93,8.2,343.64-114,343.64-273.32s-157.71-283.71-343.64-278.09C2809.27,489.52,2671.83,611.88,2671.83,757.69Z" style="fill:url(#linear-gradient-28)"/><path d="M2671.83,757.69c0,145.81,137.44,270.07,314.49,277.88,185.93,8.2,343.64-114,343.64-273.32s-157.71-283.71-343.64-278.09C2809.27,489.52,2671.83,611.88,2671.83,757.69Z" style="fill:url(#linear-gradient-28)"/><path d="M2849.43,988.11s-76.39,84.37-185.72,7.11c0,0,87.49-54.32,91.4-130.39Z" style="fill:url(#linear-gradient-30)"/><path d="M2806,686.16h0c13.31-37.95,46.56-65.19,85.85-65.67,51.88-.62,94.48,45.57,94.48,103.19,0-57.62,43.1-104.84,97-105.49,41.82-.5,77.94,27.17,92.59,66.83h0C3232,828.13,2986.32,953.7,2986.32,953.7S2755.9,820.7,2806,686.16Z" style="fill:#fff"/><g style="opacity:0.30000000000000004;mix-blend-mode:multiply"><path d="M2907.43,962.61c39-79.63-.42-155.86,52.39-207.58,54.42-53.32,126.36-3,205.35-47.14,31-17.3,65.74-50.64,91.77-119.51,45.64,47.65,73,108.06,73,173.87,0,159.32-157.71,281.52-343.64,273.32a383.29,383.29,0,0,1-116-23.13A169.78,169.78,0,0,0,2907.43,962.61Z" style="fill:url(#linear-gradient-31)"/></g></g></g></svg>