<svg xmlns="http://www.w3.org/2000/svg" xmlns:xlink="http://www.w3.org/1999/xlink" viewBox="0 0 3710 3710"><defs><linearGradient id="linear-gradient" x1="579.45" y1="2224.55" x2="1647.85" y2="2224.55" gradientUnits="userSpaceOnUse"><stop offset="0" stop-color="#e38ddd"/><stop offset="1" stop-color="#9571f6"/></linearGradient><linearGradient id="linear-gradient-2" x1="2668.5" y1="1723.47" x2="2204.17" y2="3766.52" xlink:href="#linear-gradient"/><clipPath id="clip-path"><path d="M1477.32,2913.7c190.31-147.06,210.17-451.65,114.61-531.35-49.7-41.46-110.06-4.92-155.63-55-50.48-55.46-1.34-127.72-12.9-283.62-6-80.55-16.81-226.62-103.3-276.4-85.78-49.36-160.44,45.19-255.67-2.82-90-45.4-57.5-147.19-168.32-238.13-10.3-8.46-127.44-102.24-218.38-61.71-92.4,41.17-125.13,206.42-74.54,309,46,93.16,147.18,107.18,142.51,162.61-5.15,61.08-129.76,64.06-141.07,126.31-16.35,90,232.07,149.36,240.75,290.81,5.11,83.17-78.5,99.92-94.92,205.44-21.2,136.19,92,275.5,189.43,344.22C1081,3002.65,1312.37,3041.17,1477.32,2913.7Z" style="fill:url(#linear-gradient)"/></clipPath><clipPath id="clip-path-2"><path d="M2338.53,2825.94c-240.35-118.84-329.09-447.35-242.2-555.48,45.2-56.24,119.21-29.59,158-94.32,43-71.71-26.65-139.87-48.32-312.8-11.2-89.34-31.51-251.36,52.06-324.8,82.88-72.82,185.29,14.07,278.79-59.35,88.42-69.43,30.45-173.52,131.54-297.29,9.41-11.52,116.78-139.79,225.09-115.51,110,24.65,182.18,198,149.46,321.25-29.72,111.92-137.26,149.52-120,209.07,19.07,65.63,155.91,41.46,182,107,37.68,94.72-220.74,214.31-199.1,370.8,12.72,92,130.52,99.67,113.05,217.44-28.15,189.82-66,235.33-157.32,331.87C2729.26,2763.72,2546.86,2928.94,2338.53,2825.94Z" style="fill:url(#linear-gradient-2)"/></clipPath><linearGradient id="linear-gradient-5" x1="2568.84" y1="4813.24" x2="971.24" y2="6263.04" gradientTransform="translate(-3755.8 3738.61) rotate(-90)" gradientUnits="userSpaceOnUse"><stop offset="0" stop-color="#26264f"/><stop offset="1" stop-color="#444b8c"/></linearGradient><linearGradient id="linear-gradient-6" x1="1038.58" y1="1943.29" x2="2860.58" y2="1892.52" gradientUnits="userSpaceOnUse"><stop offset="0" stop-color="#444b8c"/><stop offset="1" stop-color="#26264f"/></linearGradient><linearGradient id="linear-gradient-7" x1="1361.95" y1="6083.84" x2="2264.5" y2="4980.72" gradientTransform="translate(-3755.8 3738.61) rotate(-90)" xlink:href="#linear-gradient-6"/><linearGradient id="linear-gradient-8" x1="2632.39" y1="2999.76" x2="1297.61" y2="1195.85" gradientUnits="userSpaceOnUse"><stop offset="0" stop-color="#aa80f9"/><stop offset="1" stop-color="#6165d7"/></linearGradient><linearGradient id="linear-gradient-9" x1="2195.03" y1="3208.53" x2="906.79" y2="1467.52" xlink:href="#linear-gradient-8"/><linearGradient id="linear-gradient-10" x1="1872.98" y1="2836.29" x2="1842.85" y2="3065.72" xlink:href="#linear-gradient-6"/><linearGradient id="linear-gradient-11" x1="1851.93" y1="848.52" x2="1868.99" y2="867.32" gradientUnits="userSpaceOnUse"><stop offset="0" stop-color="#ff9085"/><stop offset="1" stop-color="#fb6fbb"/></linearGradient><linearGradient id="linear-gradient-12" x1="1650.66" y1="1692.5" x2="2268.25" y2="1692.5" xlink:href="#linear-gradient-6"/><linearGradient id="linear-gradient-13" x1="1926.21" y1="1628.75" x2="4306.62" y2="-1428.43" gradientUnits="userSpaceOnUse"><stop offset="0" stop-color="#ab316d"/><stop offset="1" stop-color="#792d3d"/></linearGradient><linearGradient id="linear-gradient-14" x1="2148.54" y1="1352.1" x2="2582.46" y2="794.8" gradientUnits="userSpaceOnUse"><stop offset="0" stop-color="#fcb148"/><stop offset="0.05" stop-color="#fdba46"/><stop offset="0.14" stop-color="#ffc244"/><stop offset="0.32" stop-color="#ffc444"/><stop offset="0.48" stop-color="#fdb946"/><stop offset="0.78" stop-color="#f99c4d"/><stop offset="0.87" stop-color="#f8924f"/><stop offset="1" stop-color="#f8924f"/></linearGradient><linearGradient id="linear-gradient-15" x1="2617.14" y1="1153.78" x2="2345.08" y2="461.81" xlink:href="#linear-gradient-14"/><linearGradient id="linear-gradient-16" x1="2184.61" y1="1404.57" x2="2776.65" y2="644.2" xlink:href="#linear-gradient-14"/><linearGradient id="linear-gradient-17" x1="3572.5" y1="2957.09" x2="3513.34" y2="2762.03" gradientTransform="matrix(0.99, 0.12, -0.12, 0.99, -2178.02, -89.7)" xlink:href="#linear-gradient-6"/><linearGradient id="linear-gradient-18" x1="3521.5" y1="2919.11" x2="3521.5" y2="2605.73" gradientTransform="matrix(0.99, 0.12, -0.12, 0.99, -2178.02, -89.7)" gradientUnits="userSpaceOnUse"><stop offset="0" stop-color="#ffc444"/><stop offset="1" stop-color="#f36f56"/></linearGradient><linearGradient id="linear-gradient-19" x1="3636.88" y1="2919.11" x2="3636.88" y2="2605.72" xlink:href="#linear-gradient-18"/><linearGradient id="linear-gradient-20" x1="3658.67" y1="2930.95" x2="3599.52" y2="2735.89" gradientTransform="matrix(0.99, 0.12, -0.12, 0.99, -2178.02, -89.7)" xlink:href="#linear-gradient-6"/><linearGradient id="linear-gradient-21" x1="3494.4" y1="2242.9" x2="3465.62" y2="2890.44" gradientTransform="matrix(0.99, 0.12, -0.12, 0.99, -2178.02, -89.7)" gradientUnits="userSpaceOnUse"><stop offset="0" stop-color="#311944"/><stop offset="1" stop-color="#893976"/></linearGradient><linearGradient id="linear-gradient-22" x1="3494.4" y1="2242.9" x2="3465.62" y2="2890.44" xlink:href="#linear-gradient-21"/><linearGradient id="linear-gradient-23" x1="3933.13" y1="2518.37" x2="3405.5" y2="2494.39" xlink:href="#linear-gradient-21"/><linearGradient id="linear-gradient-24" x1="3152.22" y1="2656.62" x2="3526.36" y2="1857.18" gradientTransform="matrix(0.99, 0.12, -0.12, 0.99, -2178.02, -89.7)" gradientUnits="userSpaceOnUse"><stop offset="0.49" stop-color="#ebeff2"/><stop offset="1" stop-color="#fff"/></linearGradient><linearGradient id="linear-gradient-25" x1="585.52" y1="2481.53" x2="1226.76" y2="2481.53" xlink:href="#linear-gradient-8"/><linearGradient id="linear-gradient-26" x1="3564.5" y1="1619.5" x2="3497.01" y2="1728.68" xlink:href="#linear-gradient-18"/><linearGradient id="linear-gradient-27" x1="3815.87" y1="1788.54" x2="3679.83" y2="2008.61" gradientTransform="matrix(0.99, 0.12, -0.12, 0.99, -2178.02, -89.7)" xlink:href="#linear-gradient-6"/><linearGradient id="linear-gradient-28" x1="3840.14" y1="1831.12" x2="3722.63" y2="2051.75" gradientTransform="matrix(0.99, 0.1, -0.1, 0.99, -2242.28, -81)" xlink:href="#linear-gradient-18"/><linearGradient id="linear-gradient-29" x1="3801.97" y1="1774.42" x2="3834.35" y2="1707.27" gradientTransform="matrix(0.99, 0.12, -0.12, 0.99, -2178.02, -89.7)" xlink:href="#linear-gradient-8"/><linearGradient id="linear-gradient-30" x1="3844.65" y1="1875.51" x2="3812.01" y2="1928.31" xlink:href="#linear-gradient-18"/><linearGradient id="linear-gradient-31" x1="3320.13" y1="2735.19" x2="3694.26" y2="1935.76" xlink:href="#linear-gradient-24"/><linearGradient id="linear-gradient-32" x1="776.16" y1="2380.71" x2="923.65" y2="2014.37" xlink:href="#linear-gradient-6"/><linearGradient id="linear-gradient-33" x1="954.47" y1="665.69" x2="1029.97" y2="1348.2" gradientTransform="matrix(1, 0, 0, 1, 0, 0)" xlink:href="#linear-gradient-21"/><linearGradient id="linear-gradient-34" x1="1231.87" y1="1204.31" x2="1526.42" y2="1799.25" gradientTransform="matrix(1, 0, 0, 1, 0, 0)" xlink:href="#linear-gradient-21"/><linearGradient id="linear-gradient-35" x1="768.01" y1="954.71" x2="1199.81" y2="1509.88" gradientTransform="matrix(1, 0, 0, 1, 0, 0)" xlink:href="#linear-gradient-21"/><linearGradient id="linear-gradient-36" x1="1612.22" y1="568.19" x2="1324.63" y2="969.24" gradientTransform="matrix(1, 0, 0, 1, 0, 0)" xlink:href="#linear-gradient-21"/><linearGradient id="linear-gradient-37" x1="978.73" y1="666.16" x2="1053.53" y2="1342.36" gradientTransform="matrix(1, 0, 0, 1, 0, 0)" xlink:href="#linear-gradient-18"/><linearGradient id="linear-gradient-38" x1="1256.08" y1="1204.31" x2="1550.63" y2="1799.25" xlink:href="#linear-gradient"/><linearGradient id="linear-gradient-39" x1="792.31" y1="954.82" x2="1208.82" y2="1490.34" xlink:href="#linear-gradient-8"/><linearGradient id="linear-gradient-40" x1="1680.09" y1="504.61" x2="1364.54" y2="944.64" xlink:href="#linear-gradient-11"/><linearGradient id="linear-gradient-41" x1="1115.49" y1="1278.64" x2="1403.76" y2="1860.89" xlink:href="#linear-gradient"/><linearGradient id="linear-gradient-42" x1="944.13" y1="670.67" x2="1018.78" y2="1345.46" gradientTransform="matrix(1, 0, 0, 1, 0, 0)" xlink:href="#linear-gradient-18"/><linearGradient id="linear-gradient-43" x1="4991.34" y1="3695.22" x2="5032.39" y2="3731.74" gradientTransform="translate(-2711.92 206.94) rotate(-8.05)" xlink:href="#linear-gradient-6"/><linearGradient id="linear-gradient-44" x1="4806.11" y1="3491.08" x2="4806.11" y2="3419.56" gradientTransform="translate(-1835.48 -528.79) rotate(2.85)" xlink:href="#linear-gradient-18"/><linearGradient id="linear-gradient-45" x1="4995.47" y1="3690.59" x2="5036.52" y2="3727.1" gradientTransform="translate(-2711.92 206.94) rotate(-8.05)" xlink:href="#linear-gradient-6"/><linearGradient id="linear-gradient-46" x1="5086.69" y1="3212.41" x2="5127.75" y2="3248.93" gradientTransform="translate(-2609.08)" xlink:href="#linear-gradient-6"/><linearGradient id="linear-gradient-47" x1="4886.73" y1="2947.17" x2="4886.73" y2="2875.65" gradientTransform="translate(-1708.86 -582.01) rotate(11.1)" xlink:href="#linear-gradient-18"/><linearGradient id="linear-gradient-48" x1="5090.82" y1="3207.77" x2="5131.88" y2="3244.29" gradientTransform="translate(-2609.08)" xlink:href="#linear-gradient-6"/><linearGradient id="linear-gradient-49" x1="2700.8" y1="2817.22" x2="2870.45" y2="2817.22" gradientUnits="userSpaceOnUse"><stop offset="0" stop-color="#311944"/><stop offset="1" stop-color="#6b3976"/></linearGradient><linearGradient id="linear-gradient-50" x1="2700.8" y1="2817.22" x2="2856.63" y2="2817.22" xlink:href="#linear-gradient-49"/><linearGradient id="linear-gradient-51" x1="3014.63" y1="2933.33" x2="2547.93" y2="2849.11" gradientUnits="userSpaceOnUse"><stop offset="0" stop-color="#311944"/><stop offset="0.74" stop-color="#5c3169"/><stop offset="1" stop-color="#6b3976"/></linearGradient><linearGradient id="linear-gradient-52" x1="2334.42" y1="1711.76" x2="2641.56" y2="3278.17" gradientTransform="matrix(1, 0, 0, 1, 0, 0)" xlink:href="#linear-gradient-18"/><linearGradient id="linear-gradient-53" x1="2302.71" y1="2141.03" x2="2460.54" y2="2394.57" gradientTransform="matrix(1, 0, 0, 1, 0, 0)" xlink:href="#linear-gradient-18"/><linearGradient id="linear-gradient-54" x1="2450.13" y1="2276.39" x2="2923.45" y2="2276.39" xlink:href="#linear-gradient-11"/><linearGradient id="linear-gradient-55" x1="5920.65" y1="1311.12" x2="6101.69" y2="1538.89" gradientTransform="translate(-2744.34 -923.84) rotate(14.93)" xlink:href="#linear-gradient-18"/><linearGradient id="linear-gradient-56" x1="2718.83" y1="2082.07" x2="2693.6" y2="1850.47" xlink:href="#linear-gradient-49"/><linearGradient id="linear-gradient-57" x1="5898.14" y1="1260.44" x2="6100.28" y2="1514.76" gradientTransform="translate(-2744.34 -923.84) rotate(14.93)" xlink:href="#linear-gradient-18"/><linearGradient id="linear-gradient-58" x1="2440" y1="2235.58" x2="2730.23" y2="2512.71" xlink:href="#linear-gradient-11"/><linearGradient id="linear-gradient-59" x1="2312.46" y1="2164.28" x2="2571.18" y2="2164.28" xlink:href="#linear-gradient-11"/><linearGradient id="linear-gradient-60" x1="2109.39" y1="2257.86" x2="1658.77" y2="3664.08" gradientTransform="matrix(1, 0, 0, 1, 0, 0)" xlink:href="#linear-gradient-21"/><linearGradient id="linear-gradient-61" x1="2023.8" y1="2455.72" x2="1573.43" y2="3191.98" xlink:href="#linear-gradient-11"/><linearGradient id="linear-gradient-62" x1="1569.19" y1="2899.24" x2="1644.62" y2="2899.24" xlink:href="#linear-gradient-11"/><linearGradient id="linear-gradient-63" x1="1649.83" y1="2867.23" x2="1547.72" y2="3185.9" xlink:href="#linear-gradient-11"/><linearGradient id="linear-gradient-64" x1="1673.87" y1="2895.2" x2="1747.96" y2="2895.2" xlink:href="#linear-gradient-11"/><linearGradient id="linear-gradient-65" x1="1734.97" y1="2967.41" x2="1677.78" y2="3145.91" xlink:href="#linear-gradient-11"/><linearGradient id="linear-gradient-66" x1="1776.7" y1="2891.22" x2="1849.5" y2="2891.22" xlink:href="#linear-gradient-11"/><linearGradient id="linear-gradient-67" x1="1828.21" y1="3011.82" x2="1792.3" y2="3123.9" xlink:href="#linear-gradient-11"/><linearGradient id="linear-gradient-68" x1="1877.73" y1="2887.32" x2="1949.27" y2="2887.32" xlink:href="#linear-gradient-11"/><linearGradient id="linear-gradient-69" x1="1978.73" y1="2724.01" x2="1823.55" y2="3208.28" xlink:href="#linear-gradient-11"/><linearGradient id="linear-gradient-70" x1="1977.01" y1="2883.48" x2="2047.32" y2="2883.48" xlink:href="#linear-gradient-11"/><linearGradient id="linear-gradient-71" x1="2070.05" y1="2759.64" x2="1932.35" y2="3189.35" xlink:href="#linear-gradient-11"/><linearGradient id="linear-gradient-72" x1="2074.59" y1="2879.71" x2="2143.69" y2="2879.71" xlink:href="#linear-gradient-11"/><linearGradient id="linear-gradient-73" x1="2178.51" y1="2689.41" x2="2013.48" y2="3204.42" xlink:href="#linear-gradient-11"/><linearGradient id="linear-gradient-74" x1="2170.5" y1="2876" x2="2238.44" y2="2876" xlink:href="#linear-gradient-11"/><linearGradient id="linear-gradient-75" x1="2255.33" y1="2788.09" x2="2134.36" y2="3165.59" xlink:href="#linear-gradient-11"/><linearGradient id="linear-gradient-76" x1="2264.8" y1="2872.35" x2="2331.59" y2="2872.35" xlink:href="#linear-gradient-11"/><linearGradient id="linear-gradient-77" x1="2328.88" y1="2896.19" x2="2255.92" y2="3123.87" xlink:href="#linear-gradient-11"/></defs><title>Chatbot</title><g style="isolation:isolate"><g id="Background"><rect width="3710" height="3710" style="fill:#fff"/></g><g id="Illustration"><path d="M2357.75,514.29c-210.07-46.87-428.47-69.33-642-55C1526.47,472,1311.93,506.6,1159.62,630.67,1087,689.8,1000.48,796,976.74,889.77c0,0-125,493.34-374.91,599.06s-423.51,1910,1471.86,1733.76c0,0,1113.24-46.17,1180.27-1376.06,16.19-321.26,7.15-674.43-186.84-943.06-148.64-205.85-356.91-297.38-596.24-361.42Q2414.81,527,2357.75,514.29Z" style="fill:#f4f7fa"/><path d="M1477.32,2913.7c190.31-147.06,210.17-451.65,114.61-531.35-49.7-41.46-110.06-4.92-155.63-55-50.48-55.46-1.34-127.72-12.9-283.62-6-80.55-16.81-226.62-103.3-276.4-85.78-49.36-160.44,45.19-255.67-2.82-90-45.4-57.5-147.19-168.32-238.13-10.3-8.46-127.44-102.24-218.38-61.71-92.4,41.17-125.13,206.42-74.54,309,46,93.16,147.18,107.18,142.51,162.61-5.15,61.08-129.76,64.06-141.07,126.31-16.35,90,232.07,149.36,240.75,290.81,5.11,83.17-78.5,99.92-94.92,205.44-21.2,136.19,92,275.5,189.43,344.22C1081,3002.65,1312.37,3041.17,1477.32,2913.7Z" style="fill:url(#linear-gradient)"/><g style="clip-path:url(#clip-path)"><g style="opacity:0.7000000000000001;mix-blend-mode:soft-light"><path d="M1381.16,3048.12l7.33-2.1c-81.17-283.8-173.6-546.73-274.72-781.48-80.92-187.85-167.56-358.19-257.52-506.29-153.29-252.37-264.69-354-265.79-355l-5.11,5.66c1.1,1,111.9,102.19,264.67,353.81C991,1994.93,1197.65,2406.47,1381.16,3048.12Z" style="fill:#fff"/><path d="M870.1,1783c35.65-233.57-45.71-421-46.54-422.84l-7,3.09c.82,1.84,81.27,187.32,46,418.6Z" style="fill:#fff"/><path d="M1128.94,2297.9C1245,2068.16,1276.26,1906.66,1282,1811.63c6.28-103.51-14.85-151.87-15.75-153.87l-7,3.12c.21.48,21.36,49.18,15,151.14-5.84,94.2-37,254.37-152.22,482.44Z" style="fill:#fff"/><path d="M1314,2806.82c288-345.75,291.58-611,291.58-613.68h-7.62c0,.66-1.13,69.43-39.43,181.2-33.72,98.43-104.53,252.51-250.38,427.61Z" style="fill:#fff"/><path d="M1014.31,2227.23a695.36,695.36,0,0,0,80.23,6.72l.19-7.62c-178.54-4.49-334.12-80.45-433.18-143.39-107.39-68.22-173.27-136.18-173.92-136.85l-5.5,5.28c.66.69,67.17,69.3,175.33,138C742.2,2143.22,868,2206.51,1014.31,2227.23Z" style="fill:#fff"/><path d="M1235.85,2709.32q21.17,3,43.13,4.54l.52-7.6c-185.75-12.87-328.1-109.8-414.81-188.86-94-85.73-144.64-169.37-145.14-170.2l-6.54,3.92c.5.84,51.7,85.44,146.54,171.91C940.33,2596.68,1069,2685.69,1235.85,2709.32Z" style="fill:#fff"/></g></g><path d="M2338.53,2825.94c-240.35-118.84-329.09-447.35-242.2-555.48,45.2-56.24,119.21-29.59,158-94.32,43-71.71-26.65-139.87-48.32-312.8-11.2-89.34-31.51-251.36,52.06-324.8,82.88-72.82,185.29,14.07,278.79-59.35,88.42-69.43,30.45-173.52,131.54-297.29,9.41-11.52,116.78-139.79,225.09-115.51,110,24.65,182.18,198,149.46,321.25-29.72,111.92-137.26,149.52-120,209.07,19.07,65.63,155.91,41.46,182,107,37.68,94.72-220.74,214.31-199.1,370.8,12.72,92,130.52,99.67,113.05,217.44-28.15,189.82-66,235.33-157.32,331.87C2729.26,2763.72,2546.86,2928.94,2338.53,2825.94Z" style="fill:url(#linear-gradient-2)"/><g style="clip-path:url(#clip-path-2)"><g style="opacity:0.7000000000000001;mix-blend-mode:soft-light"><path d="M2473.2,2951.68l-8.47-.68c26.25-328,69.39-635.72,128.25-914.53,47.09-223.11,104.29-428.33,170-610C2875,1116.93,2974.33,981.3,2975.32,980l6.83,5.07c-1,1.32-99.81,136.31-211.39,444.92C2667.77,1714.81,2532.54,2210.05,2473.2,2951.68Z" style="fill:#fff"/><path d="M2753.29,1456.54c-90.37-247.41-42.7-470.12-42.21-472.34l8.3,1.83c-.49,2.2-47.59,222.61,41.89,467.6Z" style="fill:#fff"/><path d="M2583.73,2076.27c-177.41-225.53-247.1-395.15-274.32-497.74-29.64-111.75-17.19-169.24-16.65-171.63l8.29,1.88c-.13.57-12.52,58.45,16.82,168.48,27.12,101.67,96.41,269.86,272.54,493.75Z" style="fill:#fff"/><path d="M2493.53,2673.18c-390.85-314.47-453.15-603.62-453.73-606.51l8.33-1.68c.15.72,16.52,75.63,83,189.36,58.52,100.14,169.82,253,367.75,412.21Z" style="fill:#fff"/><path d="M2693.46,1973.8a775.41,775.41,0,0,1-86.2,25l-1.88-8.28c194.13-44.2,347.43-161.46,441.85-252,102.35-98.2,159.39-187,159.95-187.84l7.17,4.56c-.57.9-58.16,90.52-161.24,189.42C2972.35,1822.1,2848.79,1919,2693.46,1973.8Z" style="fill:#fff"/><path d="M2557.45,2549.43q-22.47,7.93-46.13,14.46l-2.25-8.2c200.17-54.94,334.4-192.21,411.77-297.69,83.89-114.38,120.8-216.93,121.16-218l8,2.84c-.36,1-37.69,104.76-122.32,220.13C2855.62,2361.29,2734.63,2486.88,2557.45,2549.43Z" style="fill:#fff"/></g></g><path d="M2609,2925.31c0,44.31-31.44,82.2-70.2,84.46l-1495.45,87.28c-44.41,2.6-80.67-34.06-80.67-81.72V870.12c0-47.66,36.26-85,80.67-83.16l1495.45,60.6c38.76,1.57,70.2,38.9,70.2,83.21Z" style="fill:url(#linear-gradient-5)"/><path d="M2652.87,2925.31c0,44.31-31.44,82.2-70.21,84.46l-1495.44,87.28c-44.42,2.6-80.67-34.06-80.67-81.72V870.12c0-47.66,36.25-85,80.67-83.16l1495.44,60.6c38.77,1.57,70.21,38.9,70.21,83.21Z" style="fill:url(#linear-gradient-6)"/><path d="M1044.17,871.51V3013.28c0,25.47,19.29,45,43,43.68L2270,2990l312.71-17.72c20.77-1.18,37.58-21.39,37.58-45.14V929.56c0-23.75-16.81-43.66-37.58-44.47l-324-12.57L1087.22,827.05C1063.46,826.13,1044.17,846,1044.17,871.51Z" style="fill:url(#linear-gradient-7)"/><path d="M2598.59,928V2834.71c0,8.84-6.62,16.41-15.33,16.86l-153.14,7.84-1344.24,68.72c-9.94.52-17.94-6.77-17.94-16.2V871.56c0-9.46,8.11-16.86,18-16.48l15.93.58,1481.34,55.73C2592,911.73,2598.59,919.19,2598.59,928Z" style="fill:url(#linear-gradient-8)"/><path d="M2430.35,2859.41,1086,2928.13c-9.94.52-18-6.77-18-16.2V871.56c0-9.46,8.11-16.86,18-16.48l15.93.58c46,62.68,141.44,134.91,334.06,196.79,454,145.81-60.71,782.14,513.13,986.8C2416.28,2205.87,2178.05,2643.47,2430.35,2859.41Z" style="opacity:0.30000000000000004;mix-blend-mode:multiply;fill:url(#linear-gradient-9)"/><path d="M2010.7,2967.51l-304.12,16.72c-16.26.9-29.46-10.38-29.46-25.18v-1.11c0-14.8,13.2-27.5,29.46-28.35l304.12-16c15.81-.83,28.6,10.31,28.6,24.88v1.09C2039.3,2954.13,2026.51,2966.64,2010.7,2967.51Z" style="fill:url(#linear-gradient-10)"/><path d="M1875.23,857.64c0,7.87-7,14-15.56,13.66s-15.59-7-15.59-14.87,7-14,15.59-13.67S1875.23,849.76,1875.23,857.64Z" style="fill:url(#linear-gradient-11)"/><ellipse cx="2335.17" cy="1688.7" rx="117.85" ry="165.62" style="fill:#d8dee8"/><path d="M1975,1287.38H1753.16c-227.43,0-411.81,184.38-411.81,411.81h0c0,121.36,98.38,219.75,219.75,219.75h606c121.36,0,219.74-98.39,219.74-219.75h0C2386.79,1471.76,2202.42,1287.38,1975,1287.38Z" style="fill:#fff"/><path d="M1936,2369.25h-143.9c-147.56,0-267.17-119.61-267.17-267.17h0a142.56,142.56,0,0,1,142.56-142.57h393.12a142.57,142.57,0,0,1,142.57,142.57h0C2203.2,2249.64,2083.58,2369.25,1936,2369.25Z" style="fill:#fff"/><path d="M2176.32,1830.12H1754.68c-57.14,0-104-43.8-104-97.83v-82.85c0-54,46.88-96.32,104-94.5l421.64,13.45c51,1.63,91.93,43.63,91.93,93.84v77C2268.25,1789.42,2227.35,1830.12,2176.32,1830.12Z" style="fill:url(#linear-gradient-12)"/><path d="M1889.77,1686.47c0,36.08-30.71,64.94-68.91,64.46-38.54-.48-70-30.61-70-67.28s31.5-65.52,70-64.44C1859.06,1620.28,1889.77,1650.39,1889.77,1686.47Z" style="fill:#fff"/><path d="M2174.71,1692.26c0,34.87-28.68,62.78-64.34,62.33-36-.46-65.37-29.54-65.37-65s29.39-63.31,65.37-62.31C2146,1628.32,2174.71,1657.39,2174.71,1692.26Z" style="fill:#fff"/><path d="M2017.08,1861.18c-62.71-73.68-34.84-132.6-116.82-232.44-112.8-137.38-244.39-121.84-274.53-215-8.35-25.81-9.31-61.25,13.09-110.24-171.81,49.56-297.47,208-297.47,395.71h0c0,121.36,98.38,219.75,219.75,219.75h528.07C2057.54,1901.7,2034.43,1881.56,2017.08,1861.18Z" style="fill:#fff;opacity:0.30000000000000004;mix-blend-mode:soft-light"/><ellipse cx="1400.61" cy="1687.54" rx="117.85" ry="165.62" style="fill:#d8dee8"/><ellipse cx="1307.38" cy="1687.54" rx="51.53" ry="72.42" style="fill:#bfc8d6"/><path d="M1971.46,2222.17c-19.74-92.72-238.13-90.49-244.06-151.09-4.58-46.72,120.8-93,136.56-98.79,13.47-5,26.85-9.18,40.09-12.78H1667.51A142.56,142.56,0,0,0,1525,2102.08h0c0,147.56,119.61,267.17,267.17,267.17H1936a269.91,269.91,0,0,0,40.67-3.07c-12.52-15.52-20.69-32.5-22.66-51C1949.65,2274.07,1979.11,2258.1,1971.46,2222.17Z" style="fill:#d8dee8;opacity:0.4;mix-blend-mode:multiply"/><ellipse cx="1867.62" cy="1967.45" rx="227.28" ry="27.52" style="fill:#d8dee8"/><path d="M2774.61,590.44l-555-12.05c-39.57-.47-71.49,31.56-71.26,71.53l2.89,498.11c.23,39.62,32.36,71.78,71.72,71.87l29.93.07.61,122.52c.09,18.34,22.15,27.3,40.27,7L2407,1220.31l368-1.48c35.11.07,63.54-30.13,63.53-67.48l-.07-491.89C2838.49,621.78,2809.91,590.87,2774.61,590.44Z" style="fill:url(#linear-gradient-13)"/><path d="M2793,1205.36,2240,1206.8c-39.43-.06-71.62-32.24-71.84-71.9l-2.82-498.65c-.23-40,31.76-72.1,71.41-71.65l556,11.67c35.36.41,64,31.34,64,69.06v492.43C2856.69,1175.16,2828.21,1205.41,2793,1205.36Z" style="fill:url(#linear-gradient-14)"/><path d="M2188.55,1148l-2.88-524.78a37.68,37.68,0,0,1,38-38.18l580.67,10.81c18.84.21,34.1,16.69,34.11,36.79l.07,517.38c0,19.94-15.18,36.06-33.93,36l-577.81.27A38.5,38.5,0,0,1,2188.55,1148Z" style="fill:url(#linear-gradient-15)"/><path d="M2270.53,1329.5l-.71-147.92,176.56.35-141.05,160.78C2293.27,1356.45,2270.62,1347.86,2270.53,1329.5Z" style="fill:url(#linear-gradient-16)"/><path d="M2413.59,890.56c.08,22.52-19.08,40.76-42.84,40.75s-43.18-18.32-43.28-40.9,19.15-40.85,43-40.78S2413.51,868,2413.59,890.56Z" style="fill:#fff"/><path d="M2559.78,890.81c.06,22.42-19,40.58-42.5,40.57s-42.77-18.24-42.84-40.72,19-40.66,42.61-40.59S2559.73,868.38,2559.78,890.81Z" style="fill:#fff"/><path d="M2704.66,891.06c0,22.32-18.84,40.4-42.17,40.38s-42.36-18.15-42.4-40.52,18.89-40.49,42.27-40.42S2704.63,868.74,2704.66,891.06Z" style="fill:#fff"/><path d="M975.3,3166.51c-7.31,11.66-6.17,17.11-4.91,19.59,3.68,7.27,14.93,1.94,42.21,8.1a46.76,46.76,0,0,0,17.2,1.2c6.77-.87,14.93-3.58,14.78-5.38,0-.66-1.2-1-1.63-1.18-7.5-2.43-53.94-22.17-53.94-22.17Z" style="fill:url(#linear-gradient-17)"/><path d="M974.44,3139.13l1.41,27.9s10.92,9.57,15.08-.22c3-7,5-26.68,5-26.68Z" style="fill:url(#linear-gradient-18)"/><polygon points="1112.27 3167.28 1097.39 3197.68 1080.84 3193.24 1087.8 3164.38 1112.27 3167.28" style="fill:url(#linear-gradient-19)"/><path d="M1090.33,3214.54c-7.14-10.51-14.5-10.39-15.27-17.19-.61-5.34,3.26-11.4,8.33-13.33,7.13-2.71,14.78,3.49,16.51,4.88,11.74,9.51,7,22,18.27,28.75,2.27,1.37,5.94,2.95,9.54,7.11,1.53,1.76,5.32,6.14,4,8.74-1.47,3-8.94,2.13-16,1.28-8.53-1-12.8-1.52-16.64-4.51C1093.75,3226.12,1095.84,3222.66,1090.33,3214.54Z" style="fill:url(#linear-gradient-20)"/><path d="M953.06,2473a910.71,910.71,0,0,0,5.64,165.19c6.19,49,11.43,57.78,11.85,91.33.91,73-23.3,81.43-34.37,162.94-12.22,90,5.86,163.84,13,192a518.76,518.76,0,0,0,18.7,58.69c7.69,7.91,20.59,6.19,34.18,4.58,11.72-81.59,24.25-158.24,36-239.82q39.15-183,78.29-366.08Z" style="fill:url(#linear-gradient-21)"/><path d="M1002.1,3147.75c11.72-81.59,24.25-158.24,36-239.82q39.15-183,78.29-366.08L953.06,2473c-.24,4.25-.36,8.35-.54,12.53,72.85,74.68,83.74,130,79.92,166.73-4.63,44.6-30.9,64.72-31.5,129.89-.42,46.6,12.82,55.92,9.35,97.71-4.47,53.82-30.07,82.16-43.9,112.33-13.36,29.15-20.76,71.41-4.78,133.7,2.24,6.48,4.39,12.29,6.31,17.29C975.61,3151.08,988.51,3149.36,1002.1,3147.75Z" style="opacity:0.30000000000000004;mix-blend-mode:multiply;fill:url(#linear-gradient-22)"/><path d="M1047,2542.89c35.38,72.87,53.69,129.43,63.3,164.22,5.86,21.22,10.94,43.24,10.21,71.51a221,221,0,0,1-17.55,80,425,425,0,0,0-28.08,79.16c-24.13,97.95-7.76,182.94,6.47,232.22l28.91,13.52A1649.66,1649.66,0,0,0,1202,2926.72c15.81-59.31,28-105.84,33-165.81,5.33-63.25,4.62-164.06-37.23-287.9Z" style="fill:url(#linear-gradient-23)"/><path d="M1115.38,1997.21c62.34,16.11,109.54,31.4,128.29,66.3,19.81,36.87-18.47,60.21-34.65,136.15-24.76,116.26,39.16,165.76,9.91,282.47a306.79,306.79,0,0,1-36.81,86.58c-21.82,15-56.19,35-101.53,46.79-66,17.11-96.53,1.45-183.21-.77-141.78-3.63-166.3,35.54-228,5.09-62.32-30.77-103.26-103.37-87.16-131.61,9.64-16.91,34.55-3.79,73.36-22.31,50-23.87,45.16-62.52,86.58-91.9,59.49-42.19,109.07,9.51,160-27.24,51.53-37.19,65.57-136.82,50.06-198.12-10.13-40-6.87-82.39-13.48-123.15a25.9,25.9,0,0,1,1.81-14.57c9.78-22.3,52.16-23.22,84.16-23.63C1073.56,1986.68,1110.26,1995.89,1115.38,1997.21Z" style="fill:url(#linear-gradient-24)"/><path d="M680.51,2575.87c20.61-11.4,13.09-49.18,43.65-66.38,28.37-16,47.34,9.56,87.93.71,52.06-11.36,53.45-60.45,103.4-72,35.91-8.32,44.61,14.89,95,20s118-10.18,164.29-60.11a180.26,180.26,0,0,0,38.84-66.54c9.87,44.64,21,87.92,5.31,150.56a306.79,306.79,0,0,1-36.81,86.58c-21.82,15-56.19,35-101.53,46.79-66,17.11-96.53,1.45-183.21-.77-141.78-3.63-166.3,35.54-228,5.09-39.83-19.67-70.84-56.39-83.89-87.72C637.93,2577.29,665.55,2584.15,680.51,2575.87Z" style="opacity:0.30000000000000004;mix-blend-mode:multiply;fill:url(#linear-gradient-25)"/><path d="M1161,1890.8s14.71,34.16,13.91,57.21-26.57,19.22-26.57,19.22l-.23,14.57a31.49,31.49,0,0,0,18.22,29l9.91,4.61s-67.9,8.75-102.2-20l10.58-.16a31.48,31.48,0,0,0,30.49-25.71l1.15-6.15S1110.6,1890.92,1161,1890.8Z" style="fill:url(#linear-gradient-26)"/><path d="M1229,2263.67l101.53-175.13a5.67,5.67,0,0,1,6.2-2.68l142,33.19a5.68,5.68,0,0,1,3.52,8.55L1364.51,2316a5.69,5.69,0,0,1-6.74,2.33l-124.85-45.09Z" style="fill:url(#linear-gradient-27)"/><path d="M1254,2243.79l82.2-141.8a4.61,4.61,0,0,1,5-2.17l115,26.88a4.59,4.59,0,0,1,2.85,6.91l-95.39,152.53a4.59,4.59,0,0,1-5.46,1.89l-101.08-36.51Z" style="fill:url(#linear-gradient-28)"/><path d="M1360.46,2103.62l6.53-11.37a4.16,4.16,0,0,1,4.51-2l59.17,13.3a4.16,4.16,0,0,1,2.67,6.16l-7.26,12.37a4.15,4.15,0,0,1-4.57,1.93l-58.43-14.3A4.15,4.15,0,0,1,1360.46,2103.62Z" style="fill:url(#linear-gradient-29)"/><path d="M1438,2152.38l-.27-.05-104.15-24.58a2.4,2.4,0,0,1-1.79-2.88,2.43,2.43,0,0,1,2.89-1.78l104.15,24.58a2.4,2.4,0,0,1-.83,4.71Z" style="fill:#fff"/><path d="M1431.42,2162.48l-.3-.06-103.51-25.55a2.4,2.4,0,0,1,1.15-4.66l103.51,25.55a2.4,2.4,0,0,1-.85,4.72Z" style="fill:#fff"/><path d="M1376.82,2173.71a2.29,2.29,0,0,1-.36-.07l-56.28-15.53a2.4,2.4,0,1,1,1.27-4.62l56.28,15.53a2.4,2.4,0,0,1-.91,4.69Z" style="fill:#fff"/><path d="M1393.34,2269.87s25.13-13.5,29-24.46,5.44-32.2,5.44-32.2L1411,2241.6s-6.41-2.59-8.23-12.71-7.57-1.63-6.41,6S1393.34,2269.87,1393.34,2269.87Z" style="fill:url(#linear-gradient-30)"/><path d="M1233.61,2051.25a175.62,175.62,0,0,1,43.18,47.15c40.62,65.72,15.53,128.59,52,155.57,10.42,7.71,29.38,15.07,65.9,6.3l12.75,8.59s7.72,85.58-94.44,78.07-139.67-139.4-139.67-139.4Z" style="fill:url(#linear-gradient-31)"/><path d="M1147.86,1922.47c-3.43-.57-5.91-5.18-8.38-4.08s-2.84,7.55-1.06,12.21a16.14,16.14,0,0,0,5.69,7.22,42.63,42.63,0,0,0-8.87,16.3c-4.5,16.32,3.21,30.39,6.23,38.5,13.61,36.55-16.71,90.05-47.25,115.8-24.82,20.93-34.76,10.86-50,28.38-29.65,34.08,3.82,77-14,124.74C1003.1,2334.09,884,2346.46,879,2346.91c-1.95.18-3.25.29-5.27.44-53.31,4-134.12,10.06-186.7-37.79-39.35-35.79-54-93.63-46.67-142.9,1.92-13,10-62.09,53.61-99.12,6.93-5.87,48-40.59,99.17-36.8,27.13,2,31.81,12,53,7.82,29.06-5.74,48.68-30.09,60.85-45.2,22.4-27.79,14.81-34.75,30.36-48,30.48-26,61.63-1,93.75-23.57,31.66-22.23,16.57-57.2,46.93-76.19,31.31-19.59,87.08-7.22,96.93,20C1183.49,1889,1158.36,1924.22,1147.86,1922.47Z" style="fill:url(#linear-gradient-32)"/><path d="M1016.93,986.61l24.54-.13S1100.25,912.11,1140,908l3.68-209.51C991.52,699,857.25,784.71,796.1,911.41Z" style="fill:url(#linear-gradient-33)"/><path d="M1310.43,1079.47c-12.48,68.84-75.19,123-152,125.35-18.91.59-41-10.75-41-10.75s-20.23,1.12-23.69-.23L973.83,1379.51c55.74,25.17,118.71,37.49,184.58,33.71,191.56-11,342.16-155.2,358.88-328.8Z" style="fill:url(#linear-gradient-34)"/><path d="M936.3,1360l24,.83,97-187.06c-36.2-26.8-59.47-68.51-59.47-115.82a142.23,142.23,0,0,1,3.95-33.3L804.17,950l-24,.28a341.42,341.42,0,0,0-18.34,110.51C761.79,1188.22,831.69,1297.9,936.3,1360Z" style="fill:url(#linear-gradient-35)"/><path d="M1181.91,908.92c70,10.41,123.76,64.62,130.15,131.63l338.28,9.8v-.43c0-.25,51-8.2,51-8.23,0-2.32-462.12-488.06-462.12-488.06L1188,562.05Z" style="fill:url(#linear-gradient-36)"/><path d="M1041.14,986.61c24.5-42.86,70.08-73.13,123-78.61l3.68-209.51c-152.14.51-286.41,86.22-347.56,212.92Z" style="fill:url(#linear-gradient-37)"/><path d="M1334.63,1079.47c-12.47,68.84-75.18,123-152,125.35a163.78,163.78,0,0,1-64.66-11L998,1379.51c55.74,25.17,118.71,37.49,184.58,33.71,191.55-11,342.15-155.2,358.88-328.8Z" style="fill:url(#linear-gradient-38)"/><path d="M960.5,1360l121-186.23c-36.21-26.8-59.47-68.51-59.47-115.82a142.23,142.23,0,0,1,4-33.3L804.33,950.32A341.68,341.68,0,0,0,786,1060.83C786,1188.22,855.9,1297.9,960.5,1360Z" style="fill:url(#linear-gradient-39)"/><path d="M1232.91,900.08c70,10.41,123.76,64.63,130.15,131.64l338.28,9.8v-.43c0-248.16-197.73-460.54-462.37-487.88Z" style="fill:url(#linear-gradient-40)"/><g style="opacity:0.30000000000000004;mix-blend-mode:multiply"><path d="M1136.37,1199.75a161.9,161.9,0,0,1-18.41-5.91L998,1379.51c55.74,25.17,118.71,37.49,184.58,33.71a396.9,396.9,0,0,0,148.17-37.8c-45.32-6.87-85.79-24.06-118.11-52.71C1175.87,1290.08,1152,1244.68,1136.37,1199.75Z" style="fill:url(#linear-gradient-41)"/></g><g style="opacity:0.30000000000000004;mix-blend-mode:multiply"><path d="M1096.11,781.65c-14.24-26.27-34.6-46.17-57.45-61.38-96.15,33.17-175.34,102-218.36,191.14l220.84,75.2a157.15,157.15,0,0,1,67.39-62.67C1114.29,868.19,1120.82,827.21,1096.11,781.65Z" style="fill:url(#linear-gradient-42)"/></g><path d="M2759.38,3185.74c1.17-6.44,21.95-12.27,32.24-3.64,5.11,4.28,8.63,13,5.67,16.87-1.07,1.43,3.33,3.93-.89,4C2782.4,3203.12,2758.21,3192.13,2759.38,3185.74Z" style="fill:url(#linear-gradient-43)"/><path d="M2782.1,3185.77l21.57,1.08c-7.47-13.58,1.51-50.52,1.51-50.52l-23.28.68s.57,10.72,2,26.65C2784.37,3169.12,2783.48,3177.33,2782.1,3185.77Z" style="fill:url(#linear-gradient-44)"/><path d="M2779.27,3185.45s25.73-5.93,28.52-.83,4.94,18.77-11.39,18.33S2777.82,3189.77,2779.27,3185.45Z" style="fill:url(#linear-gradient-45)"/><path d="M2486.44,3232.42c2.06-6.21,23.46-9.07,32.44.91,4.46,5,6.73,14,3.25,17.5-1.26,1.26,2.75,4.36-1.44,3.82C2506.81,3252.85,2484.4,3238.59,2486.44,3232.42Z" style="fill:url(#linear-gradient-46)"/><path d="M2511.73,3238.4l21.18,4.16c-5.44-14.52,8.74-49.78,8.74-49.78l-23.14-2.67s-1,10.7-1.85,26.67C2516.36,3222.24,2514.3,3230.25,2511.73,3238.4Z" style="fill:url(#linear-gradient-47)"/><path d="M2506.18,3234.92s26.31-2.27,28.35,3.17,2.27,19.28-13.84,16.56S2504.14,3239,2506.18,3234.92Z" style="fill:url(#linear-gradient-48)"/><path d="M2700.8,2492.76q8.65,148,24.73,307.4c12.61,123,27.92,240.51,45.1,352.2,21.17,7.25,40.73,0,40.73,0s24.76-40.55,43.65-148.3c12.12-69.14,12.95-68.26,13.09-80.32.68-60.85-20.66-78.47-24.73-132.85-3.77-50.32,12.25-65.39,21.82-122,7.36-43.56,10.12-107-13.09-190Z" style="fill:url(#linear-gradient-49)"/><path d="M2700.8,2492.76q8.65,148,24.73,307.4c12.61,123,27.92,240.51,45.1,352.2,21.17,7.25,40.73,0,40.73,0-.27-10.34-1-25.92-3.15-44.74-5.72-49.91-14.85-64.11-15.79-94.74-1.19-39.17,13-40.38,15.79-79,4.35-59.79-28.48-74-31.58-126.32-3.27-55.32,31.36-73.52,57.9-142.11,15.67-40.5,29.57-101.29,17.57-186.64Z" style="opacity:0.30000000000000004;mix-blend-mode:multiply;fill:url(#linear-gradient-50)"/><path d="M2594.6,2489.67a2075.63,2075.63,0,0,0-81.46,718.3l27.64,7.72c53.57-56.06,72.7-107.58,80-145.21,10.81-55.66-5.48-74.53,8.73-137.48,3.27-14.48,7.86-30,61.1-134.39,50.8-99.6,61.22-114.07,69.83-149.84,12.28-51.05,9-96.33,4.36-126.66Z" style="fill:url(#linear-gradient-51)"/><path d="M2366.15,2278.63l-90.92-213a18.72,18.72,0,0,1,12.8-25.54l166.54-40.44a18.71,18.71,0,0,1,21.74,11.11l83.63,204.68a18.72,18.72,0,0,1-11.86,25l-159.24,48.73A18.71,18.71,0,0,1,2366.15,2278.63Z" style="fill:#26264f"/><path d="M2370.26,2268.38l-84.92-198.92a17.49,17.49,0,0,1,12-23.86l155.55-37.78a17.51,17.51,0,0,1,20.32,10.38l78.1,191.19a17.49,17.49,0,0,1-11.07,23.34l-148.74,45.51A17.49,17.49,0,0,1,2370.26,2268.38Z" style="fill:url(#linear-gradient-52)"/><path d="M2317.84,2209.91l-2.73-25.1-14.46-27.56a26.21,26.21,0,0,1-3-12.17v-27.37l17.46,40.37s11.45-10.37,15.82-12.55,3.82,6.55.54,9.82,1.64,30-1.63,32.73l1.09,16.37Z" style="fill:url(#linear-gradient-53)"/><path d="M2456.4,2050.06c13.58-33.19,42.72-52.29,57.83-62.19,35.75-23.42,58.64-19.15,140.75-31.64,109.42-16.65,122.52-32.42,159.29-19.64,48.31,16.8,73.54,60.65,85.11,80.74,58.29,101.31-9.87,152.8,7.63,354.6,7.15,82.42,25.47,154-18.55,196.39-9.26,8.92-19.63,13.58-40.36,22.91-82.23,37-156,30.63-200.76,26.19-49.3-4.88-74.22-7.68-87.29-25.1-20.88-27.82.62-63.18,4.37-124.38,2.69-43.93-7.3-78.75-27.28-148.38C2490.69,2157.68,2430.39,2113.67,2456.4,2050.06Z" style="fill:url(#linear-gradient-54)"/><path d="M2639.56,1896.52c-5-17.75,3.72-34.19,5.64-37.73,8-14.82,10.1-16.85,13.94-19.42l5.33-3.29.63-.24c3.42-1.21,15.08-1.57,17.44-1.06,7.55,1.61,15.58,32.35,13.29,75.8q.47,2.49.9,5,1.79,10.31,2.87,20.17c.69,6.29,9.61,6.15,15.93,5.74,25.64-1.63,38.19.55,39.28,4.37,2,7.15-28.37,30.55-65.92,35.81-50.4.37-91.4-5-87-12.93,2-3.52,41-13.72,52-23.84,10.05-9.26,9.23-18.82,10.06-25.66C2660.9,1917.66,2643.22,1909.59,2639.56,1896.52Z" style="fill:url(#linear-gradient-55)"/><path d="M2648.83,1823.74c0,13.46,6.39,27.84,9.62,30.15a22.51,22.51,0,0,1,4.87,5.33,6.37,6.37,0,0,1,.77,1.59c2.95,8.48-10.54,18.47-7.94,22.27,1.89,2.75,11.06-.93,12.15,1.45s-6.59,6.87-5.42,9.55c.88,2,5.57.18,8.52,3.28,1.48,1.54,1,2.77,2.61,7.49a42.1,42.1,0,0,0,3.07,7.22c4.65,7.91,17.83,10.79,20.37,7.63.7-.88.1-1.62.82-4.58a23.64,23.64,0,0,1,2.58-5.91c2.72-4.53,9.3-7.77,15.94-12.55,12.3-8.86,15.64-16.4,16.64-19,.36-.91.58-1.6.74-2.09,3.2-9.92,3.21-24.5-1.25-33.46-7.47-15-24.33-7.89-38.13-22.77-15.92-17.17-6.44-40.63-15.08-43.22C2670.19,1773.31,2648.74,1798.84,2648.83,1823.74Z" style="fill:url(#linear-gradient-56)"/><path d="M2661,1879.91c3.3-4.53,9.1-.27,9.14,5.59s-5.65,12-11.17,10.81S2656.55,1886,2661,1879.91Z" style="fill:url(#linear-gradient-57)"/><path d="M2689.89,2559.59c-14.5-28.88,21-67.26-2.18-111.29-19.72-37.39-55.54-29-72-63.28-19.9-41.39,23.37-72.32,21.82-135.29-1.85-75.28-66.62-150.63-104.74-144-24.67,4.27-27.83,41.07-45.19,81.35,15.36,33.67,33.3,75.85,49.55,132.5,20,69.63,30,104.45,27.28,148.38-3.75,61.2-25.25,96.56-4.37,124.38,13.07,17.42,38,20.22,87.29,25.1,44.8,4.44,118.53,10.81,200.76-26.19,10.4-4.68,18.2-8.19,24.55-11.65C2744.18,2598.87,2701.39,2582.5,2689.89,2559.59Z" style="opacity:0.30000000000000004;mix-blend-mode:multiply;fill:url(#linear-gradient-58)"/><path d="M2312.93,2205l24-10.37c13.52,13.83,30.77,27.28,45.28,22.91,21.63-6.51,16.22-46.29,42.55-116.2,29.84-79.2,63.69-99.56,80.74-106.92,9.52-4.11,16.1-6.84,24-4.91,36.37,8.89,48.4,103.66,38.19,174.57-5.75,40-17,118.29-81.28,155.48-9.13,5.28-59.38,34.36-109.11,11.45C2334.82,2311.45,2308.56,2261.25,2312.93,2205Z" style="fill:url(#linear-gradient-59)"/><path d="M2404.7,2536.55l-951.75,8.1c-16.7.14-30.73,14.5-30.73,32.09v564.91c0,17.58,14.1,31,30.81,30l13.81-.85,16.38-34.15,932.09-57.16c14.1-.87,14.73,19.2,14.73,3.1v-517.1C2430,2549.38,2418.8,2536.43,2404.7,2536.55Z" style="fill:url(#linear-gradient-60)"/><path d="M2443.8,2597.86v484.71c0,14.86-9.37,27.69-22,30.27a18.63,18.63,0,0,1-3.07.45l-951.88,58.34c-16.72,1-30.91-12.39-30.91-30V2612.13Z" style="fill:#fff"/><path d="M2419,2536.55l-951.3,8.1c-16.71.14-30.29,14.5-30.29,32.09V2631l1007.09-15.85v-49.67C2444.45,2549.38,2433,2536.43,2419,2536.55Z" style="fill:url(#linear-gradient-61)"/><path d="M1506.72,2586.52c0,7.77-6,14.15-13.35,14.25s-13.39-6.14-13.39-13.93,6-14.16,13.39-14.24S1506.72,2578.75,1506.72,2586.52Z" style="fill:#fff"/><polygon points="1644.62 3092.4 1569.19 3096.59 1569.19 2703.56 1644.62 2701.89 1644.62 3092.4" style="opacity:0.2;mix-blend-mode:multiply;fill:url(#linear-gradient-62)"/><polygon points="1644.62 3092.4 1569.19 3096.59 1569.19 2909.99 1644.62 2907 1644.62 3092.4" style="fill:url(#linear-gradient-63)"/><polygon points="1747.96 3086.67 1673.87 3090.78 1673.87 2701.25 1747.96 2699.61 1747.96 3086.67" style="opacity:0.2;mix-blend-mode:multiply;fill:url(#linear-gradient-64)"/><polygon points="1747.96 3086.67 1673.87 3090.78 1673.87 2998.31 1747.96 2994.78 1747.96 3086.67" style="fill:url(#linear-gradient-65)"/><polygon points="1849.49 3081.03 1776.7 3085.07 1776.7 2698.97 1849.49 2697.37 1849.49 3081.03" style="opacity:0.2;mix-blend-mode:multiply;fill:url(#linear-gradient-66)"/><polygon points="1849.49 3081.03 1776.7 3085.07 1776.7 3036.95 1849.49 3033.22 1849.49 3081.03" style="fill:url(#linear-gradient-67)"/><polygon points="1949.27 3075.5 1877.73 3079.47 1877.73 2696.74 1949.27 2695.16 1949.27 3075.5" style="opacity:0.2;mix-blend-mode:multiply;fill:url(#linear-gradient-68)"/><polygon points="1949.27 3075.5 1877.73 3079.47 1877.73 2779.65 1949.27 2777.55 1949.27 3075.5" style="fill:url(#linear-gradient-69)"/><polygon points="2047.32 3070.06 1977.01 3073.96 1977.01 2694.55 2047.32 2693 2047.32 3070.06" style="opacity:0.2;mix-blend-mode:multiply;fill:url(#linear-gradient-70)"/><polygon points="2047.32 3070.06 1977.01 3073.96 1977.01 2810.51 2047.32 2808.24 2047.32 3070.06" style="fill:url(#linear-gradient-71)"/><polygon points="2143.69 3064.71 2074.59 3068.54 2074.59 2692.39 2143.69 2690.87 2143.69 3064.71" style="opacity:0.2;mix-blend-mode:multiply;fill:url(#linear-gradient-72)"/><polygon points="2143.69 3064.71 2074.59 3068.54 2074.59 2747.09 2143.69 2745.22 2143.69 3064.71" style="fill:url(#linear-gradient-73)"/><polygon points="2238.44 3059.45 2170.5 3063.22 2170.5 2690.28 2238.44 2688.78 2238.44 3059.45" style="opacity:0.2;mix-blend-mode:multiply;fill:url(#linear-gradient-74)"/><polygon points="2238.44 3059.45 2170.5 3063.22 2170.5 2834.14 2238.44 2831.77 2238.44 3059.45" style="fill:url(#linear-gradient-75)"/><polygon points="2331.59 3054.28 2264.8 3057.99 2264.8 2688.19 2331.59 2686.72 2331.59 3054.28" style="opacity:0.2;mix-blend-mode:multiply;fill:url(#linear-gradient-76)"/><polygon points="2331.59 3054.28 2264.8 3057.99 2264.8 2929.6 2331.59 2926.67 2331.59 3054.28" style="fill:url(#linear-gradient-77)"/><path d="M2422.17,3112.84a20.71,20.71,0,0,1-3.24.45l-952,58.34c-16.71,1-31-12.39-31-30V2638.48c10.32,27.52,36.53,78.49,132.53,87.5a361.74,361.74,0,0,0,56.31.62c6.57-.41,13.24-.65,19.64-.75,10-.21,19.79-.07,29.32.41a375.85,375.85,0,0,1,74.14,10.8c9.93,2.51,19.55,5.43,28.77,8.74a278.22,278.22,0,0,1,72.79,38.28,242.48,242.48,0,0,1,28.25,24.46c37.73,38.14,59.72,86.57,63.16,139a39.45,39.45,0,0,0,8.39,22.49c6.23,7.91,15.69,13.9,27.72,18.51,18.3,7,42.52,10.76,70.31,13,8.77.73,17.89,1.28,27.28,1.76,21.84,1.1,45.19,1.72,69.1,2.51,8.88.31,17.85.62,26.83,1,22.74,1,45.64,2.41,67.93,4.82,8.91,1,17.68,2.06,26.35,3.4,23.74,3.61,46.33,8.67,66.8,16C2374.18,3046.32,2407.48,3071.26,2422.17,3112.84Z" style="fill:#d8dee8;opacity:0.4;mix-blend-mode:multiply"/></g></g></svg>