<?xml version="1.0" encoding="iso-8859-1"?>
<!-- Generator: Adobe Illustrator 19.0.0, SVG Export Plug-In . SVG Version: 6.00 Build 0)  -->
<svg version="1.1" id="Layer_1" xmlns="http://www.w3.org/2000/svg" xmlns:xlink="http://www.w3.org/1999/xlink" x="0px" y="0px"
	 viewBox="0 0 512 512" style="enable-background:new 0 0 512 512;" xml:space="preserve">
<g>
	<g>
		<path d="M501.328,85.336h-128.5C341.266,58.719,300.516,42.664,256,42.664s-85.281,16.055-116.828,42.672H10.656
			C4.766,85.336,0,90.109,0,96v149.336C0,251.227,4.766,256,10.656,256H77.5c8.359,46.945,34.781,87.617,71.828,114.617v88.047
			c0,5.891,4.781,10.672,10.672,10.672h192c5.891,0,10.656-4.781,10.656-10.672v-88.047c37.047-27,63.484-67.672,71.844-114.617
			h66.828c5.891,0,10.672-4.773,10.672-10.664V96C512,90.109,507.219,85.336,501.328,85.336z M21.328,234.664v-128h32.234H192
			v103.102l-42.641-56.875l-40.016,53.328l-23.984-32L40,234.664H21.328z M184,234.664h-53.328h-16l34.672-46.219L184,234.664z
			 M88,234.664H66.672l18.672-24.883l10.672,14.211L88,234.664z M341.328,447.992H170.656v-128h170.672V447.992z M403.438,286.273
			c-8.062,19.047-19.609,36.156-34.297,50.859c-2.109,2.109-4.266,4.141-6.484,6.125v-33.922c0-5.891-4.766-10.672-10.656-10.672
			H160c-5.891,0-10.672,4.781-10.672,10.672v33.922c-2.203-1.984-4.359-4.016-6.469-6.125
			c-14.703-14.703-26.234-31.812-34.297-50.859c-4.156-9.812-7.266-19.922-9.375-30.273h103.469c5.891,0,10.672-4.773,10.672-10.664
			V96c0-5.891-4.781-10.664-10.672-10.664h-26.562c5.672-3.273,11.547-6.203,17.625-8.773C213.438,68.227,234.391,64,256,64
			s42.562,4.227,62.266,12.562c6.078,2.57,11.953,5.5,17.625,8.773h-26.562c-5.891,0-10.672,4.773-10.672,10.664v149.336
			c0,5.891,4.781,10.664,10.672,10.664h103.469C410.703,266.352,407.578,276.461,403.438,286.273z M490.656,234.664H320v-128
			h170.656V234.664z"/>
	</g>
</g>
<g>
	<g>
		<path d="M53.562,106.664c-17.641,0-32,14.359-32,32c0,17.648,14.359,32,32,32s32-14.352,32-32
			C85.562,121.023,71.203,106.664,53.562,106.664z M53.562,149.336c-5.891,0-10.672-4.781-10.672-10.672S47.672,128,53.562,128
			c5.891,0,10.672,4.773,10.672,10.664S59.453,149.336,53.562,149.336z"/>
	</g>
</g>
<g>
	<g>
		<g>
			<path d="M266.688,332.116c0.019,0.01,0.063,0.033,0.119,0.062h0.006L266.688,332.116z"/>
			<path d="M293.328,330.663c-1.766,0-3.438,0.438-4.906,1.203c-10.898,5.643-20.42,0.934-21.615,0.312h-0.01
				c-1.594-0.953-3.469-1.516-5.469-1.516c-5.891,0-10.672,4.781-10.672,10.672v33.828c-3.328-1.172-6.922-1.828-10.656-1.828
				c-17.672,0-32,14.312-32,32c0,17.674,14.328,32.002,32,32.002s32-14.328,32-32c0,0,0,0,0-0.016v-49.719
				c1.734,0.203,3.594,0.328,5.531,0.328c6.188,0,13.297-1.281,20.703-5.125c3.422-1.781,5.766-5.344,5.766-9.469
				C304,335.444,299.219,330.663,293.328,330.663z M240,415.992c-5.891,0-10.672-4.781-10.672-10.656s4.781-10.672,10.672-10.672
				c5.875,0,10.656,4.781,10.656,10.672C250.656,411.211,245.875,415.992,240,415.992z"/>
		</g>
	</g>
</g>
<g>
	<g>
		<path d="M373.328,117.336V224l85.328-53.336L373.328,117.336z M394.656,155.82l23.75,14.844l-23.75,14.844V155.82z"/>
	</g>
</g>
<g>
</g>
<g>
</g>
<g>
</g>
<g>
</g>
<g>
</g>
<g>
</g>
<g>
</g>
<g>
</g>
<g>
</g>
<g>
</g>
<g>
</g>
<g>
</g>
<g>
</g>
<g>
</g>
<g>
</g>
</svg>
