<svg xmlns="http://www.w3.org/2000/svg" xmlns:xlink="http://www.w3.org/1999/xlink" viewBox="0 0 3710 3710"><defs><linearGradient id="linear-gradient" x1="1775.25" y1="1224.09" x2="1107.48" y2="1438.4" gradientUnits="userSpaceOnUse"><stop offset="0" stop-color="#fcb148"/><stop offset="0.05" stop-color="#fdba46"/><stop offset="0.14" stop-color="#ffc244"/><stop offset="0.32" stop-color="#ffc444"/><stop offset="0.48" stop-color="#fdb946"/><stop offset="0.78" stop-color="#f99c4d"/><stop offset="0.87" stop-color="#f8924f"/><stop offset="1" stop-color="#f8924f"/></linearGradient><linearGradient id="linear-gradient-2" x1="2315.44" y1="559.39" x2="1719.3" y2="1874.6" gradientUnits="userSpaceOnUse"><stop offset="0" stop-color="#ffdb44"/><stop offset="1" stop-color="#feef06"/></linearGradient><linearGradient id="linear-gradient-3" x1="2205.78" y1="1948.11" x2="2090.75" y2="1319.72" xlink:href="#linear-gradient"/><linearGradient id="linear-gradient-4" x1="1961.9" y1="930.99" x2="2435.95" y2="1937.29" xlink:href="#linear-gradient"/><linearGradient id="linear-gradient-5" x1="1943.02" y1="714.45" x2="2181.38" y2="1607.8" xlink:href="#linear-gradient-2"/><linearGradient id="linear-gradient-6" x1="1822.44" y1="996.11" x2="2295.53" y2="2000.39" xlink:href="#linear-gradient"/><linearGradient id="linear-gradient-7" x1="3235.29" y1="3115.65" x2="2793.49" y2="1620.81" gradientUnits="userSpaceOnUse"><stop offset="0" stop-color="#311944"/><stop offset="1" stop-color="#893976"/></linearGradient><linearGradient id="linear-gradient-8" x1="2867.29" y1="2720.3" x2="2809.27" y2="2258.71" xlink:href="#linear-gradient-7"/><linearGradient id="linear-gradient-9" x1="3064.29" y1="1880.39" x2="2900.11" y2="4903.98" gradientUnits="userSpaceOnUse"><stop offset="0" stop-color="#e38ddd"/><stop offset="1" stop-color="#9571f6"/></linearGradient><linearGradient id="linear-gradient-10" x1="2771.56" y1="3295.45" x2="2329.95" y2="1801.3" xlink:href="#linear-gradient-7"/><linearGradient id="linear-gradient-11" x1="2646.9" y1="1856.79" x2="2482.89" y2="4877.42" xlink:href="#linear-gradient-9"/><linearGradient id="linear-gradient-12" x1="2264.4" y1="3491.17" x2="1819.45" y2="1985.68" xlink:href="#linear-gradient-7"/><linearGradient id="linear-gradient-13" x1="2151.47" y1="1828.71" x2="1987.57" y2="4847.35" xlink:href="#linear-gradient-9"/><linearGradient id="linear-gradient-14" x1="1685.87" y1="3699.64" x2="1244.25" y2="2205.43" xlink:href="#linear-gradient-7"/><linearGradient id="linear-gradient-15" x1="1606.04" y1="1798.86" x2="1442.36" y2="4813.32" xlink:href="#linear-gradient-9"/><linearGradient id="linear-gradient-16" x1="1168.75" y1="4176.07" x2="621.6" y2="2324.82" xlink:href="#linear-gradient-7"/><linearGradient id="linear-gradient-17" x1="1000.55" y1="1766.07" x2="837.14" y2="4775.52" xlink:href="#linear-gradient-9"/><linearGradient id="linear-gradient-18" x1="3348.07" y1="1014.62" x2="2627.49" y2="4333.66" xlink:href="#linear-gradient-9"/><linearGradient id="linear-gradient-19" x1="2854.31" y1="1337.27" x2="2228.28" y2="4220.81" xlink:href="#linear-gradient-9"/><linearGradient id="linear-gradient-20" x1="2283.39" y1="1842.36" x2="1817.35" y2="3988.99" xlink:href="#linear-gradient-9"/><linearGradient id="linear-gradient-21" x1="1621.81" y1="2441.65" x2="1349.67" y2="3695.15" xlink:href="#linear-gradient-9"/><linearGradient id="linear-gradient-22" x1="933.49" y1="2733.55" x2="739.89" y2="3625.29" xlink:href="#linear-gradient-9"/><linearGradient id="linear-gradient-23" x1="1572.15" y1="1370.06" x2="910.11" y2="1182.72" gradientUnits="userSpaceOnUse"><stop offset="0" stop-color="#311944"/><stop offset="1" stop-color="#a03976"/></linearGradient><linearGradient id="linear-gradient-24" x1="1570.41" y1="1376.19" x2="908.38" y2="1188.85" xlink:href="#linear-gradient-23"/><linearGradient id="linear-gradient-25" x1="892.76" y1="951.69" x2="903.11" y2="1787.7" gradientUnits="userSpaceOnUse"><stop offset="0" stop-color="#ff9085"/><stop offset="1" stop-color="#fb6fbb"/></linearGradient><linearGradient id="linear-gradient-26" x1="1709.71" y1="836.92" x2="1230.56" y2="701.33" xlink:href="#linear-gradient-23"/><linearGradient id="linear-gradient-27" x1="1708.46" y1="841.36" x2="1229.3" y2="705.77" xlink:href="#linear-gradient-23"/><linearGradient id="linear-gradient-28" x1="1218" y1="534.12" x2="1225.49" y2="1139.19" xlink:href="#linear-gradient-25"/><linearGradient id="linear-gradient-29" x1="1832.37" y1="1747.19" x2="1872.16" y2="1868.62" gradientUnits="userSpaceOnUse"><stop offset="0" stop-color="#ffc444"/><stop offset="1" stop-color="#f36f56"/></linearGradient><linearGradient id="linear-gradient-30" x1="1587.59" y1="716.28" x2="1594.96" y2="2998.95" gradientUnits="userSpaceOnUse"><stop offset="0" stop-color="#aa80f9"/><stop offset="1" stop-color="#6165d7"/></linearGradient><linearGradient id="linear-gradient-31" x1="1552.06" y1="3315.31" x2="1648.43" y2="3315.31" gradientTransform="matrix(-1, 0.09, 0.09, 1, 2457.28, -161.28)" gradientUnits="userSpaceOnUse"><stop offset="0" stop-color="#444b8c"/><stop offset="1" stop-color="#26264f"/></linearGradient><linearGradient id="linear-gradient-32" x1="1117.65" y1="3275.74" x2="1159.93" y2="3188.23" gradientTransform="matrix(-1, 0.07, 0.07, 1, 2041.4, -61.45)" xlink:href="#linear-gradient-29"/><linearGradient id="linear-gradient-33" x1="1158.94" y1="3303.57" x2="1261.33" y2="3303.57" gradientTransform="matrix(-0.98, 0.21, 0.21, 0.98, 1968.66, -211.23)" xlink:href="#linear-gradient-31"/><linearGradient id="linear-gradient-34" x1="985.68" y1="3297.16" x2="1028.86" y2="3207.8" gradientTransform="matrix(-0.99, 0.15, 0.15, 0.99, 1975.27, -129.34)" xlink:href="#linear-gradient-29"/><linearGradient id="linear-gradient-35" x1="1916.69" y1="3018.04" x2="1643.59" y2="2402.41" gradientTransform="translate(-236.78 -20.03) rotate(3.04)" gradientUnits="userSpaceOnUse"><stop offset="0" stop-color="#40447e"/><stop offset="1" stop-color="#3c3b6b"/></linearGradient><linearGradient id="linear-gradient-36" x1="1874.34" y1="3036.82" x2="1601.24" y2="2421.19" xlink:href="#linear-gradient-35"/><linearGradient id="linear-gradient-37" x1="1308.06" y1="3135.88" x2="1034.96" y2="2520.25" gradientTransform="translate(-159.93 92.39) rotate(-3.99)" xlink:href="#linear-gradient-35"/><linearGradient id="linear-gradient-38" x1="1145.68" y1="717.71" x2="1153.04" y2="3000.38" xlink:href="#linear-gradient-30"/><linearGradient id="linear-gradient-39" x1="1757.77" y1="1354.71" x2="1768.52" y2="1068.38" gradientTransform="matrix(0.89, 0.45, -0.45, 0.89, 172.1, -183.74)" xlink:href="#linear-gradient-29"/><linearGradient id="linear-gradient-40" x1="563.04" y1="1514.61" x2="490.16" y2="1329.5" gradientTransform="matrix(-1, -0.05, -0.05, 1, 1790.56, 251.6)" gradientUnits="userSpaceOnUse"><stop offset="0" stop-color="#311944"/><stop offset="1" stop-color="#6b3976"/></linearGradient><linearGradient id="linear-gradient-41" x1="925.21" y1="1390.09" x2="921.86" y2="1660.14" gradientTransform="translate(282.27 227.32) rotate(-0.68)" xlink:href="#linear-gradient-29"/><linearGradient id="linear-gradient-42" x1="540.78" y1="1523.47" x2="467.82" y2="1338.17" xlink:href="#linear-gradient-40"/><linearGradient id="linear-gradient-43" x1="469.38" y1="1411.82" x2="473.17" y2="1445.65" gradientTransform="matrix(-1, -0.05, -0.05, 1, 1790.56, 251.6)" gradientUnits="userSpaceOnUse"><stop offset="0" stop-color="#ffc444"/><stop offset="1" stop-color="#f36f56"/></linearGradient><linearGradient id="linear-gradient-44" x1="908.37" y1="2262.44" x2="1427.36" y2="2262.44" xlink:href="#linear-gradient-30"/><linearGradient id="linear-gradient-45" x1="1224.72" y1="2264.61" x2="1055.96" y2="2136.62" gradientUnits="userSpaceOnUse"><stop offset="0" stop-color="#26264f"/><stop offset="1" stop-color="#444b8c"/></linearGradient><linearGradient id="linear-gradient-46" x1="-381.97" y1="2189.83" x2="-758.76" y2="2390.38" gradientTransform="matrix(-0.99, 0.1, 0.1, 0.99, 349.68, -26.87)" xlink:href="#linear-gradient-45"/><linearGradient id="linear-gradient-47" x1="1146.67" y1="2161.75" x2="1144.29" y2="1960.91" xlink:href="#linear-gradient-25"/><linearGradient id="linear-gradient-48" x1="951.55" y1="2216.36" x2="984.38" y2="2316.56" xlink:href="#linear-gradient-29"/><linearGradient id="linear-gradient-49" x1="758.19" y1="718.96" x2="765.55" y2="3001.63" xlink:href="#linear-gradient-30"/></defs><title>sales</title><g style="isolation:isolate"><g id="Background"><rect width="3710" height="3710" style="fill:#fff"/></g><g id="Illustration"><path d="M2990.79,963.36C2395.06,253.66,984.7,214,570,776.89c-228.5,310.16-133,773.78-85.91,1002.53,86.7,421,300.49,692,347.17,749.47,113.28,139.48,388.42,478.3,802.39,555.75C2341,3217,3223.57,2543.2,3272.47,1783,3300.66,1344.77,3042.29,1024.72,2990.79,963.36Z" style="fill:#f4f7fa"/><path d="M2544,1199.86c0,309.79-242.23,553.49-551.84,544C1670,1733.94,1399,1455.67,1399,1122.67s271-574.74,593.19-541.19C2301.77,613.72,2544,890.08,2544,1199.86Z" style="fill:url(#linear-gradient)"/><path d="M2627.66,1173.15c0,309.79-242.23,553.48-551.84,544-322.2-9.9-593.19-288.17-593.19-621.17s271-574.74,593.19-541.19C2385.43,587,2627.66,863.36,2627.66,1173.15Z" style="fill:url(#linear-gradient-2)"/><path d="M2603.36,1171.51c0,296.15-231.77,528.72-527.54,519.14-307.24-10-565.2-275.52-565.2-592.81s258-548.07,565.2-516.59C2371.59,611.55,2603.36,875.37,2603.36,1171.51Z" style="fill:url(#linear-gradient-3)"/><path d="M2586,1170.34c0,286.38-224.27,511-510.14,501.4-296.57-10-545.27-266.45-545.27-572.55s248.7-529.06,545.27-499C2361.69,629.1,2586,884,2586,1170.34Z" style="fill:url(#linear-gradient-4)"/><path d="M2072.9,697.58h0c15.21,1.45,27.52,15.14,27.52,30.59V780.9a773.34,773.34,0,0,1,91.38,15.85q33.75,7.93,67,18.87c13.29,4.37,22.35,17.8,21,31.64l-6.47,66.12c-1.72,17.54-19.06,27.85-35.38,20.57a380.89,380.89,0,0,0-45-16.75,407.69,407.69,0,0,0-84.81-15.85l-7.78-.64v151c79.36,22.2,137.64,52.07,175.3,89.64q56.22,56.07,56.15,139.92,0,90.74-62.1,145.46-62.52,55.1-175.67,61.85v58.2c0,15.46-12.32,27.49-27.55,26.89l-.49,0c-15.25-.61-27.64-13.67-27.64-29.18v-57.41l-12.27-.55a805.93,805.93,0,0,1-101.77-10.85,662.7,662.7,0,0,1-70.33-16.18c-13.83-4-23.33-17.17-22.06-31.33l7.62-85c1.64-18.38,20.1-29.07,37.57-22.18a552.5,552.5,0,0,0,61.86,20.31,543.23,543.23,0,0,0,98.89,16.52l.49-168q-114.26-28.27-170.67-83.74-56.46-55.74-56.53-142.51,0-89.74,61.28-138.41c40.6-32.25,98.32-48.29,172.78-48.25V723C2045.28,707.52,2057.65,696.13,2072.9,697.58Zm-27.62,201.57q-35.31,2.57-55,19.4t-19.75,45.33q0,27,18.27,45t56.52,28.84Zm48.82,304.15v154q38.39.08,58.91-18.31t20.5-51.85q0-30.56-19.05-50.69T2094.1,1203.3Z" style="fill:url(#linear-gradient-5)"/><path d="M1983.51,1240.47c17.24-170.23,173.68-242.29,153.27-398.88-12.59-96.51-85.74-177.84-167.34-241.35-247.5,26-438.89,230.9-438.89,499,0,306.1,248.7,562.6,545.27,572.55a514.92,514.92,0,0,0,84.27-4.11C2042.31,1550.43,1968.7,1386.72,1983.51,1240.47Z" style="opacity:0.30000000000000004;mix-blend-mode:multiply;fill:url(#linear-gradient-6)"/><path d="M3151.15,1610.8l-73.84-498.46-165,16.6c-13.92-2.58-40.4,11.9-46.66,26.51l-216.73,505c-6.72,15.67,3.58,33.65,19.18,33.54l61.89-2.6V2868.64c0,21,15.23,36,34,33.64l148.36,33c17.75-2.3,183.89-91.8,183.89-112V1643.17l37.51-.19C3147.89,1642.9,3157.23,1625.68,3151.15,1610.8Z" style="fill:url(#linear-gradient-7)"/><path d="M2893.64,1686.13l-163.7,5.3V2868.64c0,21,15.23,36,34,33.64l148.36,33c7.31-1,39.85-16.72,75.56-36.34Z" style="opacity:0.30000000000000004;mix-blend-mode:multiply;fill:url(#linear-gradient-8)"/><path d="M3292.8,1683.57l-37.89.22V2858.3c0,20.11-13.36,38.26-30.75,40.49l-297.22,38.49c-18.55,2.41-33.28-12.57-33.28-33.45V1686.11l-40.25.27c-15.43.13-25.66-17.75-19-33.36l225.75-529.75c7.27-17,29-16,36.22,1.79l214.14,526.44C3316.54,1666.31,3306.89,1683.48,3292.8,1683.57Z" style="fill:url(#linear-gradient-9)"/><path d="M2436.58,2999.87l-155-36c-19.51,2.49-35.37-12.39-35.37-33.25V1969c0-20.86,15.86-38.24,35.37-38.81l332.36-9.78c18.25-.53,172.83,8.22,172.83,8.22l-139.83,952.21C2646.94,2900.93,2436.58,2999.87,2436.58,2999.87Z" style="fill:url(#linear-gradient-10)"/><path d="M2813.38,1963V2916.1c0,5.57-2.14,11-4.19,16-5.22,12.84-16.9,22.74-30,24.39l-328.42,42.55c-19.36,2.5-34.35-12.26-34.35-33.05V1976.18c0-20.74,14.74-38,34.1-38.62l71.5-2.14,257.9-7.63C2798.06,1927.21,2813.38,1943,2813.38,1963Z" style="fill:url(#linear-gradient-11)"/><path d="M1917.21,3067.31l-163.46-36.06c-21.47,2.75-38.93-12.77-38.93-34.66l4.94-673.8c0-21.89,17.46-40.67,38.92-41.95l365.14-21.78c20-1.2,188,21.94,188,21.94L2155.2,2941.91C2155.2,2962.94,1937.47,3064.69,1917.21,3067.31Z" style="fill:url(#linear-gradient-12)"/><path d="M2322.8,2309.06v668.27c0,21-15.21,40-35.06,42.55l-360.36,46.78c-21.22,2.77-37.19-12.66-37.19-34.43V2336.94c0-21.81,16.37-40.5,37.59-41.79l111.61-6.78,248.59-15C2307.82,2272.14,2322.8,2288.15,2322.8,2309.06Z" style="fill:url(#linear-gradient-13)"/><path d="M1324.41,3136.05l-153-30.44c-23.75,3-43.07-13.17-43.07-36.19V2719.29c0-23,19.32-43.42,43.07-45.56l403.25-36.3c22.07-2,174.86,15.9,174.86,15.9l-135,355.71C1614.58,3031.12,1346.8,3133.16,1324.41,3136.05Z" style="fill:url(#linear-gradient-14)"/><path d="M1787.61,2689.54v355.18c0,6.87-1,13.56-4.06,19.58-6.69,13.24-19.35,23.37-34.38,25.29l-15.34,2-384.58,49.68c-23.5,3-43.3-13.07-43.3-36V2735c0-22.92,20-43.21,43.48-45.35l51.11-4.64,74.17-6.74,273.88-24.93C1770.44,2651.36,1787.61,2667.55,1787.61,2689.54Z" style="fill:url(#linear-gradient-15)"/><path d="M973.22,2846.68l-447.53,46.21c-19.1,2-35.58,14-43.27,29.69a43.69,43.69,0,0,0-4.62,19.21v192.4c0,24.28,20.55,44.17,47.89,53.86l158.14,31.43c24.84-3.21,333.58-113.05,333.58-136.29l74.17-89.21,75.07-127.11S997.67,2844.16,973.22,2846.68Z" style="fill:url(#linear-gradient-16)"/><path d="M1198.91,2905.48v213.59c0,23.14-20.09,44.42-44.31,47.54l-96.66,12.44-346.73,44.82c-26.14,3.39-47.49-13.42-47.49-37.59V2963.1c0-24.12,21.21-45.93,47.35-48.7l68-7.09,375.53-39.11C1178.83,2865.66,1198.91,2882.38,1198.91,2905.48Z" style="fill:url(#linear-gradient-17)"/><path d="M3254.91,2657.51V2858.3c0,20.11-13.36,38.26-30.75,40.49l-297.22,38.49c-18.55,2.41-33.28-12.57-33.28-33.45V1688.16c49.06,2.63,150.4,84.41,117.44,345-45.08,356.79-43.82,374.65,12.64,434.1C3059.07,2504.45,3196.93,2546.28,3254.91,2657.51Z" style="opacity:0.30000000000000004;mix-blend-mode:multiply;fill:url(#linear-gradient-18)"/><path d="M2808.21,2932.11c-5.22,12.84-16.41,22.74-29.48,24.39l-328.18,42.55c-19.36,2.5-34.1-12.26-34.1-33.05V1976.18c0-20.74,14.74-38,34.1-38.62l71.5-2.14c55,41.25,71.52,100.55,47.16,176.16-87,269.82-73.83,421.1-17.37,480.55C2599.88,2642.66,2836.84,2701.8,2808.21,2932.11Z" style="opacity:0.30000000000000004;mix-blend-mode:multiply;fill:url(#linear-gradient-19)"/><path d="M2322.8,2920.25v57.08c0,21-15.21,40-35.06,42.55l-360.36,46.78c-21.22,2.77-37.19-12.66-37.19-34.43V2336.94c0-21.81,16.37-40.5,37.59-41.79l111.61-6.78c121.37,89.69-107.58,312.68,38.11,500C2177.91,2917.45,2278.2,2785.56,2322.8,2920.25Z" style="opacity:0.30000000000000004;mix-blend-mode:multiply;fill:url(#linear-gradient-20)"/><path d="M1733.83,3091.55l-384.58,49.68c-23.5,3-43.3-13.07-43.3-36V2735c0-22.92,20-43.21,43.48-45.35l51.11-4.64c9.81,49.46,28.72,76.17,54,102.75C1501.69,2837.38,1717.9,2894.69,1733.83,3091.55Z" style="opacity:0.30000000000000004;mix-blend-mode:multiply;fill:url(#linear-gradient-21)"/><path d="M1057.67,3179.05l-346.6,44.82c-26.14,3.39-47.35-13.42-47.35-37.59V2963.1c0-24.12,21.21-45.93,47.35-48.7l68-7.09c8.12,13.87,17.78,25.51,28.84,37.15C847.62,2986.21,1016.37,3033.88,1057.67,3179.05Z" style="opacity:0.30000000000000004;mix-blend-mode:multiply;fill:url(#linear-gradient-22)"/><path d="M1060.43,1322.36c21.2,10.76,47.84.88,59.49-22.08s3.92-50.29-17.28-61.06c-1.1-.56-2.22-1-3.35-1.47a268.75,268.75,0,0,0,8.9-38.32c1.22,0,2.44,0,3.68-.13,24.19-2.16,43.39-24.38,42.88-49.65s-20.53-44-44.72-41.84c-1.26.11-2.5.31-3.74.53a246.36,246.36,0,0,0-10.35-36.58c1.11-.65,2.22-1.33,3.3-2.09,20.69-14.49,27.31-43.11,14.78-63.91s-39.48-25.91-60.17-11.41c-1.06.74-2.06,1.54-3,2.36A219.28,219.28,0,0,0,1024,971.65c.68-1.11,1.35-2.25,2-3.44,11.66-23,26.89-48,5.52-58.46-49.43-24.13-70.64-3.47-82.3,19.48-.6,1.19-1.12,2.4-1.62,3.61A219.13,219.13,0,0,0,911.45,926c.08-1.27.14-2.55.11-3.85-.5-25.26,7-38.93-17.29-39.4-52.95-1-70.81,21.95-70.3,47.21,0,1.32.13,2.61.26,3.9A246.74,246.74,0,0,0,788.58,947c-.55-1.13-1.12-2.25-1.77-3.34-12.54-20.8-39.47-25.91-60.17-11.41s-27.31,43.12-14.78,63.92c.64,1.06,1.35,2.06,2.06,3a269.36,269.36,0,0,0-25.68,29.8c-1-.64-2.06-1.27-3.16-1.83-21.2-10.77-47.84-.88-59.5,22.08s-3.91,50.29,17.29,61c1.1.56,2.22,1,3.34,1.48a268.3,268.3,0,0,0-8.9,38.31c-1.21,0-2.43,0-3.67.14-24.19,2.15-43.39,24.38-42.88,49.65s20.52,44,44.71,41.83c1.27-.11,2.51-.31,3.74-.53a246.86,246.86,0,0,0,10.36,36.59c-1.11.65-2.22,1.32-3.3,2.08-20.7,14.5-27.31,43.12-14.78,63.92s54,30.46,74.72,16c1.06-.74-12.5-6.1-11.51-6.91a217.71,217.71,0,0,0,26.84,25.05c-.68,1.12-1.35,2.25-2,3.44-11.65,23-3.91,50.3,17.29,61.06s47.84.88,59.49-22.07c.61-1.19,1.13-2.4,1.63-3.61a217.76,217.76,0,0,0,36.06,6.88c-.07,1.28-.13,2.56-.11,3.85.51,25.27,20.53,44,44.72,41.84s43.39-24.38,42.88-49.65c0-1.32-.14-2.61-.27-3.89a246.3,246.3,0,0,0,35.65-13.23c.55,1.13,1.13,2.25,1.78,3.33,12.53,20.81,39.47,25.91,60.17,11.42s27.31-43.12,14.77-63.92c-.64-1.07-1.34-2.06-2.06-3a268.2,268.2,0,0,0,25.68-29.79C1058.29,1321.17,1059.33,1321.8,1060.43,1322.36Zm-264.3,3.35c-77-39.08-105.08-138.34-62.76-221.69s139-119.24,216-80.15,105.08,138.33,62.76,221.69S873.1,1364.8,796.13,1325.71Z" style="fill:url(#linear-gradient-23)"/><path d="M1111.87,1199.3c24.19-2.16,43.39-24.38,42.88-49.65s-20.53-44-44.72-41.84c-1.26.11-2.5.31-3.74.53a246.36,246.36,0,0,0-10.35-36.58c1.11-.65,2.22-1.33,3.3-2.09,20.69-14.49,46.3-49.53,31.69-68.93-27.71-36.83-56.39-20.89-77.08-6.39-1.06.74-2.06,1.54-3,2.36A219.28,219.28,0,0,0,1024,971.65c.68-1.11,1.35-2.25,2-3.43a48.2,48.2,0,0,0,2.71-38q-30,52.78-59.07,106c61.41,45,81,133.68,42.58,209.29-32.53,64.07-97.19,100-160.33,95.53-2.82,7.31-5.58,14.65-8.6,21.88-8.18,19.63-17.48,38.86-26.79,58.06q8.77,1.67,17.63,2.59c-.07,1.28-.13,2.56-.11,3.85.51,25.27,15.85,46.73,59.69,44.41,24.25-1.29,28.42-27,27.91-52.22,0-1.32-.14-2.61-.27-3.89a246.3,246.3,0,0,0,35.65-13.23c.55,1.13,1.13,2.25,1.78,3.33,12.53,20.81,56,29.64,76.71,15.14s10.77-46.84-1.77-67.64c-.64-1.07-1.34-2.06-2.06-3a268.2,268.2,0,0,0,25.68-29.79c1,.64,2.07,1.27,3.17,1.83,21.2,10.76,47.84.88,59.49-22.08s3.92-50.29-17.28-61.06c-1.1-.56-2.22-1-3.35-1.47a268.93,268.93,0,0,0,8.9-38.31C1109.41,1199.43,1110.63,1199.41,1111.87,1199.3Z" style="fill:url(#linear-gradient-24)"/><path d="M1083.23,1325c21.2,10.77,47.84.88,59.5-22.08s3.91-50.29-17.29-61c-1.1-.56-2.22-1-3.34-1.48A268.3,268.3,0,0,0,1131,1202c1.21,0,2.43,0,3.67-.14,24.19-2.15,43.39-24.38,42.88-49.64s-20.52-44-44.71-41.85c-1.27.12-2.51.32-3.74.54a246.86,246.86,0,0,0-10.36-36.59c1.11-.65,2.22-1.32,3.3-2.08,20.7-14.5,27.31-43.12,14.78-63.92s-39.47-25.91-60.17-11.41c-1.06.74-2.05,1.55-3,2.36a217.71,217.71,0,0,0-26.84-25c.68-1.12,1.35-2.25,2-3.44,11.66-23,3.92-50.3-17.28-61.06s-47.84-.88-59.49,22.08c-.61,1.18-1.13,2.39-1.63,3.6a218.79,218.79,0,0,0-36.06-6.88c.07-1.28.13-2.56.11-3.85-.51-25.27-20.53-44-44.72-41.84s-43.39,24.38-42.88,49.65c0,1.32.14,2.61.27,3.89a246.3,246.3,0,0,0-35.65,13.23c-.55-1.13-1.13-2.25-1.78-3.34-12.53-20.8-39.47-25.9-60.17-11.41S722.13,978,734.67,998.8c.64,1.07,1.34,2.06,2.05,3.05a269.17,269.17,0,0,0-25.67,29.79c-1-.64-2.07-1.27-3.17-1.83-21.2-10.76-47.84-.88-59.49,22.08s-3.92,50.29,17.28,61.06c1.1.56,2.22,1,3.35,1.47a268.75,268.75,0,0,0-8.9,38.32c-1.22,0-2.44,0-3.68.13-24.19,2.16-43.39,24.38-42.88,49.65s20.53,44,44.72,41.84c1.26-.11,2.5-.31,3.74-.53a246.36,246.36,0,0,0,10.35,36.58c-1.11.66-2.22,1.33-3.3,2.09-20.69,14.49-27.31,43.11-14.78,63.91s39.47,25.91,60.17,11.41c1.06-.74,2.06-1.54,3-2.36a219.28,219.28,0,0,0,26.84,25.06c-.68,1.11-1.35,2.25-2,3.44-11.66,23-3.92,50.29,17.28,61s47.84.89,59.5-22.07c.6-1.19,1.12-2.4,1.62-3.61a219.13,219.13,0,0,0,36.07,6.89c-.08,1.27-.14,2.55-.11,3.85.5,25.26,20.52,44,44.71,41.84s43.39-24.39,42.88-49.65c0-1.32-.13-2.61-.26-3.9a246.74,246.74,0,0,0,35.65-13.23c.55,1.13,1.12,2.25,1.77,3.34,12.54,20.8,39.47,25.91,60.17,11.41s27.31-43.12,14.78-63.92c-.64-1.06-1.35-2.06-2.06-3a269.36,269.36,0,0,0,25.68-29.8C1081.09,1323.76,1082.13,1324.39,1083.23,1325Zm-264.3,3.36c-77-39.09-105.08-138.34-62.76-221.7s139-119.24,216-80.15,105.08,138.34,62.76,221.69S895.91,1367.39,818.93,1328.31Z" style="fill:url(#linear-gradient-25)"/><path d="M1339.35,802.39c15.34,7.8,34.62.64,43.06-16s2.83-36.41-12.51-44.2c-.8-.4-1.61-.74-2.42-1.06a194.7,194.7,0,0,0,6.44-27.73c.88,0,1.76,0,2.66-.1,17.51-1.56,31.4-17.65,31-35.93s-14.85-31.85-32.36-30.29c-.91.08-1.81.23-2.71.39a178.55,178.55,0,0,0-7.49-26.48c.8-.47,1.6-1,2.39-1.51,15-10.49,19.76-31.2,10.69-46.26s-28.56-18.75-43.54-8.26c-.77.54-1.49,1.12-2.21,1.71A157.58,157.58,0,0,0,1313,548.57c.49-.81,1-1.63,1.41-2.49,8.44-16.62,19.46-34.77,4-42.32-35.78-17.46-51.13-2.51-59.57,14.1-.43.86-.81,1.74-1.17,2.61a158.88,158.88,0,0,0-26.1-5c0-.92.09-1.85.08-2.79-.37-18.28,5.05-28.17-12.52-28.52-38.32-.74-51.25,15.89-50.88,34.18,0,.95.09,1.89.19,2.81a179.23,179.23,0,0,0-25.8,9.58c-.4-.82-.82-1.63-1.29-2.41-9.07-15.06-28.57-18.76-43.55-8.26s-19.76,31.2-10.69,46.26c.46.77,1,1.49,1.49,2.2A195.29,195.29,0,0,0,1070,590.11c-.74-.47-1.49-.92-2.29-1.33-15.34-7.79-34.62-.63-43.06,16s-2.83,36.4,12.51,44.19c.8.41,1.61.75,2.42,1.07a194.38,194.38,0,0,0-6.44,27.73c-.88,0-1.76,0-2.66.1-17.5,1.56-31.4,17.65-31,35.93s14.85,31.84,32.36,30.28c.92-.08,1.81-.22,2.71-.38a178.89,178.89,0,0,0,7.49,26.48c-.8.47-1.6,1-2.39,1.51-15,10.49-19.76,31.2-10.69,46.26S1068,840,1083,829.48c.77-.54-9-4.41-8.33-5a157.58,157.58,0,0,0,19.42,18.13c-.49.81-1,1.63-1.41,2.49-8.44,16.62-2.84,36.4,12.51,44.19s34.62.64,43.06-16c.44-.86.81-1.73,1.17-2.61a157.79,157.79,0,0,0,26.11,5c-.06.92-.1,1.85-.08,2.78.36,18.29,14.85,31.85,32.36,30.28s31.4-17.64,31-35.93c0-1-.1-1.89-.2-2.82a178,178,0,0,0,25.8-9.57c.4.81.82,1.62,1.29,2.41,9.07,15.06,28.57,18.75,43.55,8.26S1329,839.89,1320,824.84c-.46-.77-1-1.49-1.49-2.21a193.22,193.22,0,0,0,18.59-21.56A25.72,25.72,0,0,0,1339.35,802.39Zm-191.29,2.43c-55.72-28.29-76-100.12-45.42-160.45s100.62-86.3,156.34-58,76,100.12,45.42,160.45S1203.77,833.11,1148.06,804.82Z" style="fill:url(#linear-gradient-26)"/><path d="M1376.58,713.33c17.51-1.56,31.4-17.65,31-35.93s-14.85-31.85-32.36-30.29c-.91.08-1.81.23-2.71.39a177.35,177.35,0,0,0-7.49-26.48c.8-.47,1.6-1,2.39-1.51,15-10.49,33.51-35.85,22.94-49.89-20.06-26.66-40.81-15.12-55.79-4.63-.77.54-1.49,1.12-2.21,1.71A157.58,157.58,0,0,0,1313,548.57c.49-.81,1-1.63,1.41-2.49a34.88,34.88,0,0,0,2-27.49q-21.71,38.19-42.76,76.74c44.45,32.57,58.6,96.76,30.82,151.48-23.55,46.37-70.35,72.41-116,69.14-2,5.29-4,10.61-6.23,15.84-5.92,14.21-12.65,28.12-19.39,42q6.36,1.2,12.77,1.88c-.06.92-.1,1.85-.08,2.78.36,18.29,11.46,33.82,43.19,32.14,17.56-.93,20.57-19.5,20.21-37.79,0-1-.1-1.89-.2-2.82a178,178,0,0,0,25.8-9.57c.4.81.82,1.62,1.29,2.41,9.07,15.06,40.54,21.45,55.52,11s7.79-33.91-1.28-49c-.46-.77-1-1.49-1.49-2.21a193.22,193.22,0,0,0,18.59-21.56,25.72,25.72,0,0,0,2.29,1.32c15.34,7.8,34.62.64,43.06-16s2.83-36.41-12.51-44.2c-.8-.4-1.61-.74-2.42-1.06a194.7,194.7,0,0,0,6.44-27.73C1374.8,713.42,1375.68,713.41,1376.58,713.33Z" style="fill:url(#linear-gradient-27)"/><path d="M1355.85,804.27c15.35,7.79,34.63.64,43.06-16s2.84-36.4-12.51-44.19c-.79-.4-1.6-.74-2.42-1.07a194.38,194.38,0,0,0,6.44-27.73c.88,0,1.77,0,2.66-.09,17.51-1.56,31.41-17.65,31-35.94s-14.86-31.84-32.36-30.28c-.92.08-1.82.23-2.71.38a178.92,178.92,0,0,0-7.5-26.48c.81-.47,1.61-.95,2.39-1.5,15-10.5,19.77-31.21,10.7-46.26s-28.57-18.76-43.55-8.26c-.77.54-1.49,1.12-2.2,1.71a159.24,159.24,0,0,0-19.43-18.14c.5-.81,1-1.63,1.42-2.49,8.43-16.61,2.83-36.4-12.51-44.19s-34.63-.64-43.06,16c-.44.86-.82,1.74-1.18,2.61a158.88,158.88,0,0,0-26.1-5c.06-.93.1-1.85.08-2.79-.37-18.28-14.86-31.84-32.36-30.28s-31.41,17.65-31,35.93c0,1,.1,1.89.19,2.82a178.49,178.49,0,0,0-25.8,9.58c-.4-.82-.81-1.63-1.28-2.42-9.08-15.05-28.57-18.75-43.55-8.26s-19.77,31.21-10.7,46.27c.47.77,1,1.49,1.49,2.2A195.1,195.1,0,0,0,1086.48,592c-.74-.46-1.5-.92-2.29-1.32-15.35-7.79-34.63-.64-43.06,16s-2.84,36.4,12.51,44.19c.79.4,1.6.74,2.42,1.07a194.38,194.38,0,0,0-6.44,27.73c-.88,0-1.77,0-2.66.09-17.51,1.57-31.41,17.65-31,35.94s14.86,31.84,32.37,30.28c.91-.08,1.81-.22,2.7-.38a178.92,178.92,0,0,0,7.5,26.48c-.81.47-1.61,1-2.39,1.5-15,10.5-19.77,31.21-10.7,46.26s28.57,18.76,43.55,8.26c.77-.54,1.49-1.12,2.2-1.71a158.46,158.46,0,0,0,19.43,18.14c-.5.81-1,1.63-1.42,2.49-8.43,16.61-2.83,36.4,12.51,44.19s34.63.64,43.06-16c.44-.86.82-1.73,1.18-2.61a157.84,157.84,0,0,0,26.1,5c0,.93-.1,1.85-.08,2.79.37,18.28,14.86,31.84,32.37,30.28s31.4-17.65,31-35.93c0-1-.1-1.89-.19-2.82a177.32,177.32,0,0,0,25.8-9.58c.4.82.81,1.63,1.29,2.42,9.07,15,28.56,18.75,43.54,8.26s19.77-31.21,10.7-46.27c-.47-.77-1-1.49-1.49-2.2A195.1,195.1,0,0,0,1353.56,803C1354.3,803.41,1355.06,803.87,1355.85,804.27Zm-191.29,2.43c-55.71-28.29-76-100.13-45.42-160.45s100.63-86.31,156.34-58,76,100.13,45.42,160.45S1220.28,835,1164.56,806.7Z" style="fill:url(#linear-gradient-28)"/><path d="M1815.65,1834.26s0-29.68-8-40.53-23.16-15.82-25.33-24.56,25.33,10.8,35.47,15.15,65.11-25.12,70.21-28.23c13-8-5.07,23.88-23.89,33.29s-29,10.14-29,10.14l5.06,34.74h-24.61Z" style="fill:url(#linear-gradient-29)"/><path d="M1339.47,1755.07c25.73-25.36,74.82-21.49,104.36-11.86,55.57,18.1,60,62.37,142.86,128.56,39.72,31.73,60.14,47.59,87.76,47.44,67.62-.36,113.6-95.73,121-111.48l66.36,9.88c10.49,115.83-53.75,224.5-156.49,267.62-158.13,66.38-293.58-70.31-299.4-76.38C1332.78,1932.53,1292.94,1800.93,1339.47,1755.07Z" style="fill:url(#linear-gradient-30)"/><path d="M1119.37,3266.05c-5,4.6-5.32,15.34-5.52,22.36-.09,3.13-.14,4.7.28,5.78,3,7.88,18.66,7.77,43.24,8.77,38.85,1.59,50.53,3.92,53.2-2,2.5-5.56-4.89-13.95-5.72-14.88-4.47-5-9.68-6.56-19.72-9.2-18.58-4.88-31.09-7.41-34.88-8.17C1126.61,3263.91,1122.65,3263,1119.37,3266.05Z" style="fill:url(#linear-gradient-31)"/><path d="M1146.61,3227.31l1.52,44.22c-1.21,2.07-14.63,7.75-24.73,1.72l-7.63-43.79Z" style="fill:url(#linear-gradient-32)"/><path d="M1446.61,3259.88c-6.68,6.63-8.8,19.38-3.65,26s13.41,2.27,36.37,4.18c24.59,2,30.71,8.21,47.69,4.48,6.86-1.51,19-5.41,19.08-10.25,0-3.4-6-5.48-25.91-13.36-28.31-11.19-28.16-11.71-34.22-13.05C1470.73,3254.5,1455.43,3251.13,1446.61,3259.88Z" style="fill:url(#linear-gradient-33)"/><path d="M1464.52,3220.55l10.17,41.75c-1,2.15-14,8.84-24.53,3.61l-16.22-40.86Z" style="fill:url(#linear-gradient-34)"/><path d="M1402.66,2314.78a3855.57,3855.57,0,0,0,73.1,918.36l-48,10.21c-38-39.41-85.31-100.79-105.24-185-12.37-52.28-5.92-78.47-12.14-142.29-9.89-101.63-38-156.09-65.59-239.08-24.82-74.58-53-183.6-63.6-327.87Z" style="fill:url(#linear-gradient-35)"/><path d="M1380.7,2960.59c-17.62-69.71-51.53-88.14-52.75-153.94-.87-46.55,15.86-50.36,14.74-94.91-1.69-67.57-41.29-103-61.18-145.5-21-44.89-29.08-117,27.51-236.95l-127.79,19.8c10.56,144.27,38.78,253.29,63.6,327.87,27.61,83,55.7,137.45,65.59,239.08,6.22,63.82-.23,90,12.14,142.29,19.93,84.23,67.24,145.61,105.24,185l12.2-2.6c-41.08-49-55.58-92.79-59.27-128.32C1374.72,3054.64,1398.46,3030.88,1380.7,2960.59Z" style="opacity:0.30000000000000004;mix-blend-mode:multiply;fill:url(#linear-gradient-36)"/><path d="M1242.87,2306.17q-28.48,262.68-52.15,535.34-17.67,204.59-31.56,404.1l-48.61,3.39a563.17,563.17,0,0,1-43.45-132.67c-13.53-69.85-7.37-110.57-11.1-182.41-4.2-80.57-15.56-98.68-31.94-200.92-33.26-207.48-49.89-311.22,2.78-372.4C1043.94,2340.74,1096.85,2291.45,1242.87,2306.17Z" style="fill:url(#linear-gradient-37)"/><path d="M823.1,1761.71c87.53-29.69,221.08-62.6,384.44-55.9A1051.3,1051.3,0,0,1,1448,1744q13.08,73.11,26.17,146.22a1742.39,1742.39,0,0,1-2.81,193.31c-5.47,78.21-10.85,79.39-23.41,189.81-20.47,180-11.89,227-48.06,248.68-23.53,14.07-32-2.91-152.13-14.79-80.52-8-121.61-11.66-162.38,2.14-55.53,18.8-74.1,50.35-97,40.09-22-9.84-24.77-47.76-27.43-113.88-4.12-102-3.88-171.31-4.26-196.13-1.75-113.85-30.6-200.78-67.54-312.11A1508.34,1508.34,0,0,0,823.1,1761.71Z" style="fill:url(#linear-gradient-38)"/><path d="M1196.7,1593a334.41,334.41,0,0,1-9.53,66.53c-4.41,17.62-7.14,22.09-10.52,25.65-5.09,5.36-12.6,9.69-54.14,17.68-22.61,4.34-25.47,4-26.08,6.22-3,10.68,55.9,50.73,119.23,45.2,38.76-3.38,74.93-23.47,73.39-35.11s-40.3-7.53-50.64-29.13c-7.18-15,2.85-35.27,14.32-51.87C1243.52,1618.49,1205.9,1612.72,1196.7,1593Z" style="fill:url(#linear-gradient-39)"/><path d="M1267.5,1608.13c9.72-11.58,11.4-32.6,1.65-46.47-8.4-11.93-22.48-14.32-30.9-15.75-24.43-4.14-56,4.47-68,26.51-7.1,13.07,5.24,41.65,7.14,46.78,2.15,5.79,6.49,8,10.38,12.47,5.38,6.24,13.8,16.15,27.52,32.72a101.66,101.66,0,0,1,6.47-16.38,89.54,89.54,0,0,1,12.72-19C1248.14,1614.09,1258.28,1619.1,1267.5,1608.13Z" style="fill:url(#linear-gradient-40)"/><path d="M1195.24,1650s14.75,27.37,47,27c28.9-.34,36.56-64.71,18.89-79.39-5.89-4.9-18.08-7.45-28.23-5.19-6,1.35-8.12,3.69-18,5.69-9.07,1.85-11.54.72-14.36,2.85-3.53,2.66-6.38,9.5-1.74,28.68-5.2-5.86-11.68-8.34-16.47-6.39a9.89,9.89,0,0,0-4,3.54C1174,1633.94,1180.19,1643.72,1195.24,1650Z" style="fill:url(#linear-gradient-41)"/><path d="M1199.52,1597c1.33,1.11-3.19,6.06-3.89,13.38-1.38,14.2,12.12,32.06,26.75,34.29,8.64,1.32,11.31-3.79,25.76-4.55a65.87,65.87,0,0,1,20.89,2.33c3.69,15.85-1.39,31.2-12.21,37.86-11.65,7.18-25.75,1.7-31.65-.59-3.94-1.53-16.58-6.42-22.68-18.58-6.35-12.66.92-19.71-6.67-28.45-3.84-4.41-9.06-6.51-13.81-14.9a39.72,39.72,0,0,1-2.63-5.63C1187.23,1604.7,1197.59,1595.41,1199.52,1597Z" style="fill:url(#linear-gradient-42)"/><path d="M1258.27,1647.7s-6.39,2.92-17.11,1.74c-.52,0-1.11.07-1.19.34-.3,1,6.36,5.94,12.8,4.49,4.58-1,8.32-5.11,7.77-6.23C1260.31,1647.57,1259.28,1647.58,1258.27,1647.7Z" style="fill:url(#linear-gradient-43)"/><path d="M1353.19,2462.89c-59.06-25.19-58.73-77.35-113.9-99.1-78.72-31.05-165.67,41.13-179.25,21.12-14.14-20.82,89.72-84.68,75.89-147.64-11-50-83.49-41.15-122.34-109.64-36.85-65-1.14-125.05-33.77-147.62-11.7-8.1-32.33-11.29-71.45,5.94,27.29,85.19,46.87,160.32,48.3,253.46.38,24.82.14,94.14,4.26,196.13,2.66,66.12,5.46,104,27.43,113.88,22.91,10.26,41.48-21.29,97-40.09,40.77-13.8,81.86-10.1,162.38-2.14,120.09,11.88,128.6,28.86,152.13,14.79,15.32-9.16,22.61-22.94,27.48-49.39C1403.28,2475.19,1377.75,2473.36,1353.19,2462.89Z" style="opacity:0.30000000000000004;mix-blend-mode:multiply;fill:url(#linear-gradient-44)"/><path d="M1251.08,1985.5l-241.9,20.3a5.67,5.67,0,0,0-5.11,4.63l-68.63,326c-1,4.66,5.33,16.48,9.83,16l232.82-31a5.61,5.61,0,0,0,5-4.4l80.16-317.71C1264.33,1994.67,1256,1985.09,1251.08,1985.5Z" style="fill:url(#linear-gradient-45)"/><path d="M1256.16,1993.55l-242.34,20a5.68,5.68,0,0,0-5.12,4.63L940,2344.53c-1,4.67,3.11,9.58,7.62,9.13l235.47-23.77a5.61,5.61,0,0,0,5-4.4l76.09-322.8A7.7,7.7,0,0,0,1256.16,1993.55Z" style="fill:url(#linear-gradient-46)"/><path d="M1189.26,2008.84l6-26.9a4,4,0,0,0-4-4.78l-89,4.07a3.13,3.13,0,0,0-3,2.66l-5,29.23a4,4,0,0,0,4,4.56l88.12-6.32A3.16,3.16,0,0,0,1189.26,2008.84Z" style="fill:url(#linear-gradient-47)"/><path d="M1073.83,2275.09c8.7-53.6-21.4-88.11-.67-129.77,29.5-59.27,114.13-36.46,133.3-85.05,5.18-13.14,5.86-32.47-7.61-62l57.32-4.72a7.7,7.7,0,0,1,8,9.14l-76.09,322.8a5.62,5.62,0,0,1-5,4.4l-145.29,14.67C1060.47,2321,1070.3,2296.88,1073.83,2275.09Z" style="fill:#fff;opacity:0.30000000000000004;mix-blend-mode:soft-light"/><path d="M908.37,2243.05s25.68-1.61,27-4.6,29.36-29.23,28.44-20.94-5.84,22.66-4.14,24.16,51.31-11.28,59.59-18,8.06,29-4.83,41.88-38.89,14.5-56.15,15.65-51.28-5.1-55.67-3.13C909.77,2263.33,908.37,2243.05,908.37,2243.05Z" style="fill:url(#linear-gradient-48)"/><path d="M912.71,2229.37c2,23.78-3.14,39.92-11.78,51-38.29,49.08-168.46,29-245.84-36.68-57.27-48.65-87.6-124.2-86.5-191.9,2.17-132.1,124.57-261.57,306.66-306.32,27,80.58,54,147.41,80.92,228C843.9,1975.19,775.7,2073.58,785.83,2134,793.37,2179,845.87,2219.48,912.71,2229.37Z" style="fill:url(#linear-gradient-49)"/></g></g></svg>