<svg xmlns="http://www.w3.org/2000/svg" xmlns:xlink="http://www.w3.org/1999/xlink" version="1.1" x="0px" y="0px" viewBox="0 0 100 125" enable-background="new 0 0 100 100" xml:space="preserve"><path d="M61.127,36.481c0-1.104-0.896-2-2-2H34.873c-1.104,0-2,0.896-2,2s0.896,2,2,2h9.826c2.88,0,5.307,1.95,6.048,4.598H34.873  c-1.104,0-2,0.896-2,2s0.896,2,2,2H50.54c-0.922,2.328-3.19,3.981-5.841,3.981h-9.826c-0.818,0-1.554,0.499-1.857,1.259  c-0.304,0.76-0.113,1.628,0.48,2.191l16.271,15.451c0.387,0.368,0.882,0.55,1.377,0.55c0.529,0,1.058-0.209,1.45-0.623  c0.761-0.801,0.728-2.066-0.073-2.827L39.884,55.061h4.815c4.877,0,8.963-3.417,10.015-7.981h4.413c1.104,0,2-0.896,2-2  s-0.896-2-2-2h-4.294c-0.285-1.712-0.99-3.281-2.012-4.598h6.306C60.231,38.481,61.127,37.586,61.127,36.481z M81,33  c-1.104,0-2,0.896-2,2v39c0,4.411-3.589,8-8,8H25c-4.411,0-8-3.589-8-8V26c0-4.411,3.589-8,8-8h36c1.104,0,2-0.896,2-2s-0.896-2-2-2  H25c-6.617,0-12,5.383-12,12v48c0,6.617,5.383,12,12,12h46c6.617,0,12-5.383,12-12V35C83,33.896,82.104,33,81,33z M93,14H83V5  c0-1.104-0.896-2-2-2s-2,0.896-2,2v9h-9.875c-1.104,0-2,0.896-2,2s0.896,2,2,2H79v9c0,1.104,0.896,2,2,2s2-0.896,2-2v-9h10  c1.104,0,2-0.896,2-2S94.104,14,93,14z"/><text x="0" y="115" fill="#000000" font-size="5px" font-weight="bold" font-family="'Helvetica Neue', Helvetica, Arial-Unicode, Arial, Sans-serif">Created by Thengakola</text><text x="0" y="120" fill="#000000" font-size="5px" font-weight="bold" font-family="'Helvetica Neue', Helvetica, Arial-Unicode, Arial, Sans-serif">from the Noun Project</text></svg>