<svg xmlns="http://www.w3.org/2000/svg" xmlns:xlink="http://www.w3.org/1999/xlink" viewBox="0 0 3710 3710"><defs><linearGradient id="linear-gradient" x1="1247.49" y1="909.52" x2="1436" y2="2613.66" gradientUnits="userSpaceOnUse"><stop offset="0" stop-color="#311944"/><stop offset="1" stop-color="#893976"/></linearGradient><linearGradient id="linear-gradient-2" x1="1984.84" y1="2257.98" x2="2721.76" y2="3746.41" xlink:href="#linear-gradient"/><linearGradient id="linear-gradient-3" x1="764.95" y1="1619.66" x2="1861.35" y2="3029.32" xlink:href="#linear-gradient"/><linearGradient id="linear-gradient-4" x1="2951.37" y1="681.28" x2="2237.56" y2="1676.7" xlink:href="#linear-gradient"/><linearGradient id="linear-gradient-5" x1="1311.84" y1="910.77" x2="1498.5" y2="2598.12" gradientUnits="userSpaceOnUse"><stop offset="0" stop-color="#ffc444"/><stop offset="1" stop-color="#f36f56"/></linearGradient><linearGradient id="linear-gradient-6" x1="2049.05" y1="2257.98" x2="2785.97" y2="3746.41" gradientUnits="userSpaceOnUse"><stop offset="0" stop-color="#e38ddd"/><stop offset="1" stop-color="#9571f6"/></linearGradient><linearGradient id="linear-gradient-7" x1="829.38" y1="1619.96" x2="1885.34" y2="2977.61" gradientUnits="userSpaceOnUse"><stop offset="0" stop-color="#aa80f9"/><stop offset="1" stop-color="#6165d7"/></linearGradient><linearGradient id="linear-gradient-8" x1="3143.54" y1="496.38" x2="2344.56" y2="1610.55" gradientUnits="userSpaceOnUse"><stop offset="0" stop-color="#ff9085"/><stop offset="1" stop-color="#fb6fbb"/></linearGradient><linearGradient id="linear-gradient-9" x1="1679.93" y1="2440.72" x2="2416.85" y2="3929.15" xlink:href="#linear-gradient-6"/><linearGradient id="linear-gradient-10" x1="1913.94" y1="2916.53" x2="3184.65" y2="2916.53" xlink:href="#linear-gradient-7"/><linearGradient id="linear-gradient-11" x1="2654.61" y1="2382.21" x2="2088.32" y2="3307.97" xlink:href="#linear-gradient-7"/><linearGradient id="linear-gradient-12" x1="-7715.75" y1="2681.14" x2="-7473.67" y2="3537.09" gradientTransform="matrix(-1, 0, 0, 1, -5324.97, 3.6)" xlink:href="#linear-gradient-8"/><linearGradient id="linear-gradient-13" x1="2198.92" y1="2050.53" x2="2388.49" y2="2243.48" gradientUnits="userSpaceOnUse"><stop offset="0" stop-color="#ab316d"/><stop offset="1" stop-color="#792d3d"/></linearGradient><linearGradient id="linear-gradient-14" x1="859.69" y1="2365.94" x2="1553.39" y2="2390.97" gradientTransform="matrix(-1, 0, 0, 1, 3036.01, 0)" gradientUnits="userSpaceOnUse"><stop offset="0" stop-color="#f36f56"/><stop offset="1" stop-color="#ffc444"/></linearGradient><linearGradient id="linear-gradient-15" x1="-266.28" y1="4208.24" x2="-1534.03" y2="2388.19" gradientTransform="matrix(-1, 0.08, 0.08, 1, -324.92, 65.44)" xlink:href="#linear-gradient-14"/><linearGradient id="linear-gradient-16" x1="-266.4" y1="4208.34" x2="-1534.17" y2="2388.26" gradientTransform="matrix(-1, 0.08, 0.08, 1, -324.92, 65.44)" xlink:href="#linear-gradient-14"/><linearGradient id="linear-gradient-17" x1="-1038.39" y1="3198.75" x2="-833.9" y2="3198.75" gradientTransform="matrix(-1, 0.08, 0.08, 1, -324.92, 65.44)" xlink:href="#linear-gradient-13"/><linearGradient id="linear-gradient-18" x1="89.25" y1="3960.59" x2="-1178.52" y2="2140.53" gradientTransform="matrix(-1, 0.08, 0.08, 1, -324.92, 65.44)" xlink:href="#linear-gradient-14"/><linearGradient id="linear-gradient-19" x1="-2952.43" y1="4295.22" x2="-2952.43" y2="3932.8" gradientTransform="matrix(-0.78, 0.63, 0.63, 0.78, -3649.3, 622.2)" xlink:href="#linear-gradient-13"/><linearGradient id="linear-gradient-20" x1="1750.25" y1="2044.71" x2="1760.92" y2="1913.07" gradientTransform="matrix(-1, 0, 0, 1, 3036.01, 0)" gradientUnits="userSpaceOnUse"><stop offset="0" stop-color="#444b8c"/><stop offset="1" stop-color="#26264f"/></linearGradient><linearGradient id="linear-gradient-21" x1="-3208.61" y1="4190.78" x2="-3039.17" y2="3861.3" gradientTransform="matrix(-0.78, 0.63, 0.63, 0.78, -3649.3, 622.2)" xlink:href="#linear-gradient-13"/><linearGradient id="linear-gradient-22" x1="1832.53" y1="96.85" x2="1021.43" y2="1227.93" xlink:href="#linear-gradient-7"/></defs><title>Sell</title><g style="isolation:isolate"><g id="Background"><rect width="3710" height="3710" style="fill:#fff"/></g><g id="Illustration"><path d="M1844.86,474.33s-945.38,59.92-922.08,618c6.67,160-31.49,320.1-143.89,439.48-70.56,74.94-164.75,129.56-214.32,222.69-98,184.1-33.48,409.22,20.56,593.81C638.85,2531.74,674,2724.64,778.72,2888c57.27,89.28,134.61,176.54,219.39,241,117.62,89.36,268.65,127.49,415.23,129.83,841.72,13.42,1771.5-48.57,1865.65-1153.32S2747,330.5,1844.86,474.33Z" style="fill:#f4f7fa"/><path d="M1410.57,1709.61l65.1-.33s155.94-185.94,261.31-196.22l9.76-523.88c-403.58,1.28-759.77,215.61-922,532.39Z" style="fill:url(#linear-gradient)"/><path d="M2189.14,1941.78c-33.08,172.13-199.44,307.46-403.25,313.43-50.17,1.47-108.67-26.87-108.67-26.87s-53.66,2.78-62.85-.59L1296.24,2692c147.87,62.92,314.92,93.74,489.65,84.28,508.14-27.51,907.65-388.06,952-822.12Z" style="fill:url(#linear-gradient-2)"/><path d="M1196.67,2643.17l63.64,2.08,257.41-467.71c-96-67-157.76-171.31-157.76-289.6a336.08,336.08,0,0,1,10.49-83.28L846.17,1618.17l-63.77.7a809.71,809.71,0,0,0-48.64,276.31C733.76,2213.7,919.18,2487.94,1196.67,2643.17Z" style="fill:url(#linear-gradient-3)"/><path d="M1848.21,1515.34c185.6,26,328.31,161.59,345.26,329.13L3090.84,1869v-1.07c0-.64,135.28-20.5,135.28-20.58,0-5.8-1225.87-1220.35-1225.87-1220.35l-136,21.06Z" style="fill:url(#linear-gradient-4)"/><path d="M1474.78,1709.61c65-107.17,185.91-182.85,326.41-196.55L1811,989.18c-403.58,1.28-759.77,215.61-922,532.39Z" style="fill:url(#linear-gradient-5)"/><path d="M2253.35,1941.78c-33.08,172.13-199.44,307.46-403.25,313.43a458.22,458.22,0,0,1-171.52-27.46L1360.46,2692c147.86,62.92,314.91,93.74,489.64,84.28,508.14-27.51,907.65-388.06,952-822.12Z" style="fill:url(#linear-gradient-6)"/><path d="M1260.88,2643.17l321-465.63c-96-67-157.75-171.31-157.75-289.6a336.08,336.08,0,0,1,10.48-83.28L846.61,1618.87A809.71,809.71,0,0,0,798,1895.18C798,2213.7,983.39,2487.94,1260.88,2643.17Z" style="fill:url(#linear-gradient-7)"/><path d="M1983.5,1493.25c185.6,26,328.3,161.6,345.25,329.14l897.37,24.51c0-.36,0-.72,0-1.08,0-620.5-524.52-1151.51-1226.55-1219.87Z" style="fill:url(#linear-gradient-8)"/><g style="opacity:0.30000000000000004;mix-blend-mode:multiply"><path d="M1727.41,2242.54a446.4,446.4,0,0,1-48.83-14.79L1360.46,2692c147.86,62.92,314.91,93.74,489.64,84.28,141.18-7.64,274-41,393.07-94.52-120.25-17.16-227.6-60.15-313.32-131.78C1832.19,2468.39,1768.86,2354.88,1727.41,2242.54Z" style="fill:url(#linear-gradient-9)"/></g><path d="M1913.94,2577.32v653c0,21.68,16.06,38.89,35.86,38.44l1200.55-27.09c19-.43,34.3-17.95,34.3-39.14V2564.33Z" style="fill:url(#linear-gradient-10)"/><path d="M3150.35,2483.62,1949.8,2494.11c-19.8.17-35.86,17.89-35.86,39.57v66.9l1270.71-13.51v-65.39C3184.65,2500.49,3169.3,2483.45,3150.35,2483.62Z" style="fill:url(#linear-gradient-11)"/><path d="M2207.83,2919.92l66.27-255.18c100.23,34.33,172.66,136.55,173.2,258.46Z" style="fill:url(#linear-gradient-12)"/><path d="M2385.42,2940.25c-3.71,58.08-29,110-67.2,145.89l-104-148.42Z" style="fill:#fff"/><path d="M2193,2911.47c-40.13-41.6-88.55-91.89-127.05-132.07,34.15-36.14,80.3-58.64,131-59.29a173.1,173.1,0,0,1,44.61,5.24Z" style="fill:#fff"/><path d="M2184.64,2927.53l-145.6,120c-20.37-32.89-32.27-72.72-32.27-115.81,0-53.15,18.09-101.93,47.86-139.23q16,16.68,35.51,37C2129.48,2870.36,2169,2911.33,2184.64,2927.53Z" style="fill:#fff"/><path d="M2188.86,2946.22l-2.81,190.59c-55.42-2.34-104.57-31-137.33-75.07Z" style="fill:#fff"/><path d="M2205,2954l100.38,143.22c-29.31,23.18-64.74,37.58-103.08,39.52Z" style="fill:#fff"/><polygon points="3095.68 2772.8 2481.19 2781.4 2481.19 2716.91 3095.68 2709.02 3095.68 2772.8" style="fill:#fff"/><polygon points="3095.68 2888.21 2481.19 2898.1 2481.19 2833.61 3095.68 2824.43 3095.68 2888.21" style="fill:#fff"/><polygon points="3095.68 3003.61 2481.19 3014.8 2481.19 2950.31 3095.68 2939.84 3095.68 3003.61" style="fill:#fff"/><polygon points="3095.68 3119.02 2481.19 3131.5 2481.19 3067.01 3095.68 3055.24 3095.68 3119.02" style="fill:#fff"/><path d="M1996.26,2546c0,9.62-7.12,17.5-15.91,17.58s-15.92-7.64-15.92-17.27,7.13-17.5,15.92-17.59S1996.26,2536.36,1996.26,2546Z" style="fill:#fff"/><path d="M2185,2179.37s-2.66-63.32,31.15-106.59,80-104,68.09-65.38S2251,2067,2251,2067s49.48,26.19,16.79,64.07-37.27,54.89-37.27,58.16S2185,2179.37,2185,2179.37Z" style="fill:url(#linear-gradient-13)"/><path d="M2172.83,2169l76.88-5.36c60.46,244.29,17.09,481.27-119.35,568.43-213.18,136.16-609.37-120.38-695.22-399.71-37.69-122.61-29.11-299.55,46.21-333.93,20.91-9.55,53.35-11,123.63,28.43,209.9,117.85,215.42,340.58,322.13,359.44C1974.55,2394.69,2051.16,2364.44,2172.83,2169Z" style="fill:url(#linear-gradient-14)"/><path d="M1585.91,3323.46c36.92-61.26-9.45-120.35-20-236.41-12-131.54,38.71-153.45,88.82-371.44,33.33-145,65.32-284.17,27.14-447.1-18.3-78.08-49.34-210.52-158.95-274.49-56.56-33-133.79-29.71-285.93-21.74-188.15,9.83-282.22,14.75-352.38,51.69-10.27,5.41-223.7,121.51-238.39,310.75-15,192.6,194.8,218.49,222.77,475.33,12.56,115.3-9.83,292.63-24.34,407.65-13.94,110.45-23.54,138.72-1.74,172.16,52.53,80.59,213.35,57.62,535,11.69C1504.06,3383.53,1558.36,3369.17,1585.91,3323.46Z" style="fill:url(#linear-gradient-15)"/><path d="M1096.54,2768.73c-13.6,50.06-62.52,87.45-96.57,209.22-7.35,26.29-59.7,213.5,8.21,259.59,39.23,26.61,74.45-23.82,169.66-30.4,165-11.41,243.58,127.25,351.35,89.38,18.69-6.58,43.38-20.58,68-52.77,4.91,29,4.06,54.2-11.31,79.71-27.55,45.71-81.85,60.07-208,78.09-321.64,45.93-482.46,68.9-535-11.69-21.8-33.44-12.2-61.71,1.74-172.16,14.51-115,36.9-292.35,24.34-407.65-28-256.84-237.73-282.73-222.77-475.33,4-51.49,22.93-97.34,48.26-137.25C960.57,2305.15,1139.29,2611.43,1096.54,2768.73Z" style="opacity:0.30000000000000004;mix-blend-mode:multiply;fill:url(#linear-gradient-16)"/><path d="M760.46,3147.6l53.23,34c9.56-11,31.69-33.31,66.25-40.91,38.93-8.56,83.61,3.71,84.65,16.14.84,9.95-26.37,20-30.58,21.54-34,12.54-59.17,2.13-72.9,15.78-4.86,4.83-10.91,13.81-24.83,22.13a75.4,75.4,0,0,1-9.5,4.91c-22.67,8.81-61.56-30.65-64.91-34.1Z" style="fill:url(#linear-gradient-17)"/><path d="M917.74,2449.37c38.51-92.24,65.19-233.46,4.36-443.18-400.8,157.93-605.21,532.32-525.39,829.11C462.5,3080,701.87,3199.14,755.27,3224.22q18.63-42.43,37.27-84.84c-61.88-68.91-131.61-170.8-121.74-287.07C684.46,2691.12,839.77,2636.1,917.74,2449.37Z" style="fill:url(#linear-gradient-18)"/><path d="M1227.14,1782.53s-3.17,70.11-24.93,122.62c-19.67,47.45-123.12,77.28-144.09,87.87s39.29,41.56,99.8,47.64,233.32-7.66,264.47-30.6-25-21.21-68.23-37.07-68.16-100.32-60.54-138.66S1227.14,1782.53,1227.14,1782.53Z" style="fill:url(#linear-gradient-19)"/><path d="M1322.84,1757.11c31.4-30.85,35.78-34.45,39.2-45.12,13.72-42.8-19.47-101.41-63-115.84-2.26-.74-31.46-10.09-42.61,2.58-9.46,10.75,4.46,25.61-2.16,46.35-6.2,19.41-23,20.86-54.21,46.31-25.69,21-41.66,34-45.34,52.33-7.59,37.79,38.15,92.56,78.66,91.07C1247.93,1834.26,1251.89,1826.82,1322.84,1757.11Z" style="fill:url(#linear-gradient-20)"/><path d="M1237.33,1840.63s33.37,37.79,84.22,25.3c45.52-11.19,33.9-115.66.59-132.35-11.11-5.57-31.31-5.11-46.49,2.21-9,4.32-11.47,8.81-26.26,15.59-13.65,6.25-18,5.39-21.64,9.79-4.6,5.5-6.57,17.35,7.82,45.94-10.37-7.33-21.53-8.87-28.37-4a15.93,15.93,0,0,0-5.07,7.07C1197.79,1823.1,1211.24,1836.25,1237.33,1840.63Z" style="fill:url(#linear-gradient-21)"/><path d="M1807.9,1205.67,673.6,1194.38c-25.65-.26-46.47-20.69-46.47-45.64V717.31c0-24.95,20.82-44.68,46.47-44.07l987.48,23.52a45.2,45.2,0,0,1,44,44.93v370.8Z" style="fill:url(#linear-gradient-22)"/><polygon points="1545.7 852.67 794.51 838.03 794.51 786.31 1545.7 801.99 1545.7 852.67" style="fill:#fff"/><polygon points="1545.7 954.04 794.51 941.47 794.51 889.75 1545.7 903.36 1545.7 954.04" style="fill:#fff"/><polygon points="1545.7 1055.41 794.51 1044.92 794.51 993.19 1545.7 1004.73 1545.7 1055.41" style="fill:#fff"/></g></g></svg>