<?xml version="1.0" encoding="UTF-8"?>
<svg width="132px" height="40px" viewBox="0 0 132 40" version="1.1" xmlns="http://www.w3.org/2000/svg" xmlns:xlink="http://www.w3.org/1999/xlink">
    <title>Artboard</title>
    <g id="Artboard" stroke="none" stroke-width="1" fill="none" fill-rule="evenodd">
        <g id="Group-4" fill-rule="nonzero">
            <g id="Group-5" fill="#12B0EE">
                <path d="M19.9620133,6.15384615 C27.5880534,6.15384615 33.7701804,12.3359732 33.7701804,19.9620133 C33.7701804,27.4821362 27.7585866,33.5981762 20.2789167,33.7666155 L19.9620133,33.7701804 L19.23804,33.7701804 L19.2026846,30.6932574 L19.9620133,30.6932574 C25.8887157,30.6932574 30.6932574,25.8887157 30.6932574,19.9620133 C30.6932574,14.0353109 25.8887157,9.23076923 19.9620133,9.23076923 C14.1324699,9.23076923 9.38859676,13.8790761 9.2346266,19.6714571 L9.23076923,19.9620133 L9.23076923,20.733685 L6.15384615,20.7353081 C6.15384615,20.5939938 6.15384615,20.3362288 6.15384615,19.9620133 C6.15384615,12.3359732 12.3359732,6.15384615 19.9620133,6.15384615 Z" id="Oval" transform="translate(19.962013, 19.962013) rotate(-135.000000) translate(-19.962013, -19.962013) "></path>
                <polygon id="Path-3" points="26.5562696 14.4 28.8 16.5979034 18.303427 27.2 12.8 21.6412462 15.0437304 19.4433428 18.3027745 22.7355558"></polygon>
            </g>
            <path d="M39.3181435,27.3927682 C41.1814346,27.3927682 42.5918425,26.7027923 43.5493671,25.3228405 L43.5493671,25.3228405 L41.5308017,24.1621334 C41.0390999,24.8069707 40.3144866,25.1293893 39.356962,25.1293893 C37.868917,25.1293893 36.9566807,24.5232423 36.6202532,23.3109482 L36.6202532,23.3109482 L43.9375527,23.3109482 C44.0022504,22.9498393 44.0345992,22.6080755 44.0345992,22.2856569 C44.0345992,20.8412214 43.5720113,19.6289273 42.6468354,18.6487746 C41.7216596,17.6686219 40.547398,17.1785456 39.1240506,17.1785456 C37.6230661,17.1785456 36.3938115,17.6653978 35.4362869,18.639102 C34.4787623,19.6128063 34,20.8283246 34,22.2856569 C34,23.7558859 34.4852321,24.9746284 35.4556962,25.9418843 C36.4261603,26.9091402 37.7136428,27.3927682 39.3181435,27.3927682 Z M41.5308017,21.3764363 L36.5814346,21.3764363 C36.7237693,20.7573925 37.0149086,20.2769888 37.4548523,19.935225 C37.8947961,19.5934612 38.4511955,19.4225793 39.1240506,19.4225793 C39.6933896,19.4225793 40.2012658,19.5837887 40.6476793,19.9062073 C41.0940928,20.228626 41.3884669,20.7187023 41.5308017,21.3764363 L41.5308017,21.3764363 Z M49.9156118,27.3927682 C51.2742616,27.3927682 52.3288326,26.922037 53.0793249,25.9805745 L53.0793249,25.9805745 L53.0793249,27.1219365 L55.5831224,27.1219365 L55.5831224,17.4493773 L53.0793249,17.4493773 L53.0793249,18.5907393 C52.3288326,17.6492768 51.2742616,17.1785456 49.9156118,17.1785456 C48.6216596,17.1785456 47.5120956,17.6718461 46.5869198,18.6584472 C45.661744,19.6450482 45.1991561,20.8541181 45.1991561,22.2856569 C45.1991561,23.7171957 45.661744,24.9262656 46.5869198,25.9128666 C47.5120956,26.8994677 48.6216596,27.3927682 49.9156118,27.3927682 Z M50.3814346,25.0133186 C49.6050633,25.0133186 48.964557,24.7618321 48.4599156,24.258859 C47.9552743,23.7429892 47.7029536,23.0852551 47.7029536,22.2856569 C47.7029536,21.4860587 47.9552743,20.8315488 48.4599156,20.3221274 C48.964557,19.8127059 49.6050633,19.5579952 50.3814346,19.5579952 C51.1578059,19.5579952 51.8015471,19.8127059 52.3126582,20.3221274 C52.8237693,20.8315488 53.0793249,21.4860587 53.0793249,22.2856569 C53.0793249,23.0852551 52.8237693,23.739765 52.3126582,24.2491864 C51.8015471,24.7586079 51.1578059,25.0133186 50.3814346,25.0133186 Z M61.1924051,27.3927682 C62.3052039,27.3927682 63.2336146,27.1251607 63.9776371,26.5899458 C64.7216596,26.0547308 65.0936709,25.2905986 65.0936709,24.2975492 C65.0936709,23.6398152 64.9222222,23.0917035 64.5793249,22.6532141 C64.2364276,22.2147248 63.819128,21.9019787 63.3274262,21.7149759 C62.8357243,21.5279731 62.3440225,21.3732121 61.8523207,21.250693 C61.3606188,21.128174 60.9433193,20.9863098 60.6004219,20.8251004 C60.2575246,20.6638911 60.0860759,20.454319 60.0860759,20.1963841 C60.0860759,19.9513459 60.192827,19.7578947 60.4063291,19.6160305 C60.6198312,19.4741663 60.8883263,19.4032342 61.2118143,19.4032342 C61.9364276,19.4032342 62.4540084,19.7321012 62.764557,20.3898353 L62.764557,20.3898353 L64.8995781,19.2291282 C64.5243319,18.5713941 64.0132208,18.0651969 63.3662447,17.7105364 C62.7192686,17.3558759 62.0011252,17.1785456 61.2118143,17.1785456 C60.1637131,17.1785456 59.2870605,17.4526014 58.5818565,18.0007131 C57.8766526,18.5488248 57.5240506,19.3000603 57.5240506,20.2544194 C57.5240506,20.88636 57.6954993,21.4119024 58.0383966,21.8310466 C58.381294,22.2501908 58.7985935,22.5564885 59.2902954,22.7499397 C59.7819972,22.9433909 60.273699,23.1046002 60.7654008,23.2335677 C61.2571027,23.3625352 61.6744023,23.5076235 62.0172996,23.6688329 C62.3601969,23.8300422 62.5316456,24.0396143 62.5316456,24.2975492 C62.5316456,24.8521093 62.0852321,25.1293893 61.1924051,25.1293893 C60.2090014,25.1293893 59.5749648,24.7102451 59.2902954,23.8719566 L59.2902954,23.8719566 L57.1164557,25.0906991 C57.8410689,26.6254118 59.1997187,27.3927682 61.1924051,27.3927682 Z M66.6658228,30.9909602 C67.9080169,31.055444 68.9464135,30.7749397 69.7810127,30.1494476 C70.6156118,29.5239554 71.2852321,28.5147851 71.7898734,27.1219365 L71.7898734,27.1219365 L75.3223629,17.4493773 L72.6438819,17.4493773 L70.4894515,23.9493371 L67.9662447,17.4493773 L65.2295359,17.4493773 L69.2084388,26.8124146 C68.9755274,27.4701487 68.661744,27.9473282 68.2670886,28.2439534 C67.8724332,28.5405785 67.3386779,28.6824427 66.6658228,28.669546 L66.6658228,28.669546 L66.6658228,30.9909602 Z M79.3206751,27.3927682 C80.433474,27.3927682 81.3618847,27.1251607 82.1059072,26.5899458 C82.8499297,26.0547308 83.2219409,25.2905986 83.2219409,24.2975492 C83.2219409,23.6398152 83.0504923,23.0917035 82.7075949,22.6532141 C82.3646976,22.2147248 81.947398,21.9019787 81.4556962,21.7149759 C80.9639944,21.5279731 80.4722925,21.3732121 79.9805907,21.250693 C79.4888889,21.128174 79.0715893,20.9863098 78.728692,20.8251004 C78.3857947,20.6638911 78.214346,20.454319 78.214346,20.1963841 C78.214346,19.9513459 78.321097,19.7578947 78.5345992,19.6160305 C78.7481013,19.4741663 79.0165963,19.4032342 79.3400844,19.4032342 C80.0646976,19.4032342 80.5822785,19.7321012 80.892827,20.3898353 L80.892827,20.3898353 L83.0278481,19.2291282 C82.652602,18.5713941 82.1414909,18.0651969 81.4945148,17.7105364 C80.8475387,17.3558759 80.1293952,17.1785456 79.3400844,17.1785456 C78.2919831,17.1785456 77.4153305,17.4526014 76.7101266,18.0007131 C76.0049226,18.5488248 75.6523207,19.3000603 75.6523207,20.2544194 C75.6523207,20.88636 75.8237693,21.4119024 76.1666667,21.8310466 C76.509564,22.2501908 76.9268636,22.5564885 77.4185654,22.7499397 C77.9102672,22.9433909 78.4019691,23.1046002 78.8936709,23.2335677 C79.3853727,23.3625352 79.8026723,23.5076235 80.1455696,23.6688329 C80.4884669,23.8300422 80.6599156,24.0396143 80.6599156,24.2975492 C80.6599156,24.8521093 80.2135021,25.1293893 79.3206751,25.1293893 C78.3372714,25.1293893 77.7032349,24.7102451 77.4185654,23.8719566 L77.4185654,23.8719566 L75.2447257,25.0906991 C75.969339,26.6254118 77.3279887,27.3927682 79.3206751,27.3927682 Z M89.3164557,27.3927682 C90.7527426,27.3927682 91.9690577,26.9026918 92.9654008,25.9225392 C93.961744,24.9294898 94.4599156,23.7171957 94.4599156,22.2856569 C94.4599156,20.8541181 93.961744,19.6450482 92.9654008,18.6584472 C91.9690577,17.6718461 90.7527426,17.1785456 89.3164557,17.1785456 C87.8801688,17.1785456 86.6670886,17.6718461 85.6772152,18.6584472 C84.6873418,19.6450482 84.1924051,20.8541181 84.1924051,22.2856569 C84.1924051,23.7171957 84.6873418,24.9262656 85.6772152,25.9128666 C86.6670886,26.8994677 87.8801688,27.3927682 89.3164557,27.3927682 Z M89.3164557,24.9552832 C88.5659634,24.9552832 87.9383966,24.7037967 87.4337553,24.2008236 C86.9420534,23.6978505 86.6962025,23.0594616 86.6962025,22.2856569 C86.6962025,21.5118521 86.9452883,20.8734632 87.4434599,20.3704902 C87.9416315,19.8675171 88.5659634,19.6160305 89.3164557,19.6160305 C90.066948,19.6160305 90.6945148,19.8675171 91.1991561,20.3704902 C91.7037975,20.8734632 91.9561181,21.5118521 91.9561181,22.2856569 C91.9561181,23.0594616 91.7037975,23.6978505 91.1991561,24.2008236 C90.6945148,24.7037967 90.066948,24.9552832 89.3164557,24.9552832 Z M100.84557,27.3927682 C101.790155,27.3927682 102.650633,27.1638509 103.427004,26.7060165 C104.203376,26.248182 104.805063,25.6388108 105.232068,24.8779028 L105.232068,24.8779028 L103.058228,23.6398152 C102.864135,24.0396143 102.569761,24.3523604 102.175105,24.5780534 C101.78045,24.8037465 101.330802,24.916593 100.82616,24.916593 C100.075668,24.916593 99.454571,24.6683307 98.9628692,24.1718059 C98.4711674,23.6752812 98.2253165,23.0465649 98.2253165,22.2856569 C98.2253165,21.5118521 98.4711674,20.8766874 98.9628692,20.3801627 C99.454571,19.883638 100.075668,19.6353757 100.82616,19.6353757 C101.317862,19.6353757 101.761041,19.7514464 102.155696,19.9835878 C102.550352,20.2157292 102.844726,20.5316995 103.038819,20.9314986 L103.038819,20.9314986 L105.193249,19.6740659 C104.792124,18.9131579 104.203376,18.3070108 103.427004,17.8556247 C102.650633,17.4042387 101.790155,17.1785456 100.84557,17.1785456 C99.3834037,17.1785456 98.1638537,17.6686219 97.1869198,18.6487746 C96.2099859,19.6289273 95.721519,20.8412214 95.721519,22.2856569 C95.721519,23.7300924 96.2099859,24.9423865 97.1869198,25.9225392 C98.1638537,26.9026918 99.3834037,27.3927682 100.84557,27.3927682 Z M107.794093,16.2886701 C108.221097,16.2886701 108.586639,16.1371334 108.890717,15.8340599 C109.194796,15.5309863 109.346835,15.1731016 109.346835,14.7604058 C109.346835,14.3477099 109.194796,13.986601 108.890717,13.6770791 C108.586639,13.3675573 108.221097,13.2127963 107.794093,13.2127963 C107.380028,13.2127963 107.020956,13.3675573 106.716878,13.6770791 C106.412799,13.986601 106.260759,14.3477099 106.260759,14.7604058 C106.260759,15.1731016 106.412799,15.5309863 106.716878,15.8340599 C107.020956,16.1371334 107.380028,16.2886701 107.794093,16.2886701 Z M109.055696,27.1219365 L109.055696,17.4493773 L106.551899,17.4493773 L106.551899,27.1219365 L109.055696,27.1219365 Z M115.557806,27.3927682 C116.916456,27.3927682 117.971027,26.922037 118.721519,25.9805745 L118.721519,25.9805745 L118.721519,27.1219365 L121.225316,27.1219365 L121.225316,17.4493773 L118.721519,17.4493773 L118.721519,18.5907393 C117.971027,17.6492768 116.916456,17.1785456 115.557806,17.1785456 C114.263854,17.1785456 113.15429,17.6718461 112.229114,18.6584472 C111.303938,19.6450482 110.84135,20.8541181 110.84135,22.2856569 C110.84135,23.7171957 111.303938,24.9262656 112.229114,25.9128666 C113.15429,26.8994677 114.263854,27.3927682 115.557806,27.3927682 Z M116.023629,25.0133186 C115.247257,25.0133186 114.606751,24.7618321 114.10211,24.258859 C113.597468,23.7429892 113.345148,23.0852551 113.345148,22.2856569 C113.345148,21.4860587 113.597468,20.8315488 114.10211,20.3221274 C114.606751,19.8127059 115.247257,19.5579952 116.023629,19.5579952 C116.8,19.5579952 117.443741,19.8127059 117.954852,20.3221274 C118.465963,20.8315488 118.721519,21.4860587 118.721519,22.2856569 C118.721519,23.0852551 118.465963,23.739765 117.954852,24.2491864 C117.443741,24.7586079 116.8,25.0133186 116.023629,25.0133186 Z M126,27.1219365 L126,13 L123.496203,13 L123.496203,27.1219365 L126,27.1219365 Z" id="easysocial" fill="#3C4555"></path>
        </g>
    </g>
</svg>